<svg width="34" height="34" viewBox="0 0 34 34" fill="none" xmlns="http://www.w3.org/2000/svg">
<path d="M5.66683 29.7499C4.88766 29.7499 4.22089 29.4727 3.6665 28.9183C3.11211 28.3639 2.83444 27.6967 2.8335 26.9166V11.3333C2.8335 10.5541 3.11116 9.88731 3.6665 9.33292C4.22183 8.77853 4.88861 8.50086 5.66683 8.49992H11.3335V5.66659C11.3335 4.88742 11.6112 4.22064 12.1665 3.66625C12.7218 3.11186 13.3886 2.8342 14.1668 2.83325H19.8335C20.6127 2.83325 21.2799 3.11092 21.8352 3.66625C22.3906 4.22159 22.6678 4.88836 22.6668 5.66659V8.49992H28.3335C29.1127 8.49992 29.7799 8.77759 30.3352 9.33292C30.8906 9.88825 31.1678 10.555 31.1668 11.3333V26.9166C31.1668 27.6958 30.8896 28.363 30.3352 28.9183C29.7809 29.4737 29.1136 29.7509 28.3335 29.7499H5.66683ZM14.1668 8.49992H19.8335V5.66659H14.1668V8.49992ZM17.0002 21.9583C17.7793 21.9583 18.4466 21.6811 19.0019 21.1267C19.5572 20.5723 19.8344 19.905 19.8335 19.1249C19.8326 18.3448 19.5554 17.678 19.0019 17.1246C18.4485 16.5711 17.7812 16.2935 17.0002 16.2916C16.2191 16.2897 15.5523 16.5674 14.9998 17.1246C14.4473 17.6818 14.1697 18.3486 14.1668 19.1249C14.164 19.9013 14.4417 20.5685 14.9998 21.1267C15.558 21.6848 16.2248 21.962 17.0002 21.9583Z" fill="#A5EB14"/>
</svg>
