<svg width="34" height="34" viewBox="0 0 34 34" fill="none" xmlns="http://www.w3.org/2000/svg">
<path fill-rule="evenodd" clip-rule="evenodd" d="M12.6963 26.1643C8.52708 22.9697 2.8335 17.6926 2.8335 12.7031C2.8335 4.36748 10.6252 1.25506 17.0002 7.69239C23.3752 1.25506 31.1668 4.36748 31.1668 12.7031C31.1668 17.6926 25.4718 22.9697 21.304 26.1643C19.417 27.6093 18.4735 28.3332 17.0002 28.3332C15.5268 28.3332 14.5833 27.6107 12.6963 26.1643ZM23.3752 8.85406C23.657 8.85406 23.9272 8.966 24.1265 9.16526C24.3257 9.36452 24.4377 9.63477 24.4377 9.91656V11.6874H26.2085C26.4903 11.6874 26.7605 11.7993 26.9598 11.9986C27.1591 12.1979 27.271 12.4681 27.271 12.7499C27.271 13.0317 27.1591 13.3019 26.9598 13.5012C26.7605 13.7005 26.4903 13.8124 26.2085 13.8124H24.4377V15.5832C24.4377 15.865 24.3257 16.1353 24.1265 16.3345C23.9272 16.5338 23.657 16.6457 23.3752 16.6457C23.0934 16.6457 22.8231 16.5338 22.6239 16.3345C22.4246 16.1353 22.3127 15.865 22.3127 15.5832V13.8124H20.5418C20.26 13.8124 19.9898 13.7005 19.7905 13.5012C19.5913 13.3019 19.4793 13.0317 19.4793 12.7499C19.4793 12.4681 19.5913 12.1979 19.7905 11.9986C19.9898 11.7993 20.26 11.6874 20.5418 11.6874H22.3127V9.91656C22.3127 9.63477 22.4246 9.36452 22.6239 9.16526C22.8231 8.966 23.0934 8.85406 23.3752 8.85406Z" fill="#A5EB14"/>
</svg>
