<svg width="34" height="34" viewBox="0 0 34 34" fill="none" xmlns="http://www.w3.org/2000/svg">
<g clip-path="url(#clip0_1443_2541)">
<path d="M8.5 0C8.82887 0 9.11347 0.120164 9.3538 0.360491C9.59412 0.600818 9.71429 0.885417 9.71429 1.21429V18.1194L19.8839 9.97991C20.099 9.80283 20.3519 9.71429 20.6429 9.71429C20.9717 9.71429 21.2563 9.83445 21.4967 10.0748C21.737 10.3151 21.8571 10.5997 21.8571 10.9286V18.1194L32.0268 9.97991C32.2418 9.80283 32.4948 9.71429 32.7857 9.71429C33.1146 9.71429 33.3992 9.83445 33.6395 10.0748C33.8798 10.3151 34 10.5997 34 10.9286V32.7857C34 33.1146 33.8798 33.3992 33.6395 33.6395C33.3992 33.8798 33.1146 34 32.7857 34H1.21429C0.885417 34 0.600818 33.8798 0.360491 33.6395C0.120164 33.3992 0 33.1146 0 32.7857V1.21429C0 0.885417 0.120164 0.600818 0.360491 0.360491C0.600818 0.120164 0.885417 0 1.21429 0H8.5Z" fill="#A5EB14"/>
</g>
<defs>
<clipPath id="clip0_1443_2541">
<rect width="34" height="34" fill="white"/>
</clipPath>
</defs>
</svg>
