<svg width="34" height="34" viewBox="0 0 34 34" fill="none" xmlns="http://www.w3.org/2000/svg">
<path d="M5.66683 28.3333C4.88766 28.3333 4.22089 28.0561 3.6665 27.5018C3.11211 26.9474 2.83444 26.2801 2.8335 25.5V19.8333H9.91683C9.91683 20.2347 10.0528 20.5714 10.3248 20.8434C10.5968 21.1154 10.9331 21.2509 11.3335 21.25C11.7113 21.25 11.9771 21.0786 12.1311 20.7358C12.285 20.3929 12.4914 20.0921 12.7502 19.8333H21.2502C21.2502 20.2347 21.3862 20.5714 21.6582 20.8434C21.9302 21.1154 22.2664 21.2509 22.6668 21.25C23.0446 21.25 23.3105 21.0786 23.4644 20.7358C23.6184 20.3929 23.8247 20.0921 24.0835 19.8333H31.1668V25.5C31.1668 26.2792 30.8896 26.9464 30.3352 27.5018C29.7809 28.0571 29.1136 28.3343 28.3335 28.3333H5.66683ZM3.43558 17L6.37516 10.2C6.58766 9.68056 6.93002 9.26736 7.40225 8.96042C7.87447 8.65347 8.38211 8.5 8.92516 8.5H9.91683V7.08334C9.91683 6.30417 10.1945 5.63692 10.7498 5.08159C11.3052 4.52625 11.9719 4.24906 12.7502 4.25H21.2502C22.0293 4.25 22.6966 4.52767 23.2519 5.083C23.8072 5.63834 24.0844 6.30511 24.0835 7.08334V8.5H25.0752C25.6182 8.5 26.1259 8.65347 26.5981 8.96042C27.0703 9.26736 27.4127 9.68056 27.6252 10.2L30.5647 17H24.0835C24.0835 16.5986 23.9475 16.2624 23.6755 15.9913C23.4035 15.7203 23.0673 15.5843 22.6668 15.5833C22.2891 15.5833 22.0237 15.7548 21.8707 16.0976C21.7177 16.4404 21.5108 16.7412 21.2502 17H12.7502C12.7502 16.5986 12.6142 16.2624 12.3422 15.9913C12.0702 15.7203 11.7339 15.5843 11.3335 15.5833C10.9557 15.5833 10.6903 15.7548 10.5373 16.0976C10.3843 16.4404 10.1775 16.7412 9.91683 17H3.43558ZM12.7502 8.5H21.2502V7.08334H12.7502V8.5Z" fill="#A5EB14"/>
</svg>
