<svg width="34" height="34" viewBox="0 0 34 34" fill="none" xmlns="http://www.w3.org/2000/svg">
<path d="M3.3999 5.0999C3.3999 4.64903 3.57901 4.21663 3.89782 3.89782C4.21663 3.57901 4.64903 3.3999 5.0999 3.3999C5.55077 3.3999 5.98317 3.57901 6.30198 3.89782C6.6208 4.21663 6.7999 4.64903 6.7999 5.0999H28.8999C29.3508 5.0999 29.7832 5.27901 30.102 5.59782C30.4208 5.91663 30.5999 6.34903 30.5999 6.7999C30.5999 7.25077 30.4208 7.68317 30.102 8.00198C29.7832 8.3208 29.3508 8.4999 28.8999 8.4999H6.7999V29.7499C6.7999 29.9753 6.71035 30.1915 6.55094 30.3509C6.39154 30.5104 6.17534 30.5999 5.9499 30.5999H4.2499C4.02447 30.5999 3.80827 30.5104 3.64886 30.3509C3.48946 30.1915 3.3999 29.9753 3.3999 29.7499V5.0999ZM8.4999 11.0499C8.4999 10.8245 8.58946 10.6083 8.74886 10.4489C8.90827 10.2895 9.12447 10.1999 9.3499 10.1999H28.0499C28.2753 10.1999 28.4915 10.2895 28.6509 10.4489C28.8104 10.6083 28.8999 10.8245 28.8999 11.0499V22.9499C28.8999 24.0771 28.4521 25.1581 27.6551 25.9551C26.8581 26.7521 25.7771 27.1999 24.6499 27.1999H12.7499C11.6227 27.1999 10.5417 26.7521 9.7447 25.9551C8.94767 25.1581 8.4999 24.0771 8.4999 22.9499V11.0499ZM13.5999 22.9499C13.5999 23.1753 13.6895 23.3915 13.8489 23.5509C14.0083 23.7104 14.2245 23.7999 14.4499 23.7999H16.1499C16.3753 23.7999 16.5915 23.7104 16.7509 23.5509C16.9103 23.3915 16.9999 23.1753 16.9999 22.9499V21.2499C16.9999 21.0245 17.0895 20.8083 17.2489 20.6489C17.4083 20.4895 17.6245 20.3999 17.8499 20.3999H19.5499C19.7753 20.3999 19.9915 20.4895 20.1509 20.6489C20.3104 20.8083 20.3999 21.0245 20.3999 21.2499V22.9499C20.3999 23.1753 20.4895 23.3915 20.6489 23.5509C20.8083 23.7104 21.0245 23.7999 21.2499 23.7999H22.9499C23.1753 23.7999 23.3915 23.7104 23.5509 23.5509C23.7104 23.3915 23.7999 23.1753 23.7999 22.9499V18.6149C23.8 18.3746 23.7491 18.137 23.6506 17.9179C23.5522 17.6987 23.4084 17.5029 23.2287 17.3433L19.2643 13.8209C19.1087 13.6828 18.9079 13.6065 18.6999 13.6065C18.4919 13.6065 18.2911 13.6828 18.1355 13.8209L14.1711 17.3399C13.991 17.4998 13.8469 17.6962 13.7485 17.916C13.65 18.1358 13.5994 18.374 13.5999 18.6149V22.9499Z" fill="#A5EB14"/>
</svg>
