<svg width="50" height="50" viewBox="0 0 50 50" fill="none" xmlns="http://www.w3.org/2000/svg">
<path fill-rule="evenodd" clip-rule="evenodd" d="M22.6562 7.03125C23.0877 7.03125 23.4375 7.38101 23.4375 7.8125V22.6562C23.4375 23.0877 23.0877 23.4375 22.6562 23.4375H7.8125C7.38101 23.4375 7.03125 23.0877 7.03125 22.6562V7.8125C7.03125 7.38101 7.38101 7.03125 7.8125 7.03125H22.6562ZM20.1172 10.3516H10.3516V20.1172H20.1172V10.3516ZM44.2057 14.6331C44.5108 14.9382 44.5108 15.4329 44.2057 15.7379L35.3668 24.5768C35.0618 24.8819 34.5671 24.8819 34.262 24.5768L25.4232 15.7379C25.1181 15.4329 25.1181 14.9382 25.4232 14.6331L34.2621 5.79424C34.5671 5.48916 35.0618 5.48916 35.3669 5.79424L44.2057 14.6331ZM40.0625 15.1855L34.8145 9.9375L29.5664 15.1855L34.8145 20.4336L40.0625 15.1855ZM22.6562 26.5625C23.0877 26.5625 23.4375 26.9123 23.4375 27.3438V42.1875C23.4375 42.619 23.0877 42.9688 22.6562 42.9688H7.8125C7.38101 42.9688 7.03125 42.619 7.03125 42.1875V27.3438C7.03125 26.9123 7.38101 26.5625 7.8125 26.5625H22.6562ZM20.1172 29.8828H10.3516V39.6484H20.1172V29.8828ZM42.1875 26.5625C42.619 26.5625 42.9688 26.9123 42.9688 27.3438V42.1875C42.9688 42.619 42.619 42.9688 42.1875 42.9688H27.3438C26.9123 42.9688 26.5625 42.619 26.5625 42.1875V27.3438C26.5625 26.9123 26.9123 26.5625 27.3438 26.5625H42.1875ZM39.6484 29.8828H29.8828V39.6484H39.6484V29.8828Z" fill="#A5EB14"/>
</svg>
