<svg width="24" height="24" viewBox="0 0 24 24" fill="none" xmlns="http://www.w3.org/2000/svg">
<ellipse cx="12" cy="12" rx="12" ry="12" fill="#A5EB15"/>
<path d="M14.8998 13.7985V13.0893C14.8998 12.337 14.6153 11.6155 14.1089 11.0835C13.6025 10.5515 12.9157 10.2527 12.1995 10.2527H9.49928M9.49928 10.2527L11.5245 12.3802M9.49928 10.2527L11.5245 8.12521M17.6001 18.0534V6.70689C17.6001 6.33073 17.4578 5.96998 17.2046 5.70399C16.9514 5.438 16.608 5.28857 16.2499 5.28857H8.14914C7.79107 5.28857 7.44766 5.438 7.19446 5.70399C6.94126 5.96998 6.79901 6.33073 6.79901 6.70689V18.0534L9.49928 16.6351L12.1995 18.0534L14.8998 16.6351L17.6001 18.0534Z" stroke="white" stroke-linecap="round" stroke-linejoin="round"/>
</svg>
