<svg width="22" height="18" viewBox="0 0 22 18" fill="none" xmlns="http://www.w3.org/2000/svg">
<path d="M16.9735 0.202534C16.844 0.0727239 16.6686 -0.000129657 16.4857 1.73227e-07C16.3028 0.000130003 16.1274 0.0732329 15.9982 0.203227C15.8689 0.333221 15.7964 0.509458 15.7965 0.693167C15.7967 0.876877 15.8694 1.05301 15.9989 1.18282L19.6464 4.84643L13.7836 4.84643C12.8696 4.84643 11.9931 5.21112 11.3468 5.86027C10.7005 6.50942 10.3374 7.38986 10.3374 8.3079V11.0771C10.3374 11.6279 10.1195 12.1562 9.73176 12.5456C9.34398 12.9351 8.81805 13.1539 8.26965 13.1539H8.21313C8.04031 12.127 7.48969 11.2027 6.67041 10.5643C5.85112 9.92591 4.82295 9.61993 3.78965 9.70703C2.75635 9.79413 1.79333 10.2679 1.09144 11.0346C0.389545 11.8012 0 12.8047 0 13.8462C0 14.8877 0.389545 15.8913 1.09144 16.6579C1.79333 17.4245 2.75635 17.8983 3.78965 17.9854C4.82295 18.0725 5.85112 17.7666 6.67041 17.1281C7.48969 16.4897 8.04031 15.5655 8.21313 14.5385H8.26965C9.18365 14.5385 10.0602 14.1738 10.7065 13.5247C11.3528 12.8755 11.7159 11.9951 11.7159 11.0771V8.3079C11.7159 7.75707 11.9337 7.22881 12.3215 6.83932C12.7093 6.44983 13.2352 6.23102 13.7836 6.23102L19.6464 6.23102L15.9989 9.89463C15.933 9.95849 15.8805 10.0349 15.8444 10.1193C15.8083 10.2038 15.7893 10.2947 15.7885 10.3866C15.7877 10.4785 15.8051 10.5697 15.8398 10.6547C15.8744 10.7398 15.9256 10.8171 15.9903 10.8821C16.055 10.9471 16.132 10.9985 16.2167 11.0333C16.3014 11.0681 16.3922 11.0857 16.4837 11.0849C16.5752 11.0841 16.6656 11.065 16.7497 11.0287C16.8338 10.9924 16.9099 10.9397 16.9735 10.8735L21.7982 6.02748C21.9274 5.89766 22 5.7216 22 5.53803C22 5.35446 21.9274 5.17841 21.7982 5.04858L16.9735 0.202534Z" fill="#A5EB14"/>
</svg>
