<svg width="22" height="20" viewBox="0 0 22 20" fill="none" xmlns="http://www.w3.org/2000/svg">
<path d="M11 20C10.6883 20 10.4273 19.8933 10.2168 19.68C10.0063 19.4667 9.90073 19.203 9.9 18.8889C9.89926 18.5748 10.0049 18.3111 10.2168 18.0978C10.4287 17.8844 10.6898 17.7778 11 17.7778H18.7V9.88889C18.7 7.72222 17.9531 5.88444 16.4593 4.37556C14.9655 2.86667 13.1457 2.11185 11 2.11111C8.85427 2.11037 7.03487 2.86519 5.5418 4.37556C4.04873 5.88593 3.30147 7.7237 3.3 9.88889V15.5556C3.3 15.8704 3.1944 16.1344 2.9832 16.3478C2.772 16.5611 2.51093 16.6674 2.2 16.6667C1.595 16.6667 1.07727 16.4493 0.6468 16.0144C0.216333 15.5796 0.000733333 15.0563 0 14.4444L0 12.2222C0 11.8333 0.0964333 11.4678 0.2893 11.1256C0.482167 10.7833 0.7524 10.51 1.1 10.3056L1.1825 8.83333C1.32917 7.57407 1.69143 6.40741 2.2693 5.33333C2.84717 4.25926 3.57133 3.32407 4.4418 2.52778C5.31227 1.73148 6.31107 1.11111 7.4382 0.666667C8.56533 0.222222 9.7526 0 11 0C12.2474 0 13.4299 0.222222 14.5475 0.666667C15.6651 1.11111 16.6643 1.72704 17.545 2.51444C18.4257 3.30185 19.1499 4.23222 19.7175 5.30556C20.2851 6.37889 20.6518 7.54556 20.8175 8.80556L20.9 10.25C21.2483 10.4167 21.5189 10.6667 21.7118 11C21.9047 11.3333 22.0007 11.6852 22 12.0556V14.6111C22 14.9815 21.9039 15.3333 21.7118 15.6667C21.5197 16 21.2491 16.25 20.9 16.4167V17.7778C20.9 18.3889 20.6848 18.9122 20.2543 19.3478C19.8238 19.7833 19.3057 20.0007 18.7 20H11ZM7.7 12.2222C7.38833 12.2222 7.12727 12.1156 6.9168 11.9022C6.70633 11.6889 6.60073 11.4252 6.6 11.1111C6.59927 10.797 6.70487 10.5333 6.9168 10.32C7.12873 10.1067 7.3898 10 7.7 10C8.0102 10 8.27163 10.1067 8.4843 10.32C8.69697 10.5333 8.8022 10.797 8.8 11.1111C8.7978 11.4252 8.6922 11.6893 8.4832 11.9033C8.2742 12.1174 8.01313 12.2237 7.7 12.2222ZM14.3 12.2222C13.9883 12.2222 13.7273 12.1156 13.5168 11.9022C13.3063 11.6889 13.2007 11.4252 13.2 11.1111C13.1993 10.797 13.3049 10.5333 13.5168 10.32C13.7287 10.1067 13.9898 10 14.3 10C14.6102 10 14.8716 10.1067 15.0843 10.32C15.297 10.5333 15.4022 10.797 15.4 11.1111C15.3978 11.4252 15.2922 11.6893 15.0832 11.9033C14.8742 12.1174 14.6131 12.2237 14.3 12.2222ZM4.4275 10.5C4.29917 8.53704 4.88583 6.85185 6.1875 5.44444C7.48917 4.03704 9.11166 3.33333 11.055 3.33333C12.6867 3.33333 14.1214 3.8563 15.3593 4.90222C16.5972 5.94815 17.3441 7.28667 17.6 8.91778C15.9317 8.89852 14.3964 8.44444 12.9943 7.55556C11.5922 6.66667 10.5149 5.46296 9.7625 3.94444C9.46916 5.42593 8.8506 6.74555 7.9068 7.90333C6.963 9.06111 5.80323 9.92667 4.4275 10.5Z" fill="#A5EB15"/>
</svg>
