<svg width="295" height="314" viewBox="0 0 295 314" fill="none" xmlns="http://www.w3.org/2000/svg">
<rect width="294.994" height="79.0163" rx="10" fill="white"/>
<rect x="0.5" y="0.5" width="293.994" height="78.0163" rx="9.5" stroke="#0A0C33" stroke-opacity="0.5"/>
<path d="M63.2564 30.2053C63.9924 30.6293 64.3604 31.2693 64.3604 32.1253C64.3604 32.8373 64.1084 33.4213 63.6044 33.8773C63.1004 34.3333 62.4804 34.5613 61.7444 34.5613H58.1804V26.1613H61.4924C62.2124 26.1613 62.8164 26.3853 63.3044 26.8333C63.8004 27.2733 64.0484 27.8373 64.0484 28.5253C64.0484 29.2213 63.7844 29.7813 63.2564 30.2053ZM61.4924 27.7093H59.8364V29.5573H61.4924C61.7484 29.5573 61.9604 29.4693 62.1284 29.2933C62.3044 29.1173 62.3924 28.8973 62.3924 28.6333C62.3924 28.3693 62.3084 28.1493 62.1404 27.9733C61.9724 27.7973 61.7564 27.7093 61.4924 27.7093ZM61.7444 33.0133C62.0244 33.0133 62.2564 32.9213 62.4404 32.7373C62.6244 32.5453 62.7164 32.3053 62.7164 32.0173C62.7164 31.7373 62.6244 31.5053 62.4404 31.3213C62.2564 31.1293 62.0244 31.0333 61.7444 31.0333H59.8364V33.0133H61.7444ZM70.0278 28.5613H71.5758V34.5613H70.0278V33.8533C69.5638 34.4373 68.9118 34.7293 68.0718 34.7293C67.2718 34.7293 66.5838 34.4253 66.0078 33.8173C65.4398 33.2013 65.1558 32.4493 65.1558 31.5613C65.1558 30.6733 65.4398 29.9253 66.0078 29.3173C66.5838 28.7013 67.2718 28.3933 68.0718 28.3933C68.9118 28.3933 69.5638 28.6853 70.0278 29.2693V28.5613ZM67.1718 32.7853C67.4838 33.0973 67.8798 33.2533 68.3598 33.2533C68.8398 33.2533 69.2358 33.0973 69.5478 32.7853C69.8678 32.4653 70.0278 32.0573 70.0278 31.5613C70.0278 31.0653 69.8678 30.6613 69.5478 30.3493C69.2358 30.0293 68.8398 29.8693 68.3598 29.8693C67.8798 29.8693 67.4838 30.0293 67.1718 30.3493C66.8598 30.6613 66.7038 31.0653 66.7038 31.5613C66.7038 32.0573 66.8598 32.4653 67.1718 32.7853ZM76.3155 28.3933C76.9715 28.3933 77.5115 28.6133 77.9355 29.0533C78.3675 29.4933 78.5835 30.1013 78.5835 30.8773V34.5613H77.0355V31.0693C77.0355 30.6693 76.9275 30.3653 76.7115 30.1573C76.4955 29.9413 76.2075 29.8333 75.8475 29.8333C75.4475 29.8333 75.1275 29.9573 74.8875 30.2053C74.6475 30.4533 74.5275 30.8253 74.5275 31.3213V34.5613H72.9795V28.5613H74.5275V29.2333C74.9035 28.6733 75.4995 28.3933 76.3155 28.3933ZM85.4373 34.5613H83.6373L81.4533 31.8373V34.5613H79.9053V26.1613H81.4533V31.2013L83.5173 28.5613H85.3653L82.9533 31.5253L85.4373 34.5613ZM90.842 26.1613H92.282V34.5613H90.626V27.9133L89.042 28.3573L88.634 26.9413L90.842 26.1613Z" fill="#1E1E1E"/>
<circle cx="28.9692" cy="39.5082" r="12.2914" fill="#A5EB14"/>
<path d="M63.2275 57.6666C62.1675 57.6666 61.2908 57.3166 60.5975 56.6166C59.9108 55.9166 59.5675 55.0566 59.5675 54.0366C59.5675 53.0166 59.9108 52.1566 60.5975 51.4566C61.2908 50.7566 62.1675 50.4066 63.2275 50.4066C63.8675 50.4066 64.4542 50.56 64.9875 50.8666C65.5275 51.1733 65.9475 51.5866 66.2475 52.1066L65.4375 52.5766C65.2375 52.19 64.9375 51.8833 64.5375 51.6566C64.1442 51.4233 63.7075 51.3066 63.2275 51.3066C62.4208 51.3066 61.7608 51.5666 61.2475 52.0866C60.7408 52.6066 60.4875 53.2566 60.4875 54.0366C60.4875 54.81 60.7408 55.4566 61.2475 55.9766C61.7608 56.4966 62.4208 56.7566 63.2275 56.7566C63.7075 56.7566 64.1442 56.6433 64.5375 56.4166C64.9375 56.1833 65.2375 55.8766 65.4375 55.4966L66.2475 55.9566C65.9542 56.4766 65.5375 56.8933 64.9975 57.2066C64.4575 57.5133 63.8675 57.6666 63.2275 57.6666ZM70.6901 52.5366H71.5601V57.5366H70.6901V56.8166C70.3367 57.3833 69.7967 57.6666 69.0701 57.6666C68.4834 57.6666 68.0134 57.4833 67.6601 57.1166C67.3067 56.7433 67.1301 56.24 67.1301 55.6066V52.5366H68.0001V55.5566C68.0001 55.9633 68.1101 56.28 68.3301 56.5066C68.5501 56.7266 68.8534 56.8366 69.2401 56.8366C69.6734 56.8366 70.0234 56.7033 70.2901 56.4366C70.5567 56.1633 70.6901 55.7466 70.6901 55.1866V52.5366ZM73.7546 53.3766C74.0413 52.7566 74.5613 52.4466 75.3146 52.4466V53.3566C74.8879 53.3366 74.5213 53.45 74.2146 53.6966C73.9079 53.9433 73.7546 54.34 73.7546 54.8866V57.5366H72.8846V52.5366H73.7546V53.3766ZM77.0359 53.3766C77.3225 52.7566 77.8425 52.4466 78.5959 52.4466V53.3566C78.1692 53.3366 77.8025 53.45 77.4959 53.6966C77.1892 53.9433 77.0359 54.34 77.0359 54.8866V57.5366H76.1659V52.5366H77.0359V53.3766ZM79.7837 55.4366C79.8703 55.8833 80.0737 56.23 80.3937 56.4766C80.7203 56.7233 81.1203 56.8466 81.5937 56.8466C82.2537 56.8466 82.7337 56.6033 83.0337 56.1166L83.7737 56.5366C83.287 57.29 82.5537 57.6666 81.5737 57.6666C80.7803 57.6666 80.1337 57.42 79.6337 56.9266C79.1403 56.4266 78.8937 55.7966 78.8937 55.0366C78.8937 54.2833 79.137 53.6566 79.6237 53.1566C80.1103 52.6566 80.7403 52.4066 81.5137 52.4066C82.247 52.4066 82.8437 52.6666 83.3037 53.1866C83.7703 53.7 84.0037 54.32 84.0037 55.0466C84.0037 55.1733 83.9937 55.3033 83.9737 55.4366H79.7837ZM81.5137 53.2266C81.047 53.2266 80.6603 53.36 80.3537 53.6266C80.047 53.8866 79.857 54.2366 79.7837 54.6766H83.1237C83.0503 54.2033 82.8637 53.8433 82.5637 53.5966C82.2637 53.35 81.9137 53.2266 81.5137 53.2266ZM87.4938 52.4066C88.0804 52.4066 88.5504 52.5933 88.9038 52.9666C89.2571 53.3333 89.4338 53.8333 89.4338 54.4666V57.5366H88.5638V54.5166C88.5638 54.11 88.4538 53.7966 88.2338 53.5766C88.0138 53.35 87.7104 53.2366 87.3238 53.2366C86.8904 53.2366 86.5404 53.3733 86.2738 53.6466C86.0071 53.9133 85.8738 54.3266 85.8738 54.8866V57.5366H85.0037V52.5366H85.8738V53.2566C86.2271 52.69 86.7671 52.4066 87.4938 52.4066ZM93.3683 53.3766H92.0383V56.0866C92.0383 56.3333 92.0849 56.51 92.1783 56.6166C92.2783 56.7166 92.4283 56.77 92.6283 56.7766C92.8283 56.7766 93.0749 56.77 93.3683 56.7566V57.5366C92.6083 57.6366 92.0516 57.5766 91.6983 57.3566C91.3449 57.13 91.1683 56.7066 91.1683 56.0866V53.3766H90.1783V52.5366H91.1683V51.3966L92.0383 51.1366V52.5366H93.3683V53.3766ZM99.6876 52.4066C100.388 52.4066 100.984 52.6633 101.478 53.1766C101.971 53.6833 102.218 54.3033 102.218 55.0366C102.218 55.77 101.971 56.3933 101.478 56.9066C100.984 57.4133 100.388 57.6666 99.6876 57.6666C98.8609 57.6666 98.2309 57.3366 97.7976 56.6766V57.5366H96.9276V50.5366H97.7976V53.3966C98.2309 52.7366 98.8609 52.4066 99.6876 52.4066ZM99.5776 56.8266C100.078 56.8266 100.498 56.6566 100.838 56.3166C101.178 55.97 101.348 55.5433 101.348 55.0366C101.348 54.53 101.178 54.1066 100.838 53.7666C100.498 53.42 100.078 53.2466 99.5776 53.2466C99.0709 53.2466 98.6476 53.42 98.3076 53.7666C97.9676 54.1066 97.7976 54.53 97.7976 55.0366C97.7976 55.5433 97.9676 55.97 98.3076 56.3166C98.6476 56.6566 99.0709 56.8266 99.5776 56.8266ZM107.396 52.5366H108.266V57.5366H107.396V56.6766C106.962 57.3366 106.332 57.6666 105.506 57.6666C104.806 57.6666 104.209 57.4133 103.716 56.9066C103.222 56.3933 102.976 55.77 102.976 55.0366C102.976 54.3033 103.222 53.6833 103.716 53.1766C104.209 52.6633 104.806 52.4066 105.506 52.4066C106.332 52.4066 106.962 52.7366 107.396 53.3966V52.5366ZM105.616 56.8266C106.122 56.8266 106.546 56.6566 106.886 56.3166C107.226 55.97 107.396 55.5433 107.396 55.0366C107.396 54.53 107.226 54.1066 106.886 53.7666C106.546 53.42 106.122 53.2466 105.616 53.2466C105.116 53.2466 104.696 53.42 104.356 53.7666C104.016 54.1066 103.846 54.53 103.846 55.0366C103.846 55.5433 104.016 55.97 104.356 56.3166C104.696 56.6566 105.116 56.8266 105.616 56.8266ZM109.584 57.5366V50.2366H110.454V57.5366H109.584ZM115.921 52.5366H116.791V57.5366H115.921V56.6766C115.488 57.3366 114.858 57.6666 114.031 57.6666C113.331 57.6666 112.734 57.4133 112.241 56.9066C111.748 56.3933 111.501 55.77 111.501 55.0366C111.501 54.3033 111.748 53.6833 112.241 53.1766C112.734 52.6633 113.331 52.4066 114.031 52.4066C114.858 52.4066 115.488 52.7366 115.921 53.3966V52.5366ZM114.141 56.8266C114.648 56.8266 115.071 56.6566 115.411 56.3166C115.751 55.97 115.921 55.5433 115.921 55.0366C115.921 54.53 115.751 54.1066 115.411 53.7666C115.071 53.42 114.648 53.2466 114.141 53.2466C113.641 53.2466 113.221 53.42 112.881 53.7666C112.541 54.1066 112.371 54.53 112.371 55.0366C112.371 55.5433 112.541 55.97 112.881 56.3166C113.221 56.6566 113.641 56.8266 114.141 56.8266ZM120.599 52.4066C121.186 52.4066 121.656 52.5933 122.009 52.9666C122.363 53.3333 122.539 53.8333 122.539 54.4666V57.5366H121.669V54.5166C121.669 54.11 121.559 53.7966 121.339 53.5766C121.119 53.35 120.816 53.2366 120.429 53.2366C119.996 53.2366 119.646 53.3733 119.379 53.6466C119.113 53.9133 118.979 54.3266 118.979 54.8866V57.5366H118.109V52.5366H118.979V53.2566C119.333 52.69 119.873 52.4066 120.599 52.4066ZM126.104 57.6666C125.35 57.6666 124.724 57.4166 124.224 56.9166C123.724 56.41 123.474 55.7833 123.474 55.0366C123.474 54.29 123.724 53.6666 124.224 53.1666C124.724 52.66 125.35 52.4066 126.104 52.4066C126.597 52.4066 127.04 52.5266 127.434 52.7666C127.827 53 128.12 53.3166 128.314 53.7166L127.584 54.1366C127.457 53.87 127.26 53.6566 126.994 53.4966C126.734 53.3366 126.437 53.2566 126.104 53.2566C125.604 53.2566 125.184 53.4266 124.844 53.7666C124.51 54.1066 124.344 54.53 124.344 55.0366C124.344 55.5366 124.51 55.9566 124.844 56.2966C125.184 56.6366 125.604 56.8066 126.104 56.8066C126.437 56.8066 126.737 56.73 127.004 56.5766C127.27 56.4166 127.474 56.2033 127.614 55.9366L128.354 56.3666C128.14 56.76 127.834 57.0766 127.434 57.3166C127.034 57.55 126.59 57.6666 126.104 57.6666ZM129.754 55.4366C129.841 55.8833 130.044 56.23 130.364 56.4766C130.691 56.7233 131.091 56.8466 131.564 56.8466C132.224 56.8466 132.704 56.6033 133.004 56.1166L133.744 56.5366C133.258 57.29 132.524 57.6666 131.544 57.6666C130.751 57.6666 130.104 57.42 129.604 56.9266C129.111 56.4266 128.864 55.7966 128.864 55.0366C128.864 54.2833 129.108 53.6566 129.594 53.1566C130.081 52.6566 130.711 52.4066 131.484 52.4066C132.218 52.4066 132.814 52.6666 133.274 53.1866C133.741 53.7 133.974 54.32 133.974 55.0466C133.974 55.1733 133.964 55.3033 133.944 55.4366H129.754ZM131.484 53.2266C131.018 53.2266 130.631 53.36 130.324 53.6266C130.018 53.8866 129.828 54.2366 129.754 54.6766H133.094C133.021 54.2033 132.834 53.8433 132.534 53.5966C132.234 53.35 131.884 53.2266 131.484 53.2266ZM141.994 57.5366L140.104 54.2366V53.7966H140.324C140.678 53.7966 140.974 53.7633 141.214 53.6966C141.461 53.63 141.654 53.52 141.794 53.3666C141.934 53.2133 142.018 53.0033 142.044 52.7366H140.104V52.0966H142.034C141.988 51.85 141.894 51.65 141.754 51.4966C141.614 51.3366 141.424 51.22 141.184 51.1466C140.951 51.0733 140.664 51.0366 140.324 51.0366H140.104V50.3966H144.244V51.0366H142.354C142.508 51.1633 142.634 51.3133 142.734 51.4866C142.834 51.66 142.898 51.8633 142.924 52.0966H144.244V52.7366H142.944C142.898 53.2233 142.711 53.6033 142.384 53.8766C142.064 54.1433 141.638 54.3133 141.104 54.3866L143.014 57.5366H141.994ZM147.017 50.5366H147.817V57.5366H146.897V51.5366L145.407 51.9766L145.177 51.1766L147.017 50.5366ZM151.302 53.2666C151.962 53.2666 152.518 53.4633 152.972 53.8566C153.432 54.2433 153.662 54.78 153.662 55.4666C153.662 56.1466 153.428 56.6833 152.962 57.0766C152.495 57.47 151.928 57.6666 151.262 57.6666C150.728 57.6666 150.252 57.54 149.832 57.2866C149.412 57.0266 149.118 56.6533 148.952 56.1666L149.742 55.7166C149.835 56.0566 150.015 56.3166 150.282 56.4966C150.548 56.67 150.875 56.7566 151.262 56.7566C151.702 56.7566 152.058 56.6433 152.332 56.4166C152.605 56.19 152.742 55.8733 152.742 55.4666C152.742 55.06 152.605 54.7433 152.332 54.5166C152.058 54.2833 151.708 54.1666 151.282 54.1666H149.302L149.562 50.5366H153.392V51.4066H150.402L150.282 53.2666H151.302ZM155.796 56.5066L155.146 58.9366H154.396L154.796 56.5066H155.796ZM161.955 55.3366V56.2066H161.105V57.5366H160.175V56.2066H156.605V55.3366L159.115 50.5366H160.115L157.605 55.3366H160.175V53.3566H161.105V55.3366H161.955ZM167.306 56.6766C166.833 57.3366 166.169 57.6666 165.316 57.6666C164.463 57.6666 163.799 57.3366 163.326 56.6766C162.853 56.0166 162.616 55.1366 162.616 54.0366C162.616 52.9366 162.853 52.0566 163.326 51.3966C163.799 50.7366 164.463 50.4066 165.316 50.4066C166.169 50.4066 166.833 50.7366 167.306 51.3966C167.779 52.0566 168.016 52.9366 168.016 54.0366C168.016 55.1366 167.779 56.0166 167.306 56.6766ZM164.006 56.0466C164.313 56.52 164.749 56.7566 165.316 56.7566C165.883 56.7566 166.319 56.52 166.626 56.0466C166.939 55.5733 167.096 54.9033 167.096 54.0366C167.096 53.17 166.939 52.5 166.626 52.0266C166.319 51.5466 165.883 51.3066 165.316 51.3066C164.749 51.3066 164.313 51.5433 164.006 52.0166C163.699 52.49 163.546 53.1633 163.546 54.0366C163.546 54.9033 163.699 55.5733 164.006 56.0466ZM173.605 56.6766C173.132 57.3366 172.468 57.6666 171.615 57.6666C170.762 57.6666 170.098 57.3366 169.625 56.6766C169.152 56.0166 168.915 55.1366 168.915 54.0366C168.915 52.9366 169.152 52.0566 169.625 51.3966C170.098 50.7366 170.762 50.4066 171.615 50.4066C172.468 50.4066 173.132 50.7366 173.605 51.3966C174.078 52.0566 174.315 52.9366 174.315 54.0366C174.315 55.1366 174.078 56.0166 173.605 56.6766ZM170.305 56.0466C170.612 56.52 171.048 56.7566 171.615 56.7566C172.182 56.7566 172.618 56.52 172.925 56.0466C173.238 55.5733 173.395 54.9033 173.395 54.0366C173.395 53.17 173.238 52.5 172.925 52.0266C172.618 51.5466 172.182 51.3066 171.615 51.3066C171.048 51.3066 170.612 51.5433 170.305 52.0166C169.998 52.49 169.845 53.1633 169.845 54.0366C169.845 54.9033 169.998 55.5733 170.305 56.0466ZM175.671 57.6466C175.491 57.6466 175.338 57.5833 175.211 57.4566C175.084 57.33 175.021 57.1766 175.021 56.9966C175.021 56.8166 175.084 56.6633 175.211 56.5366C175.338 56.41 175.491 56.3466 175.671 56.3466C175.858 56.3466 176.011 56.41 176.131 56.5366C176.258 56.6633 176.321 56.8166 176.321 56.9966C176.321 57.1766 176.258 57.33 176.131 57.4566C176.011 57.5833 175.858 57.6466 175.671 57.6466ZM181.73 56.6766C181.257 57.3366 180.593 57.6666 179.74 57.6666C178.887 57.6666 178.223 57.3366 177.75 56.6766C177.277 56.0166 177.04 55.1366 177.04 54.0366C177.04 52.9366 177.277 52.0566 177.75 51.3966C178.223 50.7366 178.887 50.4066 179.74 50.4066C180.593 50.4066 181.257 50.7366 181.73 51.3966C182.203 52.0566 182.44 52.9366 182.44 54.0366C182.44 55.1366 182.203 56.0166 181.73 56.6766ZM178.43 56.0466C178.737 56.52 179.173 56.7566 179.74 56.7566C180.307 56.7566 180.743 56.52 181.05 56.0466C181.363 55.5733 181.52 54.9033 181.52 54.0366C181.52 53.17 181.363 52.5 181.05 52.0266C180.743 51.5466 180.307 51.3066 179.74 51.3066C179.173 51.3066 178.737 51.5433 178.43 52.0166C178.123 52.49 177.97 53.1633 177.97 54.0366C177.97 54.9033 178.123 55.5733 178.43 56.0466ZM188.029 56.6766C187.555 57.3366 186.892 57.6666 186.039 57.6666C185.185 57.6666 184.522 57.3366 184.049 56.6766C183.575 56.0166 183.339 55.1366 183.339 54.0366C183.339 52.9366 183.575 52.0566 184.049 51.3966C184.522 50.7366 185.185 50.4066 186.039 50.4066C186.892 50.4066 187.555 50.7366 188.029 51.3966C188.502 52.0566 188.739 52.9366 188.739 54.0366C188.739 55.1366 188.502 56.0166 188.029 56.6766ZM184.729 56.0466C185.035 56.52 185.472 56.7566 186.039 56.7566C186.605 56.7566 187.042 56.52 187.349 56.0466C187.662 55.5733 187.819 54.9033 187.819 54.0366C187.819 53.17 187.662 52.5 187.349 52.0266C187.042 51.5466 186.605 51.3066 186.039 51.3066C185.472 51.3066 185.035 51.5433 184.729 52.0166C184.422 52.49 184.269 53.1633 184.269 54.0366C184.269 54.9033 184.422 55.5733 184.729 56.0466Z" fill="#1E1E1E"/>
<rect x="20.7637" y="89.1279" width="253.468" height="67.8933" rx="10" fill="white"/>
<rect x="21.2637" y="89.6279" width="252.468" height="66.8933" rx="9.5" stroke="#0A0C33" stroke-opacity="0.1"/>
<path d="M75.94 115.937C76.676 116.361 77.044 117.001 77.044 117.857C77.044 118.569 76.792 119.153 76.288 119.609C75.784 120.065 75.164 120.293 74.428 120.293H70.864V111.893H74.176C74.896 111.893 75.5 112.117 75.988 112.565C76.484 113.005 76.732 113.569 76.732 114.257C76.732 114.953 76.468 115.513 75.94 115.937ZM74.176 113.441H72.52V115.289H74.176C74.432 115.289 74.644 115.201 74.812 115.025C74.988 114.849 75.076 114.629 75.076 114.365C75.076 114.101 74.992 113.881 74.824 113.705C74.656 113.529 74.44 113.441 74.176 113.441ZM74.428 118.745C74.708 118.745 74.94 118.653 75.124 118.469C75.308 118.277 75.4 118.037 75.4 117.749C75.4 117.469 75.308 117.237 75.124 117.053C74.94 116.861 74.708 116.765 74.428 116.765H72.52V118.745H74.428ZM82.7114 114.293H84.2594V120.293H82.7114V119.585C82.2474 120.169 81.5954 120.461 80.7554 120.461C79.9554 120.461 79.2674 120.157 78.6914 119.549C78.1234 118.933 77.8394 118.181 77.8394 117.293C77.8394 116.405 78.1234 115.657 78.6914 115.049C79.2674 114.433 79.9554 114.125 80.7554 114.125C81.5954 114.125 82.2474 114.417 82.7114 115.001V114.293ZM79.8554 118.517C80.1674 118.829 80.5634 118.985 81.0434 118.985C81.5234 118.985 81.9194 118.829 82.2314 118.517C82.5514 118.197 82.7114 117.789 82.7114 117.293C82.7114 116.797 82.5514 116.393 82.2314 116.081C81.9194 115.761 81.5234 115.601 81.0434 115.601C80.5634 115.601 80.1674 115.761 79.8554 116.081C79.5434 116.393 79.3874 116.797 79.3874 117.293C79.3874 117.789 79.5434 118.197 79.8554 118.517ZM88.9991 114.125C89.6551 114.125 90.1951 114.345 90.6191 114.785C91.0511 115.225 91.2671 115.833 91.2671 116.609V120.293H89.7191V116.801C89.7191 116.401 89.6111 116.097 89.3951 115.889C89.1791 115.673 88.8911 115.565 88.5311 115.565C88.1311 115.565 87.8111 115.689 87.5711 115.937C87.3311 116.185 87.2111 116.557 87.2111 117.053V120.293H85.6631V114.293H87.2111V114.965C87.5871 114.405 88.1831 114.125 88.9991 114.125ZM98.1209 120.293H96.3209L94.1369 117.569V120.293H92.5889V111.893H94.1369V116.933L96.2009 114.293H98.0489L95.6369 117.257L98.1209 120.293ZM101.51 120.293V119.057L104.378 116.105C105.018 115.433 105.338 114.873 105.338 114.425C105.338 114.097 105.234 113.833 105.026 113.633C104.826 113.433 104.566 113.333 104.246 113.333C103.614 113.333 103.146 113.661 102.842 114.317L101.45 113.501C101.714 112.925 102.094 112.485 102.59 112.181C103.086 111.877 103.63 111.725 104.222 111.725C104.982 111.725 105.634 111.965 106.178 112.445C106.722 112.917 106.994 113.557 106.994 114.365C106.994 115.237 106.534 116.133 105.614 117.053L103.97 118.697H107.126V120.293H101.51Z" fill="#1E1E1E"/>
<circle cx="45.6549" cy="123.075" r="10.5612" fill="#A5EB14"/>
<path d="M74.5543 137.547C73.7063 137.547 73.0049 137.267 72.4503 136.707C71.9009 136.147 71.6263 135.459 71.6263 134.643C71.6263 133.827 71.9009 133.139 72.4503 132.579C73.0049 132.019 73.7063 131.739 74.5543 131.739C75.0663 131.739 75.5356 131.862 75.9623 132.107C76.3943 132.352 76.7303 132.683 76.9703 133.099L76.3223 133.475C76.1623 133.166 75.9223 132.92 75.6023 132.739C75.2876 132.552 74.9383 132.459 74.5543 132.459C73.9089 132.459 73.3809 132.667 72.9703 133.083C72.5649 133.499 72.3623 134.019 72.3623 134.643C72.3623 135.262 72.5649 135.779 72.9703 136.195C73.3809 136.611 73.9089 136.819 74.5543 136.819C74.9383 136.819 75.2876 136.728 75.6023 136.547C75.9223 136.36 76.1623 136.115 76.3223 135.811L76.9703 136.179C76.7356 136.595 76.4023 136.928 75.9703 137.179C75.5383 137.424 75.0663 137.547 74.5543 137.547ZM80.5243 133.443H81.2203V137.443H80.5243V136.867C80.2417 137.32 79.8097 137.547 79.2283 137.547C78.759 137.547 78.383 137.4 78.1003 137.107C77.8177 136.808 77.6763 136.406 77.6763 135.899V133.443H78.3723V135.859C78.3723 136.184 78.4603 136.438 78.6363 136.619C78.8123 136.795 79.055 136.883 79.3643 136.883C79.711 136.883 79.991 136.776 80.2043 136.563C80.4177 136.344 80.5243 136.011 80.5243 135.563V133.443ZM82.976 134.115C83.2053 133.619 83.6213 133.371 84.224 133.371V134.099C83.8826 134.083 83.5893 134.174 83.344 134.371C83.0986 134.568 82.976 134.886 82.976 135.323V137.443H82.28V133.443H82.976V134.115ZM85.601 134.115C85.8303 133.619 86.2463 133.371 86.849 133.371V134.099C86.5076 134.083 86.2143 134.174 85.969 134.371C85.7236 134.568 85.601 134.886 85.601 135.323V137.443H84.905V133.443H85.601V134.115ZM87.7992 135.763C87.8685 136.12 88.0312 136.398 88.2872 136.595C88.5485 136.792 88.8685 136.891 89.2472 136.891C89.7752 136.891 90.1592 136.696 90.3992 136.307L90.9912 136.643C90.6019 137.246 90.0152 137.547 89.2312 137.547C88.5965 137.547 88.0792 137.35 87.6792 136.955C87.2845 136.555 87.0872 136.051 87.0872 135.443C87.0872 134.84 87.2819 134.339 87.6712 133.939C88.0605 133.539 88.5645 133.339 89.1832 133.339C89.7699 133.339 90.2472 133.547 90.6152 133.963C90.9885 134.374 91.1752 134.87 91.1752 135.451C91.1752 135.552 91.1672 135.656 91.1512 135.763H87.7992ZM89.1832 133.995C88.8099 133.995 88.5005 134.102 88.2552 134.315C88.0099 134.523 87.8579 134.803 87.7992 135.155H90.4712C90.4125 134.776 90.2632 134.488 90.0232 134.291C89.7832 134.094 89.5032 133.995 89.1832 133.995ZM93.9673 133.339C94.4366 133.339 94.8126 133.488 95.0953 133.787C95.3779 134.08 95.5193 134.48 95.5193 134.987V137.443H94.8233V135.027C94.8233 134.702 94.7353 134.451 94.5593 134.275C94.3833 134.094 94.1406 134.003 93.8313 134.003C93.4846 134.003 93.2046 134.112 92.9913 134.331C92.7779 134.544 92.6713 134.875 92.6713 135.323V137.443H91.9753V133.443H92.6713V134.019C92.9539 133.566 93.3859 133.339 93.9673 133.339ZM98.6669 134.115H97.6029V136.283C97.6029 136.48 97.6402 136.622 97.7149 136.707C97.7949 136.787 97.9149 136.83 98.0749 136.835C98.2349 136.835 98.4322 136.83 98.6669 136.819V137.443C98.0589 137.523 97.6136 137.475 97.3309 137.299C97.0482 137.118 96.9069 136.779 96.9069 136.283V134.115H96.1149V133.443H96.9069V132.531L97.6029 132.323V133.443H98.6669V134.115ZM103.722 133.339C104.282 133.339 104.76 133.544 105.154 133.955C105.549 134.36 105.746 134.856 105.746 135.443C105.746 136.03 105.549 136.528 105.154 136.939C104.76 137.344 104.282 137.547 103.722 137.547C103.061 137.547 102.557 137.283 102.21 136.755V137.443H101.514V131.843H102.21V134.131C102.557 133.603 103.061 133.339 103.722 133.339ZM103.634 136.875C104.034 136.875 104.37 136.739 104.642 136.467C104.914 136.19 105.05 135.848 105.05 135.443C105.05 135.038 104.914 134.699 104.642 134.427C104.37 134.15 104.034 134.011 103.634 134.011C103.229 134.011 102.89 134.15 102.618 134.427C102.346 134.699 102.21 135.038 102.21 135.443C102.21 135.848 102.346 136.19 102.618 136.467C102.89 136.739 103.229 136.875 103.634 136.875ZM109.889 133.443H110.585V137.443H109.889V136.755C109.542 137.283 109.038 137.547 108.377 137.547C107.817 137.547 107.339 137.344 106.945 136.939C106.55 136.528 106.353 136.03 106.353 135.443C106.353 134.856 106.55 134.36 106.945 133.955C107.339 133.544 107.817 133.339 108.377 133.339C109.038 133.339 109.542 133.603 109.889 134.131V133.443ZM108.465 136.875C108.87 136.875 109.209 136.739 109.481 136.467C109.753 136.19 109.889 135.848 109.889 135.443C109.889 135.038 109.753 134.699 109.481 134.427C109.209 134.15 108.87 134.011 108.465 134.011C108.065 134.011 107.729 134.15 107.457 134.427C107.185 134.699 107.049 135.038 107.049 135.443C107.049 135.848 107.185 136.19 107.457 136.467C107.729 136.739 108.065 136.875 108.465 136.875ZM111.639 137.443V131.603H112.335V137.443H111.639ZM116.709 133.443H117.405V137.443H116.709V136.755C116.362 137.283 115.858 137.547 115.197 137.547C114.637 137.547 114.16 137.344 113.765 136.939C113.37 136.528 113.173 136.03 113.173 135.443C113.173 134.856 113.37 134.36 113.765 133.955C114.16 133.544 114.637 133.339 115.197 133.339C115.858 133.339 116.362 133.603 116.709 134.131V133.443ZM115.285 136.875C115.69 136.875 116.029 136.739 116.301 136.467C116.573 136.19 116.709 135.848 116.709 135.443C116.709 135.038 116.573 134.699 116.301 134.427C116.029 134.15 115.69 134.011 115.285 134.011C114.885 134.011 114.549 134.15 114.277 134.427C114.005 134.699 113.869 135.038 113.869 135.443C113.869 135.848 114.005 136.19 114.277 136.467C114.549 136.739 114.885 136.875 115.285 136.875ZM120.452 133.339C120.921 133.339 121.297 133.488 121.58 133.787C121.862 134.08 122.004 134.48 122.004 134.987V137.443H121.308V135.027C121.308 134.702 121.22 134.451 121.044 134.275C120.868 134.094 120.625 134.003 120.316 134.003C119.969 134.003 119.689 134.112 119.476 134.331C119.262 134.544 119.156 134.875 119.156 135.323V137.443H118.46V133.443H119.156V134.019C119.438 133.566 119.87 133.339 120.452 133.339ZM124.855 137.547C124.253 137.547 123.751 137.347 123.351 136.947C122.951 136.542 122.751 136.04 122.751 135.443C122.751 134.846 122.951 134.347 123.351 133.947C123.751 133.542 124.253 133.339 124.855 133.339C125.25 133.339 125.605 133.435 125.919 133.627C126.234 133.814 126.469 134.067 126.623 134.387L126.039 134.723C125.938 134.51 125.781 134.339 125.567 134.211C125.359 134.083 125.122 134.019 124.855 134.019C124.455 134.019 124.119 134.155 123.847 134.427C123.581 134.699 123.447 135.038 123.447 135.443C123.447 135.843 123.581 136.179 123.847 136.451C124.119 136.723 124.455 136.859 124.855 136.859C125.122 136.859 125.362 136.798 125.575 136.675C125.789 136.547 125.951 136.376 126.063 136.163L126.655 136.507C126.485 136.822 126.239 137.075 125.919 137.267C125.599 137.454 125.245 137.547 124.855 137.547ZM127.776 135.763C127.845 136.12 128.008 136.398 128.264 136.595C128.525 136.792 128.845 136.891 129.224 136.891C129.752 136.891 130.136 136.696 130.376 136.307L130.968 136.643C130.578 137.246 129.992 137.547 129.208 137.547C128.573 137.547 128.056 137.35 127.656 136.955C127.261 136.555 127.064 136.051 127.064 135.443C127.064 134.84 127.258 134.339 127.648 133.939C128.037 133.539 128.541 133.339 129.16 133.339C129.746 133.339 130.224 133.547 130.592 133.963C130.965 134.374 131.152 134.87 131.152 135.451C131.152 135.552 131.144 135.656 131.128 135.763H127.776ZM129.16 133.995C128.786 133.995 128.477 134.102 128.232 134.315C127.986 134.523 127.834 134.803 127.776 135.155H130.448C130.389 134.776 130.24 134.488 130 134.291C129.76 134.094 129.48 133.995 129.16 133.995ZM137.568 137.443L136.056 134.803V134.451H136.232C136.514 134.451 136.752 134.424 136.944 134.371C137.141 134.318 137.296 134.23 137.408 134.107C137.52 133.984 137.586 133.816 137.608 133.603H136.056V133.091H137.6C137.562 132.894 137.488 132.734 137.376 132.611C137.264 132.483 137.112 132.39 136.92 132.331C136.733 132.272 136.504 132.243 136.232 132.243H136.056V131.731H139.368V132.243H137.856C137.978 132.344 138.08 132.464 138.16 132.603C138.24 132.742 138.29 132.904 138.312 133.091H139.368V133.603H138.328C138.29 133.992 138.141 134.296 137.88 134.515C137.624 134.728 137.282 134.864 136.856 134.923L138.384 137.443H137.568ZM141.586 131.843H142.226V137.443H141.49V132.643L140.298 132.995L140.114 132.355L141.586 131.843ZM145.014 134.027C145.542 134.027 145.987 134.184 146.35 134.499C146.718 134.808 146.902 135.238 146.902 135.787C146.902 136.331 146.715 136.76 146.342 137.075C145.968 137.39 145.515 137.547 144.982 137.547C144.555 137.547 144.174 137.446 143.838 137.243C143.502 137.035 143.267 136.736 143.134 136.347L143.766 135.987C143.84 136.259 143.984 136.467 144.198 136.611C144.411 136.75 144.672 136.819 144.982 136.819C145.334 136.819 145.619 136.728 145.838 136.547C146.056 136.366 146.166 136.112 146.166 135.787C146.166 135.462 146.056 135.208 145.838 135.027C145.619 134.84 145.339 134.747 144.998 134.747H143.414L143.622 131.843H146.686V132.539H144.294L144.198 134.027H145.014ZM148.609 136.619L148.089 138.563H147.489L147.809 136.619H148.609ZM153.536 135.683V136.379H152.856V137.443H152.112V136.379H149.256V135.683L151.264 131.843H152.064L150.056 135.683H152.112V134.099H152.856V135.683H153.536ZM157.817 136.755C157.438 137.283 156.908 137.547 156.225 137.547C155.542 137.547 155.012 137.283 154.633 136.755C154.254 136.227 154.065 135.523 154.065 134.643C154.065 133.763 154.254 133.059 154.633 132.531C155.012 132.003 155.542 131.739 156.225 131.739C156.908 131.739 157.438 132.003 157.817 132.531C158.196 133.059 158.385 133.763 158.385 134.643C158.385 135.523 158.196 136.227 157.817 136.755ZM155.177 136.251C155.422 136.63 155.772 136.819 156.225 136.819C156.678 136.819 157.028 136.63 157.273 136.251C157.524 135.872 157.649 135.336 157.649 134.643C157.649 133.95 157.524 133.414 157.273 133.035C157.028 132.651 156.678 132.459 156.225 132.459C155.772 132.459 155.422 132.648 155.177 133.027C154.932 133.406 154.809 133.944 154.809 134.643C154.809 135.336 154.932 135.872 155.177 136.251ZM162.856 136.755C162.477 137.283 161.947 137.547 161.264 137.547C160.581 137.547 160.051 137.283 159.672 136.755C159.293 136.227 159.104 135.523 159.104 134.643C159.104 133.763 159.293 133.059 159.672 132.531C160.051 132.003 160.581 131.739 161.264 131.739C161.947 131.739 162.477 132.003 162.856 132.531C163.235 133.059 163.424 133.763 163.424 134.643C163.424 135.523 163.235 136.227 162.856 136.755ZM160.216 136.251C160.461 136.63 160.811 136.819 161.264 136.819C161.717 136.819 162.067 136.63 162.312 136.251C162.563 135.872 162.688 135.336 162.688 134.643C162.688 133.95 162.563 133.414 162.312 133.035C162.067 132.651 161.717 132.459 161.264 132.459C160.811 132.459 160.461 132.648 160.216 133.027C159.971 133.406 159.848 133.944 159.848 134.643C159.848 135.336 159.971 135.872 160.216 136.251ZM164.509 137.531C164.365 137.531 164.242 137.48 164.141 137.379C164.04 137.278 163.989 137.155 163.989 137.011C163.989 136.867 164.04 136.744 164.141 136.643C164.242 136.542 164.365 136.491 164.509 136.491C164.658 136.491 164.781 136.542 164.877 136.643C164.978 136.744 165.029 136.867 165.029 137.011C165.029 137.155 164.978 137.278 164.877 137.379C164.781 137.48 164.658 137.531 164.509 137.531ZM169.356 136.755C168.977 137.283 168.447 137.547 167.764 137.547C167.081 137.547 166.551 137.283 166.172 136.755C165.793 136.227 165.604 135.523 165.604 134.643C165.604 133.763 165.793 133.059 166.172 132.531C166.551 132.003 167.081 131.739 167.764 131.739C168.447 131.739 168.977 132.003 169.356 132.531C169.735 133.059 169.924 133.763 169.924 134.643C169.924 135.523 169.735 136.227 169.356 136.755ZM166.716 136.251C166.961 136.63 167.311 136.819 167.764 136.819C168.217 136.819 168.567 136.63 168.812 136.251C169.063 135.872 169.188 135.336 169.188 134.643C169.188 133.95 169.063 133.414 168.812 133.035C168.567 132.651 168.217 132.459 167.764 132.459C167.311 132.459 166.961 132.648 166.716 133.027C166.471 133.406 166.348 133.944 166.348 134.643C166.348 135.336 166.471 135.872 166.716 136.251ZM174.395 136.755C174.017 137.283 173.486 137.547 172.803 137.547C172.121 137.547 171.59 137.283 171.211 136.755C170.833 136.227 170.643 135.523 170.643 134.643C170.643 133.763 170.833 133.059 171.211 132.531C171.59 132.003 172.121 131.739 172.803 131.739C173.486 131.739 174.017 132.003 174.395 132.531C174.774 133.059 174.963 133.763 174.963 134.643C174.963 135.523 174.774 136.227 174.395 136.755ZM171.755 136.251C172.001 136.63 172.35 136.819 172.803 136.819C173.257 136.819 173.606 136.63 173.851 136.251C174.102 135.872 174.227 135.336 174.227 134.643C174.227 133.95 174.102 133.414 173.851 133.035C173.606 132.651 173.257 132.459 172.803 132.459C172.35 132.459 172.001 132.648 171.755 133.027C171.51 133.406 171.387 133.944 171.387 134.643C171.387 135.336 171.51 135.872 171.755 136.251Z" fill="#1E1E1E"/>
<rect x="20.7637" y="167.133" width="253.468" height="67.8933" rx="10" fill="white"/>
<rect x="21.2637" y="167.633" width="252.468" height="66.8933" rx="9.5" stroke="#0A0C33" stroke-opacity="0.1"/>
<path d="M75.94 194.873C76.676 195.297 77.044 195.937 77.044 196.793C77.044 197.505 76.792 198.089 76.288 198.545C75.784 199.001 75.164 199.229 74.428 199.229H70.864V190.829H74.176C74.896 190.829 75.5 191.053 75.988 191.501C76.484 191.941 76.732 192.505 76.732 193.193C76.732 193.889 76.468 194.449 75.94 194.873ZM74.176 192.377H72.52V194.225H74.176C74.432 194.225 74.644 194.137 74.812 193.961C74.988 193.785 75.076 193.565 75.076 193.301C75.076 193.037 74.992 192.817 74.824 192.641C74.656 192.465 74.44 192.377 74.176 192.377ZM74.428 197.681C74.708 197.681 74.94 197.589 75.124 197.405C75.308 197.213 75.4 196.973 75.4 196.685C75.4 196.405 75.308 196.173 75.124 195.989C74.94 195.797 74.708 195.701 74.428 195.701H72.52V197.681H74.428ZM82.7114 193.229H84.2594V199.229H82.7114V198.521C82.2474 199.105 81.5954 199.397 80.7554 199.397C79.9554 199.397 79.2674 199.093 78.6914 198.485C78.1234 197.869 77.8394 197.117 77.8394 196.229C77.8394 195.341 78.1234 194.593 78.6914 193.985C79.2674 193.369 79.9554 193.061 80.7554 193.061C81.5954 193.061 82.2474 193.353 82.7114 193.937V193.229ZM79.8554 197.453C80.1674 197.765 80.5634 197.921 81.0434 197.921C81.5234 197.921 81.9194 197.765 82.2314 197.453C82.5514 197.133 82.7114 196.725 82.7114 196.229C82.7114 195.733 82.5514 195.329 82.2314 195.017C81.9194 194.697 81.5234 194.537 81.0434 194.537C80.5634 194.537 80.1674 194.697 79.8554 195.017C79.5434 195.329 79.3874 195.733 79.3874 196.229C79.3874 196.725 79.5434 197.133 79.8554 197.453ZM88.9991 193.061C89.6551 193.061 90.1951 193.281 90.6191 193.721C91.0511 194.161 91.2671 194.769 91.2671 195.545V199.229H89.7191V195.737C89.7191 195.337 89.6111 195.033 89.3951 194.825C89.1791 194.609 88.8911 194.501 88.5311 194.501C88.1311 194.501 87.8111 194.625 87.5711 194.873C87.3311 195.121 87.2111 195.493 87.2111 195.989V199.229H85.6631V193.229H87.2111V193.901C87.5871 193.341 88.1831 193.061 88.9991 193.061ZM98.1209 199.229H96.3209L94.1369 196.505V199.229H92.5889V190.829H94.1369V195.869L96.2009 193.229H98.0489L95.6369 196.193L98.1209 199.229ZM105.422 194.237C105.99 194.405 106.45 194.701 106.802 195.125C107.162 195.541 107.342 196.045 107.342 196.637C107.342 197.501 107.05 198.177 106.466 198.665C105.89 199.153 105.182 199.397 104.342 199.397C103.686 199.397 103.098 199.249 102.578 198.953C102.066 198.649 101.694 198.205 101.462 197.621L102.878 196.805C103.086 197.453 103.574 197.777 104.342 197.777C104.766 197.777 105.094 197.677 105.326 197.477C105.566 197.269 105.686 196.989 105.686 196.637C105.686 196.293 105.566 196.017 105.326 195.809C105.094 195.601 104.766 195.497 104.342 195.497H103.982L103.346 194.537L105.002 192.377H101.714V190.829H106.994V192.197L105.422 194.237Z" fill="#1E1E1E"/>
<circle cx="45.6549" cy="201.08" r="10.5612" fill="#A5EB14"/>
<path d="M74.5543 215.408C73.7063 215.408 73.0049 215.128 72.4503 214.568C71.9009 214.008 71.6263 213.32 71.6263 212.504C71.6263 211.688 71.9009 211 72.4503 210.44C73.0049 209.88 73.7063 209.6 74.5543 209.6C75.0663 209.6 75.5356 209.723 75.9623 209.968C76.3943 210.213 76.7303 210.544 76.9703 210.96L76.3223 211.336C76.1623 211.027 75.9223 210.781 75.6023 210.6C75.2876 210.413 74.9383 210.32 74.5543 210.32C73.9089 210.32 73.3809 210.528 72.9703 210.944C72.5649 211.36 72.3623 211.88 72.3623 212.504C72.3623 213.123 72.5649 213.64 72.9703 214.056C73.3809 214.472 73.9089 214.68 74.5543 214.68C74.9383 214.68 75.2876 214.589 75.6023 214.408C75.9223 214.221 76.1623 213.976 76.3223 213.672L76.9703 214.04C76.7356 214.456 76.4023 214.789 75.9703 215.04C75.5383 215.285 75.0663 215.408 74.5543 215.408ZM80.5243 211.304H81.2203V215.304H80.5243V214.728C80.2417 215.181 79.8097 215.408 79.2283 215.408C78.759 215.408 78.383 215.261 78.1003 214.968C77.8177 214.669 77.6763 214.267 77.6763 213.76V211.304H78.3723V213.72C78.3723 214.045 78.4603 214.299 78.6363 214.48C78.8123 214.656 79.055 214.744 79.3643 214.744C79.711 214.744 79.991 214.637 80.2043 214.424C80.4177 214.205 80.5243 213.872 80.5243 213.424V211.304ZM82.976 211.976C83.2053 211.48 83.6213 211.232 84.224 211.232V211.96C83.8826 211.944 83.5893 212.035 83.344 212.232C83.0986 212.429 82.976 212.747 82.976 213.184V215.304H82.28V211.304H82.976V211.976ZM85.601 211.976C85.8303 211.48 86.2463 211.232 86.849 211.232V211.96C86.5076 211.944 86.2143 212.035 85.969 212.232C85.7236 212.429 85.601 212.747 85.601 213.184V215.304H84.905V211.304H85.601V211.976ZM87.7992 213.624C87.8685 213.981 88.0312 214.259 88.2872 214.456C88.5485 214.653 88.8685 214.752 89.2472 214.752C89.7752 214.752 90.1592 214.557 90.3992 214.168L90.9912 214.504C90.6019 215.107 90.0152 215.408 89.2312 215.408C88.5965 215.408 88.0792 215.211 87.6792 214.816C87.2845 214.416 87.0872 213.912 87.0872 213.304C87.0872 212.701 87.2819 212.2 87.6712 211.8C88.0605 211.4 88.5645 211.2 89.1832 211.2C89.7699 211.2 90.2472 211.408 90.6152 211.824C90.9885 212.235 91.1752 212.731 91.1752 213.312C91.1752 213.413 91.1672 213.517 91.1512 213.624H87.7992ZM89.1832 211.856C88.8099 211.856 88.5005 211.963 88.2552 212.176C88.0099 212.384 87.8579 212.664 87.7992 213.016H90.4712C90.4125 212.637 90.2632 212.349 90.0232 212.152C89.7832 211.955 89.5032 211.856 89.1832 211.856ZM93.9673 211.2C94.4366 211.2 94.8126 211.349 95.0953 211.648C95.3779 211.941 95.5193 212.341 95.5193 212.848V215.304H94.8233V212.888C94.8233 212.563 94.7353 212.312 94.5593 212.136C94.3833 211.955 94.1406 211.864 93.8313 211.864C93.4846 211.864 93.2046 211.973 92.9913 212.192C92.7779 212.405 92.6713 212.736 92.6713 213.184V215.304H91.9753V211.304H92.6713V211.88C92.9539 211.427 93.3859 211.2 93.9673 211.2ZM98.6669 211.976H97.6029V214.144C97.6029 214.341 97.6402 214.483 97.7149 214.568C97.7949 214.648 97.9149 214.691 98.0749 214.696C98.2349 214.696 98.4322 214.691 98.6669 214.68V215.304C98.0589 215.384 97.6136 215.336 97.3309 215.16C97.0482 214.979 96.9069 214.64 96.9069 214.144V211.976H96.1149V211.304H96.9069V210.392L97.6029 210.184V211.304H98.6669V211.976ZM103.722 211.2C104.282 211.2 104.76 211.405 105.154 211.816C105.549 212.221 105.746 212.717 105.746 213.304C105.746 213.891 105.549 214.389 105.154 214.8C104.76 215.205 104.282 215.408 103.722 215.408C103.061 215.408 102.557 215.144 102.21 214.616V215.304H101.514V209.704H102.21V211.992C102.557 211.464 103.061 211.2 103.722 211.2ZM103.634 214.736C104.034 214.736 104.37 214.6 104.642 214.328C104.914 214.051 105.05 213.709 105.05 213.304C105.05 212.899 104.914 212.56 104.642 212.288C104.37 212.011 104.034 211.872 103.634 211.872C103.229 211.872 102.89 212.011 102.618 212.288C102.346 212.56 102.21 212.899 102.21 213.304C102.21 213.709 102.346 214.051 102.618 214.328C102.89 214.6 103.229 214.736 103.634 214.736ZM109.889 211.304H110.585V215.304H109.889V214.616C109.542 215.144 109.038 215.408 108.377 215.408C107.817 215.408 107.339 215.205 106.945 214.8C106.55 214.389 106.353 213.891 106.353 213.304C106.353 212.717 106.55 212.221 106.945 211.816C107.339 211.405 107.817 211.2 108.377 211.2C109.038 211.2 109.542 211.464 109.889 211.992V211.304ZM108.465 214.736C108.87 214.736 109.209 214.6 109.481 214.328C109.753 214.051 109.889 213.709 109.889 213.304C109.889 212.899 109.753 212.56 109.481 212.288C109.209 212.011 108.87 211.872 108.465 211.872C108.065 211.872 107.729 212.011 107.457 212.288C107.185 212.56 107.049 212.899 107.049 213.304C107.049 213.709 107.185 214.051 107.457 214.328C107.729 214.6 108.065 214.736 108.465 214.736ZM111.639 215.304V209.464H112.335V215.304H111.639ZM116.709 211.304H117.405V215.304H116.709V214.616C116.362 215.144 115.858 215.408 115.197 215.408C114.637 215.408 114.16 215.205 113.765 214.8C113.37 214.389 113.173 213.891 113.173 213.304C113.173 212.717 113.37 212.221 113.765 211.816C114.16 211.405 114.637 211.2 115.197 211.2C115.858 211.2 116.362 211.464 116.709 211.992V211.304ZM115.285 214.736C115.69 214.736 116.029 214.6 116.301 214.328C116.573 214.051 116.709 213.709 116.709 213.304C116.709 212.899 116.573 212.56 116.301 212.288C116.029 212.011 115.69 211.872 115.285 211.872C114.885 211.872 114.549 212.011 114.277 212.288C114.005 212.56 113.869 212.899 113.869 213.304C113.869 213.709 114.005 214.051 114.277 214.328C114.549 214.6 114.885 214.736 115.285 214.736ZM120.452 211.2C120.921 211.2 121.297 211.349 121.58 211.648C121.862 211.941 122.004 212.341 122.004 212.848V215.304H121.308V212.888C121.308 212.563 121.22 212.312 121.044 212.136C120.868 211.955 120.625 211.864 120.316 211.864C119.969 211.864 119.689 211.973 119.476 212.192C119.262 212.405 119.156 212.736 119.156 213.184V215.304H118.46V211.304H119.156V211.88C119.438 211.427 119.87 211.2 120.452 211.2ZM124.855 215.408C124.253 215.408 123.751 215.208 123.351 214.808C122.951 214.403 122.751 213.901 122.751 213.304C122.751 212.707 122.951 212.208 123.351 211.808C123.751 211.403 124.253 211.2 124.855 211.2C125.25 211.2 125.605 211.296 125.919 211.488C126.234 211.675 126.469 211.928 126.623 212.248L126.039 212.584C125.938 212.371 125.781 212.2 125.567 212.072C125.359 211.944 125.122 211.88 124.855 211.88C124.455 211.88 124.119 212.016 123.847 212.288C123.581 212.56 123.447 212.899 123.447 213.304C123.447 213.704 123.581 214.04 123.847 214.312C124.119 214.584 124.455 214.72 124.855 214.72C125.122 214.72 125.362 214.659 125.575 214.536C125.789 214.408 125.951 214.237 126.063 214.024L126.655 214.368C126.485 214.683 126.239 214.936 125.919 215.128C125.599 215.315 125.245 215.408 124.855 215.408ZM127.776 213.624C127.845 213.981 128.008 214.259 128.264 214.456C128.525 214.653 128.845 214.752 129.224 214.752C129.752 214.752 130.136 214.557 130.376 214.168L130.968 214.504C130.578 215.107 129.992 215.408 129.208 215.408C128.573 215.408 128.056 215.211 127.656 214.816C127.261 214.416 127.064 213.912 127.064 213.304C127.064 212.701 127.258 212.2 127.648 211.8C128.037 211.4 128.541 211.2 129.16 211.2C129.746 211.2 130.224 211.408 130.592 211.824C130.965 212.235 131.152 212.731 131.152 213.312C131.152 213.413 131.144 213.517 131.128 213.624H127.776ZM129.16 211.856C128.786 211.856 128.477 211.963 128.232 212.176C127.986 212.384 127.834 212.664 127.776 213.016H130.448C130.389 212.637 130.24 212.349 130 212.152C129.76 211.955 129.48 211.856 129.16 211.856ZM137.568 215.304L136.056 212.664V212.312H136.232C136.514 212.312 136.752 212.285 136.944 212.232C137.141 212.179 137.296 212.091 137.408 211.968C137.52 211.845 137.586 211.677 137.608 211.464H136.056V210.952H137.6C137.562 210.755 137.488 210.595 137.376 210.472C137.264 210.344 137.112 210.251 136.92 210.192C136.733 210.133 136.504 210.104 136.232 210.104H136.056V209.592H139.368V210.104H137.856C137.978 210.205 138.08 210.325 138.16 210.464C138.24 210.603 138.29 210.765 138.312 210.952H139.368V211.464H138.328C138.29 211.853 138.141 212.157 137.88 212.376C137.624 212.589 137.282 212.725 136.856 212.784L138.384 215.304H137.568ZM141.586 209.704H142.226V215.304H141.49V210.504L140.298 210.856L140.114 210.216L141.586 209.704ZM145.014 211.888C145.542 211.888 145.987 212.045 146.35 212.36C146.718 212.669 146.902 213.099 146.902 213.648C146.902 214.192 146.715 214.621 146.342 214.936C145.968 215.251 145.515 215.408 144.982 215.408C144.555 215.408 144.174 215.307 143.838 215.104C143.502 214.896 143.267 214.597 143.134 214.208L143.766 213.848C143.84 214.12 143.984 214.328 144.198 214.472C144.411 214.611 144.672 214.68 144.982 214.68C145.334 214.68 145.619 214.589 145.838 214.408C146.056 214.227 146.166 213.973 146.166 213.648C146.166 213.323 146.056 213.069 145.838 212.888C145.619 212.701 145.339 212.608 144.998 212.608H143.414L143.622 209.704H146.686V210.4H144.294L144.198 211.888H145.014ZM148.609 214.48L148.089 216.424H147.489L147.809 214.48H148.609ZM153.536 213.544V214.24H152.856V215.304H152.112V214.24H149.256V213.544L151.264 209.704H152.064L150.056 213.544H152.112V211.96H152.856V213.544H153.536ZM157.817 214.616C157.438 215.144 156.908 215.408 156.225 215.408C155.542 215.408 155.012 215.144 154.633 214.616C154.254 214.088 154.065 213.384 154.065 212.504C154.065 211.624 154.254 210.92 154.633 210.392C155.012 209.864 155.542 209.6 156.225 209.6C156.908 209.6 157.438 209.864 157.817 210.392C158.196 210.92 158.385 211.624 158.385 212.504C158.385 213.384 158.196 214.088 157.817 214.616ZM155.177 214.112C155.422 214.491 155.772 214.68 156.225 214.68C156.678 214.68 157.028 214.491 157.273 214.112C157.524 213.733 157.649 213.197 157.649 212.504C157.649 211.811 157.524 211.275 157.273 210.896C157.028 210.512 156.678 210.32 156.225 210.32C155.772 210.32 155.422 210.509 155.177 210.888C154.932 211.267 154.809 211.805 154.809 212.504C154.809 213.197 154.932 213.733 155.177 214.112ZM162.856 214.616C162.477 215.144 161.947 215.408 161.264 215.408C160.581 215.408 160.051 215.144 159.672 214.616C159.293 214.088 159.104 213.384 159.104 212.504C159.104 211.624 159.293 210.92 159.672 210.392C160.051 209.864 160.581 209.6 161.264 209.6C161.947 209.6 162.477 209.864 162.856 210.392C163.235 210.92 163.424 211.624 163.424 212.504C163.424 213.384 163.235 214.088 162.856 214.616ZM160.216 214.112C160.461 214.491 160.811 214.68 161.264 214.68C161.717 214.68 162.067 214.491 162.312 214.112C162.563 213.733 162.688 213.197 162.688 212.504C162.688 211.811 162.563 211.275 162.312 210.896C162.067 210.512 161.717 210.32 161.264 210.32C160.811 210.32 160.461 210.509 160.216 210.888C159.971 211.267 159.848 211.805 159.848 212.504C159.848 213.197 159.971 213.733 160.216 214.112ZM164.509 215.392C164.365 215.392 164.242 215.341 164.141 215.24C164.04 215.139 163.989 215.016 163.989 214.872C163.989 214.728 164.04 214.605 164.141 214.504C164.242 214.403 164.365 214.352 164.509 214.352C164.658 214.352 164.781 214.403 164.877 214.504C164.978 214.605 165.029 214.728 165.029 214.872C165.029 215.016 164.978 215.139 164.877 215.24C164.781 215.341 164.658 215.392 164.509 215.392ZM169.356 214.616C168.977 215.144 168.447 215.408 167.764 215.408C167.081 215.408 166.551 215.144 166.172 214.616C165.793 214.088 165.604 213.384 165.604 212.504C165.604 211.624 165.793 210.92 166.172 210.392C166.551 209.864 167.081 209.6 167.764 209.6C168.447 209.6 168.977 209.864 169.356 210.392C169.735 210.92 169.924 211.624 169.924 212.504C169.924 213.384 169.735 214.088 169.356 214.616ZM166.716 214.112C166.961 214.491 167.311 214.68 167.764 214.68C168.217 214.68 168.567 214.491 168.812 214.112C169.063 213.733 169.188 213.197 169.188 212.504C169.188 211.811 169.063 211.275 168.812 210.896C168.567 210.512 168.217 210.32 167.764 210.32C167.311 210.32 166.961 210.509 166.716 210.888C166.471 211.267 166.348 211.805 166.348 212.504C166.348 213.197 166.471 213.733 166.716 214.112ZM174.395 214.616C174.017 215.144 173.486 215.408 172.803 215.408C172.121 215.408 171.59 215.144 171.211 214.616C170.833 214.088 170.643 213.384 170.643 212.504C170.643 211.624 170.833 210.92 171.211 210.392C171.59 209.864 172.121 209.6 172.803 209.6C173.486 209.6 174.017 209.864 174.395 210.392C174.774 210.92 174.963 211.624 174.963 212.504C174.963 213.384 174.774 214.088 174.395 214.616ZM171.755 214.112C172.001 214.491 172.35 214.68 172.803 214.68C173.257 214.68 173.606 214.491 173.851 214.112C174.102 213.733 174.227 213.197 174.227 212.504C174.227 211.811 174.102 211.275 173.851 210.896C173.606 210.512 173.257 210.32 172.803 210.32C172.35 210.32 172.001 210.509 171.755 210.888C171.51 211.267 171.387 211.805 171.387 212.504C171.387 213.197 171.51 213.733 171.755 214.112Z" fill="#1E1E1E"/>
<rect x="20.7637" y="245.138" width="253.468" height="67.8933" rx="10" fill="white"/>
<rect x="21.2637" y="245.638" width="252.468" height="66.8933" rx="9.5" stroke="#0A0C33" stroke-opacity="0.1"/>
<path d="M75.94 272.878C76.676 273.302 77.044 273.942 77.044 274.798C77.044 275.51 76.792 276.094 76.288 276.55C75.784 277.006 75.164 277.234 74.428 277.234H70.864V268.834H74.176C74.896 268.834 75.5 269.058 75.988 269.506C76.484 269.946 76.732 270.51 76.732 271.198C76.732 271.894 76.468 272.454 75.94 272.878ZM74.176 270.382H72.52V272.23H74.176C74.432 272.23 74.644 272.142 74.812 271.966C74.988 271.79 75.076 271.57 75.076 271.306C75.076 271.042 74.992 270.822 74.824 270.646C74.656 270.47 74.44 270.382 74.176 270.382ZM74.428 275.686C74.708 275.686 74.94 275.594 75.124 275.41C75.308 275.218 75.4 274.978 75.4 274.69C75.4 274.41 75.308 274.178 75.124 273.994C74.94 273.802 74.708 273.706 74.428 273.706H72.52V275.686H74.428ZM82.7114 271.234H84.2594V277.234H82.7114V276.526C82.2474 277.11 81.5954 277.402 80.7554 277.402C79.9554 277.402 79.2674 277.098 78.6914 276.49C78.1234 275.874 77.8394 275.122 77.8394 274.234C77.8394 273.346 78.1234 272.598 78.6914 271.99C79.2674 271.374 79.9554 271.066 80.7554 271.066C81.5954 271.066 82.2474 271.358 82.7114 271.942V271.234ZM79.8554 275.458C80.1674 275.77 80.5634 275.926 81.0434 275.926C81.5234 275.926 81.9194 275.77 82.2314 275.458C82.5514 275.138 82.7114 274.73 82.7114 274.234C82.7114 273.738 82.5514 273.334 82.2314 273.022C81.9194 272.702 81.5234 272.542 81.0434 272.542C80.5634 272.542 80.1674 272.702 79.8554 273.022C79.5434 273.334 79.3874 273.738 79.3874 274.234C79.3874 274.73 79.5434 275.138 79.8554 275.458ZM88.9991 271.066C89.6551 271.066 90.1951 271.286 90.6191 271.726C91.0511 272.166 91.2671 272.774 91.2671 273.55V277.234H89.7191V273.742C89.7191 273.342 89.6111 273.038 89.3951 272.83C89.1791 272.614 88.8911 272.506 88.5311 272.506C88.1311 272.506 87.8111 272.63 87.5711 272.878C87.3311 273.126 87.2111 273.498 87.2111 273.994V277.234H85.6631V271.234H87.2111V271.906C87.5871 271.346 88.1831 271.066 88.9991 271.066ZM98.1209 277.234H96.3209L94.1369 274.51V277.234H92.5889V268.834H94.1369V273.874L96.2009 271.234H98.0489L95.6369 274.198L98.1209 277.234ZM107.978 274.27V275.806H107.078V277.234H105.41V275.806H101.438V274.27L104.234 268.834H106.01L103.226 274.27H105.41V272.278H107.078V274.27H107.978Z" fill="#1E1E1E"/>
<circle cx="45.6549" cy="279.085" r="10.5612" fill="#A5EB14"/>
<path d="M74.5543 294.712C73.7063 294.712 73.0049 294.432 72.4503 293.872C71.9009 293.312 71.6263 292.624 71.6263 291.808C71.6263 290.992 71.9009 290.304 72.4503 289.744C73.0049 289.184 73.7063 288.904 74.5543 288.904C75.0663 288.904 75.5356 289.027 75.9623 289.272C76.3943 289.517 76.7303 289.848 76.9703 290.264L76.3223 290.64C76.1623 290.331 75.9223 290.085 75.6023 289.904C75.2876 289.717 74.9383 289.624 74.5543 289.624C73.9089 289.624 73.3809 289.832 72.9703 290.248C72.5649 290.664 72.3623 291.184 72.3623 291.808C72.3623 292.427 72.5649 292.944 72.9703 293.36C73.3809 293.776 73.9089 293.984 74.5543 293.984C74.9383 293.984 75.2876 293.893 75.6023 293.712C75.9223 293.525 76.1623 293.28 76.3223 292.976L76.9703 293.344C76.7356 293.76 76.4023 294.093 75.9703 294.344C75.5383 294.589 75.0663 294.712 74.5543 294.712ZM80.5243 290.608H81.2203V294.608H80.5243V294.032C80.2417 294.485 79.8097 294.712 79.2283 294.712C78.759 294.712 78.383 294.565 78.1003 294.272C77.8177 293.973 77.6763 293.571 77.6763 293.064V290.608H78.3723V293.024C78.3723 293.349 78.4603 293.603 78.6363 293.784C78.8123 293.96 79.055 294.048 79.3643 294.048C79.711 294.048 79.991 293.941 80.2043 293.728C80.4177 293.509 80.5243 293.176 80.5243 292.728V290.608ZM82.976 291.28C83.2053 290.784 83.6213 290.536 84.224 290.536V291.264C83.8826 291.248 83.5893 291.339 83.344 291.536C83.0986 291.733 82.976 292.051 82.976 292.488V294.608H82.28V290.608H82.976V291.28ZM85.601 291.28C85.8303 290.784 86.2463 290.536 86.849 290.536V291.264C86.5076 291.248 86.2143 291.339 85.969 291.536C85.7236 291.733 85.601 292.051 85.601 292.488V294.608H84.905V290.608H85.601V291.28ZM87.7992 292.928C87.8685 293.285 88.0312 293.563 88.2872 293.76C88.5485 293.957 88.8685 294.056 89.2472 294.056C89.7752 294.056 90.1592 293.861 90.3992 293.472L90.9912 293.808C90.6019 294.411 90.0152 294.712 89.2312 294.712C88.5965 294.712 88.0792 294.515 87.6792 294.12C87.2845 293.72 87.0872 293.216 87.0872 292.608C87.0872 292.005 87.2819 291.504 87.6712 291.104C88.0605 290.704 88.5645 290.504 89.1832 290.504C89.7699 290.504 90.2472 290.712 90.6152 291.128C90.9885 291.539 91.1752 292.035 91.1752 292.616C91.1752 292.717 91.1672 292.821 91.1512 292.928H87.7992ZM89.1832 291.16C88.8099 291.16 88.5005 291.267 88.2552 291.48C88.0099 291.688 87.8579 291.968 87.7992 292.32H90.4712C90.4125 291.941 90.2632 291.653 90.0232 291.456C89.7832 291.259 89.5032 291.16 89.1832 291.16ZM93.9673 290.504C94.4366 290.504 94.8126 290.653 95.0953 290.952C95.3779 291.245 95.5193 291.645 95.5193 292.152V294.608H94.8233V292.192C94.8233 291.867 94.7353 291.616 94.5593 291.44C94.3833 291.259 94.1406 291.168 93.8313 291.168C93.4846 291.168 93.2046 291.277 92.9913 291.496C92.7779 291.709 92.6713 292.04 92.6713 292.488V294.608H91.9753V290.608H92.6713V291.184C92.9539 290.731 93.3859 290.504 93.9673 290.504ZM98.6669 291.28H97.6029V293.448C97.6029 293.645 97.6402 293.787 97.7149 293.872C97.7949 293.952 97.9149 293.995 98.0749 294C98.2349 294 98.4322 293.995 98.6669 293.984V294.608C98.0589 294.688 97.6136 294.64 97.3309 294.464C97.0482 294.283 96.9069 293.944 96.9069 293.448V291.28H96.1149V290.608H96.9069V289.696L97.6029 289.488V290.608H98.6669V291.28ZM103.722 290.504C104.282 290.504 104.76 290.709 105.154 291.12C105.549 291.525 105.746 292.021 105.746 292.608C105.746 293.195 105.549 293.693 105.154 294.104C104.76 294.509 104.282 294.712 103.722 294.712C103.061 294.712 102.557 294.448 102.21 293.92V294.608H101.514V289.008H102.21V291.296C102.557 290.768 103.061 290.504 103.722 290.504ZM103.634 294.04C104.034 294.04 104.37 293.904 104.642 293.632C104.914 293.355 105.05 293.013 105.05 292.608C105.05 292.203 104.914 291.864 104.642 291.592C104.37 291.315 104.034 291.176 103.634 291.176C103.229 291.176 102.89 291.315 102.618 291.592C102.346 291.864 102.21 292.203 102.21 292.608C102.21 293.013 102.346 293.355 102.618 293.632C102.89 293.904 103.229 294.04 103.634 294.04ZM109.889 290.608H110.585V294.608H109.889V293.92C109.542 294.448 109.038 294.712 108.377 294.712C107.817 294.712 107.339 294.509 106.945 294.104C106.55 293.693 106.353 293.195 106.353 292.608C106.353 292.021 106.55 291.525 106.945 291.12C107.339 290.709 107.817 290.504 108.377 290.504C109.038 290.504 109.542 290.768 109.889 291.296V290.608ZM108.465 294.04C108.87 294.04 109.209 293.904 109.481 293.632C109.753 293.355 109.889 293.013 109.889 292.608C109.889 292.203 109.753 291.864 109.481 291.592C109.209 291.315 108.87 291.176 108.465 291.176C108.065 291.176 107.729 291.315 107.457 291.592C107.185 291.864 107.049 292.203 107.049 292.608C107.049 293.013 107.185 293.355 107.457 293.632C107.729 293.904 108.065 294.04 108.465 294.04ZM111.639 294.608V288.768H112.335V294.608H111.639ZM116.709 290.608H117.405V294.608H116.709V293.92C116.362 294.448 115.858 294.712 115.197 294.712C114.637 294.712 114.16 294.509 113.765 294.104C113.37 293.693 113.173 293.195 113.173 292.608C113.173 292.021 113.37 291.525 113.765 291.12C114.16 290.709 114.637 290.504 115.197 290.504C115.858 290.504 116.362 290.768 116.709 291.296V290.608ZM115.285 294.04C115.69 294.04 116.029 293.904 116.301 293.632C116.573 293.355 116.709 293.013 116.709 292.608C116.709 292.203 116.573 291.864 116.301 291.592C116.029 291.315 115.69 291.176 115.285 291.176C114.885 291.176 114.549 291.315 114.277 291.592C114.005 291.864 113.869 292.203 113.869 292.608C113.869 293.013 114.005 293.355 114.277 293.632C114.549 293.904 114.885 294.04 115.285 294.04ZM120.452 290.504C120.921 290.504 121.297 290.653 121.58 290.952C121.862 291.245 122.004 291.645 122.004 292.152V294.608H121.308V292.192C121.308 291.867 121.22 291.616 121.044 291.44C120.868 291.259 120.625 291.168 120.316 291.168C119.969 291.168 119.689 291.277 119.476 291.496C119.262 291.709 119.156 292.04 119.156 292.488V294.608H118.46V290.608H119.156V291.184C119.438 290.731 119.87 290.504 120.452 290.504ZM124.855 294.712C124.253 294.712 123.751 294.512 123.351 294.112C122.951 293.707 122.751 293.205 122.751 292.608C122.751 292.011 122.951 291.512 123.351 291.112C123.751 290.707 124.253 290.504 124.855 290.504C125.25 290.504 125.605 290.6 125.919 290.792C126.234 290.979 126.469 291.232 126.623 291.552L126.039 291.888C125.938 291.675 125.781 291.504 125.567 291.376C125.359 291.248 125.122 291.184 124.855 291.184C124.455 291.184 124.119 291.32 123.847 291.592C123.581 291.864 123.447 292.203 123.447 292.608C123.447 293.008 123.581 293.344 123.847 293.616C124.119 293.888 124.455 294.024 124.855 294.024C125.122 294.024 125.362 293.963 125.575 293.84C125.789 293.712 125.951 293.541 126.063 293.328L126.655 293.672C126.485 293.987 126.239 294.24 125.919 294.432C125.599 294.619 125.245 294.712 124.855 294.712ZM127.776 292.928C127.845 293.285 128.008 293.563 128.264 293.76C128.525 293.957 128.845 294.056 129.224 294.056C129.752 294.056 130.136 293.861 130.376 293.472L130.968 293.808C130.578 294.411 129.992 294.712 129.208 294.712C128.573 294.712 128.056 294.515 127.656 294.12C127.261 293.72 127.064 293.216 127.064 292.608C127.064 292.005 127.258 291.504 127.648 291.104C128.037 290.704 128.541 290.504 129.16 290.504C129.746 290.504 130.224 290.712 130.592 291.128C130.965 291.539 131.152 292.035 131.152 292.616C131.152 292.717 131.144 292.821 131.128 292.928H127.776ZM129.16 291.16C128.786 291.16 128.477 291.267 128.232 291.48C127.986 291.688 127.834 291.968 127.776 292.32H130.448C130.389 291.941 130.24 291.653 130 291.456C129.76 291.259 129.48 291.16 129.16 291.16ZM137.568 294.608L136.056 291.968V291.616H136.232C136.514 291.616 136.752 291.589 136.944 291.536C137.141 291.483 137.296 291.395 137.408 291.272C137.52 291.149 137.586 290.981 137.608 290.768H136.056V290.256H137.6C137.562 290.059 137.488 289.899 137.376 289.776C137.264 289.648 137.112 289.555 136.92 289.496C136.733 289.437 136.504 289.408 136.232 289.408H136.056V288.896H139.368V289.408H137.856C137.978 289.509 138.08 289.629 138.16 289.768C138.24 289.907 138.29 290.069 138.312 290.256H139.368V290.768H138.328C138.29 291.157 138.141 291.461 137.88 291.68C137.624 291.893 137.282 292.029 136.856 292.088L138.384 294.608H137.568ZM141.586 289.008H142.226V294.608H141.49V289.808L140.298 290.16L140.114 289.52L141.586 289.008ZM145.014 291.192C145.542 291.192 145.987 291.349 146.35 291.664C146.718 291.973 146.902 292.403 146.902 292.952C146.902 293.496 146.715 293.925 146.342 294.24C145.968 294.555 145.515 294.712 144.982 294.712C144.555 294.712 144.174 294.611 143.838 294.408C143.502 294.2 143.267 293.901 143.134 293.512L143.766 293.152C143.84 293.424 143.984 293.632 144.198 293.776C144.411 293.915 144.672 293.984 144.982 293.984C145.334 293.984 145.619 293.893 145.838 293.712C146.056 293.531 146.166 293.277 146.166 292.952C146.166 292.627 146.056 292.373 145.838 292.192C145.619 292.005 145.339 291.912 144.998 291.912H143.414L143.622 289.008H146.686V289.704H144.294L144.198 291.192H145.014ZM148.609 293.784L148.089 295.728H147.489L147.809 293.784H148.609ZM153.536 292.848V293.544H152.856V294.608H152.112V293.544H149.256V292.848L151.264 289.008H152.064L150.056 292.848H152.112V291.264H152.856V292.848H153.536ZM157.817 293.92C157.438 294.448 156.908 294.712 156.225 294.712C155.542 294.712 155.012 294.448 154.633 293.92C154.254 293.392 154.065 292.688 154.065 291.808C154.065 290.928 154.254 290.224 154.633 289.696C155.012 289.168 155.542 288.904 156.225 288.904C156.908 288.904 157.438 289.168 157.817 289.696C158.196 290.224 158.385 290.928 158.385 291.808C158.385 292.688 158.196 293.392 157.817 293.92ZM155.177 293.416C155.422 293.795 155.772 293.984 156.225 293.984C156.678 293.984 157.028 293.795 157.273 293.416C157.524 293.037 157.649 292.501 157.649 291.808C157.649 291.115 157.524 290.579 157.273 290.2C157.028 289.816 156.678 289.624 156.225 289.624C155.772 289.624 155.422 289.813 155.177 290.192C154.932 290.571 154.809 291.109 154.809 291.808C154.809 292.501 154.932 293.037 155.177 293.416ZM162.856 293.92C162.477 294.448 161.947 294.712 161.264 294.712C160.581 294.712 160.051 294.448 159.672 293.92C159.293 293.392 159.104 292.688 159.104 291.808C159.104 290.928 159.293 290.224 159.672 289.696C160.051 289.168 160.581 288.904 161.264 288.904C161.947 288.904 162.477 289.168 162.856 289.696C163.235 290.224 163.424 290.928 163.424 291.808C163.424 292.688 163.235 293.392 162.856 293.92ZM160.216 293.416C160.461 293.795 160.811 293.984 161.264 293.984C161.717 293.984 162.067 293.795 162.312 293.416C162.563 293.037 162.688 292.501 162.688 291.808C162.688 291.115 162.563 290.579 162.312 290.2C162.067 289.816 161.717 289.624 161.264 289.624C160.811 289.624 160.461 289.813 160.216 290.192C159.971 290.571 159.848 291.109 159.848 291.808C159.848 292.501 159.971 293.037 160.216 293.416ZM164.509 294.696C164.365 294.696 164.242 294.645 164.141 294.544C164.04 294.443 163.989 294.32 163.989 294.176C163.989 294.032 164.04 293.909 164.141 293.808C164.242 293.707 164.365 293.656 164.509 293.656C164.658 293.656 164.781 293.707 164.877 293.808C164.978 293.909 165.029 294.032 165.029 294.176C165.029 294.32 164.978 294.443 164.877 294.544C164.781 294.645 164.658 294.696 164.509 294.696ZM169.356 293.92C168.977 294.448 168.447 294.712 167.764 294.712C167.081 294.712 166.551 294.448 166.172 293.92C165.793 293.392 165.604 292.688 165.604 291.808C165.604 290.928 165.793 290.224 166.172 289.696C166.551 289.168 167.081 288.904 167.764 288.904C168.447 288.904 168.977 289.168 169.356 289.696C169.735 290.224 169.924 290.928 169.924 291.808C169.924 292.688 169.735 293.392 169.356 293.92ZM166.716 293.416C166.961 293.795 167.311 293.984 167.764 293.984C168.217 293.984 168.567 293.795 168.812 293.416C169.063 293.037 169.188 292.501 169.188 291.808C169.188 291.115 169.063 290.579 168.812 290.2C168.567 289.816 168.217 289.624 167.764 289.624C167.311 289.624 166.961 289.813 166.716 290.192C166.471 290.571 166.348 291.109 166.348 291.808C166.348 292.501 166.471 293.037 166.716 293.416ZM174.395 293.92C174.017 294.448 173.486 294.712 172.803 294.712C172.121 294.712 171.59 294.448 171.211 293.92C170.833 293.392 170.643 292.688 170.643 291.808C170.643 290.928 170.833 290.224 171.211 289.696C171.59 289.168 172.121 288.904 172.803 288.904C173.486 288.904 174.017 289.168 174.395 289.696C174.774 290.224 174.963 290.928 174.963 291.808C174.963 292.688 174.774 293.392 174.395 293.92ZM171.755 293.416C172.001 293.795 172.35 293.984 172.803 293.984C173.257 293.984 173.606 293.795 173.851 293.416C174.102 293.037 174.227 292.501 174.227 291.808C174.227 291.115 174.102 290.579 173.851 290.2C173.606 289.816 173.257 289.624 172.803 289.624C172.35 289.624 172.001 289.813 171.755 290.192C171.51 290.571 171.387 291.109 171.387 291.808C171.387 292.501 171.51 293.037 171.755 293.416Z" fill="#1E1E1E"/>
<rect width="30" height="30" transform="translate(244.461 27)" fill="white"/>
<path d="M246.961 42C246.961 44.4723 247.694 46.889 249.068 48.9446C250.441 51.0002 252.393 52.6024 254.677 53.5485C256.961 54.4946 259.475 54.7421 261.9 54.2598C264.324 53.7775 266.552 52.587 268.3 50.8388C270.048 49.0907 271.238 46.8634 271.721 44.4386C272.203 42.0139 271.956 39.5005 271.009 37.2165C270.063 34.9324 268.461 32.9801 266.406 31.6066C264.35 30.2331 261.933 29.5 259.461 29.5C257.819 29.5 256.194 29.8233 254.677 30.4515C253.161 31.0797 251.783 32.0004 250.622 33.1612C248.278 35.5054 246.961 38.6848 246.961 42ZM263.961 44.15C264.286 43.4795 264.457 42.745 264.461 42C264.461 40.6739 263.934 39.4021 262.996 38.4645C262.059 37.5268 260.787 37 259.461 37V39.5L255.561 35.75L259.461 32V34.5C261.45 34.5 263.358 35.2902 264.764 36.6967C266.171 38.1032 266.961 40.0109 266.961 42C266.963 43.4131 266.56 44.7972 265.798 45.9875M251.961 42C251.958 40.5869 252.362 39.2028 253.123 38.0125L254.961 39.85C254.636 40.5205 254.465 41.255 254.461 42C254.461 43.3261 254.988 44.5979 255.925 45.5355C256.863 46.4732 258.135 47 259.461 47V44.5L263.211 48.25L259.461 52V49.5C257.472 49.5 255.564 48.7098 254.158 47.3033C252.751 45.8968 251.961 43.9891 251.961 42Z" fill="#0A0C33"/>
</svg>
