<svg width="408" height="426" viewBox="0 0 408 426" fill="none" xmlns="http://www.w3.org/2000/svg">
<rect width="408" height="426" rx="20" fill="white"/>
<rect x="0.5" y="0.5" width="407" height="425" rx="19.5" stroke="#0A0C33" stroke-opacity="0.1"/>
<g filter="url(#filter0_d_1088_1159)">
<rect x="21" y="157" width="366" height="67" rx="10" fill="white"/>
<rect x="21.5" y="157.5" width="365" height="66" rx="9.5" stroke="#0A0C33" stroke-opacity="0.1"/>
<path d="M91.9554 188.021L91.4514 186.509H88.1034L87.5994 188.021H85.8114L88.7514 179.621H90.8034L93.7554 188.021H91.9554ZM88.6314 184.961H90.9354L89.7834 181.529L88.6314 184.961ZM96.047 183.053C96.191 182.669 96.427 182.381 96.755 182.189C97.091 181.997 97.463 181.901 97.871 181.901V183.629C97.399 183.573 96.975 183.669 96.599 183.917C96.231 184.165 96.047 184.577 96.047 185.153V188.021H94.499V182.021H96.047V183.053ZM102.736 182.021H104.284V188.021H102.736V187.349C102.36 187.909 101.764 188.189 100.948 188.189C100.292 188.189 99.7484 187.969 99.3164 187.529C98.8924 187.089 98.6804 186.481 98.6804 185.705V182.021H100.228V185.513C100.228 185.913 100.336 186.221 100.552 186.437C100.768 186.645 101.056 186.749 101.416 186.749C101.816 186.749 102.136 186.625 102.376 186.377C102.616 186.129 102.736 185.757 102.736 185.261V182.021ZM109.038 181.853C109.694 181.853 110.234 182.073 110.658 182.513C111.09 182.953 111.306 183.561 111.306 184.337V188.021H109.758V184.529C109.758 184.129 109.65 183.825 109.434 183.617C109.218 183.401 108.93 183.293 108.57 183.293C108.17 183.293 107.85 183.417 107.61 183.665C107.37 183.913 107.25 184.285 107.25 184.781V188.021H105.702V182.021H107.25V182.693C107.626 182.133 108.222 181.853 109.038 181.853Z" fill="#1E1E1E"/>
</g>
<circle cx="53" cy="190" r="17.5" stroke="#0A0C33"/>
<g filter="url(#filter1_d_1088_1159)">
<rect x="21" y="239" width="366" height="67" rx="10" fill="white"/>
<rect x="21.5" y="239.5" width="365" height="66" rx="9.5" stroke="#0A0C33" stroke-opacity="0.1"/>
<path d="M89.6874 261.471C90.4954 261.471 91.1754 261.743 91.7274 262.287C92.2794 262.831 92.5554 263.499 92.5554 264.291C92.5554 265.083 92.2794 265.751 91.7274 266.295C91.1754 266.839 90.4954 267.111 89.6874 267.111H88.2114V269.871H86.5554V261.471H89.6874ZM89.6874 265.563C90.0394 265.563 90.3314 265.443 90.5634 265.203C90.7954 264.955 90.9114 264.651 90.9114 264.291C90.9114 263.923 90.7954 263.619 90.5634 263.379C90.3314 263.139 90.0394 263.019 89.6874 263.019H88.2114V265.563H89.6874ZM94.9806 264.903C95.1246 264.519 95.3606 264.231 95.6886 264.039C96.0246 263.847 96.3966 263.751 96.8046 263.751V265.479C96.3326 265.423 95.9086 265.519 95.5326 265.767C95.1646 266.015 94.9806 266.427 94.9806 267.003V269.871H93.4326V263.871H94.9806V264.903ZM98.478 263.151C98.222 263.151 97.998 263.059 97.806 262.875C97.622 262.683 97.53 262.459 97.53 262.203C97.53 261.947 97.622 261.723 97.806 261.531C97.998 261.339 98.222 261.243 98.478 261.243C98.742 261.243 98.966 261.339 99.15 261.531C99.342 261.723 99.438 261.947 99.438 262.203C99.438 262.459 99.342 262.683 99.15 262.875C98.966 263.059 98.742 263.151 98.478 263.151ZM97.71 269.871V263.871H99.258V269.871H97.71ZM104.587 263.871H106.243L104.059 269.871C103.747 270.735 103.331 271.359 102.811 271.743C102.299 272.135 101.659 272.311 100.891 272.271V270.831C101.307 270.839 101.635 270.751 101.875 270.567C102.123 270.383 102.319 270.087 102.463 269.679L100.003 263.871H101.695L103.255 267.903L104.587 263.871ZM111.305 263.871H112.853V269.871H111.305V269.163C110.841 269.747 110.189 270.039 109.349 270.039C108.549 270.039 107.861 269.735 107.285 269.127C106.717 268.511 106.433 267.759 106.433 266.871C106.433 265.983 106.717 265.235 107.285 264.627C107.861 264.011 108.549 263.703 109.349 263.703C110.189 263.703 110.841 263.995 111.305 264.579V263.871ZM108.449 268.095C108.761 268.407 109.157 268.563 109.637 268.563C110.117 268.563 110.513 268.407 110.825 268.095C111.145 267.775 111.305 267.367 111.305 266.871C111.305 266.375 111.145 265.971 110.825 265.659C110.513 265.339 110.117 265.179 109.637 265.179C109.157 265.179 108.761 265.339 108.449 265.659C108.137 265.971 107.981 266.375 107.981 266.871C107.981 267.367 108.137 267.775 108.449 268.095Z" fill="#1E1E1E"/>
</g>
<circle cx="53" cy="272" r="17.5" stroke="#0A0C33"/>
<path d="M89.48 196C90.4333 196 91.2233 196.34 91.85 197.02C92.4833 197.693 92.8 198.52 92.8 199.5C92.8 200.48 92.4833 201.31 91.85 201.99C91.2233 202.663 90.4333 203 89.48 203H86.75V196H89.48ZM89.48 202.12C90.1933 202.12 90.7767 201.87 91.23 201.37C91.6833 200.87 91.91 200.247 91.91 199.5C91.91 198.753 91.6833 198.13 91.23 197.63C90.7767 197.13 90.1933 196.88 89.48 196.88H87.68V202.12H89.48ZM97.9777 198H98.8477V203H97.9777V202.14C97.5444 202.8 96.9144 203.13 96.0877 203.13C95.3877 203.13 94.7911 202.877 94.2977 202.37C93.8044 201.857 93.5577 201.233 93.5577 200.5C93.5577 199.767 93.8044 199.147 94.2977 198.64C94.7911 198.127 95.3877 197.87 96.0877 197.87C96.9144 197.87 97.5444 198.2 97.9777 198.86V198ZM96.1977 202.29C96.7044 202.29 97.1277 202.12 97.4677 201.78C97.8077 201.433 97.9777 201.007 97.9777 200.5C97.9777 199.993 97.8077 199.57 97.4677 199.23C97.1277 198.883 96.7044 198.71 96.1977 198.71C95.6977 198.71 95.2777 198.883 94.9377 199.23C94.5977 199.57 94.4277 199.993 94.4277 200.5C94.4277 201.007 94.5977 201.433 94.9377 201.78C95.2777 202.12 95.6977 202.29 96.1977 202.29ZM102.886 198.84H101.556V201.55C101.556 201.797 101.603 201.973 101.696 202.08C101.796 202.18 101.946 202.233 102.146 202.24C102.346 202.24 102.593 202.233 102.886 202.22V203C102.126 203.1 101.569 203.04 101.216 202.82C100.863 202.593 100.686 202.17 100.686 201.55V198.84H99.6959V198H100.686V196.86L101.556 196.6V198H102.886V198.84ZM104.272 200.9C104.359 201.347 104.562 201.693 104.882 201.94C105.209 202.187 105.609 202.31 106.082 202.31C106.742 202.31 107.222 202.067 107.522 201.58L108.262 202C107.775 202.753 107.042 203.13 106.062 203.13C105.269 203.13 104.622 202.883 104.122 202.39C103.629 201.89 103.382 201.26 103.382 200.5C103.382 199.747 103.625 199.12 104.112 198.62C104.599 198.12 105.229 197.87 106.002 197.87C106.735 197.87 107.332 198.13 107.792 198.65C108.259 199.163 108.492 199.783 108.492 200.51C108.492 200.637 108.482 200.767 108.462 200.9H104.272ZM106.002 198.69C105.535 198.69 105.149 198.823 104.842 199.09C104.535 199.35 104.345 199.7 104.272 200.14H107.612C107.539 199.667 107.352 199.307 107.052 199.06C106.752 198.813 106.402 198.69 106.002 198.69ZM113.312 196H114.112V203H113.192V197L111.702 197.44L111.472 196.64L113.312 196ZM120.036 202.14C119.563 202.8 118.9 203.13 118.046 203.13C117.193 203.13 116.53 202.8 116.056 202.14C115.583 201.48 115.346 200.6 115.346 199.5C115.346 198.4 115.583 197.52 116.056 196.86C116.53 196.2 117.193 195.87 118.046 195.87C118.9 195.87 119.563 196.2 120.036 196.86C120.51 197.52 120.746 198.4 120.746 199.5C120.746 200.6 120.51 201.48 120.036 202.14ZM116.736 201.51C117.043 201.983 117.48 202.22 118.046 202.22C118.613 202.22 119.05 201.983 119.356 201.51C119.67 201.037 119.826 200.367 119.826 199.5C119.826 198.633 119.67 197.963 119.356 197.49C119.05 197.01 118.613 196.77 118.046 196.77C117.48 196.77 117.043 197.007 116.736 197.48C116.43 197.953 116.276 198.627 116.276 199.5C116.276 200.367 116.43 201.037 116.736 201.51ZM121.945 200.35V199.51H125.595V200.35H121.945ZM129.042 198.73C129.702 198.73 130.258 198.927 130.712 199.32C131.172 199.707 131.402 200.243 131.402 200.93C131.402 201.61 131.168 202.147 130.702 202.54C130.235 202.933 129.668 203.13 129.002 203.13C128.468 203.13 127.992 203.003 127.572 202.75C127.152 202.49 126.858 202.117 126.692 201.63L127.482 201.18C127.575 201.52 127.755 201.78 128.022 201.96C128.288 202.133 128.615 202.22 129.002 202.22C129.442 202.22 129.798 202.107 130.072 201.88C130.345 201.653 130.482 201.337 130.482 200.93C130.482 200.523 130.345 200.207 130.072 199.98C129.798 199.747 129.448 199.63 129.022 199.63H127.042L127.302 196H131.132V196.87H128.142L128.022 198.73H129.042ZM132.521 200.35V199.51H136.171V200.35H132.521ZM137.278 203V202.24L139.748 199.72C140.408 199.06 140.738 198.493 140.738 198.02C140.738 197.627 140.618 197.32 140.378 197.1C140.138 196.88 139.845 196.77 139.498 196.77C138.838 196.77 138.358 197.083 138.058 197.71L137.278 197.25C137.498 196.797 137.801 196.453 138.188 196.22C138.581 195.987 139.015 195.87 139.488 195.87C140.075 195.87 140.585 196.063 141.018 196.45C141.451 196.837 141.668 197.357 141.668 198.01C141.668 198.717 141.251 199.487 140.418 200.32L138.628 202.1H141.798V203H137.278ZM147.234 202.14C146.76 202.8 146.097 203.13 145.244 203.13C144.39 203.13 143.727 202.8 143.254 202.14C142.78 201.48 142.544 200.6 142.544 199.5C142.544 198.4 142.78 197.52 143.254 196.86C143.727 196.2 144.39 195.87 145.244 195.87C146.097 195.87 146.76 196.2 147.234 196.86C147.707 197.52 147.944 198.4 147.944 199.5C147.944 200.6 147.707 201.48 147.234 202.14ZM143.934 201.51C144.24 201.983 144.677 202.22 145.244 202.22C145.81 202.22 146.247 201.983 146.554 201.51C146.867 201.037 147.024 200.367 147.024 199.5C147.024 198.633 146.867 197.963 146.554 197.49C146.247 197.01 145.81 196.77 145.244 196.77C144.677 196.77 144.24 197.007 143.934 197.48C143.627 197.953 143.474 198.627 143.474 199.5C143.474 200.367 143.627 201.037 143.934 201.51ZM148.626 203V202.24L151.096 199.72C151.756 199.06 152.086 198.493 152.086 198.02C152.086 197.627 151.966 197.32 151.726 197.1C151.486 196.88 151.192 196.77 150.846 196.77C150.186 196.77 149.706 197.083 149.406 197.71L148.626 197.25C148.846 196.797 149.149 196.453 149.536 196.22C149.929 195.987 150.362 195.87 150.836 195.87C151.422 195.87 151.932 196.063 152.366 196.45C152.799 196.837 153.016 197.357 153.016 198.01C153.016 198.717 152.599 199.487 151.766 200.32L149.976 202.1H153.146V203H148.626ZM156.161 198.73C156.821 198.73 157.378 198.927 157.831 199.32C158.291 199.707 158.521 200.243 158.521 200.93C158.521 201.61 158.288 202.147 157.821 202.54C157.354 202.933 156.788 203.13 156.121 203.13C155.588 203.13 155.111 203.003 154.691 202.75C154.271 202.49 153.978 202.117 153.811 201.63L154.601 201.18C154.694 201.52 154.874 201.78 155.141 201.96C155.408 202.133 155.734 202.22 156.121 202.22C156.561 202.22 156.918 202.107 157.191 201.88C157.464 201.653 157.601 201.337 157.601 200.93C157.601 200.523 157.464 200.207 157.191 199.98C156.918 199.747 156.568 199.63 156.141 199.63H154.161L154.421 196H158.251V196.87H155.261L155.141 198.73H156.161Z" fill="#1E1E1E"/>
<path d="M89.48 280C90.4333 280 91.2233 280.34 91.85 281.02C92.4833 281.693 92.8 282.52 92.8 283.5C92.8 284.48 92.4833 285.31 91.85 285.99C91.2233 286.663 90.4333 287 89.48 287H86.75V280H89.48ZM89.48 286.12C90.1933 286.12 90.7767 285.87 91.23 285.37C91.6833 284.87 91.91 284.247 91.91 283.5C91.91 282.753 91.6833 282.13 91.23 281.63C90.7767 281.13 90.1933 280.88 89.48 280.88H87.68V286.12H89.48ZM97.9777 282H98.8477V287H97.9777V286.14C97.5444 286.8 96.9144 287.13 96.0877 287.13C95.3877 287.13 94.7911 286.877 94.2977 286.37C93.8044 285.857 93.5577 285.233 93.5577 284.5C93.5577 283.767 93.8044 283.147 94.2977 282.64C94.7911 282.127 95.3877 281.87 96.0877 281.87C96.9144 281.87 97.5444 282.2 97.9777 282.86V282ZM96.1977 286.29C96.7044 286.29 97.1277 286.12 97.4677 285.78C97.8077 285.433 97.9777 285.007 97.9777 284.5C97.9777 283.993 97.8077 283.57 97.4677 283.23C97.1277 282.883 96.7044 282.71 96.1977 282.71C95.6977 282.71 95.2777 282.883 94.9377 283.23C94.5977 283.57 94.4277 283.993 94.4277 284.5C94.4277 285.007 94.5977 285.433 94.9377 285.78C95.2777 286.12 95.6977 286.29 96.1977 286.29ZM102.886 282.84H101.556V285.55C101.556 285.797 101.603 285.973 101.696 286.08C101.796 286.18 101.946 286.233 102.146 286.24C102.346 286.24 102.593 286.233 102.886 286.22V287C102.126 287.1 101.569 287.04 101.216 286.82C100.863 286.593 100.686 286.17 100.686 285.55V282.84H99.6959V282H100.686V280.86L101.556 280.6V282H102.886V282.84ZM104.272 284.9C104.359 285.347 104.562 285.693 104.882 285.94C105.209 286.187 105.609 286.31 106.082 286.31C106.742 286.31 107.222 286.067 107.522 285.58L108.262 286C107.775 286.753 107.042 287.13 106.062 287.13C105.269 287.13 104.622 286.883 104.122 286.39C103.629 285.89 103.382 285.26 103.382 284.5C103.382 283.747 103.625 283.12 104.112 282.62C104.599 282.12 105.229 281.87 106.002 281.87C106.735 281.87 107.332 282.13 107.792 282.65C108.259 283.163 108.492 283.783 108.492 284.51C108.492 284.637 108.482 284.767 108.462 284.9H104.272ZM106.002 282.69C105.535 282.69 105.149 282.823 104.842 283.09C104.535 283.35 104.345 283.7 104.272 284.14H107.612C107.539 283.667 107.352 283.307 107.052 283.06C106.752 282.813 106.402 282.69 106.002 282.69ZM113.312 280H114.112V287H113.192V281L111.702 281.44L111.472 280.64L113.312 280ZM115.256 287V286.24L117.726 283.72C118.386 283.06 118.716 282.493 118.716 282.02C118.716 281.627 118.596 281.32 118.356 281.1C118.116 280.88 117.823 280.77 117.476 280.77C116.816 280.77 116.336 281.083 116.036 281.71L115.256 281.25C115.476 280.797 115.78 280.453 116.166 280.22C116.56 279.987 116.993 279.87 117.466 279.87C118.053 279.87 118.563 280.063 118.996 280.45C119.43 280.837 119.646 281.357 119.646 282.01C119.646 282.717 119.23 283.487 118.396 284.32L116.606 286.1H119.776V287H115.256ZM120.92 284.35V283.51H124.57V284.35H120.92ZM128.016 282.73C128.676 282.73 129.233 282.927 129.686 283.32C130.146 283.707 130.376 284.243 130.376 284.93C130.376 285.61 130.143 286.147 129.676 286.54C129.21 286.933 128.643 287.13 127.976 287.13C127.443 287.13 126.966 287.003 126.546 286.75C126.126 286.49 125.833 286.117 125.666 285.63L126.456 285.18C126.55 285.52 126.73 285.78 126.996 285.96C127.263 286.133 127.59 286.22 127.976 286.22C128.416 286.22 128.773 286.107 129.046 285.88C129.32 285.653 129.456 285.337 129.456 284.93C129.456 284.523 129.32 284.207 129.046 283.98C128.773 283.747 128.423 283.63 127.996 283.63H126.016L126.276 280H130.106V280.87H127.116L126.996 282.73H128.016ZM131.496 284.35V283.51H135.146V284.35H131.496ZM136.253 287V286.24L138.723 283.72C139.383 283.06 139.713 282.493 139.713 282.02C139.713 281.627 139.593 281.32 139.353 281.1C139.113 280.88 138.819 280.77 138.473 280.77C137.813 280.77 137.333 281.083 137.033 281.71L136.253 281.25C136.473 280.797 136.776 280.453 137.163 280.22C137.556 279.987 137.989 279.87 138.463 279.87C139.049 279.87 139.559 280.063 139.993 280.45C140.426 280.837 140.643 281.357 140.643 282.01C140.643 282.717 140.226 283.487 139.393 284.32L137.603 286.1H140.773V287H136.253ZM146.208 286.14C145.735 286.8 145.072 287.13 144.218 287.13C143.365 287.13 142.702 286.8 142.228 286.14C141.755 285.48 141.518 284.6 141.518 283.5C141.518 282.4 141.755 281.52 142.228 280.86C142.702 280.2 143.365 279.87 144.218 279.87C145.072 279.87 145.735 280.2 146.208 280.86C146.682 281.52 146.918 282.4 146.918 283.5C146.918 284.6 146.682 285.48 146.208 286.14ZM142.908 285.51C143.215 285.983 143.652 286.22 144.218 286.22C144.785 286.22 145.222 285.983 145.528 285.51C145.842 285.037 145.998 284.367 145.998 283.5C145.998 282.633 145.842 281.963 145.528 281.49C145.222 281.01 144.785 280.77 144.218 280.77C143.652 280.77 143.215 281.007 142.908 281.48C142.602 281.953 142.448 282.627 142.448 283.5C142.448 284.367 142.602 285.037 142.908 285.51ZM147.6 287V286.24L150.07 283.72C150.73 283.06 151.06 282.493 151.06 282.02C151.06 281.627 150.94 281.32 150.7 281.1C150.46 280.88 150.167 280.77 149.82 280.77C149.16 280.77 148.68 281.083 148.38 281.71L147.6 281.25C147.82 280.797 148.124 280.453 148.51 280.22C148.904 279.987 149.337 279.87 149.81 279.87C150.397 279.87 150.907 280.063 151.34 280.45C151.774 280.837 151.99 281.357 151.99 282.01C151.99 282.717 151.574 283.487 150.74 284.32L148.95 286.1H152.12V287H147.6ZM155.136 282.73C155.796 282.73 156.352 282.927 156.806 283.32C157.266 283.707 157.496 284.243 157.496 284.93C157.496 285.61 157.262 286.147 156.796 286.54C156.329 286.933 155.762 287.13 155.096 287.13C154.562 287.13 154.086 287.003 153.666 286.75C153.246 286.49 152.952 286.117 152.786 285.63L153.576 285.18C153.669 285.52 153.849 285.78 154.116 285.96C154.382 286.133 154.709 286.22 155.096 286.22C155.536 286.22 155.892 286.107 156.166 285.88C156.439 285.653 156.576 285.337 156.576 284.93C156.576 284.523 156.439 284.207 156.166 283.98C155.892 283.747 155.542 283.63 155.116 283.63H153.136L153.396 280H157.226V280.87H154.236L154.116 282.73H155.136Z" fill="#1E1E1E"/>
<path d="M55.5079 195L54.7099 192.802H50.2999L49.5019 195H48.1159L51.7699 185.2H53.2399L56.8939 195H55.5079ZM50.7479 191.584H54.2619L52.4979 186.754L50.7479 191.584Z" fill="black"/>
<path d="M53.3482 266.2C54.2535 266.2 55.0049 266.503 55.6022 267.11C56.2089 267.707 56.5122 268.454 56.5122 269.35C56.5122 270.237 56.2089 270.983 55.6022 271.59C55.0049 272.197 54.2535 272.5 53.3482 272.5H51.0942V276H49.7922V266.2H53.3482ZM53.3482 271.282C53.8895 271.282 54.3375 271.1 54.6922 270.736C55.0469 270.363 55.2242 269.901 55.2242 269.35C55.2242 268.79 55.0469 268.328 54.6922 267.964C54.3375 267.6 53.8895 267.418 53.3482 267.418H51.0942V271.282H53.3482Z" fill="black"/>
<path d="M322.672 183L320.782 179.7V179.26H321.002C321.356 179.26 321.652 179.227 321.892 179.16C322.139 179.093 322.332 178.983 322.472 178.83C322.612 178.677 322.696 178.467 322.722 178.2H320.782V177.56H322.712C322.666 177.313 322.572 177.113 322.432 176.96C322.292 176.8 322.102 176.683 321.862 176.61C321.629 176.537 321.342 176.5 321.002 176.5H320.782V175.86H324.922V176.5H323.032C323.186 176.627 323.312 176.777 323.412 176.95C323.512 177.123 323.576 177.327 323.602 177.56H324.922V178.2H323.622C323.576 178.687 323.389 179.067 323.062 179.34C322.742 179.607 322.316 179.777 321.782 179.85L323.692 183H322.672ZM329.245 178.84C329.718 178.98 330.102 179.227 330.395 179.58C330.695 179.927 330.845 180.347 330.845 180.84C330.845 181.56 330.602 182.123 330.115 182.53C329.635 182.937 329.045 183.14 328.345 183.14C327.798 183.14 327.308 183.017 326.875 182.77C326.448 182.517 326.138 182.147 325.945 181.66L327.125 180.98C327.298 181.52 327.705 181.79 328.345 181.79C328.698 181.79 328.972 181.707 329.165 181.54C329.365 181.367 329.465 181.133 329.465 180.84C329.465 180.553 329.365 180.323 329.165 180.15C328.972 179.977 328.698 179.89 328.345 179.89H328.045L327.515 179.09L328.895 177.29H326.155V176H330.555V177.14L329.245 178.84ZM333.259 181.62L332.509 184.4H331.459L331.859 181.62H333.259ZM339.412 180.53V181.81H338.662V183H337.272V181.81H333.962V180.53L336.292 176H337.772L335.452 180.53H337.272V178.87H338.662V180.53H339.412ZM342.353 178.55C343.026 178.55 343.593 178.753 344.053 179.16C344.513 179.56 344.743 180.12 344.743 180.84C344.743 181.56 344.499 182.123 344.013 182.53C343.533 182.937 342.943 183.14 342.243 183.14C341.676 183.14 341.176 183.013 340.743 182.76C340.309 182.507 339.996 182.133 339.803 181.64L340.983 180.95C341.156 181.51 341.576 181.79 342.243 181.79C342.596 181.79 342.869 181.707 343.063 181.54C343.263 181.367 343.363 181.133 343.363 180.84C343.363 180.553 343.266 180.323 343.073 180.15C342.879 179.977 342.616 179.89 342.283 179.89H340.163L340.443 176H344.413V177.29H341.723L341.633 178.55H342.353ZM344.966 176H349.486V177.17L347.116 183H345.656L347.956 177.32H344.966V176ZM350.524 181.62L349.774 184.4H348.724L349.124 181.62H350.524ZM355.398 179.36C356.044 179.747 356.368 180.31 356.368 181.05C356.368 181.697 356.141 182.207 355.688 182.58C355.241 182.953 354.631 183.14 353.858 183.14C353.078 183.14 352.464 182.953 352.018 182.58C351.571 182.207 351.348 181.697 351.348 181.05C351.348 180.31 351.668 179.747 352.308 179.36C351.821 179.007 351.578 178.523 351.578 177.91C351.578 177.263 351.794 176.76 352.228 176.4C352.668 176.04 353.211 175.86 353.858 175.86C354.504 175.86 355.044 176.04 355.478 176.4C355.911 176.76 356.128 177.263 356.128 177.91C356.128 178.53 355.884 179.013 355.398 179.36ZM354.508 177.38C354.341 177.233 354.124 177.16 353.858 177.16C353.591 177.16 353.374 177.233 353.208 177.38C353.041 177.527 352.958 177.727 352.958 177.98C352.958 178.233 353.041 178.437 353.208 178.59C353.374 178.737 353.591 178.81 353.858 178.81C354.124 178.81 354.341 178.737 354.508 178.59C354.674 178.437 354.758 178.233 354.758 177.98C354.758 177.727 354.674 177.527 354.508 177.38ZM353.028 181.59C353.241 181.757 353.518 181.84 353.858 181.84C354.198 181.84 354.471 181.757 354.678 181.59C354.891 181.417 354.998 181.177 354.998 180.87C354.998 180.57 354.891 180.337 354.678 180.17C354.471 179.997 354.198 179.91 353.858 179.91C353.518 179.91 353.241 179.997 353.028 180.17C352.821 180.337 352.718 180.57 352.718 180.87C352.718 181.177 352.821 181.417 353.028 181.59ZM359.851 183.14C358.978 183.14 358.291 182.81 357.791 182.15C357.298 181.483 357.051 180.6 357.051 179.5C357.051 178.4 357.298 177.52 357.791 176.86C358.291 176.193 358.978 175.86 359.851 175.86C360.731 175.86 361.418 176.193 361.911 176.86C362.405 177.52 362.651 178.4 362.651 179.5C362.651 180.6 362.405 181.483 361.911 182.15C361.418 182.81 360.731 183.14 359.851 183.14ZM358.791 181.21C359.031 181.597 359.385 181.79 359.851 181.79C360.318 181.79 360.671 181.593 360.911 181.2C361.158 180.807 361.281 180.24 361.281 179.5C361.281 178.753 361.158 178.183 360.911 177.79C360.671 177.397 360.318 177.2 359.851 177.2C359.385 177.2 359.031 177.397 358.791 177.79C358.551 178.183 358.431 178.753 358.431 179.5C358.431 180.247 358.551 180.817 358.791 181.21Z" fill="#1E1E1E"/>
<path d="M322.672 267L320.782 263.7V263.26H321.002C321.356 263.26 321.652 263.227 321.892 263.16C322.139 263.093 322.332 262.983 322.472 262.83C322.612 262.677 322.696 262.467 322.722 262.2H320.782V261.56H322.712C322.666 261.313 322.572 261.113 322.432 260.96C322.292 260.8 322.102 260.683 321.862 260.61C321.629 260.537 321.342 260.5 321.002 260.5H320.782V259.86H324.922V260.5H323.032C323.186 260.627 323.312 260.777 323.412 260.95C323.512 261.123 323.576 261.327 323.602 261.56H324.922V262.2H323.622C323.576 262.687 323.389 263.067 323.062 263.34C322.742 263.607 322.316 263.777 321.782 263.85L323.692 267H322.672ZM329.245 262.84C329.718 262.98 330.102 263.227 330.395 263.58C330.695 263.927 330.845 264.347 330.845 264.84C330.845 265.56 330.602 266.123 330.115 266.53C329.635 266.937 329.045 267.14 328.345 267.14C327.798 267.14 327.308 267.017 326.875 266.77C326.448 266.517 326.138 266.147 325.945 265.66L327.125 264.98C327.298 265.52 327.705 265.79 328.345 265.79C328.698 265.79 328.972 265.707 329.165 265.54C329.365 265.367 329.465 265.133 329.465 264.84C329.465 264.553 329.365 264.323 329.165 264.15C328.972 263.977 328.698 263.89 328.345 263.89H328.045L327.515 263.09L328.895 261.29H326.155V260H330.555V261.14L329.245 262.84ZM333.259 265.62L332.509 268.4H331.459L331.859 265.62H333.259ZM339.412 264.53V265.81H338.662V267H337.272V265.81H333.962V264.53L336.292 260H337.772L335.452 264.53H337.272V262.87H338.662V264.53H339.412ZM342.353 262.55C343.026 262.55 343.593 262.753 344.053 263.16C344.513 263.56 344.743 264.12 344.743 264.84C344.743 265.56 344.499 266.123 344.013 266.53C343.533 266.937 342.943 267.14 342.243 267.14C341.676 267.14 341.176 267.013 340.743 266.76C340.309 266.507 339.996 266.133 339.803 265.64L340.983 264.95C341.156 265.51 341.576 265.79 342.243 265.79C342.596 265.79 342.869 265.707 343.063 265.54C343.263 265.367 343.363 265.133 343.363 264.84C343.363 264.553 343.266 264.323 343.073 264.15C342.879 263.977 342.616 263.89 342.283 263.89H340.163L340.443 260H344.413V261.29H341.723L341.633 262.55H342.353ZM344.966 260H349.486V261.17L347.116 267H345.656L347.956 261.32H344.966V260ZM350.524 265.62L349.774 268.4H348.724L349.124 265.62H350.524ZM355.398 263.36C356.044 263.747 356.368 264.31 356.368 265.05C356.368 265.697 356.141 266.207 355.688 266.58C355.241 266.953 354.631 267.14 353.858 267.14C353.078 267.14 352.464 266.953 352.018 266.58C351.571 266.207 351.348 265.697 351.348 265.05C351.348 264.31 351.668 263.747 352.308 263.36C351.821 263.007 351.578 262.523 351.578 261.91C351.578 261.263 351.794 260.76 352.228 260.4C352.668 260.04 353.211 259.86 353.858 259.86C354.504 259.86 355.044 260.04 355.478 260.4C355.911 260.76 356.128 261.263 356.128 261.91C356.128 262.53 355.884 263.013 355.398 263.36ZM354.508 261.38C354.341 261.233 354.124 261.16 353.858 261.16C353.591 261.16 353.374 261.233 353.208 261.38C353.041 261.527 352.958 261.727 352.958 261.98C352.958 262.233 353.041 262.437 353.208 262.59C353.374 262.737 353.591 262.81 353.858 262.81C354.124 262.81 354.341 262.737 354.508 262.59C354.674 262.437 354.758 262.233 354.758 261.98C354.758 261.727 354.674 261.527 354.508 261.38ZM353.028 265.59C353.241 265.757 353.518 265.84 353.858 265.84C354.198 265.84 354.471 265.757 354.678 265.59C354.891 265.417 354.998 265.177 354.998 264.87C354.998 264.57 354.891 264.337 354.678 264.17C354.471 263.997 354.198 263.91 353.858 263.91C353.518 263.91 353.241 263.997 353.028 264.17C352.821 264.337 352.718 264.57 352.718 264.87C352.718 265.177 352.821 265.417 353.028 265.59ZM359.851 267.14C358.978 267.14 358.291 266.81 357.791 266.15C357.298 265.483 357.051 264.6 357.051 263.5C357.051 262.4 357.298 261.52 357.791 260.86C358.291 260.193 358.978 259.86 359.851 259.86C360.731 259.86 361.418 260.193 361.911 260.86C362.405 261.52 362.651 262.4 362.651 263.5C362.651 264.6 362.405 265.483 361.911 266.15C361.418 266.81 360.731 267.14 359.851 267.14ZM358.791 265.21C359.031 265.597 359.385 265.79 359.851 265.79C360.318 265.79 360.671 265.593 360.911 265.2C361.158 264.807 361.281 264.24 361.281 263.5C361.281 262.753 361.158 262.183 360.911 261.79C360.671 261.397 360.318 261.2 359.851 261.2C359.385 261.2 359.031 261.397 358.791 261.79C358.551 262.183 358.431 262.753 358.431 263.5C358.431 264.247 358.551 264.817 358.791 265.21Z" fill="#1E1E1E"/>
<rect x="29" y="335" width="349.563" height="55.7443" rx="27.8722" fill="#0A0C33"/>
<path d="M193.126 355.092C194.338 355.092 195.358 355.5 196.186 356.316C197.014 357.132 197.428 358.134 197.428 359.322C197.428 360.51 197.014 361.512 196.186 362.328C195.358 363.144 194.338 363.552 193.126 363.552H190.912V367.692H188.428V355.092H193.126ZM193.126 361.23C193.654 361.23 194.092 361.05 194.44 360.69C194.788 360.318 194.962 359.862 194.962 359.322C194.962 358.77 194.788 358.314 194.44 357.954C194.092 357.594 193.654 357.414 193.126 357.414H190.912V361.23H193.126ZM205.179 358.692H207.501V367.692H205.179V366.63C204.483 367.506 203.505 367.944 202.245 367.944C201.045 367.944 200.013 367.488 199.149 366.576C198.297 365.652 197.871 364.524 197.871 363.192C197.871 361.86 198.297 360.738 199.149 359.826C200.013 358.902 201.045 358.44 202.245 358.44C203.505 358.44 204.483 358.878 205.179 359.754V358.692ZM200.895 365.028C201.363 365.496 201.957 365.73 202.677 365.73C203.397 365.73 203.991 365.496 204.459 365.028C204.939 364.548 205.179 363.936 205.179 363.192C205.179 362.448 204.939 361.842 204.459 361.374C203.991 360.894 203.397 360.654 202.677 360.654C201.957 360.654 201.363 360.894 200.895 361.374C200.427 361.842 200.193 362.448 200.193 363.192C200.193 363.936 200.427 364.548 200.895 365.028ZM215.475 358.692H217.959L214.683 367.692C214.215 368.988 213.591 369.924 212.811 370.5C212.043 371.088 211.083 371.352 209.931 371.292V369.132C210.555 369.144 211.047 369.012 211.407 368.736C211.779 368.46 212.073 368.016 212.289 367.404L208.599 358.692H211.137L213.477 364.74L215.475 358.692Z" fill="white"/>
<path fill-rule="evenodd" clip-rule="evenodd" d="M180 63C180 56.6348 182.529 50.5303 187.029 46.0294C191.53 41.5286 197.635 39 204 39C210.365 39 216.47 41.5286 220.971 46.0294C225.471 50.5303 228 56.6348 228 63C228 69.3652 225.471 75.4697 220.971 79.9706C216.47 84.4714 210.365 87 204 87C197.635 87 191.53 84.4714 187.029 79.9706C182.529 75.4697 180 69.3652 180 63ZM202.63 73.272L216.448 55.9984L213.952 54.0016L202.17 68.7248L193.824 61.7712L191.776 64.2288L202.63 73.272Z" fill="#16A34A"/>
<path d="M116.282 115.4C117.446 115.4 118.412 115.79 119.18 116.57C119.96 117.338 120.35 118.298 120.35 119.45C120.35 120.59 119.96 121.55 119.18 122.33C118.412 123.11 117.446 123.5 116.282 123.5H113.384V128H111.71V115.4H116.282ZM116.282 121.934C116.978 121.934 117.554 121.7 118.01 121.232C118.466 120.752 118.694 120.158 118.694 119.45C118.694 118.73 118.466 118.136 118.01 117.668C117.554 117.2 116.978 116.966 116.282 116.966H113.384V121.934H116.282ZM128.932 119H130.498V128H128.932V126.452C128.152 127.64 127.018 128.234 125.53 128.234C124.27 128.234 123.196 127.778 122.308 126.866C121.42 125.942 120.976 124.82 120.976 123.5C120.976 122.18 121.42 121.064 122.308 120.152C123.196 119.228 124.27 118.766 125.53 118.766C127.018 118.766 128.152 119.36 128.932 120.548V119ZM125.728 126.722C126.64 126.722 127.402 126.416 128.014 125.804C128.626 125.18 128.932 124.412 128.932 123.5C128.932 122.588 128.626 121.826 128.014 121.214C127.402 120.59 126.64 120.278 125.728 120.278C124.828 120.278 124.072 120.59 123.46 121.214C122.848 121.826 122.542 122.588 122.542 123.5C122.542 124.412 122.848 125.18 123.46 125.804C124.072 126.416 124.828 126.722 125.728 126.722ZM139.153 119H140.827L137.155 128.558C136.771 129.578 136.231 130.352 135.535 130.88C134.851 131.42 134.059 131.66 133.159 131.6V130.142C134.263 130.226 135.073 129.614 135.589 128.306L135.751 127.964L131.827 119H133.501L136.561 126.056L139.153 119ZM149.379 126.866C148.455 127.778 147.333 128.234 146.013 128.234C144.693 128.234 143.571 127.778 142.647 126.866C141.735 125.954 141.279 124.832 141.279 123.5C141.279 122.168 141.735 121.046 142.647 120.134C143.571 119.222 144.693 118.766 146.013 118.766C147.333 118.766 148.455 119.222 149.379 120.134C150.303 121.046 150.765 122.168 150.765 123.5C150.765 124.832 150.303 125.954 149.379 126.866ZM146.013 126.704C146.913 126.704 147.669 126.398 148.281 125.786C148.893 125.174 149.199 124.412 149.199 123.5C149.199 122.588 148.893 121.826 148.281 121.214C147.669 120.602 146.913 120.296 146.013 120.296C145.125 120.296 144.375 120.602 143.763 121.214C143.151 121.826 142.845 122.588 142.845 123.5C142.845 124.412 143.151 125.174 143.763 125.786C144.375 126.398 145.125 126.704 146.013 126.704ZM158.821 119H160.387V128H158.821V126.704C158.185 127.724 157.213 128.234 155.905 128.234C154.849 128.234 154.003 127.904 153.367 127.244C152.731 126.572 152.413 125.666 152.413 124.526V119H153.979V124.436C153.979 125.168 154.177 125.738 154.573 126.146C154.969 126.542 155.515 126.74 156.211 126.74C156.991 126.74 157.621 126.5 158.101 126.02C158.581 125.528 158.821 124.778 158.821 123.77V119ZM167.667 120.512H165.273V125.39C165.273 125.834 165.357 126.152 165.525 126.344C165.705 126.524 165.975 126.62 166.335 126.632C166.695 126.632 167.139 126.62 167.667 126.596V128C166.299 128.18 165.297 128.072 164.661 127.676C164.025 127.268 163.707 126.506 163.707 125.39V120.512H161.925V119H163.707V116.948L165.273 116.48V119H167.667V120.512ZM178.556 118.766C179.612 118.766 180.458 119.102 181.094 119.774C181.73 120.434 182.048 121.334 182.048 122.474V128H180.482V122.564C180.482 121.832 180.284 121.268 179.888 120.872C179.492 120.464 178.946 120.26 178.25 120.26C177.47 120.26 176.84 120.506 176.36 120.998C175.88 121.478 175.64 122.222 175.64 123.23V128H174.074V115.4H175.64V120.296C176.276 119.276 177.248 118.766 178.556 118.766ZM191.686 119H193.252V128H191.686V126.452C190.906 127.64 189.772 128.234 188.284 128.234C187.024 128.234 185.95 127.778 185.062 126.866C184.174 125.942 183.73 124.82 183.73 123.5C183.73 122.18 184.174 121.064 185.062 120.152C185.95 119.228 187.024 118.766 188.284 118.766C189.772 118.766 190.906 119.36 191.686 120.548V119ZM188.482 126.722C189.394 126.722 190.156 126.416 190.768 125.804C191.38 125.18 191.686 124.412 191.686 123.5C191.686 122.588 191.38 121.826 190.768 121.214C190.156 120.59 189.394 120.278 188.482 120.278C187.582 120.278 186.826 120.59 186.214 121.214C185.602 121.826 185.296 122.588 185.296 123.5C185.296 124.412 185.602 125.18 186.214 125.804C186.826 126.416 187.582 126.722 188.482 126.722ZM196.957 121.43C196.957 121.778 197.131 122.06 197.479 122.276C197.827 122.48 198.247 122.648 198.739 122.78C199.231 122.9 199.723 123.044 200.215 123.212C200.707 123.368 201.127 123.644 201.475 124.04C201.823 124.424 201.997 124.922 201.997 125.534C201.997 126.35 201.679 127.004 201.043 127.496C200.419 127.988 199.615 128.234 198.631 128.234C197.755 128.234 197.005 128.042 196.381 127.658C195.757 127.274 195.313 126.764 195.049 126.128L196.399 125.354C196.543 125.786 196.813 126.128 197.209 126.38C197.605 126.632 198.079 126.758 198.631 126.758C199.147 126.758 199.573 126.662 199.909 126.47C200.245 126.266 200.413 125.954 200.413 125.534C200.413 125.186 200.239 124.91 199.891 124.706C199.543 124.49 199.123 124.322 198.631 124.202C198.139 124.07 197.647 123.92 197.155 123.752C196.663 123.584 196.243 123.308 195.895 122.924C195.547 122.54 195.373 122.048 195.373 121.448C195.373 120.668 195.673 120.026 196.273 119.522C196.885 119.018 197.647 118.766 198.559 118.766C199.291 118.766 199.939 118.934 200.503 119.27C201.079 119.594 201.511 120.05 201.799 120.638L200.485 121.376C200.161 120.608 199.519 120.224 198.559 120.224C198.115 120.224 197.737 120.332 197.425 120.548C197.113 120.752 196.957 121.046 196.957 121.43ZM213.319 118.766C214.579 118.766 215.653 119.228 216.541 120.152C217.429 121.064 217.873 122.18 217.873 123.5C217.873 124.82 217.429 125.942 216.541 126.866C215.653 127.778 214.579 128.234 213.319 128.234C211.831 128.234 210.697 127.64 209.917 126.452V128H208.351V115.4H209.917V120.548C210.697 119.36 211.831 118.766 213.319 118.766ZM213.121 126.722C214.021 126.722 214.777 126.416 215.389 125.804C216.001 125.18 216.307 124.412 216.307 123.5C216.307 122.588 216.001 121.826 215.389 121.214C214.777 120.59 214.021 120.278 213.121 120.278C212.209 120.278 211.447 120.59 210.835 121.214C210.223 121.826 209.917 122.588 209.917 123.5C209.917 124.412 210.223 125.18 210.835 125.804C211.447 126.416 212.209 126.722 213.121 126.722ZM220.84 124.22C220.996 125.024 221.362 125.648 221.938 126.092C222.526 126.536 223.246 126.758 224.098 126.758C225.286 126.758 226.15 126.32 226.69 125.444L228.022 126.2C227.146 127.556 225.826 128.234 224.062 128.234C222.634 128.234 221.47 127.79 220.57 126.902C219.682 126.002 219.238 124.868 219.238 123.5C219.238 122.144 219.676 121.016 220.552 120.116C221.428 119.216 222.562 118.766 223.954 118.766C225.274 118.766 226.348 119.234 227.176 120.17C228.016 121.094 228.436 122.21 228.436 123.518C228.436 123.746 228.418 123.98 228.382 124.22H220.84ZM223.954 120.242C223.114 120.242 222.418 120.482 221.866 120.962C221.314 121.43 220.972 122.06 220.84 122.852H226.852C226.72 122 226.384 121.352 225.844 120.908C225.304 120.464 224.674 120.242 223.954 120.242ZM231.316 124.22C231.472 125.024 231.838 125.648 232.414 126.092C233.002 126.536 233.722 126.758 234.574 126.758C235.762 126.758 236.626 126.32 237.166 125.444L238.498 126.2C237.622 127.556 236.302 128.234 234.538 128.234C233.11 128.234 231.946 127.79 231.046 126.902C230.158 126.002 229.714 124.868 229.714 123.5C229.714 122.144 230.152 121.016 231.028 120.116C231.904 119.216 233.038 118.766 234.43 118.766C235.75 118.766 236.824 119.234 237.652 120.17C238.492 121.094 238.912 122.21 238.912 123.518C238.912 123.746 238.894 123.98 238.858 124.22H231.316ZM234.43 120.242C233.59 120.242 232.894 120.482 232.342 120.962C231.79 121.43 231.448 122.06 231.316 122.852H237.328C237.196 122 236.86 121.352 236.32 120.908C235.78 120.464 235.15 120.242 234.43 120.242ZM245.194 118.766C246.25 118.766 247.096 119.102 247.732 119.774C248.368 120.434 248.686 121.334 248.686 122.474V128H247.12V122.564C247.12 121.832 246.922 121.268 246.526 120.872C246.13 120.464 245.584 120.26 244.888 120.26C244.108 120.26 243.478 120.506 242.998 120.998C242.518 121.478 242.278 122.222 242.278 123.23V128H240.712V119H242.278V120.296C242.914 119.276 243.886 118.766 245.194 118.766ZM256.723 121.43C256.723 121.778 256.897 122.06 257.245 122.276C257.593 122.48 258.013 122.648 258.505 122.78C258.997 122.9 259.489 123.044 259.981 123.212C260.473 123.368 260.893 123.644 261.241 124.04C261.589 124.424 261.763 124.922 261.763 125.534C261.763 126.35 261.445 127.004 260.809 127.496C260.185 127.988 259.381 128.234 258.397 128.234C257.521 128.234 256.771 128.042 256.147 127.658C255.523 127.274 255.079 126.764 254.815 126.128L256.165 125.354C256.309 125.786 256.579 126.128 256.975 126.38C257.371 126.632 257.845 126.758 258.397 126.758C258.913 126.758 259.339 126.662 259.675 126.47C260.011 126.266 260.179 125.954 260.179 125.534C260.179 125.186 260.005 124.91 259.657 124.706C259.309 124.49 258.889 124.322 258.397 124.202C257.905 124.07 257.413 123.92 256.921 123.752C256.429 123.584 256.009 123.308 255.661 122.924C255.313 122.54 255.139 122.048 255.139 121.448C255.139 120.668 255.439 120.026 256.039 119.522C256.651 119.018 257.413 118.766 258.325 118.766C259.057 118.766 259.705 118.934 260.269 119.27C260.845 119.594 261.277 120.05 261.565 120.638L260.251 121.376C259.927 120.608 259.285 120.224 258.325 120.224C257.881 120.224 257.503 120.332 257.191 120.548C256.879 120.752 256.723 121.046 256.723 121.43ZM264.469 124.22C264.625 125.024 264.991 125.648 265.567 126.092C266.155 126.536 266.875 126.758 267.727 126.758C268.915 126.758 269.779 126.32 270.319 125.444L271.651 126.2C270.775 127.556 269.455 128.234 267.691 128.234C266.263 128.234 265.099 127.79 264.199 126.902C263.311 126.002 262.867 124.868 262.867 123.5C262.867 122.144 263.305 121.016 264.181 120.116C265.057 119.216 266.191 118.766 267.583 118.766C268.903 118.766 269.977 119.234 270.805 120.17C271.645 121.094 272.065 122.21 272.065 123.518C272.065 123.746 272.047 123.98 272.011 124.22H264.469ZM267.583 120.242C266.743 120.242 266.047 120.482 265.495 120.962C264.943 121.43 264.601 122.06 264.469 122.852H270.481C270.349 122 270.013 121.352 269.473 120.908C268.933 120.464 268.303 120.242 267.583 120.242ZM278.347 118.766C279.403 118.766 280.249 119.102 280.885 119.774C281.521 120.434 281.839 121.334 281.839 122.474V128H280.273V122.564C280.273 121.832 280.075 121.268 279.679 120.872C279.283 120.464 278.737 120.26 278.041 120.26C277.261 120.26 276.631 120.506 276.151 120.998C275.671 121.478 275.431 122.222 275.431 123.23V128H273.865V119H275.431V120.296C276.067 119.276 277.039 118.766 278.347 118.766ZM288.921 120.512H286.527V125.39C286.527 125.834 286.611 126.152 286.779 126.344C286.959 126.524 287.229 126.62 287.589 126.632C287.949 126.632 288.393 126.62 288.921 126.596V128C287.553 128.18 286.551 128.072 285.915 127.676C285.279 127.268 284.961 126.506 284.961 125.39V120.512H283.179V119H284.961V116.948L286.527 116.48V119H288.921V120.512Z" fill="#16A34A"/>
<defs>
<filter id="filter0_d_1088_1159" x="1" y="141" width="406" height="107" filterUnits="userSpaceOnUse" color-interpolation-filters="sRGB">
<feFlood flood-opacity="0" result="BackgroundImageFix"/>
<feColorMatrix in="SourceAlpha" type="matrix" values="0 0 0 0 0 0 0 0 0 0 0 0 0 0 0 0 0 0 127 0" result="hardAlpha"/>
<feOffset dy="4"/>
<feGaussianBlur stdDeviation="10"/>
<feComposite in2="hardAlpha" operator="out"/>
<feColorMatrix type="matrix" values="0 0 0 0 0.0392157 0 0 0 0 0.0470588 0 0 0 0 0.2 0 0 0 0.03 0"/>
<feBlend mode="normal" in2="BackgroundImageFix" result="effect1_dropShadow_1088_1159"/>
<feBlend mode="normal" in="SourceGraphic" in2="effect1_dropShadow_1088_1159" result="shape"/>
</filter>
<filter id="filter1_d_1088_1159" x="1" y="223" width="406" height="107" filterUnits="userSpaceOnUse" color-interpolation-filters="sRGB">
<feFlood flood-opacity="0" result="BackgroundImageFix"/>
<feColorMatrix in="SourceAlpha" type="matrix" values="0 0 0 0 0 0 0 0 0 0 0 0 0 0 0 0 0 0 127 0" result="hardAlpha"/>
<feOffset dy="4"/>
<feGaussianBlur stdDeviation="10"/>
<feComposite in2="hardAlpha" operator="out"/>
<feColorMatrix type="matrix" values="0 0 0 0 0.0392157 0 0 0 0 0.0470588 0 0 0 0 0.2 0 0 0 0.03 0"/>
<feBlend mode="normal" in2="BackgroundImageFix" result="effect1_dropShadow_1088_1159"/>
<feBlend mode="normal" in="SourceGraphic" in2="effect1_dropShadow_1088_1159" result="shape"/>
</filter>
</defs>
</svg>
