<svg width="44" height="48" viewBox="0 0 44 48" fill="none" xmlns="http://www.w3.org/2000/svg">
<path d="M28.25 16.1875V0.5625H0.125V47.4375H12.625V38.0625H15.75V47.4375H43.875V16.1875H28.25ZM7.9375 41.1875H4.8125V38.0625H7.9375V41.1875ZM7.9375 33.375H4.8125V30.25H7.9375V33.375ZM7.9375 25.5625H4.8125V22.4375H7.9375V25.5625ZM7.9375 17.75H4.8125V14.625H7.9375V17.75ZM7.9375 9.9375H4.8125V6.8125H7.9375V9.9375ZM20.4375 6.8125H23.5625V9.9375H20.4375V6.8125ZM15.75 33.375H12.625V30.25H15.75V33.375ZM15.75 25.5625H12.625V22.4375H15.75V25.5625ZM15.75 17.75H12.625V14.625H15.75V17.75ZM15.75 9.9375H12.625V6.8125H15.75V9.9375ZM23.5625 41.1875H20.4375V38.0625H23.5625V41.1875ZM23.5625 33.375H20.4375V30.25H23.5625V33.375ZM23.5625 25.5625H20.4375V22.4375H23.5625V25.5625ZM23.5625 17.75H20.4375V14.625H23.5625V17.75ZM40.75 44.3125H28.25V41.1875H31.375V38.0625H28.25V33.375H31.375V30.25H28.25V25.5625H31.375V22.4375H28.25V19.3125H40.75V44.3125Z" fill="#A5EB14"/>
</svg>
