<svg width="492" height="342" viewBox="0 0 492 342" fill="none" xmlns="http://www.w3.org/2000/svg">
<path d="M52.5 226V109C52.5 97.9543 61.4543 89 72.5 89H357C368.046 89 377 97.9543 377 109V163" stroke="black" stroke-dasharray="5 5"/>
<rect y="195" width="208" height="146.25" rx="20" fill="white"/>
<rect x="0.5" y="195.5" width="207" height="145.25" rx="19.5" stroke="#0A0C33" stroke-opacity="0.1"/>
<path fill-rule="evenodd" clip-rule="evenodd" d="M67.4375 242.125C67.0065 242.125 66.5932 242.296 66.2885 242.601C65.9837 242.906 65.8125 243.319 65.8125 243.75V255.125C65.8125 255.556 65.9837 255.969 66.2885 256.274C66.5932 256.579 67.0065 256.75 67.4375 256.75H78.8125C79.2435 256.75 79.6568 256.579 79.9615 256.274C80.2663 255.969 80.4375 255.556 80.4375 255.125V243.75C80.4375 243.319 80.2663 242.906 79.9615 242.601C79.6568 242.296 79.2435 242.125 78.8125 242.125H67.4375ZM77.1469 247.647C77.2993 247.494 77.385 247.288 77.3851 247.072C77.3852 246.857 77.2996 246.65 77.1473 246.497C76.9949 246.345 76.7883 246.259 76.5727 246.259C76.3572 246.259 76.1505 246.345 75.998 246.497L71.9761 250.519L70.2528 248.796C70.1774 248.72 70.0878 248.66 69.9892 248.619C69.8906 248.578 69.785 248.557 69.6783 248.557C69.4627 248.557 69.256 248.643 69.1035 248.795C68.9511 248.948 68.8654 249.154 68.8653 249.37C68.8652 249.585 68.9508 249.792 69.1031 249.944L71.344 252.185C71.427 252.268 71.5255 252.334 71.634 252.379C71.7425 252.424 71.8587 252.447 71.9761 252.447C72.0935 252.447 72.2098 252.424 72.3182 252.379C72.4267 252.334 72.5253 252.268 72.6083 252.185L77.1469 247.647Z" fill="#ECECEC"/>
<rect x="99.2305" y="246.371" width="73.9375" height="7.3125" rx="3.65625" fill="#ECECEC"/>
<rect x="13.8125" y="210.438" width="73.9375" height="7.3125" rx="3.65625" fill="#ECECEC"/>
<path fill-rule="evenodd" clip-rule="evenodd" d="M67.4375 273.812C67.0065 273.812 66.5932 273.984 66.2885 274.288C65.9837 274.593 65.8125 275.007 65.8125 275.437V286.812C65.8125 287.243 65.9837 287.657 66.2885 287.962C66.5932 288.266 67.0065 288.437 67.4375 288.437H78.8125C79.2435 288.437 79.6568 288.266 79.9616 287.962C80.2663 287.657 80.4375 287.243 80.4375 286.812V275.437C80.4375 275.007 80.2663 274.593 79.9616 274.288C79.6568 273.984 79.2435 273.812 78.8125 273.812H67.4375ZM77.1469 279.334C77.2994 279.182 77.3851 278.975 77.3851 278.76C77.3852 278.544 77.2997 278.337 77.1473 278.185C76.995 278.032 76.7883 277.947 76.5728 277.947C76.3572 277.947 76.1505 278.032 75.998 278.185L71.9761 282.206L70.2528 280.483C70.1774 280.408 70.0878 280.348 69.9892 280.307C69.8907 280.266 69.785 280.245 69.6783 280.245C69.4627 280.245 69.256 280.33 69.1035 280.483C68.9511 280.635 68.8654 280.842 68.8653 281.057C68.8652 281.273 68.9508 281.48 69.1031 281.632L71.344 283.873C71.427 283.956 71.5256 284.022 71.634 284.067C71.7425 284.112 71.8587 284.135 71.9761 284.135C72.0935 284.135 72.2098 284.112 72.3183 284.067C72.4267 284.022 72.5253 283.956 72.6083 283.873L77.1469 279.334Z" fill="#ECECEC"/>
<rect x="99.2285" y="278.059" width="95.0628" height="7.31248" rx="3.65624" fill="#ECECEC"/>
<rect x="141.375" y="308.75" width="52.8125" height="17.875" rx="5" fill="#DBFFE9"/>
<path d="M150.461 320.688L148.571 317.387V316.947H148.791C149.145 316.947 149.441 316.914 149.681 316.847C149.928 316.781 150.121 316.671 150.261 316.517C150.401 316.364 150.485 316.154 150.511 315.887H148.571V315.247H150.501C150.455 315.001 150.361 314.801 150.221 314.647C150.081 314.487 149.891 314.371 149.651 314.297C149.418 314.224 149.131 314.187 148.791 314.187H148.571V313.547H152.711V314.187H150.821C150.975 314.314 151.101 314.464 151.201 314.637C151.301 314.811 151.365 315.014 151.391 315.247H152.711V315.887H151.411C151.365 316.374 151.178 316.754 150.851 317.027C150.531 317.294 150.105 317.464 149.571 317.537L151.481 320.688H150.461ZM156.664 316.557C157.197 316.657 157.634 316.887 157.974 317.247C158.314 317.607 158.484 318.064 158.484 318.617C158.484 319.297 158.251 319.834 157.784 320.227C157.317 320.621 156.751 320.818 156.084 320.818C155.551 320.818 155.077 320.697 154.664 320.457C154.251 320.211 153.957 319.857 153.784 319.397L154.564 318.937C154.771 319.584 155.277 319.907 156.084 319.907C156.517 319.907 156.871 319.794 157.144 319.567C157.417 319.341 157.554 319.024 157.554 318.617C157.554 318.211 157.417 317.894 157.144 317.667C156.871 317.434 156.517 317.317 156.084 317.317H155.844L155.474 316.747L157.094 314.557H153.984V313.687H158.184V314.507L156.664 316.557ZM160.62 319.657L159.97 322.088H159.22L159.62 319.657H160.62ZM166.779 318.487V319.357H165.929V320.688H164.999V319.357H161.429V318.487L163.939 313.687H164.939L162.429 318.487H164.999V316.507H165.929V318.487H166.779ZM169.69 316.417C170.35 316.417 170.907 316.614 171.36 317.007C171.82 317.394 172.05 317.931 172.05 318.617C172.05 319.297 171.817 319.834 171.35 320.227C170.884 320.621 170.317 320.818 169.65 320.818C169.117 320.818 168.64 320.691 168.22 320.437C167.8 320.177 167.507 319.804 167.34 319.317L168.13 318.867C168.224 319.207 168.404 319.467 168.67 319.647C168.937 319.821 169.264 319.907 169.65 319.907C170.09 319.907 170.447 319.794 170.72 319.567C170.994 319.341 171.13 319.024 171.13 318.617C171.13 318.211 170.994 317.894 170.72 317.667C170.447 317.434 170.097 317.317 169.67 317.317H167.69L167.95 313.687H171.78V314.557H168.79L168.67 316.417H169.69ZM172.405 313.687H176.775V314.517L174.225 320.688H173.255L175.785 314.567H172.405V313.687ZM177.583 319.657L176.933 322.088H176.183L176.583 319.657H177.583ZM182.232 317.067C182.572 317.241 182.839 317.474 183.032 317.767C183.226 318.061 183.322 318.394 183.322 318.767C183.322 319.407 183.099 319.911 182.652 320.277C182.206 320.637 181.629 320.818 180.922 320.818C180.222 320.818 179.649 320.637 179.202 320.277C178.756 319.911 178.532 319.407 178.532 318.767C178.532 318.394 178.629 318.061 178.822 317.767C179.016 317.474 179.282 317.241 179.622 317.067C179.049 316.707 178.762 316.197 178.762 315.537C178.762 314.904 178.972 314.417 179.392 314.077C179.819 313.731 180.329 313.557 180.922 313.557C181.522 313.557 182.032 313.731 182.452 314.077C182.879 314.417 183.092 314.904 183.092 315.537C183.092 316.197 182.806 316.707 182.232 317.067ZM180.922 314.447C180.569 314.447 180.272 314.541 180.032 314.727C179.799 314.914 179.682 315.191 179.682 315.557C179.682 315.911 179.802 316.187 180.042 316.387C180.282 316.581 180.576 316.677 180.922 316.677C181.269 316.677 181.562 316.581 181.802 316.387C182.042 316.187 182.162 315.911 182.162 315.557C182.162 315.191 182.046 314.914 181.812 314.727C181.579 314.541 181.282 314.447 180.922 314.447ZM180.922 319.927C181.369 319.927 181.726 319.824 181.992 319.617C182.266 319.404 182.402 319.101 182.402 318.707C182.402 318.321 182.266 318.024 181.992 317.817C181.726 317.604 181.369 317.497 180.922 317.497C180.482 317.497 180.126 317.604 179.852 317.817C179.586 318.024 179.452 318.321 179.452 318.707C179.452 319.101 179.586 319.404 179.852 319.617C180.126 319.824 180.482 319.927 180.922 319.927ZM188.839 319.827C188.366 320.487 187.703 320.818 186.849 320.818C185.996 320.818 185.333 320.487 184.859 319.827C184.386 319.167 184.149 318.287 184.149 317.187C184.149 316.087 184.386 315.207 184.859 314.547C185.333 313.887 185.996 313.557 186.849 313.557C187.703 313.557 188.366 313.887 188.839 314.547C189.313 315.207 189.549 316.087 189.549 317.187C189.549 318.287 189.313 319.167 188.839 319.827ZM185.539 319.197C185.846 319.671 186.283 319.907 186.849 319.907C187.416 319.907 187.853 319.671 188.159 319.197C188.473 318.724 188.629 318.054 188.629 317.187C188.629 316.321 188.473 315.651 188.159 315.178C187.853 314.697 187.416 314.457 186.849 314.457C186.283 314.457 185.846 314.694 185.539 315.167C185.233 315.641 185.079 316.314 185.079 317.187C185.079 318.054 185.233 318.724 185.539 319.197Z" fill="#16A34A"/>
<circle cx="31.2812" cy="267.719" r="19.9062" fill="#ECECEC"/>
<line x1="13.8125" y1="226.188" x2="198.25" y2="226.188" stroke="#ECECEC"/>
<rect x="31" width="180.622" height="127" rx="20" fill="white"/>
<rect x="31.5" y="0.5" width="179.622" height="126" rx="19.5" stroke="#0A0C33" stroke-opacity="0.1"/>
<path fill-rule="evenodd" clip-rule="evenodd" d="M89.5615 40.9224C89.1873 40.9224 88.8283 41.071 88.5637 41.3357C88.2991 41.6003 88.1504 41.9592 88.1504 42.3335V52.2113C88.1504 52.5855 88.2991 52.9444 88.5637 53.2091C88.8283 53.4737 89.1873 53.6224 89.5615 53.6224H99.4393C99.8135 53.6224 100.172 53.4737 100.437 53.2091C100.702 52.9444 100.85 52.5855 100.85 52.2113V42.3335C100.85 41.9592 100.702 41.6003 100.437 41.3357C100.172 41.071 99.8135 40.9224 99.4393 40.9224H89.5615ZM97.9929 45.7173C98.1253 45.585 98.1997 45.4056 98.1998 45.2184C98.1998 45.0312 98.1255 44.8517 97.9932 44.7193C97.8609 44.5869 97.6815 44.5125 97.4943 44.5124C97.3071 44.5124 97.1276 44.5867 96.9952 44.719L93.5027 48.2115L92.0063 46.715C91.9407 46.6494 91.863 46.5974 91.7774 46.5619C91.6918 46.5264 91.6 46.5081 91.5073 46.5081C91.3202 46.508 91.1406 46.5823 91.0082 46.7146C90.8759 46.8469 90.8014 47.0264 90.8014 47.2136C90.8013 47.4007 90.8756 47.5802 91.0079 47.7126L92.9538 49.6586C93.0259 49.7307 93.1115 49.7879 93.2056 49.8269C93.2998 49.8659 93.4008 49.886 93.5027 49.886C93.6047 49.886 93.7056 49.8659 93.7998 49.8269C93.894 49.7879 93.9796 49.7307 94.0517 49.6586L97.9929 45.7173Z" fill="#ECECEC"/>
<rect x="117.168" y="44.6094" width="64.2056" height="6.35" rx="3.175" fill="#ECECEC"/>
<rect x="42.9941" y="13.4058" width="64.2056" height="6.35" rx="3.175" fill="#ECECEC"/>
<path fill-rule="evenodd" clip-rule="evenodd" d="M89.5596 68.439C89.1853 68.439 88.8264 68.5876 88.5617 68.8523C88.2971 69.1169 88.1484 69.4758 88.1484 69.8501V79.7278C88.1484 80.102 88.2971 80.4609 88.5617 80.7256C88.8264 80.9902 89.1853 81.1389 89.5596 81.1389H99.4374C99.8117 81.1389 100.171 80.9902 100.435 80.7256C100.7 80.4609 100.849 80.102 100.849 79.7278V69.8501C100.849 69.4758 100.7 69.1169 100.435 68.8523C100.171 68.5876 99.8117 68.439 99.4374 68.439H89.5596ZM97.991 73.2339C98.1234 73.1016 98.1978 72.9221 98.1979 72.735C98.198 72.5478 98.1237 72.3683 97.9914 72.2359C97.8591 72.1035 97.6796 72.0291 97.4924 72.029C97.3053 72.0289 97.1257 72.1032 96.9934 72.2355L93.5008 75.728L92.0043 74.2315C91.9388 74.166 91.861 74.114 91.7754 74.0785C91.6898 74.043 91.5981 74.0247 91.5054 74.0247C91.3182 74.0246 91.1387 74.0989 91.0063 74.2312C90.8739 74.3635 90.7995 74.5429 90.7994 74.7301C90.7994 74.9173 90.8737 75.0968 91.006 75.2292L92.9519 77.1751C93.024 77.2472 93.1095 77.3044 93.2037 77.3434C93.2979 77.3824 93.3989 77.4025 93.5008 77.4025C93.6028 77.4025 93.7037 77.3824 93.7979 77.3434C93.8921 77.3044 93.9777 77.2472 94.0498 77.1751L97.991 73.2339Z" fill="#ECECEC"/>
<rect x="117.168" y="72.1265" width="82.5507" height="6.34995" rx="3.17497" fill="#ECECEC"/>
<rect x="153.766" y="98.7778" width="45.8611" height="15.5222" rx="5" fill="#DBFFE9"/>
<path d="M162.839 108.539L161.327 105.899V105.547H161.503C161.786 105.547 162.023 105.52 162.215 105.467C162.413 105.414 162.567 105.326 162.679 105.203C162.791 105.08 162.858 104.912 162.879 104.699H161.327V104.187H162.871C162.834 103.99 162.759 103.83 162.647 103.707C162.535 103.579 162.383 103.486 162.191 103.427C162.005 103.368 161.775 103.339 161.503 103.339H161.327V102.827H164.639V103.339H163.127C163.25 103.44 163.351 103.56 163.431 103.699C163.511 103.838 163.562 104 163.583 104.187H164.639V104.699H163.599C163.562 105.088 163.413 105.392 163.151 105.611C162.895 105.824 162.554 105.96 162.127 106.019L163.655 108.539H162.839ZM167.801 105.235C168.228 105.315 168.577 105.499 168.849 105.787C169.121 106.075 169.257 106.44 169.257 106.883C169.257 107.427 169.071 107.856 168.697 108.171C168.324 108.486 167.871 108.643 167.337 108.643C166.911 108.643 166.532 108.547 166.201 108.355C165.871 108.158 165.636 107.875 165.497 107.507L166.121 107.139C166.287 107.656 166.692 107.915 167.337 107.915C167.684 107.915 167.967 107.824 168.185 107.643C168.404 107.462 168.513 107.208 168.513 106.883C168.513 106.558 168.404 106.304 168.185 106.123C167.967 105.936 167.684 105.843 167.337 105.843H167.145L166.849 105.387L168.145 103.635H165.657V102.939H169.017V103.595L167.801 105.235ZM170.966 107.715L170.446 109.659H169.846L170.166 107.715H170.966ZM175.894 106.779V107.475H175.214V108.539H174.47V107.475H171.614V106.779L173.622 102.939H174.422L172.414 106.779H174.47V105.195H175.214V106.779H175.894ZM178.223 105.123C178.751 105.123 179.196 105.28 179.559 105.595C179.927 105.904 180.111 106.334 180.111 106.883C180.111 107.427 179.924 107.856 179.551 108.171C179.177 108.486 178.724 108.643 178.191 108.643C177.764 108.643 177.383 108.542 177.047 108.339C176.711 108.131 176.476 107.832 176.343 107.443L176.975 107.083C177.049 107.355 177.193 107.563 177.407 107.707C177.62 107.846 177.881 107.915 178.191 107.915C178.543 107.915 178.828 107.824 179.047 107.643C179.265 107.462 179.375 107.208 179.375 106.883C179.375 106.558 179.265 106.304 179.047 106.123C178.828 105.936 178.548 105.843 178.207 105.843H176.623L176.831 102.939H179.895V103.635H177.503L177.407 105.123H178.223ZM180.394 102.939H183.89V103.603L181.85 108.539H181.074L183.098 103.643H180.394V102.939ZM184.537 107.715L184.017 109.659H183.417L183.737 107.715H184.537ZM188.256 105.643C188.528 105.782 188.742 105.968 188.896 106.203C189.051 106.438 189.128 106.704 189.128 107.003C189.128 107.515 188.95 107.918 188.592 108.211C188.235 108.499 187.774 108.643 187.208 108.643C186.648 108.643 186.19 108.499 185.832 108.211C185.475 107.918 185.296 107.515 185.296 107.003C185.296 106.704 185.374 106.438 185.528 106.203C185.683 105.968 185.896 105.782 186.168 105.643C185.71 105.355 185.48 104.947 185.48 104.419C185.48 103.912 185.648 103.523 185.984 103.251C186.326 102.974 186.734 102.835 187.208 102.835C187.688 102.835 188.096 102.974 188.432 103.251C188.774 103.523 188.944 103.912 188.944 104.419C188.944 104.947 188.715 105.355 188.256 105.643ZM187.208 103.547C186.926 103.547 186.688 103.622 186.496 103.771C186.31 103.92 186.216 104.142 186.216 104.435C186.216 104.718 186.312 104.939 186.504 105.099C186.696 105.254 186.931 105.331 187.208 105.331C187.486 105.331 187.72 105.254 187.912 105.099C188.104 104.939 188.2 104.718 188.2 104.435C188.2 104.142 188.107 103.92 187.92 103.771C187.734 103.622 187.496 103.547 187.208 103.547ZM187.208 107.931C187.566 107.931 187.851 107.848 188.064 107.683C188.283 107.512 188.392 107.27 188.392 106.955C188.392 106.646 188.283 106.408 188.064 106.243C187.851 106.072 187.566 105.987 187.208 105.987C186.856 105.987 186.571 106.072 186.352 106.243C186.139 106.408 186.032 106.646 186.032 106.955C186.032 107.27 186.139 107.512 186.352 107.683C186.571 107.848 186.856 107.931 187.208 107.931ZM193.542 107.851C193.163 108.379 192.632 108.643 191.95 108.643C191.267 108.643 190.736 108.379 190.358 107.851C189.979 107.323 189.79 106.619 189.79 105.739C189.79 104.859 189.979 104.155 190.358 103.627C190.736 103.099 191.267 102.835 191.95 102.835C192.632 102.835 193.163 103.099 193.542 103.627C193.92 104.155 194.11 104.859 194.11 105.739C194.11 106.619 193.92 107.323 193.542 107.851ZM190.902 107.347C191.147 107.726 191.496 107.915 191.95 107.915C192.403 107.915 192.752 107.726 192.998 107.347C193.248 106.968 193.374 106.432 193.374 105.739C193.374 105.046 193.248 104.51 192.998 104.131C192.752 103.747 192.403 103.555 191.95 103.555C191.496 103.555 191.147 103.744 190.902 104.123C190.656 104.502 190.534 105.04 190.534 105.739C190.534 106.432 190.656 106.968 190.902 107.347Z" fill="#16A34A"/>
<circle cx="58.1631" cy="63.1474" r="17.2861" fill="#ECECEC"/>
<line x1="42.9941" y1="27.0166" x2="203.155" y2="27.0166" stroke="#ECECEC"/>
<rect x="236" y="127" width="256" height="180" rx="20" fill="white"/>
<rect x="236.5" y="127.5" width="255" height="179" rx="19.5" stroke="#0A0C33" stroke-opacity="0.1"/>
<rect x="287" y="190" width="88" height="9" rx="4.5" fill="#ECECEC"/>
<rect x="287" y="223" width="88" height="9" rx="4.5" fill="#ECECEC"/>
<rect x="287" y="256" width="88" height="9" rx="4.5" fill="#ECECEC"/>
<rect x="382" y="190" width="90" height="9" rx="4.5" fill="#ECECEC"/>
<rect x="382" y="223" width="90" height="9" rx="4.5" fill="#ECECEC"/>
<rect x="382" y="256" width="90" height="9" rx="4.5" fill="#ECECEC"/>
<circle cx="264" cy="195" r="11" fill="#ECECEC"/>
<circle cx="264" cy="228" r="11" fill="#ECECEC"/>
<circle cx="264" cy="261" r="11" fill="#ECECEC"/>
<line x1="253" y1="165.5" x2="480" y2="165.5" stroke="#ECECEC"/>
<path d="M256.29 145C256.937 145 257.473 145.217 257.9 145.65C258.333 146.077 258.55 146.61 258.55 147.25C258.55 147.883 258.333 148.417 257.9 148.85C257.473 149.283 256.937 149.5 256.29 149.5H254.68V152H253.75V145H256.29ZM256.29 148.63C256.677 148.63 256.997 148.5 257.25 148.24C257.503 147.973 257.63 147.643 257.63 147.25C257.63 146.85 257.503 146.52 257.25 146.26C256.997 146 256.677 145.87 256.29 145.87H254.68V148.63H256.29ZM263.318 147H264.188V152H263.318V151.14C262.884 151.8 262.254 152.13 261.428 152.13C260.728 152.13 260.131 151.877 259.638 151.37C259.144 150.857 258.898 150.233 258.898 149.5C258.898 148.767 259.144 148.147 259.638 147.64C260.131 147.127 260.728 146.87 261.428 146.87C262.254 146.87 262.884 147.2 263.318 147.86V147ZM261.538 151.29C262.044 151.29 262.468 151.12 262.808 150.78C263.148 150.433 263.318 150.007 263.318 149.5C263.318 148.993 263.148 148.57 262.808 148.23C262.468 147.883 262.044 147.71 261.538 147.71C261.038 147.71 260.618 147.883 260.278 148.23C259.938 148.57 259.768 148.993 259.768 149.5C259.768 150.007 259.938 150.433 260.278 150.78C260.618 151.12 261.038 151.29 261.538 151.29ZM268.996 147H269.926L267.886 152.31C267.672 152.877 267.372 153.307 266.986 153.6C266.606 153.9 266.166 154.033 265.666 154V153.19C266.279 153.237 266.729 152.897 267.016 152.17L267.106 151.98L264.926 147H265.856L267.556 150.92L268.996 147ZM276.052 146.87C276.612 146.87 277.066 147.053 277.412 147.42C277.759 147.78 277.932 148.27 277.932 148.89V152H277.062V148.92C277.062 148.533 276.962 148.233 276.762 148.02C276.562 147.807 276.296 147.7 275.962 147.7C275.589 147.7 275.289 147.827 275.062 148.08C274.842 148.327 274.732 148.707 274.732 149.22V152H273.862V148.92C273.862 148.533 273.766 148.233 273.572 148.02C273.386 147.807 273.129 147.7 272.802 147.7C272.436 147.7 272.129 147.827 271.882 148.08C271.642 148.333 271.522 148.713 271.522 149.22V152H270.652V147H271.522V147.67C271.862 147.137 272.359 146.87 273.012 146.87C273.686 146.87 274.176 147.153 274.482 147.72C274.829 147.153 275.352 146.87 276.052 146.87ZM279.749 149.9C279.835 150.347 280.039 150.693 280.359 150.94C280.685 151.187 281.085 151.31 281.559 151.31C282.219 151.31 282.699 151.067 282.999 150.58L283.739 151C283.252 151.753 282.519 152.13 281.539 152.13C280.745 152.13 280.099 151.883 279.599 151.39C279.105 150.89 278.859 150.26 278.859 149.5C278.859 148.747 279.102 148.12 279.589 147.62C280.075 147.12 280.705 146.87 281.479 146.87C282.212 146.87 282.809 147.13 283.269 147.65C283.735 148.163 283.969 148.783 283.969 149.51C283.969 149.637 283.959 149.767 283.939 149.9H279.749ZM281.479 147.69C281.012 147.69 280.625 147.823 280.319 148.09C280.012 148.35 279.822 148.7 279.749 149.14H283.089C283.015 148.667 282.829 148.307 282.529 148.06C282.229 147.813 281.879 147.69 281.479 147.69ZM287.459 146.87C288.045 146.87 288.515 147.057 288.869 147.43C289.222 147.797 289.399 148.297 289.399 148.93V152H288.529V148.98C288.529 148.573 288.419 148.26 288.199 148.04C287.979 147.813 287.675 147.7 287.289 147.7C286.855 147.7 286.505 147.837 286.239 148.11C285.972 148.377 285.839 148.79 285.839 149.35V152H284.969V147H285.839V147.72C286.192 147.153 286.732 146.87 287.459 146.87ZM293.333 147.84H292.003V150.55C292.003 150.797 292.05 150.973 292.143 151.08C292.243 151.18 292.393 151.233 292.593 151.24C292.793 151.24 293.04 151.233 293.333 151.22V152C292.573 152.1 292.016 152.04 291.663 151.82C291.31 151.593 291.133 151.17 291.133 150.55V147.84H290.143V147H291.133V145.86L292.003 145.6V147H293.333V147.84ZM301.312 145H302.232V152H301.312V148.85H297.912V152H296.982V145H297.912V147.97H301.312V145ZM304.08 146.09C303.914 146.09 303.774 146.033 303.66 145.92C303.547 145.807 303.49 145.67 303.49 145.51C303.49 145.35 303.547 145.213 303.66 145.1C303.774 144.98 303.914 144.92 304.08 144.92C304.24 144.92 304.377 144.98 304.49 145.1C304.604 145.213 304.66 145.35 304.66 145.51C304.66 145.67 304.604 145.807 304.49 145.92C304.377 146.033 304.24 146.09 304.08 146.09ZM303.64 152V147H304.51V152H303.64ZM306.578 148.35C306.578 148.543 306.675 148.7 306.868 148.82C307.061 148.933 307.295 149.027 307.568 149.1C307.841 149.167 308.115 149.247 308.388 149.34C308.661 149.427 308.895 149.58 309.088 149.8C309.281 150.013 309.378 150.29 309.378 150.63C309.378 151.083 309.201 151.447 308.848 151.72C308.501 151.993 308.055 152.13 307.508 152.13C307.021 152.13 306.605 152.023 306.258 151.81C305.911 151.597 305.665 151.313 305.518 150.96L306.268 150.53C306.348 150.77 306.498 150.96 306.718 151.1C306.938 151.24 307.201 151.31 307.508 151.31C307.795 151.31 308.031 151.257 308.218 151.15C308.405 151.037 308.498 150.863 308.498 150.63C308.498 150.437 308.401 150.283 308.208 150.17C308.015 150.05 307.781 149.957 307.508 149.89C307.235 149.817 306.961 149.733 306.688 149.64C306.415 149.547 306.181 149.393 305.988 149.18C305.795 148.967 305.698 148.693 305.698 148.36C305.698 147.927 305.865 147.57 306.198 147.29C306.538 147.01 306.961 146.87 307.468 146.87C307.875 146.87 308.235 146.963 308.548 147.15C308.868 147.33 309.108 147.583 309.268 147.91L308.538 148.32C308.358 147.893 308.001 147.68 307.468 147.68C307.221 147.68 307.011 147.74 306.838 147.86C306.665 147.973 306.578 148.137 306.578 148.35ZM312.933 147.84H311.603V150.55C311.603 150.797 311.649 150.973 311.743 151.08C311.843 151.18 311.993 151.233 312.193 151.24C312.393 151.24 312.639 151.233 312.933 151.22V152C312.173 152.1 311.616 152.04 311.263 151.82C310.909 151.593 310.733 151.17 310.733 150.55V147.84H309.743V147H310.733V145.86L311.603 145.6V147H312.933V147.84ZM317.929 151.37C317.415 151.877 316.792 152.13 316.059 152.13C315.325 152.13 314.702 151.877 314.189 151.37C313.682 150.863 313.429 150.24 313.429 149.5C313.429 148.76 313.682 148.137 314.189 147.63C314.702 147.123 315.325 146.87 316.059 146.87C316.792 146.87 317.415 147.123 317.929 147.63C318.442 148.137 318.699 148.76 318.699 149.5C318.699 150.24 318.442 150.863 317.929 151.37ZM316.059 151.28C316.559 151.28 316.979 151.11 317.319 150.77C317.659 150.43 317.829 150.007 317.829 149.5C317.829 148.993 317.659 148.57 317.319 148.23C316.979 147.89 316.559 147.72 316.059 147.72C315.565 147.72 315.149 147.89 314.809 148.23C314.469 148.57 314.299 148.993 314.299 149.5C314.299 150.007 314.469 150.43 314.809 150.77C315.149 151.11 315.565 151.28 316.059 151.28ZM320.594 147.84C320.881 147.22 321.401 146.91 322.154 146.91V147.82C321.728 147.8 321.361 147.913 321.054 148.16C320.748 148.407 320.594 148.803 320.594 149.35V152H319.724V147H320.594V147.84ZM326.603 147H327.533L325.493 152.31C325.28 152.877 324.98 153.307 324.593 153.6C324.213 153.9 323.773 154.033 323.273 154V153.19C323.886 153.237 324.336 152.897 324.623 152.17L324.713 151.98L322.533 147H323.463L325.163 150.92L326.603 147Z" fill="#0B0B0B"/>
</svg>
