<svg width="100" height="100" viewBox="0 0 100 100" fill="none" xmlns="http://www.w3.org/2000/svg">
<path d="M84.3757 76.5667H15.6257C13.3245 76.5667 11.459 78.4321 11.459 80.7333V84.9C11.459 87.2012 13.3245 89.0667 15.6257 89.0667H84.3757C86.6768 89.0667 88.5423 87.2012 88.5423 84.9V80.7333C88.5423 78.4321 86.6768 76.5667 84.3757 76.5667Z" stroke="#29C76F" stroke-width="3" stroke-linecap="round" stroke-linejoin="round"/>
<path d="M21.8757 41.1417V76.6001M78.1257 41.1417V76.6001M60.4173 41.1417V76.6001M39.584 41.1417V76.6001M46.0007 13.1251L13.6257 30.8334C12.97 31.1922 12.4228 31.7207 12.0416 32.3636C11.6604 33.0065 11.4592 33.7401 11.459 34.4876V38.6417C11.459 39.3048 11.7224 39.9406 12.1912 40.4095C12.6601 40.8783 13.2959 41.1417 13.959 41.1417H86.0423C86.7054 41.1417 87.3413 40.8783 87.8101 40.4095C88.2789 39.9406 88.5423 39.3048 88.5423 38.6417V34.4876C88.5421 33.7401 88.3409 33.0065 87.9597 32.3636C87.5785 31.7207 87.0314 31.1922 86.3757 30.8334L54.0007 13.1251C52.7742 12.454 51.3987 12.1023 50.0007 12.1023C48.6026 12.1023 47.2271 12.454 46.0007 13.1251Z" stroke="#29C76F" stroke-width="3" stroke-linecap="round" stroke-linejoin="round"/>
</svg>
