<svg width="681" height="329" viewBox="0 0 681 329" fill="none" xmlns="http://www.w3.org/2000/svg">
<rect width="681" height="329" rx="20" fill="white"/>
<rect x="44.3" y="47.3" width="587.4" height="35.4" rx="4.7" stroke="#767676" stroke-width="0.6"/>
<rect x="44.3" y="201.3" width="587.4" height="89.4" rx="4.7" stroke="#767676" stroke-width="0.6"/>
<rect x="44.3" y="124.3" width="289.4" height="35.4" rx="4.7" stroke="#767676" stroke-width="0.6"/>
<rect x="342.3" y="124.3" width="289.4" height="35.4" rx="4.7" stroke="#767676" stroke-width="0.6"/>
<rect width="128" height="15" transform="translate(44 26)" fill="white"/>
<path d="M48.07 36.62C47.01 36.62 46.1333 36.27 45.44 35.57C44.7467 34.87 44.4 34.0133 44.4 33C44.4 31.9867 44.7467 31.13 45.44 30.43C46.1333 29.73 47.01 29.38 48.07 29.38C48.7167 29.38 49.31 29.5367 49.85 29.85C50.39 30.1567 50.8067 30.5733 51.1 31.1L50.48 31.46C50.26 31.0333 49.9333 30.6933 49.5 30.44C49.0667 30.1867 48.59 30.06 48.07 30.06C47.1967 30.06 46.4833 30.3433 45.93 30.91C45.3767 31.4767 45.1 32.1733 45.1 33C45.1 33.8267 45.3767 34.5233 45.93 35.09C46.4833 35.6567 47.1967 35.94 48.07 35.94C48.59 35.94 49.0667 35.8133 49.5 35.56C49.9333 35.3067 50.26 34.9667 50.48 34.54L51.1 34.89C50.8133 35.4167 50.3967 35.8367 49.85 36.15C49.31 36.4633 48.7167 36.62 48.07 36.62ZM55.6712 31.5H56.3312V36.5H55.6712V35.72C55.2978 36.32 54.7378 36.62 53.9912 36.62C53.3845 36.62 52.9045 36.4367 52.5512 36.07C52.2045 35.6967 52.0312 35.1967 52.0312 34.57V31.5H52.6912V34.57C52.6912 35.0167 52.8078 35.3633 53.0412 35.61C53.2812 35.8567 53.6178 35.98 54.0512 35.98C54.5312 35.98 54.9212 35.83 55.2212 35.53C55.5212 35.2233 55.6712 34.7533 55.6712 34.12V31.5ZM58.2473 32.81C58.2473 33.0367 58.3473 33.2167 58.5473 33.35C58.7473 33.4833 58.9907 33.5867 59.2773 33.66C59.564 33.7333 59.8507 33.8167 60.1373 33.91C60.424 33.9967 60.6673 34.1467 60.8673 34.36C61.0673 34.5667 61.1673 34.84 61.1673 35.18C61.1673 35.6067 60.9973 35.9533 60.6573 36.22C60.324 36.4867 59.8907 36.62 59.3573 36.62C58.8773 36.62 58.4673 36.5133 58.1273 36.3C57.794 36.0867 57.5607 35.81 57.4273 35.47L57.9873 35.14C58.0807 35.4 58.2473 35.6067 58.4873 35.76C58.734 35.9067 59.024 35.98 59.3573 35.98C59.684 35.98 59.9573 35.9167 60.1773 35.79C60.3973 35.6567 60.5073 35.4533 60.5073 35.18C60.5073 34.9533 60.4073 34.7733 60.2073 34.64C60.0073 34.5067 59.764 34.4033 59.4773 34.33C59.1907 34.2567 58.904 34.1767 58.6173 34.09C58.3307 33.9967 58.0873 33.8467 57.8873 33.64C57.6873 33.4267 57.5873 33.15 57.5873 32.81C57.5873 32.4033 57.7473 32.0633 58.0673 31.79C58.394 31.5167 58.804 31.38 59.2973 31.38C59.704 31.38 60.0607 31.4733 60.3673 31.66C60.674 31.84 60.9007 32.0867 61.0473 32.4L60.4973 32.72C60.304 32.2533 59.904 32.02 59.2973 32.02C59.0107 32.02 58.764 32.09 58.5573 32.23C58.3507 32.3633 58.2473 32.5567 58.2473 32.81ZM64.723 32.14H63.283V35.17C63.283 35.4433 63.3364 35.64 63.443 35.76C63.5497 35.8733 63.7097 35.9333 63.923 35.94C64.1364 35.94 64.403 35.9333 64.723 35.92V36.5C64.023 36.6067 63.4964 36.5567 63.143 36.35C62.7964 36.1433 62.623 35.75 62.623 35.17V32.14H61.573V31.5H62.623V30.3L63.283 30.1V31.5H64.723V32.14ZM69.7103 35.87C69.2036 36.37 68.5836 36.62 67.8503 36.62C67.117 36.62 66.4936 36.37 65.9803 35.87C65.4736 35.3633 65.2203 34.74 65.2203 34C65.2203 33.26 65.4736 32.64 65.9803 32.14C66.4936 31.6333 67.117 31.38 67.8503 31.38C68.5836 31.38 69.2036 31.6333 69.7103 32.14C70.2236 32.64 70.4803 33.26 70.4803 34C70.4803 34.74 70.2236 35.3633 69.7103 35.87ZM66.4503 35.41C66.8303 35.79 67.297 35.98 67.8503 35.98C68.4036 35.98 68.8703 35.79 69.2503 35.41C69.6303 35.0233 69.8203 34.5533 69.8203 34C69.8203 33.4467 69.6303 32.98 69.2503 32.6C68.8703 32.2133 68.4036 32.02 67.8503 32.02C67.297 32.02 66.8303 32.2133 66.4503 32.6C66.0703 32.98 65.8803 33.4467 65.8803 34C65.8803 34.5533 66.0703 35.0233 66.4503 35.41ZM76.9148 31.38C77.4748 31.38 77.9248 31.56 78.2648 31.92C78.6114 32.28 78.7848 32.7667 78.7848 33.38V36.5H78.1248V33.38C78.1248 32.9467 78.0114 32.6133 77.7848 32.38C77.5648 32.14 77.2714 32.02 76.9048 32.02C76.4914 32.02 76.1548 32.16 75.8948 32.44C75.6414 32.7133 75.5148 33.1433 75.5148 33.73V36.5H74.8548V33.38C74.8548 32.94 74.7481 32.6033 74.5348 32.37C74.3281 32.1367 74.0448 32.02 73.6848 32.02C73.2848 32.02 72.9448 32.16 72.6648 32.44C72.3848 32.72 72.2448 33.15 72.2448 33.73V36.5H71.5848V31.5H72.2448V32.23C72.6048 31.6633 73.1148 31.38 73.7748 31.38C74.4948 31.38 75.0014 31.6833 75.2948 32.29C75.6548 31.6833 76.1948 31.38 76.9148 31.38ZM82.3713 31.38C83.1113 31.38 83.708 31.6433 84.1613 32.17C84.6213 32.69 84.8513 33.3067 84.8513 34.02C84.8513 34.0933 84.8447 34.1967 84.8313 34.33H80.4413C80.508 34.8367 80.7213 35.24 81.0813 35.54C81.448 35.8333 81.898 35.98 82.4313 35.98C82.8113 35.98 83.138 35.9033 83.4113 35.75C83.6913 35.59 83.9013 35.3833 84.0413 35.13L84.6213 35.47C84.4013 35.8233 84.1013 36.1033 83.7213 36.31C83.3413 36.5167 82.908 36.62 82.4213 36.62C81.6347 36.62 80.9947 36.3733 80.5013 35.88C80.008 35.3867 79.7613 34.76 79.7613 34C79.7613 33.2533 80.0047 32.63 80.4913 32.13C80.978 31.63 81.6047 31.38 82.3713 31.38ZM82.3713 32.02C81.8513 32.02 81.4147 32.1767 81.0613 32.49C80.7147 32.7967 80.508 33.1967 80.4413 33.69H84.1713C84.1047 33.1633 83.9013 32.7533 83.5613 32.46C83.2213 32.1667 82.8247 32.02 82.3713 32.02ZM86.5612 32.33C86.8678 31.7233 87.3945 31.42 88.1412 31.42V32.06C87.6878 32.06 87.3112 32.1933 87.0112 32.46C86.7112 32.7267 86.5612 33.1467 86.5612 33.72V36.5H85.9012V31.5H86.5612V32.33Z" fill="#1E1E1E"/>
<rect width="128" height="15" transform="translate(44 180)" fill="white"/>
<path d="M49.3 183.5H50V190.5H49.4L45.5 184.8V190.5H44.8V183.5H45.4L49.3 189.2V183.5ZM55.6869 189.87C55.1802 190.37 54.5602 190.62 53.8269 190.62C53.0935 190.62 52.4702 190.37 51.9569 189.87C51.4502 189.363 51.1969 188.74 51.1969 188C51.1969 187.26 51.4502 186.64 51.9569 186.14C52.4702 185.633 53.0935 185.38 53.8269 185.38C54.5602 185.38 55.1802 185.633 55.6869 186.14C56.2002 186.64 56.4569 187.26 56.4569 188C56.4569 188.74 56.2002 189.363 55.6869 189.87ZM52.4269 189.41C52.8069 189.79 53.2735 189.98 53.8269 189.98C54.3802 189.98 54.8469 189.79 55.2269 189.41C55.6069 189.023 55.7969 188.553 55.7969 188C55.7969 187.447 55.6069 186.98 55.2269 186.6C54.8469 186.213 54.3802 186.02 53.8269 186.02C53.2735 186.02 52.8069 186.213 52.4269 186.6C52.0469 186.98 51.8569 187.447 51.8569 188C51.8569 188.553 52.0469 189.023 52.4269 189.41ZM60.1137 186.14H58.6737V189.17C58.6737 189.443 58.727 189.64 58.8337 189.76C58.9403 189.873 59.1003 189.933 59.3137 189.94C59.527 189.94 59.7937 189.933 60.1137 189.92V190.5C59.4137 190.607 58.887 190.557 58.5337 190.35C58.187 190.143 58.0137 189.75 58.0137 189.17V186.14H56.9637V185.5H58.0137V184.3L58.6737 184.1V185.5H60.1137V186.14ZM63.2209 185.38C63.9609 185.38 64.5576 185.643 65.0109 186.17C65.4709 186.69 65.7009 187.307 65.7009 188.02C65.7009 188.093 65.6943 188.197 65.6809 188.33H61.2909C61.3576 188.837 61.5709 189.24 61.9309 189.54C62.2976 189.833 62.7476 189.98 63.2809 189.98C63.6609 189.98 63.9876 189.903 64.2609 189.75C64.5409 189.59 64.7509 189.383 64.8909 189.13L65.4709 189.47C65.2509 189.823 64.9509 190.103 64.5709 190.31C64.1909 190.517 63.7576 190.62 63.2709 190.62C62.4843 190.62 61.8443 190.373 61.3509 189.88C60.8576 189.387 60.6109 188.76 60.6109 188C60.6109 187.253 60.8543 186.63 61.3409 186.13C61.8276 185.63 62.4543 185.38 63.2209 185.38ZM63.2209 186.02C62.7009 186.02 62.2643 186.177 61.9109 186.49C61.5643 186.797 61.3576 187.197 61.2909 187.69H65.0209C64.9543 187.163 64.7509 186.753 64.4109 186.46C64.0709 186.167 63.6743 186.02 63.2209 186.02ZM67.0755 186.81C67.0755 187.037 67.1755 187.217 67.3755 187.35C67.5755 187.483 67.8188 187.587 68.1055 187.66C68.3921 187.733 68.6788 187.817 68.9655 187.91C69.2521 187.997 69.4955 188.147 69.6955 188.36C69.8955 188.567 69.9955 188.84 69.9955 189.18C69.9955 189.607 69.8255 189.953 69.4855 190.22C69.1521 190.487 68.7188 190.62 68.1855 190.62C67.7055 190.62 67.2955 190.513 66.9555 190.3C66.6221 190.087 66.3888 189.81 66.2555 189.47L66.8155 189.14C66.9088 189.4 67.0755 189.607 67.3155 189.76C67.5621 189.907 67.8521 189.98 68.1855 189.98C68.5121 189.98 68.7855 189.917 69.0055 189.79C69.2255 189.657 69.3355 189.453 69.3355 189.18C69.3355 188.953 69.2355 188.773 69.0355 188.64C68.8355 188.507 68.5921 188.403 68.3055 188.33C68.0188 188.257 67.7321 188.177 67.4455 188.09C67.1588 187.997 66.9155 187.847 66.7155 187.64C66.5155 187.427 66.4155 187.15 66.4155 186.81C66.4155 186.403 66.5755 186.063 66.8955 185.79C67.2221 185.517 67.6321 185.38 68.1255 185.38C68.5321 185.38 68.8888 185.473 69.1955 185.66C69.5021 185.84 69.7288 186.087 69.8755 186.4L69.3255 186.72C69.1321 186.253 68.7321 186.02 68.1255 186.02C67.8388 186.02 67.5921 186.09 67.3855 186.23C67.1788 186.363 67.0755 186.557 67.0755 186.81Z" fill="#1E1E1E"/>
<rect width="128" height="15" transform="translate(44 103)" fill="white"/>
<path d="M49.46 113.5L48.81 111.78H45.49L44.84 113.5H44.1L46.79 106.5H47.51L50.2 113.5H49.46ZM45.74 111.12H48.56L47.15 107.37L45.74 111.12ZM56.3288 108.38C56.8888 108.38 57.3388 108.56 57.6788 108.92C58.0255 109.28 58.1988 109.767 58.1988 110.38V113.5H57.5388V110.38C57.5388 109.947 57.4255 109.613 57.1988 109.38C56.9788 109.14 56.6855 109.02 56.3188 109.02C55.9055 109.02 55.5688 109.16 55.3088 109.44C55.0555 109.713 54.9288 110.143 54.9288 110.73V113.5H54.2688V110.38C54.2688 109.94 54.1622 109.603 53.9488 109.37C53.7422 109.137 53.4588 109.02 53.0988 109.02C52.6988 109.02 52.3588 109.16 52.0788 109.44C51.7988 109.72 51.6588 110.15 51.6588 110.73V113.5H50.9988V108.5H51.6588V109.23C52.0188 108.663 52.5288 108.38 53.1888 108.38C53.9088 108.38 54.4155 108.683 54.7088 109.29C55.0688 108.683 55.6088 108.38 56.3288 108.38ZM63.6654 112.87C63.1587 113.37 62.5387 113.62 61.8054 113.62C61.0721 113.62 60.4487 113.37 59.9354 112.87C59.4287 112.363 59.1754 111.74 59.1754 111C59.1754 110.26 59.4287 109.64 59.9354 109.14C60.4487 108.633 61.0721 108.38 61.8054 108.38C62.5387 108.38 63.1587 108.633 63.6654 109.14C64.1787 109.64 64.4354 110.26 64.4354 111C64.4354 111.74 64.1787 112.363 63.6654 112.87ZM60.4054 112.41C60.7854 112.79 61.2521 112.98 61.8054 112.98C62.3587 112.98 62.8254 112.79 63.2054 112.41C63.5854 112.023 63.7754 111.553 63.7754 111C63.7754 110.447 63.5854 109.98 63.2054 109.6C62.8254 109.213 62.3587 109.02 61.8054 109.02C61.2521 109.02 60.7854 109.213 60.4054 109.6C60.0254 109.98 59.8354 110.447 59.8354 111C59.8354 111.553 60.0254 112.023 60.4054 112.41ZM69.0598 108.5H69.7198V113.5H69.0598V112.72C68.6865 113.32 68.1265 113.62 67.3798 113.62C66.7732 113.62 66.2932 113.437 65.9398 113.07C65.5932 112.697 65.4198 112.197 65.4198 111.57V108.5H66.0798V111.57C66.0798 112.017 66.1965 112.363 66.4298 112.61C66.6698 112.857 67.0065 112.98 67.4398 112.98C67.9198 112.98 68.3098 112.83 68.6098 112.53C68.9098 112.223 69.0598 111.753 69.0598 111.12V108.5ZM73.456 108.38C74.0627 108.38 74.5393 108.567 74.886 108.94C75.2393 109.307 75.416 109.803 75.416 110.43V113.5H74.756V110.43C74.756 109.983 74.636 109.637 74.396 109.39C74.1627 109.143 73.8293 109.02 73.396 109.02C72.916 109.02 72.526 109.173 72.226 109.48C71.926 109.78 71.776 110.247 71.776 110.88V113.5H71.116V108.5H71.776V109.28C72.1493 108.68 72.7093 108.38 73.456 108.38ZM79.3422 109.14H77.9022V112.17C77.9022 112.443 77.9555 112.64 78.0622 112.76C78.1689 112.873 78.3289 112.933 78.5422 112.94C78.7555 112.94 79.0222 112.933 79.3422 112.92V113.5C78.6422 113.607 78.1155 113.557 77.7622 113.35C77.4155 113.143 77.2422 112.75 77.2422 112.17V109.14H76.1922V108.5H77.2422V107.3L77.9022 107.1V108.5H79.3422V109.14Z" fill="#1E1E1E"/>
<rect width="128" height="15" transform="translate(342 103)" fill="white"/>
<path d="M342.8 106.5H343.5V113.5H342.8V106.5ZM347.345 108.38C347.951 108.38 348.428 108.567 348.775 108.94C349.128 109.307 349.305 109.803 349.305 110.43V113.5H348.645V110.43C348.645 109.983 348.525 109.637 348.285 109.39C348.051 109.143 347.718 109.02 347.285 109.02C346.805 109.02 346.415 109.173 346.115 109.48C345.815 109.78 345.665 110.247 345.665 110.88V113.5H345.005V108.5H345.665V109.28C346.038 108.68 346.598 108.38 347.345 108.38ZM352.911 113.62C352.158 113.62 351.531 113.37 351.031 112.87C350.531 112.363 350.281 111.74 350.281 111C350.281 110.26 350.531 109.64 351.031 109.14C351.531 108.633 352.158 108.38 352.911 108.38C353.404 108.38 353.848 108.5 354.241 108.74C354.634 108.973 354.921 109.29 355.101 109.69L354.561 110C354.428 109.7 354.211 109.463 353.911 109.29C353.618 109.11 353.284 109.02 352.911 109.02C352.358 109.02 351.891 109.213 351.511 109.6C351.131 109.98 350.941 110.447 350.941 111C350.941 111.553 351.131 112.023 351.511 112.41C351.891 112.79 352.358 112.98 352.911 112.98C353.284 112.98 353.618 112.893 353.911 112.72C354.204 112.54 354.434 112.3 354.601 112L355.151 112.32C354.944 112.72 354.641 113.037 354.241 113.27C353.841 113.503 353.398 113.62 352.911 113.62ZM360.24 112.87C359.733 113.37 359.113 113.62 358.38 113.62C357.646 113.62 357.023 113.37 356.51 112.87C356.003 112.363 355.75 111.74 355.75 111C355.75 110.26 356.003 109.64 356.51 109.14C357.023 108.633 357.646 108.38 358.38 108.38C359.113 108.38 359.733 108.633 360.24 109.14C360.753 109.64 361.01 110.26 361.01 111C361.01 111.74 360.753 112.363 360.24 112.87ZM356.98 112.41C357.36 112.79 357.826 112.98 358.38 112.98C358.933 112.98 359.4 112.79 359.78 112.41C360.16 112.023 360.35 111.553 360.35 111C360.35 110.447 360.16 109.98 359.78 109.6C359.4 109.213 358.933 109.02 358.38 109.02C357.826 109.02 357.36 109.213 356.98 109.6C356.6 109.98 356.41 110.447 356.41 111C356.41 111.553 356.6 112.023 356.98 112.41ZM367.444 108.38C368.004 108.38 368.454 108.56 368.794 108.92C369.141 109.28 369.314 109.767 369.314 110.38V113.5H368.654V110.38C368.654 109.947 368.541 109.613 368.314 109.38C368.094 109.14 367.801 109.02 367.434 109.02C367.021 109.02 366.684 109.16 366.424 109.44C366.171 109.713 366.044 110.143 366.044 110.73V113.5H365.384V110.38C365.384 109.94 365.277 109.603 365.064 109.37C364.857 109.137 364.574 109.02 364.214 109.02C363.814 109.02 363.474 109.16 363.194 109.44C362.914 109.72 362.774 110.15 362.774 110.73V113.5H362.114V108.5H362.774V109.23C363.134 108.663 363.644 108.38 364.304 108.38C365.024 108.38 365.531 108.683 365.824 109.29C366.184 108.683 366.724 108.38 367.444 108.38ZM372.901 108.38C373.641 108.38 374.237 108.643 374.691 109.17C375.151 109.69 375.381 110.307 375.381 111.02C375.381 111.093 375.374 111.197 375.361 111.33H370.971C371.037 111.837 371.251 112.24 371.611 112.54C371.977 112.833 372.427 112.98 372.961 112.98C373.341 112.98 373.667 112.903 373.941 112.75C374.221 112.59 374.431 112.383 374.571 112.13L375.151 112.47C374.931 112.823 374.631 113.103 374.251 113.31C373.871 113.517 373.437 113.62 372.951 113.62C372.164 113.62 371.524 113.373 371.031 112.88C370.537 112.387 370.291 111.76 370.291 111C370.291 110.253 370.534 109.63 371.021 109.13C371.507 108.63 372.134 108.38 372.901 108.38ZM372.901 109.02C372.381 109.02 371.944 109.177 371.591 109.49C371.244 109.797 371.037 110.197 370.971 110.69H374.701C374.634 110.163 374.431 109.753 374.091 109.46C373.751 109.167 373.354 109.02 372.901 109.02ZM382.3 113.62C381.24 113.62 380.364 113.27 379.67 112.57C378.977 111.87 378.63 111.013 378.63 110C378.63 108.987 378.977 108.13 379.67 107.43C380.364 106.73 381.24 106.38 382.3 106.38C382.947 106.38 383.54 106.537 384.08 106.85C384.62 107.157 385.037 107.573 385.33 108.1L384.71 108.46C384.49 108.033 384.164 107.693 383.73 107.44C383.297 107.187 382.82 107.06 382.3 107.06C381.427 107.06 380.714 107.343 380.16 107.91C379.607 108.477 379.33 109.173 379.33 110C379.33 110.827 379.607 111.523 380.16 112.09C380.714 112.657 381.427 112.94 382.3 112.94C382.82 112.94 383.297 112.813 383.73 112.56C384.164 112.307 384.49 111.967 384.71 111.54L385.33 111.89C385.044 112.417 384.627 112.837 384.08 113.15C383.54 113.463 382.947 113.62 382.3 113.62ZM390.633 108.5H391.293V113.5H390.633V112.52C390.173 113.253 389.499 113.62 388.613 113.62C387.899 113.62 387.289 113.367 386.783 112.86C386.283 112.353 386.033 111.733 386.033 111C386.033 110.267 386.283 109.647 386.783 109.14C387.289 108.633 387.899 108.38 388.613 108.38C389.499 108.38 390.173 108.747 390.633 109.48V108.5ZM387.263 112.41C387.643 112.79 388.109 112.98 388.663 112.98C389.216 112.98 389.683 112.79 390.063 112.41C390.443 112.023 390.633 111.553 390.633 111C390.633 110.447 390.443 109.98 390.063 109.6C389.683 109.213 389.216 109.02 388.663 109.02C388.109 109.02 387.643 109.213 387.263 109.6C386.883 109.98 386.693 110.447 386.693 111C386.693 111.553 386.883 112.023 387.263 112.41ZM395.34 109.14H393.9V112.17C393.9 112.443 393.954 112.64 394.06 112.76C394.167 112.873 394.327 112.933 394.54 112.94C394.754 112.94 395.02 112.933 395.34 112.92V113.5C394.64 113.607 394.114 113.557 393.76 113.35C393.414 113.143 393.24 112.75 393.24 112.17V109.14H392.19V108.5H393.24V107.3L393.9 107.1V108.5H395.34V109.14ZM398.448 108.38C399.188 108.38 399.784 108.643 400.238 109.17C400.698 109.69 400.928 110.307 400.928 111.02C400.928 111.093 400.921 111.197 400.908 111.33H396.518C396.584 111.837 396.798 112.24 397.158 112.54C397.524 112.833 397.974 112.98 398.508 112.98C398.888 112.98 399.214 112.903 399.488 112.75C399.768 112.59 399.978 112.383 400.118 112.13L400.698 112.47C400.478 112.823 400.178 113.103 399.798 113.31C399.418 113.517 398.984 113.62 398.498 113.62C397.711 113.62 397.071 113.373 396.578 112.88C396.084 112.387 395.838 111.76 395.838 111C395.838 110.253 396.081 109.63 396.568 109.13C397.054 108.63 397.681 108.38 398.448 108.38ZM398.448 109.02C397.928 109.02 397.491 109.177 397.138 109.49C396.791 109.797 396.584 110.197 396.518 110.69H400.248C400.181 110.163 399.978 109.753 399.638 109.46C399.298 109.167 398.901 109.02 398.448 109.02ZM406.277 108.5H406.937V113.3C406.937 114.02 406.691 114.587 406.197 115C405.704 115.413 405.114 115.62 404.427 115.62C403.254 115.62 402.464 115.213 402.057 114.4L402.637 114.07C402.937 114.677 403.534 114.98 404.427 114.98C405.001 114.98 405.451 114.827 405.777 114.52C406.111 114.22 406.277 113.813 406.277 113.3V112.52C405.817 113.253 405.144 113.62 404.257 113.62C403.544 113.62 402.934 113.367 402.427 112.86C401.927 112.353 401.677 111.733 401.677 111C401.677 110.267 401.927 109.647 402.427 109.14C402.934 108.633 403.544 108.38 404.257 108.38C405.144 108.38 405.817 108.747 406.277 109.48V108.5ZM402.907 112.41C403.287 112.79 403.754 112.98 404.307 112.98C404.861 112.98 405.327 112.79 405.707 112.41C406.087 112.023 406.277 111.553 406.277 111C406.277 110.447 406.087 109.98 405.707 109.6C405.327 109.213 404.861 109.02 404.307 109.02C403.754 109.02 403.287 109.213 402.907 109.6C402.527 109.98 402.337 110.447 402.337 111C402.337 111.553 402.527 112.023 402.907 112.41ZM412.525 112.87C412.018 113.37 411.398 113.62 410.665 113.62C409.931 113.62 409.308 113.37 408.795 112.87C408.288 112.363 408.035 111.74 408.035 111C408.035 110.26 408.288 109.64 408.795 109.14C409.308 108.633 409.931 108.38 410.665 108.38C411.398 108.38 412.018 108.633 412.525 109.14C413.038 109.64 413.295 110.26 413.295 111C413.295 111.74 413.038 112.363 412.525 112.87ZM409.265 112.41C409.645 112.79 410.111 112.98 410.665 112.98C411.218 112.98 411.685 112.79 412.065 112.41C412.445 112.023 412.635 111.553 412.635 111C412.635 110.447 412.445 109.98 412.065 109.6C411.685 109.213 411.218 109.02 410.665 109.02C410.111 109.02 409.645 109.213 409.265 109.6C408.885 109.98 408.695 110.447 408.695 111C408.695 111.553 408.885 112.023 409.265 112.41ZM415.059 109.33C415.366 108.723 415.893 108.42 416.639 108.42V109.06C416.186 109.06 415.809 109.193 415.509 109.46C415.209 109.727 415.059 110.147 415.059 110.72V113.5H414.399V108.5H415.059V109.33ZM421.241 108.5H421.941L419.801 113.96C419.608 114.453 419.331 114.84 418.971 115.12C418.618 115.407 418.221 115.533 417.781 115.5V114.88C418.381 114.947 418.838 114.6 419.151 113.84L419.281 113.53L417.041 108.5H417.741L419.621 112.69L421.241 108.5Z" fill="#1E1E1E"/>
<path d="M61 68.12C60.36 68.12 59.81 67.97 59.35 67.67C58.8967 67.3633 58.58 66.9433 58.4 66.41L59 66.06C59.1267 66.4933 59.36 66.8333 59.7 67.08C60.04 67.32 60.4767 67.44 61.01 67.44C61.53 67.44 61.9333 67.3267 62.22 67.1C62.5133 66.8667 62.66 66.56 62.66 66.18C62.66 65.8133 62.5267 65.5367 62.26 65.35C61.9933 65.1633 61.5533 64.97 60.94 64.77C60.2133 64.53 59.7333 64.3367 59.5 64.19C58.9667 63.87 58.7 63.4067 58.7 62.8C58.7 62.2067 58.9067 61.74 59.32 61.4C59.7333 61.0533 60.2433 60.88 60.85 60.88C61.3967 60.88 61.87 61.0233 62.27 61.31C62.67 61.59 62.9667 61.95 63.16 62.39L62.57 62.72C62.25 61.9467 61.6767 61.56 60.85 61.56C60.4167 61.56 60.0667 61.6667 59.8 61.88C59.5333 62.0933 59.4 62.39 59.4 62.77C59.4 63.1167 59.52 63.3767 59.76 63.55C60 63.7233 60.3967 63.9 60.95 64.08C61.2033 64.1667 61.3833 64.23 61.49 64.27C61.6033 64.3033 61.7633 64.3633 61.97 64.45C62.1833 64.53 62.34 64.6033 62.44 64.67C62.54 64.73 62.66 64.8167 62.8 64.93C62.9467 65.0367 63.05 65.1467 63.11 65.26C63.1767 65.3667 63.2333 65.5 63.28 65.66C63.3333 65.8133 63.36 65.98 63.36 66.16C63.36 66.7533 63.1433 67.23 62.71 67.59C62.2767 67.9433 61.7067 68.12 61 68.12ZM66.8694 62.88C67.6094 62.88 68.206 63.1433 68.6594 63.67C69.1194 64.19 69.3494 64.8067 69.3494 65.52C69.3494 65.5933 69.3427 65.6967 69.3294 65.83H64.9394C65.006 66.3367 65.2194 66.74 65.5794 67.04C65.946 67.3333 66.396 67.48 66.9294 67.48C67.3094 67.48 67.636 67.4033 67.9094 67.25C68.1894 67.09 68.3994 66.8833 68.5394 66.63L69.1194 66.97C68.8994 67.3233 68.5994 67.6033 68.2194 67.81C67.8394 68.0167 67.406 68.12 66.9194 68.12C66.1327 68.12 65.4927 67.8733 64.9994 67.38C64.506 66.8867 64.2594 66.26 64.2594 65.5C64.2594 64.7533 64.5027 64.13 64.9894 63.63C65.476 63.13 66.1027 62.88 66.8694 62.88ZM66.8694 63.52C66.3494 63.52 65.9127 63.6767 65.5594 63.99C65.2127 64.2967 65.006 64.6967 64.9394 65.19H68.6694C68.6027 64.6633 68.3994 64.2533 68.0594 63.96C67.7194 63.6667 67.3227 63.52 66.8694 63.52ZM70.3992 68V60.7H71.0592V68H70.3992ZM74.7698 62.88C75.5098 62.88 76.1064 63.1433 76.5598 63.67C77.0198 64.19 77.2498 64.8067 77.2498 65.52C77.2498 65.5933 77.2431 65.6967 77.2298 65.83H72.8398C72.9064 66.3367 73.1198 66.74 73.4798 67.04C73.8464 67.3333 74.2964 67.48 74.8298 67.48C75.2098 67.48 75.5364 67.4033 75.8098 67.25C76.0898 67.09 76.2998 66.8833 76.4398 66.63L77.0198 66.97C76.7998 67.3233 76.4998 67.6033 76.1198 67.81C75.7398 68.0167 75.3064 68.12 74.8198 68.12C74.0331 68.12 73.3931 67.8733 72.8998 67.38C72.4064 66.8867 72.1598 66.26 72.1598 65.5C72.1598 64.7533 72.4031 64.13 72.8898 63.63C73.3764 63.13 74.0031 62.88 74.7698 62.88ZM74.7698 63.52C74.2498 63.52 73.8131 63.6767 73.4598 63.99C73.1131 64.2967 72.9064 64.6967 72.8398 65.19H76.5698C76.5031 64.6633 76.2998 64.2533 75.9598 63.96C75.6198 63.6667 75.2231 63.52 74.7698 63.52ZM80.6296 68.12C79.8763 68.12 79.2496 67.87 78.7496 67.37C78.2496 66.8633 77.9996 66.24 77.9996 65.5C77.9996 64.76 78.2496 64.14 78.7496 63.64C79.2496 63.1333 79.8763 62.88 80.6296 62.88C81.1229 62.88 81.5663 63 81.9596 63.24C82.3529 63.4733 82.6396 63.79 82.8196 64.19L82.2796 64.5C82.1463 64.2 81.9296 63.9633 81.6296 63.79C81.3363 63.61 81.0029 63.52 80.6296 63.52C80.0763 63.52 79.6096 63.7133 79.2296 64.1C78.8496 64.48 78.6596 64.9467 78.6596 65.5C78.6596 66.0533 78.8496 66.5233 79.2296 66.91C79.6096 67.29 80.0763 67.48 80.6296 67.48C81.0029 67.48 81.3363 67.3933 81.6296 67.22C81.9229 67.04 82.1529 66.8 82.3196 66.5L82.8696 66.82C82.6629 67.22 82.3596 67.5367 81.9596 67.77C81.5596 68.0033 81.1163 68.12 80.6296 68.12ZM86.4672 63.64H85.0272V66.67C85.0272 66.9433 85.0805 67.14 85.1872 67.26C85.2939 67.3733 85.4539 67.4333 85.6672 67.44C85.8805 67.44 86.1472 67.4333 86.4672 67.42V68C85.7672 68.1067 85.2405 68.0567 84.8872 67.85C84.5405 67.6433 84.3672 67.25 84.3672 66.67V63.64H83.3172V63H84.3672V61.8L85.0272 61.6V63H86.4672V63.64ZM93.4372 68.12C92.3772 68.12 91.5005 67.77 90.8072 67.07C90.1139 66.37 89.7672 65.5133 89.7672 64.5C89.7672 63.4867 90.1139 62.63 90.8072 61.93C91.5005 61.23 92.3772 60.88 93.4372 60.88C94.0839 60.88 94.6772 61.0367 95.2172 61.35C95.7572 61.6567 96.1739 62.0733 96.4672 62.6L95.8472 62.96C95.6272 62.5333 95.3005 62.1933 94.8672 61.94C94.4339 61.6867 93.9572 61.56 93.4372 61.56C92.5639 61.56 91.8505 61.8433 91.2972 62.41C90.7439 62.9767 90.4672 63.6733 90.4672 64.5C90.4672 65.3267 90.7439 66.0233 91.2972 66.59C91.8505 67.1567 92.5639 67.44 93.4372 67.44C93.9572 67.44 94.4339 67.3133 94.8672 67.06C95.3005 66.8067 95.6272 66.4667 95.8472 66.04L96.4672 66.39C96.1805 66.9167 95.7639 67.3367 95.2172 67.65C94.6772 67.9633 94.0839 68.12 93.4372 68.12ZM101.038 63H101.698V68H101.038V67.22C100.665 67.82 100.105 68.12 99.3584 68.12C98.7517 68.12 98.2717 67.9367 97.9184 67.57C97.5717 67.1967 97.3984 66.6967 97.3984 66.07V63H98.0584V66.07C98.0584 66.5167 98.175 66.8633 98.4084 67.11C98.6484 67.3567 98.985 67.48 99.4184 67.48C99.8984 67.48 100.288 67.33 100.588 67.03C100.888 66.7233 101.038 66.2533 101.038 65.62V63ZM103.615 64.31C103.615 64.5367 103.715 64.7167 103.915 64.85C104.115 64.9833 104.358 65.0867 104.645 65.16C104.931 65.2333 105.218 65.3167 105.505 65.41C105.791 65.4967 106.035 65.6467 106.235 65.86C106.435 66.0667 106.535 66.34 106.535 66.68C106.535 67.1067 106.365 67.4533 106.025 67.72C105.691 67.9867 105.258 68.12 104.725 68.12C104.245 68.12 103.835 68.0133 103.495 67.8C103.161 67.5867 102.928 67.31 102.795 66.97L103.355 66.64C103.448 66.9 103.615 67.1067 103.855 67.26C104.101 67.4067 104.391 67.48 104.725 67.48C105.051 67.48 105.325 67.4167 105.545 67.29C105.765 67.1567 105.875 66.9533 105.875 66.68C105.875 66.4533 105.775 66.2733 105.575 66.14C105.375 66.0067 105.131 65.9033 104.845 65.83C104.558 65.7567 104.271 65.6767 103.985 65.59C103.698 65.4967 103.455 65.3467 103.255 65.14C103.055 64.9267 102.955 64.65 102.955 64.31C102.955 63.9033 103.115 63.5633 103.435 63.29C103.761 63.0167 104.171 62.88 104.665 62.88C105.071 62.88 105.428 62.9733 105.735 63.16C106.041 63.34 106.268 63.5867 106.415 63.9L105.865 64.22C105.671 63.7533 105.271 63.52 104.665 63.52C104.378 63.52 104.131 63.59 103.925 63.73C103.718 63.8633 103.615 64.0567 103.615 64.31ZM110.09 63.64H108.65V66.67C108.65 66.9433 108.704 67.14 108.81 67.26C108.917 67.3733 109.077 67.4333 109.29 67.44C109.504 67.44 109.77 67.4333 110.09 67.42V68C109.39 68.1067 108.864 68.0567 108.51 67.85C108.164 67.6433 107.99 67.25 107.99 66.67V63.64H106.94V63H107.99V61.8L108.65 61.6V63H110.09V63.64ZM115.078 67.37C114.571 67.87 113.951 68.12 113.218 68.12C112.484 68.12 111.861 67.87 111.348 67.37C110.841 66.8633 110.588 66.24 110.588 65.5C110.588 64.76 110.841 64.14 111.348 63.64C111.861 63.1333 112.484 62.88 113.218 62.88C113.951 62.88 114.571 63.1333 115.078 63.64C115.591 64.14 115.848 64.76 115.848 65.5C115.848 66.24 115.591 66.8633 115.078 67.37ZM111.818 66.91C112.198 67.29 112.664 67.48 113.218 67.48C113.771 67.48 114.238 67.29 114.618 66.91C114.998 66.5233 115.188 66.0533 115.188 65.5C115.188 64.9467 114.998 64.48 114.618 64.1C114.238 63.7133 113.771 63.52 113.218 63.52C112.664 63.52 112.198 63.7133 111.818 64.1C111.438 64.48 111.248 64.9467 111.248 65.5C111.248 66.0533 111.438 66.5233 111.818 66.91ZM122.282 62.88C122.842 62.88 123.292 63.06 123.632 63.42C123.979 63.78 124.152 64.2667 124.152 64.88V68H123.492V64.88C123.492 64.4467 123.379 64.1133 123.152 63.88C122.932 63.64 122.639 63.52 122.272 63.52C121.859 63.52 121.522 63.66 121.262 63.94C121.009 64.2133 120.882 64.6433 120.882 65.23V68H120.222V64.88C120.222 64.44 120.115 64.1033 119.902 63.87C119.695 63.6367 119.412 63.52 119.052 63.52C118.652 63.52 118.312 63.66 118.032 63.94C117.752 64.22 117.612 64.65 117.612 65.23V68H116.952V63H117.612V63.73C117.972 63.1633 118.482 62.88 119.142 62.88C119.862 62.88 120.369 63.1833 120.662 63.79C121.022 63.1833 121.562 62.88 122.282 62.88ZM127.739 62.88C128.479 62.88 129.075 63.1433 129.529 63.67C129.989 64.19 130.219 64.8067 130.219 65.52C130.219 65.5933 130.212 65.6967 130.199 65.83H125.809C125.875 66.3367 126.089 66.74 126.449 67.04C126.815 67.3333 127.265 67.48 127.799 67.48C128.179 67.48 128.505 67.4033 128.779 67.25C129.059 67.09 129.269 66.8833 129.409 66.63L129.989 66.97C129.769 67.3233 129.469 67.6033 129.089 67.81C128.709 68.0167 128.275 68.12 127.789 68.12C127.002 68.12 126.362 67.8733 125.869 67.38C125.375 66.8867 125.129 66.26 125.129 65.5C125.129 64.7533 125.372 64.13 125.859 63.63C126.345 63.13 126.972 62.88 127.739 62.88ZM127.739 63.52C127.219 63.52 126.782 63.6767 126.429 63.99C126.082 64.2967 125.875 64.6967 125.809 65.19H129.539C129.472 64.6633 129.269 64.2533 128.929 63.96C128.589 63.6667 128.192 63.52 127.739 63.52ZM131.928 63.83C132.235 63.2233 132.762 62.92 133.508 62.92V63.56C133.055 63.56 132.678 63.6933 132.378 63.96C132.078 64.2267 131.928 64.6467 131.928 65.22V68H131.268V63H131.928V63.83Z" fill="#A5A5A5"/>
<path d="M59.5 144.34H62.9V145H58.8V138H62.85V138.66H59.5V141.14H62.6V141.8H59.5V144.34ZM66.3427 139.88C66.9494 139.88 67.4261 140.067 67.7727 140.44C68.1261 140.807 68.3027 141.303 68.3027 141.93V145H67.6427V141.93C67.6427 141.483 67.5227 141.137 67.2827 140.89C67.0494 140.643 66.7161 140.52 66.2827 140.52C65.8027 140.52 65.4127 140.673 65.1127 140.98C64.8127 141.28 64.6627 141.747 64.6627 142.38V145H64.0027V140H64.6627V140.78C65.0361 140.18 65.5961 139.88 66.3427 139.88ZM72.2289 140.64H70.7889V143.67C70.7889 143.943 70.8422 144.14 70.9489 144.26C71.0556 144.373 71.2156 144.433 71.4289 144.44C71.6422 144.44 71.9089 144.433 72.2289 144.42V145C71.5289 145.107 71.0022 145.057 70.6489 144.85C70.3022 144.643 70.1289 144.25 70.1289 143.67V140.64H69.0789V140H70.1289V138.8L70.7889 138.6V140H72.2289V140.64ZM75.3362 139.88C76.0762 139.88 76.6728 140.143 77.1262 140.67C77.5862 141.19 77.8162 141.807 77.8162 142.52C77.8162 142.593 77.8095 142.697 77.7962 142.83H73.4062C73.4728 143.337 73.6862 143.74 74.0462 144.04C74.4128 144.333 74.8628 144.48 75.3962 144.48C75.7762 144.48 76.1028 144.403 76.3762 144.25C76.6562 144.09 76.8662 143.883 77.0062 143.63L77.5862 143.97C77.3662 144.323 77.0662 144.603 76.6862 144.81C76.3062 145.017 75.8728 145.12 75.3862 145.12C74.5995 145.12 73.9595 144.873 73.4662 144.38C72.9728 143.887 72.7262 143.26 72.7262 142.5C72.7262 141.753 72.9695 141.13 73.4562 140.63C73.9428 140.13 74.5695 139.88 75.3362 139.88ZM75.3362 140.52C74.8162 140.52 74.3795 140.677 74.0262 140.99C73.6795 141.297 73.4728 141.697 73.4062 142.19H77.1362C77.0695 141.663 76.8662 141.253 76.5262 140.96C76.1862 140.667 75.7895 140.52 75.3362 140.52ZM79.526 140.83C79.8327 140.223 80.3593 139.92 81.106 139.92V140.56C80.6527 140.56 80.276 140.693 79.976 140.96C79.676 141.227 79.526 141.647 79.526 142.22V145H78.866V140H79.526V140.83ZM89.2705 145L88.6205 143.28H85.3005L84.6505 145H83.9105L86.6005 138H87.3205L90.0105 145H89.2705ZM85.5505 142.62H88.3705L86.9605 138.87L85.5505 142.62ZM96.1394 139.88C96.6994 139.88 97.1494 140.06 97.4894 140.42C97.836 140.78 98.0094 141.267 98.0094 141.88V145H97.3494V141.88C97.3494 141.447 97.236 141.113 97.0094 140.88C96.7894 140.64 96.496 140.52 96.1294 140.52C95.716 140.52 95.3794 140.66 95.1194 140.94C94.866 141.213 94.7394 141.643 94.7394 142.23V145H94.0794V141.88C94.0794 141.44 93.9727 141.103 93.7594 140.87C93.5527 140.637 93.2694 140.52 92.9094 140.52C92.5094 140.52 92.1694 140.66 91.8894 140.94C91.6094 141.22 91.4694 141.65 91.4694 142.23V145H90.8094V140H91.4694V140.73C91.8294 140.163 92.3394 139.88 92.9994 139.88C93.7194 139.88 94.226 140.183 94.5194 140.79C94.8794 140.183 95.4194 139.88 96.1394 139.88ZM103.476 144.37C102.969 144.87 102.349 145.12 101.616 145.12C100.883 145.12 100.259 144.87 99.7459 144.37C99.2393 143.863 98.9859 143.24 98.9859 142.5C98.9859 141.76 99.2393 141.14 99.7459 140.64C100.259 140.133 100.883 139.88 101.616 139.88C102.349 139.88 102.969 140.133 103.476 140.64C103.989 141.14 104.246 141.76 104.246 142.5C104.246 143.24 103.989 143.863 103.476 144.37ZM100.216 143.91C100.596 144.29 101.063 144.48 101.616 144.48C102.169 144.48 102.636 144.29 103.016 143.91C103.396 143.523 103.586 143.053 103.586 142.5C103.586 141.947 103.396 141.48 103.016 141.1C102.636 140.713 102.169 140.52 101.616 140.52C101.063 140.52 100.596 140.713 100.216 141.1C99.8359 141.48 99.6459 141.947 99.6459 142.5C99.6459 143.053 99.8359 143.523 100.216 143.91ZM108.87 140H109.53V145H108.87V144.22C108.497 144.82 107.937 145.12 107.19 145.12C106.584 145.12 106.104 144.937 105.75 144.57C105.404 144.197 105.23 143.697 105.23 143.07V140H105.89V143.07C105.89 143.517 106.007 143.863 106.24 144.11C106.48 144.357 106.817 144.48 107.25 144.48C107.73 144.48 108.12 144.33 108.42 144.03C108.72 143.723 108.87 143.253 108.87 142.62V140ZM113.267 139.88C113.873 139.88 114.35 140.067 114.697 140.44C115.05 140.807 115.227 141.303 115.227 141.93V145H114.567V141.93C114.567 141.483 114.447 141.137 114.207 140.89C113.973 140.643 113.64 140.52 113.207 140.52C112.727 140.52 112.337 140.673 112.037 140.98C111.737 141.28 111.587 141.747 111.587 142.38V145H110.927V140H111.587V140.78C111.96 140.18 112.52 139.88 113.267 139.88ZM119.153 140.64H117.713V143.67C117.713 143.943 117.766 144.14 117.873 144.26C117.979 144.373 118.139 144.433 118.353 144.44C118.566 144.44 118.833 144.433 119.153 144.42V145C118.453 145.107 117.926 145.057 117.573 144.85C117.226 144.643 117.053 144.25 117.053 143.67V140.64H116.003V140H117.053V138.8L117.713 138.6V140H119.153V140.64Z" fill="#A5A5A5"/>
<path d="M59.5 221.34H62.9V222H58.8V215H62.85V215.66H59.5V218.14H62.6V218.8H59.5V221.34ZM66.3427 216.88C66.9494 216.88 67.4261 217.067 67.7727 217.44C68.1261 217.807 68.3027 218.303 68.3027 218.93V222H67.6427V218.93C67.6427 218.483 67.5227 218.137 67.2827 217.89C67.0494 217.643 66.7161 217.52 66.2827 217.52C65.8027 217.52 65.4127 217.673 65.1127 217.98C64.8127 218.28 64.6627 218.747 64.6627 219.38V222H64.0027V217H64.6627V217.78C65.0361 217.18 65.5961 216.88 66.3427 216.88ZM72.2289 217.64H70.7889V220.67C70.7889 220.943 70.8422 221.14 70.9489 221.26C71.0556 221.373 71.2156 221.433 71.4289 221.44C71.6422 221.44 71.9089 221.433 72.2289 221.42V222C71.5289 222.107 71.0022 222.057 70.6489 221.85C70.3022 221.643 70.1289 221.25 70.1289 220.67V217.64H69.0789V217H70.1289V215.8L70.7889 215.6V217H72.2289V217.64ZM75.3362 216.88C76.0762 216.88 76.6728 217.143 77.1262 217.67C77.5862 218.19 77.8162 218.807 77.8162 219.52C77.8162 219.593 77.8095 219.697 77.7962 219.83H73.4062C73.4728 220.337 73.6862 220.74 74.0462 221.04C74.4128 221.333 74.8628 221.48 75.3962 221.48C75.7762 221.48 76.1028 221.403 76.3762 221.25C76.6562 221.09 76.8662 220.883 77.0062 220.63L77.5862 220.97C77.3662 221.323 77.0662 221.603 76.6862 221.81C76.3062 222.017 75.8728 222.12 75.3862 222.12C74.5995 222.12 73.9595 221.873 73.4662 221.38C72.9728 220.887 72.7262 220.26 72.7262 219.5C72.7262 218.753 72.9695 218.13 73.4562 217.63C73.9428 217.13 74.5695 216.88 75.3362 216.88ZM75.3362 217.52C74.8162 217.52 74.3795 217.677 74.0262 217.99C73.6795 218.297 73.4728 218.697 73.4062 219.19H77.1362C77.0695 218.663 76.8662 218.253 76.5262 217.96C76.1862 217.667 75.7895 217.52 75.3362 217.52ZM79.526 217.83C79.8327 217.223 80.3593 216.92 81.106 216.92V217.56C80.6527 217.56 80.276 217.693 79.976 217.96C79.676 218.227 79.526 218.647 79.526 219.22V222H78.866V217H79.526V217.83ZM89.1105 215H89.8105V222H89.2105L85.3105 216.3V222H84.6105V215H85.2105L89.1105 220.7V215ZM95.4974 221.37C94.9908 221.87 94.3708 222.12 93.6374 222.12C92.9041 222.12 92.2808 221.87 91.7674 221.37C91.2608 220.863 91.0074 220.24 91.0074 219.5C91.0074 218.76 91.2608 218.14 91.7674 217.64C92.2808 217.133 92.9041 216.88 93.6374 216.88C94.3708 216.88 94.9908 217.133 95.4974 217.64C96.0108 218.14 96.2674 218.76 96.2674 219.5C96.2674 220.24 96.0108 220.863 95.4974 221.37ZM92.2374 220.91C92.6174 221.29 93.0841 221.48 93.6374 221.48C94.1908 221.48 94.6574 221.29 95.0374 220.91C95.4174 220.523 95.6074 220.053 95.6074 219.5C95.6074 218.947 95.4174 218.48 95.0374 218.1C94.6574 217.713 94.1908 217.52 93.6374 217.52C93.0841 217.52 92.6174 217.713 92.2374 218.1C91.8574 218.48 91.6674 218.947 91.6674 219.5C91.6674 220.053 91.8574 220.523 92.2374 220.91ZM99.9242 217.64H98.4842V220.67C98.4842 220.943 98.5376 221.14 98.6442 221.26C98.7509 221.373 98.9109 221.433 99.1242 221.44C99.3376 221.44 99.6042 221.433 99.9242 221.42V222C99.2242 222.107 98.6976 222.057 98.3442 221.85C97.9976 221.643 97.8242 221.25 97.8242 220.67V217.64H96.7742V217H97.8242V215.8L98.4842 215.6V217H99.9242V217.64ZM103.031 216.88C103.771 216.88 104.368 217.143 104.821 217.67C105.281 218.19 105.511 218.807 105.511 219.52C105.511 219.593 105.505 219.697 105.491 219.83H101.101C101.168 220.337 101.381 220.74 101.741 221.04C102.108 221.333 102.558 221.48 103.091 221.48C103.471 221.48 103.798 221.403 104.071 221.25C104.351 221.09 104.561 220.883 104.701 220.63L105.281 220.97C105.061 221.323 104.761 221.603 104.381 221.81C104.001 222.017 103.568 222.12 103.081 222.12C102.295 222.12 101.655 221.873 101.161 221.38C100.668 220.887 100.421 220.26 100.421 219.5C100.421 218.753 100.665 218.13 101.151 217.63C101.638 217.13 102.265 216.88 103.031 216.88ZM103.031 217.52C102.511 217.52 102.075 217.677 101.721 217.99C101.375 218.297 101.168 218.697 101.101 219.19H104.831C104.765 218.663 104.561 218.253 104.221 217.96C103.881 217.667 103.485 217.52 103.031 217.52ZM106.886 218.31C106.886 218.537 106.986 218.717 107.186 218.85C107.386 218.983 107.629 219.087 107.916 219.16C108.203 219.233 108.489 219.317 108.776 219.41C109.063 219.497 109.306 219.647 109.506 219.86C109.706 220.067 109.806 220.34 109.806 220.68C109.806 221.107 109.636 221.453 109.296 221.72C108.963 221.987 108.529 222.12 107.996 222.12C107.516 222.12 107.106 222.013 106.766 221.8C106.433 221.587 106.199 221.31 106.066 220.97L106.626 220.64C106.719 220.9 106.886 221.107 107.126 221.26C107.373 221.407 107.663 221.48 107.996 221.48C108.323 221.48 108.596 221.417 108.816 221.29C109.036 221.157 109.146 220.953 109.146 220.68C109.146 220.453 109.046 220.273 108.846 220.14C108.646 220.007 108.403 219.903 108.116 219.83C107.829 219.757 107.543 219.677 107.256 219.59C106.969 219.497 106.726 219.347 106.526 219.14C106.326 218.927 106.226 218.65 106.226 218.31C106.226 217.903 106.386 217.563 106.706 217.29C107.033 217.017 107.443 216.88 107.936 216.88C108.343 216.88 108.699 216.973 109.006 217.16C109.313 217.34 109.539 217.587 109.686 217.9L109.136 218.22C108.943 217.753 108.543 217.52 107.936 217.52C107.649 217.52 107.403 217.59 107.196 217.73C106.989 217.863 106.886 218.057 106.886 218.31Z" fill="#A5A5A5"/>
<path d="M359 145.12C358.36 145.12 357.81 144.97 357.35 144.67C356.897 144.363 356.58 143.943 356.4 143.41L357 143.06C357.127 143.493 357.36 143.833 357.7 144.08C358.04 144.32 358.477 144.44 359.01 144.44C359.53 144.44 359.933 144.327 360.22 144.1C360.513 143.867 360.66 143.56 360.66 143.18C360.66 142.813 360.527 142.537 360.26 142.35C359.993 142.163 359.553 141.97 358.94 141.77C358.213 141.53 357.733 141.337 357.5 141.19C356.967 140.87 356.7 140.407 356.7 139.8C356.7 139.207 356.907 138.74 357.32 138.4C357.733 138.053 358.243 137.88 358.85 137.88C359.397 137.88 359.87 138.023 360.27 138.31C360.67 138.59 360.967 138.95 361.16 139.39L360.57 139.72C360.25 138.947 359.677 138.56 358.85 138.56C358.417 138.56 358.067 138.667 357.8 138.88C357.533 139.093 357.4 139.39 357.4 139.77C357.4 140.117 357.52 140.377 357.76 140.55C358 140.723 358.397 140.9 358.95 141.08C359.203 141.167 359.383 141.23 359.49 141.27C359.603 141.303 359.763 141.363 359.97 141.45C360.183 141.53 360.34 141.603 360.44 141.67C360.54 141.73 360.66 141.817 360.8 141.93C360.947 142.037 361.05 142.147 361.11 142.26C361.177 142.367 361.233 142.5 361.28 142.66C361.333 142.813 361.36 142.98 361.36 143.16C361.36 143.753 361.143 144.23 360.71 144.59C360.277 144.943 359.707 145.12 359 145.12ZM364.869 139.88C365.609 139.88 366.206 140.143 366.659 140.67C367.119 141.19 367.349 141.807 367.349 142.52C367.349 142.593 367.343 142.697 367.329 142.83H362.939C363.006 143.337 363.219 143.74 363.579 144.04C363.946 144.333 364.396 144.48 364.929 144.48C365.309 144.48 365.636 144.403 365.909 144.25C366.189 144.09 366.399 143.883 366.539 143.63L367.119 143.97C366.899 144.323 366.599 144.603 366.219 144.81C365.839 145.017 365.406 145.12 364.919 145.12C364.133 145.12 363.493 144.873 362.999 144.38C362.506 143.887 362.259 143.26 362.259 142.5C362.259 141.753 362.503 141.13 362.989 140.63C363.476 140.13 364.103 139.88 364.869 139.88ZM364.869 140.52C364.349 140.52 363.913 140.677 363.559 140.99C363.213 141.297 363.006 141.697 362.939 142.19H366.669C366.603 141.663 366.399 141.253 366.059 140.96C365.719 140.667 365.323 140.52 364.869 140.52ZM368.399 145V137.7H369.059V145H368.399ZM372.77 139.88C373.51 139.88 374.106 140.143 374.56 140.67C375.02 141.19 375.25 141.807 375.25 142.52C375.25 142.593 375.243 142.697 375.23 142.83H370.84C370.906 143.337 371.12 143.74 371.48 144.04C371.846 144.333 372.296 144.48 372.83 144.48C373.21 144.48 373.536 144.403 373.81 144.25C374.09 144.09 374.3 143.883 374.44 143.63L375.02 143.97C374.8 144.323 374.5 144.603 374.12 144.81C373.74 145.017 373.306 145.12 372.82 145.12C372.033 145.12 371.393 144.873 370.9 144.38C370.406 143.887 370.16 143.26 370.16 142.5C370.16 141.753 370.403 141.13 370.89 140.63C371.376 140.13 372.003 139.88 372.77 139.88ZM372.77 140.52C372.25 140.52 371.813 140.677 371.46 140.99C371.113 141.297 370.906 141.697 370.84 142.19H374.57C374.503 141.663 374.3 141.253 373.96 140.96C373.62 140.667 373.223 140.52 372.77 140.52ZM378.63 145.12C377.876 145.12 377.25 144.87 376.75 144.37C376.25 143.863 376 143.24 376 142.5C376 141.76 376.25 141.14 376.75 140.64C377.25 140.133 377.876 139.88 378.63 139.88C379.123 139.88 379.566 140 379.96 140.24C380.353 140.473 380.64 140.79 380.82 141.19L380.28 141.5C380.146 141.2 379.93 140.963 379.63 140.79C379.336 140.61 379.003 140.52 378.63 140.52C378.076 140.52 377.61 140.713 377.23 141.1C376.85 141.48 376.66 141.947 376.66 142.5C376.66 143.053 376.85 143.523 377.23 143.91C377.61 144.29 378.076 144.48 378.63 144.48C379.003 144.48 379.336 144.393 379.63 144.22C379.923 144.04 380.153 143.8 380.32 143.5L380.87 143.82C380.663 144.22 380.36 144.537 379.96 144.77C379.56 145.003 379.116 145.12 378.63 145.12ZM384.467 140.64H383.027V143.67C383.027 143.943 383.081 144.14 383.187 144.26C383.294 144.373 383.454 144.433 383.667 144.44C383.881 144.44 384.147 144.433 384.467 144.42V145C383.767 145.107 383.241 145.057 382.887 144.85C382.541 144.643 382.367 144.25 382.367 143.67V140.64H381.317V140H382.367V138.8L383.027 138.6V140H384.467V140.64ZM391.437 145.12C390.377 145.12 389.501 144.77 388.807 144.07C388.114 143.37 387.767 142.513 387.767 141.5C387.767 140.487 388.114 139.63 388.807 138.93C389.501 138.23 390.377 137.88 391.437 137.88C392.084 137.88 392.677 138.037 393.217 138.35C393.757 138.657 394.174 139.073 394.467 139.6L393.847 139.96C393.627 139.533 393.301 139.193 392.867 138.94C392.434 138.687 391.957 138.56 391.437 138.56C390.564 138.56 389.851 138.843 389.297 139.41C388.744 139.977 388.467 140.673 388.467 141.5C388.467 142.327 388.744 143.023 389.297 143.59C389.851 144.157 390.564 144.44 391.437 144.44C391.957 144.44 392.434 144.313 392.867 144.06C393.301 143.807 393.627 143.467 393.847 143.04L394.467 143.39C394.181 143.917 393.764 144.337 393.217 144.65C392.677 144.963 392.084 145.12 391.437 145.12ZM399.77 140H400.43V145H399.77V144.02C399.31 144.753 398.636 145.12 397.75 145.12C397.036 145.12 396.426 144.867 395.92 144.36C395.42 143.853 395.17 143.233 395.17 142.5C395.17 141.767 395.42 141.147 395.92 140.64C396.426 140.133 397.036 139.88 397.75 139.88C398.636 139.88 399.31 140.247 399.77 140.98V140ZM396.4 143.91C396.78 144.29 397.246 144.48 397.8 144.48C398.353 144.48 398.82 144.29 399.2 143.91C399.58 143.523 399.77 143.053 399.77 142.5C399.77 141.947 399.58 141.48 399.2 141.1C398.82 140.713 398.353 140.52 397.8 140.52C397.246 140.52 396.78 140.713 396.4 141.1C396.02 141.48 395.83 141.947 395.83 142.5C395.83 143.053 396.02 143.523 396.4 143.91ZM404.477 140.64H403.037V143.67C403.037 143.943 403.09 144.14 403.197 144.26C403.304 144.373 403.464 144.433 403.677 144.44C403.89 144.44 404.157 144.433 404.477 144.42V145C403.777 145.107 403.25 145.057 402.897 144.85C402.55 144.643 402.377 144.25 402.377 143.67V140.64H401.327V140H402.377V138.8L403.037 138.6V140H404.477V140.64ZM407.584 139.88C408.324 139.88 408.921 140.143 409.374 140.67C409.834 141.19 410.064 141.807 410.064 142.52C410.064 142.593 410.058 142.697 410.044 142.83H405.654C405.721 143.337 405.934 143.74 406.294 144.04C406.661 144.333 407.111 144.48 407.644 144.48C408.024 144.48 408.351 144.403 408.624 144.25C408.904 144.09 409.114 143.883 409.254 143.63L409.834 143.97C409.614 144.323 409.314 144.603 408.934 144.81C408.554 145.017 408.121 145.12 407.634 145.12C406.848 145.12 406.208 144.873 405.714 144.38C405.221 143.887 404.974 143.26 404.974 142.5C404.974 141.753 405.218 141.13 405.704 140.63C406.191 140.13 406.818 139.88 407.584 139.88ZM407.584 140.52C407.064 140.52 406.628 140.677 406.274 140.99C405.928 141.297 405.721 141.697 405.654 142.19H409.384C409.318 141.663 409.114 141.253 408.774 140.96C408.434 140.667 408.038 140.52 407.584 140.52ZM415.414 140H416.074V144.8C416.074 145.52 415.827 146.087 415.334 146.5C414.841 146.913 414.251 147.12 413.564 147.12C412.391 147.12 411.601 146.713 411.194 145.9L411.774 145.57C412.074 146.177 412.671 146.48 413.564 146.48C414.137 146.48 414.587 146.327 414.914 146.02C415.247 145.72 415.414 145.313 415.414 144.8V144.02C414.954 144.753 414.281 145.12 413.394 145.12C412.681 145.12 412.071 144.867 411.564 144.36C411.064 143.853 410.814 143.233 410.814 142.5C410.814 141.767 411.064 141.147 411.564 140.64C412.071 140.133 412.681 139.88 413.394 139.88C414.281 139.88 414.954 140.247 415.414 140.98V140ZM412.044 143.91C412.424 144.29 412.891 144.48 413.444 144.48C413.997 144.48 414.464 144.29 414.844 143.91C415.224 143.523 415.414 143.053 415.414 142.5C415.414 141.947 415.224 141.48 414.844 141.1C414.464 140.713 413.997 140.52 413.444 140.52C412.891 140.52 412.424 140.713 412.044 141.1C411.664 141.48 411.474 141.947 411.474 142.5C411.474 143.053 411.664 143.523 412.044 143.91ZM421.661 144.37C421.155 144.87 420.535 145.12 419.801 145.12C419.068 145.12 418.445 144.87 417.931 144.37C417.425 143.863 417.171 143.24 417.171 142.5C417.171 141.76 417.425 141.14 417.931 140.64C418.445 140.133 419.068 139.88 419.801 139.88C420.535 139.88 421.155 140.133 421.661 140.64C422.175 141.14 422.431 141.76 422.431 142.5C422.431 143.24 422.175 143.863 421.661 144.37ZM418.401 143.91C418.781 144.29 419.248 144.48 419.801 144.48C420.355 144.48 420.821 144.29 421.201 143.91C421.581 143.523 421.771 143.053 421.771 142.5C421.771 141.947 421.581 141.48 421.201 141.1C420.821 140.713 420.355 140.52 419.801 140.52C419.248 140.52 418.781 140.713 418.401 141.1C418.021 141.48 417.831 141.947 417.831 142.5C417.831 143.053 418.021 143.523 418.401 143.91ZM424.196 140.83C424.503 140.223 425.029 139.92 425.776 139.92V140.56C425.323 140.56 424.946 140.693 424.646 140.96C424.346 141.227 424.196 141.647 424.196 142.22V145H423.536V140H424.196V140.83ZM430.378 140H431.078L428.938 145.46C428.745 145.953 428.468 146.34 428.108 146.62C427.755 146.907 427.358 147.033 426.918 147V146.38C427.518 146.447 427.975 146.1 428.288 145.34L428.418 145.03L426.178 140H426.878L428.758 144.19L430.378 140Z" fill="#A5A5A5"/>
</svg>
