<svg width="233" height="288" viewBox="0 0 233 288" fill="none" xmlns="http://www.w3.org/2000/svg">
<rect width="232.058" height="288" rx="20" fill="white"/>
<rect x="0.5" y="0.5" width="231.058" height="287" rx="19.5" stroke="#0A0C33" stroke-opacity="0.1"/>
<rect x="11.7402" y="241.037" width="207.885" height="33.1511" rx="16.5755" fill="#0A0C33"/>
<path d="M93.3833 256.24V256.78C93.3833 257.78 93.0633 258.59 92.4233 259.21C91.7833 259.83 90.9566 260.14 89.9433 260.14C88.8633 260.14 87.9666 259.79 87.2533 259.09C86.5466 258.383 86.1933 257.523 86.1933 256.51C86.1933 255.49 86.5433 254.627 87.2433 253.92C87.9499 253.213 88.8233 252.86 89.8633 252.86C90.5166 252.86 91.1133 253.01 91.6533 253.31C92.1933 253.603 92.6133 253.997 92.9133 254.49L91.7333 255.17C91.5666 254.883 91.3133 254.65 90.9733 254.47C90.6399 254.29 90.2666 254.2 89.8533 254.2C89.1866 254.2 88.6366 254.42 88.2033 254.86C87.7766 255.293 87.5633 255.843 87.5633 256.51C87.5633 257.17 87.7799 257.717 88.2133 258.15C88.6533 258.577 89.2333 258.79 89.9533 258.79C90.4866 258.79 90.9266 258.673 91.2733 258.44C91.6266 258.2 91.8666 257.873 91.9933 257.46H89.8733V256.24H93.3833ZM95.3948 258.03C95.5682 258.657 96.0382 258.97 96.8048 258.97C97.2982 258.97 97.6715 258.803 97.9248 258.47L98.9648 259.07C98.4715 259.783 97.7448 260.14 96.7848 260.14C95.9582 260.14 95.2948 259.89 94.7948 259.39C94.2948 258.89 94.0448 258.26 94.0448 257.5C94.0448 256.747 94.2915 256.12 94.7848 255.62C95.2782 255.113 95.9115 254.86 96.6848 254.86C97.4182 254.86 98.0215 255.113 98.4948 255.62C98.9748 256.127 99.2148 256.753 99.2148 257.5C99.2148 257.667 99.1982 257.843 99.1648 258.03H95.3948ZM95.3748 257.03H97.9248C97.8515 256.69 97.6982 256.437 97.4648 256.27C97.2382 256.103 96.9782 256.02 96.6848 256.02C96.3382 256.02 96.0515 256.11 95.8248 256.29C95.5982 256.463 95.4482 256.71 95.3748 257.03ZM102.895 254.86C103.442 254.86 103.892 255.043 104.245 255.41C104.605 255.777 104.785 256.283 104.785 256.93V260H103.495V257.09C103.495 256.757 103.405 256.503 103.225 256.33C103.045 256.15 102.805 256.06 102.505 256.06C102.172 256.06 101.905 256.163 101.705 256.37C101.505 256.577 101.405 256.887 101.405 257.3V260H100.115V255H101.405V255.56C101.719 255.093 102.215 254.86 102.895 254.86ZM106.977 258.03C107.15 258.657 107.62 258.97 108.387 258.97C108.88 258.97 109.254 258.803 109.507 258.47L110.547 259.07C110.054 259.783 109.327 260.14 108.367 260.14C107.54 260.14 106.877 259.89 106.377 259.39C105.877 258.89 105.627 258.26 105.627 257.5C105.627 256.747 105.874 256.12 106.367 255.62C106.86 255.113 107.494 254.86 108.267 254.86C109 254.86 109.604 255.113 110.077 255.62C110.557 256.127 110.797 256.753 110.797 257.5C110.797 257.667 110.78 257.843 110.747 258.03H106.977ZM106.957 257.03H109.507C109.434 256.69 109.28 256.437 109.047 256.27C108.82 256.103 108.56 256.02 108.267 256.02C107.92 256.02 107.634 256.11 107.407 256.29C107.18 256.463 107.03 256.71 106.957 257.03ZM112.987 255.86C113.107 255.54 113.304 255.3 113.577 255.14C113.857 254.98 114.167 254.9 114.507 254.9V256.34C114.114 256.293 113.761 256.373 113.447 256.58C113.141 256.787 112.987 257.13 112.987 257.61V260H111.697V255H112.987V255.86ZM118.876 255H120.166V260H118.876V259.41C118.49 259.897 117.946 260.14 117.246 260.14C116.58 260.14 116.006 259.887 115.526 259.38C115.053 258.867 114.816 258.24 114.816 257.5C114.816 256.76 115.053 256.137 115.526 255.63C116.006 255.117 116.58 254.86 117.246 254.86C117.946 254.86 118.49 255.103 118.876 255.59V255ZM116.496 258.52C116.756 258.78 117.086 258.91 117.486 258.91C117.886 258.91 118.216 258.78 118.476 258.52C118.743 258.253 118.876 257.913 118.876 257.5C118.876 257.087 118.743 256.75 118.476 256.49C118.216 256.223 117.886 256.09 117.486 256.09C117.086 256.09 116.756 256.223 116.496 256.49C116.236 256.75 116.106 257.087 116.106 257.5C116.106 257.913 116.236 258.253 116.496 258.52ZM124.196 256.24H123.066V258.32C123.066 258.493 123.109 258.62 123.196 258.7C123.283 258.78 123.409 258.827 123.576 258.84C123.743 258.847 123.949 258.843 124.196 258.83V260C123.309 260.1 122.683 260.017 122.316 259.75C121.956 259.483 121.776 259.007 121.776 258.32V256.24H120.906V255H121.776V253.99L123.066 253.6V255H124.196V256.24ZM126.039 258.03C126.213 258.657 126.683 258.97 127.449 258.97C127.943 258.97 128.316 258.803 128.569 258.47L129.609 259.07C129.116 259.783 128.389 260.14 127.429 260.14C126.603 260.14 125.939 259.89 125.439 259.39C124.939 258.89 124.689 258.26 124.689 257.5C124.689 256.747 124.936 256.12 125.429 255.62C125.923 255.113 126.556 254.86 127.329 254.86C128.063 254.86 128.666 255.113 129.139 255.62C129.619 256.127 129.859 256.753 129.859 257.5C129.859 257.667 129.843 257.843 129.809 258.03H126.039ZM126.019 257.03H128.569C128.496 256.69 128.343 256.437 128.109 256.27C127.883 256.103 127.623 256.02 127.329 256.02C126.983 256.02 126.696 256.11 126.469 256.29C126.243 256.463 126.093 256.71 126.019 257.03ZM137.55 256.37C138.163 256.723 138.47 257.257 138.47 257.97C138.47 258.563 138.26 259.05 137.84 259.43C137.42 259.81 136.903 260 136.29 260H133.32V253H136.08C136.68 253 137.183 253.187 137.59 253.56C138.003 253.927 138.21 254.397 138.21 254.97C138.21 255.55 137.99 256.017 137.55 256.37ZM136.08 254.29H134.7V255.83H136.08C136.293 255.83 136.47 255.757 136.61 255.61C136.757 255.463 136.83 255.28 136.83 255.06C136.83 254.84 136.76 254.657 136.62 254.51C136.48 254.363 136.3 254.29 136.08 254.29ZM136.29 258.71C136.523 258.71 136.717 258.633 136.87 258.48C137.023 258.32 137.1 258.12 137.1 257.88C137.1 257.647 137.023 257.453 136.87 257.3C136.717 257.14 136.523 257.06 136.29 257.06H134.7V258.71H136.29ZM139.955 254.4C139.741 254.4 139.555 254.323 139.395 254.17C139.241 254.01 139.165 253.823 139.165 253.61C139.165 253.397 139.241 253.21 139.395 253.05C139.555 252.89 139.741 252.81 139.955 252.81C140.175 252.81 140.361 252.89 140.515 253.05C140.675 253.21 140.755 253.397 140.755 253.61C140.755 253.823 140.675 254.01 140.515 254.17C140.361 254.323 140.175 254.4 139.955 254.4ZM139.315 260V255H140.605V260H139.315ZM141.785 260V252.7H143.075V260H141.785ZM144.256 260V252.7H145.546V260H144.256Z" fill="white"/>
<path fill-rule="evenodd" clip-rule="evenodd" d="M20 52.3779C19.4696 52.3779 18.9609 52.5886 18.5858 52.9637C18.2107 53.3388 18 53.8475 18 54.3779V68.3779C18 68.9084 18.2107 69.4171 18.5858 69.7921C18.9609 70.1672 19.4696 70.3779 20 70.3779H34C34.5304 70.3779 35.0391 70.1672 35.4142 69.7921C35.7893 69.4171 36 68.9084 36 68.3779V54.3779C36 53.8475 35.7893 53.3388 35.4142 52.9637C35.0391 52.5886 34.5304 52.3779 34 52.3779H20ZM31.95 59.1739C32.1376 58.9864 32.2431 58.7321 32.2432 58.4668C32.2433 58.2015 32.138 57.9471 31.9505 57.7594C31.763 57.5718 31.5086 57.4663 31.2434 57.4662C30.9781 57.4661 30.7236 57.5714 30.536 57.7589L25.586 62.7089L23.465 60.5879C23.3722 60.495 23.2619 60.4213 23.1406 60.371C23.0193 60.3207 22.8892 60.2948 22.7579 60.2947C22.4926 60.2946 22.2381 60.3999 22.0505 60.5874C21.8629 60.7749 21.7574 61.0293 21.7573 61.2946C21.7572 61.5598 21.8625 61.8143 22.05 62.0019L24.808 64.7599C24.9102 64.8621 25.0314 64.9432 25.1649 64.9985C25.2984 65.0538 25.4415 65.0823 25.586 65.0823C25.7305 65.0823 25.8736 65.0538 26.0071 64.9985C26.1406 64.9432 26.2618 64.8621 26.364 64.7599L31.95 59.1739Z" fill="#0A0C33"/>
<rect x="59" y="57.3779" width="60" height="9" rx="4.5" fill="#ECECEC"/>
<rect x="129" y="57.3779" width="30" height="9" rx="4.5" fill="#ECECEC"/>
<rect x="171" y="57.3779" width="45" height="9" rx="4.5" fill="#ECECEC"/>
<path fill-rule="evenodd" clip-rule="evenodd" d="M20 91.3779C19.4696 91.3779 18.9609 91.5886 18.5858 91.9637C18.2107 92.3388 18 92.8475 18 93.3779V107.378C18 107.908 18.2107 108.417 18.5858 108.792C18.9609 109.167 19.4696 109.378 20 109.378H34C34.5304 109.378 35.0391 109.167 35.4142 108.792C35.7893 108.417 36 107.908 36 107.378V93.3779C36 92.8475 35.7893 92.3388 35.4142 91.9637C35.0391 91.5886 34.5304 91.3779 34 91.3779H20ZM31.95 98.1739C32.1376 97.9864 32.2431 97.7321 32.2432 97.4668C32.2433 97.2015 32.138 96.9471 31.9505 96.7594C31.763 96.5718 31.5086 96.4663 31.2434 96.4662C30.9781 96.4661 30.7236 96.5714 30.536 96.7589L25.586 101.709L23.465 99.5879C23.3722 99.495 23.2619 99.4213 23.1406 99.371C23.0193 99.3207 22.8892 99.2948 22.7579 99.2947C22.4926 99.2946 22.2381 99.3999 22.0505 99.5874C21.8629 99.7749 21.7574 100.029 21.7573 100.295C21.7572 100.56 21.8625 100.814 22.05 101.002L24.808 103.76C24.9102 103.862 25.0314 103.943 25.1649 103.999C25.2984 104.054 25.4415 104.082 25.586 104.082C25.7305 104.082 25.8736 104.054 26.0071 103.999C26.1406 103.943 26.2618 103.862 26.364 103.76L31.95 98.1739Z" fill="#0A0C33"/>
<rect x="59" y="96.3779" width="60" height="9" rx="4.5" fill="#ECECEC"/>
<rect x="129" y="96.3779" width="30" height="9" rx="4.5" fill="#ECECEC"/>
<rect x="171" y="96.3779" width="45" height="9" rx="4.5" fill="#ECECEC"/>
<path fill-rule="evenodd" clip-rule="evenodd" d="M20 130.378C19.4696 130.378 18.9609 130.589 18.5858 130.964C18.2107 131.339 18 131.847 18 132.378V146.378C18 146.908 18.2107 147.417 18.5858 147.792C18.9609 148.167 19.4696 148.378 20 148.378H34C34.5304 148.378 35.0391 148.167 35.4142 147.792C35.7893 147.417 36 146.908 36 146.378V132.378C36 131.847 35.7893 131.339 35.4142 130.964C35.0391 130.589 34.5304 130.378 34 130.378H20ZM31.95 137.174C32.1376 136.986 32.2431 136.732 32.2432 136.467C32.2433 136.202 32.138 135.947 31.9505 135.759C31.763 135.572 31.5086 135.466 31.2434 135.466C30.9781 135.466 30.7236 135.571 30.536 135.759L25.586 140.709L23.465 138.588C23.3722 138.495 23.2619 138.421 23.1406 138.371C23.0193 138.321 22.8892 138.295 22.7579 138.295C22.4926 138.295 22.2381 138.4 22.0505 138.587C21.8629 138.775 21.7574 139.029 21.7573 139.295C21.7572 139.56 21.8625 139.814 22.05 140.002L24.808 142.76C24.9102 142.862 25.0314 142.943 25.1649 142.999C25.2984 143.054 25.4415 143.082 25.586 143.082C25.7305 143.082 25.8736 143.054 26.0071 142.999C26.1406 142.943 26.2618 142.862 26.364 142.76L31.95 137.174Z" fill="#0A0C33"/>
<rect x="59" y="135.378" width="60" height="9" rx="4.5" fill="#ECECEC"/>
<rect x="129" y="135.378" width="30" height="9" rx="4.5" fill="#ECECEC"/>
<rect x="171" y="135.378" width="45" height="9" rx="4.5" fill="#ECECEC"/>
<path fill-rule="evenodd" clip-rule="evenodd" d="M20 169.378C19.4696 169.378 18.9609 169.589 18.5858 169.964C18.2107 170.339 18 170.847 18 171.378V185.378C18 185.908 18.2107 186.417 18.5858 186.792C18.9609 187.167 19.4696 187.378 20 187.378H34C34.5304 187.378 35.0391 187.167 35.4142 186.792C35.7893 186.417 36 185.908 36 185.378V171.378C36 170.847 35.7893 170.339 35.4142 169.964C35.0391 169.589 34.5304 169.378 34 169.378H20ZM31.95 176.174C32.1376 175.986 32.2431 175.732 32.2432 175.467C32.2433 175.202 32.138 174.947 31.9505 174.759C31.763 174.572 31.5086 174.466 31.2434 174.466C30.9781 174.466 30.7236 174.571 30.536 174.759L25.586 179.709L23.465 177.588C23.3722 177.495 23.2619 177.421 23.1406 177.371C23.0193 177.321 22.8892 177.295 22.7579 177.295C22.4926 177.295 22.2381 177.4 22.0505 177.587C21.8629 177.775 21.7574 178.029 21.7573 178.295C21.7572 178.56 21.8625 178.814 22.05 179.002L24.808 181.76C24.9102 181.862 25.0314 181.943 25.1649 181.999C25.2984 182.054 25.4415 182.082 25.586 182.082C25.7305 182.082 25.8736 182.054 26.0071 181.999C26.1406 181.943 26.2618 181.862 26.364 181.76L31.95 176.174Z" fill="#0A0C33"/>
<rect x="59" y="174.378" width="60" height="9" rx="4.5" fill="#ECECEC"/>
<rect x="129" y="174.378" width="30" height="9" rx="4.5" fill="#ECECEC"/>
<rect x="171" y="174.378" width="45" height="9" rx="4.5" fill="#ECECEC"/>
<path fill-rule="evenodd" clip-rule="evenodd" d="M20 208C19.4696 208 18.9609 208.211 18.5858 208.586C18.2107 208.961 18 209.47 18 210V224C18 224.53 18.2107 225.039 18.5858 225.414C18.9609 225.789 19.4696 226 20 226H34C34.5304 226 35.0391 225.789 35.4142 225.414C35.7893 225.039 36 224.53 36 224V210C36 209.47 35.7893 208.961 35.4142 208.586C35.0391 208.211 34.5304 208 34 208H20ZM31.95 214.796C32.1376 214.608 32.2431 214.354 32.2432 214.089C32.2433 213.824 32.138 213.569 31.9505 213.382C31.763 213.194 31.5086 213.088 31.2434 213.088C30.9781 213.088 30.7236 213.193 30.536 213.381L25.586 218.331L23.465 216.21C23.3722 216.117 23.2619 216.043 23.1406 215.993C23.0193 215.943 22.8892 215.917 22.7579 215.917C22.4926 215.917 22.2381 216.022 22.0505 216.21C21.8629 216.397 21.7574 216.651 21.7573 216.917C21.7572 217.182 21.8625 217.436 22.05 217.624L24.808 220.382C24.9102 220.484 25.0314 220.565 25.1649 220.621C25.2984 220.676 25.4415 220.704 25.586 220.704C25.7305 220.704 25.8736 220.676 26.0071 220.621C26.1406 220.565 26.2618 220.484 26.364 220.382L31.95 214.796Z" fill="#0A0C33"/>
<rect x="59" y="213" width="60" height="9" rx="4.5" fill="#ECECEC"/>
<rect x="129" y="213" width="30" height="9" rx="4.5" fill="#ECECEC"/>
<rect x="171" y="213" width="45" height="9" rx="4.5" fill="#ECECEC"/>
<path d="M24 19.836V20.34C24 21.436 23.624 22.348 22.872 23.076C22.12 23.796 21.124 24.156 19.884 24.156C18.604 24.156 17.544 23.736 16.704 22.896C15.872 22.048 15.456 21.016 15.456 19.8C15.456 18.584 15.872 17.556 16.704 16.716C17.544 15.868 18.596 15.444 19.86 15.444C20.636 15.444 21.348 15.632 21.996 16.008C22.644 16.376 23.144 16.864 23.496 17.472L22.536 18.036C22.296 17.58 21.932 17.216 21.444 16.944C20.964 16.664 20.432 16.524 19.848 16.524C18.888 16.524 18.1 16.84 17.484 17.472C16.868 18.096 16.56 18.872 16.56 19.8C16.56 20.728 16.868 21.504 17.484 22.128C18.108 22.752 18.912 23.064 19.896 23.064C20.736 23.064 21.416 22.86 21.936 22.452C22.456 22.036 22.772 21.5 22.884 20.844H19.8V19.836H24ZM25.981 21.48C26.085 22.016 26.329 22.432 26.713 22.728C27.105 23.024 27.585 23.172 28.153 23.172C28.945 23.172 29.521 22.88 29.881 22.296L30.769 22.8C30.185 23.704 29.305 24.156 28.129 24.156C27.177 24.156 26.401 23.86 25.801 23.268C25.209 22.668 24.913 21.912 24.913 21C24.913 20.096 25.205 19.344 25.789 18.744C26.373 18.144 27.129 17.844 28.057 17.844C28.937 17.844 29.653 18.156 30.205 18.78C30.765 19.396 31.045 20.14 31.045 21.012C31.045 21.164 31.033 21.32 31.009 21.48H25.981ZM28.057 18.828C27.497 18.828 27.033 18.988 26.665 19.308C26.297 19.62 26.069 20.04 25.981 20.568H29.989C29.901 20 29.677 19.568 29.317 19.272C28.957 18.976 28.537 18.828 28.057 18.828ZM35.2331 17.844C35.9371 17.844 36.5011 18.068 36.9251 18.516C37.3491 18.956 37.5611 19.556 37.5611 20.316V24H36.5171V20.376C36.5171 19.888 36.3851 19.512 36.1211 19.248C35.8571 18.976 35.4931 18.84 35.0291 18.84C34.5091 18.84 34.0891 19.004 33.7691 19.332C33.4491 19.652 33.2891 20.148 33.2891 20.82V24H32.2451V18H33.2891V18.864C33.7131 18.184 34.3611 17.844 35.2331 17.844ZM39.7506 21.48C39.8546 22.016 40.0986 22.432 40.4826 22.728C40.8746 23.024 41.3546 23.172 41.9226 23.172C42.7146 23.172 43.2906 22.88 43.6506 22.296L44.5386 22.8C43.9546 23.704 43.0746 24.156 41.8986 24.156C40.9466 24.156 40.1706 23.86 39.5706 23.268C38.9786 22.668 38.6826 21.912 38.6826 21C38.6826 20.096 38.9746 19.344 39.5586 18.744C40.1426 18.144 40.8986 17.844 41.8266 17.844C42.7066 17.844 43.4226 18.156 43.9746 18.78C44.5346 19.396 44.8146 20.14 44.8146 21.012C44.8146 21.164 44.8026 21.32 44.7786 21.48H39.7506ZM41.8266 18.828C41.2666 18.828 40.8026 18.988 40.4346 19.308C40.0666 19.62 39.8386 20.04 39.7506 20.568H43.7586C43.6706 20 43.4466 19.568 43.0866 19.272C42.7266 18.976 42.3066 18.828 41.8266 18.828ZM47.0587 19.008C47.4027 18.264 48.0267 17.892 48.9307 17.892V18.984C48.4187 18.96 47.9787 19.096 47.6107 19.392C47.2427 19.688 47.0587 20.164 47.0587 20.82V24H46.0147V18H47.0587V19.008ZM54.592 18H55.636V24H54.592V22.968C54.072 23.76 53.316 24.156 52.324 24.156C51.484 24.156 50.768 23.852 50.176 23.244C49.584 22.628 49.288 21.88 49.288 21C49.288 20.12 49.584 19.376 50.176 18.768C50.768 18.152 51.484 17.844 52.324 17.844C53.316 17.844 54.072 18.24 54.592 19.032V18ZM52.456 23.148C53.064 23.148 53.572 22.944 53.98 22.536C54.388 22.12 54.592 21.608 54.592 21C54.592 20.392 54.388 19.884 53.98 19.476C53.572 19.06 53.064 18.852 52.456 18.852C51.856 18.852 51.352 19.06 50.944 19.476C50.536 19.884 50.332 20.392 50.332 21C50.332 21.608 50.536 22.12 50.944 22.536C51.352 22.944 51.856 23.148 52.456 23.148ZM60.4818 19.008H58.8858V22.26C58.8858 22.556 58.9418 22.768 59.0538 22.896C59.1738 23.016 59.3538 23.08 59.5938 23.088C59.8338 23.088 60.1298 23.08 60.4818 23.064V24C59.5698 24.12 58.9018 24.048 58.4778 23.784C58.0538 23.512 57.8418 23.004 57.8418 22.26V19.008H56.6538V18H57.8418V16.632L58.8858 16.32V18H60.4818V19.008ZM62.1451 21.48C62.2491 22.016 62.4931 22.432 62.8771 22.728C63.2691 23.024 63.7491 23.172 64.3171 23.172C65.1091 23.172 65.6851 22.88 66.0451 22.296L66.9331 22.8C66.3491 23.704 65.4691 24.156 64.2931 24.156C63.3411 24.156 62.5651 23.86 61.9651 23.268C61.3731 22.668 61.0771 21.912 61.0771 21C61.0771 20.096 61.3691 19.344 61.9531 18.744C62.5371 18.144 63.2931 17.844 64.2211 17.844C65.1011 17.844 65.8171 18.156 66.3691 18.78C66.9291 19.396 67.2091 20.14 67.2091 21.012C67.2091 21.164 67.1971 21.32 67.1731 21.48H62.1451ZM64.2211 18.828C63.6611 18.828 63.1971 18.988 62.8291 19.308C62.4611 19.62 62.2331 20.04 62.1451 20.568H66.1531C66.0651 20 65.8411 19.568 65.4811 19.272C65.1211 18.976 64.7011 18.828 64.2211 18.828ZM76.3172 19.644C76.7012 19.828 77.0052 20.092 77.2292 20.436C77.4612 20.78 77.5772 21.176 77.5772 21.624C77.5772 22.296 77.3412 22.86 76.8692 23.316C76.3972 23.772 75.8212 24 75.1412 24H71.5172V15.6H74.8772C75.5332 15.6 76.0892 15.82 76.5452 16.26C77.0012 16.7 77.2292 17.244 77.2292 17.892C77.2292 18.636 76.9252 19.22 76.3172 19.644ZM74.8772 16.644H72.6332V19.212H74.8772C75.2292 19.212 75.5252 19.088 75.7652 18.84C76.0052 18.592 76.1252 18.288 76.1252 17.928C76.1252 17.576 76.0012 17.276 75.7532 17.028C75.5132 16.772 75.2212 16.644 74.8772 16.644ZM75.1412 22.956C75.5172 22.956 75.8332 22.824 76.0892 22.56C76.3452 22.296 76.4732 21.972 76.4732 21.588C76.4732 21.212 76.3412 20.892 76.0772 20.628C75.8212 20.364 75.5092 20.232 75.1412 20.232H72.6332V22.956H75.1412ZM79.32 16.908C79.12 16.908 78.952 16.84 78.816 16.704C78.68 16.568 78.612 16.404 78.612 16.212C78.612 16.02 78.68 15.856 78.816 15.72C78.952 15.576 79.12 15.504 79.32 15.504C79.512 15.504 79.676 15.576 79.812 15.72C79.948 15.856 80.016 16.02 80.016 16.212C80.016 16.404 79.948 16.568 79.812 16.704C79.676 16.84 79.512 16.908 79.32 16.908ZM78.792 24V18H79.836V24H78.792ZM81.4287 24V15.24H82.4727V24H81.4287ZM84.0654 24V15.24H85.1094V24H84.0654Z" fill="#1E1E1E"/>
<line x1="15" y1="33.8779" x2="216" y2="33.8779" stroke="#E9E9E9"/>
</svg>
