<svg width="280" height="288" viewBox="0 0 280 288" fill="none" xmlns="http://www.w3.org/2000/svg">
<rect width="232.058" height="288" rx="20" fill="white"/>
<rect x="0.5" y="0.5" width="231.058" height="287" rx="19.5" stroke="#0A0C33" stroke-opacity="0.1"/>
<rect x="11.7402" y="241.037" width="207.885" height="33.1511" rx="16.5755" fill="#0A0C33"/>
<path d="M89.1787 253V260H87.8087V255.46L85.8387 258.71H85.6787L83.7087 255.47V260H82.3287V253H83.7487L85.7587 256.31L87.7587 253H89.1787ZM94.223 255H95.513V260H94.223V259.41C93.8363 259.897 93.293 260.14 92.593 260.14C91.9263 260.14 91.353 259.887 90.873 259.38C90.3997 258.867 90.163 258.24 90.163 257.5C90.163 256.76 90.3997 256.137 90.873 255.63C91.353 255.117 91.9263 254.86 92.593 254.86C93.293 254.86 93.8363 255.103 94.223 255.59V255ZM91.843 258.52C92.103 258.78 92.433 258.91 92.833 258.91C93.233 258.91 93.563 258.78 93.823 258.52C94.0897 258.253 94.223 257.913 94.223 257.5C94.223 257.087 94.0897 256.75 93.823 256.49C93.563 256.223 93.233 256.09 92.833 256.09C92.433 256.09 92.103 256.223 91.843 256.49C91.583 256.75 91.453 257.087 91.453 257.5C91.453 257.913 91.583 258.253 91.843 258.52ZM101.293 260H99.7928L97.9728 257.73V260H96.6828V253H97.9728V257.2L99.6928 255H101.233L99.2228 257.47L101.293 260ZM102.665 258.03C102.839 258.657 103.309 258.97 104.075 258.97C104.569 258.97 104.942 258.803 105.195 258.47L106.235 259.07C105.742 259.783 105.015 260.14 104.055 260.14C103.229 260.14 102.565 259.89 102.065 259.39C101.565 258.89 101.315 258.26 101.315 257.5C101.315 256.747 101.562 256.12 102.055 255.62C102.549 255.113 103.182 254.86 103.955 254.86C104.689 254.86 105.292 255.113 105.765 255.62C106.245 256.127 106.485 256.753 106.485 257.5C106.485 257.667 106.469 257.843 106.435 258.03H102.665ZM102.645 257.03H105.195C105.122 256.69 104.969 256.437 104.735 256.27C104.509 256.103 104.249 256.02 103.955 256.02C103.609 256.02 103.322 256.11 103.095 256.29C102.869 256.463 102.719 256.71 102.645 257.03ZM112.556 253C113.229 253 113.796 253.227 114.256 253.68C114.716 254.133 114.946 254.69 114.946 255.35C114.946 256.01 114.716 256.567 114.256 257.02C113.796 257.473 113.229 257.7 112.556 257.7H111.326V260H109.946V253H112.556ZM112.556 256.41C112.849 256.41 113.093 256.31 113.286 256.11C113.479 255.903 113.576 255.65 113.576 255.35C113.576 255.043 113.479 254.79 113.286 254.59C113.093 254.39 112.849 254.29 112.556 254.29H111.326V256.41H112.556ZM119.252 255H120.542V260H119.252V259.41C118.866 259.897 118.322 260.14 117.622 260.14C116.956 260.14 116.382 259.887 115.902 259.38C115.429 258.867 115.192 258.24 115.192 257.5C115.192 256.76 115.429 256.137 115.902 255.63C116.382 255.117 116.956 254.86 117.622 254.86C118.322 254.86 118.866 255.103 119.252 255.59V255ZM116.872 258.52C117.132 258.78 117.462 258.91 117.862 258.91C118.262 258.91 118.592 258.78 118.852 258.52C119.119 258.253 119.252 257.913 119.252 257.5C119.252 257.087 119.119 256.75 118.852 256.49C118.592 256.223 118.262 256.09 117.862 256.09C117.462 256.09 117.132 256.223 116.872 256.49C116.612 256.75 116.482 257.087 116.482 257.5C116.482 257.913 116.612 258.253 116.872 258.52ZM124.972 255H126.352L124.532 260C124.272 260.72 123.925 261.24 123.492 261.56C123.065 261.887 122.532 262.033 121.892 262V260.8C122.239 260.807 122.512 260.733 122.712 260.58C122.919 260.427 123.082 260.18 123.202 259.84L121.152 255H122.562L123.862 258.36L124.972 255ZM132.496 254.86C133.069 254.86 133.526 255.047 133.866 255.42C134.213 255.793 134.386 256.293 134.386 256.92V260H133.096V257.01C133.096 256.71 133.023 256.477 132.876 256.31C132.729 256.143 132.523 256.06 132.256 256.06C131.963 256.06 131.733 256.157 131.566 256.35C131.406 256.543 131.326 256.823 131.326 257.19V260H130.036V257.01C130.036 256.71 129.963 256.477 129.816 256.31C129.669 256.143 129.463 256.06 129.196 256.06C128.909 256.06 128.679 256.157 128.506 256.35C128.339 256.543 128.256 256.823 128.256 257.19V260H126.966V255H128.256V255.53C128.556 255.083 129.019 254.86 129.646 254.86C130.259 254.86 130.713 255.1 131.006 255.58C131.339 255.1 131.836 254.86 132.496 254.86ZM136.572 258.03C136.745 258.657 137.215 258.97 137.982 258.97C138.475 258.97 138.848 258.803 139.102 258.47L140.142 259.07C139.648 259.783 138.922 260.14 137.962 260.14C137.135 260.14 136.472 259.89 135.972 259.39C135.472 258.89 135.222 258.26 135.222 257.5C135.222 256.747 135.468 256.12 135.962 255.62C136.455 255.113 137.088 254.86 137.862 254.86C138.595 254.86 139.198 255.113 139.672 255.62C140.152 256.127 140.392 256.753 140.392 257.5C140.392 257.667 140.375 257.843 140.342 258.03H136.572ZM136.552 257.03H139.102C139.028 256.69 138.875 256.437 138.642 256.27C138.415 256.103 138.155 256.02 137.862 256.02C137.515 256.02 137.228 256.11 137.002 256.29C136.775 256.463 136.625 256.71 136.552 257.03ZM144.072 254.86C144.619 254.86 145.069 255.043 145.422 255.41C145.782 255.777 145.962 256.283 145.962 256.93V260H144.672V257.09C144.672 256.757 144.582 256.503 144.402 256.33C144.222 256.15 143.982 256.06 143.682 256.06C143.349 256.06 143.082 256.163 142.882 256.37C142.682 256.577 142.582 256.887 142.582 257.3V260H141.292V255H142.582V255.56C142.895 255.093 143.392 254.86 144.072 254.86ZM149.924 256.24H148.794V258.32C148.794 258.493 148.837 258.62 148.924 258.7C149.01 258.78 149.137 258.827 149.304 258.84C149.47 258.847 149.677 258.843 149.924 258.83V260C149.037 260.1 148.41 260.017 148.044 259.75C147.684 259.483 147.504 259.007 147.504 258.32V256.24H146.634V255H147.504V253.99L148.794 253.6V255H149.924V256.24Z" fill="white"/>
<path fill-rule="evenodd" clip-rule="evenodd" d="M18.3333 56C17.9797 56 17.6406 56.1405 17.3905 56.3905C17.1405 56.6406 17 56.9797 17 57.3333V66.6667C17 67.0203 17.1405 67.3594 17.3905 67.6095C17.6406 67.8595 17.9797 68 18.3333 68H27.6667C28.0203 68 28.3594 67.8595 28.6095 67.6095C28.8595 67.3594 29 67.0203 29 66.6667V57.3333C29 56.9797 28.8595 56.6406 28.6095 56.3905C28.3594 56.1405 28.0203 56 27.6667 56H18.3333ZM26.3 60.5307C26.4251 60.4057 26.4954 60.2361 26.4955 60.0592C26.4955 59.8824 26.4253 59.7128 26.3003 59.5877C26.1753 59.4626 26.0057 59.3923 25.8289 59.3922C25.6521 59.3921 25.4824 59.4623 25.3573 59.5873L22.0573 62.8873L20.6433 61.4733C20.5814 61.4114 20.5079 61.3623 20.4271 61.3287C20.3462 61.2952 20.2595 61.2779 20.1719 61.2779C19.9951 61.2778 19.8254 61.348 19.7003 61.473C19.5752 61.598 19.5049 61.7676 19.5049 61.9444C19.5048 62.1213 19.575 62.2909 19.7 62.416L21.5387 64.2547C21.6068 64.3228 21.6876 64.3768 21.7766 64.4137C21.8656 64.4506 21.961 64.4696 22.0573 64.4696C22.1537 64.4696 22.2491 64.4506 22.338 64.4137C22.427 64.3768 22.5079 64.3228 22.576 64.2547L26.3 60.5307Z" fill="#0A0C33"/>
<rect x="74" y="57.189" width="45" height="9" rx="4.5" fill="#ECECEC"/>
<rect x="129" y="57.3779" width="30" height="9" rx="4.5" fill="#ECECEC"/>
<rect x="171" y="57.3779" width="45" height="9" rx="4.5" fill="#ECECEC"/>
<path fill-rule="evenodd" clip-rule="evenodd" d="M18.3333 95C17.9797 95 17.6406 95.1405 17.3905 95.3905C17.1405 95.6406 17 95.9797 17 96.3333V105.667C17 106.02 17.1405 106.359 17.3905 106.609C17.6406 106.86 17.9797 107 18.3333 107H27.6667C28.0203 107 28.3594 106.86 28.6095 106.609C28.8595 106.359 29 106.02 29 105.667V96.3333C29 95.9797 28.8595 95.6406 28.6095 95.3905C28.3594 95.1405 28.0203 95 27.6667 95H18.3333ZM26.3 99.5307C26.4251 99.4057 26.4954 99.2361 26.4955 99.0592C26.4955 98.8824 26.4253 98.7128 26.3003 98.5877C26.1753 98.4626 26.0057 98.3923 25.8289 98.3922C25.6521 98.3921 25.4824 98.4623 25.3573 98.5873L22.0573 101.887L20.6433 100.473C20.5814 100.411 20.5079 100.362 20.4271 100.329C20.3462 100.295 20.2595 100.278 20.1719 100.278C19.9951 100.278 19.8254 100.348 19.7003 100.473C19.5752 100.598 19.5049 100.768 19.5049 100.944C19.5048 101.121 19.575 101.291 19.7 101.416L21.5387 103.255C21.6068 103.323 21.6876 103.377 21.7766 103.414C21.8656 103.451 21.961 103.47 22.0573 103.47C22.1537 103.47 22.2491 103.451 22.338 103.414C22.427 103.377 22.5079 103.323 22.576 103.255L26.3 99.5307Z" fill="#0A0C33"/>
<rect x="74" y="96.189" width="45" height="9" rx="4.5" fill="#ECECEC"/>
<rect x="129" y="96.3779" width="30" height="9" rx="4.5" fill="#ECECEC"/>
<rect x="171" y="96.3779" width="45" height="9" rx="4.5" fill="#ECECEC"/>
<path fill-rule="evenodd" clip-rule="evenodd" d="M18.3333 134C17.9797 134 17.6406 134.14 17.3905 134.391C17.1405 134.641 17 134.98 17 135.333V144.667C17 145.02 17.1405 145.359 17.3905 145.609C17.6406 145.86 17.9797 146 18.3333 146H27.6667C28.0203 146 28.3594 145.86 28.6095 145.609C28.8595 145.359 29 145.02 29 144.667V135.333C29 134.98 28.8595 134.641 28.6095 134.391C28.3594 134.14 28.0203 134 27.6667 134H18.3333ZM26.3 138.531C26.4251 138.406 26.4954 138.236 26.4955 138.059C26.4955 137.882 26.4253 137.713 26.3003 137.588C26.1753 137.463 26.0057 137.392 25.8289 137.392C25.6521 137.392 25.4824 137.462 25.3573 137.587L22.0573 140.887L20.6433 139.473C20.5814 139.411 20.5079 139.362 20.4271 139.329C20.3462 139.295 20.2595 139.278 20.1719 139.278C19.9951 139.278 19.8254 139.348 19.7003 139.473C19.5752 139.598 19.5049 139.768 19.5049 139.944C19.5048 140.121 19.575 140.291 19.7 140.416L21.5387 142.255C21.6068 142.323 21.6876 142.377 21.7766 142.414C21.8656 142.451 21.961 142.47 22.0573 142.47C22.1537 142.47 22.2491 142.451 22.338 142.414C22.427 142.377 22.5079 142.323 22.576 142.255L26.3 138.531Z" fill="#0A0C33"/>
<rect x="74" y="135.189" width="45" height="9" rx="4.5" fill="#ECECEC"/>
<rect x="129" y="135.378" width="30" height="9" rx="4.5" fill="#ECECEC"/>
<rect x="171" y="135.378" width="45" height="9" rx="4.5" fill="#ECECEC"/>
<path fill-rule="evenodd" clip-rule="evenodd" d="M18.3333 173C17.9797 173 17.6406 173.14 17.3905 173.391C17.1405 173.641 17 173.98 17 174.333V183.667C17 184.02 17.1405 184.359 17.3905 184.609C17.6406 184.86 17.9797 185 18.3333 185H27.6667C28.0203 185 28.3594 184.86 28.6095 184.609C28.8595 184.359 29 184.02 29 183.667V174.333C29 173.98 28.8595 173.641 28.6095 173.391C28.3594 173.14 28.0203 173 27.6667 173H18.3333ZM26.3 177.531C26.4251 177.406 26.4954 177.236 26.4955 177.059C26.4955 176.882 26.4253 176.713 26.3003 176.588C26.1753 176.463 26.0057 176.392 25.8289 176.392C25.6521 176.392 25.4824 176.462 25.3573 176.587L22.0573 179.887L20.6433 178.473C20.5814 178.411 20.5079 178.362 20.4271 178.329C20.3462 178.295 20.2595 178.278 20.1719 178.278C19.9951 178.278 19.8254 178.348 19.7003 178.473C19.5752 178.598 19.5049 178.768 19.5049 178.944C19.5048 179.121 19.575 179.291 19.7 179.416L21.5387 181.255C21.6068 181.323 21.6876 181.377 21.7766 181.414C21.8656 181.451 21.961 181.47 22.0573 181.47C22.1537 181.47 22.2491 181.451 22.338 181.414C22.427 181.377 22.5079 181.323 22.576 181.255L26.3 177.531Z" fill="#0A0C33"/>
<rect x="74" y="174.189" width="45" height="9" rx="4.5" fill="#ECECEC"/>
<rect x="129" y="174.378" width="30" height="9" rx="4.5" fill="#ECECEC"/>
<rect x="171" y="174.378" width="45" height="9" rx="4.5" fill="#ECECEC"/>
<path fill-rule="evenodd" clip-rule="evenodd" d="M18.3333 212C17.9797 212 17.6406 212.14 17.3905 212.391C17.1405 212.641 17 212.98 17 213.333V222.667C17 223.02 17.1405 223.359 17.3905 223.609C17.6406 223.86 17.9797 224 18.3333 224H27.6667C28.0203 224 28.3594 223.86 28.6095 223.609C28.8595 223.359 29 223.02 29 222.667V213.333C29 212.98 28.8595 212.641 28.6095 212.391C28.3594 212.14 28.0203 212 27.6667 212H18.3333ZM26.3 216.531C26.4251 216.406 26.4954 216.236 26.4955 216.059C26.4955 215.882 26.4253 215.713 26.3003 215.588C26.1753 215.463 26.0057 215.392 25.8289 215.392C25.6521 215.392 25.4824 215.462 25.3573 215.587L22.0573 218.887L20.6433 217.473C20.5814 217.411 20.5079 217.362 20.4271 217.329C20.3462 217.295 20.2595 217.278 20.1719 217.278C19.9951 217.278 19.8254 217.348 19.7003 217.473C19.5752 217.598 19.5049 217.768 19.5049 217.944C19.5048 218.121 19.575 218.291 19.7 218.416L21.5387 220.255C21.6068 220.323 21.6876 220.377 21.7766 220.414C21.8656 220.451 21.961 220.47 22.0573 220.47C22.1537 220.47 22.2491 220.451 22.338 220.414C22.427 220.377 22.5079 220.323 22.576 220.255L26.3 216.531Z" fill="#0A0C33"/>
<rect x="74" y="213.189" width="45" height="9" rx="4.5" fill="#ECECEC"/>
<rect x="129" y="213" width="30" height="9" rx="4.5" fill="#ECECEC"/>
<rect x="171" y="213" width="45" height="9" rx="4.5" fill="#ECECEC"/>
<path d="M19.848 24.156C18.576 24.156 17.524 23.736 16.692 22.896C15.868 22.056 15.456 21.024 15.456 19.8C15.456 18.576 15.868 17.544 16.692 16.704C17.524 15.864 18.576 15.444 19.848 15.444C20.616 15.444 21.32 15.628 21.96 15.996C22.608 16.364 23.112 16.86 23.472 17.484L22.5 18.048C22.26 17.584 21.9 17.216 21.42 16.944C20.948 16.664 20.424 16.524 19.848 16.524C18.88 16.524 18.088 16.836 17.472 17.46C16.864 18.084 16.56 18.864 16.56 19.8C16.56 20.728 16.864 21.504 17.472 22.128C18.088 22.752 18.88 23.064 19.848 23.064C20.424 23.064 20.948 22.928 21.42 22.656C21.9 22.376 22.26 22.008 22.5 21.552L23.472 22.104C23.12 22.728 22.62 23.228 21.972 23.604C21.324 23.972 20.616 24.156 19.848 24.156ZM28.8031 18H29.8471V24H28.8031V23.136C28.3791 23.816 27.7311 24.156 26.8591 24.156C26.1551 24.156 25.5911 23.936 25.1671 23.496C24.7431 23.048 24.5311 22.444 24.5311 21.684V18H25.5751V21.624C25.5751 22.112 25.7071 22.492 25.9711 22.764C26.2351 23.028 26.5991 23.16 27.0631 23.16C27.5831 23.16 28.0031 23 28.3231 22.68C28.6431 22.352 28.8031 21.852 28.8031 21.18V18ZM32.3248 19.62C32.3248 19.852 32.4408 20.04 32.6728 20.184C32.9048 20.32 33.1848 20.432 33.5128 20.52C33.8408 20.6 34.1688 20.696 34.4968 20.808C34.8248 20.912 35.1048 21.096 35.3368 21.36C35.5688 21.616 35.6848 21.948 35.6848 22.356C35.6848 22.9 35.4728 23.336 35.0488 23.664C34.6328 23.992 34.0968 24.156 33.4408 24.156C32.8568 24.156 32.3568 24.028 31.9408 23.772C31.5248 23.516 31.2288 23.176 31.0528 22.752L31.9528 22.236C32.0488 22.524 32.2288 22.752 32.4928 22.92C32.7568 23.088 33.0728 23.172 33.4408 23.172C33.7848 23.172 34.0688 23.108 34.2928 22.98C34.5168 22.844 34.6288 22.636 34.6288 22.356C34.6288 22.124 34.5128 21.94 34.2808 21.804C34.0488 21.66 33.7688 21.548 33.4408 21.468C33.1128 21.38 32.7848 21.28 32.4568 21.168C32.1288 21.056 31.8488 20.872 31.6168 20.616C31.3848 20.36 31.2688 20.032 31.2688 19.632C31.2688 19.112 31.4688 18.684 31.8688 18.348C32.2768 18.012 32.7848 17.844 33.3928 17.844C33.8808 17.844 34.3128 17.956 34.6888 18.18C35.0728 18.396 35.3608 18.7 35.5528 19.092L34.6768 19.584C34.4608 19.072 34.0328 18.816 33.3928 18.816C33.0968 18.816 32.8448 18.888 32.6368 19.032C32.4288 19.168 32.3248 19.364 32.3248 19.62ZM39.9505 19.008H38.3545V22.26C38.3545 22.556 38.4105 22.768 38.5225 22.896C38.6425 23.016 38.8225 23.08 39.0625 23.088C39.3025 23.088 39.5985 23.08 39.9505 23.064V24C39.0385 24.12 38.3705 24.048 37.9465 23.784C37.5225 23.512 37.3105 23.004 37.3105 22.26V19.008H36.1225V18H37.3105V16.632L38.3545 16.32V18H39.9505V19.008ZM45.9458 23.244C45.3298 23.852 44.5818 24.156 43.7018 24.156C42.8218 24.156 42.0738 23.852 41.4578 23.244C40.8498 22.636 40.5458 21.888 40.5458 21C40.5458 20.112 40.8498 19.364 41.4578 18.756C42.0738 18.148 42.8218 17.844 43.7018 17.844C44.5818 17.844 45.3298 18.148 45.9458 18.756C46.5618 19.364 46.8698 20.112 46.8698 21C46.8698 21.888 46.5618 22.636 45.9458 23.244ZM43.7018 23.136C44.3018 23.136 44.8058 22.932 45.2138 22.524C45.6218 22.116 45.8258 21.608 45.8258 21C45.8258 20.392 45.6218 19.884 45.2138 19.476C44.8058 19.068 44.3018 18.864 43.7018 18.864C43.1098 18.864 42.6098 19.068 42.2018 19.476C41.7938 19.884 41.5898 20.392 41.5898 21C41.5898 21.608 41.7938 22.116 42.2018 22.524C42.6098 22.932 43.1098 23.136 43.7018 23.136ZM54.5806 17.844C55.2526 17.844 55.7966 18.064 56.2126 18.504C56.6286 18.936 56.8366 19.524 56.8366 20.268V24H55.7926V20.304C55.7926 19.84 55.6726 19.48 55.4326 19.224C55.1926 18.968 54.8726 18.84 54.4726 18.84C54.0246 18.84 53.6646 18.992 53.3926 19.296C53.1286 19.592 52.9966 20.048 52.9966 20.664V24H51.9526V20.304C51.9526 19.84 51.8366 19.48 51.6046 19.224C51.3806 18.968 51.0726 18.84 50.6806 18.84C50.2406 18.84 49.8726 18.992 49.5766 19.296C49.2886 19.6 49.1446 20.056 49.1446 20.664V24H48.1006V18H49.1446V18.804C49.5526 18.164 50.1486 17.844 50.9326 17.844C51.7406 17.844 52.3286 18.184 52.6966 18.864C53.1126 18.184 53.7406 17.844 54.5806 17.844ZM59.0162 21.48C59.1202 22.016 59.3642 22.432 59.7482 22.728C60.1402 23.024 60.6202 23.172 61.1882 23.172C61.9802 23.172 62.5562 22.88 62.9162 22.296L63.8042 22.8C63.2202 23.704 62.3402 24.156 61.1642 24.156C60.2122 24.156 59.4362 23.86 58.8362 23.268C58.2442 22.668 57.9482 21.912 57.9482 21C57.9482 20.096 58.2402 19.344 58.8242 18.744C59.4082 18.144 60.1642 17.844 61.0922 17.844C61.9722 17.844 62.6882 18.156 63.2402 18.78C63.8002 19.396 64.0802 20.14 64.0802 21.012C64.0802 21.164 64.0682 21.32 64.0442 21.48H59.0162ZM61.0922 18.828C60.5322 18.828 60.0682 18.988 59.7002 19.308C59.3322 19.62 59.1042 20.04 59.0162 20.568H63.0242C62.9362 20 62.7122 19.568 62.3522 19.272C61.9922 18.976 61.5722 18.828 61.0922 18.828ZM66.3243 19.008C66.6683 18.264 67.2923 17.892 68.1963 17.892V18.984C67.6843 18.96 67.2443 19.096 66.8763 19.392C66.5083 19.688 66.3243 20.164 66.3243 20.82V24H65.2803V18H66.3243V19.008ZM69.8951 19.62C69.8951 19.852 70.0111 20.04 70.2431 20.184C70.4751 20.32 70.7551 20.432 71.0831 20.52C71.4111 20.6 71.7391 20.696 72.0671 20.808C72.3951 20.912 72.6751 21.096 72.9071 21.36C73.1391 21.616 73.2551 21.948 73.2551 22.356C73.2551 22.9 73.0431 23.336 72.6191 23.664C72.2031 23.992 71.6671 24.156 71.0111 24.156C70.4271 24.156 69.9271 24.028 69.5111 23.772C69.0951 23.516 68.7991 23.176 68.6231 22.752L69.5231 22.236C69.6191 22.524 69.7991 22.752 70.0631 22.92C70.3271 23.088 70.6431 23.172 71.0111 23.172C71.3551 23.172 71.6391 23.108 71.8631 22.98C72.0871 22.844 72.1991 22.636 72.1991 22.356C72.1991 22.124 72.0831 21.94 71.8511 21.804C71.6191 21.66 71.3391 21.548 71.0111 21.468C70.6831 21.38 70.3551 21.28 70.0271 21.168C69.6991 21.056 69.4191 20.872 69.1871 20.616C68.9551 20.36 68.8391 20.032 68.8391 19.632C68.8391 19.112 69.0391 18.684 69.4391 18.348C69.8471 18.012 70.3551 17.844 70.9631 17.844C71.4511 17.844 71.8831 17.956 72.2591 18.18C72.6431 18.396 72.9311 18.7 73.1231 19.092L72.2471 19.584C72.0311 19.072 71.6031 18.816 70.9631 18.816C70.6671 18.816 70.4151 18.888 70.2071 19.032C69.9991 19.168 69.8951 19.364 69.8951 19.62Z" fill="#1E1E1E"/>
<line x1="15" y1="33.8779" x2="216" y2="33.8779" stroke="#E9E9E9"/>
<circle cx="53" cy="62" r="10" fill="#ECECEC"/>
<circle cx="53" cy="101" r="10" fill="#ECECEC"/>
<circle cx="53" cy="140" r="10" fill="#ECECEC"/>
<circle cx="53" cy="179" r="10" fill="#ECECEC"/>
<circle cx="53" cy="218" r="10" fill="#ECECEC"/>
<rect x="168" y="111" width="112" height="54.9964" rx="10" fill="white"/>
<rect x="168.5" y="111.5" width="111" height="53.9964" rx="9.5" stroke="#0A0C33" stroke-opacity="0.1"/>
<path fill-rule="evenodd" clip-rule="evenodd" d="M216.172 131.072C216.172 128.517 217.187 126.066 218.994 124.259C220.801 122.453 223.251 121.438 225.806 121.438C228.361 121.438 230.812 122.453 232.619 124.259C234.426 126.066 235.441 128.517 235.441 131.072C235.441 133.627 234.426 136.078 232.619 137.884C230.812 139.691 228.361 140.706 225.806 140.706C223.251 140.706 220.801 139.691 218.994 137.884C217.187 136.078 216.172 133.627 216.172 131.072ZM225.256 135.195L230.803 128.261L229.801 127.46L225.071 133.37L221.721 130.579L220.899 131.565L225.256 135.195Z" fill="#16A34A"/>
<path d="M196.073 148.4C196.591 148.4 197.02 148.573 197.361 148.92C197.708 149.261 197.881 149.688 197.881 150.2C197.881 150.707 197.708 151.133 197.361 151.48C197.02 151.827 196.591 152 196.073 152H194.785V154H194.041V148.4H196.073ZM196.073 151.304C196.383 151.304 196.639 151.2 196.841 150.992C197.044 150.779 197.145 150.515 197.145 150.2C197.145 149.88 197.044 149.616 196.841 149.408C196.639 149.2 196.383 149.096 196.073 149.096H194.785V151.304H196.073ZM201.695 150H202.391V154H201.695V153.312C201.349 153.84 200.845 154.104 200.183 154.104C199.623 154.104 199.146 153.901 198.751 153.496C198.357 153.085 198.159 152.587 198.159 152C198.159 151.413 198.357 150.917 198.751 150.512C199.146 150.101 199.623 149.896 200.183 149.896C200.845 149.896 201.349 150.16 201.695 150.688V150ZM200.271 153.432C200.677 153.432 201.015 153.296 201.287 153.024C201.559 152.747 201.695 152.405 201.695 152C201.695 151.595 201.559 151.256 201.287 150.984C201.015 150.707 200.677 150.568 200.271 150.568C199.871 150.568 199.535 150.707 199.263 150.984C198.991 151.256 198.855 151.595 198.855 152C198.855 152.405 198.991 152.747 199.263 153.024C199.535 153.296 199.871 153.432 200.271 153.432ZM206.238 150H206.982L205.35 154.248C205.179 154.701 204.939 155.045 204.63 155.28C204.326 155.52 203.974 155.627 203.574 155.6V154.952C204.065 154.989 204.425 154.717 204.654 154.136L204.726 153.984L202.982 150H203.726L205.086 153.136L206.238 150ZM211.883 149.896C212.331 149.896 212.694 150.043 212.971 150.336C213.248 150.624 213.387 151.016 213.387 151.512V154H212.691V151.536C212.691 151.227 212.611 150.987 212.451 150.816C212.291 150.645 212.078 150.56 211.811 150.56C211.512 150.56 211.272 150.661 211.091 150.864C210.915 151.061 210.827 151.365 210.827 151.776V154H210.131V151.536C210.131 151.227 210.054 150.987 209.899 150.816C209.75 150.645 209.544 150.56 209.283 150.56C208.99 150.56 208.744 150.661 208.547 150.864C208.355 151.067 208.259 151.371 208.259 151.776V154H207.563V150H208.259V150.536C208.531 150.109 208.928 149.896 209.451 149.896C209.99 149.896 210.382 150.123 210.627 150.576C210.904 150.123 211.323 149.896 211.883 149.896ZM214.84 152.32C214.91 152.677 215.072 152.955 215.328 153.152C215.59 153.349 215.91 153.448 216.288 153.448C216.816 153.448 217.2 153.253 217.44 152.864L218.032 153.2C217.643 153.803 217.056 154.104 216.272 154.104C215.638 154.104 215.12 153.907 214.72 153.512C214.326 153.112 214.128 152.608 214.128 152C214.128 151.397 214.323 150.896 214.712 150.496C215.102 150.096 215.606 149.896 216.224 149.896C216.811 149.896 217.288 150.104 217.656 150.52C218.03 150.931 218.216 151.427 218.216 152.008C218.216 152.109 218.208 152.213 218.192 152.32H214.84ZM216.224 150.552C215.851 150.552 215.542 150.659 215.296 150.872C215.051 151.08 214.899 151.36 214.84 151.712H217.512C217.454 151.333 217.304 151.045 217.064 150.848C216.824 150.651 216.544 150.552 216.224 150.552ZM221.008 149.896C221.478 149.896 221.854 150.045 222.136 150.344C222.419 150.637 222.56 151.037 222.56 151.544V154H221.864V151.584C221.864 151.259 221.776 151.008 221.6 150.832C221.424 150.651 221.182 150.56 220.872 150.56C220.526 150.56 220.246 150.669 220.032 150.888C219.819 151.101 219.712 151.432 219.712 151.88V154H219.016V150H219.712V150.576C219.995 150.123 220.427 149.896 221.008 149.896ZM225.708 150.672H224.644V152.84C224.644 153.037 224.681 153.179 224.756 153.264C224.836 153.344 224.956 153.387 225.116 153.392C225.276 153.392 225.473 153.387 225.708 153.376V154C225.1 154.08 224.655 154.032 224.372 153.856C224.089 153.675 223.948 153.336 223.948 152.84V150.672H223.156V150H223.948V149.088L224.644 148.88V150H225.708V150.672ZM230.435 154.104C229.913 154.104 229.465 153.981 229.091 153.736C228.723 153.491 228.465 153.155 228.315 152.728L228.955 152.36C229.174 153.037 229.673 153.376 230.451 153.376C230.835 153.376 231.129 153.299 231.331 153.144C231.534 152.984 231.635 152.773 231.635 152.512C231.635 152.245 231.534 152.045 231.331 151.912C231.129 151.779 230.79 151.637 230.315 151.488C230.081 151.413 229.902 151.355 229.779 151.312C229.657 151.264 229.502 151.195 229.315 151.104C229.134 151.008 228.998 150.912 228.907 150.816C228.817 150.715 228.734 150.584 228.659 150.424C228.59 150.264 228.555 150.083 228.555 149.88C228.555 149.395 228.726 149.011 229.067 148.728C229.409 148.44 229.825 148.296 230.315 148.296C230.758 148.296 231.142 148.408 231.467 148.632C231.798 148.856 232.046 149.152 232.211 149.52L231.587 149.88C231.347 149.304 230.923 149.016 230.315 149.016C230.011 149.016 229.766 149.091 229.579 149.24C229.393 149.389 229.299 149.592 229.299 149.848C229.299 150.093 229.387 150.28 229.563 150.408C229.739 150.536 230.043 150.669 230.475 150.808C230.63 150.856 230.739 150.891 230.803 150.912C230.867 150.933 230.966 150.971 231.099 151.024C231.238 151.077 231.339 151.12 231.403 151.152C231.467 151.184 231.553 151.229 231.659 151.288C231.771 151.347 231.854 151.403 231.907 151.456C231.961 151.509 232.022 151.576 232.091 151.656C232.166 151.731 232.219 151.808 232.251 151.888C232.283 151.968 232.31 152.061 232.331 152.168C232.358 152.269 232.371 152.379 232.371 152.496C232.371 152.987 232.193 153.379 231.835 153.672C231.478 153.96 231.011 154.104 230.435 154.104ZM233.762 152.32C233.831 152.677 233.994 152.955 234.25 153.152C234.511 153.349 234.831 153.448 235.21 153.448C235.738 153.448 236.122 153.253 236.362 152.864L236.954 153.2C236.565 153.803 235.978 154.104 235.194 154.104C234.559 154.104 234.042 153.907 233.642 153.512C233.247 153.112 233.05 152.608 233.05 152C233.05 151.397 233.245 150.896 233.634 150.496C234.023 150.096 234.527 149.896 235.146 149.896C235.733 149.896 236.21 150.104 236.578 150.52C236.951 150.931 237.138 151.427 237.138 152.008C237.138 152.109 237.13 152.213 237.114 152.32H233.762ZM235.146 150.552C234.773 150.552 234.463 150.659 234.218 150.872C233.973 151.08 233.821 151.36 233.762 151.712H236.434C236.375 151.333 236.226 151.045 235.986 150.848C235.746 150.651 235.466 150.552 235.146 150.552ZM239.997 150.672H238.933V152.84C238.933 153.037 238.97 153.179 239.045 153.264C239.125 153.344 239.245 153.387 239.405 153.392C239.565 153.392 239.762 153.387 239.997 153.376V154C239.389 154.08 238.944 154.032 238.661 153.856C238.378 153.675 238.237 153.336 238.237 152.84V150.672H237.445V150H238.237V149.088L238.933 148.88V150H239.997V150.672ZM242.786 150.672H241.722V152.84C241.722 153.037 241.759 153.179 241.834 153.264C241.914 153.344 242.034 153.387 242.194 153.392C242.354 153.392 242.551 153.387 242.786 153.376V154C242.178 154.08 241.733 154.032 241.45 153.856C241.167 153.675 241.026 153.336 241.026 152.84V150.672H240.234V150H241.026V149.088L241.722 148.88V150H242.786V150.672ZM243.61 154V148.16H244.306V154H243.61ZM245.856 152.32C245.925 152.677 246.088 152.955 246.344 153.152C246.605 153.349 246.925 153.448 247.304 153.448C247.832 153.448 248.216 153.253 248.456 152.864L249.048 153.2C248.659 153.803 248.072 154.104 247.288 154.104C246.653 154.104 246.136 153.907 245.736 153.512C245.341 153.112 245.144 152.608 245.144 152C245.144 151.397 245.339 150.896 245.728 150.496C246.117 150.096 246.621 149.896 247.24 149.896C247.827 149.896 248.304 150.104 248.672 150.52C249.045 150.931 249.232 151.427 249.232 152.008C249.232 152.109 249.224 152.213 249.208 152.32H245.856ZM247.24 150.552C246.867 150.552 246.557 150.659 246.312 150.872C246.067 151.08 245.915 151.36 245.856 151.712H248.528C248.469 151.333 248.32 151.045 248.08 150.848C247.84 150.651 247.56 150.552 247.24 150.552ZM253.336 148.4H254.032V154H253.336V153.312C252.989 153.84 252.485 154.104 251.824 154.104C251.264 154.104 250.787 153.901 250.392 153.496C249.997 153.085 249.8 152.587 249.8 152C249.8 151.413 249.997 150.917 250.392 150.512C250.787 150.101 251.264 149.896 251.824 149.896C252.485 149.896 252.989 150.16 253.336 150.688V148.4ZM251.912 153.432C252.317 153.432 252.656 153.296 252.928 153.024C253.2 152.747 253.336 152.405 253.336 152C253.336 151.595 253.2 151.256 252.928 150.984C252.656 150.707 252.317 150.568 251.912 150.568C251.512 150.568 251.176 150.707 250.904 150.984C250.632 151.256 250.496 151.595 250.496 152C250.496 152.405 250.632 152.747 250.904 153.024C251.176 153.296 251.512 153.432 251.912 153.432Z" fill="#16A34A"/>
</svg>
