<svg width="100" height="100" viewBox="0 0 100 100" fill="none" xmlns="http://www.w3.org/2000/svg">
<path d="M87.5 29.1668V26.5418C87.5 21.571 87.5 19.0835 86.8417 17.0835C86.2424 15.2269 85.2238 13.5332 83.8646 12.1336C82.5055 10.734 80.8424 9.6661 79.0042 9.01266C77.0542 8.3335 74.6417 8.3335 69.8125 8.3335H30.1875C25.3583 8.3335 22.9458 8.3335 20.9958 9.01266C19.158 9.66568 17.4952 10.7329 16.1361 12.1318C14.777 13.5306 13.7581 15.2235 13.1583 17.0793C12.5 19.0877 12.5 21.571 12.5 26.5418V62.5002M87.5 45.8335V84.8918C87.5 88.4668 83.3958 90.3668 80.8 87.9918C80.0717 87.3189 79.1166 86.9452 78.125 86.9452C77.1334 86.9452 76.1783 87.3189 75.45 87.9918L73.4375 89.8335C72.1616 91.0133 70.4878 91.6686 68.75 91.6686C67.0122 91.6686 65.3384 91.0133 64.0625 89.8335C62.7866 88.6537 61.1128 87.9983 59.375 87.9983C57.6372 87.9983 55.9634 88.6537 54.6875 89.8335C53.4116 91.0133 51.7378 91.6686 50 91.6686C48.2622 91.6686 46.5884 91.0133 45.3125 89.8335C44.0366 88.6537 42.3628 87.9983 40.625 87.9983C38.8872 87.9983 37.2134 88.6537 35.9375 89.8335C34.6616 91.0133 32.9878 91.6686 31.25 91.6686C29.5122 91.6686 27.8384 91.0133 26.5625 89.8335L24.55 87.9918C23.8217 87.3189 22.8666 86.9452 21.875 86.9452C20.8834 86.9452 19.9283 87.3189 19.2 87.9918C16.6042 90.3668 12.5 88.4668 12.5 84.8918V79.1668" stroke="#F6A01A" stroke-width="3" stroke-linecap="round"/>
<path d="M39.584 43.3335L45.5382 50.0002L60.4173 33.3335" stroke="#F6A01A" stroke-width="3" stroke-linecap="round" stroke-linejoin="round"/>
<path d="M31.25 64.5835H37.5M68.75 64.5835H50" stroke="#F6A01A" stroke-width="3" stroke-linecap="round"/>
</svg>
