<svg width="60" height="40" viewBox="0 0 60 40" fill="none" xmlns="http://www.w3.org/2000/svg">
<path d="M6.90785 7.37263C8.23679 7.37263 9.36838 7.87591 10.3026 8.88244C11.25 9.87591 11.7236 11.0981 11.7236 12.5491C11.7236 14.0001 11.25 15.2289 10.3026 16.2354C9.36838 17.2289 8.23679 17.7256 6.90785 17.7256C5.52627 17.7256 4.46048 17.2485 3.71048 16.2942V17.4511H1.16443V3.72558H3.71048V8.80401C4.46048 7.84975 5.52627 7.37263 6.90785 7.37263ZM4.48022 14.5491C4.99338 15.0589 5.64469 15.3138 6.43417 15.3138C7.22364 15.3138 7.87496 15.0589 8.38811 14.5491C8.91444 14.0262 9.17759 13.3596 9.17759 12.5491C9.17759 11.7387 8.91444 11.0785 8.38811 10.5687C7.87496 10.0458 7.22364 9.7844 6.43417 9.7844C5.64469 9.7844 4.99338 10.0458 4.48022 10.5687C3.96706 11.0785 3.71048 11.7387 3.71048 12.5491C3.71048 13.3596 3.96706 14.0262 4.48022 14.5491ZM14.8811 9.33342C15.1179 8.70597 15.5061 8.23538 16.0456 7.92165C16.5982 7.60793 17.21 7.45107 17.8811 7.45107V10.2746C17.1048 10.1831 16.4074 10.3399 15.789 10.7452C15.1837 11.1504 14.8811 11.8236 14.8811 12.7648V17.4511H12.335V7.64714H14.8811V9.33342ZM19.4491 6.47067C19.028 6.47067 18.6596 6.32034 18.3438 6.01969C18.0412 5.70597 17.8899 5.33995 17.8899 4.92165C17.8899 4.50336 18.0412 4.13734 18.3438 3.82362C18.6596 3.50989 19.028 3.35303 19.4491 3.35303C19.8832 3.35303 20.2517 3.50989 20.5543 3.82362C20.8701 4.13734 21.028 4.50336 21.028 4.92165C21.028 5.33995 20.8701 5.70597 20.5543 6.01969C20.2517 6.32034 19.8832 6.47067 19.4491 6.47067ZM18.1859 17.4511V7.64714H20.7319V17.4511H18.1859ZM29.3583 3.72558H31.9044V17.4511H29.3583V16.2942C28.6083 17.2485 27.5425 17.7256 26.1609 17.7256C24.8321 17.7256 23.6938 17.2289 22.7465 16.2354C21.8123 15.2289 21.3452 14.0001 21.3452 12.5491C21.3452 11.0981 21.8123 9.87591 22.7465 8.88244C23.6938 7.87591 24.8321 7.37263 26.1609 7.37263C27.5425 7.37263 28.6083 7.84975 29.3583 8.80401V3.72558ZM24.6609 14.5491C25.1873 15.0589 25.8452 15.3138 26.6346 15.3138C27.4241 15.3138 28.0754 15.0589 28.5886 14.5491C29.1017 14.0262 29.3583 13.3596 29.3583 12.5491C29.3583 11.7387 29.1017 11.0785 28.5886 10.5687C28.0754 10.0458 27.4241 9.7844 26.6346 9.7844C25.8452 9.7844 25.1873 10.0458 24.6609 10.5687C24.1478 11.0785 23.8912 11.7387 23.8912 12.5491C23.8912 13.3596 24.1478 14.0262 24.6609 14.5491ZM40.6079 7.64714H43.0948V16.9805C43.0948 18.4968 42.5881 19.6536 41.575 20.4511C40.575 21.2485 39.3645 21.6471 37.9434 21.6471C36.8777 21.6471 35.9368 21.4446 35.1211 21.0393C34.3184 20.634 33.7 20.0393 33.2658 19.255L35.4369 18.0197C35.9368 18.9347 36.7987 19.3922 38.0224 19.3922C38.8251 19.3922 39.4567 19.1831 39.9171 18.7648C40.3776 18.3465 40.6079 17.7517 40.6079 16.9805V15.9217C39.8579 16.9151 38.8054 17.4119 37.45 17.4119C36.0552 17.4119 34.8842 16.9282 33.9369 15.9609C33.0027 14.9805 32.5355 13.7909 32.5355 12.3922C32.5355 11.0066 33.0092 9.82361 33.9566 8.84322C34.904 7.86283 36.0684 7.37263 37.45 7.37263C38.8054 7.37263 39.8579 7.86936 40.6079 8.86283V7.64714ZM35.8513 14.3334C36.3777 14.8301 37.0421 15.0785 37.8448 15.0785C38.6475 15.0785 39.3053 14.8301 39.8184 14.3334C40.3448 13.8236 40.6079 13.1766 40.6079 12.3922C40.6079 11.621 40.3448 10.987 39.8184 10.4903C39.3053 9.98048 38.6475 9.72558 37.8448 9.72558C37.0421 9.72558 36.3777 9.98048 35.8513 10.4903C35.3382 10.987 35.0816 11.621 35.0816 12.3922C35.0816 13.1766 35.3382 13.8236 35.8513 14.3334Z" fill="white"/>
<path d="M46.5789 17.255C47.56 17.255 48.3552 16.4649 48.3552 15.4903C48.3552 14.5157 47.56 13.7256 46.5789 13.7256C45.5979 13.7256 44.8026 14.5157 44.8026 15.4903C44.8026 16.4649 45.5979 17.255 46.5789 17.255Z" fill="#A5EB14"/>
<path d="M12.0789 23.0586C13.2105 23.0586 14.1118 23.4247 14.7829 24.1566C15.4671 24.8886 15.8092 25.869 15.8092 27.0978V33.137H13.2631V27.2743C13.2631 26.686 13.1184 26.2286 12.8289 25.9017C12.5394 25.5749 12.1315 25.4115 11.6052 25.4115C11.0263 25.4115 10.5723 25.6011 10.2434 25.9802C9.92759 26.3592 9.76969 26.9082 9.76969 27.6272V33.137H7.22364V27.2743C7.22364 26.686 7.07891 26.2286 6.78943 25.9017C6.49995 25.5749 6.09207 25.4115 5.56574 25.4115C4.99995 25.4115 4.546 25.6011 4.2039 25.9802C3.87495 26.3592 3.71048 26.9082 3.71048 27.6272V33.137H1.16443V23.3331H3.71048V24.3723C4.30259 23.4964 5.21705 23.0586 6.4539 23.0586C7.66442 23.0586 8.55917 23.5292 9.13811 24.4704C9.796 23.5292 10.7763 23.0586 12.0789 23.0586ZM25.1952 31.9213C24.1821 32.9149 22.9452 33.4115 21.4847 33.4115C20.0242 33.4115 18.7874 32.9149 17.7742 31.9213C16.7742 30.9149 16.2742 29.686 16.2742 28.2351C16.2742 26.7841 16.7742 25.5619 17.7742 24.5684C18.7874 23.5619 20.0242 23.0586 21.4847 23.0586C22.9452 23.0586 24.1821 23.5619 25.1952 24.5684C26.2085 25.5619 26.715 26.7841 26.715 28.2351C26.715 29.686 26.2085 30.9149 25.1952 31.9213ZM19.5703 30.1762C20.0834 30.686 20.7217 30.9409 21.4847 30.9409C22.2479 30.9409 22.886 30.686 23.3992 30.1762C23.9123 29.6664 24.1689 29.0194 24.1689 28.2351C24.1689 27.4508 23.9123 26.8037 23.3992 26.2939C22.886 25.7841 22.2479 25.5292 21.4847 25.5292C20.7217 25.5292 20.0834 25.7841 19.5703 26.2939C19.0703 26.8037 18.8203 27.4508 18.8203 28.2351C18.8203 29.0194 19.0703 29.6664 19.5703 30.1762ZM32.8087 23.0586C33.8877 23.0586 34.7759 23.418 35.4732 24.137C36.1837 24.856 36.539 25.8494 36.539 27.1174V33.137H33.9929V27.4311C33.9929 26.7776 33.8153 26.2808 33.46 25.9409C33.1048 25.588 32.6311 25.4115 32.039 25.4115C31.3811 25.4115 30.8548 25.6141 30.46 26.0194C30.0653 26.4247 29.8679 27.0325 29.8679 27.8429V33.137H27.3219V23.3331H29.8679V24.4311C30.4865 23.516 31.4666 23.0586 32.8087 23.0586ZM39.6801 29.2743C40.0221 30.5031 40.9498 31.1174 42.463 31.1174C43.4366 31.1174 44.1736 30.7906 44.6735 30.137L46.7261 31.3135C45.7525 32.7121 44.3182 33.4115 42.4235 33.4115C40.7919 33.4115 39.4827 32.9213 38.4959 31.9409C37.509 30.9606 37.0156 29.7253 37.0156 28.2351C37.0156 26.758 37.5025 25.5292 38.4761 24.5488C39.4498 23.5553 40.6999 23.0586 42.2261 23.0586C43.6734 23.0586 44.8644 23.5553 45.7985 24.5488C46.7459 25.5423 47.2196 26.7709 47.2196 28.2351C47.2196 28.5619 47.1866 28.9082 47.1209 29.2743H39.6801ZM39.6406 27.3135H44.6735C44.5288 26.6468 44.2261 26.1502 43.7656 25.8233C43.3182 25.4964 42.805 25.3331 42.2261 25.3331C41.5419 25.3331 40.9762 25.5096 40.5288 25.8625C40.0813 26.2023 39.7853 26.686 39.6406 27.3135ZM53.8614 23.3331H56.5851L52.993 33.137C52.4798 34.5488 51.7957 35.5684 50.9403 36.1958C50.0984 36.8364 49.0456 37.1239 47.7825 37.0586V34.7057C48.4667 34.7188 49.0061 34.5749 49.4009 34.2743C49.8088 33.9737 50.1311 33.49 50.368 32.8233L46.3219 23.3331H49.1048L51.6706 29.9213L53.8614 23.3331Z" fill="white"/>
</svg>
