<svg width="60" height="40" viewBox="0 0 60 40" fill="none" xmlns="http://www.w3.org/2000/svg">
<path d="M6.90797 7.37255C8.23691 7.37255 9.3685 7.87582 10.3027 8.88235C11.2501 9.87582 11.7238 11.098 11.7238 12.549C11.7238 14 11.2501 15.2288 10.3027 16.2353C9.3685 17.2288 8.23691 17.7255 6.90797 17.7255C5.52639 17.7255 4.4606 17.2484 3.7106 16.2941V17.451H1.16455V3.72549H3.7106V8.80392C4.4606 7.84967 5.52639 7.37255 6.90797 7.37255ZM4.48034 14.549C4.9935 15.0588 5.64481 15.3137 6.43429 15.3137C7.22376 15.3137 7.87508 15.0588 8.38824 14.549C8.91456 14.0261 9.17771 13.3595 9.17771 12.549C9.17771 11.7386 8.91456 11.0784 8.38824 10.5686C7.87508 10.0457 7.22376 9.78431 6.43429 9.78431C5.64481 9.78431 4.9935 10.0457 4.48034 10.5686C3.96718 11.0784 3.7106 11.7386 3.7106 12.549C3.7106 13.3595 3.96718 14.0261 4.48034 14.549ZM14.8812 9.33333C15.118 8.70588 15.5062 8.23529 16.0457 7.92157C16.5983 7.60784 17.2101 7.45098 17.8812 7.45098V10.2745C17.1049 10.183 16.4075 10.3399 15.7891 10.7451C15.1838 11.1503 14.8812 11.8235 14.8812 12.7647V17.451H12.3351V7.64706H14.8812V9.33333ZM19.4492 6.47059C19.0281 6.47059 18.6597 6.32026 18.3439 6.01961C18.0413 5.70588 17.89 5.33986 17.89 4.92157C17.89 4.50327 18.0413 4.13726 18.3439 3.82353C18.6597 3.5098 19.0281 3.35294 19.4492 3.35294C19.8834 3.35294 20.2519 3.5098 20.5544 3.82353C20.8702 4.13726 21.0281 4.50327 21.0281 4.92157C21.0281 5.33986 20.8702 5.70588 20.5544 6.01961C20.2519 6.32026 19.8834 6.47059 19.4492 6.47059ZM18.186 17.451V7.64706H20.7321V17.451H18.186ZM29.3584 3.72549H31.9045V17.451H29.3584V16.2941C28.6084 17.2484 27.5426 17.7255 26.1611 17.7255C24.8322 17.7255 23.694 17.2288 22.7466 16.2353C21.8124 15.2288 21.3453 14 21.3453 12.549C21.3453 11.098 21.8124 9.87582 22.7466 8.88235C23.694 7.87582 24.8322 7.37255 26.1611 7.37255C27.5426 7.37255 28.6084 7.84967 29.3584 8.80392V3.72549ZM24.6611 14.549C25.1874 15.0588 25.8453 15.3137 26.6348 15.3137C27.4242 15.3137 28.0755 15.0588 28.5887 14.549C29.1019 14.0261 29.3584 13.3595 29.3584 12.549C29.3584 11.7386 29.1019 11.0784 28.5887 10.5686C28.0755 10.0457 27.4242 9.78431 26.6348 9.78431C25.8453 9.78431 25.1874 10.0457 24.6611 10.5686C24.1479 11.0784 23.8913 11.7386 23.8913 12.549C23.8913 13.3595 24.1479 14.0261 24.6611 14.549ZM40.608 7.64706H43.0949V16.9804C43.0949 18.4967 42.5882 19.6535 41.5751 20.451C40.5751 21.2484 39.3646 21.6471 37.9436 21.6471C36.8778 21.6471 35.9369 21.4445 35.1212 21.0392C34.3185 20.6339 33.7001 20.0392 33.2659 19.2549L35.437 18.0196C35.9369 18.9346 36.7988 19.3922 38.0225 19.3922C38.8252 19.3922 39.4568 19.183 39.9172 18.7647C40.3777 18.3464 40.608 17.7516 40.608 16.9804V15.9216C39.858 16.915 38.8055 17.4118 37.4501 17.4118C36.0553 17.4118 34.8844 16.9281 33.937 15.9608C33.0028 14.9804 32.5357 13.7908 32.5357 12.3922C32.5357 11.0065 33.0094 9.82353 33.9567 8.84314C34.9041 7.86274 36.0686 7.37255 37.4501 7.37255C38.8055 7.37255 39.858 7.86927 40.608 8.86275V7.64706ZM35.8515 14.3333C36.3778 14.8301 37.0422 15.0784 37.8449 15.0784C38.6476 15.0784 39.3054 14.8301 39.8186 14.3333C40.3449 13.8235 40.608 13.1765 40.608 12.3922C40.608 11.6209 40.3449 10.9869 39.8186 10.4902C39.3054 9.98039 38.6476 9.72549 37.8449 9.72549C37.0422 9.72549 36.3778 9.98039 35.8515 10.4902C35.3383 10.9869 35.0817 11.6209 35.0817 12.3922C35.0817 13.1765 35.3383 13.8235 35.8515 14.3333Z" fill="#1E1E1E"/>
<path d="M46.5791 17.2549C47.5601 17.2549 48.3554 16.4648 48.3554 15.4902C48.3554 14.5156 47.5601 13.7255 46.5791 13.7255C45.598 13.7255 44.8027 14.5156 44.8027 15.4902C44.8027 16.4648 45.598 17.2549 46.5791 17.2549Z" fill="#A5EB14"/>
<path d="M12.079 23.0588C13.2106 23.0588 14.1119 23.4249 14.783 24.1569C15.4672 24.8888 15.8093 25.8692 15.8093 27.098V33.1373H13.2632V27.2745C13.2632 26.6863 13.1185 26.2288 12.829 25.902C12.5395 25.5751 12.1317 25.4118 11.6053 25.4118C11.0264 25.4118 10.5725 25.6014 10.2435 25.9804C9.92771 26.3594 9.76981 26.9084 9.76981 27.6274V33.1373H7.22376V27.2745C7.22376 26.6863 7.07903 26.2288 6.78955 25.902C6.50007 25.5751 6.09219 25.4118 5.56587 25.4118C5.00007 25.4118 4.54612 25.6014 4.20402 25.9804C3.87507 26.3594 3.7106 26.9084 3.7106 27.6274V33.1373H1.16455V23.3333H3.7106V24.3725C4.30271 23.4967 5.21718 23.0588 6.45402 23.0588C7.66454 23.0588 8.55929 23.5294 9.13823 24.4706C9.79612 23.5294 10.7764 23.0588 12.079 23.0588ZM25.1953 31.9216C24.1822 32.9151 22.9453 33.4118 21.4848 33.4118C20.0243 33.4118 18.7875 32.9151 17.7743 31.9216C16.7743 30.9151 16.2743 29.6863 16.2743 28.2353C16.2743 26.7843 16.7743 25.5622 17.7743 24.5686C18.7875 23.5622 20.0243 23.0588 21.4848 23.0588C22.9453 23.0588 24.1822 23.5622 25.1953 24.5686C26.2086 25.5622 26.7151 26.7843 26.7151 28.2353C26.7151 29.6863 26.2086 30.9151 25.1953 31.9216ZM19.5704 30.1765C20.0835 30.6863 20.7218 30.9412 21.4848 30.9412C22.248 30.9412 22.8861 30.6863 23.3993 30.1765C23.9124 29.6667 24.169 29.0196 24.169 28.2353C24.169 27.451 23.9124 26.8039 23.3993 26.2941C22.8861 25.7843 22.248 25.5294 21.4848 25.5294C20.7218 25.5294 20.0835 25.7843 19.5704 26.2941C19.0704 26.8039 18.8204 27.451 18.8204 28.2353C18.8204 29.0196 19.0704 29.6667 19.5704 30.1765ZM32.8088 23.0588C33.8878 23.0588 34.776 23.4182 35.4733 24.1373C36.1838 24.8563 36.5391 25.8496 36.5391 27.1176V33.1373H33.993V27.4314C33.993 26.7778 33.8154 26.281 33.4601 25.9412C33.1049 25.5882 32.6312 25.4118 32.0391 25.4118C31.3813 25.4118 30.8549 25.6143 30.4601 26.0196C30.0654 26.4249 29.868 27.0327 29.868 27.8431V33.1373H27.322V23.3333H29.868V24.4314C30.4866 23.5163 31.4667 23.0588 32.8088 23.0588ZM39.6802 29.2745C40.0223 30.5033 40.9499 31.1176 42.4631 31.1176C43.4367 31.1176 44.1737 30.7908 44.6736 30.1373L46.7263 31.3137C45.7526 32.7124 44.3184 33.4118 42.4236 33.4118C40.792 33.4118 39.4828 32.9216 38.496 31.9412C37.5092 30.9608 37.0157 29.7255 37.0157 28.2353C37.0157 26.7582 37.5026 25.5294 38.4763 24.549C39.4499 23.5555 40.7 23.0588 42.2263 23.0588C43.6736 23.0588 44.8645 23.5555 45.7986 24.549C46.746 25.5425 47.2197 26.7712 47.2197 28.2353C47.2197 28.5622 47.1867 28.9084 47.121 29.2745H39.6802ZM39.6407 27.3137H44.6736C44.529 26.6471 44.2262 26.1504 43.7657 25.8235C43.3183 25.4967 42.8051 25.3333 42.2263 25.3333C41.542 25.3333 40.9763 25.5098 40.5289 25.8627C40.0815 26.2025 39.7854 26.6863 39.6407 27.3137ZM53.8615 23.3333H56.5852L52.9931 33.1373C52.4799 34.549 51.7959 35.5686 50.9405 36.1961C50.0985 36.8367 49.0457 37.1241 47.7826 37.0588V34.7059C48.4669 34.719 49.0063 34.5751 49.401 34.2745C49.809 33.9739 50.1313 33.4902 50.3681 32.8235L46.3221 23.3333H49.1049L51.6707 29.9216L53.8615 23.3333Z" fill="#1E1E1E"/>
</svg>
