<svg width="10" height="10" viewBox="0 0 10 10" fill="none" xmlns="http://www.w3.org/2000/svg">
<path fill-rule="evenodd" clip-rule="evenodd" d="M4.4826 0.214312C4.76835 -0.0714374 5.23165 -0.0714374 5.5174 0.214312L9.78569 4.4826C9.92291 4.61983 10 4.80594 10 5C10 5.19406 9.92291 5.38017 9.78569 5.5174L5.5174 9.78569C5.23165 10.0714 4.76835 10.0714 4.4826 9.78569C4.19686 9.49994 4.19686 9.03665 4.4826 8.7509L7.5018 5.73171H0.731707C0.327596 5.73171 0 5.40411 0 5C0 4.59589 0.327596 4.26829 0.731707 4.26829H7.50179L4.4826 1.2491C4.19686 0.963353 4.19686 0.500062 4.4826 0.214312Z" fill="#1E1E1E"/>
</svg>
