<svg width="42" height="34" viewBox="0 0 42 34" fill="none" xmlns="http://www.w3.org/2000/svg">
<path d="M38.4583 9.85409L35.8958 13.7083C37.1316 16.173 37.7366 18.9058 37.6566 21.6618C37.5766 24.4179 36.8141 27.111 35.4375 29.4999H6.56245C4.77322 26.396 4.03182 22.7981 4.44816 19.2397C4.86451 15.6812 6.41643 12.3516 8.87387 9.74457C11.3313 7.13749 14.5634 5.39168 18.0911 4.76596C21.6187 4.14024 25.2541 4.66792 28.4583 6.27076L32.3125 3.70826C28.3885 1.19204 23.734 0.0645205 19.0935 0.506044C14.453 0.947568 10.0946 2.93263 6.71556 6.1437C3.3365 9.35477 1.13196 13.6063 0.454572 18.2183C-0.222812 22.8303 0.666099 27.5362 2.97912 31.5833C3.34268 32.213 3.86472 32.7366 4.49335 33.1021C5.12198 33.4676 5.83531 33.6622 6.56245 33.6666H35.4166C36.1508 33.6695 36.8728 33.4784 37.5093 33.1125C38.1459 32.7467 38.6745 32.2191 39.0416 31.5833C40.9612 28.2581 41.9245 24.4672 41.8252 20.629C41.7259 16.7908 40.568 13.0548 38.4791 9.83326L38.4583 9.85409ZM18.0625 24.1041C18.4494 24.4915 18.909 24.7988 19.4148 25.0085C19.9206 25.2182 20.4628 25.3261 21.0104 25.3261C21.5579 25.3261 22.1001 25.2182 22.606 25.0085C23.1118 24.7988 23.5713 24.4915 23.9583 24.1041L35.75 6.41659L18.0625 18.2083C17.6751 18.5952 17.3677 19.0548 17.158 19.5606C16.9484 20.0664 16.8404 20.6086 16.8404 21.1562C16.8404 21.7037 16.9484 22.2459 17.158 22.7518C17.3677 23.2576 17.6751 23.7171 18.0625 24.1041Z" fill="#A5EB14"/>
</svg>
