<svg width="50" height="50" viewBox="0 0 50 50" fill="none" xmlns="http://www.w3.org/2000/svg">
<g clip-path="url(#clip0_561_224)">
<path d="M25.2158 0.00010449C26.0346 0.00010449 26.8408 0.0532295 27.5908 0.178229C28.3298 0.273414 29.0587 0.434472 29.769 0.659479C30.4773 0.871979 31.1794 1.14594 31.8752 1.48135C32.5533 1.80323 33.2502 2.19698 33.9471 2.6251C35.1252 3.3751 36.2846 3.98135 37.4658 4.46573C39.7907 5.39836 42.25 5.95226 44.7502 6.10635C46.0148 6.2001 47.3242 6.24802 48.6783 6.2501V18.7501C48.6783 21.123 48.3752 23.3793 47.769 25.5189C47.1865 27.632 46.359 29.6698 45.3033 31.5907C44.2522 33.5091 43.0083 35.3153 41.5908 36.9814C40.1525 38.6861 38.5944 40.286 36.9283 41.7689C35.2388 43.2542 33.4616 44.6369 31.6065 45.9095C29.7481 47.2011 27.8794 48.3918 26.0002 49.4814L25.2502 49.9282L24.5002 49.4814C22.5726 48.3657 20.6898 47.1741 18.8565 45.9095C16.9913 44.6506 15.2133 43.2672 13.5346 41.7689C11.8696 40.2859 10.3125 38.686 8.87521 36.9814C7.46256 35.3075 6.21313 33.5024 5.14396 31.5907C4.10728 29.6608 3.28067 27.6252 2.67834 25.5189C2.07228 23.3141 1.77156 21.0366 1.78459 18.7501V6.2501C3.13875 6.24802 4.44917 6.2001 5.71584 6.10635C6.96497 6.02144 8.20596 5.84282 9.42834 5.57198C10.6252 5.30323 11.8221 4.94698 13.0002 4.46573C14.2224 3.97169 15.3944 3.36161 16.5002 2.64385C17.8752 1.7501 19.269 1.09073 20.644 0.656354C22.1249 0.202884 23.6671 -0.0184897 25.2158 0.00010449ZM45.5346 9.32198C43.1692 9.2062 40.8258 8.81074 38.5533 8.14385C36.2938 7.46807 34.1412 6.47594 32.1596 5.19698C31.1315 4.52388 30.0158 3.99499 28.844 3.6251C27.6727 3.27185 26.4548 3.09697 25.2315 3.10635C23.999 3.09884 22.7722 3.27365 21.5908 3.6251C20.4176 3.98396 19.3036 4.5136 18.2846 5.19698C16.2989 6.48164 14.1409 7.47803 11.8752 8.15635C9.66063 8.8001 7.33875 9.19385 4.90959 9.3376V18.7657C4.90959 20.8345 5.17834 22.822 5.71584 24.7282C6.2639 26.6208 7.01843 28.4475 7.96584 30.1751C8.92498 31.9206 10.0556 33.5662 11.3408 35.0876C12.644 36.622 14.0346 38.0501 15.5346 39.4064C17.0346 40.7626 18.6065 42.0189 20.2502 43.1751C21.9106 44.3334 23.571 45.3928 25.2315 46.3532C26.9314 45.3653 28.5881 44.305 30.1971 43.1751C31.8537 42.022 33.434 40.7632 34.9283 39.4064C36.4283 38.0501 37.8221 36.622 39.1252 35.0876C40.4105 33.5662 41.5411 31.9206 42.5002 30.1751C43.4428 28.4493 44.1862 26.622 44.7158 24.7282C45.2702 22.7896 45.5459 20.782 45.5346 18.7657V9.32198Z" fill="#A5EB14"/>
<path fill-rule="evenodd" clip-rule="evenodd" d="M36.8658 14.7157L35.4908 13.5344L34.2221 13.6438L20.5971 29.7313L15.9564 23.1063L14.7064 22.8938L13.2596 23.9282L13.0439 25.1782L19.0096 33.6969L19.6877 34.0719L21.1158 34.1594L21.8471 33.8407L36.9564 15.9813L36.8658 14.7157Z" fill="#A5EB14"/>
</g>
<defs>
<clipPath id="clip0_561_224">
<rect width="50" height="50" fill="white"/>
</clipPath>
</defs>
</svg>
