<svg width="50" height="50" viewBox="0 0 50 50" fill="none" xmlns="http://www.w3.org/2000/svg">
<path d="M10.7143 29.1667C9.15108 26.6068 8.32691 23.6641 8.33304 20.6647C8.33304 11.5522 15.7955 4.16675 24.9997 4.16675C34.2039 4.16675 41.6664 11.5522 41.6664 20.6647C41.6725 23.6641 40.8483 26.6068 39.2851 29.1667M31.2497 39.5834L30.9789 40.9313C30.6872 42.4042 30.5393 43.1397 30.208 43.723C29.6976 44.6221 28.8712 45.2993 27.8893 45.623C27.2539 45.8334 26.4997 45.8334 24.9997 45.8334C23.4997 45.8334 22.7455 45.8334 22.1101 45.6251C21.1279 45.3008 20.3014 44.6229 19.7914 43.723C19.4601 43.1397 19.3122 42.4042 19.0205 40.9313L18.7497 39.5834M15.381 35.6209C15.1893 35.0459 15.0935 34.7563 15.1039 34.523C15.1157 34.2817 15.1971 34.0491 15.3383 33.8531C15.4796 33.6571 15.6746 33.5063 15.8997 33.4188C16.1164 33.3334 16.4205 33.3334 17.0247 33.3334H32.9747C33.581 33.3334 33.883 33.3334 34.0997 33.4168C34.3252 33.5044 34.5204 33.6555 34.6616 33.8519C34.8029 34.0482 34.8841 34.2814 34.8955 34.523C34.906 34.7563 34.8101 35.0438 34.6185 35.6209C34.2643 36.6855 34.0872 37.2188 33.8143 37.6501C33.2435 38.5514 32.3487 39.1993 31.3143 39.4605C30.8185 39.5834 30.2601 39.5834 29.1414 39.5834H20.858C19.7393 39.5834 19.1789 39.5834 18.6851 39.4584C17.6511 39.1978 16.7563 38.5506 16.1851 37.6501C15.9122 37.2188 15.7351 36.6855 15.381 35.6209Z" stroke="#A5EB14" stroke-width="2.5" stroke-linecap="round" stroke-linejoin="round"/>
<path d="M17.1875 20.3125L21.875 25V33.3333M32.8125 20.3125L28.125 25V33.3333M17.1875 21.875C17.6019 21.875 17.9993 21.7104 18.2924 21.4174C18.5854 21.1243 18.75 20.7269 18.75 20.3125C18.75 19.8981 18.5854 19.5007 18.2924 19.2076C17.9993 18.9146 17.6019 18.75 17.1875 18.75C16.7731 18.75 16.3757 18.9146 16.0826 19.2076C15.7896 19.5007 15.625 19.8981 15.625 20.3125C15.625 20.7269 15.7896 21.1243 16.0826 21.4174C16.3757 21.7104 16.7731 21.875 17.1875 21.875ZM32.8125 21.875C32.3981 21.875 32.0007 21.7104 31.7076 21.4174C31.4146 21.1243 31.25 20.7269 31.25 20.3125C31.25 19.8981 31.4146 19.5007 31.7076 19.2076C32.0007 18.9146 32.3981 18.75 32.8125 18.75C33.2269 18.75 33.6243 18.9146 33.9174 19.2076C34.2104 19.5007 34.375 19.8981 34.375 20.3125C34.375 20.7269 34.2104 21.1243 33.9174 21.4174C33.6243 21.7104 33.2269 21.875 32.8125 21.875Z" stroke="#A5EB14" stroke-width="2.5" stroke-linecap="round" stroke-linejoin="round"/>
</svg>
