<svg width="20" height="21" viewBox="0 0 20 21" fill="none" xmlns="http://www.w3.org/2000/svg">
<path d="M10 0.0927734C15.523 0.0927734 20 4.56977 20 10.0928C20 15.6158 15.523 20.0928 10 20.0928C4.477 20.0928 0 15.6158 0 10.0928C0 4.56977 4.477 0.0927734 10 0.0927734ZM10 2.09277C7.87827 2.09277 5.84344 2.93563 4.34315 4.43592C2.84285 5.93621 2 7.97104 2 10.0928C2 12.2145 2.84285 14.2493 4.34315 15.7496C5.84344 17.2499 7.87827 18.0928 10 18.0928C12.1217 18.0928 14.1566 17.2499 15.6569 15.7496C17.1571 14.2493 18 12.2145 18 10.0928C18 7.97104 17.1571 5.93621 15.6569 4.43592C14.1566 2.93563 12.1217 2.09277 10 2.09277ZM10 4.09277C10.2449 4.09281 10.4813 4.18273 10.6644 4.34549C10.8474 4.50825 10.9643 4.73252 10.993 4.97577L11 5.09277V9.67877L13.707 12.3858C13.8863 12.5657 13.9905 12.8072 13.9982 13.0612C14.006 13.3151 13.9168 13.5625 13.7488 13.7531C13.5807 13.9436 13.3464 14.0631 13.0935 14.0872C12.8406 14.1113 12.588 14.0382 12.387 13.8828L12.293 13.7998L9.293 10.7998C9.13758 10.6442 9.03776 10.4418 9.009 10.2238L9 10.0928V5.09277C9 4.82756 9.10536 4.5732 9.29289 4.38567C9.48043 4.19813 9.73478 4.09277 10 4.09277Z" fill="#A5EB14"/>
</svg>
