<svg width="18" height="17" viewBox="0 0 18 17" fill="none" xmlns="http://www.w3.org/2000/svg">
<path d="M16.4249 0H1.5749C1.20211 0 0.899902 0.302208 0.899902 0.675V15.525C0.899902 15.8978 1.20211 16.2 1.5749 16.2H9.55283V9.92652H7.44166V7.48161H9.55283V5.67857C9.55283 3.58614 10.8308 2.44678 12.6974 2.44678C13.5915 2.44678 14.3599 2.51335 14.5839 2.5431V4.72981L13.2893 4.73039C12.2742 4.73039 12.0776 5.21278 12.0776 5.92065V7.48161H14.4987L14.1834 9.92652H12.0776V16.2H16.4249C16.7977 16.2 17.0999 15.8978 17.0999 15.525V0.675C17.0999 0.302208 16.7977 0 16.4249 0Z" fill="#A5EB14"/>
</svg>
