<svg width="24" height="24" viewBox="0 0 24 24" fill="none" xmlns="http://www.w3.org/2000/svg">
<path d="M21.375 13.1253C20.625 16.8753 17.7977 20.4057 13.829 21.1951C9.8603 21.9846 5.83298 20.1385 3.84043 16.6167C1.84787 13.0949 2.33978 8.69208 5.06047 5.69685C7.78115 2.70161 12.375 1.87529 16.125 3.37529" fill="#F2FFD6"/>
<path d="M21.375 13.1253C20.625 16.8753 17.7977 20.4057 13.829 21.1951C9.8603 21.9846 5.83298 20.1385 3.84043 16.6167C1.84787 13.0949 2.33978 8.69208 5.06047 5.69685C7.78115 2.70161 12.375 1.87529 16.125 3.37529" stroke="#9EEB00" stroke-width="1.5" stroke-linecap="round" stroke-linejoin="round"/>
<path d="M8.625 11.625L12.375 15.375L21.375 5.625" fill="#F2FFD6"/>
<path d="M8.625 11.625L12.375 15.375L21.375 5.625" stroke="#9EEB00" stroke-width="1.5" stroke-linecap="round" stroke-linejoin="round"/>
</svg>
