<svg width="30" height="30" viewBox="0 0 30 30" fill="none" xmlns="http://www.w3.org/2000/svg">
<circle cx="14.9201" cy="14.9204" r="10.9414" fill="#0A0C33"/>
<path fill-rule="evenodd" clip-rule="evenodd" d="M0 14.9201C0 10.9631 1.57194 7.16808 4.37001 4.37001C7.16808 1.57194 10.9631 0 14.9201 0C18.8772 0 22.6722 1.57194 25.4703 4.37001C28.2683 7.16808 29.8403 10.9631 29.8403 14.9201C29.8403 18.8772 28.2683 22.6722 25.4703 25.4703C22.6722 28.2683 18.8772 29.8403 14.9201 29.8403C10.9631 29.8403 7.16808 28.2683 4.37001 25.4703C1.57194 22.6722 0 18.8772 0 14.9201ZM14.0687 21.306L22.6587 10.5674L21.107 9.32608L13.7822 18.4791L8.594 14.1562L7.32081 15.684L14.0687 21.306Z" fill="#A5EB14"/>
</svg>
