<svg width="17" height="17" viewBox="0 0 17 17" fill="none" xmlns="http://www.w3.org/2000/svg">
<path fill-rule="evenodd" clip-rule="evenodd" d="M5.56049 0.0486C6.42449 0.00945 6.70022 0 8.90005 0C11.0999 0 11.3756 0.00945 12.2396 0.0486C13.5565 0.108675 14.7125 0.431325 15.6406 1.35945C16.5691 2.28791 16.8914 3.44419 16.9514 4.76044C16.9906 5.62444 17 5.90018 17 8.1C17 10.2998 16.9906 10.5756 16.9514 11.4396C16.8914 12.7565 16.5687 13.9124 15.6406 14.8406C14.7121 15.769 13.5555 16.0913 12.2396 16.1514C11.3756 16.1905 11.0999 16.2 8.90005 16.2C6.70022 16.2 6.42449 16.1905 5.56049 16.1514C4.24356 16.0913 3.08762 15.7687 2.1595 14.8406C1.23104 13.9121 0.908724 12.7558 0.848649 11.4396C0.809499 10.5756 0.800049 10.2998 0.800049 8.1C0.800049 5.90018 0.809499 5.62444 0.848649 4.76044C0.908724 3.44351 1.23137 2.28758 2.1595 1.35945C3.08796 0.430987 4.24424 0.108675 5.56049 0.0486ZM12.1731 1.50656C11.3189 1.46741 11.0628 1.45931 8.90007 1.45931C6.73737 1.45931 6.48121 1.46775 5.627 1.50656C4.70529 1.54875 3.84972 1.73336 3.1916 2.39149C2.53347 3.04961 2.34886 3.90518 2.30667 4.82689C2.26752 5.6811 2.25942 5.93726 2.25942 8.09996C2.25942 10.2627 2.26786 10.5188 2.30667 11.373C2.34886 12.2948 2.53347 13.1503 3.1916 13.8084C3.84972 14.4666 4.70529 14.6512 5.627 14.6934C6.48087 14.7325 6.73704 14.7406 8.90007 14.7406C11.0631 14.7406 11.3193 14.7322 12.1731 14.6934C13.0949 14.6512 13.9504 14.4666 14.6085 13.8084C15.2667 13.1503 15.4513 12.2948 15.4935 11.373C15.5326 10.5188 15.5407 10.2627 15.5407 8.09996C15.5407 5.93726 15.5323 5.6811 15.4935 4.82689C15.4513 3.90518 15.2667 3.04961 14.6085 2.39149C13.9504 1.73336 13.0949 1.54875 12.1731 1.50656Z" fill="#A5EB14"/>
<path fill-rule="evenodd" clip-rule="evenodd" d="M5.21802 8.46797C5.21802 6.23133 7.03105 4.41797 9.26802 4.41797C11.505 4.41797 13.318 6.231 13.318 8.46797C13.318 10.7049 11.505 12.518 9.26802 12.518C7.03105 12.518 5.21802 10.7046 5.21802 8.46797ZM6.63899 8.4679C6.63899 9.91977 7.81613 11.0969 9.26801 11.0969C10.7199 11.0969 11.897 9.91977 11.897 8.4679C11.897 7.01602 10.7199 5.83888 9.26801 5.83888C7.81613 5.83888 6.63899 7.01602 6.63899 8.4679Z" fill="#A5EB14"/>
<circle cx="12.95" cy="4.04998" r="1.10455" fill="#A5EB14"/>
</svg>
