<svg width="17" height="17" viewBox="0 0 17 17" fill="none" xmlns="http://www.w3.org/2000/svg">
<path fill-rule="evenodd" clip-rule="evenodd" d="M1.2751 0H16.1251C16.4963 0 16.8001 0.30375 16.8001 0.675V15.525C16.8001 15.8963 16.4963 16.2 16.1251 16.2H1.2751C0.903848 16.2 0.600098 15.8963 0.600098 15.525V0.675C0.600098 0.30375 0.903848 0 1.2751 0ZM2.99609 13.8039H5.39234V6.0752H2.99609V13.8039ZM4.21134 5.02871C3.43509 5.02871 2.82759 4.42121 2.82759 3.64496C2.82759 2.86871 3.43509 2.26121 4.21134 2.26121C4.98759 2.26121 5.59509 2.86871 5.59509 3.64496C5.59509 4.38746 4.98759 5.02871 4.21134 5.02871ZM12.0075 13.8038H14.37V9.55127C14.37 7.45877 13.9312 5.87252 11.5012 5.87252C10.3537 5.87252 9.54371 6.51377 9.23996 7.12127H9.20621V6.07502H6.91121V13.8038H9.30746V9.99002C9.30746 8.97752 9.50996 7.99877 10.7587 7.99877C12.0075 7.99877 12.0075 9.14627 12.0075 10.0575V13.8038Z" fill="#A5EB14"/>
</svg>
