<svg width="36" height="36" viewBox="0 0 36 36" fill="none" xmlns="http://www.w3.org/2000/svg">
<g clip-path="url(#clip0_566_4442)">
<path d="M18.155 4.59357e-05C18.7445 4.59357e-05 19.325 0.0382959 19.865 0.128296C20.397 0.196829 20.9218 0.31279 21.4332 0.474796C21.9432 0.627796 22.4487 0.825046 22.9497 1.06655C23.438 1.2983 23.9397 1.5818 24.4415 1.89005C25.2897 2.43005 26.1245 2.86655 26.975 3.2153C28.6489 3.88679 30.4196 4.2856 32.2197 4.39655C33.1302 4.46405 34.073 4.49855 35.048 4.50005V13.5C35.048 15.2085 34.8297 16.833 34.3932 18.3735C33.9739 19.895 33.3781 21.3622 32.618 22.7453C31.8612 24.1265 30.9655 25.427 29.945 26.6265C28.9094 27.8539 27.7876 29.0059 26.588 30.0735C25.3715 31.143 24.0919 32.1386 22.7562 33.0548C21.4182 33.9848 20.0727 34.842 18.7197 35.6265L18.1797 35.9483L17.6397 35.6265C16.2518 34.8233 14.8962 33.9653 13.5762 33.0548C12.2333 32.1484 10.9532 31.1524 9.74447 30.0735C8.54566 29.0058 7.42457 27.8539 6.38972 26.6265C5.37261 25.4213 4.47302 24.1217 3.70322 22.7453C2.95681 21.3557 2.36165 19.8901 1.92797 18.3735C1.49161 16.7861 1.27509 15.1463 1.28447 13.5V4.50005C2.25947 4.49855 3.20297 4.46405 4.11497 4.39655C5.01435 4.33541 5.90786 4.2068 6.78797 4.0118C7.64972 3.8183 8.51147 3.5618 9.35972 3.2153C10.2397 2.85959 11.0836 2.42033 11.8797 1.90355C12.8697 1.26005 13.8732 0.785296 14.8632 0.472546C15.9295 0.146047 17.0399 -0.0133419 18.155 4.59357e-05ZM32.7845 6.7118C31.0814 6.62844 29.3941 6.34371 27.758 5.86355C26.1311 5.37698 24.5812 4.66265 23.1545 3.7418C22.4142 3.25716 21.611 2.87636 20.7672 2.61005C19.9239 2.3557 19.0471 2.22979 18.1662 2.23655C17.2788 2.23114 16.3955 2.357 15.545 2.61005C14.7002 2.86843 13.8981 3.24976 13.1645 3.7418C11.7348 4.66675 10.181 5.38415 8.54972 5.87255C6.95522 6.33605 5.28347 6.61955 3.53447 6.72305V13.5113C3.53447 15.0008 3.72797 16.4318 4.11497 17.8043C4.50958 19.167 5.05284 20.4821 5.73497 21.726C6.42556 22.9828 7.23957 24.1676 8.16497 25.263C9.10322 26.3678 10.1045 27.396 11.1845 28.3725C12.2645 29.349 13.3962 30.2535 14.5797 31.086C15.7752 31.92 16.9707 32.6828 18.1662 33.3743C19.3901 32.663 20.583 31.8996 21.7415 31.086C22.9342 30.2558 24.0721 29.3494 25.148 28.3725C26.228 27.396 27.2315 26.3678 28.1697 25.263C29.0951 24.1676 29.9091 22.9828 30.5997 21.726C31.2784 20.4835 31.8136 19.1678 32.195 17.8043C32.5941 16.4085 32.7926 14.963 32.7845 13.5113V6.7118Z" fill="white"/>
<path fill-rule="evenodd" clip-rule="evenodd" d="M26.5434 10.5954L25.5534 9.74487L24.6399 9.82362L14.8299 21.4066L11.4886 16.6366L10.5886 16.4836L9.54685 17.2284L9.3916 18.1284L13.6869 24.2619L14.1751 24.5319L15.2034 24.5949L15.7299 24.3654L26.6086 11.5066L26.5434 10.5954Z" fill="white"/>
</g>
<defs>
<clipPath id="clip0_566_4442">
<rect width="36" height="36" fill="white"/>
</clipPath>
</defs>
</svg>
