<svg width="26" height="26" viewBox="0 0 26 26" fill="none" xmlns="http://www.w3.org/2000/svg">
<path d="M12.9999 15.8333L10.1665 13L12.9999 10.1667L15.8332 13L12.9999 15.8333ZM9.98946 8.00058L7.59246 5.605L12.9999 0.196167L18.4073 5.60358L16.0103 8.00058L12.9999 4.99017L9.98946 8.00058ZM5.60346 18.4074L0.196045 13L5.60346 7.59258L7.99905 9.98958L4.99005 13L8.00046 16.0104L5.60346 18.4074ZM20.3963 18.4074L17.9993 16.0104L21.0097 13L17.9993 9.98958L20.3963 7.59258L25.8037 13L20.3963 18.4074ZM12.9999 25.8038L7.59246 20.3964L9.98946 17.9994L12.9999 21.0098L16.0103 17.9994L18.4073 20.3964L12.9999 25.8038Z" fill="#292929"/>
</svg>
