<svg width="33" height="31" viewBox="0 0 33 31" fill="none" xmlns="http://www.w3.org/2000/svg">
<path d="M17.6773 16.6071H23.731C24.0176 17.6508 24.6991 18.5604 25.6477 19.1653C26.5964 19.7703 27.7471 20.0291 28.8841 19.8933C30.0212 19.7575 31.0666 19.2363 31.8243 18.4275C32.582 17.6188 33 16.5779 33 15.5C33 14.4221 32.582 13.3812 31.8243 12.5725C31.0666 11.7637 30.0212 11.2425 28.8841 11.1067C27.7471 10.9709 26.5964 11.2297 25.6477 11.8347C24.6991 12.4396 24.0176 13.3492 23.731 14.3929H17.6773V5.53572H23.731C24.0176 6.57938 24.6991 7.48893 25.6477 8.09389C26.5964 8.69884 27.7471 8.95767 28.8841 8.82185C30.0212 8.68603 31.0666 8.16489 31.8243 7.35612C32.582 6.54735 33 5.50646 33 4.42858C33 3.35069 32.582 2.30981 31.8243 1.50104C31.0666 0.692264 30.0212 0.171126 28.8841 0.0353078C27.7471 -0.10051 26.5964 0.158316 25.6477 0.763272C24.6991 1.36823 24.0176 2.27778 23.731 3.32144H17.6773C17.0528 3.32144 16.4539 3.55473 16.0123 3.96999C15.5708 4.38524 15.3227 4.94846 15.3227 5.53572V14.3929H9.26895C8.9824 13.3492 8.30093 12.4396 7.35228 11.8347C6.40363 11.2297 5.25292 10.9709 4.11586 11.1067C2.9788 11.2425 1.93344 11.7637 1.17574 12.5725C0.418031 13.3812 0 14.4221 0 15.5C0 16.5779 0.418031 17.6188 1.17574 18.4275C1.93344 19.2363 2.9788 19.7575 4.11586 19.8933C5.25292 20.0291 6.40363 19.7703 7.35228 19.1653C8.30093 18.5604 8.9824 17.6508 9.26895 16.6071H15.3227V25.4643C15.3227 26.0515 15.5708 26.6148 16.0123 27.03C16.4539 27.4453 17.0528 27.6786 17.6773 27.6786H23.731C24.0176 28.7222 24.6991 29.6318 25.6477 30.2367C26.5964 30.8417 27.7471 31.1005 28.8841 30.9647C30.0212 30.8289 31.0666 30.3077 31.8243 29.499C32.582 28.6902 33 27.6493 33 26.5714C33 25.4935 32.582 24.4527 31.8243 23.6439C31.0666 22.8351 30.0212 22.314 28.8841 22.1782C27.7471 22.0423 26.5964 22.3012 25.6477 22.9061C24.6991 23.5111 24.0176 24.4206 23.731 25.4643H17.6773V16.6071ZM28.2731 13.2857C28.7388 13.2857 29.1941 13.4156 29.5813 13.6589C29.9685 13.9022 30.2703 14.248 30.4485 14.6526C30.6267 15.0572 30.6733 15.5025 30.5825 15.932C30.4916 16.3615 30.2674 16.7561 29.9381 17.0657C29.6088 17.3754 29.1892 17.5863 28.7325 17.6717C28.2757 17.7572 27.8023 17.7133 27.372 17.5457C26.9418 17.3781 26.574 17.0943 26.3153 16.7302C26.0566 16.3661 25.9185 15.9379 25.9185 15.5C25.9185 14.9127 26.1666 14.3495 26.6081 13.9343C27.0497 13.519 27.6486 13.2857 28.2731 13.2857ZM28.2731 2.21429C28.7388 2.21429 29.1941 2.34416 29.5813 2.58747C29.9685 2.83078 30.2703 3.1766 30.4485 3.58121C30.6267 3.98582 30.6733 4.43104 30.5825 4.86056C30.4916 5.29009 30.2674 5.68464 29.9381 5.99431C29.6088 6.30399 29.1892 6.51488 28.7325 6.60032C28.2757 6.68576 27.8023 6.6419 27.372 6.47431C26.9418 6.30672 26.574 6.02291 26.3153 5.65877C26.0566 5.29463 25.9185 4.86652 25.9185 4.42858C25.9185 3.84131 26.1666 3.2781 26.6081 2.86284C27.0497 2.44758 27.6486 2.21429 28.2731 2.21429ZM4.72688 17.7143C4.26118 17.7143 3.80594 17.5844 3.41873 17.3411C3.03151 17.0978 2.72971 16.752 2.5515 16.3474C2.37328 15.9428 2.32665 15.4975 2.41751 15.068C2.50836 14.6385 2.73262 14.2439 3.06192 13.9343C3.39122 13.6246 3.81077 13.4137 4.26752 13.3283C4.72427 13.2428 5.19771 13.2867 5.62796 13.4543C6.05821 13.6219 6.42595 13.9057 6.68468 14.2698C6.94341 14.6339 7.08151 15.0621 7.08151 15.5C7.08151 16.0873 6.83343 16.6505 6.39185 17.0657C5.95028 17.481 5.35137 17.7143 4.72688 17.7143ZM28.2731 24.3571C28.7388 24.3571 29.1941 24.487 29.5813 24.7303C29.9685 24.9736 30.2703 25.3194 30.4485 25.7241C30.6267 26.1287 30.6733 26.5739 30.5825 27.0034C30.4916 27.4329 30.2674 27.8275 29.9381 28.1372C29.6088 28.4468 29.1892 28.6577 28.7325 28.7432C28.2757 28.8286 27.8023 28.7847 27.372 28.6172C26.9418 28.4496 26.574 28.1657 26.3153 27.8016C26.0566 27.4375 25.9185 27.0094 25.9185 26.5714C25.9185 25.9842 26.1666 25.4209 26.6081 25.0057C27.0497 24.5904 27.6486 24.3571 28.2731 24.3571Z" fill="#0A0C33"/>
</svg>
