<svg width="18" height="18" viewBox="0 0 18 18" fill="none" xmlns="http://www.w3.org/2000/svg">
<path d="M8 0C8.25488 0.000282707 8.50003 0.0978791 8.68537 0.272848C8.8707 0.447818 8.98223 0.686953 8.99717 0.941395C9.01211 1.19584 8.92933 1.44638 8.76574 1.64183C8.60215 1.83729 8.3701 1.9629 8.117 1.993L8 2H2V16H16V10C16.0003 9.74512 16.0979 9.49997 16.2728 9.31463C16.4478 9.1293 16.687 9.01777 16.9414 9.00283C17.1958 8.98789 17.4464 9.07067 17.6418 9.23426C17.8373 9.39785 17.9629 9.6299 17.993 9.883L18 10V16C18.0002 16.5046 17.8096 16.9906 17.4665 17.3605C17.1234 17.7305 16.6532 17.9572 16.15 17.995L16 18H2C1.49542 18.0002 1.00943 17.8096 0.639452 17.4665C0.269471 17.1234 0.0428434 16.6532 0.00500021 16.15L1.00268e-07 16V2C-0.000159579 1.49542 0.190406 1.00943 0.533497 0.639452C0.876588 0.269471 1.34684 0.0428433 1.85 0.00500011L2 0H8ZM16.75 0C17.44 0 18 0.56 18 1.25V5C18 5.26522 17.8946 5.51957 17.7071 5.70711C17.5196 5.89464 17.2652 6 17 6C16.7348 6 16.4804 5.89464 16.2929 5.70711C16.1054 5.51957 16 5.26522 16 5V3.414L9.414 10H11C11.2652 10 11.5196 10.1054 11.7071 10.2929C11.8946 10.4804 12 10.7348 12 11C12 11.2652 11.8946 11.5196 11.7071 11.7071C11.5196 11.8946 11.2652 12 11 12H7.25C6.56 12 6 11.44 6 10.75V7C6 6.73478 6.10536 6.48043 6.29289 6.29289C6.48043 6.10536 6.73478 6 7 6C7.26522 6 7.51957 6.10536 7.70711 6.29289C7.89464 6.48043 8 6.73478 8 7V8.586L14.586 2H13C12.7348 2 12.4804 1.89464 12.2929 1.70711C12.1054 1.51957 12 1.26522 12 1C12 0.734784 12.1054 0.48043 12.2929 0.292893C12.4804 0.105357 12.7348 0 13 0H16.75Z" fill="white"/>
</svg>
