<svg width="28" height="28" viewBox="0 0 28 28" fill="none" xmlns="http://www.w3.org/2000/svg">
<g clip-path="url(#clip0_50_279)">
<path fill-rule="evenodd" clip-rule="evenodd" d="M14.4142 0.956056C14.2842 0.896927 14.1431 0.866333 14.0002 0.866333C13.8574 0.866333 13.7162 0.896927 13.5862 0.956056L8.34024 3.34406L13.9962 5.92006L19.6562 3.34206L14.4142 0.956056ZM7.40024 11.2201V5.11206L13.0002 7.66206V14.4121L7.98224 12.1301C7.80754 12.0506 7.65939 11.9226 7.55548 11.7612C7.45157 11.5998 7.39629 11.412 7.39624 11.2201M14.9962 24.6441V17.9641L20.3002 20.3801V27.1301L15.2882 24.8481C15.1788 24.7983 15.0812 24.7292 14.9962 24.6441ZM22.2982 27.1341V20.3801L27.9042 17.8281V23.9381C27.9042 24.13 27.8489 24.3178 27.745 24.4792C27.6411 24.6405 27.4929 24.7686 27.3182 24.8481L22.2982 27.1341ZM12.9962 17.9641V24.6521C12.913 24.7335 12.8163 24.7999 12.7102 24.8481L7.69024 27.1341V20.3801L12.9962 17.9641ZM5.69024 20.3801V27.1301L0.680238 24.8481C0.505536 24.7686 0.357389 24.6405 0.25348 24.4792C0.149572 24.3178 0.0942914 24.13 0.0942383 23.9381V17.8301L5.69024 20.3801ZM14.9962 14.4161V7.66006L20.6022 5.10806V11.2201C20.6022 11.412 20.5469 11.5998 20.443 11.7612C20.3391 11.9226 20.1909 12.0506 20.0162 12.1301L14.9962 14.4161ZM20.8922 13.6761C21.0222 13.6169 21.1634 13.5863 21.3062 13.5863C21.4491 13.5863 21.5902 13.6169 21.7202 13.6761L26.9602 16.0601L21.3002 18.6381L15.6502 16.0601L20.8922 13.6761ZM6.28024 13.6761C6.41025 13.6169 6.55141 13.5863 6.69424 13.5863C6.83706 13.5863 6.97823 13.6169 7.10824 13.6761L12.3482 16.0601L6.69024 18.6401L1.03624 16.0601L6.28024 13.6761Z" fill="#292929"/>
</g>
<defs>
<clipPath id="clip0_50_279">
<rect width="28" height="28" fill="white"/>
</clipPath>
</defs>
</svg>
