<svg width="23" height="25" viewBox="0 0 23 25" fill="none" xmlns="http://www.w3.org/2000/svg">
<path d="M22.6167 4.79899L11.7556 0.0560576C11.6756 0.0191408 11.5883 0 11.5 0C11.4117 0 11.3244 0.0191408 11.2444 0.0560576L0.383334 4.79899C0.271028 4.8471 0.175179 4.92591 0.107213 5.02602C0.0392475 5.12613 0.0020309 5.24332 0 5.36362V8.72633C0 14.8997 3.75667 22.3779 11.27 24.9627C11.4192 25.0124 11.5808 25.0124 11.73 24.9627C19.2433 22.3779 23 14.8997 23 8.72633V5.36362C22.998 5.24332 22.9608 5.12613 22.8928 5.02602C22.8248 4.92591 22.729 4.8471 22.6167 4.79899ZM17.4902 8.95219L10.7436 17.3866C10.6455 17.5082 10.5224 17.6081 10.3824 17.6799C10.2424 17.7517 10.0885 17.7937 9.93089 17.8031L9.86444 17.8057C9.56736 17.8052 9.28255 17.6892 9.07222 17.4832L5.59667 14.0703C5.38706 13.864 5.26951 13.5843 5.26987 13.2929C5.27023 13.0015 5.38847 12.7221 5.59858 12.5163C5.80869 12.3105 6.09346 12.195 6.39024 12.1954C6.68703 12.1957 6.97151 12.3118 7.18111 12.5182L9.76478 15.0553L15.732 7.59581C15.9185 7.37628 16.1849 7.23677 16.4744 7.20689C16.764 7.17701 17.0541 7.25911 17.283 7.43576C17.5119 7.61242 17.6618 7.86972 17.7007 8.15308C17.7396 8.43643 17.6646 8.72353 17.4915 8.95344L17.4902 8.95219Z" fill="#292929"/>
</svg>
