<svg width="36" height="36" viewBox="0 0 36 36" fill="none" xmlns="http://www.w3.org/2000/svg">
<path d="M32.0625 19.6874C30.9375 25.3124 26.6964 30.6081 20.7434 31.7922C14.7904 32.9764 8.74941 30.2073 5.76058 24.9245C2.77175 19.6419 3.50961 13.0376 7.59064 8.54479C11.6717 4.05192 18.5625 2.81244 24.1875 5.06244" fill="#E5FFEE"/>
<path d="M32.0625 19.6874C30.9375 25.3124 26.6964 30.6081 20.7434 31.7922C14.7904 32.9764 8.74941 30.2073 5.76058 24.9245C2.77175 19.6419 3.50961 13.0376 7.59064 8.54479C11.6717 4.05192 18.5625 2.81244 24.1875 5.06244" stroke="#16A34A" stroke-width="1.5" stroke-linecap="round" stroke-linejoin="round"/>
<path d="M12.9375 17.4375L18.5625 23.0625L32.0625 8.4375" fill="#E5FFEE"/>
<path d="M12.9375 17.4375L18.5625 23.0625L32.0625 8.4375" stroke="#16A34A" stroke-width="1.5" stroke-linecap="round" stroke-linejoin="round"/>
</svg>
