<svg width="16" height="15" viewBox="0 0 16 15" fill="none" xmlns="http://www.w3.org/2000/svg">
<path fill-rule="evenodd" clip-rule="evenodd" d="M15.3 2.36577C14.7263 2.64412 14.1206 2.81809 13.4831 2.92247C14.1206 2.50495 14.6306 1.84386 14.8538 1.04361C14.2481 1.42634 13.5788 1.70469 12.8456 1.87866C12.2719 1.21757 11.4431 0.800049 10.5506 0.800049C8.82938 0.800049 7.42688 2.33098 7.42688 4.20984C7.42688 4.48819 7.45875 4.73175 7.5225 4.97531C4.94063 4.83613 2.61375 3.47917 1.05188 1.39154C0.796875 1.91345 0.6375 2.47015 0.6375 3.09644C0.6375 4.27943 1.17938 5.32324 2.04 5.94953C1.53 5.91474 1.05187 5.77556 0.605625 5.53201V5.5668C0.605625 7.2369 1.68938 8.62866 3.12375 8.9418C2.86875 9.01139 2.58188 9.04618 2.295 9.04618C2.10375 9.04618 1.88063 9.01139 1.68938 8.97659C2.10375 10.3336 3.25125 11.3426 4.62187 11.3426C3.53813 12.2472 2.19938 12.8039 0.733125 12.8039C0.478125 12.8039 0.223125 12.8039 0 12.7691C1.4025 13.7433 3.02813 14.3 4.81313 14.3C10.5825 14.3 13.7381 9.08098 13.7381 4.55778C13.7381 4.41861 13.7381 4.24464 13.7381 4.10546C14.3438 3.65314 14.8856 3.06165 15.3 2.36577Z" fill="#A5EB14"/>
</svg>
