<svg width="516" height="410" viewBox="0 0 516 410" fill="none" xmlns="http://www.w3.org/2000/svg">
<rect x="56.5801" y="106.665" width="406.642" height="266.475" rx="19" stroke="#0A0C33" stroke-width="2"/>
<g filter="url(#filter0_d_1177_1841)">
<rect x="20" y="299.044" width="475.012" height="86.9558" rx="10" fill="white"/>
<rect x="20.5" y="299.544" width="474.012" height="85.9558" rx="9.5" stroke="#0A0C33" stroke-opacity="0.1"/>
<path d="M110.248 336.028L109.744 334.516H106.396L105.892 336.028H104.104L107.044 327.628H109.096L112.048 336.028H110.248ZM106.924 332.968H109.228L108.076 329.536L106.924 332.968ZM114.34 331.06C114.484 330.676 114.72 330.388 115.048 330.196C115.384 330.004 115.756 329.908 116.164 329.908V331.636C115.692 331.58 115.268 331.676 114.892 331.924C114.524 332.172 114.34 332.584 114.34 333.16V336.028H112.792V330.028H114.34V331.06ZM121.029 330.028H122.577V336.028H121.029V335.356C120.653 335.916 120.057 336.196 119.241 336.196C118.585 336.196 118.041 335.976 117.609 335.536C117.185 335.096 116.973 334.488 116.973 333.712V330.028H118.521V333.52C118.521 333.92 118.629 334.228 118.845 334.444C119.061 334.652 119.349 334.756 119.709 334.756C120.109 334.756 120.429 334.632 120.669 334.384C120.909 334.136 121.029 333.764 121.029 333.268V330.028ZM127.331 329.86C127.987 329.86 128.527 330.08 128.951 330.52C129.383 330.96 129.599 331.568 129.599 332.344V336.028H128.051V332.536C128.051 332.136 127.943 331.832 127.727 331.624C127.511 331.408 127.223 331.3 126.863 331.3C126.463 331.3 126.143 331.424 125.903 331.672C125.663 331.92 125.543 332.292 125.543 332.788V336.028H123.995V330.028H125.543V330.7C125.919 330.14 126.515 329.86 127.331 329.86Z" fill="#1E1E1E"/>
</g>
<circle cx="61.5312" cy="341.873" r="22.8613" stroke="#0A0C33"/>
<path d="M108.535 349.664C109.679 349.664 110.627 350.072 111.379 350.888C112.139 351.696 112.519 352.688 112.519 353.864C112.519 355.04 112.139 356.036 111.379 356.852C110.627 357.66 109.679 358.064 108.535 358.064H105.259V349.664H108.535ZM108.535 357.008C109.391 357.008 110.091 356.708 110.635 356.108C111.179 355.508 111.451 354.76 111.451 353.864C111.451 352.968 111.179 352.22 110.635 351.62C110.091 351.02 109.391 350.72 108.535 350.72H106.375V357.008H108.535ZM118.733 352.064H119.777V358.064H118.733V357.032C118.213 357.824 117.457 358.22 116.465 358.22C115.625 358.22 114.909 357.916 114.317 357.308C113.725 356.692 113.429 355.944 113.429 355.064C113.429 354.184 113.725 353.44 114.317 352.832C114.909 352.216 115.625 351.908 116.465 351.908C117.457 351.908 118.213 352.304 118.733 353.096V352.064ZM116.597 357.212C117.205 357.212 117.713 357.008 118.121 356.6C118.529 356.184 118.733 355.672 118.733 355.064C118.733 354.456 118.529 353.948 118.121 353.54C117.713 353.124 117.205 352.916 116.597 352.916C115.997 352.916 115.493 353.124 115.085 353.54C114.677 353.948 114.473 354.456 114.473 355.064C114.473 355.672 114.677 356.184 115.085 356.6C115.493 357.008 115.997 357.212 116.597 357.212ZM124.622 353.072H123.026V356.324C123.026 356.62 123.082 356.832 123.194 356.96C123.314 357.08 123.494 357.144 123.734 357.152C123.974 357.152 124.27 357.144 124.622 357.128V358.064C123.71 358.184 123.042 358.112 122.618 357.848C122.194 357.576 121.982 357.068 121.982 356.324V353.072H120.794V352.064H121.982V350.696L123.026 350.384V352.064H124.622V353.072ZM126.286 355.544C126.39 356.08 126.634 356.496 127.018 356.792C127.41 357.088 127.89 357.236 128.458 357.236C129.25 357.236 129.826 356.944 130.186 356.36L131.074 356.864C130.49 357.768 129.61 358.22 128.434 358.22C127.482 358.22 126.706 357.924 126.106 357.332C125.514 356.732 125.218 355.976 125.218 355.064C125.218 354.16 125.51 353.408 126.094 352.808C126.678 352.208 127.434 351.908 128.362 351.908C129.242 351.908 129.958 352.22 130.51 352.844C131.07 353.46 131.35 354.204 131.35 355.076C131.35 355.228 131.338 355.384 131.314 355.544H126.286ZM128.362 352.892C127.802 352.892 127.338 353.052 126.97 353.372C126.602 353.684 126.374 354.104 126.286 354.632H130.294C130.206 354.064 129.982 353.632 129.622 353.336C129.262 353.04 128.842 352.892 128.362 352.892ZM137.134 349.664H138.094V358.064H136.99V350.864L135.202 351.392L134.926 350.432L137.134 349.664ZM145.203 357.032C144.635 357.824 143.839 358.22 142.815 358.22C141.791 358.22 140.995 357.824 140.427 357.032C139.859 356.24 139.575 355.184 139.575 353.864C139.575 352.544 139.859 351.488 140.427 350.696C140.995 349.904 141.791 349.508 142.815 349.508C143.839 349.508 144.635 349.904 145.203 350.696C145.771 351.488 146.055 352.544 146.055 353.864C146.055 355.184 145.771 356.24 145.203 357.032ZM141.243 356.276C141.611 356.844 142.135 357.128 142.815 357.128C143.495 357.128 144.019 356.844 144.387 356.276C144.763 355.708 144.951 354.904 144.951 353.864C144.951 352.824 144.763 352.02 144.387 351.452C144.019 350.876 143.495 350.588 142.815 350.588C142.135 350.588 141.611 350.872 141.243 351.44C140.875 352.008 140.691 352.816 140.691 353.864C140.691 354.904 140.875 355.708 141.243 356.276ZM147.494 354.884V353.876H151.874V354.884H147.494ZM156.01 352.94C156.802 352.94 157.47 353.176 158.014 353.648C158.566 354.112 158.842 354.756 158.842 355.58C158.842 356.396 158.562 357.04 158.002 357.512C157.442 357.984 156.762 358.22 155.962 358.22C155.322 358.22 154.75 358.068 154.246 357.764C153.742 357.452 153.39 357.004 153.19 356.42L154.138 355.88C154.25 356.288 154.466 356.6 154.786 356.816C155.106 357.024 155.498 357.128 155.962 357.128C156.49 357.128 156.918 356.992 157.246 356.72C157.574 356.448 157.738 356.068 157.738 355.58C157.738 355.092 157.574 354.712 157.246 354.44C156.918 354.16 156.498 354.02 155.986 354.02H153.61L153.922 349.664H158.518V350.708H154.93L154.786 352.94H156.01ZM160.185 354.884V353.876H164.565V354.884H160.185ZM165.893 358.064V357.152L168.857 354.128C169.649 353.336 170.045 352.656 170.045 352.088C170.045 351.616 169.901 351.248 169.613 350.984C169.325 350.72 168.973 350.588 168.557 350.588C167.765 350.588 167.189 350.964 166.829 351.716L165.893 351.164C166.157 350.62 166.521 350.208 166.985 349.928C167.457 349.648 167.977 349.508 168.545 349.508C169.249 349.508 169.861 349.74 170.381 350.204C170.901 350.668 171.161 351.292 171.161 352.076C171.161 352.924 170.661 353.848 169.661 354.848L167.513 356.984H171.317V358.064H165.893ZM177.84 357.032C177.272 357.824 176.476 358.22 175.452 358.22C174.428 358.22 173.632 357.824 173.064 357.032C172.496 356.24 172.212 355.184 172.212 353.864C172.212 352.544 172.496 351.488 173.064 350.696C173.632 349.904 174.428 349.508 175.452 349.508C176.476 349.508 177.272 349.904 177.84 350.696C178.408 351.488 178.692 352.544 178.692 353.864C178.692 355.184 178.408 356.24 177.84 357.032ZM173.88 356.276C174.248 356.844 174.772 357.128 175.452 357.128C176.132 357.128 176.656 356.844 177.024 356.276C177.4 355.708 177.588 354.904 177.588 353.864C177.588 352.824 177.4 352.02 177.024 351.452C176.656 350.876 176.132 350.588 175.452 350.588C174.772 350.588 174.248 350.872 173.88 351.44C173.512 352.008 173.328 352.816 173.328 353.864C173.328 354.904 173.512 355.708 173.88 356.276ZM179.51 358.064V357.152L182.474 354.128C183.266 353.336 183.662 352.656 183.662 352.088C183.662 351.616 183.518 351.248 183.23 350.984C182.942 350.72 182.59 350.588 182.174 350.588C181.382 350.588 180.806 350.964 180.446 351.716L179.51 351.164C179.774 350.62 180.138 350.208 180.602 349.928C181.074 349.648 181.594 349.508 182.162 349.508C182.866 349.508 183.478 349.74 183.998 350.204C184.518 350.668 184.778 351.292 184.778 352.076C184.778 352.924 184.278 353.848 183.278 354.848L181.13 356.984H184.934V358.064H179.51ZM188.553 352.94C189.345 352.94 190.013 353.176 190.557 353.648C191.109 354.112 191.385 354.756 191.385 355.58C191.385 356.396 191.105 357.04 190.545 357.512C189.985 357.984 189.305 358.22 188.505 358.22C187.865 358.22 187.293 358.068 186.789 357.764C186.285 357.452 185.933 357.004 185.733 356.42L186.681 355.88C186.793 356.288 187.009 356.6 187.329 356.816C187.649 357.024 188.041 357.128 188.505 357.128C189.033 357.128 189.461 356.992 189.789 356.72C190.117 356.448 190.281 356.068 190.281 355.58C190.281 355.092 190.117 354.712 189.789 354.44C189.461 354.16 189.041 354.02 188.529 354.02H186.153L186.465 349.664H191.061V350.708H187.473L187.329 352.94H188.553Z" fill="#1E1E1E"/>
<path d="M390.734 349.784C391.51 349.784 392.154 350.044 392.666 350.564C393.186 351.076 393.446 351.716 393.446 352.484C393.446 353.244 393.186 353.884 392.666 354.404C392.154 354.924 391.51 355.184 390.734 355.184H388.802V358.184H387.686V349.784H390.734ZM390.734 354.14C391.198 354.14 391.582 353.984 391.886 353.672C392.19 353.352 392.342 352.956 392.342 352.484C392.342 352.004 392.19 351.608 391.886 351.296C391.582 350.984 391.198 350.828 390.734 350.828H388.802V354.14H390.734ZM399.167 352.184H400.211V358.184H399.167V357.152C398.647 357.944 397.891 358.34 396.899 358.34C396.059 358.34 395.343 358.036 394.751 357.428C394.159 356.812 393.863 356.064 393.863 355.184C393.863 354.304 394.159 353.56 394.751 352.952C395.343 352.336 396.059 352.028 396.899 352.028C397.891 352.028 398.647 352.424 399.167 353.216V352.184ZM397.031 357.332C397.639 357.332 398.147 357.128 398.555 356.72C398.963 356.304 399.167 355.792 399.167 355.184C399.167 354.576 398.963 354.068 398.555 353.66C398.147 353.244 397.639 353.036 397.031 353.036C396.431 353.036 395.927 353.244 395.519 353.66C395.111 354.068 394.907 354.576 394.907 355.184C394.907 355.792 395.111 356.304 395.519 356.72C395.927 357.128 396.431 357.332 397.031 357.332ZM405.981 352.184H407.097L404.649 358.556C404.393 359.236 404.033 359.752 403.569 360.104C403.113 360.464 402.585 360.624 401.985 360.584V359.612C402.721 359.668 403.261 359.26 403.605 358.388L403.713 358.16L401.097 352.184H402.213L404.253 356.888L405.981 352.184ZM414.449 352.028C415.121 352.028 415.665 352.248 416.081 352.688C416.497 353.12 416.705 353.708 416.705 354.452V358.184H415.661V354.488C415.661 354.024 415.541 353.664 415.301 353.408C415.061 353.152 414.741 353.024 414.341 353.024C413.893 353.024 413.533 353.176 413.261 353.48C412.997 353.776 412.865 354.232 412.865 354.848V358.184H411.821V354.488C411.821 354.024 411.705 353.664 411.473 353.408C411.249 353.152 410.941 353.024 410.549 353.024C410.109 353.024 409.741 353.176 409.445 353.48C409.157 353.784 409.013 354.24 409.013 354.848V358.184H407.969V352.184H409.013V352.988C409.421 352.348 410.017 352.028 410.801 352.028C411.609 352.028 412.197 352.368 412.565 353.048C412.981 352.368 413.609 352.028 414.449 352.028ZM418.884 355.664C418.988 356.2 419.232 356.616 419.616 356.912C420.008 357.208 420.488 357.356 421.056 357.356C421.848 357.356 422.424 357.064 422.784 356.48L423.672 356.984C423.088 357.888 422.208 358.34 421.032 358.34C420.08 358.34 419.304 358.044 418.704 357.452C418.112 356.852 417.816 356.096 417.816 355.184C417.816 354.28 418.108 353.528 418.692 352.928C419.276 352.328 420.032 352.028 420.96 352.028C421.84 352.028 422.556 352.34 423.108 352.964C423.668 353.58 423.948 354.324 423.948 355.196C423.948 355.348 423.936 355.504 423.912 355.664H418.884ZM420.96 353.012C420.4 353.012 419.936 353.172 419.568 353.492C419.2 353.804 418.972 354.224 418.884 354.752H422.892C422.804 354.184 422.58 353.752 422.22 353.456C421.86 353.16 421.44 353.012 420.96 353.012ZM428.136 352.028C428.84 352.028 429.404 352.252 429.828 352.7C430.252 353.14 430.464 353.74 430.464 354.5V358.184H429.42V354.56C429.42 354.072 429.288 353.696 429.024 353.432C428.76 353.16 428.396 353.024 427.932 353.024C427.412 353.024 426.992 353.188 426.672 353.516C426.352 353.836 426.192 354.332 426.192 355.004V358.184H425.148V352.184H426.192V353.048C426.616 352.368 427.264 352.028 428.136 352.028ZM435.186 353.192H433.59V356.444C433.59 356.74 433.646 356.952 433.758 357.08C433.878 357.2 434.058 357.264 434.298 357.272C434.538 357.272 434.834 357.264 435.186 357.248V358.184C434.274 358.304 433.606 358.232 433.182 357.968C432.758 357.696 432.546 357.188 432.546 356.444V353.192H431.358V352.184H432.546V350.816L433.59 350.504V352.184H435.186V353.192ZM442.769 352.028C443.609 352.028 444.325 352.336 444.917 352.952C445.509 353.56 445.805 354.304 445.805 355.184C445.805 356.064 445.509 356.812 444.917 357.428C444.325 358.036 443.609 358.34 442.769 358.34C441.777 358.34 441.021 357.944 440.501 357.152V360.584H439.457V352.184H440.501V353.216C441.021 352.424 441.777 352.028 442.769 352.028ZM442.637 357.332C443.237 357.332 443.741 357.128 444.149 356.72C444.557 356.304 444.761 355.792 444.761 355.184C444.761 354.576 444.557 354.068 444.149 353.66C443.741 353.244 443.237 353.036 442.637 353.036C442.029 353.036 441.521 353.244 441.113 353.66C440.705 354.068 440.501 354.576 440.501 355.184C440.501 355.792 440.705 356.304 441.113 356.72C441.521 357.128 442.029 357.332 442.637 357.332ZM452.019 352.184H453.063V358.184H452.019V357.152C451.499 357.944 450.743 358.34 449.751 358.34C448.911 358.34 448.195 358.036 447.603 357.428C447.011 356.812 446.715 356.064 446.715 355.184C446.715 354.304 447.011 353.56 447.603 352.952C448.195 352.336 448.911 352.028 449.751 352.028C450.743 352.028 451.499 352.424 452.019 353.216V352.184ZM449.883 357.332C450.491 357.332 450.999 357.128 451.407 356.72C451.815 356.304 452.019 355.792 452.019 355.184C452.019 354.576 451.815 354.068 451.407 353.66C450.999 353.244 450.491 353.036 449.883 353.036C449.283 353.036 448.779 353.244 448.371 353.66C447.963 354.068 447.759 354.576 447.759 355.184C447.759 355.792 447.963 356.304 448.371 356.72C448.779 357.128 449.283 357.332 449.883 357.332ZM455.172 351.092C454.972 351.092 454.804 351.024 454.668 350.888C454.532 350.752 454.464 350.588 454.464 350.396C454.464 350.204 454.532 350.04 454.668 349.904C454.804 349.76 454.972 349.688 455.172 349.688C455.364 349.688 455.528 349.76 455.664 349.904C455.8 350.04 455.868 350.204 455.868 350.396C455.868 350.588 455.8 350.752 455.664 350.888C455.528 351.024 455.364 351.092 455.172 351.092ZM454.644 358.184V352.184H455.688V358.184H454.644ZM462.249 349.784H463.293V358.184H462.249V357.152C461.729 357.944 460.973 358.34 459.981 358.34C459.141 358.34 458.425 358.036 457.833 357.428C457.241 356.812 456.945 356.064 456.945 355.184C456.945 354.304 457.241 353.56 457.833 352.952C458.425 352.336 459.141 352.028 459.981 352.028C460.973 352.028 461.729 352.424 462.249 353.216V349.784ZM460.113 357.332C460.721 357.332 461.229 357.128 461.637 356.72C462.045 356.304 462.249 355.792 462.249 355.184C462.249 354.576 462.045 354.068 461.637 353.66C461.229 353.244 460.721 353.036 460.113 353.036C459.513 353.036 459.009 353.244 458.601 353.66C458.193 354.068 457.989 354.576 457.989 355.184C457.989 355.792 458.193 356.304 458.601 356.72C459.009 357.128 459.513 357.332 460.113 357.332Z" fill="#767676"/>
<path d="M65.0164 346.788L64.1044 344.276H59.0644L58.1524 346.788H56.5684L60.7444 335.588H62.4244L66.6004 346.788H65.0164ZM59.5764 342.884H63.5924L61.5764 337.364L59.5764 342.884Z" fill="black"/>
<path d="M415.472 332.107L413.204 328.147V327.619H413.468C413.892 327.619 414.248 327.579 414.536 327.499C414.832 327.419 415.064 327.287 415.232 327.103C415.4 326.919 415.5 326.667 415.532 326.347H413.204V325.579H415.52C415.464 325.283 415.352 325.043 415.184 324.859C415.016 324.667 414.788 324.527 414.5 324.439C414.22 324.351 413.876 324.307 413.468 324.307H413.204V323.539H418.172V324.307H415.904C416.088 324.459 416.24 324.639 416.36 324.847C416.48 325.055 416.556 325.299 416.588 325.579H418.172V326.347H416.612C416.556 326.931 416.332 327.387 415.94 327.715C415.556 328.035 415.044 328.239 414.404 328.327L416.696 332.107H415.472ZM423.359 327.115C423.927 327.283 424.387 327.579 424.739 328.003C425.099 328.419 425.279 328.923 425.279 329.515C425.279 330.379 424.987 331.055 424.403 331.543C423.827 332.031 423.119 332.275 422.279 332.275C421.623 332.275 421.035 332.127 420.515 331.831C420.003 331.527 419.631 331.083 419.399 330.499L420.815 329.683C421.023 330.331 421.511 330.655 422.279 330.655C422.703 330.655 423.031 330.555 423.263 330.355C423.503 330.147 423.623 329.867 423.623 329.515C423.623 329.171 423.503 328.895 423.263 328.687C423.031 328.479 422.703 328.375 422.279 328.375H421.919L421.283 327.415L422.939 325.255H419.651V323.707H424.931V325.075L423.359 327.115ZM428.176 330.451L427.276 333.787H426.016L426.496 330.451H428.176ZM435.559 329.143V330.679H434.659V332.107H432.991V330.679H429.019V329.143L431.815 323.707H433.591L430.807 329.143H432.991V327.151H434.659V329.143H435.559ZM439.088 326.767C439.896 326.767 440.576 327.011 441.128 327.499C441.68 327.979 441.956 328.651 441.956 329.515C441.956 330.379 441.664 331.055 441.08 331.543C440.504 332.031 439.796 332.275 438.956 332.275C438.276 332.275 437.676 332.123 437.156 331.819C436.636 331.515 436.26 331.067 436.028 330.475L437.444 329.647C437.652 330.319 438.156 330.655 438.956 330.655C439.38 330.655 439.708 330.555 439.94 330.355C440.18 330.147 440.3 329.867 440.3 329.515C440.3 329.171 440.184 328.895 439.952 328.687C439.72 328.479 439.404 328.375 439.004 328.375H436.46L436.796 323.707H441.56V325.255H438.332L438.224 326.767H439.088ZM442.224 323.707H447.648V325.111L444.804 332.107H443.052L445.812 325.291H442.224V323.707ZM448.894 330.451L447.994 333.787H446.734L447.214 330.451H448.894ZM454.742 327.739C455.518 328.203 455.906 328.879 455.906 329.767C455.906 330.543 455.634 331.155 455.09 331.603C454.554 332.051 453.822 332.275 452.894 332.275C451.958 332.275 451.222 332.051 450.686 331.603C450.15 331.155 449.882 330.543 449.882 329.767C449.882 328.879 450.266 328.203 451.034 327.739C450.45 327.315 450.158 326.735 450.158 325.999C450.158 325.223 450.418 324.619 450.938 324.187C451.466 323.755 452.118 323.539 452.894 323.539C453.67 323.539 454.318 323.755 454.838 324.187C455.358 324.619 455.618 325.223 455.618 325.999C455.618 326.743 455.326 327.323 454.742 327.739ZM453.674 325.363C453.474 325.187 453.214 325.099 452.894 325.099C452.574 325.099 452.314 325.187 452.114 325.363C451.914 325.539 451.814 325.779 451.814 326.083C451.814 326.387 451.914 326.631 452.114 326.815C452.314 326.991 452.574 327.079 452.894 327.079C453.214 327.079 453.474 326.991 453.674 326.815C453.874 326.631 453.974 326.387 453.974 326.083C453.974 325.779 453.874 325.539 453.674 325.363ZM451.898 330.415C452.154 330.615 452.486 330.715 452.894 330.715C453.302 330.715 453.63 330.615 453.878 330.415C454.134 330.207 454.262 329.919 454.262 329.551C454.262 329.191 454.134 328.911 453.878 328.711C453.63 328.503 453.302 328.399 452.894 328.399C452.486 328.399 452.154 328.503 451.898 328.711C451.65 328.911 451.526 329.191 451.526 329.551C451.526 329.919 451.65 330.207 451.898 330.415ZM460.086 332.275C459.038 332.275 458.214 331.879 457.614 331.087C457.022 330.287 456.726 329.227 456.726 327.907C456.726 326.587 457.022 325.531 457.614 324.739C458.214 323.939 459.038 323.539 460.086 323.539C461.142 323.539 461.966 323.939 462.558 324.739C463.15 325.531 463.446 326.587 463.446 327.907C463.446 329.227 463.15 330.287 462.558 331.087C461.966 331.879 461.142 332.275 460.086 332.275ZM458.814 329.959C459.102 330.423 459.526 330.655 460.086 330.655C460.646 330.655 461.07 330.419 461.358 329.947C461.654 329.475 461.802 328.795 461.802 327.907C461.802 327.011 461.654 326.327 461.358 325.855C461.07 325.383 460.646 325.147 460.086 325.147C459.526 325.147 459.102 325.383 458.814 325.855C458.526 326.327 458.382 327.011 458.382 327.907C458.382 328.803 458.526 329.487 458.814 329.959Z" fill="#1E1E1E"/>
<path d="M436.755 141.464L434.487 137.504V136.976H434.751C435.175 136.976 435.531 136.936 435.819 136.856C436.115 136.776 436.347 136.644 436.515 136.46C436.683 136.276 436.783 136.024 436.815 135.704H434.487V134.936H436.803C436.747 134.64 436.635 134.4 436.467 134.216C436.299 134.024 436.071 133.884 435.783 133.796C435.503 133.708 435.159 133.664 434.751 133.664H434.487V132.896H439.455V133.664H437.187C437.371 133.816 437.523 133.996 437.643 134.204C437.763 134.412 437.839 134.656 437.871 134.936H439.455V135.704H437.895C437.839 136.288 437.615 136.744 437.223 137.072C436.839 137.392 436.327 137.596 435.687 137.684L437.979 141.464H436.755ZM444.642 136.472C445.21 136.64 445.67 136.936 446.022 137.36C446.382 137.776 446.562 138.28 446.562 138.872C446.562 139.736 446.27 140.412 445.686 140.9C445.11 141.388 444.402 141.632 443.562 141.632C442.906 141.632 442.318 141.484 441.798 141.188C441.286 140.884 440.914 140.44 440.682 139.856L442.098 139.04C442.306 139.688 442.794 140.012 443.562 140.012C443.986 140.012 444.314 139.912 444.546 139.712C444.786 139.504 444.906 139.224 444.906 138.872C444.906 138.528 444.786 138.252 444.546 138.044C444.314 137.836 443.986 137.732 443.562 137.732H443.202L442.566 136.772L444.222 134.612H440.934V133.064H446.214V134.432L444.642 136.472ZM449.459 139.808L448.559 143.144H447.299L447.779 139.808H449.459ZM456.843 138.5V140.036H455.943V141.464H454.275V140.036H450.303V138.5L453.099 133.064H454.875L452.091 138.5H454.275V136.508H455.943V138.5H456.843ZM460.372 136.124C461.18 136.124 461.86 136.368 462.412 136.856C462.964 137.336 463.24 138.008 463.24 138.872C463.24 139.736 462.948 140.412 462.364 140.9C461.788 141.388 461.08 141.632 460.24 141.632C459.56 141.632 458.96 141.48 458.44 141.176C457.92 140.872 457.544 140.424 457.312 139.832L458.728 139.004C458.936 139.676 459.44 140.012 460.24 140.012C460.664 140.012 460.992 139.912 461.224 139.712C461.464 139.504 461.584 139.224 461.584 138.872C461.584 138.528 461.468 138.252 461.236 138.044C461.004 137.836 460.688 137.732 460.288 137.732H457.744L458.08 133.064H462.844V134.612H459.616L459.508 136.124H460.372ZM463.507 133.064H468.931V134.468L466.087 141.464H464.335L467.095 134.648H463.507V133.064ZM470.177 139.808L469.277 143.144H468.017L468.497 139.808H470.177ZM476.025 137.096C476.801 137.56 477.189 138.236 477.189 139.124C477.189 139.9 476.917 140.512 476.373 140.96C475.837 141.408 475.105 141.632 474.177 141.632C473.241 141.632 472.505 141.408 471.969 140.96C471.433 140.512 471.165 139.9 471.165 139.124C471.165 138.236 471.549 137.56 472.317 137.096C471.733 136.672 471.441 136.092 471.441 135.356C471.441 134.58 471.701 133.976 472.221 133.544C472.749 133.112 473.401 132.896 474.177 132.896C474.953 132.896 475.601 133.112 476.121 133.544C476.641 133.976 476.901 134.58 476.901 135.356C476.901 136.1 476.609 136.68 476.025 137.096ZM474.957 134.72C474.757 134.544 474.497 134.456 474.177 134.456C473.857 134.456 473.597 134.544 473.397 134.72C473.197 134.896 473.097 135.136 473.097 135.44C473.097 135.744 473.197 135.988 473.397 136.172C473.597 136.348 473.857 136.436 474.177 136.436C474.497 136.436 474.757 136.348 474.957 136.172C475.157 135.988 475.257 135.744 475.257 135.44C475.257 135.136 475.157 134.896 474.957 134.72ZM473.181 139.772C473.437 139.972 473.769 140.072 474.177 140.072C474.585 140.072 474.913 139.972 475.161 139.772C475.417 139.564 475.545 139.276 475.545 138.908C475.545 138.548 475.417 138.268 475.161 138.068C474.913 137.86 474.585 137.756 474.177 137.756C473.769 137.756 473.437 137.86 473.181 138.068C472.933 138.268 472.809 138.548 472.809 138.908C472.809 139.276 472.933 139.564 473.181 139.772ZM481.37 141.632C480.322 141.632 479.498 141.236 478.898 140.444C478.306 139.644 478.01 138.584 478.01 137.264C478.01 135.944 478.306 134.888 478.898 134.096C479.498 133.296 480.322 132.896 481.37 132.896C482.426 132.896 483.25 133.296 483.842 134.096C484.434 134.888 484.73 135.944 484.73 137.264C484.73 138.584 484.434 139.644 483.842 140.444C483.25 141.236 482.426 141.632 481.37 141.632ZM480.098 139.316C480.386 139.78 480.81 140.012 481.37 140.012C481.93 140.012 482.354 139.776 482.642 139.304C482.938 138.832 483.086 138.152 483.086 137.264C483.086 136.368 482.938 135.684 482.642 135.212C482.354 134.74 481.93 134.504 481.37 134.504C480.81 134.504 480.386 134.74 480.098 135.212C479.81 135.684 479.666 136.368 479.666 137.264C479.666 138.16 479.81 138.844 480.098 139.316Z" fill="#1E1E1E"/>
<path d="M446.821 108.117L444.553 104.157V103.629H444.817C445.241 103.629 445.597 103.589 445.885 103.509C446.181 103.429 446.413 103.297 446.581 103.113C446.749 102.929 446.849 102.677 446.881 102.357H444.553V101.589H446.869C446.813 101.293 446.701 101.053 446.533 100.869C446.365 100.677 446.137 100.537 445.849 100.449C445.569 100.361 445.225 100.317 444.817 100.317H444.553V99.5494H449.521V100.317H447.253C447.437 100.469 447.589 100.649 447.709 100.857C447.829 101.065 447.905 101.309 447.937 101.589H449.521V102.357H447.961C447.905 102.941 447.681 103.397 447.289 103.725C446.905 104.045 446.393 104.249 445.753 104.337L448.045 108.117H446.821ZM454.036 103.209C454.708 103.297 455.26 103.557 455.692 103.989C456.132 104.413 456.352 104.977 456.352 105.681C456.352 106.481 456.076 107.113 455.524 107.577C454.98 108.033 454.316 108.261 453.532 108.261C452.908 108.261 452.352 108.117 451.864 107.829C451.376 107.541 451.032 107.129 450.832 106.593L451.528 106.185C451.664 106.601 451.908 106.917 452.26 107.133C452.612 107.341 453.036 107.445 453.532 107.445C454.108 107.445 454.58 107.293 454.948 106.989C455.324 106.677 455.512 106.241 455.512 105.681C455.512 105.121 455.324 104.689 454.948 104.385C454.58 104.073 454.108 103.917 453.532 103.917V103.905L453.52 103.917H453.292L452.932 103.365L455.02 100.509H451.072V99.7174H455.992V100.509L454.036 103.209ZM463.73 105.645V106.437H462.65V108.117H461.81V106.437H457.37V105.645L460.49 99.7174H461.414L458.294 105.645H461.81V103.077H462.65V105.645H463.73ZM466.191 107.097L465.471 109.797H464.751L465.231 107.097H466.191ZM470.094 103.101C470.878 103.101 471.542 103.333 472.086 103.797C472.638 104.253 472.914 104.881 472.914 105.681C472.914 106.481 472.638 107.113 472.086 107.577C471.542 108.033 470.878 108.261 470.094 108.261C469.462 108.261 468.898 108.109 468.402 107.805C467.906 107.493 467.57 107.049 467.394 106.473L468.102 106.065C468.222 106.513 468.458 106.857 468.81 107.097C469.17 107.329 469.598 107.445 470.094 107.445C470.67 107.445 471.142 107.293 471.51 106.989C471.886 106.677 472.074 106.241 472.074 105.681C472.074 105.121 471.886 104.689 471.51 104.385C471.142 104.073 470.67 103.917 470.094 103.917H467.814L468.114 99.7174H472.614V100.509H468.858L468.678 103.101H470.094ZM473.4 99.7174H478.56V100.509L475.392 108.117H474.516L477.684 100.509H473.4V99.7174ZM483.278 103.785C483.702 103.985 484.038 104.265 484.286 104.625C484.542 104.977 484.67 105.381 484.67 105.837C484.67 106.597 484.402 107.193 483.866 107.625C483.33 108.049 482.662 108.261 481.862 108.261C481.062 108.261 480.394 108.049 479.858 107.625C479.322 107.193 479.054 106.597 479.054 105.837C479.054 105.381 479.178 104.977 479.426 104.625C479.682 104.265 480.022 103.985 480.446 103.785C479.702 103.361 479.33 102.733 479.33 101.901C479.33 101.149 479.578 100.573 480.074 100.173C480.578 99.7734 481.174 99.5734 481.862 99.5734C482.55 99.5734 483.142 99.7734 483.638 100.173C484.142 100.573 484.394 101.149 484.394 101.901C484.394 102.733 484.022 103.361 483.278 103.785ZM483.062 100.761C482.742 100.513 482.342 100.389 481.862 100.389C481.382 100.389 480.978 100.513 480.65 100.761C480.33 101.009 480.17 101.389 480.17 101.901C480.17 102.381 480.334 102.753 480.662 103.017C480.998 103.281 481.398 103.413 481.862 103.413C482.326 103.413 482.722 103.281 483.05 103.017C483.386 102.753 483.554 102.381 483.554 101.901C483.554 101.389 483.39 101.009 483.062 100.761ZM480.434 107.037C480.794 107.309 481.27 107.445 481.862 107.445C482.454 107.445 482.93 107.309 483.29 107.037C483.65 106.757 483.83 106.357 483.83 105.837C483.83 105.317 483.65 104.921 483.29 104.649C482.93 104.369 482.454 104.229 481.862 104.229C481.27 104.229 480.794 104.369 480.434 104.649C480.074 104.921 479.894 105.317 479.894 105.837C479.894 106.357 480.074 106.757 480.434 107.037Z" fill="#1E1E1E"/>
<path d="M441.513 76.8491L439.245 72.8891V72.3611H439.509C439.933 72.3611 440.289 72.3211 440.577 72.2411C440.873 72.1611 441.105 72.0291 441.273 71.8451C441.441 71.6611 441.541 71.4091 441.573 71.0891H439.245V70.3211H441.561C441.505 70.0251 441.393 69.7851 441.225 69.6011C441.057 69.4091 440.829 69.2691 440.541 69.1811C440.261 69.0931 439.917 69.0491 439.509 69.0491H439.245V68.2811H444.213V69.0491H441.945C442.129 69.2011 442.281 69.3811 442.401 69.5891C442.521 69.7971 442.597 70.0411 442.629 70.3211H444.213V71.0891H442.653C442.597 71.6731 442.373 72.1291 441.981 72.4571C441.597 72.7771 441.085 72.9811 440.445 73.0691L442.737 76.8491H441.513ZM448.728 71.9411C449.4 72.0291 449.952 72.2891 450.384 72.7211C450.824 73.1451 451.044 73.7091 451.044 74.4131C451.044 75.2131 450.768 75.8451 450.216 76.3091C449.672 76.7651 449.008 76.9931 448.224 76.9931C447.6 76.9931 447.044 76.8491 446.556 76.5611C446.068 76.2731 445.724 75.8611 445.524 75.3251L446.22 74.9171C446.356 75.3331 446.6 75.6491 446.952 75.8651C447.304 76.0731 447.728 76.1771 448.224 76.1771C448.8 76.1771 449.272 76.0251 449.64 75.7211C450.016 75.4091 450.204 74.9731 450.204 74.4131C450.204 73.8531 450.016 73.4211 449.64 73.1171C449.272 72.8051 448.8 72.6491 448.224 72.6491V72.6371L448.212 72.6491H447.984L447.624 72.0971L449.712 69.2411H445.764V68.4491H450.684V69.2411L448.728 71.9411ZM453.453 75.8291L452.733 78.5291H452.013L452.493 75.8291H453.453ZM456.576 68.4491H457.296V76.8491H456.456V69.3731L454.572 69.9371L454.356 69.2171L456.576 68.4491ZM460.654 68.4491H461.374V76.8491H460.534V69.3731L458.65 69.9371L458.434 69.2171L460.654 68.4491ZM464.492 75.8291L463.772 78.5291H463.052L463.532 75.8291H464.492ZM465.695 76.8491V76.0931L468.719 73.0451C469.583 72.1811 470.015 71.4411 470.015 70.8251C470.015 70.2891 469.847 69.8731 469.511 69.5771C469.183 69.2731 468.787 69.1211 468.323 69.1211C467.459 69.1211 466.831 69.5171 466.439 70.3091L465.731 69.8891C465.995 69.3691 466.355 68.9771 466.811 68.7131C467.267 68.4411 467.771 68.3051 468.323 68.3051C468.995 68.3051 469.583 68.5331 470.087 68.9891C470.599 69.4371 470.855 70.0491 470.855 70.8251C470.855 71.3131 470.719 71.7811 470.447 72.2291C470.175 72.6771 469.791 73.1491 469.295 73.6451L466.895 76.0331H471.035V76.8491H465.695ZM477.522 75.8171C476.97 76.6011 476.19 76.9931 475.182 76.9931C474.174 76.9931 473.39 76.6011 472.83 75.8171C472.278 75.0251 472.002 73.9691 472.002 72.6491C472.002 71.3291 472.278 70.2771 472.83 69.4931C473.39 68.7011 474.174 68.3051 475.182 68.3051C476.19 68.3051 476.97 68.7011 477.522 69.4931C478.082 70.2771 478.362 71.3291 478.362 72.6491C478.362 73.9691 478.082 75.0251 477.522 75.8171ZM473.454 75.2531C473.87 75.8691 474.446 76.1771 475.182 76.1771C475.918 76.1771 476.49 75.8691 476.898 75.2531C477.314 74.6371 477.522 73.7691 477.522 72.6491C477.522 71.5291 477.314 70.6611 476.898 70.0451C476.49 69.4291 475.918 69.1211 475.182 69.1211C474.446 69.1211 473.87 69.4291 473.454 70.0451C473.046 70.6611 472.842 71.5291 472.842 72.6491C472.842 73.7691 473.046 74.6371 473.454 75.2531ZM479.324 76.8491V76.0931L482.348 73.0451C483.212 72.1811 483.644 71.4411 483.644 70.8251C483.644 70.2891 483.476 69.8731 483.14 69.5771C482.812 69.2731 482.416 69.1211 481.952 69.1211C481.088 69.1211 480.46 69.5171 480.068 70.3091L479.36 69.8891C479.624 69.3691 479.984 68.9771 480.44 68.7131C480.896 68.4411 481.4 68.3051 481.952 68.3051C482.624 68.3051 483.212 68.5331 483.716 68.9891C484.228 69.4371 484.484 70.0491 484.484 70.8251C484.484 71.3131 484.348 71.7811 484.076 72.2291C483.804 72.6771 483.42 73.1491 482.924 73.6451L480.524 76.0331H484.664V76.8491H479.324Z" fill="#1E1E1E"/>
<circle cx="75.1758" cy="125.26" r="4.5" fill="#0A0C33"/>
<circle cx="92.1758" cy="125.26" r="4.5" fill="#0A0C33"/>
<circle cx="109.176" cy="125.26" r="4.5" fill="#0A0C33"/>
<rect x="135.369" width="368.749" height="260.927" rx="20" fill="white"/>
<rect x="135.869" y="0.5" width="367.749" height="259.927" rx="19.5" stroke="#0A0C33" stroke-opacity="0.1"/>
<path d="M170.361 30.2334C171.705 30.2334 172.825 30.7048 173.721 31.6474C174.626 32.5901 175.079 33.7521 175.079 35.1334C175.079 36.5148 174.626 37.6768 173.721 38.6194C172.825 39.5621 171.705 40.0334 170.361 40.0334H166.469V30.2334H170.361ZM170.361 38.1854C171.21 38.1854 171.901 37.9054 172.433 37.3454C172.965 36.7761 173.231 36.0388 173.231 35.1334C173.231 34.2281 172.965 33.4954 172.433 32.9354C171.901 32.3661 171.21 32.0814 170.361 32.0814H168.401V38.1854H170.361ZM177.891 37.2754C178.134 38.1528 178.792 38.5914 179.865 38.5914C180.556 38.5914 181.078 38.3581 181.433 37.8914L182.889 38.7314C182.198 39.7301 181.181 40.2294 179.837 40.2294C178.68 40.2294 177.751 39.8794 177.051 39.1794C176.351 38.4794 176.001 37.5974 176.001 36.5334C176.001 35.4788 176.346 34.6014 177.037 33.9014C177.728 33.1921 178.614 32.8374 179.697 32.8374C180.724 32.8374 181.568 33.1921 182.231 33.9014C182.903 34.6108 183.239 35.4881 183.239 36.5334C183.239 36.7668 183.216 37.0141 183.169 37.2754H177.891ZM177.863 35.8754H181.433C181.33 35.3994 181.116 35.0448 180.789 34.8114C180.472 34.5781 180.108 34.4614 179.697 34.4614C179.212 34.4614 178.81 34.5874 178.493 34.8394C178.176 35.0821 177.966 35.4274 177.863 35.8754ZM188.299 34.7694H186.717V37.6814C186.717 37.9241 186.777 38.1014 186.899 38.2134C187.02 38.3254 187.197 38.3908 187.431 38.4094C187.664 38.4188 187.953 38.4141 188.299 38.3954V40.0334C187.057 40.1734 186.18 40.0568 185.667 39.6834C185.163 39.3101 184.911 38.6428 184.911 37.6814V34.7694H183.693V33.0334H184.911V31.6194L186.717 31.0734V33.0334H188.299V34.7694ZM194.673 33.0334H196.479V40.0334H194.673V39.2074C194.132 39.8888 193.371 40.2294 192.391 40.2294C191.458 40.2294 190.655 39.8748 189.983 39.1654C189.321 38.4468 188.989 37.5694 188.989 36.5334C188.989 35.4974 189.321 34.6248 189.983 33.9154C190.655 33.1968 191.458 32.8374 192.391 32.8374C193.371 32.8374 194.132 33.1781 194.673 33.8594V33.0334ZM191.341 37.9614C191.705 38.3254 192.167 38.5074 192.727 38.5074C193.287 38.5074 193.749 38.3254 194.113 37.9614C194.487 37.5881 194.673 37.1121 194.673 36.5334C194.673 35.9548 194.487 35.4834 194.113 35.1194C193.749 34.7461 193.287 34.5594 192.727 34.5594C192.167 34.5594 191.705 34.7461 191.341 35.1194C190.977 35.4834 190.795 35.9548 190.795 36.5334C190.795 37.1121 190.977 37.5881 191.341 37.9614ZM199.013 32.1934C198.714 32.1934 198.453 32.0861 198.229 31.8714C198.014 31.6474 197.907 31.3861 197.907 31.0874C197.907 30.7888 198.014 30.5274 198.229 30.3034C198.453 30.0794 198.714 29.9674 199.013 29.9674C199.321 29.9674 199.582 30.0794 199.797 30.3034C200.021 30.5274 200.133 30.7888 200.133 31.0874C200.133 31.3861 200.021 31.6474 199.797 31.8714C199.582 32.0861 199.321 32.1934 199.013 32.1934ZM198.117 40.0334V33.0334H199.923V40.0334H198.117ZM201.576 40.0334V29.8134H203.382V40.0334H201.576ZM208.619 30.2334H210.551V40.0334H208.619V30.2334ZM216.173 32.8374C216.938 32.8374 217.568 33.0941 218.063 33.6074C218.567 34.1208 218.819 34.8301 218.819 35.7354V40.0334H217.013V35.9594C217.013 35.4928 216.887 35.1381 216.635 34.8954C216.383 34.6434 216.047 34.5174 215.627 34.5174C215.16 34.5174 214.787 34.6621 214.507 34.9514C214.227 35.2408 214.087 35.6748 214.087 36.2534V40.0334H212.281V33.0334H214.087V33.8174C214.526 33.1641 215.221 32.8374 216.173 32.8374ZM224.844 33.0334H226.832L224.172 40.0334H222.114L219.454 33.0334H221.442L223.136 37.9334L224.844 33.0334ZM233.394 39.1654C232.675 39.8748 231.798 40.2294 230.762 40.2294C229.726 40.2294 228.848 39.8748 228.13 39.1654C227.42 38.4468 227.066 37.5694 227.066 36.5334C227.066 35.4974 227.42 34.6248 228.13 33.9154C228.848 33.1968 229.726 32.8374 230.762 32.8374C231.798 32.8374 232.675 33.1968 233.394 33.9154C234.112 34.6248 234.472 35.4974 234.472 36.5334C234.472 37.5694 234.112 38.4468 233.394 39.1654ZM229.404 37.9194C229.768 38.2834 230.22 38.4654 230.762 38.4654C231.303 38.4654 231.756 38.2834 232.12 37.9194C232.484 37.5554 232.666 37.0934 232.666 36.5334C232.666 35.9734 232.484 35.5114 232.12 35.1474C231.756 34.7834 231.303 34.6014 230.762 34.6014C230.22 34.6014 229.768 34.7834 229.404 35.1474C229.049 35.5114 228.872 35.9734 228.872 36.5334C228.872 37.0934 229.049 37.5554 229.404 37.9194ZM236.638 32.1934C236.339 32.1934 236.078 32.0861 235.854 31.8714C235.639 31.6474 235.532 31.3861 235.532 31.0874C235.532 30.7888 235.639 30.5274 235.854 30.3034C236.078 30.0794 236.339 29.9674 236.638 29.9674C236.946 29.9674 237.207 30.0794 237.422 30.3034C237.646 30.5274 237.758 30.7888 237.758 31.0874C237.758 31.3861 237.646 31.6474 237.422 31.8714C237.207 32.0861 236.946 32.1934 236.638 32.1934ZM235.742 40.0334V33.0334H237.548V40.0334H235.742ZM242.533 40.2294C241.478 40.2294 240.596 39.8748 239.887 39.1654C239.187 38.4561 238.837 37.5788 238.837 36.5334C238.837 35.4881 239.187 34.6108 239.887 33.9014C240.596 33.1921 241.478 32.8374 242.533 32.8374C243.214 32.8374 243.835 33.0008 244.395 33.3274C244.955 33.6541 245.38 34.0928 245.669 34.6434L244.115 35.5534C243.975 35.2641 243.76 35.0354 243.471 34.8674C243.191 34.6994 242.874 34.6154 242.519 34.6154C241.978 34.6154 241.53 34.7974 241.175 35.1614C240.82 35.5161 240.643 35.9734 240.643 36.5334C240.643 37.0841 240.82 37.5414 241.175 37.9054C241.53 38.2601 241.978 38.4374 242.519 38.4374C242.883 38.4374 243.205 38.3581 243.485 38.1994C243.774 38.0314 243.989 37.8028 244.129 37.5134L245.697 38.4094C245.389 38.9601 244.955 39.4034 244.395 39.7394C243.835 40.0661 243.214 40.2294 242.533 40.2294ZM248.069 37.2754C248.311 38.1528 248.969 38.5914 250.043 38.5914C250.733 38.5914 251.256 38.3581 251.611 37.8914L253.067 38.7314C252.376 39.7301 251.359 40.2294 250.015 40.2294C248.857 40.2294 247.929 39.8794 247.229 39.1794C246.529 38.4794 246.179 37.5974 246.179 36.5334C246.179 35.4788 246.524 34.6014 247.215 33.9014C247.905 33.1921 248.792 32.8374 249.875 32.8374C250.901 32.8374 251.746 33.1921 252.409 33.9014C253.081 34.6108 253.417 35.4881 253.417 36.5334C253.417 36.7668 253.393 37.0141 253.347 37.2754H248.069ZM248.041 35.8754H251.611C251.508 35.3994 251.293 35.0448 250.967 34.8114C250.649 34.5781 250.285 34.4614 249.875 34.4614C249.389 34.4614 248.988 34.5874 248.671 34.8394C248.353 35.0821 248.143 35.4274 248.041 35.8754Z" fill="#1E1E1E"/>
<path d="M172.951 205.982V207.83H170.305V215.782H168.373V207.83H165.741V205.982H172.951ZM178.638 214.914C177.919 215.624 177.042 215.978 176.006 215.978C174.97 215.978 174.092 215.624 173.374 214.914C172.664 214.196 172.31 213.318 172.31 212.282C172.31 211.246 172.664 210.374 173.374 209.664C174.092 208.946 174.97 208.586 176.006 208.586C177.042 208.586 177.919 208.946 178.638 209.664C179.356 210.374 179.716 211.246 179.716 212.282C179.716 213.318 179.356 214.196 178.638 214.914ZM174.648 213.668C175.012 214.032 175.464 214.214 176.006 214.214C176.547 214.214 177 214.032 177.364 213.668C177.728 213.304 177.91 212.842 177.91 212.282C177.91 211.722 177.728 211.26 177.364 210.896C177 210.532 176.547 210.35 176.006 210.35C175.464 210.35 175.012 210.532 174.648 210.896C174.293 211.26 174.116 211.722 174.116 212.282C174.116 212.842 174.293 213.304 174.648 213.668ZM184.84 210.518H183.258V213.43C183.258 213.673 183.318 213.85 183.44 213.962C183.561 214.074 183.738 214.14 183.972 214.158C184.205 214.168 184.494 214.163 184.84 214.144V215.782C183.598 215.922 182.721 215.806 182.208 215.432C181.704 215.059 181.452 214.392 181.452 213.43V210.518H180.234V208.782H181.452V207.368L183.258 206.822V208.782H184.84V210.518ZM191.214 208.782H193.02V215.782H191.214V214.956C190.673 215.638 189.912 215.978 188.932 215.978C187.999 215.978 187.196 215.624 186.524 214.914C185.862 214.196 185.53 213.318 185.53 212.282C185.53 211.246 185.862 210.374 186.524 209.664C187.196 208.946 187.999 208.586 188.932 208.586C189.912 208.586 190.673 208.927 191.214 209.608V208.782ZM187.882 213.71C188.246 214.074 188.708 214.256 189.268 214.256C189.828 214.256 190.29 214.074 190.654 213.71C191.028 213.337 191.214 212.861 191.214 212.282C191.214 211.704 191.028 211.232 190.654 210.868C190.29 210.495 189.828 210.308 189.268 210.308C188.708 210.308 188.246 210.495 187.882 210.868C187.518 211.232 187.336 211.704 187.336 212.282C187.336 212.861 187.518 213.337 187.882 213.71ZM194.658 215.782V205.562H196.464V215.782H194.658ZM205.355 205.982C206.298 205.982 207.091 206.3 207.735 206.934C208.379 207.569 208.701 208.348 208.701 209.272C208.701 210.196 208.379 210.976 207.735 211.61C207.091 212.245 206.298 212.562 205.355 212.562H203.633V215.782H201.701V205.982H205.355ZM205.355 210.756C205.766 210.756 206.106 210.616 206.377 210.336C206.648 210.047 206.783 209.692 206.783 209.272C206.783 208.843 206.648 208.488 206.377 208.208C206.106 207.928 205.766 207.788 205.355 207.788H203.633V210.756H205.355ZM214.73 208.782H216.536V215.782H214.73V214.956C214.189 215.638 213.428 215.978 212.448 215.978C211.515 215.978 210.712 215.624 210.04 214.914C209.377 214.196 209.046 213.318 209.046 212.282C209.046 211.246 209.377 210.374 210.04 209.664C210.712 208.946 211.515 208.586 212.448 208.586C213.428 208.586 214.189 208.927 214.73 209.608V208.782ZM211.398 213.71C211.762 214.074 212.224 214.256 212.784 214.256C213.344 214.256 213.806 214.074 214.17 213.71C214.543 213.337 214.73 212.861 214.73 212.282C214.73 211.704 214.543 211.232 214.17 210.868C213.806 210.495 213.344 210.308 212.784 210.308C212.224 210.308 211.762 210.495 211.398 210.868C211.034 211.232 210.852 211.704 210.852 212.282C210.852 212.861 211.034 213.337 211.398 213.71ZM222.738 208.782H224.67L222.122 215.782C221.758 216.79 221.272 217.518 220.666 217.966C220.068 218.424 219.322 218.629 218.426 218.582V216.902C218.911 216.912 219.294 216.809 219.574 216.594C219.863 216.38 220.092 216.034 220.26 215.558L217.39 208.782H219.364L221.184 213.486L222.738 208.782ZM233.271 208.586C234.074 208.586 234.713 208.848 235.189 209.37C235.674 209.893 235.917 210.593 235.917 211.47V215.782H234.111V211.596C234.111 211.176 234.008 210.85 233.803 210.616C233.598 210.383 233.308 210.266 232.935 210.266C232.524 210.266 232.202 210.402 231.969 210.672C231.745 210.943 231.633 211.335 231.633 211.848V215.782H229.827V211.596C229.827 211.176 229.724 210.85 229.519 210.616C229.314 210.383 229.024 210.266 228.651 210.266C228.25 210.266 227.928 210.402 227.685 210.672C227.452 210.943 227.335 211.335 227.335 211.848V215.782H225.529V208.782H227.335V209.524C227.755 208.899 228.404 208.586 229.281 208.586C230.14 208.586 230.774 208.922 231.185 209.594C231.652 208.922 232.347 208.586 233.271 208.586ZM238.977 213.024C239.22 213.902 239.878 214.34 240.951 214.34C241.642 214.34 242.164 214.107 242.519 213.64L243.975 214.48C243.284 215.479 242.267 215.978 240.923 215.978C239.766 215.978 238.837 215.628 238.137 214.928C237.437 214.228 237.087 213.346 237.087 212.282C237.087 211.228 237.432 210.35 238.123 209.65C238.814 208.941 239.7 208.586 240.783 208.586C241.81 208.586 242.654 208.941 243.317 209.65C243.989 210.36 244.325 211.237 244.325 212.282C244.325 212.516 244.302 212.763 244.255 213.024H238.977ZM238.949 211.624H242.519C242.416 211.148 242.202 210.794 241.875 210.56C241.558 210.327 241.194 210.21 240.783 210.21C240.298 210.21 239.896 210.336 239.579 210.588C239.262 210.831 239.052 211.176 238.949 211.624ZM249.478 208.586C250.243 208.586 250.873 208.843 251.368 209.356C251.872 209.87 252.124 210.579 252.124 211.484V215.782H250.318V211.708C250.318 211.242 250.192 210.887 249.94 210.644C249.688 210.392 249.352 210.266 248.932 210.266C248.465 210.266 248.092 210.411 247.812 210.7C247.532 210.99 247.392 211.424 247.392 212.002V215.782H245.586V208.782H247.392V209.566C247.83 208.913 248.526 208.586 249.478 208.586ZM257.67 210.518H256.088V213.43C256.088 213.673 256.149 213.85 256.27 213.962C256.391 214.074 256.569 214.14 256.802 214.158C257.035 214.168 257.325 214.163 257.67 214.144V215.782C256.429 215.922 255.551 215.806 255.038 215.432C254.534 215.059 254.282 214.392 254.282 213.43V210.518H253.064V208.782H254.282V207.368L256.088 206.822V208.782H257.67V210.518Z" fill="#1E1E1E"/>
<path d="M171.257 68.2351C169.773 68.2351 168.545 67.7451 167.575 66.7651C166.604 65.7851 166.119 64.5858 166.119 63.1671C166.119 61.7485 166.604 60.5491 167.575 59.5691C168.545 58.5891 169.773 58.0991 171.257 58.0991C172.162 58.0991 172.993 58.3185 173.749 58.7571C174.505 59.1865 175.088 59.7698 175.499 60.5071L174.631 61.0111C174.323 60.4138 173.865 59.9378 173.259 59.5831C172.652 59.2285 171.985 59.0511 171.257 59.0511C170.034 59.0511 169.035 59.4478 168.261 60.2411C167.486 61.0345 167.099 62.0098 167.099 63.1671C167.099 64.3245 167.486 65.2998 168.261 66.0931C169.035 66.8865 170.034 67.2831 171.257 67.2831C171.985 67.2831 172.652 67.1058 173.259 66.7511C173.865 66.3965 174.323 65.9205 174.631 65.3231L175.499 65.8131C175.097 66.5505 174.514 67.1385 173.749 67.5771C172.993 68.0158 172.162 68.2351 171.257 68.2351ZM181.898 61.0671H182.822V68.0671H181.898V66.9751C181.376 67.8151 180.592 68.2351 179.546 68.2351C178.697 68.2351 178.025 67.9785 177.53 67.4651C177.045 66.9425 176.802 66.2425 176.802 65.3651V61.0671H177.726V65.3651C177.726 65.9905 177.89 66.4758 178.216 66.8211C178.552 67.1665 179.024 67.3391 179.63 67.3391C180.302 67.3391 180.848 67.1291 181.268 66.7091C181.688 66.2798 181.898 65.6218 181.898 64.7351V61.0671ZM185.505 62.9011C185.505 63.2185 185.645 63.4705 185.925 63.6571C186.205 63.8438 186.546 63.9885 186.947 64.0911C187.348 64.1938 187.75 64.3105 188.151 64.4411C188.552 64.5625 188.893 64.7725 189.173 65.0711C189.453 65.3605 189.593 65.7431 189.593 66.2191C189.593 66.8165 189.355 67.3018 188.879 67.6751C188.412 68.0485 187.806 68.2351 187.059 68.2351C186.387 68.2351 185.813 68.0858 185.337 67.7871C184.87 67.4885 184.544 67.1011 184.357 66.6251L185.141 66.1631C185.272 66.5271 185.505 66.8165 185.841 67.0311C186.186 67.2365 186.592 67.3391 187.059 67.3391C187.516 67.3391 187.899 67.2505 188.207 67.0731C188.515 66.8865 188.669 66.6018 188.669 66.2191C188.669 65.9018 188.529 65.6498 188.249 65.4631C187.969 65.2765 187.628 65.1318 187.227 65.0291C186.826 64.9265 186.424 64.8145 186.023 64.6931C185.622 64.5625 185.281 64.3525 185.001 64.0631C184.721 63.7645 184.581 63.3771 184.581 62.9011C184.581 62.3318 184.805 61.8558 185.253 61.4731C185.71 61.0905 186.284 60.8991 186.975 60.8991C187.544 60.8991 188.044 61.0298 188.473 61.2911C188.902 61.5431 189.22 61.8885 189.425 62.3271L188.655 62.7751C188.384 62.1218 187.824 61.7951 186.975 61.7951C186.574 61.7951 186.228 61.8931 185.939 62.0891C185.65 62.2758 185.505 62.5465 185.505 62.9011ZM194.571 61.9631H192.555V66.2051C192.555 66.5878 192.63 66.8631 192.779 67.0311C192.928 67.1898 193.152 67.2738 193.451 67.2831C193.75 67.2831 194.123 67.2738 194.571 67.2551V68.0671C193.591 68.2165 192.854 68.1465 192.359 67.8571C191.874 67.5678 191.631 67.0171 191.631 66.2051V61.9631H190.161V61.0671H191.631V59.3871L192.555 59.1071V61.0671H194.571V61.9631ZM201.553 67.1851C200.844 67.8851 199.976 68.2351 198.949 68.2351C197.922 68.2351 197.05 67.8851 196.331 67.1851C195.622 66.4758 195.267 65.6031 195.267 64.5671C195.267 63.5311 195.622 62.6631 196.331 61.9631C197.05 61.2538 197.922 60.8991 198.949 60.8991C199.976 60.8991 200.844 61.2538 201.553 61.9631C202.272 62.6631 202.631 63.5311 202.631 64.5671C202.631 65.6031 202.272 66.4758 201.553 67.1851ZM196.989 66.5411C197.521 67.0731 198.174 67.3391 198.949 67.3391C199.724 67.3391 200.377 67.0731 200.909 66.5411C201.441 65.9998 201.707 65.3418 201.707 64.5671C201.707 63.7925 201.441 63.1391 200.909 62.6071C200.377 62.0658 199.724 61.7951 198.949 61.7951C198.174 61.7951 197.521 62.0658 196.989 62.6071C196.457 63.1391 196.191 63.7925 196.191 64.5671C196.191 65.3418 196.457 65.9998 196.989 66.5411ZM211.639 60.8991C212.423 60.8991 213.053 61.1511 213.529 61.6551C214.015 62.1591 214.257 62.8405 214.257 63.6991V68.0671H213.333V63.6991C213.333 63.0925 213.175 62.6258 212.857 62.2991C212.549 61.9631 212.139 61.7951 211.625 61.7951C211.047 61.7951 210.575 61.9911 210.211 62.3831C209.857 62.7658 209.679 63.3678 209.679 64.1891V68.0671H208.755V63.6991C208.755 63.0831 208.606 62.6118 208.307 62.2851C208.018 61.9585 207.621 61.7951 207.117 61.7951C206.557 61.7951 206.081 61.9911 205.689 62.3831C205.297 62.7751 205.101 63.3771 205.101 64.1891V68.0671H204.177V61.0671H205.101V62.0891C205.605 61.2958 206.319 60.8991 207.243 60.8991C208.251 60.8991 208.961 61.3238 209.371 62.1731C209.875 61.3238 210.631 60.8991 211.639 60.8991ZM219.278 60.8991C220.314 60.8991 221.15 61.2678 221.784 62.0051C222.428 62.7331 222.75 63.5965 222.75 64.5951C222.75 64.6978 222.741 64.8425 222.722 65.0291H216.576C216.67 65.7385 216.968 66.3031 217.472 66.7231C217.986 67.1338 218.616 67.3391 219.362 67.3391C219.894 67.3391 220.352 67.2318 220.734 67.0171C221.126 66.7931 221.42 66.5038 221.616 66.1491L222.428 66.6251C222.12 67.1198 221.7 67.5118 221.168 67.8011C220.636 68.0905 220.03 68.2351 219.348 68.2351C218.247 68.2351 217.351 67.8898 216.66 67.1991C215.97 66.5085 215.624 65.6311 215.624 64.5671C215.624 63.5218 215.965 62.6491 216.646 61.9491C217.328 61.2491 218.205 60.8991 219.278 60.8991ZM219.278 61.7951C218.55 61.7951 217.939 62.0145 217.444 62.4531C216.959 62.8825 216.67 63.4425 216.576 64.1331H221.798C221.705 63.3958 221.42 62.8218 220.944 62.4111C220.468 62.0005 219.913 61.7951 219.278 61.7951ZM225.144 62.2291C225.574 61.3798 226.311 60.9551 227.356 60.9551V61.8511C226.722 61.8511 226.194 62.0378 225.774 62.4111C225.354 62.7845 225.144 63.3725 225.144 64.1751V68.0671H224.22V61.0671H225.144V62.2291ZM238.787 68.0671L237.877 65.6591H233.229L232.319 68.0671H231.283L235.049 58.2671H236.057L239.823 68.0671H238.787ZM233.579 64.7351H237.527L235.553 59.4851L233.579 64.7351ZM241.865 62.2291C242.294 61.3798 243.032 60.9551 244.077 60.9551V61.8511C243.442 61.8511 242.915 62.0378 242.495 62.4111C242.075 62.7845 241.865 63.3725 241.865 64.1751V68.0671H240.941V61.0671H241.865V62.2291ZM250.271 61.0671H251.195V68.0671H250.271V66.9751C249.749 67.8151 248.965 68.2351 247.919 68.2351C247.07 68.2351 246.398 67.9785 245.903 67.4651C245.418 66.9425 245.175 66.2425 245.175 65.3651V61.0671H246.099V65.3651C246.099 65.9905 246.263 66.4758 246.589 66.8211C246.925 67.1665 247.397 67.3391 248.003 67.3391C248.675 67.3391 249.221 67.1291 249.641 66.7091C250.061 66.2798 250.271 65.6218 250.271 64.7351V61.0671ZM256.426 60.8991C257.275 60.8991 257.943 61.1605 258.428 61.6831C258.923 62.1965 259.17 62.8918 259.17 63.7691V68.0671H258.246V63.7691C258.246 63.1438 258.078 62.6585 257.742 62.3131C257.415 61.9678 256.949 61.7951 256.342 61.7951C255.67 61.7951 255.124 62.0098 254.704 62.4391C254.284 62.8591 254.074 63.5125 254.074 64.3991V68.0671H253.15V61.0671H254.074V62.1591C254.597 61.3191 255.381 60.8991 256.426 60.8991Z" fill="#1E1E1E"/>
<path d="M172.111 148.164C172.587 148.369 172.965 148.682 173.245 149.102C173.534 149.513 173.679 149.984 173.679 150.516C173.679 151.272 173.413 151.916 172.881 152.448C172.349 152.98 171.705 153.246 170.949 153.246H166.679V143.446H170.627C171.355 143.446 171.975 143.707 172.489 144.23C173.002 144.743 173.259 145.359 173.259 146.078C173.259 146.993 172.876 147.688 172.111 148.164ZM170.627 144.37H167.659V147.786H170.627C171.084 147.786 171.471 147.623 171.789 147.296C172.115 146.96 172.279 146.554 172.279 146.078C172.279 145.611 172.115 145.21 171.789 144.874C171.471 144.538 171.084 144.37 170.627 144.37ZM170.949 152.322C171.434 152.322 171.845 152.149 172.181 151.804C172.526 151.449 172.699 151.02 172.699 150.516C172.699 150.021 172.526 149.597 172.181 149.242C171.845 148.887 171.434 148.71 170.949 148.71H167.659V152.322H170.949ZM181.086 152.364C180.377 153.064 179.509 153.414 178.482 153.414C177.456 153.414 176.583 153.064 175.864 152.364C175.155 151.655 174.8 150.782 174.8 149.746C174.8 148.71 175.155 147.842 175.864 147.142C176.583 146.433 177.456 146.078 178.482 146.078C179.509 146.078 180.377 146.433 181.086 147.142C181.805 147.842 182.164 148.71 182.164 149.746C182.164 150.782 181.805 151.655 181.086 152.364ZM176.522 151.72C177.054 152.252 177.708 152.518 178.482 152.518C179.257 152.518 179.91 152.252 180.442 151.72C180.974 151.179 181.24 150.521 181.24 149.746C181.24 148.971 180.974 148.318 180.442 147.786C179.91 147.245 179.257 146.974 178.482 146.974C177.708 146.974 177.054 147.245 176.522 147.786C175.99 148.318 175.724 148.971 175.724 149.746C175.724 150.521 175.99 151.179 176.522 151.72ZM189.098 153.246H187.992L185.808 150.362L183.624 153.246H182.518L185.262 149.62L182.7 146.246H183.806L185.808 148.892L187.81 146.246H188.916L186.368 149.62L189.098 153.246ZM199.721 152.364C199.012 153.064 198.144 153.414 197.117 153.414C196.09 153.414 195.218 153.064 194.499 152.364C193.79 151.655 193.435 150.782 193.435 149.746C193.435 148.71 193.79 147.842 194.499 147.142C195.218 146.433 196.09 146.078 197.117 146.078C198.144 146.078 199.012 146.433 199.721 147.142C200.44 147.842 200.799 148.71 200.799 149.746C200.799 150.782 200.44 151.655 199.721 152.364ZM195.157 151.72C195.689 152.252 196.342 152.518 197.117 152.518C197.892 152.518 198.545 152.252 199.077 151.72C199.609 151.179 199.875 150.521 199.875 149.746C199.875 148.971 199.609 148.318 199.077 147.786C198.545 147.245 197.892 146.974 197.117 146.974C196.342 146.974 195.689 147.245 195.157 147.786C194.625 148.318 194.359 148.971 194.359 149.746C194.359 150.521 194.625 151.179 195.157 151.72ZM205.572 144.174C204.89 144.118 204.382 144.235 204.046 144.524C203.719 144.813 203.556 145.294 203.556 145.966V146.246H205.572V147.142H203.556V153.246H202.632V147.142H201.442V146.246H202.632V145.966C202.632 145.051 202.884 144.361 203.388 143.894C203.901 143.418 204.629 143.213 205.572 143.278V144.174ZM216.72 153.246L215.81 150.838H211.162L210.252 153.246H209.216L212.982 143.446H213.99L217.756 153.246H216.72ZM211.512 149.914H215.46L213.486 144.664L211.512 149.914ZM225.665 150.362V151.286H224.405V153.246H223.425V151.286H218.245V150.362L221.885 143.446H222.963L219.323 150.362H223.425V147.366H224.405V150.362H225.665ZM234.248 146.078C235.246 146.078 236.096 146.433 236.796 147.142C237.505 147.851 237.86 148.719 237.86 149.746C237.86 150.773 237.505 151.641 236.796 152.35C236.096 153.059 235.246 153.414 234.248 153.414C233.006 153.414 232.064 152.901 231.42 151.874V156.046H230.496V146.246H231.42V147.618C232.064 146.591 233.006 146.078 234.248 146.078ZM232.218 151.72C232.75 152.252 233.403 152.518 234.178 152.518C234.952 152.518 235.606 152.252 236.138 151.72C236.67 151.179 236.936 150.521 236.936 149.746C236.936 148.971 236.67 148.318 236.138 147.786C235.606 147.245 234.952 146.974 234.178 146.974C233.403 146.974 232.75 147.245 232.218 147.786C231.686 148.318 231.42 148.971 231.42 149.746C231.42 150.521 231.686 151.179 232.218 151.72ZM245.416 146.246H246.34V153.246H245.416V151.874C244.772 152.901 243.829 153.414 242.588 153.414C241.589 153.414 240.735 153.059 240.026 152.35C239.326 151.641 238.976 150.773 238.976 149.746C238.976 148.719 239.326 147.851 240.026 147.142C240.735 146.433 241.589 146.078 242.588 146.078C243.829 146.078 244.772 146.591 245.416 147.618V146.246ZM240.698 151.72C241.23 152.252 241.883 152.518 242.658 152.518C243.433 152.518 244.086 152.252 244.618 151.72C245.15 151.179 245.416 150.521 245.416 149.746C245.416 148.971 245.15 148.318 244.618 147.786C244.086 147.245 243.433 146.974 242.658 146.974C241.883 146.974 241.23 147.245 240.698 147.786C240.166 148.318 239.9 148.971 239.9 149.746C239.9 150.521 240.166 151.179 240.698 151.72ZM252.048 146.078C253.047 146.078 253.896 146.433 254.596 147.142C255.306 147.851 255.66 148.719 255.66 149.746C255.66 150.773 255.306 151.641 254.596 152.35C253.896 153.059 253.047 153.414 252.048 153.414C250.807 153.414 249.864 152.901 249.22 151.874V156.046H248.296V146.246H249.22V147.618C249.864 146.591 250.807 146.078 252.048 146.078ZM250.018 151.72C250.55 152.252 251.204 152.518 251.978 152.518C252.753 152.518 253.406 152.252 253.938 151.72C254.47 151.179 254.736 150.521 254.736 149.746C254.736 148.971 254.47 148.318 253.938 147.786C253.406 147.245 252.753 146.974 251.978 146.974C251.204 146.974 250.55 147.245 250.018 147.786C249.486 148.318 249.22 148.971 249.22 149.746C249.22 150.521 249.486 151.179 250.018 151.72ZM260.431 146.078C261.467 146.078 262.302 146.447 262.937 147.184C263.581 147.912 263.903 148.775 263.903 149.774C263.903 149.877 263.893 150.021 263.875 150.208H257.729C257.822 150.917 258.121 151.482 258.625 151.902C259.138 152.313 259.768 152.518 260.515 152.518C261.047 152.518 261.504 152.411 261.887 152.196C262.279 151.972 262.573 151.683 262.769 151.328L263.581 151.804C263.273 152.299 262.853 152.691 262.321 152.98C261.789 153.269 261.182 153.414 260.501 153.414C259.399 153.414 258.503 153.069 257.813 152.378C257.122 151.687 256.777 150.81 256.777 149.746C256.777 148.701 257.117 147.828 257.799 147.128C258.48 146.428 259.357 146.078 260.431 146.078ZM260.431 146.974C259.703 146.974 259.091 147.193 258.597 147.632C258.111 148.061 257.822 148.621 257.729 149.312H262.951C262.857 148.575 262.573 148.001 262.097 147.59C261.621 147.179 261.065 146.974 260.431 146.974ZM266.297 147.408C266.726 146.559 267.463 146.134 268.509 146.134V147.03C267.874 147.03 267.347 147.217 266.927 147.59C266.507 147.963 266.297 148.551 266.297 149.354V153.246H265.373V146.246H266.297V147.408ZM270.229 148.08C270.229 148.397 270.369 148.649 270.649 148.836C270.929 149.023 271.27 149.167 271.671 149.27C272.073 149.373 272.474 149.489 272.875 149.62C273.277 149.741 273.617 149.951 273.897 150.25C274.177 150.539 274.317 150.922 274.317 151.398C274.317 151.995 274.079 152.481 273.603 152.854C273.137 153.227 272.53 153.414 271.783 153.414C271.111 153.414 270.537 153.265 270.061 152.966C269.595 152.667 269.268 152.28 269.081 151.804L269.865 151.342C269.996 151.706 270.229 151.995 270.565 152.21C270.911 152.415 271.317 152.518 271.783 152.518C272.241 152.518 272.623 152.429 272.931 152.252C273.239 152.065 273.393 151.781 273.393 151.398C273.393 151.081 273.253 150.829 272.973 150.642C272.693 150.455 272.353 150.311 271.951 150.208C271.55 150.105 271.149 149.993 270.747 149.872C270.346 149.741 270.005 149.531 269.725 149.242C269.445 148.943 269.305 148.556 269.305 148.08C269.305 147.511 269.529 147.035 269.977 146.652C270.435 146.269 271.009 146.078 271.699 146.078C272.269 146.078 272.768 146.209 273.197 146.47C273.627 146.722 273.944 147.067 274.149 147.506L273.379 147.954C273.109 147.301 272.549 146.974 271.699 146.974C271.298 146.974 270.953 147.072 270.663 147.268C270.374 147.455 270.229 147.725 270.229 148.08Z" fill="#1E1E1E"/>
<path d="M172.839 174.714V175.638H169.829V184.514H168.849V175.638H165.839V174.714H172.839ZM178.861 177.514H179.785V184.514H178.861V183.142C178.217 184.169 177.275 184.682 176.033 184.682C175.035 184.682 174.181 184.327 173.471 183.618C172.771 182.909 172.421 182.041 172.421 181.014C172.421 179.987 172.771 179.119 173.471 178.41C174.181 177.701 175.035 177.346 176.033 177.346C177.275 177.346 178.217 177.859 178.861 178.886V177.514ZM174.143 182.988C174.675 183.52 175.329 183.786 176.103 183.786C176.878 183.786 177.531 183.52 178.063 182.988C178.595 182.447 178.861 181.789 178.861 181.014C178.861 180.239 178.595 179.586 178.063 179.054C177.531 178.513 176.878 178.242 176.103 178.242C175.329 178.242 174.675 178.513 174.143 179.054C173.611 179.586 173.345 180.239 173.345 181.014C173.345 181.789 173.611 182.447 174.143 182.988ZM187.622 184.514H186.516L184.332 181.63L182.148 184.514H181.042L183.786 180.888L181.224 177.514H182.33L184.332 180.16L186.334 177.514H187.44L184.892 180.888L187.622 184.514ZM194.198 174.714H195.038V184.514H194.058V175.792L191.86 176.45L191.608 175.61L194.198 174.714ZM203.296 183.31C202.652 184.225 201.742 184.682 200.566 184.682C199.39 184.682 198.476 184.225 197.822 183.31C197.178 182.386 196.856 181.154 196.856 179.614C196.856 178.074 197.178 176.847 197.822 175.932C198.476 175.008 199.39 174.546 200.566 174.546C201.742 174.546 202.652 175.008 203.296 175.932C203.95 176.847 204.276 178.074 204.276 179.614C204.276 181.154 203.95 182.386 203.296 183.31ZM198.55 182.652C199.036 183.371 199.708 183.73 200.566 183.73C201.425 183.73 202.092 183.371 202.568 182.652C203.054 181.933 203.296 180.921 203.296 179.614C203.296 178.307 203.054 177.295 202.568 176.576C202.092 175.857 201.425 175.498 200.566 175.498C199.708 175.498 199.036 175.857 198.55 176.576C198.074 177.295 197.836 178.307 197.836 179.614C197.836 180.921 198.074 181.933 198.55 182.652ZM207.683 178.746C207.077 178.746 206.568 178.545 206.157 178.144C205.747 177.733 205.541 177.234 205.541 176.646C205.541 176.058 205.747 175.563 206.157 175.162C206.568 174.751 207.077 174.546 207.683 174.546C208.29 174.546 208.799 174.751 209.209 175.162C209.62 175.563 209.825 176.058 209.825 176.646C209.825 177.234 209.625 177.733 209.223 178.144C208.822 178.545 208.309 178.746 207.683 178.746ZM206.787 177.542C207.021 177.785 207.319 177.906 207.683 177.906C208.047 177.906 208.346 177.785 208.579 177.542C208.813 177.299 208.929 177.001 208.929 176.646C208.929 176.291 208.813 175.993 208.579 175.75C208.346 175.507 208.047 175.386 207.683 175.386C207.319 175.386 207.021 175.507 206.787 175.75C206.554 175.993 206.437 176.291 206.437 176.646C206.437 177.001 206.554 177.299 206.787 177.542ZM206.031 183.184L212.597 175.806L213.199 176.142L206.619 183.52L206.031 183.184ZM213.171 184.08C212.761 184.481 212.252 184.682 211.645 184.682C211.039 184.682 210.53 184.481 210.119 184.08C209.709 183.669 209.503 183.17 209.503 182.582C209.503 181.994 209.709 181.499 210.119 181.098C210.53 180.687 211.039 180.482 211.645 180.482C212.252 180.482 212.761 180.687 213.171 181.098C213.582 181.499 213.787 181.994 213.787 182.582C213.787 183.17 213.582 183.669 213.171 184.08ZM210.749 183.478C210.983 183.721 211.281 183.842 211.645 183.842C212.009 183.842 212.308 183.721 212.541 183.478C212.775 183.235 212.891 182.937 212.891 182.582C212.891 182.227 212.775 181.929 212.541 181.686C212.308 181.443 212.009 181.322 211.645 181.322C211.281 181.322 210.983 181.443 210.749 181.686C210.516 181.929 210.399 182.227 210.399 182.582C210.399 182.937 210.516 183.235 210.749 183.478Z" fill="#1E1E1E"/>
<path d="M167.559 83.9441H168.159V90.9441H167.459V84.7141L165.889 85.1841L165.709 84.5841L167.559 83.9441ZM174.057 90.0841C173.597 90.7374 172.947 91.0641 172.107 91.0641C171.267 91.0641 170.614 90.7374 170.147 90.0841C169.687 89.4241 169.457 88.5441 169.457 87.4441C169.457 86.3441 169.687 85.4674 170.147 84.8141C170.614 84.1541 171.267 83.8241 172.107 83.8241C172.947 83.8241 173.597 84.1541 174.057 84.8141C174.524 85.4674 174.757 86.3441 174.757 87.4441C174.757 88.5441 174.524 89.4241 174.057 90.0841ZM170.667 89.6141C171.014 90.1274 171.494 90.3841 172.107 90.3841C172.72 90.3841 173.197 90.1274 173.537 89.6141C173.884 89.1008 174.057 88.3774 174.057 87.4441C174.057 86.5108 173.884 85.7874 173.537 85.2741C173.197 84.7608 172.72 84.5041 172.107 84.5041C171.494 84.5041 171.014 84.7608 170.667 85.2741C170.327 85.7874 170.157 86.5108 170.157 87.4441C170.157 88.3774 170.327 89.1008 170.667 89.6141ZM176.493 90.8841C176.386 90.9908 176.256 91.0441 176.103 91.0441C175.95 91.0441 175.82 90.9908 175.713 90.8841C175.606 90.7774 175.553 90.6474 175.553 90.4941C175.553 90.3408 175.606 90.2108 175.713 90.1041C175.82 89.9974 175.95 89.9441 176.103 89.9441C176.256 89.9441 176.386 89.9974 176.493 90.1041C176.6 90.2108 176.653 90.3408 176.653 90.4941C176.653 90.6474 176.6 90.7774 176.493 90.8841ZM182.055 90.0841C181.595 90.7374 180.945 91.0641 180.105 91.0641C179.265 91.0641 178.612 90.7374 178.145 90.0841C177.685 89.4241 177.455 88.5441 177.455 87.4441C177.455 86.3441 177.685 85.4674 178.145 84.8141C178.612 84.1541 179.265 83.8241 180.105 83.8241C180.945 83.8241 181.595 84.1541 182.055 84.8141C182.522 85.4674 182.755 86.3441 182.755 87.4441C182.755 88.5441 182.522 89.4241 182.055 90.0841ZM178.665 89.6141C179.012 90.1274 179.492 90.3841 180.105 90.3841C180.718 90.3841 181.195 90.1274 181.535 89.6141C181.882 89.1008 182.055 88.3774 182.055 87.4441C182.055 86.5108 181.882 85.7874 181.535 85.2741C181.195 84.7608 180.718 84.5041 180.105 84.5041C179.492 84.5041 179.012 84.7608 178.665 85.2741C178.325 85.7874 178.155 86.5108 178.155 87.4441C178.155 88.3774 178.325 89.1008 178.665 89.6141ZM185.904 86.7641C186.557 86.7641 187.111 86.9574 187.564 87.3441C188.024 87.7241 188.254 88.2474 188.254 88.9141C188.254 89.5808 188.024 90.1074 187.564 90.4941C187.111 90.8741 186.557 91.0641 185.904 91.0641C185.377 91.0641 184.907 90.9374 184.494 90.6841C184.081 90.4241 183.801 90.0541 183.654 89.5741L184.244 89.2341C184.344 89.6074 184.541 89.8941 184.834 90.0941C185.134 90.2874 185.491 90.3841 185.904 90.3841C186.384 90.3841 186.777 90.2574 187.084 90.0041C187.397 89.7441 187.554 89.3808 187.554 88.9141C187.554 88.4474 187.397 88.0874 187.084 87.8341C186.777 87.5741 186.384 87.4441 185.904 87.4441H184.004L184.254 83.9441H188.004V84.6041H184.874L184.724 86.7641H185.904ZM189.999 90.8841C189.892 90.9908 189.762 91.0441 189.609 91.0441C189.456 91.0441 189.326 90.9908 189.219 90.8841C189.112 90.7774 189.059 90.6474 189.059 90.4941C189.059 90.3408 189.112 90.2108 189.219 90.1041C189.326 89.9974 189.456 89.9441 189.609 89.9441C189.762 89.9441 189.892 89.9974 189.999 90.1041C190.106 90.2108 190.159 90.3408 190.159 90.4941C190.159 90.6474 190.106 90.7774 189.999 90.8841ZM191.164 90.9441V90.3141L193.684 87.7741C194.404 87.0541 194.764 86.4374 194.764 85.9241C194.764 85.4774 194.624 85.1308 194.344 84.8841C194.07 84.6308 193.74 84.5041 193.354 84.5041C192.634 84.5041 192.11 84.8341 191.784 85.4941L191.194 85.1441C191.414 84.7108 191.714 84.3841 192.094 84.1641C192.474 83.9374 192.894 83.8241 193.354 83.8241C193.914 83.8241 194.404 84.0141 194.824 84.3941C195.25 84.7674 195.464 85.2774 195.464 85.9241C195.464 86.3308 195.35 86.7208 195.124 87.0941C194.897 87.4674 194.577 87.8608 194.164 88.2741L192.164 90.2641H195.614V90.9441H191.164ZM201.02 90.0841C200.56 90.7374 199.91 91.0641 199.07 91.0641C198.23 91.0641 197.577 90.7374 197.11 90.0841C196.65 89.4241 196.42 88.5441 196.42 87.4441C196.42 86.3441 196.65 85.4674 197.11 84.8141C197.577 84.1541 198.23 83.8241 199.07 83.8241C199.91 83.8241 200.56 84.1541 201.02 84.8141C201.487 85.4674 201.72 86.3441 201.72 87.4441C201.72 88.5441 201.487 89.4241 201.02 90.0841ZM197.63 89.6141C197.977 90.1274 198.457 90.3841 199.07 90.3841C199.683 90.3841 200.16 90.1274 200.5 89.6141C200.847 89.1008 201.02 88.3774 201.02 87.4441C201.02 86.5108 200.847 85.7874 200.5 85.2741C200.16 84.7608 199.683 84.5041 199.07 84.5041C198.457 84.5041 197.977 84.7608 197.63 85.2741C197.29 85.7874 197.12 86.5108 197.12 87.4441C197.12 88.3774 197.29 89.1008 197.63 89.6141ZM202.521 90.9441V90.3141L205.041 87.7741C205.761 87.0541 206.121 86.4374 206.121 85.9241C206.121 85.4774 205.981 85.1308 205.701 84.8841C205.428 84.6308 205.098 84.5041 204.711 84.5041C203.991 84.5041 203.468 84.8341 203.141 85.4941L202.551 85.1441C202.771 84.7108 203.071 84.3841 203.451 84.1641C203.831 83.9374 204.251 83.8241 204.711 83.8241C205.271 83.8241 205.761 84.0141 206.181 84.3941C206.608 84.7674 206.821 85.2774 206.821 85.9241C206.821 86.3308 206.708 86.7208 206.481 87.0941C206.254 87.4674 205.934 87.8608 205.521 88.2741L203.521 90.2641H206.971V90.9441H202.521ZM209.976 86.7641C210.63 86.7641 211.183 86.9574 211.636 87.3441C212.096 87.7241 212.326 88.2474 212.326 88.9141C212.326 89.5808 212.096 90.1074 211.636 90.4941C211.183 90.8741 210.63 91.0641 209.976 91.0641C209.45 91.0641 208.98 90.9374 208.566 90.6841C208.153 90.4241 207.873 90.0541 207.726 89.5741L208.316 89.2341C208.416 89.6074 208.613 89.8941 208.906 90.0941C209.206 90.2874 209.563 90.3841 209.976 90.3841C210.456 90.3841 210.85 90.2574 211.156 90.0041C211.47 89.7441 211.626 89.3808 211.626 88.9141C211.626 88.4474 211.47 88.0874 211.156 87.8341C210.85 87.5741 210.456 87.4441 209.976 87.4441H208.076L208.326 83.9441H212.076V84.6041H208.946L208.796 86.7641H209.976ZM217.227 83.9441H217.827V90.9441H217.127V84.7141L215.557 85.1841L215.377 84.5841L217.227 83.9441ZM224.175 88.8841V89.5441H223.275V90.9441H222.575V89.5441H218.875V88.8841L221.475 83.9441H222.245L219.645 88.8841H222.575V86.7441H223.275V88.8841H224.175ZM225.966 86.7841C225.859 86.8908 225.729 86.9441 225.576 86.9441C225.422 86.9441 225.292 86.8908 225.186 86.7841C225.079 86.6774 225.026 86.5474 225.026 86.3941C225.026 86.2408 225.079 86.1108 225.186 86.0041C225.292 85.8974 225.422 85.8441 225.576 85.8441C225.729 85.8441 225.859 85.8974 225.966 86.0041C226.072 86.1108 226.126 86.2408 226.126 86.3941C226.126 86.5474 226.072 86.6774 225.966 86.7841ZM225.966 90.8841C225.859 90.9908 225.729 91.0441 225.576 91.0441C225.422 91.0441 225.292 90.9908 225.186 90.8841C225.079 90.7774 225.026 90.6474 225.026 90.4941C225.026 90.3408 225.079 90.2108 225.186 90.1041C225.292 89.9974 225.422 89.9441 225.576 89.9441C225.729 89.9441 225.859 89.9974 225.966 90.1041C226.072 90.2108 226.126 90.3408 226.126 90.4941C226.126 90.6474 226.072 90.7774 225.966 90.8841ZM231.83 90.0841C231.37 90.7374 230.72 91.0641 229.88 91.0641C229.04 91.0641 228.387 90.7374 227.92 90.0841C227.46 89.4241 227.23 88.5441 227.23 87.4441C227.23 86.3441 227.46 85.4674 227.92 84.8141C228.387 84.1541 229.04 83.8241 229.88 83.8241C230.72 83.8241 231.37 84.1541 231.83 84.8141C232.297 85.4674 232.53 86.3441 232.53 87.4441C232.53 88.5441 232.297 89.4241 231.83 90.0841ZM228.44 89.6141C228.787 90.1274 229.267 90.3841 229.88 90.3841C230.494 90.3841 230.97 90.1274 231.31 89.6141C231.657 89.1008 231.83 88.3774 231.83 87.4441C231.83 86.5108 231.657 85.7874 231.31 85.2741C230.97 84.7608 230.494 84.5041 229.88 84.5041C229.267 84.5041 228.787 84.7608 228.44 85.2741C228.1 85.7874 227.93 86.5108 227.93 87.4441C227.93 88.3774 228.1 89.1008 228.44 89.6141ZM233.034 83.9441H237.334V84.6041L234.694 90.9441H233.964L236.604 84.6041H233.034V83.9441ZM238.681 86.7841C238.574 86.8908 238.444 86.9441 238.291 86.9441C238.137 86.9441 238.007 86.8908 237.901 86.7841C237.794 86.6774 237.741 86.5474 237.741 86.3941C237.741 86.2408 237.794 86.1108 237.901 86.0041C238.007 85.8974 238.137 85.8441 238.291 85.8441C238.444 85.8441 238.574 85.8974 238.681 86.0041C238.787 86.1108 238.841 86.2408 238.841 86.3941C238.841 86.5474 238.787 86.6774 238.681 86.7841ZM238.681 90.8841C238.574 90.9908 238.444 91.0441 238.291 91.0441C238.137 91.0441 238.007 90.9908 237.901 90.8841C237.794 90.7774 237.741 90.6474 237.741 90.4941C237.741 90.3408 237.794 90.2108 237.901 90.1041C238.007 89.9974 238.137 89.9441 238.291 89.9441C238.444 89.9441 238.574 89.9974 238.681 90.1041C238.787 90.2108 238.841 90.3408 238.841 90.4941C238.841 90.6474 238.787 90.7774 238.681 90.8841ZM244.545 90.0841C244.085 90.7374 243.435 91.0641 242.595 91.0641C241.755 91.0641 241.102 90.7374 240.635 90.0841C240.175 89.4241 239.945 88.5441 239.945 87.4441C239.945 86.3441 240.175 85.4674 240.635 84.8141C241.102 84.1541 241.755 83.8241 242.595 83.8241C243.435 83.8241 244.085 84.1541 244.545 84.8141C245.012 85.4674 245.245 86.3441 245.245 87.4441C245.245 88.5441 245.012 89.4241 244.545 90.0841ZM241.155 89.6141C241.502 90.1274 241.982 90.3841 242.595 90.3841C243.209 90.3841 243.685 90.1274 244.025 89.6141C244.372 89.1008 244.545 88.3774 244.545 87.4441C244.545 86.5108 244.372 85.7874 244.025 85.2741C243.685 84.7608 243.209 84.5041 242.595 84.5041C241.982 84.5041 241.502 84.7608 241.155 85.2741C240.815 85.7874 240.645 86.5108 240.645 87.4441C240.645 88.3774 240.815 89.1008 241.155 89.6141ZM248.394 86.7641C249.047 86.7641 249.601 86.9574 250.054 87.3441C250.514 87.7241 250.744 88.2474 250.744 88.9141C250.744 89.5808 250.514 90.1074 250.054 90.4941C249.601 90.8741 249.047 91.0641 248.394 91.0641C247.867 91.0641 247.397 90.9374 246.984 90.6841C246.571 90.4241 246.291 90.0541 246.144 89.5741L246.734 89.2341C246.834 89.6074 247.031 89.8941 247.324 90.0941C247.624 90.2874 247.981 90.3841 248.394 90.3841C248.874 90.3841 249.267 90.2574 249.574 90.0041C249.887 89.7441 250.044 89.3808 250.044 88.9141C250.044 88.4474 249.887 88.0874 249.574 87.8341C249.267 87.5741 248.874 87.4441 248.394 87.4441H246.494L246.744 83.9441H250.494V84.6041H247.364L247.214 86.7641H248.394ZM261.135 87.6141V87.9741C261.135 88.8408 260.825 89.5741 260.205 90.1741C259.585 90.7674 258.755 91.0641 257.715 91.0641C256.655 91.0641 255.778 90.7141 255.085 90.0141C254.391 89.3141 254.045 88.4574 254.045 87.4441C254.045 86.4308 254.391 85.5741 255.085 84.8741C255.778 84.1741 256.655 83.8241 257.715 83.8241C258.361 83.8241 258.955 83.9808 259.495 84.2941C260.035 84.6074 260.451 85.0241 260.745 85.5441L260.125 85.9041C259.905 85.4774 259.578 85.1374 259.145 84.8841C258.711 84.6308 258.235 84.5041 257.715 84.5041C256.841 84.5041 256.128 84.7874 255.575 85.3541C255.021 85.9208 254.745 86.6174 254.745 87.4441C254.745 88.2708 255.021 88.9674 255.575 89.5341C256.128 90.1008 256.841 90.3841 257.715 90.3841C258.501 90.3841 259.131 90.1874 259.605 89.7941C260.078 89.3941 260.348 88.8874 260.415 88.2741H257.635V87.6141H261.135ZM268.735 83.9441V90.9441H268.035V85.0041L265.585 89.1041H265.485L263.035 85.0041V90.9441H262.335V83.9441H263.205L265.535 87.8441L267.865 83.9441H268.735ZM274.733 83.9441V84.6041H272.583V90.9441H271.883V84.6041H269.733V83.9441H274.733ZM282.234 87.1241V87.7641H280.454V89.5441H279.814V87.7641H278.034V87.1241H279.814V85.3441H280.454V87.1241H282.234ZM290.434 90.0841C289.974 90.7374 289.324 91.0641 288.484 91.0641C287.644 91.0641 286.991 90.7374 286.524 90.0841C286.064 89.4241 285.834 88.5441 285.834 87.4441C285.834 86.3441 286.064 85.4674 286.524 84.8141C286.991 84.1541 287.644 83.8241 288.484 83.8241C289.324 83.8241 289.974 84.1541 290.434 84.8141C290.901 85.4674 291.134 86.3441 291.134 87.4441C291.134 88.5441 290.901 89.4241 290.434 90.0841ZM287.044 89.6141C287.391 90.1274 287.871 90.3841 288.484 90.3841C289.097 90.3841 289.574 90.1274 289.914 89.6141C290.261 89.1008 290.434 88.3774 290.434 87.4441C290.434 86.5108 290.261 85.7874 289.914 85.2741C289.574 84.7608 289.097 84.5041 288.484 84.5041C287.871 84.5041 287.391 84.7608 287.044 85.2741C286.704 85.7874 286.534 86.5108 286.534 87.4441C286.534 88.3774 286.704 89.1008 287.044 89.6141ZM294.408 86.8541C294.968 86.9274 295.428 87.1441 295.788 87.5041C296.154 87.8574 296.338 88.3274 296.338 88.9141C296.338 89.5808 296.108 90.1074 295.648 90.4941C295.194 90.8741 294.641 91.0641 293.988 91.0641C293.468 91.0641 293.004 90.9441 292.598 90.7041C292.191 90.4641 291.904 90.1208 291.738 89.6741L292.318 89.3341C292.431 89.6808 292.634 89.9441 292.928 90.1241C293.221 90.2974 293.574 90.3841 293.988 90.3841C294.468 90.3841 294.861 90.2574 295.168 90.0041C295.481 89.7441 295.638 89.3808 295.638 88.9141C295.638 88.4474 295.481 88.0874 295.168 87.8341C294.861 87.5741 294.468 87.4441 293.988 87.4441V87.4341L293.978 87.4441H293.788L293.488 86.9841L295.228 84.6041H291.938V83.9441H296.038V84.6041L294.408 86.8541ZM298.183 86.7841C298.076 86.8908 297.946 86.9441 297.793 86.9441C297.639 86.9441 297.509 86.8908 297.403 86.7841C297.296 86.6774 297.243 86.5474 297.243 86.3941C297.243 86.2408 297.296 86.1108 297.403 86.0041C297.509 85.8974 297.639 85.8441 297.793 85.8441C297.946 85.8441 298.076 85.8974 298.183 86.0041C298.289 86.1108 298.343 86.2408 298.343 86.3941C298.343 86.5474 298.289 86.6774 298.183 86.7841ZM298.183 90.8841C298.076 90.9908 297.946 91.0441 297.793 91.0441C297.639 91.0441 297.509 90.9908 297.403 90.8841C297.296 90.7774 297.243 90.6474 297.243 90.4941C297.243 90.3408 297.296 90.2108 297.403 90.1041C297.509 89.9974 297.639 89.9441 297.793 89.9441C297.946 89.9441 298.076 89.9974 298.183 90.1041C298.289 90.2108 298.343 90.3408 298.343 90.4941C298.343 90.6474 298.289 90.7774 298.183 90.8841ZM304.047 90.0841C303.587 90.7374 302.937 91.0641 302.097 91.0641C301.257 91.0641 300.604 90.7374 300.137 90.0841C299.677 89.4241 299.447 88.5441 299.447 87.4441C299.447 86.3441 299.677 85.4674 300.137 84.8141C300.604 84.1541 301.257 83.8241 302.097 83.8241C302.937 83.8241 303.587 84.1541 304.047 84.8141C304.514 85.4674 304.747 86.3441 304.747 87.4441C304.747 88.5441 304.514 89.4241 304.047 90.0841ZM300.657 89.6141C301.004 90.1274 301.484 90.3841 302.097 90.3841C302.711 90.3841 303.187 90.1274 303.527 89.6141C303.874 89.1008 304.047 88.3774 304.047 87.4441C304.047 86.5108 303.874 85.7874 303.527 85.2741C303.187 84.7608 302.711 84.5041 302.097 84.5041C301.484 84.5041 301.004 84.7608 300.657 85.2741C300.317 85.7874 300.147 86.5108 300.147 87.4441C300.147 88.3774 300.317 89.1008 300.657 89.6141ZM310.346 90.0841C309.886 90.7374 309.236 91.0641 308.396 91.0641C307.556 91.0641 306.903 90.7374 306.436 90.0841C305.976 89.4241 305.746 88.5441 305.746 87.4441C305.746 86.3441 305.976 85.4674 306.436 84.8141C306.903 84.1541 307.556 83.8241 308.396 83.8241C309.236 83.8241 309.886 84.1541 310.346 84.8141C310.813 85.4674 311.046 86.3441 311.046 87.4441C311.046 88.5441 310.813 89.4241 310.346 90.0841ZM306.956 89.6141C307.303 90.1274 307.783 90.3841 308.396 90.3841C309.009 90.3841 309.486 90.1274 309.826 89.6141C310.173 89.1008 310.346 88.3774 310.346 87.4441C310.346 86.5108 310.173 85.7874 309.826 85.2741C309.486 84.7608 309.009 84.5041 308.396 84.5041C307.783 84.5041 307.303 84.7608 306.956 85.2741C306.616 85.7874 306.446 86.5108 306.446 87.4441C306.446 88.3774 306.616 89.1008 306.956 89.6141Z" fill="#1E1E1E"/>
<line x1="163.402" y1="117.025" x2="477.162" y2="117.025" stroke="#E7E7E7"/>
<rect x="432.955" y="52.8325" width="41" height="22" rx="5" fill="#DBFFE9"/>
<path d="M446.245 59.8325C446.892 59.8325 447.428 60.0492 447.855 60.4825C448.288 60.9092 448.505 61.4425 448.505 62.0825C448.505 62.7159 448.288 63.2492 447.855 63.6825C447.428 64.1159 446.892 64.3325 446.245 64.3325H444.635V66.8325H443.705V59.8325H446.245ZM446.245 63.4625C446.632 63.4625 446.952 63.3325 447.205 63.0725C447.458 62.8059 447.585 62.4759 447.585 62.0825C447.585 61.6825 447.458 61.3525 447.205 61.0925C446.952 60.8325 446.632 60.7025 446.245 60.7025H444.635V63.4625H446.245ZM453.273 61.8325H454.143V66.8325H453.273V65.9725C452.839 66.6325 452.209 66.9625 451.383 66.9625C450.683 66.9625 450.086 66.7092 449.593 66.2025C449.099 65.6892 448.853 65.0659 448.853 64.3325C448.853 63.5992 449.099 62.9792 449.593 62.4725C450.086 61.9592 450.683 61.7025 451.383 61.7025C452.209 61.7025 452.839 62.0325 453.273 62.6925V61.8325ZM451.493 66.1225C451.999 66.1225 452.423 65.9525 452.763 65.6125C453.103 65.2659 453.273 64.8392 453.273 64.3325C453.273 63.8259 453.103 63.4025 452.763 63.0625C452.423 62.7159 451.999 62.5425 451.493 62.5425C450.993 62.5425 450.573 62.7159 450.233 63.0625C449.893 63.4025 449.723 63.8259 449.723 64.3325C449.723 64.8392 449.893 65.2659 450.233 65.6125C450.573 65.9525 450.993 66.1225 451.493 66.1225ZM455.901 60.9225C455.734 60.9225 455.594 60.8659 455.481 60.7525C455.367 60.6392 455.311 60.5025 455.311 60.3425C455.311 60.1825 455.367 60.0459 455.481 59.9325C455.594 59.8125 455.734 59.7525 455.901 59.7525C456.061 59.7525 456.197 59.8125 456.311 59.9325C456.424 60.0459 456.481 60.1825 456.481 60.3425C456.481 60.5025 456.424 60.6392 456.311 60.7525C456.197 60.8659 456.061 60.9225 455.901 60.9225ZM455.461 66.8325V61.8325H456.331V66.8325H455.461ZM461.798 59.8325H462.668V66.8325H461.798V65.9725C461.365 66.6325 460.735 66.9625 459.908 66.9625C459.208 66.9625 458.611 66.7092 458.118 66.2025C457.625 65.6892 457.378 65.0659 457.378 64.3325C457.378 63.5992 457.625 62.9792 458.118 62.4725C458.611 61.9592 459.208 61.7025 459.908 61.7025C460.735 61.7025 461.365 62.0325 461.798 62.6925V59.8325ZM460.018 66.1225C460.525 66.1225 460.948 65.9525 461.288 65.6125C461.628 65.2659 461.798 64.8392 461.798 64.3325C461.798 63.8259 461.628 63.4025 461.288 63.0625C460.948 62.7159 460.525 62.5425 460.018 62.5425C459.518 62.5425 459.098 62.7159 458.758 63.0625C458.418 63.4025 458.248 63.8259 458.248 64.3325C458.248 64.8392 458.418 65.2659 458.758 65.6125C459.098 65.9525 459.518 66.1225 460.018 66.1225Z" fill="#16A34A"/>
<defs>
<filter id="filter0_d_1177_1841" x="0" y="283.044" width="515.012" height="126.956" filterUnits="userSpaceOnUse" color-interpolation-filters="sRGB">
<feFlood flood-opacity="0" result="BackgroundImageFix"/>
<feColorMatrix in="SourceAlpha" type="matrix" values="0 0 0 0 0 0 0 0 0 0 0 0 0 0 0 0 0 0 127 0" result="hardAlpha"/>
<feOffset dy="4"/>
<feGaussianBlur stdDeviation="10"/>
<feComposite in2="hardAlpha" operator="out"/>
<feColorMatrix type="matrix" values="0 0 0 0 0.0392157 0 0 0 0 0.0470588 0 0 0 0 0.2 0 0 0 0.03 0"/>
<feBlend mode="normal" in2="BackgroundImageFix" result="effect1_dropShadow_1177_1841"/>
<feBlend mode="normal" in="SourceGraphic" in2="effect1_dropShadow_1177_1841" result="shape"/>
</filter>
</defs>
</svg>
