<svg width="2220" height="322" viewBox="0 0 2220 322" fill="none" xmlns="http://www.w3.org/2000/svg">
<g clip-path="url(#clip0_1452_2782)">
<g filter="url(#filter0_f_1452_2782)">
<ellipse cx="1106.71" cy="730.568" rx="932.708" ry="711.325" fill="white"/>
<path d="M1106.71 19.7427C1364.17 19.7427 1597.24 99.3305 1765.93 227.983C1934.62 356.635 2038.92 534.33 2038.92 730.568C2038.92 926.806 1934.62 1104.5 1765.93 1233.15C1597.24 1361.81 1364.17 1441.39 1106.71 1441.39C849.248 1441.39 616.18 1361.81 447.487 1233.15C278.795 1104.5 174.5 926.806 174.5 730.568C174.5 534.33 278.795 356.635 447.487 227.983C616.18 99.3306 849.248 19.7428 1106.71 19.7427Z" stroke="url(#paint0_linear_1452_2782)"/>
</g>
<g filter="url(#filter1_f_1452_2782)">
<ellipse cx="1110" cy="876.588" rx="1110" ry="846.536" fill="#0A0C33"/>
<path d="M1110 30.5518C1416.42 30.5518 1693.81 125.273 1894.58 278.394C2095.36 431.514 2219.5 643.013 2219.5 876.588C2219.5 1110.16 2095.36 1321.66 1894.58 1474.78C1693.81 1627.9 1416.42 1722.62 1110 1722.62C803.582 1722.62 526.191 1627.9 325.415 1474.78C124.64 1321.66 0.500087 1110.16 0.5 876.588C0.5 643.013 124.64 431.514 325.415 278.394C526.191 125.273 803.582 30.5518 1110 30.5518Z" stroke="url(#paint1_linear_1452_2782)"/>
</g>
<g style="mix-blend-mode:plus-lighter" filter="url(#filter2_f_1452_2782)">
<path d="M1107.43 19.5C1401.79 19.5 1668.26 110.493 1861.13 257.585C2054 404.677 2173.25 607.847 2173.25 832.224C2173.25 1056.6 2054 1259.77 1861.13 1406.86C1668.26 1553.95 1401.79 1644.95 1107.43 1644.95C813.074 1644.95 546.603 1553.95 353.732 1406.86C160.862 1259.77 41.6113 1056.6 41.6111 832.224C41.6111 607.847 160.861 404.677 353.732 257.585C546.603 110.493 813.074 19.5 1107.43 19.5Z" stroke="url(#paint2_linear_1452_2782)"/>
</g>
<g style="mix-blend-mode:plus-lighter" filter="url(#filter3_f_1452_2782)">
<path d="M1107.43 19.5C1401.79 19.5 1668.26 110.493 1861.13 257.585C2054 404.677 2173.25 607.847 2173.25 832.224C2173.25 1056.6 2054 1259.77 1861.13 1406.86C1668.26 1553.95 1401.79 1644.95 1107.43 1644.95C813.074 1644.95 546.603 1553.95 353.732 1406.86C160.862 1259.77 41.6113 1056.6 41.6111 832.224C41.6111 607.847 160.861 404.677 353.732 257.585C546.603 110.493 813.074 19.5 1107.43 19.5Z" stroke="url(#paint3_linear_1452_2782)"/>
</g>
<g style="mix-blend-mode:plus-lighter" filter="url(#filter4_f_1452_2782)">
<path d="M1107.43 19.5C1401.79 19.5 1668.26 110.493 1861.13 257.585C2054 404.677 2173.25 607.847 2173.25 832.224C2173.25 1056.6 2054 1259.77 1861.13 1406.86C1668.26 1553.95 1401.79 1644.95 1107.43 1644.95C813.074 1644.95 546.603 1553.95 353.732 1406.86C160.862 1259.77 41.6113 1056.6 41.6111 832.224C41.6111 607.847 160.861 404.677 353.732 257.585C546.603 110.493 813.074 19.5 1107.43 19.5Z" stroke="url(#paint4_linear_1452_2782)"/>
</g>
<g style="mix-blend-mode:plus-lighter" filter="url(#filter5_f_1452_2782)">
<path d="M1107.43 19.5C1401.79 19.5 1668.26 110.493 1861.13 257.585C2054 404.677 2173.25 607.847 2173.25 832.224C2173.25 1056.6 2054 1259.77 1861.13 1406.86C1668.26 1553.95 1401.79 1644.95 1107.43 1644.95C813.074 1644.95 546.603 1553.95 353.732 1406.86C160.862 1259.77 41.6113 1056.6 41.6111 832.224C41.6111 607.847 160.861 404.677 353.732 257.585C546.603 110.493 813.074 19.5 1107.43 19.5Z" stroke="url(#paint5_linear_1452_2782)"/>
</g>
<g style="mix-blend-mode:plus-lighter" filter="url(#filter6_f_1452_2782)">
<path d="M1107.43 19.5C1401.79 19.5 1668.26 110.493 1861.13 257.585C2054 404.677 2173.25 607.847 2173.25 832.224C2173.25 1056.6 2054 1259.77 1861.13 1406.86C1668.26 1553.95 1401.79 1644.95 1107.43 1644.95C813.074 1644.95 546.603 1553.95 353.732 1406.86C160.862 1259.77 41.6113 1056.6 41.6111 832.224C41.6111 607.847 160.861 404.677 353.732 257.585C546.603 110.493 813.074 19.5 1107.43 19.5Z" stroke="url(#paint6_linear_1452_2782)"/>
</g>
</g>
<defs>
<filter id="filter0_f_1452_2782" x="162" y="7.24268" width="1889.42" height="1446.65" filterUnits="userSpaceOnUse" color-interpolation-filters="sRGB">
<feFlood flood-opacity="0" result="BackgroundImageFix"/>
<feBlend mode="normal" in="SourceGraphic" in2="BackgroundImageFix" result="shape"/>
<feGaussianBlur stdDeviation="6" result="effect1_foregroundBlur_1452_2782"/>
</filter>
<filter id="filter1_f_1452_2782" x="-12" y="18.0518" width="2244" height="1717.07" filterUnits="userSpaceOnUse" color-interpolation-filters="sRGB">
<feFlood flood-opacity="0" result="BackgroundImageFix"/>
<feBlend mode="normal" in="SourceGraphic" in2="BackgroundImageFix" result="shape"/>
<feGaussianBlur stdDeviation="6" result="effect1_foregroundBlur_1452_2782"/>
</filter>
<filter id="filter2_f_1452_2782" x="29.1111" y="7" width="2156.64" height="1650.45" filterUnits="userSpaceOnUse" color-interpolation-filters="sRGB">
<feFlood flood-opacity="0" result="BackgroundImageFix"/>
<feBlend mode="normal" in="SourceGraphic" in2="BackgroundImageFix" result="shape"/>
<feGaussianBlur stdDeviation="6" result="effect1_foregroundBlur_1452_2782"/>
</filter>
<filter id="filter3_f_1452_2782" x="29.1111" y="7" width="2156.64" height="1650.45" filterUnits="userSpaceOnUse" color-interpolation-filters="sRGB">
<feFlood flood-opacity="0" result="BackgroundImageFix"/>
<feBlend mode="normal" in="SourceGraphic" in2="BackgroundImageFix" result="shape"/>
<feGaussianBlur stdDeviation="6" result="effect1_foregroundBlur_1452_2782"/>
</filter>
<filter id="filter4_f_1452_2782" x="33.1111" y="11" width="2148.64" height="1642.45" filterUnits="userSpaceOnUse" color-interpolation-filters="sRGB">
<feFlood flood-opacity="0" result="BackgroundImageFix"/>
<feBlend mode="normal" in="SourceGraphic" in2="BackgroundImageFix" result="shape"/>
<feGaussianBlur stdDeviation="4" result="effect1_foregroundBlur_1452_2782"/>
</filter>
<filter id="filter5_f_1452_2782" x="37.1111" y="15" width="2140.64" height="1634.45" filterUnits="userSpaceOnUse" color-interpolation-filters="sRGB">
<feFlood flood-opacity="0" result="BackgroundImageFix"/>
<feBlend mode="normal" in="SourceGraphic" in2="BackgroundImageFix" result="shape"/>
<feGaussianBlur stdDeviation="2" result="effect1_foregroundBlur_1452_2782"/>
</filter>
<filter id="filter6_f_1452_2782" x="37.1111" y="15" width="2140.64" height="1634.45" filterUnits="userSpaceOnUse" color-interpolation-filters="sRGB">
<feFlood flood-opacity="0" result="BackgroundImageFix"/>
<feBlend mode="normal" in="SourceGraphic" in2="BackgroundImageFix" result="shape"/>
<feGaussianBlur stdDeviation="2" result="effect1_foregroundBlur_1452_2782"/>
</filter>
<linearGradient id="paint0_linear_1452_2782" x1="1106.71" y1="19.2427" x2="1106.71" y2="199.217" gradientUnits="userSpaceOnUse">
<stop stop-color="#A5EB14"/>
<stop offset="1" stop-opacity="0"/>
</linearGradient>
<linearGradient id="paint1_linear_1452_2782" x1="1110" y1="30.0518" x2="1110" y2="244.236" gradientUnits="userSpaceOnUse">
<stop stop-color="#A5EB14"/>
<stop offset="1" stop-opacity="0"/>
</linearGradient>
<linearGradient id="paint2_linear_1452_2782" x1="1107.43" y1="19" x2="1107" y2="237.551" gradientUnits="userSpaceOnUse">
<stop stop-color="white"/>
<stop offset="1" stop-opacity="0"/>
</linearGradient>
<linearGradient id="paint3_linear_1452_2782" x1="1107.43" y1="19" x2="1107" y2="116.051" gradientUnits="userSpaceOnUse">
<stop stop-color="white"/>
<stop offset="1" stop-opacity="0"/>
</linearGradient>
<linearGradient id="paint4_linear_1452_2782" x1="1107.43" y1="19" x2="1107" y2="99.5513" gradientUnits="userSpaceOnUse">
<stop stop-color="white"/>
<stop offset="1" stop-opacity="0"/>
</linearGradient>
<linearGradient id="paint5_linear_1452_2782" x1="1107.43" y1="19" x2="1107" y2="80.5513" gradientUnits="userSpaceOnUse">
<stop stop-color="white"/>
<stop offset="1" stop-opacity="0"/>
</linearGradient>
<linearGradient id="paint6_linear_1452_2782" x1="1107.43" y1="19" x2="1107" y2="68.5513" gradientUnits="userSpaceOnUse">
<stop stop-color="#A5EB14"/>
<stop offset="1" stop-opacity="0"/>
</linearGradient>
<clipPath id="clip0_1452_2782">
<rect width="2220" height="322" fill="white"/>
</clipPath>
</defs>
</svg>
