<svg width="34" height="34" viewBox="0 0 34 34" fill="none" xmlns="http://www.w3.org/2000/svg">
<g clip-path="url(#clip0_1443_2569)">
<path fill-rule="evenodd" clip-rule="evenodd" d="M7.4375 5.3125C7.4375 4.84285 7.62407 4.39243 7.95616 4.06033C8.28826 3.72824 8.73868 3.54167 9.20833 3.54167C9.67799 3.54167 10.1284 3.72824 10.4605 4.06033C10.7926 4.39243 10.9792 4.84285 10.9792 5.3125C10.9792 5.78215 10.7926 6.23257 10.4605 6.56467C10.1284 6.89676 9.67799 7.08333 9.20833 7.08333C8.73868 7.08333 8.28826 6.89676 7.95616 6.56467C7.62407 6.23257 7.4375 5.78215 7.4375 5.3125ZM9.20833 0C7.79937 0 6.44812 0.559708 5.45183 1.556C4.45554 2.55228 3.89583 3.90354 3.89583 5.3125C3.89583 6.72146 4.45554 8.07272 5.45183 9.069C6.44812 10.0653 7.79937 10.625 9.20833 10.625C10.6173 10.625 11.9686 10.0653 12.9648 9.069C13.9611 8.07272 14.5208 6.72146 14.5208 5.3125C14.5208 3.90354 13.9611 2.55228 12.9648 1.556C11.9686 0.559708 10.6173 0 9.20833 0ZM17.85 14.45L17.0014 15.5819L17.7409 14.5959L17.85 14.45ZM0.566667 14.45C0.566667 14.45 0.566667 14.4528 0.672917 14.5917L1.36425 15.5125L0.566667 14.45ZM0.566667 14.45L0.568083 14.4486L0.570917 14.4472L0.576583 14.4429L0.59075 14.433L0.630417 14.4047C0.663472 14.3801 0.707389 14.3499 0.762167 14.314C0.872667 14.2384 1.02708 14.1426 1.22542 14.0264C1.62208 13.7955 2.193 13.4994 2.92683 13.2048C4.39733 12.6182 6.52375 12.0417 9.20833 12.0417C11.8929 12.0417 14.0193 12.6168 15.4898 13.2062C16.2237 13.4994 16.7946 13.7955 17.1898 14.0264C17.3933 14.1438 17.5918 14.2695 17.7848 14.4032L17.8273 14.4316L17.8415 14.4429L17.8457 14.4472L17.85 14.45L18.4167 14.875V20.5417H15.5833V34H2.83333V26.2083H0V14.875L0.566667 14.45ZM18.4167 23.375H21.6042V22.6667C21.6042 21.4456 22.0892 20.2745 22.9527 19.411C23.8161 18.5476 24.9872 18.0625 26.2083 18.0625C27.4294 18.0625 28.6005 18.5476 29.464 19.411C30.3274 20.2745 30.8125 21.4456 30.8125 22.6667V23.375H34V34H18.4167V23.375ZM27.2708 23.375V22.6667C27.2708 22.3849 27.1589 22.1146 26.9596 21.9154C26.7604 21.7161 26.4901 21.6042 26.2083 21.6042C25.9265 21.6042 25.6563 21.7161 25.457 21.9154C25.2578 22.1146 25.1458 22.3849 25.1458 22.6667V23.375H27.2708ZM21.9583 26.9167V30.4583H30.4583V26.9167H21.9583Z" fill="#A5EB14"/>
</g>
<defs>
<clipPath id="clip0_1443_2569">
<rect width="34" height="34" fill="white"/>
</clipPath>
</defs>
</svg>
