<svg width="34" height="34" viewBox="0 0 34 34" fill="none" xmlns="http://www.w3.org/2000/svg">
<path d="M6.79994 5.5982C7.11868 5.27936 7.55101 5.10019 8.00184 5.1001H25.998C26.4489 5.10019 26.8812 5.27936 27.1999 5.5982L31.6913 10.0879C32.9867 11.385 32.0687 13.6001 30.2361 13.6001H3.76374C1.93114 13.6001 1.01484 11.385 2.31194 10.0879L6.79994 5.5982ZM28.8999 15.3001H5.09994V25.5001C5.09994 26.4018 5.45815 27.2666 6.09578 27.9043C6.7334 28.5419 7.5982 28.9001 8.49994 28.9001H25.4999C26.4017 28.9001 27.2665 28.5419 27.9041 27.9043C28.5417 27.2666 28.8999 26.4018 28.8999 25.5001V15.3001ZM11.8999 22.1001C11.4491 22.1001 11.0167 21.921 10.6979 21.6022C10.379 21.2834 10.1999 20.851 10.1999 20.4001C10.1999 19.9492 10.379 19.5168 10.6979 19.198C11.0167 18.8792 11.4491 18.7001 11.8999 18.7001C12.3508 18.7001 12.7832 18.8792 13.102 19.198C13.4208 19.5168 13.5999 19.9492 13.5999 20.4001C13.5999 20.851 13.4208 21.2834 13.102 21.6022C12.7832 21.921 12.3508 22.1001 11.8999 22.1001ZM16.9999 22.1001C16.5491 22.1001 16.1167 21.921 15.7979 21.6022C15.479 21.2834 15.2999 20.851 15.2999 20.4001C15.2999 19.9492 15.479 19.5168 15.7979 19.198C16.1167 18.8792 16.5491 18.7001 16.9999 18.7001C17.4508 18.7001 17.8832 18.8792 18.202 19.198C18.5208 19.5168 18.6999 19.9492 18.6999 20.4001C18.6999 20.851 18.5208 21.2834 18.202 21.6022C17.8832 21.921 17.4508 22.1001 16.9999 22.1001ZM22.0999 22.1001C21.6491 22.1001 21.2167 21.921 20.8979 21.6022C20.579 21.2834 20.3999 20.851 20.3999 20.4001C20.3999 19.9492 20.579 19.5168 20.8979 19.198C21.2167 18.8792 21.6491 18.7001 22.0999 18.7001C22.5508 18.7001 22.9832 18.8792 23.302 19.198C23.6208 19.5168 23.7999 19.9492 23.7999 20.4001C23.7999 20.851 23.6208 21.2834 23.302 21.6022C22.9832 21.921 22.5508 22.1001 22.0999 22.1001Z" fill="#A5EB14"/>
</svg>
