<svg width="34" height="34" viewBox="0 0 34 34" fill="none" xmlns="http://www.w3.org/2000/svg">
<path d="M5.6665 6.02075C5.6665 5.17537 6.00233 4.36462 6.6001 3.76685C7.19787 3.16908 8.00863 2.83325 8.854 2.83325H20.1873C21.0327 2.83325 21.8435 3.16908 22.4412 3.76685C23.039 4.36462 23.3748 5.17537 23.3748 6.02075V13.4583H25.1457C25.5643 13.4583 25.9787 13.5407 26.3655 13.7009C26.7522 13.8611 27.1036 14.0959 27.3996 14.3919C27.6956 14.6878 27.9303 15.0392 28.0905 15.426C28.2507 15.8127 28.3332 16.2272 28.3332 16.6458V30.1041C28.3332 30.3859 28.2212 30.6561 28.022 30.8554C27.8227 31.0546 27.5525 31.1666 27.2707 31.1666H23.3748V25.8541C23.3748 24.8766 22.5815 24.0833 21.604 24.0833H12.3957C11.4182 24.0833 10.6248 24.8766 10.6248 25.8541V31.1666H6.729C6.44721 31.1666 6.17696 31.0546 5.9777 30.8554C5.77845 30.6561 5.6665 30.3859 5.6665 30.1041V6.02075ZM21.2498 26.2083V31.1666H18.0623V26.2083H21.2498ZM15.9373 26.2083V31.1666H12.7498V26.2083H15.9373ZM10.6248 9.20825C10.6248 9.58398 10.7741 9.94431 11.0398 10.21C11.3054 10.4757 11.6658 10.6249 12.0415 10.6249C12.4172 10.6249 12.7776 10.4757 13.0432 10.21C13.3089 9.94431 13.4582 9.58398 13.4582 9.20825C13.4582 8.83253 13.3089 8.47219 13.0432 8.20652C12.7776 7.94084 12.4172 7.79159 12.0415 7.79159C11.6658 7.79159 11.3054 7.94084 11.0398 8.20652C10.7741 8.47219 10.6248 8.83253 10.6248 9.20825ZM12.0415 17.7083C11.6658 17.7083 11.3054 17.8575 11.0398 18.1232C10.7741 18.3889 10.6248 18.7492 10.6248 19.1249C10.6248 19.5006 10.7741 19.861 11.0398 20.1267C11.3054 20.3923 11.6658 20.5416 12.0415 20.5416C12.4172 20.5416 12.7776 20.3923 13.0432 20.1267C13.3089 19.861 13.4582 19.5006 13.4582 19.1249C13.4582 18.7492 13.3089 18.3889 13.0432 18.1232C12.7776 17.8575 12.4172 17.7083 12.0415 17.7083ZM12.0415 12.7499C11.6658 12.7499 11.3054 12.8992 11.0398 13.1649C10.7741 13.4305 10.6248 13.7909 10.6248 14.1666C10.6248 14.5423 10.7741 14.9026 11.0398 15.1683C11.3054 15.434 11.6658 15.5833 12.0415 15.5833C12.4172 15.5833 12.7776 15.434 13.0432 15.1683C13.3089 14.9026 13.4582 14.5423 13.4582 14.1666C13.4582 13.7909 13.3089 13.4305 13.0432 13.1649C12.7776 12.8992 12.4172 12.7499 12.0415 12.7499ZM16.9998 7.79159C16.6241 7.79159 16.2638 7.94084 15.9981 8.20652C15.7324 8.47219 15.5832 8.83253 15.5832 9.20825C15.5832 9.58398 15.7324 9.94431 15.9981 10.21C16.2638 10.4757 16.6241 10.6249 16.9998 10.6249C17.3756 10.6249 17.7359 10.4757 18.0016 10.21C18.2672 9.94431 18.4165 9.58398 18.4165 9.20825C18.4165 8.83253 18.2672 8.47219 18.0016 8.20652C17.7359 7.94084 17.3756 7.79159 16.9998 7.79159ZM16.9998 17.7083C16.6241 17.7083 16.2638 17.8575 15.9981 18.1232C15.7324 18.3889 15.5832 18.7492 15.5832 19.1249C15.5832 19.5006 15.7324 19.861 15.9981 20.1267C16.2638 20.3923 16.6241 20.5416 16.9998 20.5416C17.3756 20.5416 17.7359 20.3923 18.0016 20.1267C18.2672 19.861 18.4165 19.5006 18.4165 19.1249C18.4165 18.7492 18.2672 18.3889 18.0016 18.1232C17.7359 17.8575 17.3756 17.7083 16.9998 17.7083ZM21.9582 17.7083C21.5824 17.7083 21.2221 17.8575 20.9564 18.1232C20.6908 18.3889 20.5415 18.7492 20.5415 19.1249C20.5415 19.5006 20.6908 19.861 20.9564 20.1267C21.2221 20.3923 21.5824 20.5416 21.9582 20.5416C22.3339 20.5416 22.6942 20.3923 22.9599 20.1267C23.2256 19.861 23.3748 19.5006 23.3748 19.1249C23.3748 18.7492 23.2256 18.3889 22.9599 18.1232C22.6942 17.8575 22.3339 17.7083 21.9582 17.7083ZM16.9998 12.7499C16.6241 12.7499 16.2638 12.8992 15.9981 13.1649C15.7324 13.4305 15.5832 13.7909 15.5832 14.1666C15.5832 14.5423 15.7324 14.9026 15.9981 15.1683C16.2638 15.434 16.6241 15.5833 16.9998 15.5833C17.3756 15.5833 17.7359 15.434 18.0016 15.1683C18.2672 14.9026 18.4165 14.5423 18.4165 14.1666C18.4165 13.7909 18.2672 13.4305 18.0016 13.1649C17.7359 12.8992 17.3756 12.7499 16.9998 12.7499Z" fill="#A5EB14"/>
</svg>
