<svg width="34" height="34" viewBox="0 0 34 34" fill="none" xmlns="http://www.w3.org/2000/svg">
<path d="M19.8332 25.9533C18.288 25.2064 16.961 24.0746 15.9798 22.6666H4.24984V5.66659H29.7498V8.86825C30.8962 9.675 31.8613 10.7125 32.5832 11.9141V5.66659C32.5832 4.91514 32.2847 4.19447 31.7533 3.66312C31.222 3.13176 30.5013 2.83325 29.7498 2.83325H4.24984C3.49839 2.83325 2.77772 3.13176 2.24637 3.66312C1.71501 4.19447 1.4165 4.91514 1.4165 5.66659V22.6666C1.4165 23.418 1.71501 24.1387 2.24637 24.6701C2.77772 25.2014 3.49839 25.4999 4.24984 25.4999H14.1665V28.3333H11.3332V31.1666H22.6665V28.3333H19.8332V25.9533Z" fill="#A5EB14"/>
<path d="M24.0835 8.5C22.4024 8.5 20.759 8.99852 19.3612 9.93251C17.9633 10.8665 16.8739 12.194 16.2305 13.7472C15.5872 15.3004 15.4189 17.0094 15.7468 18.6583C16.0748 20.3071 16.8843 21.8217 18.0731 23.0104C19.2618 24.1992 20.7764 25.0087 22.4252 25.3367C24.0741 25.6646 25.7831 25.4963 27.3363 24.853C28.8895 24.2096 30.217 23.1202 31.151 21.7223C32.085 20.3245 32.5835 18.6811 32.5835 17C32.5835 14.7457 31.688 12.5837 30.0939 10.9896C28.4998 9.39553 26.3378 8.5 24.0835 8.5ZM24.0835 19.125C23.6632 19.125 23.2524 19.0004 22.9029 18.7669C22.5535 18.5334 22.2811 18.2015 22.1203 17.8132C21.9594 17.4249 21.9173 16.9976 21.9993 16.5854C22.0813 16.1732 22.2837 15.7946 22.5809 15.4974C22.8781 15.2002 23.2567 14.9978 23.6689 14.9158C24.0811 14.8338 24.5084 14.8759 24.8967 15.0368C25.285 15.1976 25.6169 15.47 25.8504 15.8194C26.0839 16.1689 26.2085 16.5797 26.2085 17C26.2085 17.5636 25.9846 18.1041 25.5861 18.5026C25.1876 18.9011 24.6471 19.125 24.0835 19.125Z" fill="#A5EB14"/>
</svg>
