<svg width="34" height="34" viewBox="0 0 34 34" fill="none" xmlns="http://www.w3.org/2000/svg">
<g clip-path="url(#clip0_1443_2537)">
<path fill-rule="evenodd" clip-rule="evenodd" d="M15.8999 24.9243L9.07557 18.1C9.826 16.8444 10.574 15.5452 11.3147 14.2532C13.7821 9.96431 16.1913 5.77745 18.4499 3.59902C24.5796 -2.53069 32.9751 1.02474 32.9751 1.02474C32.9751 1.02474 36.5306 9.42031 30.4009 15.55C28.2394 17.7892 24.1181 20.1643 19.8609 22.6123C18.5349 23.3773 17.1967 24.1472 15.8999 24.9243ZM21.097 9.06088C21.097 8.04192 21.5018 7.06469 22.2223 6.34417C22.9428 5.62366 23.92 5.21888 24.939 5.21888C25.958 5.21888 26.9352 5.62366 27.6557 6.34417C28.3762 7.06469 28.781 8.04192 28.781 9.06088C28.7558 10.0628 28.3401 11.0152 27.6226 11.7149C26.905 12.4147 25.9424 12.8063 24.9402 12.8063C23.938 12.8063 22.9754 12.4147 22.2579 11.7149C21.5403 11.0152 21.1222 10.0628 21.097 9.06088ZM11.1666 8.49745C7.72285 7.58188 4.49043 9.27702 1.62228 11.9072C1.49002 12.0318 1.38871 12.1856 1.32645 12.3563C1.2642 12.527 1.24271 12.7099 1.26371 12.8904C1.28471 13.0709 1.34761 13.244 1.4474 13.3958C1.54718 13.5477 1.68109 13.6741 1.83843 13.765L6.46486 16.553L6.46971 16.5433C7.13757 15.4262 7.88314 14.1317 8.64086 12.8203C9.503 11.3219 10.3797 9.80159 11.1666 8.49745ZM17.4493 27.5375L20.2373 32.1639C20.3284 32.321 20.455 32.4547 20.607 32.5543C20.7589 32.6539 20.9321 32.7165 21.1125 32.7373C21.293 32.758 21.4759 32.7363 21.6465 32.6739C21.8171 32.6114 21.9707 32.51 22.0951 32.3776C24.7253 29.5119 26.4229 26.277 25.5049 22.8333C24.2371 23.5959 22.9063 24.3633 21.5876 25.1235L21.386 25.24C20.0551 26.0075 18.7364 26.7652 17.4614 27.5302L17.4493 27.5375ZM6.36771 22.69C7.34927 22.6726 8.31305 22.9531 9.13203 23.4944C9.95101 24.0357 10.5867 24.8125 10.9554 25.7223C11.3241 26.6322 11.4084 27.6324 11.1972 28.5911C10.9861 29.5499 10.4894 30.4221 9.77257 31.0929C9.23343 31.6077 8.39071 32.0133 7.61114 32.3217C6.73653 32.6582 5.84482 32.9484 4.93971 33.1912C4.04843 33.434 3.19843 33.6283 2.55486 33.757C2.28427 33.8125 2.01216 33.8603 1.73886 33.9003C1.632 33.9149 1.52433 33.9254 1.41586 33.9319C1.25361 33.9465 1.09008 33.9283 0.934998 33.8785C0.707063 33.8121 0.503579 33.6804 0.349712 33.4996C0.217565 33.3465 0.125739 33.1629 0.0825693 32.9653C0.0518487 32.825 0.0420283 32.681 0.0534265 32.5379C0.0607122 32.4407 0.0752836 32.329 0.089855 32.227C0.121426 32.0133 0.169998 31.734 0.235569 31.4159C0.364284 30.7747 0.563426 29.9296 0.806284 29.0432C1.04914 28.1592 1.34543 27.212 1.67814 26.3839C1.989 25.6043 2.39214 24.764 2.907 24.2273C3.35151 23.7524 3.88689 23.3716 4.48137 23.1075C5.07585 22.8434 5.71732 22.7015 6.36771 22.69Z" fill="#A5EB14"/>
</g>
<defs>
<clipPath id="clip0_1443_2537">
<rect width="34" height="34" fill="white"/>
</clipPath>
</defs>
</svg>
