<svg width="30" height="30" viewBox="0 0 30 30" fill="none" xmlns="http://www.w3.org/2000/svg">
<path fill-rule="evenodd" clip-rule="evenodd" d="M15 0C23.2843 0 30 6.71569 30 15C30 23.2842 23.2843 30 15 30C6.71576 30 0 23.2843 0 15C0 6.71569 6.71576 0 15 0ZM16.5033 13.5H13.5033V22.5H16.5033V13.5ZM15.0152 7.12498C13.9216 7.12498 13.1283 7.91388 13.1283 8.97919C13.1283 10.0876 13.9007 10.875 15.0152 10.875C16.0864 10.875 16.8783 10.0875 16.8783 9C16.8783 7.91395 16.0864 7.12498 15.0152 7.12498Z" fill="#A5EB14"/>
</svg>
