<svg width="36" height="36" viewBox="0 0 36 36" fill="none" xmlns="http://www.w3.org/2000/svg">
<path fill-rule="evenodd" clip-rule="evenodd" d="M27 6V10.5H31.5C31.8978 10.5 32.2794 10.658 32.5607 10.9393C32.842 11.2206 33 11.6022 33 12V27C33 28.1935 32.5259 29.3381 31.682 30.182C30.8381 31.0259 29.6935 31.5 28.5 31.5H7.5C6.30653 31.5 5.16193 31.0259 4.31802 30.182C3.47411 29.3381 3 28.1935 3 27V6C3 5.60218 3.15804 5.22064 3.43934 4.93934C3.72064 4.65804 4.10218 4.5 4.5 4.5H25.5C25.8978 4.5 26.2794 4.65804 26.5607 4.93934C26.842 5.22064 27 5.60218 27 6ZM30 27C30 27.3978 29.842 27.7794 29.5607 28.0607C29.2794 28.342 28.8978 28.5 28.5 28.5C28.1022 28.5 27.7206 28.342 27.4393 28.0607C27.158 27.7794 27 27.3978 27 27V13.5H30V27ZM9 12C9 11.6022 9.15804 11.2206 9.43934 10.9393C9.72064 10.658 10.1022 10.5 10.5 10.5H19.5C19.8978 10.5 20.2794 10.658 20.5607 10.9393C20.842 11.2206 21 11.6022 21 12C21 12.3978 20.842 12.7794 20.5607 13.0607C20.2794 13.342 19.8978 13.5 19.5 13.5H10.5C10.1022 13.5 9.72064 13.342 9.43934 13.0607C9.15804 12.7794 9 12.3978 9 12ZM12 18C12 17.6022 12.158 17.2206 12.4393 16.9393C12.7206 16.658 13.1022 16.5 13.5 16.5H19.5C19.8978 16.5 20.2794 16.658 20.5607 16.9393C20.842 17.2206 21 17.6022 21 18C21 18.3978 20.842 18.7794 20.5607 19.0607C20.2794 19.342 19.8978 19.5 19.5 19.5H13.5C13.1022 19.5 12.7206 19.342 12.4393 19.0607C12.158 18.7794 12 18.3978 12 18Z" fill="#A5EB14"/>
</svg>
