<svg width="34" height="34" viewBox="0 0 34 34" fill="none" xmlns="http://www.w3.org/2000/svg">
<path d="M17 5.66663C18.5029 5.66663 19.9442 6.26365 21.0069 7.32635C22.0696 8.38906 22.6666 9.8304 22.6666 11.3333C22.6666 12.8362 22.0696 14.2775 21.0069 15.3402C19.9442 16.4029 18.5029 17 17 17C15.4971 17 14.0557 16.4029 12.993 15.3402C11.9303 14.2775 11.3333 12.8362 11.3333 11.3333C11.3333 9.8304 11.9303 8.38906 12.993 7.32635C14.0557 6.26365 15.4971 5.66663 17 5.66663ZM17 19.8333C23.2616 19.8333 28.3333 22.3691 28.3333 25.5V28.3333H5.66663V25.5C5.66663 22.3691 10.7383 19.8333 17 19.8333Z" fill="#A5EB14"/>
</svg>
