<svg width="34" height="34" viewBox="0 0 34 34" fill="none" xmlns="http://www.w3.org/2000/svg">
<path fill-rule="evenodd" clip-rule="evenodd" d="M23.3977 5.0987C23.1395 4.68615 22.7591 4.36435 22.3095 4.17811C21.8598 3.99188 21.3633 3.95047 20.8891 4.05964L17.5231 4.83285C17.1782 4.91214 16.8197 4.91214 16.4748 4.83285L13.1088 4.05964C12.6345 3.95047 12.138 3.99188 11.6884 4.17811C11.2388 4.36435 10.8584 4.68615 10.6002 5.0987L8.76562 8.0268C8.57842 8.32634 8.32569 8.57909 8.02616 8.76818L5.09826 10.6029C4.68644 10.8609 4.36513 11.2407 4.17895 11.6896C3.99277 12.1384 3.95093 12.6342 4.05926 13.1079L4.83242 16.4778C4.91142 16.8222 4.91142 17.18 4.83242 17.5244L4.05926 20.8924C3.95051 21.3664 3.99213 21.8626 4.17834 22.3118C4.36454 22.7611 4.68608 23.1412 5.09826 23.3993L8.02616 25.234C8.32569 25.4212 8.57842 25.674 8.7675 25.9735L10.6021 28.9016C11.13 29.746 12.1372 30.1635 13.1088 29.9407L16.4748 29.1675C16.8197 29.0882 17.1782 29.0882 17.5231 29.1675L20.891 29.9407C21.3649 30.0494 21.861 30.0078 22.3103 29.8216C22.7595 29.6354 23.1396 29.3138 23.3977 28.9016L25.2323 25.9735C25.4195 25.674 25.6722 25.4212 25.9717 25.234L28.9015 23.3993C29.3137 23.1408 29.6351 22.7603 29.821 22.3107C30.0069 21.861 30.048 21.3647 29.9386 20.8906L29.1673 17.5244C29.0881 17.1794 29.0881 16.8209 29.1673 16.476L29.9405 13.1079C30.0494 12.6341 30.0081 12.1381 29.8222 11.6888C29.6364 11.2396 29.3152 10.8594 28.9034 10.601L25.9736 8.76631C25.6745 8.57875 25.4217 8.32593 25.2341 8.0268L23.3977 5.0987ZM22.456 12.8252C22.5718 12.6123 22.6005 12.3627 22.536 12.1291C22.4716 11.8954 22.319 11.6959 22.1105 11.5724C21.9019 11.449 21.6536 11.4112 21.4177 11.4672C21.1819 11.5231 20.977 11.6683 20.846 11.8723L15.9506 20.1585L12.9946 17.3278C12.9069 17.2377 12.802 17.1663 12.6861 17.1177C12.5702 17.069 12.4457 17.0443 12.32 17.0448C12.1943 17.0454 12.07 17.0712 11.9545 17.1209C11.839 17.1705 11.7347 17.2429 11.6478 17.3337C11.5609 17.4245 11.4932 17.5319 11.4487 17.6494C11.4042 17.767 11.3838 17.8923 11.3887 18.0179C11.3937 18.1435 11.4239 18.2668 11.4776 18.3805C11.5312 18.4941 11.6072 18.5958 11.701 18.6795L15.5088 22.3284C15.6107 22.4258 15.7333 22.499 15.8675 22.5424C16.0016 22.5858 16.1438 22.5984 16.2835 22.5791C16.4232 22.5599 16.5567 22.5093 16.6741 22.4312C16.7915 22.3531 16.8898 22.2495 16.9615 22.1281L22.456 12.8252Z" fill="#A5EB14"/>
</svg>
