<svg width="34" height="34" viewBox="0 0 34 34" fill="none" xmlns="http://www.w3.org/2000/svg">
<path fill-rule="evenodd" clip-rule="evenodd" d="M7.08337 5.66675C5.9562 5.66675 4.8752 6.11451 4.07817 6.91154C3.28114 7.70857 2.83337 8.78958 2.83337 9.91675V11.3334H31.1667V9.91675C31.1667 8.78958 30.7189 7.70857 29.9219 6.91154C29.1249 6.11451 28.0439 5.66675 26.9167 5.66675H7.08337ZM31.1667 14.1667H2.83337V24.0834C2.83337 25.2106 3.28114 26.2916 4.07817 27.0886C4.8752 27.8856 5.9562 28.3334 7.08337 28.3334H26.9167C28.0439 28.3334 29.1249 27.8856 29.9219 27.0886C30.7189 26.2916 31.1667 25.2106 31.1667 24.0834V14.1667ZM11.3334 21.2501C11.3334 20.8744 11.4826 20.514 11.7483 20.2483C12.014 19.9827 12.3743 19.8334 12.75 19.8334H19.0032L18.8318 19.662C18.566 19.3964 18.4166 19.036 18.4164 18.6602C18.4163 18.2844 18.5654 17.9239 18.8311 17.6581C19.0967 17.3923 19.4571 17.2429 19.8329 17.2428C20.2087 17.2426 20.5691 17.3918 20.835 17.6574L23.4246 20.2485C23.6902 20.5142 23.8394 20.8744 23.8394 21.2501C23.8394 21.6257 23.6902 21.986 23.4246 22.2517L20.835 24.8413C20.7043 24.9766 20.548 25.0846 20.3751 25.1588C20.2023 25.2331 20.0164 25.2721 19.8283 25.2738C19.6402 25.2754 19.4536 25.2396 19.2795 25.1683C19.1054 25.0971 18.9472 24.9919 18.8142 24.8589C18.6812 24.7259 18.576 24.5677 18.5048 24.3936C18.4336 24.2195 18.3977 24.0329 18.3994 23.8448C18.401 23.6567 18.4401 23.4708 18.5143 23.298C18.5886 23.1252 18.6965 22.9688 18.8318 22.8382L19.0032 22.6667H12.75C12.3743 22.6667 12.014 22.5175 11.7483 22.2518C11.4826 21.9861 11.3334 21.6258 11.3334 21.2501Z" fill="#A5EB14"/>
</svg>
