<svg width="34" height="34" viewBox="0 0 34 34" fill="none" xmlns="http://www.w3.org/2000/svg">
<path d="M31.1666 14.1666V24.0833C31.1666 25.2105 30.7189 26.2915 29.9219 27.0885C29.1248 27.8855 28.0438 28.3333 26.9166 28.3333H7.08331C5.95614 28.3333 4.87514 27.8855 4.07811 27.0885C3.28108 26.2915 2.83331 25.2105 2.83331 24.0833V14.1666H31.1666ZM25.5 19.8333H21.25C20.8743 19.8333 20.5139 19.9825 20.2482 20.2482C19.9826 20.5139 19.8333 20.8742 19.8333 21.25C19.8333 21.6257 19.9826 21.986 20.2482 22.2517C20.5139 22.5174 20.8743 22.6666 21.25 22.6666H25.5C25.8757 22.6666 26.236 22.5174 26.5017 22.2517C26.7674 21.986 26.9166 21.6257 26.9166 21.25C26.9166 20.8742 26.7674 20.5139 26.5017 20.2482C26.236 19.9825 25.8757 19.8333 25.5 19.8333ZM26.9166 5.66663C28.0438 5.66663 29.1248 6.11439 29.9219 6.91142C30.7189 7.70845 31.1666 8.78946 31.1666 9.91663V11.3333H2.83331V9.91663C2.83331 8.78946 3.28108 7.70845 4.07811 6.91142C4.87514 6.11439 5.95614 5.66663 7.08331 5.66663H26.9166Z" fill="#A5EB14"/>
</svg>
