<svg width="64" height="34" viewBox="0 0 64 34" fill="none" xmlns="http://www.w3.org/2000/svg">
<path fill-rule="evenodd" clip-rule="evenodd" d="M9.17502 19.6272C10.0914 14.1376 12.8863 9.15545 17.0648 5.56308C21.2432 1.97071 26.5355 0 32.0042 0C37.473 0 42.7653 1.97071 46.9437 5.56308C51.1222 9.15545 53.9171 14.1376 54.8335 19.6272H61.7686C62.295 19.6274 62.8044 19.817 63.2069 20.1626C63.6093 20.5082 63.8788 20.9874 63.9678 21.5157C64.0569 22.044 63.9597 22.5874 63.6934 23.0498C63.4271 23.5122 63.0089 23.8639 62.5127 24.0428L61.1584 24.5307C59.8034 25.0171 58.5836 25.8292 57.6027 26.8981C56.6218 27.967 55.9088 29.2612 55.524 30.6707L55.0686 32.3375C54.9229 32.8653 54.5947 33.3216 54.1446 33.6225C53.6944 33.9233 53.1526 34.0484 52.6191 33.9745C52.0855 33.9007 51.5962 33.633 51.2412 33.2208C50.8862 32.8086 50.6895 32.2796 50.6873 31.7314V24.17H13.3212V31.7253C13.3216 32.2755 13.126 32.8071 12.7708 33.2216C12.4155 33.6361 11.9246 33.9053 11.3892 33.9793C10.8538 34.0533 10.3102 33.9271 9.85924 33.6241C9.40828 33.3211 9.08057 32.8618 8.9369 32.3314L8.48448 30.6676C8.10004 29.2585 7.38741 27.9646 6.40705 26.8957C5.42669 25.8268 4.20754 25.0145 2.85307 24.5277L1.49582 24.0428C0.997441 23.8654 0.576924 23.5139 0.30895 23.0508C0.0409771 22.5876 -0.057108 22.0428 0.0321148 21.513C0.121338 20.9831 0.392093 20.5027 0.796297 20.1569C1.2005 19.8111 1.71199 19.6223 2.23993 19.6242L9.17502 19.6272ZM13.7171 19.6272H20.1164V8.86555C16.8463 11.6112 14.5898 15.404 13.7171 19.6272ZM24.581 6.0774V19.6272H29.7719V4.65302C27.9826 4.86727 26.2338 5.34715 24.581 6.0774ZM34.2366 4.65302V19.6272H39.4275V6.0774C37.7747 5.34715 36.0259 4.86727 34.2366 4.65302ZM43.8921 8.86555V19.6272H50.2914C49.4181 15.4051 47.1616 11.6105 43.8921 8.86555Z" fill="#A5EB14"/>
</svg>
