<svg width="34" height="34" viewBox="0 0 34 34" fill="none" xmlns="http://www.w3.org/2000/svg">
<path d="M10.4833 24.4375C9.49164 25.2639 8.45889 25.6417 7.38505 25.5708C6.31122 25.5 5.37244 25.134 4.56872 24.4729C3.765 23.8118 3.21628 22.9443 2.92255 21.8705C2.62883 20.7967 2.82339 19.6926 3.50622 18.5583L6.16247 14.1667C5.57219 13.6472 5.10611 13.0215 4.76422 12.2896C4.42233 11.5576 4.25092 10.7667 4.24997 9.91667C4.24997 8.35833 4.80483 7.02431 5.91456 5.91458C7.02428 4.80486 8.3583 4.25 9.91664 4.25C11.475 4.25 12.809 4.80486 13.9187 5.91458C15.0284 7.02431 15.5833 8.35833 15.5833 9.91667C15.5833 11.475 15.0284 12.809 13.9187 13.9187C12.809 15.0285 11.475 15.5833 9.91664 15.5833C9.70414 15.5833 9.49164 15.5715 9.27914 15.5479C9.06664 15.5243 8.86594 15.4889 8.67705 15.4417L5.94997 20.0458C5.69025 20.4708 5.60761 20.8902 5.70206 21.3038C5.7965 21.7175 5.99719 22.0537 6.30414 22.3125C6.61108 22.5713 6.97705 22.7191 7.40205 22.7559C7.82705 22.7927 8.24025 22.6449 8.64164 22.3125L23.5166 9.52708C24.5083 8.70069 25.5472 8.32858 26.6333 8.41075C27.7194 8.49292 28.6639 8.86503 29.4666 9.52708C30.2694 10.1891 30.8125 11.0571 31.0958 12.1309C31.3791 13.2047 31.1784 14.3083 30.4937 15.4417L27.8375 19.8333C28.4277 20.3528 28.8943 20.9785 29.2371 21.7104C29.58 22.4424 29.7509 23.2333 29.75 24.0833C29.75 25.6417 29.1951 26.9757 28.0854 28.0854C26.9757 29.1951 25.6416 29.75 24.0833 29.75C22.525 29.75 21.1909 29.1951 20.0812 28.0854C18.9715 26.9757 18.4166 25.6417 18.4166 24.0833C18.4166 22.525 18.9715 21.191 20.0812 20.0813C21.1909 18.9715 22.525 18.4167 24.0833 18.4167C24.2958 18.4167 24.5026 18.4285 24.7038 18.4521C24.905 18.4757 25.0995 18.5111 25.2875 18.5583L28.05 13.9542C28.3097 13.5292 28.3923 13.1098 28.2979 12.6962C28.2034 12.2825 28.0027 11.9463 27.6958 11.6875C27.3889 11.4287 27.0229 11.2814 26.5979 11.2455C26.1729 11.2096 25.7597 11.3569 25.3583 11.6875L10.4833 24.4375Z" fill="#A5EB14"/>
</svg>
