<svg width="34" height="34" viewBox="0 0 34 34" fill="none" xmlns="http://www.w3.org/2000/svg">
<path d="M20.2484 3.24852C20.5141 2.98294 20.8744 2.83374 21.25 2.83374C21.6257 2.83374 21.9859 2.98294 22.2516 3.24852L27.9183 8.91519C28.1839 9.18085 28.333 9.54112 28.333 9.91677C28.333 10.2924 28.1839 10.6527 27.9183 10.9184L22.2516 16.585C21.9844 16.8431 21.6266 16.9859 21.2551 16.9826C20.8837 16.9794 20.5284 16.8304 20.2657 16.5678C20.003 16.3051 19.854 15.9498 19.8508 15.5783C19.8476 15.2069 19.9904 14.849 20.2484 14.5819L23.4969 11.3334H7.08335C6.70763 11.3334 6.3473 11.1842 6.08162 10.9185C5.81594 10.6528 5.66669 10.2925 5.66669 9.91677C5.66669 9.54105 5.81594 9.18071 6.08162 8.91504C6.3473 8.64936 6.70763 8.5001 7.08335 8.5001H23.4969L20.2484 5.25169C19.9829 4.98602 19.8337 4.62575 19.8337 4.2501C19.8337 3.87445 19.9829 3.51419 20.2484 3.24852ZM13.7516 17.4152C14.0172 17.6809 14.1664 18.0411 14.1664 18.4168C14.1664 18.7924 14.0172 19.1527 13.7516 19.4184L10.5032 22.6668H26.9167C27.2924 22.6668 27.6527 22.816 27.9184 23.0817C28.1841 23.3474 28.3334 23.7077 28.3334 24.0834C28.3334 24.4592 28.1841 24.8195 27.9184 25.0852C27.6527 25.3508 27.2924 25.5001 26.9167 25.5001H10.5032L13.7516 28.7485C14.0097 29.0157 14.1525 29.3736 14.1492 29.745C14.146 30.1164 13.997 30.4718 13.7343 30.7344C13.4717 30.9971 13.1164 31.1461 12.7449 31.1493C12.3735 31.1525 12.0156 31.0097 11.7484 30.7517L6.08177 25.085C5.81619 24.8194 5.66699 24.4591 5.66699 24.0834C5.66699 23.7078 5.81619 23.3475 6.08177 23.0819L11.7484 17.4152C12.0141 17.1496 12.3744 17.0004 12.75 17.0004C13.1257 17.0004 13.4859 17.1496 13.7516 17.4152Z" fill="#A5EB14"/>
</svg>
