<svg width="34" height="34" viewBox="0 0 34 34" fill="none" xmlns="http://www.w3.org/2000/svg">
<path d="M17 19.8333L14.1667 17L17 14.1667L19.8333 17L17 19.8333ZM13.9896 12.0006L11.5926 9.605L17 4.19617L22.4074 9.60358L20.0104 12.0006L17 8.99017L13.9896 12.0006ZM9.60358 22.4074L4.19617 17L9.60358 11.5926L11.9992 13.9896L8.99017 17L12.0006 20.0104L9.60358 22.4074ZM24.3964 22.4074L21.9994 20.0104L25.0098 17L21.9994 13.9896L24.3964 11.5926L29.8038 17L24.3964 22.4074ZM17 29.8038L11.5926 24.3964L13.9896 21.9994L17 25.0098L20.0104 21.9994L22.4074 24.3964L17 29.8038Z" fill="#A5EB14"/>
</svg>
