<svg width="34" height="34" viewBox="0 0 34 34" fill="none" xmlns="http://www.w3.org/2000/svg">
<path fill-rule="evenodd" clip-rule="evenodd" d="M5.66683 8.49992C6.41828 8.49992 7.13895 8.20141 7.6703 7.67005C8.20165 7.1387 8.50016 6.41803 8.50016 5.66659C8.50016 4.91514 8.20165 4.19447 7.6703 3.66312C7.13895 3.13176 6.41828 2.83325 5.66683 2.83325C4.91538 2.83325 4.19471 3.13176 3.66336 3.66312C3.13201 4.19447 2.8335 4.91514 2.8335 5.66659C2.8335 6.41803 3.13201 7.1387 3.66336 7.67005C4.19471 8.20141 4.91538 8.49992 5.66683 8.49992ZM7.0835 29.7499C8.21067 29.7499 9.29167 29.3022 10.0887 28.5051C10.8857 27.7081 11.3335 26.6271 11.3335 25.4999C11.3335 24.3727 10.8857 23.2917 10.0887 22.4947C9.29167 21.6977 8.21067 21.2499 7.0835 21.2499C5.95633 21.2499 4.87532 21.6977 4.07829 22.4947C3.28126 23.2917 2.8335 24.3727 2.8335 25.4999C2.8335 26.6271 3.28126 27.7081 4.07829 28.5051C4.87532 29.3022 5.95633 29.7499 7.0835 29.7499ZM26.9168 31.1666C28.044 31.1666 29.125 30.7188 29.922 29.9218C30.7191 29.1248 31.1668 28.0438 31.1668 26.9166C31.1668 25.7894 30.7191 24.7084 29.922 23.9114C29.125 23.1144 28.044 22.6666 26.9168 22.6666C25.7897 22.6666 24.7087 23.1144 23.9116 23.9114C23.1146 24.7084 22.6668 25.7894 22.6668 26.9166C22.6668 28.0438 23.1146 29.1248 23.9116 29.9218C24.7087 30.7188 25.7897 31.1666 26.9168 31.1666ZM15.5835 19.8333C17.0864 19.8333 18.5277 19.2362 19.5904 18.1735C20.6531 17.1108 21.2502 15.6695 21.2502 14.1666C21.2502 12.6637 20.6531 11.2224 19.5904 10.1596C18.5277 9.09694 17.0864 8.49992 15.5835 8.49992C14.0806 8.49992 12.6393 9.09694 11.5766 10.1596C10.5139 11.2224 9.91683 12.6637 9.91683 14.1666C9.91683 15.6695 10.5139 17.1108 11.5766 18.1735C12.6393 19.2362 14.0806 19.8333 15.5835 19.8333ZM24.0835 8.49992C24.8349 8.49992 25.5556 8.20141 26.087 7.67005C26.6183 7.1387 26.9168 6.41803 26.9168 5.66659C26.9168 4.91514 26.6183 4.19447 26.087 3.66312C25.5556 3.13176 24.8349 2.83325 24.0835 2.83325C23.3321 2.83325 22.6114 3.13176 22.08 3.66312C21.5487 4.19447 21.2502 4.91514 21.2502 5.66659C21.2502 6.41803 21.5487 7.1387 22.08 7.67005C22.6114 8.20141 23.3321 8.49992 24.0835 8.49992Z" fill="#A5EB14" stroke="#A5EB14" stroke-width="2" stroke-linecap="round" stroke-linejoin="round"/>
<path d="M7.79199 7.7915L10.6253 10.6248M21.2503 8.49984L19.8337 9.9165M24.0837 23.729L19.8337 18.4165M9.91699 21.9582L12.7503 19.1248" stroke="#A5EB14" stroke-width="2" stroke-linecap="round" stroke-linejoin="round"/>
</svg>
