<svg width="30" height="29" viewBox="0 0 30 29" fill="none" xmlns="http://www.w3.org/2000/svg">
<path d="M3 28.5C2.175 28.5 1.469 28.2065 0.882 27.6195C0.295 27.0325 0.001 26.326 0 25.5V9C0 8.175 0.294 7.469 0.882 6.882C1.47 6.295 2.176 6.001 3 6H9V3C9 2.175 9.294 1.469 9.882 0.882C10.47 0.295 11.176 0.001 12 0H18C18.825 0 19.5315 0.294 20.1195 0.882C20.7075 1.47 21.001 2.176 21 3V6H27C27.825 6 28.5315 6.294 29.1195 6.882C29.7075 7.47 30.001 8.176 30 9V25.5C30 26.325 29.7065 27.0315 29.1195 27.6195C28.5325 28.2075 27.826 28.501 27 28.5H3ZM12 6H18V3H12V6Z" fill="#A5EB14"/>
</svg>
