<svg width="19" height="36" viewBox="0 0 19 36" fill="none" xmlns="http://www.w3.org/2000/svg">
<path fill-rule="evenodd" clip-rule="evenodd" d="M4.50002 31.5C4.50002 32.6935 4.97413 33.8381 5.81804 34.682C6.66195 35.5259 7.80655 36 9.00002 36C10.1935 36 11.3381 35.5259 12.182 34.682C13.0259 33.8381 13.5 32.6935 13.5 31.5C13.5 30.3065 13.0259 29.1619 12.182 28.318C11.3381 27.4741 10.1935 27 9.00002 27C7.80655 27 6.66195 27.4741 5.81804 28.318C4.97413 29.1619 4.50002 30.3065 4.50002 31.5ZM0.495022 11.6077C0.811428 11.2917 1.24033 11.1142 1.68752 11.1142C2.13471 11.1142 2.56361 11.2917 2.88002 11.6077L7.31252 16.0402V1.6875C7.31252 1.23995 7.49031 0.810726 7.80678 0.494259C8.12325 0.177792 8.55247 0 9.00002 0C9.44757 0 9.8768 0.177792 10.1933 0.494259C10.5097 0.810726 10.6875 1.23995 10.6875 1.6875V16.0402L15.12 11.6077C15.2745 11.442 15.4608 11.309 15.6678 11.2167C15.8748 11.1245 16.0983 11.0749 16.3248 11.0709C16.5514 11.0669 16.7765 11.1086 16.9866 11.1935C17.1967 11.2783 17.3876 11.4047 17.5479 11.5649C17.7081 11.7252 17.8344 11.916 17.9193 12.1262C18.0042 12.3363 18.0458 12.5613 18.0419 12.7879C18.0379 13.0145 17.9883 13.238 17.896 13.445C17.8038 13.652 17.6708 13.8383 17.505 13.9928L10.1925 21.3053L9.00002 22.5L7.80752 21.3075L0.495022 13.995C0.338207 13.8383 0.21381 13.6522 0.128939 13.4474C0.0440655 13.2426 0.00038147 13.0231 0.00038147 12.8014C0.00038147 12.5797 0.0440655 12.3602 0.128939 12.1553C0.21381 11.9505 0.338207 11.7645 0.495022 11.6077Z" fill="white"/>
</svg>
