<svg width="34" height="34" viewBox="0 0 34 34" fill="none" xmlns="http://www.w3.org/2000/svg">
<g clip-path="url(#clip0_1060_169)">
<path d="M28.2483 23.8283L26.9167 12.0133C26.8483 11.4421 26.5752 10.9149 26.1481 10.5294C25.7209 10.144 25.1686 9.92628 24.5933 9.91667H22.3125C22.2186 9.91667 22.1285 9.87935 22.0621 9.81293C21.9956 9.74651 21.9583 9.65643 21.9583 9.5625V8.14583C22.0042 6.78413 21.5078 5.45986 20.5782 4.46382C19.6486 3.46777 18.3616 2.88135 17 2.83333C15.6384 2.88135 14.3514 3.46777 13.4218 4.46382C12.4922 5.45986 11.9958 6.78413 12.0417 8.14583V9.5625C12.0417 9.65643 12.0044 9.74651 11.9379 9.81293C11.8715 9.87935 11.7814 9.91667 11.6875 9.91667H9.40667C8.83139 9.92628 8.27907 10.144 7.85193 10.5294C7.42479 10.9149 7.15175 11.4421 7.08333 12.0133L5.80833 23.8283C5.73244 24.3448 5.68514 24.865 5.66667 25.3867C5.68159 26.3661 6.08311 27.3 6.7837 27.9846C7.48428 28.6693 8.42711 29.0493 9.40667 29.0417H24.5933C25.5729 29.0493 26.5157 28.6693 27.2163 27.9846C27.9169 27.3 28.3184 26.3661 28.3333 25.3867C28.3337 24.8661 28.3053 24.3458 28.2483 23.8283ZM14.875 24.6783C14.5932 24.6783 14.323 24.5664 14.1237 24.3671C13.9244 24.1679 13.8125 23.8976 13.8125 23.6158C13.8125 23.334 13.9244 23.0638 14.1237 22.8645C14.323 22.6653 14.5932 22.5533 14.875 22.5533H17.7083C17.93 22.5533 18.1426 22.4653 18.2994 22.3085C18.4561 22.1518 18.5442 21.9392 18.5442 21.7175C18.5469 21.5496 18.4981 21.385 18.4044 21.2457C18.3106 21.1064 18.1765 20.9991 18.02 20.9383L15.1442 19.8333C14.5457 19.6007 14.039 19.1799 13.7006 18.6342C13.3621 18.0886 13.2102 17.4477 13.2678 16.8082C13.3253 16.1687 13.5892 15.5652 14.0197 15.0887C14.4501 14.6123 15.0238 14.2887 15.6542 14.1667C15.7341 14.1477 15.8055 14.1025 15.8568 14.0384C15.9082 13.9742 15.9366 13.8947 15.9375 13.8125V13.345C15.9375 13.0632 16.0494 12.793 16.2487 12.5937C16.448 12.3944 16.7182 12.2825 17 12.2825C17.2818 12.2825 17.552 12.3944 17.7513 12.5937C17.9506 12.793 18.0625 13.0632 18.0625 13.345V13.6992C18.0625 13.7931 18.0998 13.8832 18.1662 13.9496C18.2327 14.016 18.3227 14.0533 18.4167 14.0533H19.125C19.4068 14.0533 19.677 14.1653 19.8763 14.3645C20.0756 14.5638 20.1875 14.834 20.1875 15.1158C20.1875 15.3976 20.0756 15.6679 19.8763 15.8671C19.677 16.0664 19.4068 16.1783 19.125 16.1783H16.2917C16.0959 16.1762 15.9056 16.2428 15.7539 16.3666C15.6022 16.4904 15.4988 16.6635 15.4617 16.8557C15.4246 17.048 15.4562 17.2471 15.5509 17.4185C15.6456 17.5898 15.7975 17.7225 15.98 17.7933L18.8983 18.955C19.4968 19.1876 20.0035 19.6084 20.3419 20.1541C20.6804 20.6997 20.8323 21.3406 20.7747 21.9802C20.7172 22.6197 20.4533 23.2231 20.0228 23.6996C19.5924 24.1761 19.0187 24.4997 18.3883 24.6217C18.3084 24.6406 18.237 24.6858 18.1857 24.75C18.1343 24.8141 18.1059 24.8937 18.105 24.9758V25.4008C18.105 25.6826 17.9931 25.9529 17.7938 26.1521C17.5945 26.3514 17.3243 26.4633 17.0425 26.4633C16.7607 26.4633 16.4905 26.3514 16.2912 26.1521C16.0919 25.9529 15.98 25.6826 15.98 25.4008V25.0467C15.98 24.9527 15.9427 24.8627 15.8763 24.7962C15.8098 24.7298 15.7198 24.6925 15.6258 24.6925L14.875 24.6783ZM14.875 8.14583C14.8319 7.53616 15.0308 6.93406 15.4285 6.47C15.8263 6.00595 16.3909 5.71732 17 5.66667C17.6091 5.71732 18.1737 6.00595 18.5715 6.47C18.9692 6.93406 19.1681 7.53616 19.125 8.14583V9.5625C19.125 9.65643 19.0877 9.74651 19.0213 9.81293C18.9548 9.87935 18.8648 9.91667 18.7708 9.91667H15.2292C15.1352 9.91667 15.0452 9.87935 14.9787 9.81293C14.9123 9.74651 14.875 9.65643 14.875 9.5625V8.14583ZM1.41667 5.66667C1.79239 5.66667 2.15272 5.51741 2.4184 5.25173C2.68408 4.98606 2.83333 4.62572 2.83333 4.25V3.1875C2.83333 3.09357 2.87065 3.00349 2.93707 2.93707C3.00349 2.87065 3.09357 2.83333 3.1875 2.83333H4.25C4.62572 2.83333 4.98606 2.68408 5.25173 2.4184C5.51741 2.15272 5.66667 1.79239 5.66667 1.41667C5.66667 1.04094 5.51741 0.680609 5.25173 0.414932C4.98606 0.149256 4.62572 0 4.25 0L2.83333 0C2.08189 0 1.36122 0.298511 0.829864 0.829864C0.298511 1.36122 0 2.08189 0 2.83333L0 4.25C0 4.62572 0.149256 4.98606 0.414932 5.25173C0.680609 5.51741 1.04094 5.66667 1.41667 5.66667ZM4.25 31.1667H3.1875C3.09357 31.1667 3.00349 31.1294 2.93707 31.0629C2.87065 30.9965 2.83333 30.9064 2.83333 30.8125V29.75C2.83333 29.3743 2.68408 29.0139 2.4184 28.7483C2.15272 28.4826 1.79239 28.3333 1.41667 28.3333C1.04094 28.3333 0.680609 28.4826 0.414932 28.7483C0.149256 29.0139 0 29.3743 0 29.75L0 31.1667C0 31.9181 0.298511 32.6388 0.829864 33.1701C1.36122 33.7015 2.08189 34 2.83333 34H4.25C4.62572 34 4.98606 33.8507 5.25173 33.5851C5.51741 33.3194 5.66667 32.9591 5.66667 32.5833C5.66667 32.2076 5.51741 31.8473 5.25173 31.5816C4.98606 31.3159 4.62572 31.1667 4.25 31.1667ZM31.1667 0H29.75C29.3743 0 29.0139 0.149256 28.7483 0.414932C28.4826 0.680609 28.3333 1.04094 28.3333 1.41667C28.3333 1.79239 28.4826 2.15272 28.7483 2.4184C29.0139 2.68408 29.3743 2.83333 29.75 2.83333H30.8125C30.9064 2.83333 30.9965 2.87065 31.0629 2.93707C31.1294 3.00349 31.1667 3.09357 31.1667 3.1875V4.25C31.1667 4.62572 31.3159 4.98606 31.5816 5.25173C31.8473 5.51741 32.2076 5.66667 32.5833 5.66667C32.9591 5.66667 33.3194 5.51741 33.5851 5.25173C33.8507 4.98606 34 4.62572 34 4.25V2.83333C34 2.08189 33.7015 1.36122 33.1701 0.829864C32.6388 0.298511 31.9181 0 31.1667 0ZM32.5833 28.3333C32.2076 28.3333 31.8473 28.4826 31.5816 28.7483C31.3159 29.0139 31.1667 29.3743 31.1667 29.75V30.8125C31.1667 30.9064 31.1294 30.9965 31.0629 31.0629C30.9965 31.1294 30.9064 31.1667 30.8125 31.1667H29.75C29.3743 31.1667 29.0139 31.3159 28.7483 31.5816C28.4826 31.8473 28.3333 32.2076 28.3333 32.5833C28.3333 32.9591 28.4826 33.3194 28.7483 33.5851C29.0139 33.8507 29.3743 34 29.75 34H31.1667C31.9181 34 32.6388 33.7015 33.1701 33.1701C33.7015 32.6388 34 31.9181 34 31.1667V29.75C34 29.3743 33.8507 29.0139 33.5851 28.7483C33.3194 28.4826 32.9591 28.3333 32.5833 28.3333Z" fill="#A5EB14"/>
</g>
<defs>
<clipPath id="clip0_1060_169">
<rect width="34" height="34" fill="white"/>
</clipPath>
</defs>
</svg>
