<svg width="36" height="36" viewBox="0 0 36 36" fill="none" xmlns="http://www.w3.org/2000/svg">
<g clip-path="url(#clip0_443_721)">
<path d="M18 0C15.6462 0 13.8462 1.8 13.8462 4.15385V12.4615C13.8462 14.8154 15.6462 16.6154 18 16.6154H26.3077L31.8462 22.1538V16.6154C34.2 16.6154 36 14.8154 36 12.4615V4.15385C36 1.8 34.2 0 31.8462 0H18ZM23.7988 4.15385H26.1775L28.5148 12.4615H26.4378L25.8743 10.3846H23.7974L23.2795 12.4615H21.4615L23.7988 4.15385ZM24.9231 5.53846C24.7846 6.09231 24.6295 6.768 24.4897 7.18338L24.102 9H25.7455L25.3551 7.182C25.0795 6.768 24.9231 6.09231 24.9231 5.53846ZM4.15385 13.8462C1.8 13.8462 0 15.6462 0 18V26.3077C0 28.6615 1.8 30.4615 4.15385 30.4615V36L9.69231 30.4615H18C20.3538 30.4615 22.1538 28.6615 22.1538 26.3077V18H18C15.3692 18 13.284 16.2 12.5917 13.8462H4.15385ZM10.5148 17.8698C12.8686 17.8698 13.9763 19.8083 13.9763 22.0237C13.9763 23.9622 13.3103 25.1917 12.2026 25.7455C12.7565 26.0225 13.4128 26.1692 14.1051 26.3077L13.5872 27.6923C12.618 27.4154 11.6128 26.9834 10.6435 26.5666C10.5051 26.4282 10.2628 26.4378 10.1243 26.4378C8.46277 26.2994 6.92308 24.9231 6.92308 22.1538C6.92308 19.8 8.29939 17.8698 10.5148 17.8698ZM10.5148 19.3846C9.40708 19.3846 8.86985 20.6308 8.86985 22.1538C8.86985 23.8154 9.40708 24.9231 10.5148 24.9231C11.6225 24.9231 12.2012 23.6769 12.2012 22.1538C12.2012 20.6308 11.6225 19.3846 10.5148 19.3846Z" fill="#A5EB14"/>
</g>
<defs>
<clipPath id="clip0_443_721">
<rect width="36" height="36" fill="white"/>
</clipPath>
</defs>
</svg>
