<svg width="34" height="34" viewBox="0 0 34 34" fill="none" xmlns="http://www.w3.org/2000/svg">
<path d="M29.2251 15.793C28.7943 14.8834 28.114 14.1149 27.2634 13.5769C26.4128 13.0389 25.4269 12.7536 24.4205 12.7543C23.2017 12.7544 22.02 13.1737 21.0737 13.9417C20.1273 14.7097 19.4738 15.7797 19.2227 16.9724C15.2235 16.7025 11.5982 14.7964 10.7801 12.6034C12.0521 12.297 13.1663 11.5318 13.9089 10.4544C14.6515 9.37712 14.9702 8.06358 14.8039 6.76574C14.6376 5.46791 13.998 4.27715 13.0078 3.42186C12.0176 2.56657 10.7465 2.10696 9.43826 2.13119C8.13004 2.15542 6.87681 2.66177 5.91895 3.55314C4.96108 4.4445 4.36602 5.65812 4.24789 6.96123C4.12976 8.26433 4.49689 9.56517 5.27884 10.6143C6.0608 11.6633 7.20254 12.3868 8.48508 12.6459V21.3584C7.19572 21.6231 6.05025 22.3564 5.27001 23.4165C4.48976 24.4766 4.13012 25.7882 4.26058 27.098C4.34433 27.9095 4.61392 28.6908 5.04844 29.3813C5.48296 30.0717 6.07071 30.6528 6.7661 31.0794C7.46149 31.506 8.24582 31.7666 9.05822 31.8411C9.87063 31.9155 10.6893 31.8018 11.4506 31.5087C12.212 31.2157 12.8956 30.7511 13.4483 30.1511C14.0011 29.5512 14.4083 28.8319 14.6381 28.0491C14.868 27.2664 14.9144 26.4412 14.7738 25.6376C14.6332 24.834 14.3093 24.0736 13.8273 23.4154C13.0469 22.3547 11.9004 21.6216 10.6101 21.3584V15.8695C13.0647 17.827 16.0757 18.9576 19.2121 19.0995C19.405 20.0884 19.8762 21.0017 20.5703 21.732C21.2645 22.4623 22.1527 22.9792 23.1306 23.222C23.861 23.406 24.6221 23.4325 25.3635 23.2997C26.1049 23.1669 26.8096 22.8779 27.4307 22.4518C28.0517 22.0257 28.575 21.4722 28.9657 20.8283C29.3565 20.1844 29.6057 19.4647 29.6968 18.717C29.8202 17.7182 29.6573 16.705 29.2272 15.7951L29.2251 15.793Z" fill="#A5EB14"/>
</svg>
