<svg width="34" height="34" viewBox="0 0 34 34" fill="none" xmlns="http://www.w3.org/2000/svg">
<path d="M29.7502 9.91675C30.1259 9.91675 30.4862 10.066 30.7519 10.3317C31.0176 10.5974 31.1668 10.9577 31.1668 11.3334C31.1668 11.7091 31.0176 12.0695 30.7519 12.3351C30.4862 12.6008 30.1259 12.7501 29.7502 12.7501V26.9167C30.1259 26.9167 30.4862 27.066 30.7519 27.3317C31.0176 27.5974 31.1668 27.9577 31.1668 28.3334C31.1668 28.7091 31.0176 29.0695 30.7519 29.3352C30.4862 29.6008 30.1259 29.7501 29.7502 29.7501H4.25016C3.87444 29.7501 3.5141 29.6008 3.24843 29.3352C2.98275 29.0695 2.8335 28.7091 2.8335 28.3334C2.8335 27.9577 2.98275 27.5974 3.24843 27.3317C3.5141 27.066 3.87444 26.9167 4.25016 26.9167V12.7501C3.87444 12.7501 3.5141 12.6008 3.24843 12.3351C2.98275 12.0695 2.8335 11.7091 2.8335 11.3334C2.8335 10.9577 2.98275 10.5974 3.24843 10.3317C3.5141 10.066 3.87444 9.91675 4.25016 9.91675H29.7502ZM9.91683 15.5834C9.54111 15.5834 9.18077 15.7327 8.9151 15.9983C8.64942 16.264 8.50016 16.6244 8.50016 17.0001V26.9167H11.3335V17.0001C11.3335 16.6244 11.1842 16.264 10.9186 15.9983C10.6529 15.7327 10.2926 15.5834 9.91683 15.5834ZM17.0002 15.5834C16.6244 15.5834 16.2641 15.7327 15.9984 15.9983C15.7328 16.264 15.5835 16.6244 15.5835 17.0001V26.9167H18.4168V17.0001C18.4168 16.6244 18.2676 16.264 18.0019 15.9983C17.7362 15.7327 17.3759 15.5834 17.0002 15.5834ZM24.0835 15.5834C23.7078 15.5834 23.3474 15.7327 23.0818 15.9983C22.8161 16.264 22.6668 16.6244 22.6668 17.0001V26.9167H25.5002V17.0001C25.5002 16.6244 25.3509 16.264 25.0852 15.9983C24.8196 15.7327 24.4592 15.5834 24.0835 15.5834ZM25.5002 5.66675C25.8759 5.66675 26.2362 5.816 26.5019 6.08168C26.7676 6.34736 26.9168 6.70769 26.9168 7.08341C26.9168 7.45914 26.7676 7.81947 26.5019 8.08515C26.2362 8.35083 25.8759 8.50008 25.5002 8.50008H8.50016C8.12444 8.50008 7.76411 8.35083 7.49843 8.08515C7.23275 7.81947 7.0835 7.45914 7.0835 7.08341C7.0835 6.70769 7.23275 6.34736 7.49843 6.08168C7.76411 5.816 8.12444 5.66675 8.50016 5.66675H25.5002Z" fill="#A5EB14"/>
</svg>
