<svg width="720" height="768" viewBox="0 0 720 768" fill="none" xmlns="http://www.w3.org/2000/svg">
<g opacity="0.8" clip-path="url(#clip0_1374_341)">
<mask id="mask0_1374_341" style="mask-type:alpha" maskUnits="userSpaceOnUse" x="1" y="0" width="768" height="768">
<rect width="768" height="768" transform="translate(1)" fill="url(#paint0_radial_1374_341)"/>
</mask>
<g mask="url(#mask0_1374_341)">
<g clip-path="url(#clip1_1374_341)">
<g opacity="0.5">
<g clip-path="url(#clip2_1374_341)">
<line x1="24.3" x2="24.3" y2="768" stroke="#0BCACA" stroke-opacity="0.4" stroke-width="0.6"/>
<line x1="72.3" x2="72.3" y2="768" stroke="#0BCACA" stroke-opacity="0.4" stroke-width="0.6"/>
<line x1="120.3" x2="120.3" y2="768" stroke="#0BCACA" stroke-opacity="0.4" stroke-width="0.6"/>
<line x1="168.3" x2="168.3" y2="768" stroke="#0BCACA" stroke-opacity="0.4" stroke-width="0.6"/>
<line x1="216.3" x2="216.3" y2="768" stroke="#0BCACA" stroke-opacity="0.4" stroke-width="0.6"/>
<line x1="264.3" x2="264.3" y2="768" stroke="#0BCACA" stroke-opacity="0.4" stroke-width="0.6"/>
<line x1="312.3" x2="312.3" y2="768" stroke="#0BCACA" stroke-opacity="0.4" stroke-width="0.6"/>
<line x1="360.3" x2="360.3" y2="768" stroke="#0BCACA" stroke-opacity="0.4" stroke-width="0.6"/>
<line x1="408.3" x2="408.3" y2="768" stroke="#0BCACA" stroke-opacity="0.4" stroke-width="0.6"/>
<line x1="456.3" x2="456.3" y2="768" stroke="#0BCACA" stroke-opacity="0.4" stroke-width="0.6"/>
<line x1="504.3" x2="504.3" y2="768" stroke="#0BCACA" stroke-opacity="0.4" stroke-width="0.6"/>
<line x1="552.3" x2="552.3" y2="768" stroke="#0BCACA" stroke-opacity="0.4" stroke-width="0.6"/>
<line x1="600.3" x2="600.3" y2="768" stroke="#0BCACA" stroke-opacity="0.4" stroke-width="0.6"/>
<line x1="648.3" x2="648.3" y2="768" stroke="#0BCACA" stroke-opacity="0.4" stroke-width="0.6"/>
<line x1="696.3" x2="696.3" y2="768" stroke="#0BCACA" stroke-opacity="0.4" stroke-width="0.6"/>
</g>
<rect x="-23.5" y="0.5" width="767" height="767" stroke="#1F242F"/>
</g>
<g opacity="0.5">
<g clip-path="url(#clip3_1374_341)">
<line x1="-24" y1="47.7" x2="744" y2="47.7" stroke="#0BCACA" stroke-opacity="0.4" stroke-width="0.6"/>
<line x1="-24" y1="95.7" x2="744" y2="95.7" stroke="#0BCACA" stroke-opacity="0.4" stroke-width="0.6"/>
<line x1="-24" y1="143.7" x2="744" y2="143.7" stroke="#0BCACA" stroke-opacity="0.4" stroke-width="0.6"/>
<g filter="url(#filter0_d_1374_341)">
<rect x="-24" y="192" width="59" height="59" rx="15" fill="white" shape-rendering="crispEdges"/>
<rect x="-23.5" y="192.5" width="58" height="58" rx="14.5" stroke="url(#paint1_linear_1374_341)" stroke-opacity="0.5" shape-rendering="crispEdges"/>
<path fill-rule="evenodd" clip-rule="evenodd" d="M-4.5 214C-3.83696 214 -3.20107 213.737 -2.73223 213.268C-2.26339 212.799 -2 212.163 -2 211.5C-2 210.837 -2.26339 210.201 -2.73223 209.732C-3.20107 209.263 -3.83696 209 -4.5 209C-5.16304 209 -5.79893 209.263 -6.26777 209.732C-6.73661 210.201 -7 210.837 -7 211.5C-7 212.163 -6.73661 212.799 -6.26777 213.268C-5.79893 213.737 -5.16304 214 -4.5 214ZM-3.25 232.75C-2.25544 232.75 -1.30161 232.355 -0.59835 231.652C0.104912 230.948 0.5 229.995 0.5 229C0.5 228.005 0.104912 227.052 -0.59835 226.348C-1.30161 225.645 -2.25544 225.25 -3.25 225.25C-4.24456 225.25 -5.19839 225.645 -5.90165 226.348C-6.60491 227.052 -7 228.005 -7 229C-7 229.995 -6.60491 230.948 -5.90165 231.652C-5.19839 232.355 -4.24456 232.75 -3.25 232.75ZM14.25 234C15.2446 234 16.1984 233.605 16.9017 232.902C17.6049 232.198 18 231.245 18 230.25C18 229.255 17.6049 228.302 16.9017 227.598C16.1984 226.895 15.2446 226.5 14.25 226.5C13.2554 226.5 12.3016 226.895 11.5983 227.598C10.8951 228.302 10.5 229.255 10.5 230.25C10.5 231.245 10.8951 232.198 11.5983 232.902C12.3016 233.605 13.2554 234 14.25 234ZM4.25 224C5.57608 224 6.84785 223.473 7.78553 222.536C8.72322 221.598 9.25 220.326 9.25 219C9.25 217.674 8.72322 216.402 7.78553 215.464C6.84785 214.527 5.57608 214 4.25 214C2.92392 214 1.65215 214.527 0.714466 215.464C-0.223216 216.402 -0.75 217.674 -0.75 219C-0.75 220.326 -0.223216 221.598 0.714466 222.536C1.65215 223.473 2.92392 224 4.25 224ZM11.75 214C12.413 214 13.0489 213.737 13.5178 213.268C13.9866 212.799 14.25 212.163 14.25 211.5C14.25 210.837 13.9866 210.201 13.5178 209.732C13.0489 209.263 12.413 209 11.75 209C11.087 209 10.4511 209.263 9.98223 209.732C9.51339 210.201 9.25 210.837 9.25 211.5C9.25 212.163 9.51339 212.799 9.98223 213.268C10.4511 213.737 11.087 214 11.75 214Z" fill="white" stroke="white" stroke-width="2" stroke-linecap="round" stroke-linejoin="round"/>
<path d="M-2.625 213.375L-0.125 215.875M9.25 214L8 215.25M11.75 227.438L8 222.75M-0.75 225.875L1.75 223.375" stroke="white" stroke-width="2" stroke-linecap="round" stroke-linejoin="round"/>
</g>
<line x1="-24" y1="298.7" x2="744" y2="298.7" stroke="#0BCACA" stroke-opacity="0.4" stroke-width="0.6"/>
<line x1="-24" y1="346.7" x2="744" y2="346.7" stroke="#0BCACA" stroke-opacity="0.4" stroke-width="0.6"/>
<line x1="-24" y1="394.7" x2="744" y2="394.7" stroke="#0BCACA" stroke-opacity="0.4" stroke-width="0.6"/>
<line x1="-24" y1="442.7" x2="744" y2="442.7" stroke="#0BCACA" stroke-opacity="0.4" stroke-width="0.6"/>
<line x1="-24" y1="490.7" x2="744" y2="490.7" stroke="#0BCACA" stroke-opacity="0.4" stroke-width="0.6"/>
<line x1="-24" y1="538.7" x2="744" y2="538.7" stroke="#0BCACA" stroke-opacity="0.4" stroke-width="0.6"/>
<line x1="-24" y1="586.7" x2="744" y2="586.7" stroke="#0BCACA" stroke-opacity="0.4" stroke-width="0.6"/>
<line x1="-24" y1="634.7" x2="744" y2="634.7" stroke="#0BCACA" stroke-opacity="0.4" stroke-width="0.6"/>
<line x1="-24" y1="682.7" x2="744" y2="682.7" stroke="#0BCACA" stroke-opacity="0.4" stroke-width="0.6"/>
<line x1="-24" y1="730.7" x2="744" y2="730.7" stroke="#0BCACA" stroke-opacity="0.4" stroke-width="0.6"/>
</g>
<rect x="-23.5" y="0.5" width="767" height="874" stroke="#1F242F"/>
</g>
</g>
<path d="M360 276L360 300" stroke="url(#paint2_linear_1374_341)"/>
<path d="M372 288L348 288" stroke="url(#paint3_linear_1374_341)"/>
<path d="M216 376L216 392" stroke="url(#paint4_linear_1374_341)"/>
<path d="M228 384L204 384" stroke="url(#paint5_linear_1374_341)"/>
<path d="M601 518L601 536" stroke="url(#paint6_linear_1374_341)"/>
<path d="M610 527L592 527" stroke="url(#paint7_linear_1374_341)"/>
<path d="M552 376L552 392" stroke="url(#paint8_linear_1374_341)"/>
<path d="M560 384L544 384" stroke="url(#paint9_linear_1374_341)"/>
<path d="M169 471L169 489" stroke="url(#paint10_linear_1374_341)"/>
<path d="M178 480L160 480" stroke="url(#paint11_linear_1374_341)"/>
<path d="M553 228L553 252" stroke="url(#paint12_linear_1374_341)"/>
<path d="M565 240L541 240" stroke="url(#paint13_linear_1374_341)"/>
<path d="M456 323L456 347" stroke="url(#paint14_linear_1374_341)"/>
<path d="M468 335L444 335" stroke="url(#paint15_linear_1374_341)"/>
<circle cx="264" cy="336" r="2" fill="#0BCACA" fill-opacity="0.4"/>
<circle cx="456" cy="240" r="2" fill="#0BCACA" fill-opacity="0.4"/>
<circle cx="505" cy="432" r="2" fill="#0BCACA" fill-opacity="0.4"/>
<circle cx="120" cy="384" r="2" fill="#0BCACA" fill-opacity="0.4"/>
<rect x="504" y="288" width="49" height="48" fill="#0BCACA" fill-opacity="0.15"/>
<rect x="72" y="432" width="49" height="48" fill="#0BCACA" fill-opacity="0.15"/>
<rect x="601" y="432" width="49" height="48" fill="#0BCACA" fill-opacity="0.15"/>
</g>
</g>
<defs>
<filter id="filter0_d_1374_341" x="-34" y="186" width="79" height="79" filterUnits="userSpaceOnUse" color-interpolation-filters="sRGB">
<feFlood flood-opacity="0" result="BackgroundImageFix"/>
<feColorMatrix in="SourceAlpha" type="matrix" values="0 0 0 0 0 0 0 0 0 0 0 0 0 0 0 0 0 0 127 0" result="hardAlpha"/>
<feOffset dy="4"/>
<feGaussianBlur stdDeviation="5"/>
<feComposite in2="hardAlpha" operator="out"/>
<feColorMatrix type="matrix" values="0 0 0 0 0 0 0 0 0 0 0 0 0 0 0 0 0 0 0.05 0"/>
<feBlend mode="normal" in2="BackgroundImageFix" result="effect1_dropShadow_1374_341"/>
<feBlend mode="normal" in="SourceGraphic" in2="effect1_dropShadow_1374_341" result="shape"/>
</filter>
<radialGradient id="paint0_radial_1374_341" cx="0" cy="0" r="1" gradientUnits="userSpaceOnUse" gradientTransform="translate(384 384) rotate(90) scale(384 384)">
<stop/>
<stop offset="1" stop-opacity="0"/>
</radialGradient>
<linearGradient id="paint1_linear_1374_341" x1="5.5" y1="192" x2="5.5" y2="251" gradientUnits="userSpaceOnUse">
<stop stop-color="white"/>
<stop offset="1" stop-color="white" stop-opacity="0"/>
</linearGradient>
<linearGradient id="paint2_linear_1374_341" x1="360" y1="300" x2="360" y2="276" gradientUnits="userSpaceOnUse">
<stop stop-color="white" stop-opacity="0"/>
<stop offset="0.50284" stop-color="white"/>
<stop offset="1" stop-color="white" stop-opacity="0"/>
</linearGradient>
<linearGradient id="paint3_linear_1374_341" x1="348" y1="288" x2="372" y2="288" gradientUnits="userSpaceOnUse">
<stop stop-color="white" stop-opacity="0"/>
<stop offset="0.50284" stop-color="white"/>
<stop offset="1" stop-color="white" stop-opacity="0"/>
</linearGradient>
<linearGradient id="paint4_linear_1374_341" x1="216" y1="392" x2="216" y2="376" gradientUnits="userSpaceOnUse">
<stop stop-color="white" stop-opacity="0"/>
<stop offset="0.50284" stop-color="white"/>
<stop offset="1" stop-color="white" stop-opacity="0"/>
</linearGradient>
<linearGradient id="paint5_linear_1374_341" x1="204" y1="384" x2="228" y2="384" gradientUnits="userSpaceOnUse">
<stop stop-color="white" stop-opacity="0"/>
<stop offset="0.50284" stop-color="white"/>
<stop offset="1" stop-color="white" stop-opacity="0"/>
</linearGradient>
<linearGradient id="paint6_linear_1374_341" x1="601" y1="536" x2="601" y2="518" gradientUnits="userSpaceOnUse">
<stop stop-color="white" stop-opacity="0"/>
<stop offset="0.50284" stop-color="white"/>
<stop offset="1" stop-color="white" stop-opacity="0"/>
</linearGradient>
<linearGradient id="paint7_linear_1374_341" x1="592" y1="527" x2="610" y2="527" gradientUnits="userSpaceOnUse">
<stop stop-color="white" stop-opacity="0"/>
<stop offset="0.50284" stop-color="white"/>
<stop offset="1" stop-color="white" stop-opacity="0"/>
</linearGradient>
<linearGradient id="paint8_linear_1374_341" x1="552" y1="392" x2="552" y2="376" gradientUnits="userSpaceOnUse">
<stop stop-color="white" stop-opacity="0"/>
<stop offset="0.50284" stop-color="white"/>
<stop offset="1" stop-color="white" stop-opacity="0"/>
</linearGradient>
<linearGradient id="paint9_linear_1374_341" x1="544" y1="384" x2="560" y2="384" gradientUnits="userSpaceOnUse">
<stop stop-color="white" stop-opacity="0"/>
<stop offset="0.50284" stop-color="white"/>
<stop offset="1" stop-color="white" stop-opacity="0"/>
</linearGradient>
<linearGradient id="paint10_linear_1374_341" x1="169" y1="489" x2="169" y2="471" gradientUnits="userSpaceOnUse">
<stop stop-color="white" stop-opacity="0"/>
<stop offset="0.50284" stop-color="white"/>
<stop offset="1" stop-color="white" stop-opacity="0"/>
</linearGradient>
<linearGradient id="paint11_linear_1374_341" x1="160" y1="480" x2="178" y2="480" gradientUnits="userSpaceOnUse">
<stop stop-color="white" stop-opacity="0"/>
<stop offset="0.50284" stop-color="white"/>
<stop offset="1" stop-color="white" stop-opacity="0"/>
</linearGradient>
<linearGradient id="paint12_linear_1374_341" x1="553" y1="252" x2="553" y2="228" gradientUnits="userSpaceOnUse">
<stop stop-color="white" stop-opacity="0"/>
<stop offset="0.50284" stop-color="white"/>
<stop offset="1" stop-color="white" stop-opacity="0"/>
</linearGradient>
<linearGradient id="paint13_linear_1374_341" x1="541" y1="240" x2="565" y2="240" gradientUnits="userSpaceOnUse">
<stop stop-color="white" stop-opacity="0"/>
<stop offset="0.50284" stop-color="white"/>
<stop offset="1" stop-color="white" stop-opacity="0"/>
</linearGradient>
<linearGradient id="paint14_linear_1374_341" x1="456" y1="347" x2="456" y2="323" gradientUnits="userSpaceOnUse">
<stop stop-color="white" stop-opacity="0"/>
<stop offset="0.50284" stop-color="white"/>
<stop offset="1" stop-color="white" stop-opacity="0"/>
</linearGradient>
<linearGradient id="paint15_linear_1374_341" x1="444" y1="335" x2="468" y2="335" gradientUnits="userSpaceOnUse">
<stop stop-color="white" stop-opacity="0"/>
<stop offset="0.50284" stop-color="white"/>
<stop offset="1" stop-color="white" stop-opacity="0"/>
</linearGradient>
<clipPath id="clip0_1374_341">
<rect width="720" height="768" fill="white"/>
</clipPath>
<clipPath id="clip1_1374_341">
<rect width="768" height="768" fill="white" transform="translate(-24)"/>
</clipPath>
<clipPath id="clip2_1374_341">
<rect x="-24" width="768" height="768" fill="white"/>
</clipPath>
<clipPath id="clip3_1374_341">
<rect x="-24" width="768" height="875" fill="white"/>
</clipPath>
</defs>
</svg>
