<svg width="34" height="34" viewBox="0 0 34 34" fill="none" xmlns="http://www.w3.org/2000/svg">
<g clip-path="url(#clip0_1060_175)">
<path d="M16.5891 22.525C16.9648 22.525 17.3251 22.3757 17.5908 22.1101C17.8565 21.8444 18.0058 21.4841 18.0058 21.1083C18.0058 20.7326 17.8565 20.3723 17.5908 20.1066C17.3251 19.8409 16.9648 19.6917 16.5891 19.6917H11.8291C11.7559 19.6936 11.684 19.6729 11.6231 19.6323C11.5622 19.5917 11.5154 19.5333 11.4891 19.465C11.0646 18.3046 10.7608 17.1035 10.5824 15.8808C10.5637 15.8359 10.5541 15.7878 10.5541 15.7392C10.5541 15.6905 10.5637 15.6424 10.5824 15.5975C10.6153 15.558 10.6565 15.5261 10.703 15.5041C10.7494 15.4821 10.8002 15.4704 10.8516 15.47H17.2266C17.6023 15.47 17.9626 15.3207 18.2283 15.0551C18.494 14.7894 18.6433 14.4291 18.6433 14.0533C18.6433 13.6776 18.494 13.3173 18.2283 13.0516C17.9626 12.7859 17.6023 12.6367 17.2266 12.6367H10.7949C10.7467 12.6378 10.6988 12.6283 10.6547 12.6087C10.6106 12.5891 10.5714 12.5599 10.5399 12.5233C10.504 12.489 10.4763 12.4469 10.4591 12.4002C10.4419 12.3536 10.4357 12.3036 10.4408 12.2542C10.5373 11.0197 10.7847 9.80176 11.1774 8.6275C11.2106 8.58104 11.2559 8.54459 11.3083 8.5221C11.3608 8.49962 11.4184 8.49197 11.4749 8.5H17.4674C17.5423 8.49906 17.6155 8.52186 17.6766 8.56513C17.7377 8.6084 17.7835 8.66991 17.8074 8.74083C18.1125 9.66291 18.3306 10.6115 18.4591 11.5742C18.5072 11.9146 18.6774 12.2258 18.9381 12.45C19.1987 12.6742 19.532 12.7959 19.8758 12.7925H20.0599C20.2543 12.7659 20.441 12.6992 20.6082 12.5967C20.7755 12.4941 20.9196 12.358 21.0315 12.1968C21.1433 12.0357 21.2205 11.853 21.2581 11.6605C21.2957 11.468 21.2929 11.2697 21.2499 11.0783C21.1482 10.3382 21.0015 9.60486 20.8108 8.8825C20.8069 8.83483 20.8127 8.78688 20.8279 8.74153C20.8431 8.69618 20.8673 8.65437 20.8991 8.61863C20.9308 8.58289 20.9695 8.55395 21.0128 8.53356C21.056 8.51317 21.103 8.50176 21.1508 8.5H23.9841C24.0478 8.49983 24.1104 8.51684 24.1652 8.54925C24.2201 8.58167 24.2652 8.62827 24.2958 8.68417C24.7202 9.41007 25.0533 10.1857 25.2874 10.9933C25.3898 11.3534 25.6305 11.6584 25.957 11.8416C26.2835 12.0247 26.6693 12.0712 27.0299 11.9708C27.3874 11.8655 27.689 11.6235 27.8693 11.2974C28.0496 10.9712 28.0942 10.5871 27.9933 10.2283C27.1606 7.30115 25.402 4.72249 22.9809 2.87857C20.5598 1.03465 17.6065 0.0247078 14.5633 0C4.64659 0 0.39659 7.08333 0.39659 14.1667C0.335035 16.0243 0.656511 17.8748 1.34101 19.6028C2.0255 21.3308 3.05836 22.8995 4.3753 24.2111C5.69223 25.5227 7.26505 26.5492 8.99585 27.2267C10.7266 27.9042 12.5784 28.2182 14.4358 28.1492C14.8115 28.1492 15.1718 27.9999 15.4375 27.7342C15.7032 27.4686 15.8524 27.1082 15.8524 26.7325C15.8455 26.429 15.7412 26.1358 15.555 25.8961C15.3688 25.6563 15.1106 25.4827 14.8183 25.4008C14.7805 25.3932 14.7447 25.378 14.713 25.3561C14.6814 25.3341 14.6545 25.306 14.6341 25.2733C14.1234 24.5523 13.6505 23.8052 13.2174 23.035C13.19 22.98 13.1757 22.9194 13.1757 22.8579C13.1757 22.7965 13.19 22.7358 13.2174 22.6808C13.2508 22.6285 13.2969 22.5855 13.3514 22.5558C13.4059 22.5261 13.467 22.5106 13.5291 22.5108L16.5891 22.525ZM8.49992 19.2525C8.52369 19.301 8.53605 19.3543 8.53605 19.4083C8.53605 19.4624 8.52369 19.5157 8.49992 19.5642C8.46621 19.6074 8.42328 19.6425 8.37426 19.667C8.32525 19.6915 8.27138 19.7048 8.21659 19.7058H5.01492C4.95295 19.7066 4.89205 19.6897 4.83936 19.6571C4.78666 19.6244 4.74436 19.5775 4.71742 19.5217C4.08409 18.3938 3.64358 17.168 3.41409 15.895C3.407 15.8444 3.41092 15.7929 3.42559 15.744C3.44026 15.6951 3.46534 15.65 3.49909 15.6117C3.52975 15.5696 3.57044 15.536 3.61746 15.5137C3.66447 15.4914 3.71631 15.4813 3.76826 15.4842H7.39492C7.4804 15.4839 7.56284 15.5158 7.62585 15.5735C7.68886 15.6313 7.7278 15.7107 7.73492 15.7958C7.88927 16.968 8.14524 18.1246 8.49992 19.2525ZM7.64992 12.3392C7.64279 12.4281 7.60234 12.5111 7.53668 12.5715C7.47102 12.6319 7.38498 12.6653 7.29576 12.665H3.66909C3.56791 12.6643 3.47112 12.6236 3.39992 12.5517C3.36617 12.5134 3.3411 12.4682 3.32643 12.4193C3.31175 12.3704 3.30783 12.3189 3.31492 12.2683C3.48931 10.9949 3.88738 9.76236 4.49076 8.6275C4.52804 8.58205 4.57606 8.5466 4.63047 8.52434C4.68488 8.50208 4.74397 8.49372 4.80242 8.5H7.83409C7.88687 8.50109 7.93868 8.51446 7.9854 8.53905C8.03212 8.56364 8.07247 8.59878 8.10326 8.64167C8.12687 8.68769 8.13919 8.73868 8.13919 8.79042C8.13919 8.84215 8.12687 8.89314 8.10326 8.93917C7.83771 10.0547 7.68114 11.1934 7.63576 12.3392H7.64992ZM7.86242 5.66667C7.79 5.66467 7.71993 5.64051 7.66166 5.59745C7.6034 5.55438 7.55975 5.49448 7.53659 5.42583C7.51083 5.35494 7.50938 5.27749 7.53246 5.20568C7.55554 5.13387 7.60185 5.07177 7.66409 5.02917C8.2635 4.59453 8.90406 4.21969 9.57659 3.91C9.64558 3.88068 9.72188 3.8731 9.79529 3.88829C9.8687 3.90348 9.93573 3.94071 9.98742 3.995C10.0282 4.05573 10.05 4.12725 10.05 4.20042C10.05 4.27359 10.0282 4.3451 9.98742 4.40583C9.78909 4.76472 9.60492 5.11889 9.43492 5.46833C9.40976 5.52372 9.37019 5.57133 9.32036 5.60622C9.27052 5.6411 9.21224 5.66198 9.15159 5.66667H7.86242ZM13.1891 5.66667C13.1266 5.66579 13.0655 5.64841 13.012 5.6163C12.9584 5.5842 12.9143 5.5385 12.8841 5.48384C12.8539 5.42918 12.8387 5.36751 12.84 5.30508C12.8413 5.24265 12.8591 5.18167 12.8916 5.12833C13.2806 4.48124 13.7063 3.85689 14.1666 3.25833C14.201 3.21694 14.2444 3.18395 14.2935 3.16186C14.3426 3.13976 14.3961 3.12915 14.4499 3.13083C14.5014 3.13127 14.5521 3.1429 14.5986 3.16491C14.645 3.18693 14.6862 3.21881 14.7191 3.25833C15.203 3.83727 15.6479 4.44779 16.0508 5.08583C16.0849 5.13858 16.1031 5.20008 16.1031 5.26292C16.1031 5.32575 16.0849 5.38725 16.0508 5.44C16.0202 5.49589 15.9751 5.5425 15.9202 5.57491C15.8654 5.60733 15.8028 5.62434 15.7391 5.62417L13.1891 5.66667ZM19.0258 4.5475C18.9818 4.48534 18.9583 4.4111 18.9583 4.335C18.9583 4.2589 18.9818 4.18466 19.0258 4.1225C19.0849 4.07769 19.157 4.05343 19.2312 4.05343C19.3053 4.05343 19.3775 4.07769 19.4366 4.1225C19.9963 4.40354 20.5317 4.73049 21.0374 5.1C21.0969 5.1446 21.1408 5.20678 21.163 5.27773C21.1851 5.34868 21.1844 5.42481 21.1609 5.49533C21.1374 5.56585 21.0923 5.62718 21.032 5.67065C20.9717 5.71411 20.8993 5.7375 20.8249 5.7375H19.8333C19.7677 5.738 19.7034 5.71954 19.6481 5.68435C19.5928 5.64917 19.5489 5.59875 19.5216 5.53917C19.3658 5.11417 19.1958 4.81667 19.0258 4.505V4.5475ZM10.4408 23.885C10.4856 23.9441 10.5098 24.0162 10.5098 24.0904C10.5098 24.1646 10.4856 24.2367 10.4408 24.2958C10.394 24.3528 10.3293 24.3922 10.2573 24.4076C10.1852 24.423 10.1101 24.4136 10.0441 24.3808C9.30535 24.0562 8.60655 23.6474 7.96159 23.1625C7.89935 23.1199 7.85304 23.0578 7.82996 22.986C7.80688 22.9142 7.80833 22.8367 7.83409 22.7658C7.85804 22.6949 7.90384 22.6334 7.96493 22.5901C8.02601 22.5469 8.09924 22.5241 8.17409 22.525H9.59076C9.6563 22.5245 9.72058 22.543 9.77588 22.5781C9.83117 22.6133 9.87512 22.6638 9.90242 22.7233C10.0299 23.1058 10.2283 23.5025 10.4408 23.885Z" fill="#A5EB14"/>
<path d="M29.0275 25.9817C28.9778 25.9479 28.9371 25.9025 28.909 25.8494C28.8809 25.7963 28.8663 25.7371 28.8663 25.6771C28.8663 25.617 28.8809 25.5579 28.909 25.5048C28.9371 25.4517 28.9778 25.4063 29.0275 25.3725C30.1123 24.6081 30.9256 23.5182 31.3495 22.2606C31.7733 21.003 31.7856 19.6431 31.3847 18.378C30.9838 17.1129 30.1905 16.0083 29.1197 15.2244C28.0489 14.4404 26.7562 14.0178 25.4291 14.0178C24.102 14.0178 22.8094 14.4404 21.7386 15.2244C20.6678 16.0083 19.8744 17.1129 19.4735 18.378C19.0726 19.6431 19.085 21.003 19.5088 22.2606C19.9326 23.5182 20.7459 24.6081 21.8308 25.3725C21.8837 25.4039 21.9274 25.4484 21.9578 25.5018C21.9882 25.5552 22.0042 25.6156 22.0042 25.6771C22.0042 25.7385 21.9882 25.7989 21.9578 25.8523C21.9274 25.9057 21.8837 25.9503 21.8308 25.9817C20.4929 26.6632 19.3693 27.7014 18.5843 28.9814C17.7993 30.2614 17.3834 31.7334 17.3825 33.235C17.3806 33.3273 17.3971 33.4191 17.4312 33.505C17.4652 33.5909 17.5161 33.6691 17.5807 33.735C17.6454 33.801 17.7225 33.8534 17.8077 33.8892C17.8928 33.9249 17.9843 33.9433 18.0766 33.9433H32.895C33.0828 33.9433 33.263 33.8687 33.3958 33.7359C33.5287 33.603 33.6033 33.4229 33.6033 33.235C33.5889 31.7204 33.1532 30.2398 32.3451 28.9587C31.537 27.6777 30.3882 26.6469 29.0275 25.9817ZM24.6925 30.9683V28.8575C24.6925 28.5795 24.8029 28.3128 24.9995 28.1162C25.1961 27.9196 25.4628 27.8092 25.7408 27.8092C26.0202 27.8091 26.2883 27.9191 26.4871 28.1153C26.686 28.3115 26.7996 28.5782 26.8033 28.8575V30.9683C26.7996 31.249 26.6865 31.5171 26.488 31.7156C26.2896 31.914 26.0215 32.0272 25.7408 32.0308C25.4615 32.0271 25.1948 31.9135 24.9986 31.7147C24.8024 31.5158 24.6924 31.2477 24.6925 30.9683ZM22.1 19.2242C22.12 19.1744 22.1506 19.1296 22.1898 19.0928C22.229 19.0561 22.2757 19.0284 22.3266 19.0117C22.3735 18.991 22.4242 18.9803 22.4754 18.9803C22.5266 18.9803 22.5773 18.991 22.6241 19.0117C23.9184 19.8405 25.4222 20.2829 26.9591 20.2867C27.5017 20.2817 28.0425 20.2247 28.5741 20.1167C28.5964 20.1065 28.6205 20.1012 28.645 20.1012C28.6694 20.1012 28.6936 20.1065 28.7158 20.1167C28.7367 20.1341 28.7538 20.1557 28.766 20.1801C28.7782 20.2045 28.7852 20.2311 28.7866 20.2583C28.7305 21.1313 28.3442 21.9502 27.7061 22.5486C27.068 23.1471 26.226 23.4801 25.3512 23.4801C24.4764 23.4801 23.6344 23.1471 22.9963 22.5486C22.3582 21.9502 21.9719 21.1313 21.9158 20.2583C21.9275 19.9066 21.9895 19.5583 22.1 19.2242Z" fill="#A5EB14"/>
</g>
<defs>
<clipPath id="clip0_1060_175">
<rect width="34" height="34" fill="white"/>
</clipPath>
</defs>
</svg>
