<svg width="34" height="34" viewBox="0 0 34 34" fill="none" xmlns="http://www.w3.org/2000/svg">
<path d="M34 8.67C34 8.46164 33.959 8.25531 33.8792 8.06281C33.7995 7.87031 33.6826 7.69539 33.5353 7.54806C33.3879 7.40072 33.213 7.28385 33.0205 7.20411C32.828 7.12437 32.6217 7.08333 32.4133 7.08333H27.625C27.4371 7.08333 27.257 7.00871 27.1241 6.87587C26.9913 6.74303 26.9167 6.56286 26.9167 6.375V1.58667C26.9167 1.16586 26.7495 0.762282 26.4519 0.464724C26.1544 0.167166 25.7508 0 25.33 0L20.0033 0C19.5825 0 19.1789 0.167166 18.8814 0.464724C18.5838 0.762282 18.4167 1.16586 18.4167 1.58667V6.375C18.4167 6.56286 18.342 6.74303 18.2092 6.87587C18.0764 7.00871 17.8962 7.08333 17.7083 7.08333H12.92C12.7116 7.08333 12.5053 7.12437 12.3128 7.20411C12.1203 7.28385 11.9454 7.40072 11.7981 7.54806C11.6507 7.69539 11.5338 7.87031 11.4541 8.06281C11.3744 8.25531 11.3333 8.46164 11.3333 8.67V13.9967C11.3333 14.4175 11.5005 14.8211 11.7981 15.1186C12.0956 15.4162 12.4992 15.5833 12.92 15.5833H17.7083C17.8962 15.5833 18.0764 15.658 18.2092 15.7908C18.342 15.9236 18.4167 16.1038 18.4167 16.2917V21.08C18.4167 21.5008 18.5838 21.9044 18.8814 22.2019C19.1789 22.4995 19.5825 22.6667 20.0033 22.6667H25.33C25.7508 22.6667 26.1544 22.4995 26.4519 22.2019C26.7495 21.9044 26.9167 21.5008 26.9167 21.08V16.2917C26.9167 16.1038 26.9913 15.9236 27.1241 15.7908C27.257 15.658 27.4371 15.5833 27.625 15.5833H32.4133C32.8341 15.5833 33.2377 15.4162 33.5353 15.1186C33.8328 14.8211 34 14.4175 34 13.9967V8.67ZM1.41667 20.8958C1.04094 20.8958 0.680609 21.0451 0.414932 21.3108C0.149256 21.5764 0 21.9368 0 22.3125L0 32.5833C0 32.9591 0.149256 33.3194 0.414932 33.5851C0.680609 33.8507 1.04094 34 1.41667 34C1.79239 34 2.15272 33.8507 2.4184 33.5851C2.68408 33.3194 2.83333 32.9591 2.83333 32.5833V22.3125C2.83333 21.9368 2.68408 21.5764 2.4184 21.3108C2.15272 21.0451 1.79239 20.8958 1.41667 20.8958ZM21.9583 27.625H9.03833C8.91266 27.6409 8.78503 27.6299 8.66394 27.5927C8.54285 27.5555 8.43107 27.4929 8.33603 27.4092C8.24099 27.3254 8.16486 27.2224 8.11272 27.1069C8.06058 26.9915 8.03361 26.8663 8.03361 26.7396C8.03361 26.6129 8.06058 26.4877 8.11272 26.3722C8.16486 26.2568 8.24099 26.1537 8.33603 26.07C8.43107 25.9862 8.54285 25.9237 8.66394 25.8865C8.78503 25.8492 8.91266 25.8382 9.03833 25.8542H12.6083C12.8422 25.854 13.0723 25.7959 13.2782 25.6852C13.4842 25.5744 13.6595 25.4144 13.7885 25.2194C13.9176 25.0244 13.9964 24.8005 14.0179 24.5677C14.0393 24.3348 14.0029 24.1003 13.9117 23.885C13.669 23.3122 13.2626 22.8238 12.7434 22.4811C12.2242 22.1383 11.6154 21.9565 10.9933 21.9583H4.95833C4.77047 21.9583 4.5903 22.033 4.45747 22.1658C4.32463 22.2986 4.25 22.4788 4.25 22.6667V31.875C4.25 32.0629 4.32463 32.243 4.45747 32.3759C4.5903 32.5087 4.77047 32.5833 4.95833 32.5833H20.2017C20.6184 32.5833 21.031 32.5013 21.416 32.3418C21.8011 32.1823 22.1509 31.9486 22.4456 31.6539C22.7402 31.3592 22.974 31.0094 23.1334 30.6244C23.2929 30.2394 23.375 29.8267 23.375 29.41V29.0417C23.375 28.6659 23.2257 28.3056 22.9601 28.0399C22.6944 27.7743 22.3341 27.625 21.9583 27.625Z" fill="#A5EB14"/>
</svg>
