<svg width="34" height="34" viewBox="0 0 34 34" fill="none" xmlns="http://www.w3.org/2000/svg">
<path fill-rule="evenodd" clip-rule="evenodd" d="M2.83329 2.83334C2.45757 2.83334 2.09723 2.9826 1.83156 3.24828C1.56588 3.51395 1.41663 3.87429 1.41663 4.25001V24.0833C1.41663 26.0015 2.68738 27.6222 4.43271 28.152C4.69253 29.0091 5.21647 29.7622 5.92974 30.3038C6.64301 30.8454 7.50914 31.1479 8.40452 31.168C9.29989 31.1881 10.1787 30.9248 10.9156 30.4158C11.6525 29.9067 12.2097 29.1779 12.5077 28.3333H21.4922C21.7902 29.1779 22.3475 29.9067 23.0843 30.4158C23.8212 30.9248 24.7 31.1881 25.5954 31.168C26.4908 31.1479 27.3569 30.8454 28.0702 30.3038C28.7834 29.7622 29.3074 29.0091 29.5672 28.152C30.44 27.8872 31.2044 27.3487 31.7475 26.616C32.2906 25.8833 32.5837 24.9954 32.5833 24.0833V18.4167C32.5833 17.4865 32.4001 16.5654 32.0441 15.706C31.6881 14.8466 31.1664 14.0658 30.5086 13.408C29.8509 12.7503 29.07 12.2285 28.2106 11.8725C27.3512 11.5166 26.4302 11.3333 25.5 11.3333H19.8333V4.25001C19.8333 3.87429 19.684 3.51395 19.4184 3.24828C19.1527 2.9826 18.7923 2.83334 18.4166 2.83334H2.83329ZM21.4922 25.5H19.8333V14.1667H25.5C26.6271 14.1667 27.7081 14.6144 28.5052 15.4115C29.3022 16.2085 29.75 17.2895 29.75 18.4167V24.0833C29.7499 24.459 29.6006 24.8193 29.3349 25.0849C28.9727 24.3262 28.3936 23.692 27.6709 23.2624C26.9482 22.8329 26.1144 22.6273 25.2748 22.6717C24.4353 22.7162 23.6278 23.0086 22.9545 23.512C22.2812 24.0155 21.7723 24.7073 21.4922 25.5ZM7.49838 25.9151C7.62906 25.7798 7.78538 25.6719 7.95822 25.5976C8.13106 25.5234 8.31695 25.4843 8.50506 25.4827C8.69316 25.481 8.87971 25.5169 9.05381 25.5881C9.22791 25.6593 9.38609 25.7645 9.5191 25.8975C9.65212 26.0305 9.75731 26.1887 9.82854 26.3628C9.89977 26.5369 9.93562 26.7235 9.93398 26.9116C9.93235 27.0997 9.89327 27.2856 9.81902 27.4584C9.74477 27.6313 9.63685 27.7876 9.50154 27.9183C9.23436 28.1763 8.8765 28.3191 8.50506 28.3159C8.13361 28.3127 7.77829 28.1637 7.51563 27.901C7.25297 27.6383 7.10398 27.283 7.10075 26.9116C7.09753 26.5401 7.24032 26.1823 7.49838 25.9151ZM24.0833 26.9167C24.0833 26.541 24.2325 26.1806 24.4982 25.9149C24.7639 25.6493 25.1242 25.5 25.5 25.5C25.8757 25.5 26.236 25.6493 26.5017 25.9149C26.7674 26.1806 26.9166 26.541 26.9166 26.9167C26.9166 27.2924 26.7674 27.6527 26.5017 27.9184C26.236 28.1841 25.8757 28.3333 25.5 28.3333C25.1242 28.3333 24.7639 28.1841 24.4982 27.9184C24.2325 27.6527 24.0833 27.2924 24.0833 26.9167Z" fill="#A5EB14"/>
</svg>
