<svg width="22" height="26" viewBox="0 0 22 26" fill="none" xmlns="http://www.w3.org/2000/svg">
<path d="M19.4 7H2.60002C2.28176 7 1.97654 7.12643 1.7515 7.35147C1.52645 7.57652 1.40002 7.88174 1.40002 8.2V23.8C1.40002 24.1183 1.52645 24.4235 1.7515 24.6485C1.97654 24.8736 2.28176 25 2.60002 25H19.4C19.7183 25 20.0235 24.8736 20.2486 24.6485C20.4736 24.4235 20.6 24.1183 20.6 23.8V8.2C20.6 7.88174 20.4736 7.57652 20.2486 7.35147C20.0235 7.12643 19.7183 7 19.4 7Z" fill="#A5EB14" stroke="#A5EB14" stroke-width="2" stroke-linecap="round" stroke-linejoin="round"/>
<path d="M6.79993 9.4V5.2C6.79993 4.64845 6.90856 4.1023 7.11963 3.59273C7.3307 3.08316 7.64007 2.62016 8.03008 2.23015C8.42008 1.84015 8.88309 1.53078 9.39266 1.31971C9.90222 1.10864 10.4484 1 10.9999 1C11.5515 1 12.0976 1.10864 12.6072 1.31971C13.1168 1.53078 13.5798 1.84015 13.9698 2.23015C14.3598 2.62016 14.6692 3.08316 14.8802 3.59273C15.0913 4.1023 15.1999 4.64845 15.1999 5.2V9.4" stroke="#A5EB14" stroke-width="2" stroke-linecap="round" stroke-linejoin="round"/>
</svg>
