<svg width="36" height="36" viewBox="0 0 36 36" fill="none" xmlns="http://www.w3.org/2000/svg">
<path opacity="0.3" d="M18 3C18.3674 3.00005 18.7221 3.13493 18.9966 3.37907C19.2712 3.62321 19.4466 3.95962 19.4895 4.3245L19.5 4.5V4.5825C22.4736 4.91587 25.2523 6.22715 27.4 8.31053C29.5477 10.3939 30.9429 13.1315 31.3665 16.0935L31.4175 16.5H31.5C31.8824 16.5004 32.2501 16.6468 32.5281 16.9093C32.8061 17.1717 32.9734 17.5304 32.9958 17.9121C33.0182 18.2938 32.894 18.6696 32.6487 18.9627C32.4033 19.2559 32.0552 19.4443 31.6755 19.4895L31.5 19.5H31.4175C31.0842 22.4736 29.7729 25.2523 27.6895 27.4C25.6061 29.5477 22.8686 30.9429 19.9065 31.3665L19.5 31.4175V31.5C19.4996 31.8823 19.3532 32.25 19.0908 32.5281C18.8283 32.8061 18.4696 32.9734 18.088 32.9958C17.7063 33.0182 17.3305 32.894 17.0373 32.6486C16.7441 32.4032 16.5557 32.0551 16.5105 31.6755L16.5 31.5V31.4175C13.5265 31.0841 10.7478 29.7728 8.60007 27.6895C6.45235 25.6061 5.05718 22.8685 4.63355 19.9065L4.58255 19.5H4.50005C4.11773 19.4996 3.75 19.3532 3.47199 19.0907C3.19399 18.8283 3.02669 18.4696 3.00429 18.0879C2.98188 17.7062 3.10606 17.3304 3.35144 17.0373C3.59683 16.7441 3.9449 16.5557 4.32455 16.5105L4.50005 16.5H4.58255C4.91592 13.5264 6.2272 10.7477 8.31058 8.60002C10.394 6.4523 13.1315 5.05714 16.0935 4.6335L16.5 4.5825V4.5C16.5 4.10218 16.6581 3.72064 16.9394 3.43934C17.2207 3.15804 17.6022 3 18 3Z" fill="#A5EB14"/>
<path d="M18.0001 10.5C12.2266 10.5 8.61761 16.7505 11.5051 21.75C12.1634 22.8901 13.1101 23.8369 14.2502 24.4951C15.3903 25.1534 16.6836 25.5 18.0001 25.5C23.7736 25.5 27.3826 19.2495 24.4951 14.25C23.8369 13.1099 22.8901 12.1631 21.75 11.5049C20.6099 10.8466 19.3166 10.5 18.0001 10.5Z" fill="#A5EB14"/>
</svg>
