<svg width="34" height="20" viewBox="0 0 34 20" fill="none" xmlns="http://www.w3.org/2000/svg">
<path d="M21.1684 9.35959C19.9585 9.35959 18.9778 10.3404 18.9778 11.5502C18.9778 12.76 19.9585 13.7408 21.1684 13.7408C22.3783 13.7408 23.359 12.76 23.359 11.5502C23.359 10.3404 22.3783 9.35959 21.1684 9.35959Z" fill="#A5EB14"/>
<path d="M21.8206 12.5052C21.6951 12.6472 21.5206 12.7343 21.2971 12.7664V13.0878H21.0479V12.775C20.8498 12.7509 20.6887 12.6768 20.5648 12.5534C20.4413 12.4295 20.3618 12.2547 20.3276 12.0291L20.7763 11.9809C20.7947 12.0724 20.8291 12.1516 20.8795 12.218C20.93 12.2845 20.9861 12.3328 21.0479 12.3624V11.6424C20.8232 11.5782 20.6588 11.481 20.5537 11.3511C20.449 11.221 20.3966 11.0632 20.3966 10.8774C20.3966 10.6894 20.4558 10.5318 20.5742 10.4039C20.6929 10.276 20.8507 10.2025 21.048 10.183V10.0127H21.2971V10.183C21.4794 10.2049 21.6242 10.2669 21.7321 10.3696C21.8396 10.4722 21.9085 10.6093 21.9385 10.7812L21.5036 10.8376C21.4771 10.7025 21.4082 10.6109 21.2971 10.5629V11.2348C21.5722 11.3095 21.7596 11.406 21.8592 11.5245C21.9589 11.6432 22.009 11.7952 22.009 11.9809C22.0089 12.1883 21.9458 12.363 21.8206 12.5052Z" fill="#A5EB14"/>
<path d="M20.8262 10.8567C20.8262 10.9178 20.8445 10.974 20.8812 11.026C20.9175 11.0782 20.9734 11.1203 21.0479 11.1522V10.5577C20.9805 10.5806 20.9262 10.6196 20.8863 10.6745C20.8461 10.7295 20.8262 10.7905 20.8262 10.8567Z" fill="#A5EB14"/>
<path d="M21.2971 11.7163V12.3865C21.3831 12.3705 21.4529 12.3307 21.5069 12.2671C21.5606 12.2036 21.5877 12.1287 21.5877 12.0428C21.5877 11.966 21.565 11.8998 21.5198 11.8443C21.4744 11.7886 21.4004 11.746 21.2971 11.7163Z" fill="#A5EB14"/>
<path d="M13.5745 7.32191C13.8845 7.42278 14.172 7.53911 14.4362 7.66257C14.6556 7.72552 14.8685 7.82491 15.0666 7.96201L22.5904 13.1725C23.5665 13.8486 23.8099 15.1881 23.1338 16.1643C22.4577 17.1405 21.1183 17.3838 20.142 16.7077L16.5814 14.2417L16.3403 14.5979L19.8972 17.0612C20.4637 17.4536 21.1492 17.6019 21.8273 17.4787C22.5053 17.3555 23.0949 16.9757 23.4872 16.4091C23.7877 15.9753 23.9465 15.468 23.9465 14.942C23.9465 14.9319 23.9461 14.9218 23.946 14.9117L31.7987 14.7248C32.9858 14.6965 33.9711 15.636 33.9994 16.823C34.0281 18.0105 33.0881 18.9955 31.901 19.0238L20.6588 19.2914C20.5363 19.2944 20.416 19.2868 20.2987 19.2699C19.4421 19.3649 18.5767 19.1482 17.8636 18.6544L11.8521 14.4911C11.7274 14.4048 11.6084 14.3106 11.4957 14.2092C11.4627 14.1861 11.4044 14.1526 11.3555 14.1366C11.2265 14.0946 10.9967 14.075 10.8806 14.077C10.8223 14.0798 10.7639 14.0813 10.7054 14.0813H0V6.91434H10.6226C11.117 6.89562 12.2996 6.90673 13.5745 7.32191Z" fill="#A5EB14"/>
<path d="M31.0535 9.35959C29.8436 9.35959 28.8629 10.3404 28.8629 11.5502C28.8629 12.76 29.8436 13.7408 31.0535 13.7408C32.2635 13.7408 33.2442 12.76 33.2442 11.5502C33.2442 10.3404 32.2635 9.35959 31.0535 9.35959Z" fill="#A5EB14"/>
<path d="M31.7061 12.5052C31.5806 12.6472 31.4061 12.7343 31.1826 12.7664V13.0878H30.9334V12.775C30.7353 12.7509 30.5742 12.6768 30.4503 12.5534C30.3268 12.4295 30.2473 12.2547 30.2131 12.0291L30.6617 11.9809C30.6802 12.0724 30.7146 12.1516 30.765 12.218C30.8155 12.2845 30.8716 12.3328 30.9334 12.3624V11.6424C30.7087 11.5782 30.5443 11.481 30.4392 11.3511C30.3345 11.221 30.282 11.0632 30.282 10.8774C30.282 10.6894 30.3413 10.5318 30.4597 10.4039C30.5784 10.276 30.7362 10.2025 30.9335 10.183V10.0127H31.1826V10.183C31.3649 10.2049 31.5097 10.2669 31.6176 10.3696C31.7251 10.4722 31.794 10.6093 31.824 10.7812L31.3891 10.8376C31.3626 10.7025 31.2937 10.6109 31.1826 10.5629V11.2348C31.4577 11.3095 31.6451 11.406 31.7446 11.5245C31.8444 11.6432 31.8945 11.7952 31.8945 11.9809C31.8944 12.1883 31.8313 12.363 31.7061 12.5052Z" fill="#0A0C33"/>
<path d="M30.7117 10.8567C30.7117 10.9178 30.73 10.974 30.7667 11.026C30.803 11.0782 30.8589 11.1203 30.9334 11.1522V10.5577C30.866 10.5806 30.8117 10.6196 30.7718 10.6745C30.7316 10.7295 30.7117 10.7905 30.7117 10.8567Z" fill="#A5EB14"/>
<path d="M31.1825 11.7163V12.3865C31.2684 12.3705 31.3383 12.3307 31.3923 12.2671C31.4459 12.2036 31.473 12.1287 31.473 12.0428C31.473 11.966 31.4503 11.8998 31.4052 11.8443C31.3598 11.7886 31.2857 11.746 31.1825 11.7163Z" fill="#A5EB14"/>
<path d="M30.8357 7.35355C30.8644 6.14404 29.9073 5.1402 28.6978 5.11141C27.4883 5.08261 26.4845 6.03976 26.4557 7.24927C26.4269 8.45878 27.3841 9.46263 28.5935 9.49142C29.803 9.52022 30.8069 8.56305 30.8357 7.35355Z" fill="#A5EB14"/>
<path d="M29.3001 8.25315C29.1746 8.39505 29.0001 8.48225 28.7765 8.51437V8.83579H28.5274V8.52298C28.3293 8.49891 28.1682 8.42477 28.0443 8.30135C27.9208 8.17745 27.8413 8.00271 27.8071 7.77713L28.2558 7.72886C28.2742 7.82044 28.3086 7.89954 28.359 7.966C28.4095 8.03249 28.4656 8.08071 28.5274 8.11042V7.39034C28.3027 7.32614 28.1383 7.22891 28.0332 7.0991C27.9285 6.96896 27.876 6.81108 27.876 6.62531C27.876 6.43737 27.9353 6.27975 28.0537 6.1519C28.1724 6.02398 28.3302 5.95047 28.5275 5.93098V5.76071H28.7766V5.93098C28.9589 5.95284 29.1037 6.01488 29.2116 6.11757C29.3191 6.22017 29.388 6.35728 29.418 6.52916L28.9831 6.58555C28.9566 6.45046 28.8876 6.35884 28.7766 6.31085V6.98268C29.0517 7.05743 29.2391 7.15401 29.3387 7.27247C29.4384 7.39118 29.4885 7.54317 29.4885 7.72886C29.4884 7.93624 29.4253 8.11094 29.3001 8.25315Z" fill="#0A0C33"/>
<path d="M28.3057 6.60467C28.3057 6.6657 28.324 6.72196 28.3607 6.77392C28.397 6.82609 28.4529 6.86829 28.5274 6.90017V6.30566C28.46 6.32849 28.4057 6.36745 28.3658 6.42243C28.3256 6.4775 28.3057 6.53838 28.3057 6.60467Z" fill="#A5EB14"/>
<path d="M28.7765 7.46422V8.13443C28.8624 8.11841 28.9323 8.07863 28.9863 8.01499C29.0399 7.95147 29.067 7.87657 29.067 7.79071C29.067 7.71398 29.0443 7.64768 28.9992 7.59225C28.9538 7.5365 28.8798 7.49393 28.7765 7.46422Z" fill="#A5EB14"/>
<path d="M26.0603 9.35959C24.8503 9.35959 23.8696 10.3404 23.8696 11.5502C23.8696 12.76 24.8503 13.7408 26.0603 13.7408C27.2702 13.7408 28.2509 12.76 28.2509 11.5502C28.2509 10.3404 27.2702 9.35959 26.0603 9.35959Z" fill="#A5EB14"/>
<path d="M26.7126 12.5052C26.5871 12.6472 26.4126 12.7343 26.189 12.7664V13.0878H25.9399V12.775C25.7417 12.7509 25.5806 12.6768 25.4567 12.5534C25.3333 12.4295 25.2538 12.2547 25.2196 12.0291L25.6682 11.9809C25.6867 12.0724 25.7211 12.1516 25.7714 12.218C25.822 12.2845 25.878 12.3328 25.9399 12.3624V11.6424C25.7152 11.5782 25.5508 11.481 25.4457 11.3511C25.3409 11.221 25.2885 11.0632 25.2885 10.8774C25.2885 10.6894 25.3477 10.5318 25.4662 10.4039C25.5849 10.276 25.7427 10.2025 25.9399 10.183V10.0127H26.1891V10.183C26.3714 10.2049 26.5162 10.2669 26.624 10.3696C26.7316 10.4722 26.8005 10.6093 26.8305 10.7812L26.3955 10.8376C26.369 10.7025 26.3001 10.6109 26.1891 10.5629V11.2348C26.4642 11.3095 26.6515 11.406 26.7511 11.5245C26.8509 11.6432 26.9009 11.7952 26.9009 11.9809C26.9009 12.1883 26.8378 12.363 26.7126 12.5052Z" fill="#0A0C33"/>
<path d="M25.7183 10.8567C25.7183 10.9178 25.7366 10.974 25.7733 11.026C25.8096 11.0782 25.8655 11.1203 25.94 11.1522V10.5577C25.8726 10.5806 25.8183 10.6196 25.7784 10.6745C25.7382 10.7295 25.7183 10.7905 25.7183 10.8567Z" fill="#A5EB14"/>
<path d="M26.1891 11.7163V12.3865C26.275 12.3705 26.3449 12.3307 26.3989 12.2671C26.4525 12.2036 26.4796 12.1287 26.4796 12.0428C26.4796 11.966 26.4569 11.8998 26.4118 11.8443C26.3664 11.7886 26.2924 11.746 26.1891 11.7163Z" fill="#A5EB14"/>
<path d="M23.6545 9.48887C24.8644 9.48887 25.8452 8.50808 25.8452 7.29821C25.8452 6.08834 24.8644 5.10753 23.6545 5.10753C22.4447 5.10753 21.4639 6.08834 21.4639 7.29821C21.4639 8.50808 22.4447 9.48887 23.6545 9.48887Z" fill="#A5EB14"/>
<path d="M24.3069 8.25314C24.1814 8.39503 24.0069 8.48223 23.7834 8.51435V8.83577H23.5343V8.52296C23.3361 8.49889 23.175 8.42475 23.0511 8.30133C22.9276 8.17743 22.8481 8.0027 22.814 7.77712L23.2626 7.72884C23.2811 7.82042 23.3154 7.89952 23.3658 7.96598C23.4164 8.03248 23.4724 8.0807 23.5343 8.1104V7.39033C23.3095 7.32612 23.1451 7.2289 23.0401 7.09908C22.9353 6.96894 22.8829 6.81107 22.8829 6.6253C22.8829 6.43735 22.9421 6.27973 23.0606 6.15189C23.1793 6.02396 23.3371 5.95045 23.5343 5.93097V5.7607H23.7834V5.93097C23.9658 5.95282 24.1105 6.01487 24.2184 6.11755C24.326 6.22016 24.3948 6.35726 24.4248 6.52915L23.9899 6.58554C23.9634 6.45045 23.8945 6.35882 23.7834 6.31084V6.98266C24.0585 7.05741 24.2459 7.15399 24.3455 7.27246C24.4453 7.39116 24.4953 7.54316 24.4953 7.72884C24.4952 7.93623 24.4321 8.11092 24.3069 8.25314Z" fill="#0A0C33"/>
<path d="M23.3125 6.60466C23.3125 6.66568 23.3309 6.72194 23.3675 6.77391C23.4039 6.82608 23.4597 6.86827 23.5343 6.90015V6.30565C23.4668 6.32847 23.4126 6.36743 23.3726 6.42242C23.3324 6.47749 23.3125 6.53836 23.3125 6.60466Z" fill="#A5EB14"/>
<path d="M23.7833 7.4642V8.13442C23.8693 8.1184 23.9391 8.07861 23.9931 8.01497C24.0468 7.95145 24.0739 7.87655 24.0739 7.79069C24.0739 7.71397 24.0512 7.64766 24.006 7.59224C23.9606 7.53648 23.8866 7.49391 23.7833 7.4642Z" fill="#A5EB14"/>
<path d="M26.3094 0.707932C25.0995 0.707932 24.1188 1.68878 24.1188 2.89855C24.1188 4.10833 25.0995 5.08927 26.3094 5.08927C27.5193 5.08927 28.5 4.10833 28.5 2.89855C28.5 1.68878 27.5193 0.707932 26.3094 0.707932Z" fill="#A5EB14"/>
<path d="M26.9618 3.85357C26.8363 3.99551 26.6618 4.08266 26.4383 4.11479V4.43624H26.1892V4.12343C25.991 4.09932 25.8299 4.0252 25.706 3.90171C25.5826 3.77789 25.503 3.60311 25.4689 3.37757L25.9175 3.32928C25.936 3.42085 25.9703 3.49995 26.0207 3.56645C26.0713 3.63295 26.1273 3.68117 26.1892 3.71084V2.99078C25.9644 2.92654 25.8 2.82937 25.695 2.69951C25.5902 2.56937 25.5378 2.41154 25.5378 2.22577C25.5378 2.03783 25.597 1.88016 25.7155 1.75231C25.8342 1.62443 25.992 1.55088 26.1892 1.5314V1.36113H26.4383V1.5314C26.6207 1.5533 26.7654 1.61529 26.8733 1.71798C26.9809 1.82062 27.0497 1.95772 27.0797 2.12956L26.6448 2.186C26.6183 2.05087 26.5494 1.95929 26.4383 1.91131V2.58314C26.7134 2.65785 26.9008 2.75446 27.0004 2.87289C27.1002 2.99156 27.1502 3.14359 27.1502 3.32928C27.1502 3.5367 27.0871 3.71136 26.9618 3.85357Z" fill="#0A0C33"/>
<path d="M25.9675 2.20508C25.9675 2.26614 25.9859 2.32237 26.0226 2.37434C26.0589 2.4265 26.1147 2.4687 26.1893 2.50058V1.90607C26.1218 1.92889 26.0676 1.9679 26.0277 2.02285C25.9875 2.07791 25.9675 2.13882 25.9675 2.20508Z" fill="#A5EB14"/>
<path d="M26.4384 3.06461V3.73486C26.5243 3.71876 26.5942 3.67904 26.6482 3.6154C26.7018 3.55192 26.7289 3.47701 26.7289 3.39115C26.7289 3.31439 26.7062 3.24813 26.661 3.1927C26.6157 3.13691 26.5416 3.09435 26.4384 3.06461Z" fill="#A5EB14"/>
</svg>
