<svg width="34" height="34" viewBox="0 0 34 34" fill="none" xmlns="http://www.w3.org/2000/svg">
<path d="M18.0625 5.58155C19.4791 4.56155 21.1225 4.05155 22.9783 4.05155C23.9983 4.05155 25.1175 4.32071 26.3358 4.88738C27.5541 5.43988 28.5175 6.09155 29.2258 6.84238C30.685 8.65571 31.2941 10.7665 31.0816 13.1749C30.855 15.5832 30.0616 17.4674 28.6875 18.799L17.935 29.5515C17.6658 29.8207 17.3258 29.9482 16.9291 29.9482C16.5325 29.9482 16.2066 29.8207 15.9375 29.5515C15.8065 29.4226 15.7036 29.2679 15.6354 29.0972C15.5671 28.9266 15.5349 28.7436 15.5408 28.5599C15.5408 28.1632 15.6683 27.8232 15.9375 27.554L22.44 21.0515C22.7941 20.7399 22.7941 20.414 22.44 20.0599C22.0858 19.7057 21.76 19.7057 21.4483 20.0599L14.9458 26.5624C14.8147 26.6945 14.6576 26.7979 14.4845 26.8662C14.3113 26.9344 14.1259 26.9661 13.94 26.959C13.5433 26.959 13.2175 26.8315 12.9483 26.5624C12.8173 26.4334 12.7145 26.2787 12.6462 26.1081C12.5779 25.9374 12.5457 25.7544 12.5516 25.5707C12.5516 25.174 12.6791 24.834 12.9483 24.5649L19.4508 18.0624C19.8333 17.7082 19.8333 17.354 19.4508 16.9999C19.125 16.6457 18.8133 16.6457 18.4591 16.9999L11.9566 23.5732C11.824 23.7032 11.6667 23.8054 11.4939 23.8735C11.3211 23.9416 11.1365 23.9744 10.9508 23.9699C10.5541 23.9699 10.2141 23.8424 9.91663 23.5732C9.6333 23.304 9.49163 22.9782 9.49163 22.5815C9.49163 22.1849 9.64747 21.8307 9.95913 21.519L16.4758 15.0024C16.83 14.6482 16.83 14.3224 16.4758 14.0107C16.1216 13.699 15.7816 13.699 15.47 14.0107L8.89663 20.5415C8.58497 20.8249 8.25913 20.9807 7.90497 20.9807C7.5083 20.9807 7.1683 20.839 6.9133 20.5415C6.64413 20.2582 6.50247 19.9182 6.50247 19.5215C6.50247 19.1249 6.64413 18.799 6.9133 18.5299C11.2483 14.1665 13.9258 11.5315 14.9458 10.554L19.9891 15.5407C20.5416 16.0649 21.1791 16.334 21.9583 16.334C22.95 16.334 23.7291 15.9374 24.31 15.144C24.7066 14.5632 24.8483 13.9257 24.735 13.2174C24.6216 12.509 24.3241 11.914 23.8425 11.4182L18.0625 5.58155ZM20.9808 14.549L14.9458 8.49988L4.9158 18.5299C3.7258 17.3257 3.0458 15.484 2.88997 12.9765C2.73413 10.4832 3.41413 8.31571 4.9158 6.50238C6.60163 4.83071 8.6133 3.98071 10.9508 3.98071C13.3025 3.98071 15.3 4.83071 16.9291 6.50238L22.9783 12.5515C23.2475 12.8207 23.375 13.1465 23.375 13.5432C23.375 13.9399 23.2475 14.2799 22.9783 14.549C22.7091 14.804 22.3833 14.9457 21.9583 14.9457C21.5758 14.9457 21.25 14.804 20.9808 14.549Z" fill="#A5EB14"/>
</svg>
