<svg width="32" height="34" viewBox="0 0 32 34" fill="none" xmlns="http://www.w3.org/2000/svg">
<path fill-rule="evenodd" clip-rule="evenodd" d="M21.5614 1.87001C22.0058 -0.162706 24.9007 -0.174849 25.3645 1.85544L25.3864 1.95258L25.4301 2.13958C25.9644 4.41758 27.8077 6.15887 30.1172 6.55958C32.2374 6.92872 32.2374 9.97415 30.1172 10.3433C28.9827 10.5416 27.9319 11.0702 27.0965 11.8629C26.261 12.6556 25.678 13.6772 25.4204 14.7997L25.3645 15.0474C24.9031 17.0777 22.0058 17.0656 21.5589 15.0329L21.5128 14.8192C21.2667 13.692 20.6903 12.6637 19.8572 11.8657C19.0241 11.0676 17.972 10.5359 16.8354 10.3384C14.7201 9.97172 14.7201 6.93115 16.8354 6.56444C17.968 6.36782 19.0167 5.83931 19.8485 5.04593C20.6804 4.25255 21.2579 3.23003 21.5079 2.10801L21.5419 1.95258L21.5614 1.87001ZM16.3788 12.954C15.7805 12.8535 15.2064 12.6418 14.6861 12.3299H8.57337C6.78051 12.3296 5.0505 12.9904 3.71436 14.1859C2.37822 15.3813 1.52978 17.0274 1.33137 18.8093L0.359939 27.5716C0.223254 28.8419 0.536655 30.12 1.24553 31.183C1.9544 32.246 3.0138 33.0265 4.23909 33.3886C5.46439 33.7507 6.7779 33.6714 7.95072 33.1645C9.12353 32.6576 10.0813 31.7552 10.6571 30.6146L11.5168 28.8976H18.6228L19.4801 30.6146C20.0519 31.7616 21.0094 32.6707 22.1846 33.1822C23.3598 33.6938 24.6776 33.7752 25.9068 33.4121C27.136 33.049 28.1981 32.2647 28.9067 31.1967C29.6154 30.1287 29.9253 28.8453 29.7821 27.5716L28.8107 18.8093C28.699 17.8031 28.3789 16.8313 27.8708 15.9557C26.5545 20.4292 19.9974 20.2931 18.9701 15.5987L18.9215 15.385C18.787 14.7739 18.474 14.2166 18.0221 13.7838C17.5702 13.3509 17 13.0621 16.3837 12.954M10.3754 18.2459C10.3754 17.8433 10.2155 17.4572 9.9308 17.1726C9.64614 16.8879 9.26007 16.728 8.85751 16.728C8.45495 16.728 8.06888 16.8879 7.78422 17.1726C7.49957 17.4572 7.33965 17.8433 7.33965 18.2459V19.4893H6.09622C5.69366 19.4893 5.30759 19.6492 5.02294 19.9339C4.73828 20.2185 4.57837 20.6046 4.57837 21.0072C4.57837 21.4097 4.73828 21.7958 5.02294 22.0804C5.30759 22.3651 5.69366 22.525 6.09622 22.525H7.33965V23.7684C7.33965 24.171 7.49957 24.5571 7.78422 24.8417C8.06888 25.1264 8.45495 25.2863 8.85751 25.2863C9.26007 25.2863 9.64614 25.1264 9.9308 24.8417C10.2155 24.5571 10.3754 24.171 10.3754 23.7684V22.525H11.6188C12.0214 22.525 12.4074 22.3651 12.6921 22.0804C12.9767 21.7958 13.1367 21.4097 13.1367 21.0072C13.1367 20.6046 12.9767 20.2185 12.6921 19.9339C12.4074 19.6492 12.0214 19.4893 11.6188 19.4893H10.3754V18.2459ZM21.9111 22.4862C21.9226 22.6875 21.8929 22.8891 21.8238 23.0786C21.7547 23.268 21.6476 23.4414 21.5092 23.5881C21.3707 23.7347 21.2037 23.8515 21.0185 23.9313C20.8333 24.0112 20.6338 24.0524 20.4321 24.0524C20.2304 24.0524 20.0308 24.0112 19.8456 23.9313C19.6604 23.8515 19.4935 23.7347 19.355 23.5881C19.2165 23.4414 19.1095 23.268 19.0403 23.0786C18.9712 22.8891 18.9415 22.6875 18.9531 22.4862C18.9747 22.1086 19.14 21.7535 19.415 21.4939C19.69 21.2342 20.0539 21.0895 20.4321 21.0895C20.8103 21.0895 21.1742 21.2342 21.4492 21.4939C21.7242 21.7535 21.8894 22.1086 21.9111 22.4862Z" fill="#A5EB14"/>
</svg>
