<svg width="34" height="34" viewBox="0 0 34 34" fill="none" xmlns="http://www.w3.org/2000/svg">
<path d="M19.8333 25.9533C18.2881 25.2065 16.9612 24.0747 15.98 22.6667H4.24996V5.66666H29.75V8.86833C30.8963 9.67508 31.8614 10.7125 32.5833 11.9142V5.66666C32.5833 4.91522 32.2848 4.19455 31.7534 3.66319C31.2221 3.13184 30.5014 2.83333 29.75 2.83333H4.24996C3.49851 2.83333 2.77784 3.13184 2.24649 3.66319C1.71514 4.19455 1.41663 4.91522 1.41663 5.66666V22.6667C1.41663 23.4181 1.71514 24.1388 2.24649 24.6701C2.77784 25.2015 3.49851 25.5 4.24996 25.5H14.1666V28.3333H11.3333V31.1667H22.6666V28.3333H19.8333V25.9533Z" fill="#A5EB14"/>
<path d="M24.0833 8.5C22.4021 8.5 20.7587 8.99852 19.3609 9.93251C17.9631 10.8665 16.8736 12.194 16.2303 13.7472C15.5869 15.3004 15.4186 17.0094 15.7466 18.6583C16.0746 20.3071 16.8841 21.8217 18.0728 23.0104C19.2616 24.1992 20.7761 25.0087 22.425 25.3367C24.0738 25.6646 25.7829 25.4963 27.3361 24.853C28.8892 24.2096 30.2168 23.1202 31.1507 21.7223C32.0847 20.3245 32.5833 18.6811 32.5833 17C32.5833 14.7457 31.6877 12.5837 30.0937 10.9896C28.4996 9.39553 26.3376 8.5 24.0833 8.5ZM24.0833 19.125C23.663 19.125 23.2521 19.0004 22.9027 18.7669C22.5532 18.5334 22.2808 18.2015 22.12 17.8132C21.9592 17.4249 21.9171 16.9976 21.9991 16.5854C22.0811 16.1732 22.2835 15.7946 22.5807 15.4974C22.8778 15.2002 23.2565 14.9978 23.6687 14.9158C24.0809 14.8338 24.5082 14.8759 24.8965 15.0368C25.2847 15.1976 25.6166 15.47 25.8501 15.8194C26.0836 16.1689 26.2083 16.5797 26.2083 17C26.2083 17.5636 25.9844 18.1041 25.5859 18.5026C25.1873 18.9011 24.6468 19.125 24.0833 19.125Z" fill="#A5EB14"/>
</svg>
