<svg width="113" height="17" viewBox="0 0 113 17" fill="none" xmlns="http://www.w3.org/2000/svg">
<path d="M11.4062 4.71875L15.875 5.375C16.25 5.4375 16.5625 5.6875 16.6875 6.0625C16.8125 6.40625 16.7188 6.8125 16.4375 7.0625L13.1875 10.2812L13.9688 14.8438C14.0312 15.2188 13.875 15.5938 13.5625 15.8125C13.25 16.0625 12.8438 16.0625 12.5 15.9062L8.5 13.75L4.46875 15.9062C4.15625 16.0625 3.71875 16.0625 3.4375 15.8125C3.125 15.5938 2.96875 15.2188 3.03125 14.8438L3.78125 10.2812L0.53125 7.0625C0.25 6.8125 0.15625 6.40625 0.28125 6.0625C0.40625 5.6875 0.71875 5.4375 1.09375 5.375L5.59375 4.71875L7.59375 0.5625C7.75 0.21875 8.09375 0 8.5 0C8.875 0 9.21875 0.21875 9.375 0.5625L11.4062 4.71875ZM35.4062 4.71875L39.875 5.375C40.25 5.4375 40.5625 5.6875 40.6875 6.0625C40.8125 6.40625 40.7188 6.8125 40.4375 7.0625L37.1875 10.2812L37.9688 14.8438C38.0312 15.2188 37.875 15.5938 37.5625 15.8125C37.25 16.0625 36.8438 16.0625 36.5 15.9062L32.5 13.75L28.4688 15.9062C28.1562 16.0625 27.7188 16.0625 27.4375 15.8125C27.125 15.5938 26.9688 15.2188 27.0312 14.8438L27.7812 10.2812L24.5312 7.0625C24.25 6.8125 24.1562 6.40625 24.2812 6.0625C24.4062 5.6875 24.7188 5.4375 25.0938 5.375L29.5938 4.71875L31.5938 0.5625C31.75 0.21875 32.0938 0 32.5 0C32.875 0 33.2188 0.21875 33.375 0.5625L35.4062 4.71875ZM59.4062 4.71875L63.875 5.375C64.25 5.4375 64.5625 5.6875 64.6875 6.0625C64.8125 6.40625 64.7188 6.8125 64.4375 7.0625L61.1875 10.2812L61.9688 14.8438C62.0312 15.2188 61.875 15.5938 61.5625 15.8125C61.25 16.0625 60.8438 16.0625 60.5 15.9062L56.5 13.75L52.4688 15.9062C52.1562 16.0625 51.7188 16.0625 51.4375 15.8125C51.125 15.5938 50.9688 15.2188 51.0312 14.8438L51.7812 10.2812L48.5312 7.0625C48.25 6.8125 48.1562 6.40625 48.2812 6.0625C48.4062 5.6875 48.7188 5.4375 49.0938 5.375L53.5938 4.71875L55.5938 0.5625C55.75 0.21875 56.0938 0 56.5 0C56.875 0 57.2188 0.21875 57.375 0.5625L59.4062 4.71875ZM83.4062 4.71875L87.875 5.375C88.25 5.4375 88.5625 5.6875 88.6875 6.0625C88.8125 6.40625 88.7188 6.8125 88.4375 7.0625L85.1875 10.2812L85.9688 14.8438C86.0312 15.2188 85.875 15.5938 85.5625 15.8125C85.25 16.0625 84.8438 16.0625 84.5 15.9062L80.5 13.75L76.4688 15.9062C76.1562 16.0625 75.7188 16.0625 75.4375 15.8125C75.125 15.5938 74.9688 15.2188 75.0312 14.8438L75.7812 10.2812L72.5312 7.0625C72.25 6.8125 72.1562 6.40625 72.2812 6.0625C72.4062 5.6875 72.7188 5.4375 73.0938 5.375L77.5938 4.71875L79.5938 0.5625C79.75 0.21875 80.0938 0 80.5 0C80.875 0 81.2188 0.21875 81.375 0.5625L83.4062 4.71875ZM107.406 4.71875L111.875 5.375C112.25 5.4375 112.562 5.6875 112.688 6.0625C112.812 6.40625 112.719 6.8125 112.438 7.0625L109.188 10.2812L109.969 14.8438C110.031 15.2188 109.875 15.5938 109.562 15.8125C109.25 16.0625 108.844 16.0625 108.5 15.9062L104.5 13.75L100.469 15.9062C100.156 16.0625 99.7188 16.0625 99.4375 15.8125C99.125 15.5938 98.9688 15.2188 99.0312 14.8438L99.7812 10.2812L96.5312 7.0625C96.25 6.8125 96.1562 6.40625 96.2812 6.0625C96.4062 5.6875 96.7188 5.4375 97.0938 5.375L101.594 4.71875L103.594 0.5625C103.75 0.21875 104.094 0 104.5 0C104.875 0 105.219 0.21875 105.375 0.5625L107.406 4.71875Z" fill="#FFAE00"/>
</svg>
