<svg width="36" height="36" viewBox="0 0 36 36" fill="none" xmlns="http://www.w3.org/2000/svg">
<path d="M17.9999 26.1C17.0949 26.1002 16.2229 25.7595 15.5578 25.1458C14.8927 24.532 14.4831 23.6902 14.4107 22.788C12.0098 21.9382 9.98639 20.2675 8.69754 18.0709C7.4087 15.8743 6.93732 13.2929 7.36663 10.7825C7.79593 8.27214 9.09832 5.99413 11.0439 4.35062C12.9894 2.7071 15.4531 1.80376 17.9999 1.80005C20.7087 1.79966 23.3188 2.81721 25.3125 4.65093C27.3063 6.48466 28.5382 9.00066 28.7639 11.7C28.7714 11.8171 28.7545 11.9345 28.7142 12.0447C28.674 12.1549 28.6112 12.2555 28.5299 12.3402C28.4487 12.4248 28.3507 12.4916 28.2422 12.5364C28.1338 12.5811 28.0172 12.6028 27.8999 12.6C27.6588 12.594 27.4286 12.4985 27.2539 12.3322C27.0793 12.1659 26.9727 11.9406 26.9549 11.7C26.7946 10.1086 26.213 8.58853 25.2701 7.29648C24.3271 6.00442 23.0569 4.98702 21.5901 4.34901C20.1233 3.71099 18.5129 3.47542 16.9248 3.66655C15.3367 3.85768 13.8283 4.46859 12.5547 5.43641C11.2812 6.40422 10.2886 7.69396 9.67913 9.17285C9.06967 10.6517 8.86535 12.2663 9.08722 13.8504C9.30908 15.4345 9.94912 16.9309 10.9414 18.1854C11.9337 19.4399 13.2425 20.4074 14.7329 20.988C15.0041 20.4021 15.4279 19.8998 15.9599 19.5339C16.4919 19.168 17.1126 18.9519 17.7568 18.9083C18.401 18.8647 19.0451 18.9951 19.6216 19.286C20.1981 19.5768 20.6857 20.0173 21.0334 20.5614C21.3811 21.1055 21.5761 21.7331 21.5979 22.3784C21.6197 23.0238 21.4676 23.6631 21.1574 24.2294C20.8472 24.7957 20.3905 25.2682 19.8349 25.5973C19.2794 25.9264 18.6456 26.1001 17.9999 26.1ZM9.0161 21.6H9.1799C10.2425 22.6425 11.4815 23.4883 12.8393 24.0984C13.2383 25.415 14.1249 26.5297 15.3178 27.2148C16.5108 27.9 17.9204 28.104 19.2586 27.7851C20.5969 27.4663 21.7631 26.6487 22.519 25.4992C23.2749 24.3498 23.5636 22.9551 23.3261 21.6H26.9999C27.9547 21.6 28.8704 21.9793 29.5455 22.6545C30.2206 23.3296 30.5999 24.2453 30.5999 25.2001C30.5999 28.2439 29.1005 30.5389 26.7569 32.0347C24.4493 33.5053 21.3389 34.2001 17.9999 34.2001C14.6609 34.2001 11.5505 33.5053 9.2429 32.0347C6.8993 30.5407 5.3999 28.2421 5.3999 25.2001C5.3999 23.1966 7.0253 21.6 9.0161 21.6ZM25.1999 12.6C25.2003 13.818 24.8917 15.0161 24.303 16.0824C23.7143 17.1486 22.8648 18.0481 21.8339 18.6966C21.3318 18.1906 20.7346 17.789 20.0765 17.515C19.4185 17.241 18.7127 17.1 17.9999 17.1C17.2871 17.1 16.5813 17.241 15.9233 17.515C15.2652 17.789 14.668 18.1906 14.1659 18.6966C12.7987 17.8368 11.7602 16.5423 11.2175 15.021C10.9406 14.2439 10.7994 13.425 10.7999 12.6C10.7999 10.6905 11.5585 8.85914 12.9087 7.50888C14.259 6.15862 16.0903 5.40005 17.9999 5.40005C19.9095 5.40005 21.7408 6.15862 23.0911 7.50888C24.4413 8.85914 25.1999 10.6905 25.1999 12.6Z" fill="#A5EB14"/>
</svg>
