<svg width="34" height="34" viewBox="0 0 34 34" fill="none" xmlns="http://www.w3.org/2000/svg">
<path d="M14.0605 29.9272L10.5543 23.4105L4.0376 19.9042L6.55218 17.4251L11.6876 18.3105L15.3001 14.698L4.07301 9.91675L7.04801 6.87091L20.6834 9.27925L25.0751 4.88758C25.6182 4.34453 26.2911 4.073 27.0938 4.073C27.8966 4.073 28.5695 4.34453 29.1126 4.88758C29.6557 5.43064 29.9272 6.09741 29.9272 6.88791C29.9272 7.67841 29.6557 8.34566 29.1126 8.88966L24.6855 13.3167L27.0938 26.9167L24.0834 29.9272L19.2668 18.7001L15.6543 22.3126L16.5751 27.4126L14.0605 29.9272Z" fill="#A5EB14"/>
</svg>
