<svg width="34" height="34" viewBox="0 0 34 34" fill="none" xmlns="http://www.w3.org/2000/svg">
<path fill-rule="evenodd" clip-rule="evenodd" d="M24.0833 2.83331C25.2105 2.83331 26.2915 3.28108 27.0885 4.07811C27.8855 4.87514 28.3333 5.95614 28.3333 7.08331V29.75C28.3331 30.0168 28.2576 30.2782 28.1154 30.504C27.9733 30.7297 27.7702 30.9108 27.5297 31.0263C27.2891 31.1417 27.0208 31.1869 26.7557 31.1566C26.4907 31.1263 26.2395 31.0217 26.0312 30.855L23.375 28.73L20.7187 30.855C20.4466 31.073 20.1036 31.183 19.7554 31.1639C19.4073 31.1448 19.0784 30.998 18.8317 30.7516L17 28.9198L15.1682 30.7516C14.9217 30.9982 14.5929 31.1453 14.2447 31.1646C13.8966 31.184 13.5535 31.0742 13.2812 30.8564L10.625 28.73L7.96871 30.855C7.76042 31.0217 7.50927 31.1263 7.24417 31.1566C6.97907 31.1869 6.71081 31.1417 6.47026 31.0263C6.22971 30.9108 6.02666 30.7297 5.88448 30.504C5.74231 30.2782 5.66679 30.0168 5.66663 29.75V7.08331C5.66663 5.95614 6.11439 4.87514 6.91142 4.07811C7.70845 3.28108 8.78946 2.83331 9.91663 2.83331H24.0833ZM17 17H12.75C12.3742 17 12.0139 17.1492 11.7482 17.4149C11.4825 17.6806 11.3333 18.0409 11.3333 18.4166C11.3333 18.7924 11.4825 19.1527 11.7482 19.4184C12.0139 19.6841 12.3742 19.8333 12.75 19.8333H17C17.3757 19.8333 17.736 19.6841 18.0017 19.4184C18.2674 19.1527 18.4166 18.7924 18.4166 18.4166C18.4166 18.0409 18.2674 17.6806 18.0017 17.4149C17.736 17.1492 17.3757 17 17 17ZM21.25 11.3333H12.75C12.3889 11.3337 12.0416 11.472 11.779 11.7198C11.5165 11.9677 11.3585 12.3065 11.3373 12.667C11.3161 13.0274 11.4334 13.3824 11.6652 13.6592C11.8969 13.9361 12.2257 14.1141 12.5842 14.1567L12.75 14.1666H21.25C21.611 14.1662 21.9583 14.028 22.2209 13.7801C22.4835 13.5322 22.6415 13.1935 22.6626 12.833C22.6838 12.4725 22.5665 12.1176 22.3348 11.8407C22.103 11.5638 21.7743 11.3859 21.4157 11.3432L21.25 11.3333Z" fill="#A5EB14"/>
</svg>
