<svg width="494" height="479" viewBox="0 0 494 479" fill="none" xmlns="http://www.w3.org/2000/svg">
<rect width="273.983" height="73.3884" rx="10" fill="white"/>
<rect x="0.5" y="0.5" width="272.983" height="72.3884" rx="9.5" stroke="#0A0C33" stroke-opacity="0.5"/>
<path d="M59.1685 28.5273C59.9045 28.9513 60.2725 29.5913 60.2725 30.4473C60.2725 31.1593 60.0205 31.7433 59.5165 32.1993C59.0125 32.6553 58.3925 32.8833 57.6565 32.8833H54.0925V24.4833H57.4045C58.1245 24.4833 58.7285 24.7073 59.2165 25.1553C59.7125 25.5953 59.9605 26.1593 59.9605 26.8473C59.9605 27.5433 59.6965 28.1033 59.1685 28.5273ZM57.4045 26.0313H55.7485V27.8793H57.4045C57.6605 27.8793 57.8725 27.7913 58.0405 27.6153C58.2165 27.4393 58.3045 27.2193 58.3045 26.9553C58.3045 26.6913 58.2205 26.4713 58.0525 26.2953C57.8845 26.1193 57.6685 26.0313 57.4045 26.0313ZM57.6565 31.3353C57.9365 31.3353 58.1685 31.2433 58.3525 31.0593C58.5365 30.8673 58.6285 30.6273 58.6285 30.3393C58.6285 30.0593 58.5365 29.8273 58.3525 29.6433C58.1685 29.4513 57.9365 29.3553 57.6565 29.3553H55.7485V31.3353H57.6565ZM65.9399 26.8833H67.4879V32.8833H65.9399V32.1753C65.4759 32.7593 64.8239 33.0513 63.9839 33.0513C63.1839 33.0513 62.4959 32.7473 61.9199 32.1393C61.3519 31.5233 61.0679 30.7713 61.0679 29.8833C61.0679 28.9953 61.3519 28.2473 61.9199 27.6393C62.4959 27.0233 63.1839 26.7153 63.9839 26.7153C64.8239 26.7153 65.4759 27.0073 65.9399 27.5913V26.8833ZM63.0839 31.1073C63.3959 31.4193 63.7919 31.5753 64.2719 31.5753C64.7519 31.5753 65.1479 31.4193 65.4599 31.1073C65.7799 30.7873 65.9399 30.3793 65.9399 29.8833C65.9399 29.3873 65.7799 28.9833 65.4599 28.6713C65.1479 28.3513 64.7519 28.1913 64.2719 28.1913C63.7919 28.1913 63.3959 28.3513 63.0839 28.6713C62.7719 28.9833 62.6159 29.3873 62.6159 29.8833C62.6159 30.3793 62.7719 30.7873 63.0839 31.1073ZM72.2276 26.7153C72.8836 26.7153 73.4236 26.9353 73.8476 27.3753C74.2796 27.8153 74.4956 28.4233 74.4956 29.1993V32.8833H72.9476V29.3913C72.9476 28.9913 72.8396 28.6873 72.6236 28.4793C72.4076 28.2633 72.1196 28.1553 71.7596 28.1553C71.3596 28.1553 71.0396 28.2793 70.7996 28.5273C70.5596 28.7753 70.4396 29.1473 70.4396 29.6433V32.8833H68.8916V26.8833H70.4396V27.5553C70.8156 26.9953 71.4116 26.7153 72.2276 26.7153ZM81.3494 32.8833H79.5494L77.3654 30.1593V32.8833H75.8174V24.4833H77.3654V29.5233L79.4294 26.8833H81.2774L78.8654 29.8473L81.3494 32.8833ZM86.7541 24.4833H88.1941V32.8833H86.5381V26.2353L84.9541 26.6793L84.5461 25.2633L86.7541 24.4833Z" fill="#1E1E1E"/>
<circle cx="26.9042" cy="36.6943" r="11.416" fill="#A5EB14"/>
<path d="M59.0127 54.4274C57.9527 54.4274 57.076 54.0774 56.3827 53.3774C55.696 52.6774 55.3527 51.8174 55.3527 50.7974C55.3527 49.7774 55.696 48.9174 56.3827 48.2174C57.076 47.5174 57.9527 47.1674 59.0127 47.1674C59.6527 47.1674 60.2393 47.3207 60.7727 47.6274C61.3127 47.934 61.7327 48.3474 62.0327 48.8674L61.2227 49.3374C61.0227 48.9507 60.7227 48.644 60.3227 48.4174C59.9293 48.184 59.4927 48.0674 59.0127 48.0674C58.206 48.0674 57.546 48.3274 57.0327 48.8474C56.526 49.3674 56.2727 50.0174 56.2727 50.7974C56.2727 51.5707 56.526 52.2174 57.0327 52.7374C57.546 53.2574 58.206 53.5174 59.0127 53.5174C59.4927 53.5174 59.9293 53.404 60.3227 53.1774C60.7227 52.944 61.0227 52.6374 61.2227 52.2574L62.0327 52.7174C61.7393 53.2374 61.3227 53.654 60.7827 53.9674C60.2427 54.274 59.6527 54.4274 59.0127 54.4274ZM66.4752 49.2974H67.3452V54.2974H66.4752V53.5774C66.1219 54.144 65.5819 54.4274 64.8552 54.4274C64.2686 54.4274 63.7986 54.244 63.4452 53.8774C63.0919 53.504 62.9152 53.0007 62.9152 52.3674V49.2974H63.7852V52.3174C63.7852 52.724 63.8952 53.0407 64.1152 53.2674C64.3352 53.4874 64.6386 53.5974 65.0252 53.5974C65.4586 53.5974 65.8086 53.464 66.0752 53.1974C66.3419 52.924 66.4752 52.5074 66.4752 51.9474V49.2974ZM69.5398 50.1374C69.8264 49.5174 70.3464 49.2074 71.0998 49.2074V50.1174C70.6731 50.0974 70.3064 50.2107 69.9998 50.4574C69.6931 50.704 69.5398 51.1007 69.5398 51.6474V54.2974H68.6698V49.2974H69.5398V50.1374ZM72.821 50.1374C73.1077 49.5174 73.6277 49.2074 74.381 49.2074V50.1174C73.9543 50.0974 73.5877 50.2107 73.281 50.4574C72.9743 50.704 72.821 51.1007 72.821 51.6474V54.2974H71.951V49.2974H72.821V50.1374ZM75.5688 52.1974C75.6555 52.644 75.8588 52.9907 76.1788 53.2374C76.5055 53.484 76.9055 53.6074 77.3788 53.6074C78.0388 53.6074 78.5188 53.364 78.8188 52.8774L79.5588 53.2974C79.0722 54.0507 78.3388 54.4274 77.3588 54.4274C76.5655 54.4274 75.9188 54.1807 75.4188 53.6874C74.9255 53.1874 74.6788 52.5574 74.6788 51.7974C74.6788 51.044 74.9222 50.4174 75.4088 49.9174C75.8955 49.4174 76.5255 49.1674 77.2988 49.1674C78.0322 49.1674 78.6288 49.4274 79.0888 49.9474C79.5555 50.4607 79.7888 51.0807 79.7888 51.8074C79.7888 51.934 79.7788 52.064 79.7588 52.1974H75.5688ZM77.2988 49.9874C76.8322 49.9874 76.4455 50.1207 76.1388 50.3874C75.8322 50.6474 75.6422 50.9974 75.5688 51.4374H78.9088C78.8355 50.964 78.6488 50.604 78.3488 50.3574C78.0488 50.1107 77.6988 49.9874 77.2988 49.9874ZM83.2789 49.1674C83.8656 49.1674 84.3356 49.354 84.6889 49.7274C85.0422 50.094 85.2189 50.594 85.2189 51.2274V54.2974H84.3489V51.2774C84.3489 50.8707 84.2389 50.5574 84.0189 50.3374C83.7989 50.1107 83.4956 49.9974 83.1089 49.9974C82.6756 49.9974 82.3256 50.134 82.0589 50.4074C81.7922 50.674 81.6589 51.0874 81.6589 51.6474V54.2974H80.7889V49.2974H81.6589V50.0174C82.0122 49.4507 82.5522 49.1674 83.2789 49.1674ZM89.1534 50.1374H87.8234V52.8474C87.8234 53.094 87.8701 53.2707 87.9634 53.3774C88.0634 53.4774 88.2134 53.5307 88.4134 53.5374C88.6134 53.5374 88.8601 53.5307 89.1534 53.5174V54.2974C88.3934 54.3974 87.8368 54.3374 87.4834 54.1174C87.1301 53.8907 86.9534 53.4674 86.9534 52.8474V50.1374H85.9634V49.2974H86.9534V48.1574L87.8234 47.8974V49.2974H89.1534V50.1374ZM95.4727 49.1674C96.1727 49.1674 96.7694 49.424 97.2627 49.9374C97.7561 50.444 98.0027 51.064 98.0027 51.7974C98.0027 52.5307 97.7561 53.154 97.2627 53.6674C96.7694 54.174 96.1727 54.4274 95.4727 54.4274C94.6461 54.4274 94.0161 54.0974 93.5827 53.4374V54.2974H92.7127V47.2974H93.5827V50.1574C94.0161 49.4974 94.6461 49.1674 95.4727 49.1674ZM95.3627 53.5874C95.8627 53.5874 96.2827 53.4174 96.6227 53.0774C96.9627 52.7307 97.1327 52.304 97.1327 51.7974C97.1327 51.2907 96.9627 50.8674 96.6227 50.5274C96.2827 50.1807 95.8627 50.0074 95.3627 50.0074C94.8561 50.0074 94.4327 50.1807 94.0927 50.5274C93.7527 50.8674 93.5827 51.2907 93.5827 51.7974C93.5827 52.304 93.7527 52.7307 94.0927 53.0774C94.4327 53.4174 94.8561 53.5874 95.3627 53.5874ZM103.181 49.2974H104.051V54.2974H103.181V53.4374C102.748 54.0974 102.118 54.4274 101.291 54.4274C100.591 54.4274 99.9942 54.174 99.5009 53.6674C99.0075 53.154 98.7609 52.5307 98.7609 51.7974C98.7609 51.064 99.0075 50.444 99.5009 49.9374C99.9942 49.424 100.591 49.1674 101.291 49.1674C102.118 49.1674 102.748 49.4974 103.181 50.1574V49.2974ZM101.401 53.5874C101.908 53.5874 102.331 53.4174 102.671 53.0774C103.011 52.7307 103.181 52.304 103.181 51.7974C103.181 51.2907 103.011 50.8674 102.671 50.5274C102.331 50.1807 101.908 50.0074 101.401 50.0074C100.901 50.0074 100.481 50.1807 100.141 50.5274C99.8009 50.8674 99.6309 51.2907 99.6309 51.7974C99.6309 52.304 99.8009 52.7307 100.141 53.0774C100.481 53.4174 100.901 53.5874 101.401 53.5874ZM105.369 54.2974V46.9974H106.239V54.2974H105.369ZM111.706 49.2974H112.576V54.2974H111.706V53.4374C111.273 54.0974 110.643 54.4274 109.816 54.4274C109.116 54.4274 108.52 54.174 108.026 53.6674C107.533 53.154 107.286 52.5307 107.286 51.7974C107.286 51.064 107.533 50.444 108.026 49.9374C108.52 49.424 109.116 49.1674 109.816 49.1674C110.643 49.1674 111.273 49.4974 111.706 50.1574V49.2974ZM109.926 53.5874C110.433 53.5874 110.856 53.4174 111.196 53.0774C111.536 52.7307 111.706 52.304 111.706 51.7974C111.706 51.2907 111.536 50.8674 111.196 50.5274C110.856 50.1807 110.433 50.0074 109.926 50.0074C109.426 50.0074 109.006 50.1807 108.666 50.5274C108.326 50.8674 108.156 51.2907 108.156 51.7974C108.156 52.304 108.326 52.7307 108.666 53.0774C109.006 53.4174 109.426 53.5874 109.926 53.5874ZM116.384 49.1674C116.971 49.1674 117.441 49.354 117.794 49.7274C118.148 50.094 118.324 50.594 118.324 51.2274V54.2974H117.454V51.2774C117.454 50.8707 117.344 50.5574 117.124 50.3374C116.904 50.1107 116.601 49.9974 116.214 49.9974C115.781 49.9974 115.431 50.134 115.164 50.4074C114.898 50.674 114.764 51.0874 114.764 51.6474V54.2974H113.894V49.2974H114.764V50.0174C115.118 49.4507 115.658 49.1674 116.384 49.1674ZM121.889 54.4274C121.136 54.4274 120.509 54.1774 120.009 53.6774C119.509 53.1707 119.259 52.544 119.259 51.7974C119.259 51.0507 119.509 50.4274 120.009 49.9274C120.509 49.4207 121.136 49.1674 121.889 49.1674C122.382 49.1674 122.826 49.2874 123.219 49.5274C123.612 49.7607 123.906 50.0774 124.099 50.4774L123.369 50.8974C123.242 50.6307 123.046 50.4174 122.779 50.2574C122.519 50.0974 122.222 50.0174 121.889 50.0174C121.389 50.0174 120.969 50.1874 120.629 50.5274C120.296 50.8674 120.129 51.2907 120.129 51.7974C120.129 52.2974 120.296 52.7174 120.629 53.0574C120.969 53.3974 121.389 53.5674 121.889 53.5674C122.222 53.5674 122.522 53.4907 122.789 53.3374C123.056 53.1774 123.259 52.964 123.399 52.6974L124.139 53.1274C123.926 53.5207 123.619 53.8374 123.219 54.0774C122.819 54.3107 122.376 54.4274 121.889 54.4274ZM125.54 52.1974C125.626 52.644 125.83 52.9907 126.15 53.2374C126.476 53.484 126.876 53.6074 127.35 53.6074C128.01 53.6074 128.49 53.364 128.79 52.8774L129.53 53.2974C129.043 54.0507 128.31 54.4274 127.33 54.4274C126.536 54.4274 125.89 54.1807 125.39 53.6874C124.896 53.1874 124.65 52.5574 124.65 51.7974C124.65 51.044 124.893 50.4174 125.38 49.9174C125.866 49.4174 126.496 49.1674 127.27 49.1674C128.003 49.1674 128.6 49.4274 129.06 49.9474C129.526 50.4607 129.76 51.0807 129.76 51.8074C129.76 51.934 129.75 52.064 129.73 52.1974H125.54ZM127.27 49.9874C126.803 49.9874 126.416 50.1207 126.11 50.3874C125.803 50.6474 125.613 50.9974 125.54 51.4374H128.88C128.806 50.964 128.62 50.604 128.32 50.3574C128.02 50.1107 127.67 49.9874 127.27 49.9874ZM137.78 54.2974L135.89 50.9974V50.5574H136.11C136.463 50.5574 136.76 50.524 137 50.4574C137.246 50.3907 137.44 50.2807 137.58 50.1274C137.72 49.974 137.803 49.764 137.83 49.4974H135.89V48.8574H137.82C137.773 48.6107 137.68 48.4107 137.54 48.2574C137.4 48.0974 137.21 47.9807 136.97 47.9074C136.736 47.834 136.45 47.7974 136.11 47.7974H135.89V47.1574H140.03V47.7974H138.14C138.293 47.924 138.42 48.074 138.52 48.2474C138.62 48.4207 138.683 48.624 138.71 48.8574H140.03V49.4974H138.73C138.683 49.984 138.496 50.364 138.17 50.6374C137.85 50.904 137.423 51.074 136.89 51.1474L138.8 54.2974H137.78ZM142.802 47.2974H143.602V54.2974H142.682V48.2974L141.192 48.7374L140.962 47.9374L142.802 47.2974ZM147.087 50.0274C147.747 50.0274 148.303 50.224 148.757 50.6174C149.217 51.004 149.447 51.5407 149.447 52.2274C149.447 52.9074 149.213 53.444 148.747 53.8374C148.28 54.2307 147.713 54.4274 147.047 54.4274C146.513 54.4274 146.037 54.3007 145.617 54.0474C145.197 53.7874 144.903 53.414 144.737 52.9274L145.527 52.4774C145.62 52.8174 145.8 53.0774 146.067 53.2574C146.333 53.4307 146.66 53.5174 147.047 53.5174C147.487 53.5174 147.843 53.404 148.117 53.1774C148.39 52.9507 148.527 52.634 148.527 52.2274C148.527 51.8207 148.39 51.504 148.117 51.2774C147.843 51.044 147.493 50.9274 147.067 50.9274H145.087L145.347 47.2974H149.177V48.1674H146.187L146.067 50.0274H147.087ZM151.581 53.2674L150.931 55.6974H150.181L150.581 53.2674H151.581ZM157.74 52.0974V52.9674H156.89V54.2974H155.96V52.9674H152.39V52.0974L154.9 47.2974H155.9L153.39 52.0974H155.96V50.1174H156.89V52.0974H157.74ZM163.091 53.4374C162.618 54.0974 161.955 54.4274 161.101 54.4274C160.248 54.4274 159.585 54.0974 159.111 53.4374C158.638 52.7774 158.401 51.8974 158.401 50.7974C158.401 49.6974 158.638 48.8174 159.111 48.1574C159.585 47.4974 160.248 47.1674 161.101 47.1674C161.955 47.1674 162.618 47.4974 163.091 48.1574C163.565 48.8174 163.801 49.6974 163.801 50.7974C163.801 51.8974 163.565 52.7774 163.091 53.4374ZM159.791 52.8074C160.098 53.2807 160.535 53.5174 161.101 53.5174C161.668 53.5174 162.105 53.2807 162.411 52.8074C162.725 52.334 162.881 51.664 162.881 50.7974C162.881 49.9307 162.725 49.2607 162.411 48.7874C162.105 48.3074 161.668 48.0674 161.101 48.0674C160.535 48.0674 160.098 48.304 159.791 48.7774C159.485 49.2507 159.331 49.924 159.331 50.7974C159.331 51.664 159.485 52.334 159.791 52.8074ZM169.39 53.4374C168.917 54.0974 168.253 54.4274 167.4 54.4274C166.547 54.4274 165.883 54.0974 165.41 53.4374C164.937 52.7774 164.7 51.8974 164.7 50.7974C164.7 49.6974 164.937 48.8174 165.41 48.1574C165.883 47.4974 166.547 47.1674 167.4 47.1674C168.253 47.1674 168.917 47.4974 169.39 48.1574C169.863 48.8174 170.1 49.6974 170.1 50.7974C170.1 51.8974 169.863 52.7774 169.39 53.4374ZM166.09 52.8074C166.397 53.2807 166.833 53.5174 167.4 53.5174C167.967 53.5174 168.403 53.2807 168.71 52.8074C169.023 52.334 169.18 51.664 169.18 50.7974C169.18 49.9307 169.023 49.2607 168.71 48.7874C168.403 48.3074 167.967 48.0674 167.4 48.0674C166.833 48.0674 166.397 48.304 166.09 48.7774C165.783 49.2507 165.63 49.924 165.63 50.7974C165.63 51.664 165.783 52.334 166.09 52.8074ZM171.456 54.4074C171.276 54.4074 171.123 54.344 170.996 54.2174C170.869 54.0907 170.806 53.9374 170.806 53.7574C170.806 53.5774 170.869 53.424 170.996 53.2974C171.123 53.1707 171.276 53.1074 171.456 53.1074C171.643 53.1074 171.796 53.1707 171.916 53.2974C172.043 53.424 172.106 53.5774 172.106 53.7574C172.106 53.9374 172.043 54.0907 171.916 54.2174C171.796 54.344 171.643 54.4074 171.456 54.4074ZM177.515 53.4374C177.042 54.0974 176.378 54.4274 175.525 54.4274C174.672 54.4274 174.008 54.0974 173.535 53.4374C173.062 52.7774 172.825 51.8974 172.825 50.7974C172.825 49.6974 173.062 48.8174 173.535 48.1574C174.008 47.4974 174.672 47.1674 175.525 47.1674C176.378 47.1674 177.042 47.4974 177.515 48.1574C177.988 48.8174 178.225 49.6974 178.225 50.7974C178.225 51.8974 177.988 52.7774 177.515 53.4374ZM174.215 52.8074C174.522 53.2807 174.958 53.5174 175.525 53.5174C176.092 53.5174 176.528 53.2807 176.835 52.8074C177.148 52.334 177.305 51.664 177.305 50.7974C177.305 49.9307 177.148 49.2607 176.835 48.7874C176.528 48.3074 176.092 48.0674 175.525 48.0674C174.958 48.0674 174.522 48.304 174.215 48.7774C173.908 49.2507 173.755 49.924 173.755 50.7974C173.755 51.664 173.908 52.334 174.215 52.8074ZM183.814 53.4374C183.34 54.0974 182.677 54.4274 181.824 54.4274C180.97 54.4274 180.307 54.0974 179.834 53.4374C179.36 52.7774 179.124 51.8974 179.124 50.7974C179.124 49.6974 179.36 48.8174 179.834 48.1574C180.307 47.4974 180.97 47.1674 181.824 47.1674C182.677 47.1674 183.34 47.4974 183.814 48.1574C184.287 48.8174 184.524 49.6974 184.524 50.7974C184.524 51.8974 184.287 52.7774 183.814 53.4374ZM180.514 52.8074C180.82 53.2807 181.257 53.5174 181.824 53.5174C182.39 53.5174 182.827 53.2807 183.134 52.8074C183.447 52.334 183.604 51.664 183.604 50.7974C183.604 49.9307 183.447 49.2607 183.134 48.7874C182.827 48.3074 182.39 48.0674 181.824 48.0674C181.257 48.0674 180.82 48.304 180.514 48.7774C180.207 49.2507 180.054 49.924 180.054 50.7974C180.054 51.664 180.207 52.334 180.514 52.8074Z" fill="#1E1E1E"/>
<rect x="19.2832" y="82.78" width="235.415" height="63.0576" rx="10" fill="white"/>
<rect x="19.7832" y="83.28" width="234.415" height="62.0576" rx="9.5" stroke="#0A0C33" stroke-opacity="0.1"/>
<path d="M70.9478 108.153C71.6838 108.577 72.0518 109.217 72.0518 110.073C72.0518 110.785 71.7998 111.369 71.2958 111.825C70.7918 112.281 70.1718 112.509 69.4358 112.509H65.8718V104.109H69.1838C69.9038 104.109 70.5078 104.333 70.9958 104.781C71.4918 105.221 71.7398 105.785 71.7398 106.473C71.7398 107.169 71.4758 107.729 70.9478 108.153ZM69.1838 105.657H67.5278V107.505H69.1838C69.4398 107.505 69.6518 107.417 69.8198 107.241C69.9958 107.065 70.0838 106.845 70.0838 106.581C70.0838 106.317 69.9998 106.097 69.8318 105.921C69.6638 105.745 69.4478 105.657 69.1838 105.657ZM69.4358 110.961C69.7158 110.961 69.9478 110.869 70.1318 110.685C70.3158 110.493 70.4078 110.253 70.4078 109.965C70.4078 109.685 70.3158 109.453 70.1318 109.269C69.9478 109.077 69.7158 108.981 69.4358 108.981H67.5278V110.961H69.4358ZM77.7192 106.509H79.2672V112.509H77.7192V111.801C77.2552 112.385 76.6032 112.677 75.7632 112.677C74.9632 112.677 74.2752 112.373 73.6992 111.765C73.1312 111.149 72.8472 110.397 72.8472 109.509C72.8472 108.621 73.1312 107.873 73.6992 107.265C74.2752 106.649 74.9632 106.341 75.7632 106.341C76.6032 106.341 77.2552 106.633 77.7192 107.217V106.509ZM74.8632 110.733C75.1752 111.045 75.5712 111.201 76.0512 111.201C76.5312 111.201 76.9272 111.045 77.2392 110.733C77.5592 110.413 77.7192 110.005 77.7192 109.509C77.7192 109.013 77.5592 108.609 77.2392 108.297C76.9272 107.977 76.5312 107.817 76.0512 107.817C75.5712 107.817 75.1752 107.977 74.8632 108.297C74.5512 108.609 74.3952 109.013 74.3952 109.509C74.3952 110.005 74.5512 110.413 74.8632 110.733ZM84.0069 106.341C84.6629 106.341 85.2029 106.561 85.6269 107.001C86.0589 107.441 86.2749 108.049 86.2749 108.825V112.509H84.7269V109.017C84.7269 108.617 84.6189 108.313 84.4029 108.105C84.1869 107.889 83.8989 107.781 83.5389 107.781C83.1389 107.781 82.8189 107.905 82.5789 108.153C82.3389 108.401 82.2189 108.773 82.2189 109.269V112.509H80.6709V106.509H82.2189V107.181C82.5949 106.621 83.1909 106.341 84.0069 106.341ZM93.1287 112.509H91.3287L89.1447 109.785V112.509H87.5967V104.109H89.1447V109.149L91.2087 106.509H93.0567L90.6447 109.473L93.1287 112.509ZM96.5174 112.509V111.273L99.3854 108.321C100.025 107.649 100.345 107.089 100.345 106.641C100.345 106.313 100.241 106.049 100.033 105.849C99.8334 105.649 99.5734 105.549 99.2534 105.549C98.6214 105.549 98.1534 105.877 97.8494 106.533L96.4574 105.717C96.7214 105.141 97.1014 104.701 97.5974 104.397C98.0934 104.093 98.6374 103.941 99.2294 103.941C99.9894 103.941 100.641 104.181 101.185 104.661C101.729 105.133 102.001 105.773 102.001 106.581C102.001 107.453 101.541 108.349 100.621 109.269L98.9774 110.913H102.133V112.509H96.5174Z" fill="#1E1E1E"/>
<circle cx="42.4027" cy="114.309" r="9.80896" fill="#A5EB14"/>
<path d="M72.2047 128.401C71.3567 128.401 70.6553 128.121 70.1007 127.561C69.5513 127.001 69.2767 126.313 69.2767 125.497C69.2767 124.681 69.5513 123.993 70.1007 123.433C70.6553 122.873 71.3567 122.593 72.2047 122.593C72.7167 122.593 73.186 122.716 73.6127 122.961C74.0447 123.207 74.3807 123.537 74.6207 123.953L73.9727 124.329C73.8127 124.02 73.5727 123.775 73.2527 123.593C72.938 123.407 72.5887 123.313 72.2047 123.313C71.5593 123.313 71.0313 123.521 70.6207 123.937C70.2153 124.353 70.0127 124.873 70.0127 125.497C70.0127 126.116 70.2153 126.633 70.6207 127.049C71.0313 127.465 71.5593 127.673 72.2047 127.673C72.5887 127.673 72.938 127.583 73.2527 127.401C73.5727 127.215 73.8127 126.969 73.9727 126.665L74.6207 127.033C74.386 127.449 74.0527 127.783 73.6207 128.033C73.1887 128.279 72.7167 128.401 72.2047 128.401ZM78.1747 124.297H78.8707V128.297H78.1747V127.721C77.8921 128.175 77.4601 128.401 76.8787 128.401C76.4094 128.401 76.0334 128.255 75.7507 127.961C75.4681 127.663 75.3267 127.26 75.3267 126.753V124.297H76.0227V126.713C76.0227 127.039 76.1107 127.292 76.2867 127.473C76.4627 127.649 76.7054 127.737 77.0147 127.737C77.3614 127.737 77.6414 127.631 77.8547 127.417C78.0681 127.199 78.1747 126.865 78.1747 126.417V124.297ZM80.6263 124.969C80.8557 124.473 81.2717 124.225 81.8743 124.225V124.953C81.533 124.937 81.2397 125.028 80.9943 125.225C80.749 125.423 80.6263 125.74 80.6263 126.177V128.297H79.9303V124.297H80.6263V124.969ZM83.2513 124.969C83.4807 124.473 83.8967 124.225 84.4993 124.225V124.953C84.158 124.937 83.8647 125.028 83.6193 125.225C83.374 125.423 83.2513 125.74 83.2513 126.177V128.297H82.5553V124.297H83.2513V124.969ZM85.4496 126.617C85.5189 126.975 85.6816 127.252 85.9376 127.449C86.1989 127.647 86.5189 127.745 86.8976 127.745C87.4256 127.745 87.8096 127.551 88.0496 127.161L88.6416 127.497C88.2523 128.1 87.6656 128.401 86.8816 128.401C86.2469 128.401 85.7296 128.204 85.3296 127.809C84.9349 127.409 84.7376 126.905 84.7376 126.297C84.7376 125.695 84.9323 125.193 85.3216 124.793C85.7109 124.393 86.2149 124.193 86.8336 124.193C87.4203 124.193 87.8976 124.401 88.2656 124.817C88.6389 125.228 88.8256 125.724 88.8256 126.305C88.8256 126.407 88.8176 126.511 88.8016 126.617H85.4496ZM86.8336 124.849C86.4603 124.849 86.1509 124.956 85.9056 125.169C85.6603 125.377 85.5083 125.657 85.4496 126.009H88.1216C88.0629 125.631 87.9136 125.343 87.6736 125.145C87.4336 124.948 87.1536 124.849 86.8336 124.849ZM91.6177 124.193C92.087 124.193 92.463 124.343 92.7457 124.641C93.0283 124.935 93.1697 125.335 93.1697 125.841V128.297H92.4737V125.881C92.4737 125.556 92.3857 125.305 92.2097 125.129C92.0337 124.948 91.791 124.857 91.4817 124.857C91.135 124.857 90.855 124.967 90.6417 125.185C90.4283 125.399 90.3217 125.729 90.3217 126.177V128.297H89.6257V124.297H90.3217V124.873C90.6043 124.42 91.0363 124.193 91.6177 124.193ZM96.3173 124.969H95.2533V127.137C95.2533 127.335 95.2906 127.476 95.3653 127.561C95.4453 127.641 95.5653 127.684 95.7253 127.689C95.8853 127.689 96.0826 127.684 96.3173 127.673V128.297C95.7093 128.377 95.2639 128.329 94.9813 128.153C94.6986 127.972 94.5573 127.633 94.5573 127.137V124.969H93.7653V124.297H94.5573V123.385L95.2533 123.177V124.297H96.3173V124.969ZM101.373 124.193C101.933 124.193 102.41 124.399 102.805 124.809C103.199 125.215 103.397 125.711 103.397 126.297C103.397 126.884 103.199 127.383 102.805 127.793C102.41 128.199 101.933 128.401 101.373 128.401C100.711 128.401 100.207 128.137 99.8607 127.609V128.297H99.1647V122.697H99.8607V124.985C100.207 124.457 100.711 124.193 101.373 124.193ZM101.285 127.729C101.685 127.729 102.021 127.593 102.293 127.321C102.565 127.044 102.701 126.703 102.701 126.297C102.701 125.892 102.565 125.553 102.293 125.281C102.021 125.004 101.685 124.865 101.285 124.865C100.879 124.865 100.541 125.004 100.269 125.281C99.9967 125.553 99.8607 125.892 99.8607 126.297C99.8607 126.703 99.9967 127.044 100.269 127.321C100.541 127.593 100.879 127.729 101.285 127.729ZM107.539 124.297H108.235V128.297H107.539V127.609C107.193 128.137 106.689 128.401 106.027 128.401C105.467 128.401 104.99 128.199 104.595 127.793C104.201 127.383 104.003 126.884 104.003 126.297C104.003 125.711 104.201 125.215 104.595 124.809C104.99 124.399 105.467 124.193 106.027 124.193C106.689 124.193 107.193 124.457 107.539 124.985V124.297ZM106.115 127.729C106.521 127.729 106.859 127.593 107.131 127.321C107.403 127.044 107.539 126.703 107.539 126.297C107.539 125.892 107.403 125.553 107.131 125.281C106.859 125.004 106.521 124.865 106.115 124.865C105.715 124.865 105.379 125.004 105.107 125.281C104.835 125.553 104.699 125.892 104.699 126.297C104.699 126.703 104.835 127.044 105.107 127.321C105.379 127.593 105.715 127.729 106.115 127.729ZM109.29 128.297V122.457H109.986V128.297H109.29ZM114.36 124.297H115.056V128.297H114.36V127.609C114.013 128.137 113.509 128.401 112.848 128.401C112.288 128.401 111.81 128.199 111.416 127.793C111.021 127.383 110.824 126.884 110.824 126.297C110.824 125.711 111.021 125.215 111.416 124.809C111.81 124.399 112.288 124.193 112.848 124.193C113.509 124.193 114.013 124.457 114.36 124.985V124.297ZM112.936 127.729C113.341 127.729 113.68 127.593 113.952 127.321C114.224 127.044 114.36 126.703 114.36 126.297C114.36 125.892 114.224 125.553 113.952 125.281C113.68 125.004 113.341 124.865 112.936 124.865C112.536 124.865 112.2 125.004 111.928 125.281C111.656 125.553 111.52 125.892 111.52 126.297C111.52 126.703 111.656 127.044 111.928 127.321C112.2 127.593 112.536 127.729 112.936 127.729ZM118.102 124.193C118.571 124.193 118.947 124.343 119.23 124.641C119.513 124.935 119.654 125.335 119.654 125.841V128.297H118.958V125.881C118.958 125.556 118.87 125.305 118.694 125.129C118.518 124.948 118.275 124.857 117.966 124.857C117.619 124.857 117.339 124.967 117.126 125.185C116.913 125.399 116.806 125.729 116.806 126.177V128.297H116.11V124.297H116.806V124.873C117.089 124.42 117.521 124.193 118.102 124.193ZM122.506 128.401C121.903 128.401 121.402 128.201 121.002 127.801C120.602 127.396 120.402 126.895 120.402 126.297C120.402 125.7 120.602 125.201 121.002 124.801C121.402 124.396 121.903 124.193 122.506 124.193C122.9 124.193 123.255 124.289 123.57 124.481C123.884 124.668 124.119 124.921 124.274 125.241L123.69 125.577C123.588 125.364 123.431 125.193 123.218 125.065C123.01 124.937 122.772 124.873 122.506 124.873C122.106 124.873 121.77 125.009 121.498 125.281C121.231 125.553 121.098 125.892 121.098 126.297C121.098 126.697 121.231 127.033 121.498 127.305C121.77 127.577 122.106 127.713 122.506 127.713C122.772 127.713 123.012 127.652 123.226 127.529C123.439 127.401 123.602 127.231 123.714 127.017L124.306 127.361C124.135 127.676 123.89 127.929 123.57 128.121C123.25 128.308 122.895 128.401 122.506 128.401ZM125.426 126.617C125.495 126.975 125.658 127.252 125.914 127.449C126.175 127.647 126.495 127.745 126.874 127.745C127.402 127.745 127.786 127.551 128.026 127.161L128.618 127.497C128.229 128.1 127.642 128.401 126.858 128.401C126.223 128.401 125.706 128.204 125.306 127.809C124.911 127.409 124.714 126.905 124.714 126.297C124.714 125.695 124.909 125.193 125.298 124.793C125.687 124.393 126.191 124.193 126.81 124.193C127.397 124.193 127.874 124.401 128.242 124.817C128.615 125.228 128.802 125.724 128.802 126.305C128.802 126.407 128.794 126.511 128.778 126.617H125.426ZM126.81 124.849C126.437 124.849 126.127 124.956 125.882 125.169C125.637 125.377 125.485 125.657 125.426 126.009H128.098C128.039 125.631 127.89 125.343 127.65 125.145C127.41 124.948 127.13 124.849 126.81 124.849ZM135.218 128.297L133.706 125.657V125.305H133.882C134.165 125.305 134.402 125.279 134.594 125.225C134.792 125.172 134.946 125.084 135.058 124.961C135.17 124.839 135.237 124.671 135.258 124.457H133.706V123.945H135.25C135.213 123.748 135.138 123.588 135.026 123.465C134.914 123.337 134.762 123.244 134.57 123.185C134.384 123.127 134.154 123.097 133.882 123.097H133.706V122.585H137.018V123.097H135.506C135.629 123.199 135.73 123.319 135.81 123.457C135.89 123.596 135.941 123.759 135.962 123.945H137.018V124.457H135.978C135.941 124.847 135.792 125.151 135.53 125.369C135.274 125.583 134.933 125.719 134.506 125.777L136.034 128.297H135.218ZM139.236 122.697H139.876V128.297H139.14V123.497L137.948 123.849L137.764 123.209L139.236 122.697ZM142.664 124.881C143.192 124.881 143.637 125.039 144 125.353C144.368 125.663 144.552 126.092 144.552 126.641C144.552 127.185 144.365 127.615 143.992 127.929C143.619 128.244 143.165 128.401 142.632 128.401C142.205 128.401 141.824 128.3 141.488 128.097C141.152 127.889 140.917 127.591 140.784 127.201L141.416 126.841C141.491 127.113 141.635 127.321 141.848 127.465C142.061 127.604 142.323 127.673 142.632 127.673C142.984 127.673 143.269 127.583 143.488 127.401C143.707 127.22 143.816 126.967 143.816 126.641C143.816 126.316 143.707 126.063 143.488 125.881C143.269 125.695 142.989 125.601 142.648 125.601H141.064L141.272 122.697H144.336V123.393H141.944L141.848 124.881H142.664ZM146.259 127.473L145.739 129.417H145.139L145.459 127.473H146.259ZM151.187 126.537V127.233H150.507V128.297H149.763V127.233H146.907V126.537L148.915 122.697H149.715L147.707 126.537H149.763V124.953H150.507V126.537H151.187ZM155.467 127.609C155.089 128.137 154.558 128.401 153.875 128.401C153.193 128.401 152.662 128.137 152.283 127.609C151.905 127.081 151.715 126.377 151.715 125.497C151.715 124.617 151.905 123.913 152.283 123.385C152.662 122.857 153.193 122.593 153.875 122.593C154.558 122.593 155.089 122.857 155.467 123.385C155.846 123.913 156.035 124.617 156.035 125.497C156.035 126.377 155.846 127.081 155.467 127.609ZM152.827 127.105C153.073 127.484 153.422 127.673 153.875 127.673C154.329 127.673 154.678 127.484 154.923 127.105C155.174 126.727 155.299 126.191 155.299 125.497C155.299 124.804 155.174 124.268 154.923 123.889C154.678 123.505 154.329 123.313 153.875 123.313C153.422 123.313 153.073 123.503 152.827 123.881C152.582 124.26 152.459 124.799 152.459 125.497C152.459 126.191 152.582 126.727 152.827 127.105ZM160.507 127.609C160.128 128.137 159.597 128.401 158.915 128.401C158.232 128.401 157.701 128.137 157.323 127.609C156.944 127.081 156.755 126.377 156.755 125.497C156.755 124.617 156.944 123.913 157.323 123.385C157.701 122.857 158.232 122.593 158.915 122.593C159.597 122.593 160.128 122.857 160.507 123.385C160.885 123.913 161.075 124.617 161.075 125.497C161.075 126.377 160.885 127.081 160.507 127.609ZM157.867 127.105C158.112 127.484 158.461 127.673 158.915 127.673C159.368 127.673 159.717 127.484 159.963 127.105C160.213 126.727 160.339 126.191 160.339 125.497C160.339 124.804 160.213 124.268 159.963 123.889C159.717 123.505 159.368 123.313 158.915 123.313C158.461 123.313 158.112 123.503 157.867 123.881C157.621 124.26 157.499 124.799 157.499 125.497C157.499 126.191 157.621 126.727 157.867 127.105ZM162.159 128.385C162.015 128.385 161.893 128.335 161.791 128.233C161.69 128.132 161.639 128.009 161.639 127.865C161.639 127.721 161.69 127.599 161.791 127.497C161.893 127.396 162.015 127.345 162.159 127.345C162.309 127.345 162.431 127.396 162.527 127.497C162.629 127.599 162.679 127.721 162.679 127.865C162.679 128.009 162.629 128.132 162.527 128.233C162.431 128.335 162.309 128.385 162.159 128.385ZM167.007 127.609C166.628 128.137 166.097 128.401 165.415 128.401C164.732 128.401 164.201 128.137 163.823 127.609C163.444 127.081 163.255 126.377 163.255 125.497C163.255 124.617 163.444 123.913 163.823 123.385C164.201 122.857 164.732 122.593 165.415 122.593C166.097 122.593 166.628 122.857 167.007 123.385C167.385 123.913 167.575 124.617 167.575 125.497C167.575 126.377 167.385 127.081 167.007 127.609ZM164.367 127.105C164.612 127.484 164.961 127.673 165.415 127.673C165.868 127.673 166.217 127.484 166.463 127.105C166.713 126.727 166.839 126.191 166.839 125.497C166.839 124.804 166.713 124.268 166.463 123.889C166.217 123.505 165.868 123.313 165.415 123.313C164.961 123.313 164.612 123.503 164.367 123.881C164.121 124.26 163.999 124.799 163.999 125.497C163.999 126.191 164.121 126.727 164.367 127.105ZM172.046 127.609C171.667 128.137 171.136 128.401 170.454 128.401C169.771 128.401 169.24 128.137 168.862 127.609C168.483 127.081 168.294 126.377 168.294 125.497C168.294 124.617 168.483 123.913 168.862 123.385C169.24 122.857 169.771 122.593 170.454 122.593C171.136 122.593 171.667 122.857 172.046 123.385C172.424 123.913 172.614 124.617 172.614 125.497C172.614 126.377 172.424 127.081 172.046 127.609ZM169.406 127.105C169.651 127.484 170 127.673 170.454 127.673C170.907 127.673 171.256 127.484 171.502 127.105C171.752 126.727 171.878 126.191 171.878 125.497C171.878 124.804 171.752 124.268 171.502 123.889C171.256 123.505 170.907 123.313 170.454 123.313C170 123.313 169.651 123.503 169.406 123.881C169.16 124.26 169.038 124.799 169.038 125.497C169.038 126.191 169.16 126.727 169.406 127.105Z" fill="#1E1E1E"/>
<rect x="19.2832" y="155.229" width="235.415" height="63.0576" rx="10" fill="white"/>
<rect x="19.7832" y="155.729" width="234.415" height="62.0576" rx="9.5" stroke="#0A0C33" stroke-opacity="0.1"/>
<path d="M70.9478 181.467C71.6838 181.891 72.0518 182.531 72.0518 183.387C72.0518 184.099 71.7998 184.683 71.2958 185.139C70.7918 185.595 70.1718 185.823 69.4358 185.823H65.8718V177.423H69.1838C69.9038 177.423 70.5078 177.647 70.9958 178.095C71.4918 178.535 71.7398 179.099 71.7398 179.787C71.7398 180.483 71.4758 181.043 70.9478 181.467ZM69.1838 178.971H67.5278V180.819H69.1838C69.4398 180.819 69.6518 180.731 69.8198 180.555C69.9958 180.379 70.0838 180.159 70.0838 179.895C70.0838 179.631 69.9998 179.411 69.8318 179.235C69.6638 179.059 69.4478 178.971 69.1838 178.971ZM69.4358 184.275C69.7158 184.275 69.9478 184.183 70.1318 183.999C70.3158 183.807 70.4078 183.567 70.4078 183.279C70.4078 182.999 70.3158 182.767 70.1318 182.583C69.9478 182.391 69.7158 182.295 69.4358 182.295H67.5278V184.275H69.4358ZM77.7192 179.823H79.2672V185.823H77.7192V185.115C77.2552 185.699 76.6032 185.991 75.7632 185.991C74.9632 185.991 74.2752 185.687 73.6992 185.079C73.1312 184.463 72.8472 183.711 72.8472 182.823C72.8472 181.935 73.1312 181.187 73.6992 180.579C74.2752 179.963 74.9632 179.655 75.7632 179.655C76.6032 179.655 77.2552 179.947 77.7192 180.531V179.823ZM74.8632 184.047C75.1752 184.359 75.5712 184.515 76.0512 184.515C76.5312 184.515 76.9272 184.359 77.2392 184.047C77.5592 183.727 77.7192 183.319 77.7192 182.823C77.7192 182.327 77.5592 181.923 77.2392 181.611C76.9272 181.291 76.5312 181.131 76.0512 181.131C75.5712 181.131 75.1752 181.291 74.8632 181.611C74.5512 181.923 74.3952 182.327 74.3952 182.823C74.3952 183.319 74.5512 183.727 74.8632 184.047ZM84.0069 179.655C84.6629 179.655 85.2029 179.875 85.6269 180.315C86.0589 180.755 86.2749 181.363 86.2749 182.139V185.823H84.7269V182.331C84.7269 181.931 84.6189 181.627 84.4029 181.419C84.1869 181.203 83.8989 181.095 83.5389 181.095C83.1389 181.095 82.8189 181.219 82.5789 181.467C82.3389 181.715 82.2189 182.087 82.2189 182.583V185.823H80.6709V179.823H82.2189V180.495C82.5949 179.935 83.1909 179.655 84.0069 179.655ZM93.1287 185.823H91.3287L89.1447 183.099V185.823H87.5967V177.423H89.1447V182.463L91.2087 179.823H93.0567L90.6447 182.787L93.1287 185.823ZM100.429 180.831C100.997 180.999 101.457 181.295 101.809 181.719C102.169 182.135 102.349 182.639 102.349 183.231C102.349 184.095 102.057 184.771 101.473 185.259C100.897 185.747 100.189 185.991 99.3494 185.991C98.6934 185.991 98.1054 185.843 97.5854 185.547C97.0734 185.243 96.7014 184.799 96.4694 184.215L97.8854 183.399C98.0934 184.047 98.5814 184.371 99.3494 184.371C99.7734 184.371 100.101 184.271 100.333 184.071C100.573 183.863 100.693 183.583 100.693 183.231C100.693 182.887 100.573 182.611 100.333 182.403C100.101 182.195 99.7734 182.091 99.3494 182.091H98.9894L98.3534 181.131L100.009 178.971H96.7214V177.423H102.001V178.791L100.429 180.831Z" fill="#1E1E1E"/>
<circle cx="42.4027" cy="186.758" r="9.80896" fill="#A5EB14"/>
<path d="M72.2047 200.401C71.3567 200.401 70.6553 200.121 70.1007 199.561C69.5513 199.001 69.2767 198.313 69.2767 197.497C69.2767 196.681 69.5513 195.993 70.1007 195.433C70.6553 194.873 71.3567 194.593 72.2047 194.593C72.7167 194.593 73.186 194.716 73.6127 194.961C74.0447 195.207 74.3807 195.537 74.6207 195.953L73.9727 196.329C73.8127 196.02 73.5727 195.775 73.2527 195.593C72.938 195.407 72.5887 195.313 72.2047 195.313C71.5593 195.313 71.0313 195.521 70.6207 195.937C70.2153 196.353 70.0127 196.873 70.0127 197.497C70.0127 198.116 70.2153 198.633 70.6207 199.049C71.0313 199.465 71.5593 199.673 72.2047 199.673C72.5887 199.673 72.938 199.583 73.2527 199.401C73.5727 199.215 73.8127 198.969 73.9727 198.665L74.6207 199.033C74.386 199.449 74.0527 199.783 73.6207 200.033C73.1887 200.279 72.7167 200.401 72.2047 200.401ZM78.1747 196.297H78.8707V200.297H78.1747V199.721C77.8921 200.175 77.4601 200.401 76.8787 200.401C76.4094 200.401 76.0334 200.255 75.7507 199.961C75.4681 199.663 75.3267 199.26 75.3267 198.753V196.297H76.0227V198.713C76.0227 199.039 76.1107 199.292 76.2867 199.473C76.4627 199.649 76.7054 199.737 77.0147 199.737C77.3614 199.737 77.6414 199.631 77.8547 199.417C78.0681 199.199 78.1747 198.865 78.1747 198.417V196.297ZM80.6263 196.969C80.8557 196.473 81.2717 196.225 81.8743 196.225V196.953C81.533 196.937 81.2397 197.028 80.9943 197.225C80.749 197.423 80.6263 197.74 80.6263 198.177V200.297H79.9303V196.297H80.6263V196.969ZM83.2513 196.969C83.4807 196.473 83.8967 196.225 84.4993 196.225V196.953C84.158 196.937 83.8647 197.028 83.6193 197.225C83.374 197.423 83.2513 197.74 83.2513 198.177V200.297H82.5553V196.297H83.2513V196.969ZM85.4496 198.617C85.5189 198.975 85.6816 199.252 85.9376 199.449C86.1989 199.647 86.5189 199.745 86.8976 199.745C87.4256 199.745 87.8096 199.551 88.0496 199.161L88.6416 199.497C88.2523 200.1 87.6656 200.401 86.8816 200.401C86.2469 200.401 85.7296 200.204 85.3296 199.809C84.9349 199.409 84.7376 198.905 84.7376 198.297C84.7376 197.695 84.9323 197.193 85.3216 196.793C85.7109 196.393 86.2149 196.193 86.8336 196.193C87.4203 196.193 87.8976 196.401 88.2656 196.817C88.6389 197.228 88.8256 197.724 88.8256 198.305C88.8256 198.407 88.8176 198.511 88.8016 198.617H85.4496ZM86.8336 196.849C86.4603 196.849 86.1509 196.956 85.9056 197.169C85.6603 197.377 85.5083 197.657 85.4496 198.009H88.1216C88.0629 197.631 87.9136 197.343 87.6736 197.145C87.4336 196.948 87.1536 196.849 86.8336 196.849ZM91.6177 196.193C92.087 196.193 92.463 196.343 92.7457 196.641C93.0283 196.935 93.1697 197.335 93.1697 197.841V200.297H92.4737V197.881C92.4737 197.556 92.3857 197.305 92.2097 197.129C92.0337 196.948 91.791 196.857 91.4817 196.857C91.135 196.857 90.855 196.967 90.6417 197.185C90.4283 197.399 90.3217 197.729 90.3217 198.177V200.297H89.6257V196.297H90.3217V196.873C90.6043 196.42 91.0363 196.193 91.6177 196.193ZM96.3173 196.969H95.2533V199.137C95.2533 199.335 95.2906 199.476 95.3653 199.561C95.4453 199.641 95.5653 199.684 95.7253 199.689C95.8853 199.689 96.0826 199.684 96.3173 199.673V200.297C95.7093 200.377 95.2639 200.329 94.9813 200.153C94.6986 199.972 94.5573 199.633 94.5573 199.137V196.969H93.7653V196.297H94.5573V195.385L95.2533 195.177V196.297H96.3173V196.969ZM101.373 196.193C101.933 196.193 102.41 196.399 102.805 196.809C103.199 197.215 103.397 197.711 103.397 198.297C103.397 198.884 103.199 199.383 102.805 199.793C102.41 200.199 101.933 200.401 101.373 200.401C100.711 200.401 100.207 200.137 99.8607 199.609V200.297H99.1647V194.697H99.8607V196.985C100.207 196.457 100.711 196.193 101.373 196.193ZM101.285 199.729C101.685 199.729 102.021 199.593 102.293 199.321C102.565 199.044 102.701 198.703 102.701 198.297C102.701 197.892 102.565 197.553 102.293 197.281C102.021 197.004 101.685 196.865 101.285 196.865C100.879 196.865 100.541 197.004 100.269 197.281C99.9967 197.553 99.8607 197.892 99.8607 198.297C99.8607 198.703 99.9967 199.044 100.269 199.321C100.541 199.593 100.879 199.729 101.285 199.729ZM107.539 196.297H108.235V200.297H107.539V199.609C107.193 200.137 106.689 200.401 106.027 200.401C105.467 200.401 104.99 200.199 104.595 199.793C104.201 199.383 104.003 198.884 104.003 198.297C104.003 197.711 104.201 197.215 104.595 196.809C104.99 196.399 105.467 196.193 106.027 196.193C106.689 196.193 107.193 196.457 107.539 196.985V196.297ZM106.115 199.729C106.521 199.729 106.859 199.593 107.131 199.321C107.403 199.044 107.539 198.703 107.539 198.297C107.539 197.892 107.403 197.553 107.131 197.281C106.859 197.004 106.521 196.865 106.115 196.865C105.715 196.865 105.379 197.004 105.107 197.281C104.835 197.553 104.699 197.892 104.699 198.297C104.699 198.703 104.835 199.044 105.107 199.321C105.379 199.593 105.715 199.729 106.115 199.729ZM109.29 200.297V194.457H109.986V200.297H109.29ZM114.36 196.297H115.056V200.297H114.36V199.609C114.013 200.137 113.509 200.401 112.848 200.401C112.288 200.401 111.81 200.199 111.416 199.793C111.021 199.383 110.824 198.884 110.824 198.297C110.824 197.711 111.021 197.215 111.416 196.809C111.81 196.399 112.288 196.193 112.848 196.193C113.509 196.193 114.013 196.457 114.36 196.985V196.297ZM112.936 199.729C113.341 199.729 113.68 199.593 113.952 199.321C114.224 199.044 114.36 198.703 114.36 198.297C114.36 197.892 114.224 197.553 113.952 197.281C113.68 197.004 113.341 196.865 112.936 196.865C112.536 196.865 112.2 197.004 111.928 197.281C111.656 197.553 111.52 197.892 111.52 198.297C111.52 198.703 111.656 199.044 111.928 199.321C112.2 199.593 112.536 199.729 112.936 199.729ZM118.102 196.193C118.571 196.193 118.947 196.343 119.23 196.641C119.513 196.935 119.654 197.335 119.654 197.841V200.297H118.958V197.881C118.958 197.556 118.87 197.305 118.694 197.129C118.518 196.948 118.275 196.857 117.966 196.857C117.619 196.857 117.339 196.967 117.126 197.185C116.913 197.399 116.806 197.729 116.806 198.177V200.297H116.11V196.297H116.806V196.873C117.089 196.42 117.521 196.193 118.102 196.193ZM122.506 200.401C121.903 200.401 121.402 200.201 121.002 199.801C120.602 199.396 120.402 198.895 120.402 198.297C120.402 197.7 120.602 197.201 121.002 196.801C121.402 196.396 121.903 196.193 122.506 196.193C122.9 196.193 123.255 196.289 123.57 196.481C123.884 196.668 124.119 196.921 124.274 197.241L123.69 197.577C123.588 197.364 123.431 197.193 123.218 197.065C123.01 196.937 122.772 196.873 122.506 196.873C122.106 196.873 121.77 197.009 121.498 197.281C121.231 197.553 121.098 197.892 121.098 198.297C121.098 198.697 121.231 199.033 121.498 199.305C121.77 199.577 122.106 199.713 122.506 199.713C122.772 199.713 123.012 199.652 123.226 199.529C123.439 199.401 123.602 199.231 123.714 199.017L124.306 199.361C124.135 199.676 123.89 199.929 123.57 200.121C123.25 200.308 122.895 200.401 122.506 200.401ZM125.426 198.617C125.495 198.975 125.658 199.252 125.914 199.449C126.175 199.647 126.495 199.745 126.874 199.745C127.402 199.745 127.786 199.551 128.026 199.161L128.618 199.497C128.229 200.1 127.642 200.401 126.858 200.401C126.223 200.401 125.706 200.204 125.306 199.809C124.911 199.409 124.714 198.905 124.714 198.297C124.714 197.695 124.909 197.193 125.298 196.793C125.687 196.393 126.191 196.193 126.81 196.193C127.397 196.193 127.874 196.401 128.242 196.817C128.615 197.228 128.802 197.724 128.802 198.305C128.802 198.407 128.794 198.511 128.778 198.617H125.426ZM126.81 196.849C126.437 196.849 126.127 196.956 125.882 197.169C125.637 197.377 125.485 197.657 125.426 198.009H128.098C128.039 197.631 127.89 197.343 127.65 197.145C127.41 196.948 127.13 196.849 126.81 196.849ZM135.218 200.297L133.706 197.657V197.305H133.882C134.165 197.305 134.402 197.279 134.594 197.225C134.792 197.172 134.946 197.084 135.058 196.961C135.17 196.839 135.237 196.671 135.258 196.457H133.706V195.945H135.25C135.213 195.748 135.138 195.588 135.026 195.465C134.914 195.337 134.762 195.244 134.57 195.185C134.384 195.127 134.154 195.097 133.882 195.097H133.706V194.585H137.018V195.097H135.506C135.629 195.199 135.73 195.319 135.81 195.457C135.89 195.596 135.941 195.759 135.962 195.945H137.018V196.457H135.978C135.941 196.847 135.792 197.151 135.53 197.369C135.274 197.583 134.933 197.719 134.506 197.777L136.034 200.297H135.218ZM139.236 194.697H139.876V200.297H139.14V195.497L137.948 195.849L137.764 195.209L139.236 194.697ZM142.664 196.881C143.192 196.881 143.637 197.039 144 197.353C144.368 197.663 144.552 198.092 144.552 198.641C144.552 199.185 144.365 199.615 143.992 199.929C143.619 200.244 143.165 200.401 142.632 200.401C142.205 200.401 141.824 200.3 141.488 200.097C141.152 199.889 140.917 199.591 140.784 199.201L141.416 198.841C141.491 199.113 141.635 199.321 141.848 199.465C142.061 199.604 142.323 199.673 142.632 199.673C142.984 199.673 143.269 199.583 143.488 199.401C143.707 199.22 143.816 198.967 143.816 198.641C143.816 198.316 143.707 198.063 143.488 197.881C143.269 197.695 142.989 197.601 142.648 197.601H141.064L141.272 194.697H144.336V195.393H141.944L141.848 196.881H142.664ZM146.259 199.473L145.739 201.417H145.139L145.459 199.473H146.259ZM151.187 198.537V199.233H150.507V200.297H149.763V199.233H146.907V198.537L148.915 194.697H149.715L147.707 198.537H149.763V196.953H150.507V198.537H151.187ZM155.467 199.609C155.089 200.137 154.558 200.401 153.875 200.401C153.193 200.401 152.662 200.137 152.283 199.609C151.905 199.081 151.715 198.377 151.715 197.497C151.715 196.617 151.905 195.913 152.283 195.385C152.662 194.857 153.193 194.593 153.875 194.593C154.558 194.593 155.089 194.857 155.467 195.385C155.846 195.913 156.035 196.617 156.035 197.497C156.035 198.377 155.846 199.081 155.467 199.609ZM152.827 199.105C153.073 199.484 153.422 199.673 153.875 199.673C154.329 199.673 154.678 199.484 154.923 199.105C155.174 198.727 155.299 198.191 155.299 197.497C155.299 196.804 155.174 196.268 154.923 195.889C154.678 195.505 154.329 195.313 153.875 195.313C153.422 195.313 153.073 195.503 152.827 195.881C152.582 196.26 152.459 196.799 152.459 197.497C152.459 198.191 152.582 198.727 152.827 199.105ZM160.507 199.609C160.128 200.137 159.597 200.401 158.915 200.401C158.232 200.401 157.701 200.137 157.323 199.609C156.944 199.081 156.755 198.377 156.755 197.497C156.755 196.617 156.944 195.913 157.323 195.385C157.701 194.857 158.232 194.593 158.915 194.593C159.597 194.593 160.128 194.857 160.507 195.385C160.885 195.913 161.075 196.617 161.075 197.497C161.075 198.377 160.885 199.081 160.507 199.609ZM157.867 199.105C158.112 199.484 158.461 199.673 158.915 199.673C159.368 199.673 159.717 199.484 159.963 199.105C160.213 198.727 160.339 198.191 160.339 197.497C160.339 196.804 160.213 196.268 159.963 195.889C159.717 195.505 159.368 195.313 158.915 195.313C158.461 195.313 158.112 195.503 157.867 195.881C157.621 196.26 157.499 196.799 157.499 197.497C157.499 198.191 157.621 198.727 157.867 199.105ZM162.159 200.385C162.015 200.385 161.893 200.335 161.791 200.233C161.69 200.132 161.639 200.009 161.639 199.865C161.639 199.721 161.69 199.599 161.791 199.497C161.893 199.396 162.015 199.345 162.159 199.345C162.309 199.345 162.431 199.396 162.527 199.497C162.629 199.599 162.679 199.721 162.679 199.865C162.679 200.009 162.629 200.132 162.527 200.233C162.431 200.335 162.309 200.385 162.159 200.385ZM167.007 199.609C166.628 200.137 166.097 200.401 165.415 200.401C164.732 200.401 164.201 200.137 163.823 199.609C163.444 199.081 163.255 198.377 163.255 197.497C163.255 196.617 163.444 195.913 163.823 195.385C164.201 194.857 164.732 194.593 165.415 194.593C166.097 194.593 166.628 194.857 167.007 195.385C167.385 195.913 167.575 196.617 167.575 197.497C167.575 198.377 167.385 199.081 167.007 199.609ZM164.367 199.105C164.612 199.484 164.961 199.673 165.415 199.673C165.868 199.673 166.217 199.484 166.463 199.105C166.713 198.727 166.839 198.191 166.839 197.497C166.839 196.804 166.713 196.268 166.463 195.889C166.217 195.505 165.868 195.313 165.415 195.313C164.961 195.313 164.612 195.503 164.367 195.881C164.121 196.26 163.999 196.799 163.999 197.497C163.999 198.191 164.121 198.727 164.367 199.105ZM172.046 199.609C171.667 200.137 171.136 200.401 170.454 200.401C169.771 200.401 169.24 200.137 168.862 199.609C168.483 199.081 168.294 198.377 168.294 197.497C168.294 196.617 168.483 195.913 168.862 195.385C169.24 194.857 169.771 194.593 170.454 194.593C171.136 194.593 171.667 194.857 172.046 195.385C172.424 195.913 172.614 196.617 172.614 197.497C172.614 198.377 172.424 199.081 172.046 199.609ZM169.406 199.105C169.651 199.484 170 199.673 170.454 199.673C170.907 199.673 171.256 199.484 171.502 199.105C171.752 198.727 171.878 198.191 171.878 197.497C171.878 196.804 171.752 196.268 171.502 195.889C171.256 195.505 170.907 195.313 170.454 195.313C170 195.313 169.651 195.503 169.406 195.881C169.16 196.26 169.038 196.799 169.038 197.497C169.038 198.191 169.16 198.727 169.406 199.105Z" fill="#1E1E1E"/>
<rect x="19.2832" y="227.678" width="235.415" height="63.0576" rx="10" fill="white"/>
<rect x="19.7832" y="228.178" width="234.415" height="62.0576" rx="9.5" stroke="#0A0C33" stroke-opacity="0.1"/>
<path d="M70.9478 253.916C71.6838 254.34 72.0518 254.98 72.0518 255.836C72.0518 256.548 71.7998 257.132 71.2958 257.588C70.7918 258.044 70.1718 258.272 69.4358 258.272H65.8718V249.872H69.1838C69.9038 249.872 70.5078 250.096 70.9958 250.544C71.4918 250.984 71.7398 251.548 71.7398 252.236C71.7398 252.932 71.4758 253.492 70.9478 253.916ZM69.1838 251.42H67.5278V253.268H69.1838C69.4398 253.268 69.6518 253.18 69.8198 253.004C69.9958 252.828 70.0838 252.608 70.0838 252.344C70.0838 252.08 69.9998 251.86 69.8318 251.684C69.6638 251.508 69.4478 251.42 69.1838 251.42ZM69.4358 256.724C69.7158 256.724 69.9478 256.632 70.1318 256.448C70.3158 256.256 70.4078 256.016 70.4078 255.728C70.4078 255.448 70.3158 255.216 70.1318 255.032C69.9478 254.84 69.7158 254.744 69.4358 254.744H67.5278V256.724H69.4358ZM77.7192 252.272H79.2672V258.272H77.7192V257.564C77.2552 258.148 76.6032 258.44 75.7632 258.44C74.9632 258.44 74.2752 258.136 73.6992 257.528C73.1312 256.912 72.8472 256.16 72.8472 255.272C72.8472 254.384 73.1312 253.636 73.6992 253.028C74.2752 252.412 74.9632 252.104 75.7632 252.104C76.6032 252.104 77.2552 252.396 77.7192 252.98V252.272ZM74.8632 256.496C75.1752 256.808 75.5712 256.964 76.0512 256.964C76.5312 256.964 76.9272 256.808 77.2392 256.496C77.5592 256.176 77.7192 255.768 77.7192 255.272C77.7192 254.776 77.5592 254.372 77.2392 254.06C76.9272 253.74 76.5312 253.58 76.0512 253.58C75.5712 253.58 75.1752 253.74 74.8632 254.06C74.5512 254.372 74.3952 254.776 74.3952 255.272C74.3952 255.768 74.5512 256.176 74.8632 256.496ZM84.0069 252.104C84.6629 252.104 85.2029 252.324 85.6269 252.764C86.0589 253.204 86.2749 253.812 86.2749 254.588V258.272H84.7269V254.78C84.7269 254.38 84.6189 254.076 84.4029 253.868C84.1869 253.652 83.8989 253.544 83.5389 253.544C83.1389 253.544 82.8189 253.668 82.5789 253.916C82.3389 254.164 82.2189 254.536 82.2189 255.032V258.272H80.6709V252.272H82.2189V252.944C82.5949 252.384 83.1909 252.104 84.0069 252.104ZM93.1287 258.272H91.3287L89.1447 255.548V258.272H87.5967V249.872H89.1447V254.912L91.2087 252.272H93.0567L90.6447 255.236L93.1287 258.272ZM102.985 255.308V256.844H102.085V258.272H100.417V256.844H96.4454V255.308L99.2414 249.872H101.017L98.2334 255.308H100.417V253.316H102.085V255.308H102.985Z" fill="#1E1E1E"/>
<circle cx="42.4027" cy="259.207" r="9.80896" fill="#A5EB14"/>
<path d="M72.2047 274.401C71.3567 274.401 70.6553 274.121 70.1007 273.561C69.5513 273.001 69.2767 272.313 69.2767 271.497C69.2767 270.681 69.5513 269.993 70.1007 269.433C70.6553 268.873 71.3567 268.593 72.2047 268.593C72.7167 268.593 73.186 268.716 73.6127 268.961C74.0447 269.207 74.3807 269.537 74.6207 269.953L73.9727 270.329C73.8127 270.02 73.5727 269.775 73.2527 269.593C72.938 269.407 72.5887 269.313 72.2047 269.313C71.5593 269.313 71.0313 269.521 70.6207 269.937C70.2153 270.353 70.0127 270.873 70.0127 271.497C70.0127 272.116 70.2153 272.633 70.6207 273.049C71.0313 273.465 71.5593 273.673 72.2047 273.673C72.5887 273.673 72.938 273.583 73.2527 273.401C73.5727 273.215 73.8127 272.969 73.9727 272.665L74.6207 273.033C74.386 273.449 74.0527 273.783 73.6207 274.033C73.1887 274.279 72.7167 274.401 72.2047 274.401ZM78.1747 270.297H78.8707V274.297H78.1747V273.721C77.8921 274.175 77.4601 274.401 76.8787 274.401C76.4094 274.401 76.0334 274.255 75.7507 273.961C75.4681 273.663 75.3267 273.26 75.3267 272.753V270.297H76.0227V272.713C76.0227 273.039 76.1107 273.292 76.2867 273.473C76.4627 273.649 76.7054 273.737 77.0147 273.737C77.3614 273.737 77.6414 273.631 77.8547 273.417C78.0681 273.199 78.1747 272.865 78.1747 272.417V270.297ZM80.6263 270.969C80.8557 270.473 81.2717 270.225 81.8743 270.225V270.953C81.533 270.937 81.2397 271.028 80.9943 271.225C80.749 271.423 80.6263 271.74 80.6263 272.177V274.297H79.9303V270.297H80.6263V270.969ZM83.2513 270.969C83.4807 270.473 83.8967 270.225 84.4993 270.225V270.953C84.158 270.937 83.8647 271.028 83.6193 271.225C83.374 271.423 83.2513 271.74 83.2513 272.177V274.297H82.5553V270.297H83.2513V270.969ZM85.4496 272.617C85.5189 272.975 85.6816 273.252 85.9376 273.449C86.1989 273.647 86.5189 273.745 86.8976 273.745C87.4256 273.745 87.8096 273.551 88.0496 273.161L88.6416 273.497C88.2523 274.1 87.6656 274.401 86.8816 274.401C86.2469 274.401 85.7296 274.204 85.3296 273.809C84.9349 273.409 84.7376 272.905 84.7376 272.297C84.7376 271.695 84.9323 271.193 85.3216 270.793C85.7109 270.393 86.2149 270.193 86.8336 270.193C87.4203 270.193 87.8976 270.401 88.2656 270.817C88.6389 271.228 88.8256 271.724 88.8256 272.305C88.8256 272.407 88.8176 272.511 88.8016 272.617H85.4496ZM86.8336 270.849C86.4603 270.849 86.1509 270.956 85.9056 271.169C85.6603 271.377 85.5083 271.657 85.4496 272.009H88.1216C88.0629 271.631 87.9136 271.343 87.6736 271.145C87.4336 270.948 87.1536 270.849 86.8336 270.849ZM91.6177 270.193C92.087 270.193 92.463 270.343 92.7457 270.641C93.0283 270.935 93.1697 271.335 93.1697 271.841V274.297H92.4737V271.881C92.4737 271.556 92.3857 271.305 92.2097 271.129C92.0337 270.948 91.791 270.857 91.4817 270.857C91.135 270.857 90.855 270.967 90.6417 271.185C90.4283 271.399 90.3217 271.729 90.3217 272.177V274.297H89.6257V270.297H90.3217V270.873C90.6043 270.42 91.0363 270.193 91.6177 270.193ZM96.3173 270.969H95.2533V273.137C95.2533 273.335 95.2906 273.476 95.3653 273.561C95.4453 273.641 95.5653 273.684 95.7253 273.689C95.8853 273.689 96.0826 273.684 96.3173 273.673V274.297C95.7093 274.377 95.2639 274.329 94.9813 274.153C94.6986 273.972 94.5573 273.633 94.5573 273.137V270.969H93.7653V270.297H94.5573V269.385L95.2533 269.177V270.297H96.3173V270.969ZM101.373 270.193C101.933 270.193 102.41 270.399 102.805 270.809C103.199 271.215 103.397 271.711 103.397 272.297C103.397 272.884 103.199 273.383 102.805 273.793C102.41 274.199 101.933 274.401 101.373 274.401C100.711 274.401 100.207 274.137 99.8607 273.609V274.297H99.1647V268.697H99.8607V270.985C100.207 270.457 100.711 270.193 101.373 270.193ZM101.285 273.729C101.685 273.729 102.021 273.593 102.293 273.321C102.565 273.044 102.701 272.703 102.701 272.297C102.701 271.892 102.565 271.553 102.293 271.281C102.021 271.004 101.685 270.865 101.285 270.865C100.879 270.865 100.541 271.004 100.269 271.281C99.9967 271.553 99.8607 271.892 99.8607 272.297C99.8607 272.703 99.9967 273.044 100.269 273.321C100.541 273.593 100.879 273.729 101.285 273.729ZM107.539 270.297H108.235V274.297H107.539V273.609C107.193 274.137 106.689 274.401 106.027 274.401C105.467 274.401 104.99 274.199 104.595 273.793C104.201 273.383 104.003 272.884 104.003 272.297C104.003 271.711 104.201 271.215 104.595 270.809C104.99 270.399 105.467 270.193 106.027 270.193C106.689 270.193 107.193 270.457 107.539 270.985V270.297ZM106.115 273.729C106.521 273.729 106.859 273.593 107.131 273.321C107.403 273.044 107.539 272.703 107.539 272.297C107.539 271.892 107.403 271.553 107.131 271.281C106.859 271.004 106.521 270.865 106.115 270.865C105.715 270.865 105.379 271.004 105.107 271.281C104.835 271.553 104.699 271.892 104.699 272.297C104.699 272.703 104.835 273.044 105.107 273.321C105.379 273.593 105.715 273.729 106.115 273.729ZM109.29 274.297V268.457H109.986V274.297H109.29ZM114.36 270.297H115.056V274.297H114.36V273.609C114.013 274.137 113.509 274.401 112.848 274.401C112.288 274.401 111.81 274.199 111.416 273.793C111.021 273.383 110.824 272.884 110.824 272.297C110.824 271.711 111.021 271.215 111.416 270.809C111.81 270.399 112.288 270.193 112.848 270.193C113.509 270.193 114.013 270.457 114.36 270.985V270.297ZM112.936 273.729C113.341 273.729 113.68 273.593 113.952 273.321C114.224 273.044 114.36 272.703 114.36 272.297C114.36 271.892 114.224 271.553 113.952 271.281C113.68 271.004 113.341 270.865 112.936 270.865C112.536 270.865 112.2 271.004 111.928 271.281C111.656 271.553 111.52 271.892 111.52 272.297C111.52 272.703 111.656 273.044 111.928 273.321C112.2 273.593 112.536 273.729 112.936 273.729ZM118.102 270.193C118.571 270.193 118.947 270.343 119.23 270.641C119.513 270.935 119.654 271.335 119.654 271.841V274.297H118.958V271.881C118.958 271.556 118.87 271.305 118.694 271.129C118.518 270.948 118.275 270.857 117.966 270.857C117.619 270.857 117.339 270.967 117.126 271.185C116.913 271.399 116.806 271.729 116.806 272.177V274.297H116.11V270.297H116.806V270.873C117.089 270.42 117.521 270.193 118.102 270.193ZM122.506 274.401C121.903 274.401 121.402 274.201 121.002 273.801C120.602 273.396 120.402 272.895 120.402 272.297C120.402 271.7 120.602 271.201 121.002 270.801C121.402 270.396 121.903 270.193 122.506 270.193C122.9 270.193 123.255 270.289 123.57 270.481C123.884 270.668 124.119 270.921 124.274 271.241L123.69 271.577C123.588 271.364 123.431 271.193 123.218 271.065C123.01 270.937 122.772 270.873 122.506 270.873C122.106 270.873 121.77 271.009 121.498 271.281C121.231 271.553 121.098 271.892 121.098 272.297C121.098 272.697 121.231 273.033 121.498 273.305C121.77 273.577 122.106 273.713 122.506 273.713C122.772 273.713 123.012 273.652 123.226 273.529C123.439 273.401 123.602 273.231 123.714 273.017L124.306 273.361C124.135 273.676 123.89 273.929 123.57 274.121C123.25 274.308 122.895 274.401 122.506 274.401ZM125.426 272.617C125.495 272.975 125.658 273.252 125.914 273.449C126.175 273.647 126.495 273.745 126.874 273.745C127.402 273.745 127.786 273.551 128.026 273.161L128.618 273.497C128.229 274.1 127.642 274.401 126.858 274.401C126.223 274.401 125.706 274.204 125.306 273.809C124.911 273.409 124.714 272.905 124.714 272.297C124.714 271.695 124.909 271.193 125.298 270.793C125.687 270.393 126.191 270.193 126.81 270.193C127.397 270.193 127.874 270.401 128.242 270.817C128.615 271.228 128.802 271.724 128.802 272.305C128.802 272.407 128.794 272.511 128.778 272.617H125.426ZM126.81 270.849C126.437 270.849 126.127 270.956 125.882 271.169C125.637 271.377 125.485 271.657 125.426 272.009H128.098C128.039 271.631 127.89 271.343 127.65 271.145C127.41 270.948 127.13 270.849 126.81 270.849ZM135.218 274.297L133.706 271.657V271.305H133.882C134.165 271.305 134.402 271.279 134.594 271.225C134.792 271.172 134.946 271.084 135.058 270.961C135.17 270.839 135.237 270.671 135.258 270.457H133.706V269.945H135.25C135.213 269.748 135.138 269.588 135.026 269.465C134.914 269.337 134.762 269.244 134.57 269.185C134.384 269.127 134.154 269.097 133.882 269.097H133.706V268.585H137.018V269.097H135.506C135.629 269.199 135.73 269.319 135.81 269.457C135.89 269.596 135.941 269.759 135.962 269.945H137.018V270.457H135.978C135.941 270.847 135.792 271.151 135.53 271.369C135.274 271.583 134.933 271.719 134.506 271.777L136.034 274.297H135.218ZM139.236 268.697H139.876V274.297H139.14V269.497L137.948 269.849L137.764 269.209L139.236 268.697ZM142.664 270.881C143.192 270.881 143.637 271.039 144 271.353C144.368 271.663 144.552 272.092 144.552 272.641C144.552 273.185 144.365 273.615 143.992 273.929C143.619 274.244 143.165 274.401 142.632 274.401C142.205 274.401 141.824 274.3 141.488 274.097C141.152 273.889 140.917 273.591 140.784 273.201L141.416 272.841C141.491 273.113 141.635 273.321 141.848 273.465C142.061 273.604 142.323 273.673 142.632 273.673C142.984 273.673 143.269 273.583 143.488 273.401C143.707 273.22 143.816 272.967 143.816 272.641C143.816 272.316 143.707 272.063 143.488 271.881C143.269 271.695 142.989 271.601 142.648 271.601H141.064L141.272 268.697H144.336V269.393H141.944L141.848 270.881H142.664ZM146.259 273.473L145.739 275.417H145.139L145.459 273.473H146.259ZM151.187 272.537V273.233H150.507V274.297H149.763V273.233H146.907V272.537L148.915 268.697H149.715L147.707 272.537H149.763V270.953H150.507V272.537H151.187ZM155.467 273.609C155.089 274.137 154.558 274.401 153.875 274.401C153.193 274.401 152.662 274.137 152.283 273.609C151.905 273.081 151.715 272.377 151.715 271.497C151.715 270.617 151.905 269.913 152.283 269.385C152.662 268.857 153.193 268.593 153.875 268.593C154.558 268.593 155.089 268.857 155.467 269.385C155.846 269.913 156.035 270.617 156.035 271.497C156.035 272.377 155.846 273.081 155.467 273.609ZM152.827 273.105C153.073 273.484 153.422 273.673 153.875 273.673C154.329 273.673 154.678 273.484 154.923 273.105C155.174 272.727 155.299 272.191 155.299 271.497C155.299 270.804 155.174 270.268 154.923 269.889C154.678 269.505 154.329 269.313 153.875 269.313C153.422 269.313 153.073 269.503 152.827 269.881C152.582 270.26 152.459 270.799 152.459 271.497C152.459 272.191 152.582 272.727 152.827 273.105ZM160.507 273.609C160.128 274.137 159.597 274.401 158.915 274.401C158.232 274.401 157.701 274.137 157.323 273.609C156.944 273.081 156.755 272.377 156.755 271.497C156.755 270.617 156.944 269.913 157.323 269.385C157.701 268.857 158.232 268.593 158.915 268.593C159.597 268.593 160.128 268.857 160.507 269.385C160.885 269.913 161.075 270.617 161.075 271.497C161.075 272.377 160.885 273.081 160.507 273.609ZM157.867 273.105C158.112 273.484 158.461 273.673 158.915 273.673C159.368 273.673 159.717 273.484 159.963 273.105C160.213 272.727 160.339 272.191 160.339 271.497C160.339 270.804 160.213 270.268 159.963 269.889C159.717 269.505 159.368 269.313 158.915 269.313C158.461 269.313 158.112 269.503 157.867 269.881C157.621 270.26 157.499 270.799 157.499 271.497C157.499 272.191 157.621 272.727 157.867 273.105ZM162.159 274.385C162.015 274.385 161.893 274.335 161.791 274.233C161.69 274.132 161.639 274.009 161.639 273.865C161.639 273.721 161.69 273.599 161.791 273.497C161.893 273.396 162.015 273.345 162.159 273.345C162.309 273.345 162.431 273.396 162.527 273.497C162.629 273.599 162.679 273.721 162.679 273.865C162.679 274.009 162.629 274.132 162.527 274.233C162.431 274.335 162.309 274.385 162.159 274.385ZM167.007 273.609C166.628 274.137 166.097 274.401 165.415 274.401C164.732 274.401 164.201 274.137 163.823 273.609C163.444 273.081 163.255 272.377 163.255 271.497C163.255 270.617 163.444 269.913 163.823 269.385C164.201 268.857 164.732 268.593 165.415 268.593C166.097 268.593 166.628 268.857 167.007 269.385C167.385 269.913 167.575 270.617 167.575 271.497C167.575 272.377 167.385 273.081 167.007 273.609ZM164.367 273.105C164.612 273.484 164.961 273.673 165.415 273.673C165.868 273.673 166.217 273.484 166.463 273.105C166.713 272.727 166.839 272.191 166.839 271.497C166.839 270.804 166.713 270.268 166.463 269.889C166.217 269.505 165.868 269.313 165.415 269.313C164.961 269.313 164.612 269.503 164.367 269.881C164.121 270.26 163.999 270.799 163.999 271.497C163.999 272.191 164.121 272.727 164.367 273.105ZM172.046 273.609C171.667 274.137 171.136 274.401 170.454 274.401C169.771 274.401 169.24 274.137 168.862 273.609C168.483 273.081 168.294 272.377 168.294 271.497C168.294 270.617 168.483 269.913 168.862 269.385C169.24 268.857 169.771 268.593 170.454 268.593C171.136 268.593 171.667 268.857 172.046 269.385C172.424 269.913 172.614 270.617 172.614 271.497C172.614 272.377 172.424 273.081 172.046 273.609ZM169.406 273.105C169.651 273.484 170 273.673 170.454 273.673C170.907 273.673 171.256 273.484 171.502 273.105C171.752 272.727 171.878 272.191 171.878 271.497C171.878 270.804 171.752 270.268 171.502 269.889C171.256 269.505 170.907 269.313 170.454 269.313C170 269.313 169.651 269.503 169.406 269.881C169.16 270.26 169.038 270.799 169.038 271.497C169.038 272.191 169.16 272.727 169.406 273.105Z" fill="#1E1E1E"/>
<rect x="127.727" y="94.8555" width="366.273" height="383.178" rx="20" fill="white"/>
<rect x="128.227" y="95.3555" width="365.273" height="382.178" rx="19.5" stroke="#0A0C33" stroke-opacity="0.1"/>
<path d="M165.473 131.117C167.279 131.117 168.816 131.805 170.086 133.182C171.373 134.541 172.017 136.212 172.017 138.197C172.017 140.182 171.373 141.863 170.086 143.239C168.816 144.598 167.279 145.278 165.473 145.278C163.595 145.278 162.147 144.625 161.128 143.32V144.902H157.668V126.128H161.128V133.074C162.147 131.769 163.595 131.117 165.473 131.117ZM162.174 140.933C162.871 141.63 163.756 141.979 164.829 141.979C165.902 141.979 166.787 141.63 167.484 140.933C168.199 140.218 168.557 139.306 168.557 138.197C168.557 137.089 168.199 136.186 167.484 135.488C166.787 134.773 165.902 134.416 164.829 134.416C163.756 134.416 162.871 134.773 162.174 135.488C161.476 136.186 161.128 137.089 161.128 138.197C161.128 139.306 161.476 140.218 162.174 140.933ZM176.308 133.799C176.629 132.94 177.157 132.297 177.89 131.868C178.641 131.438 179.472 131.224 180.384 131.224V135.086C179.329 134.961 178.382 135.175 177.541 135.73C176.719 136.284 176.308 137.205 176.308 138.492V144.902H172.848V131.492H176.308V133.799ZM182.515 129.883C181.943 129.883 181.442 129.677 181.013 129.266C180.602 128.837 180.396 128.336 180.396 127.764C180.396 127.192 180.602 126.691 181.013 126.262C181.442 125.833 181.943 125.618 182.515 125.618C183.105 125.618 183.606 125.833 184.017 126.262C184.446 126.691 184.661 127.192 184.661 127.764C184.661 128.336 184.446 128.837 184.017 129.266C183.606 129.677 183.105 129.883 182.515 129.883ZM180.799 144.902V131.492H184.258V144.902H180.799ZM195.981 126.128H199.441V144.902H195.981V143.32C194.962 144.625 193.513 145.278 191.636 145.278C189.83 145.278 188.283 144.598 186.996 143.239C185.726 141.863 185.092 140.182 185.092 138.197C185.092 136.212 185.726 134.541 186.996 133.182C188.283 131.805 189.83 131.117 191.636 131.117C193.513 131.117 194.962 131.769 195.981 133.074V126.128ZM189.597 140.933C190.313 141.63 191.207 141.979 192.279 141.979C193.352 141.979 194.237 141.63 194.935 140.933C195.632 140.218 195.981 139.306 195.981 138.197C195.981 137.089 195.632 136.186 194.935 135.488C194.237 134.773 193.352 134.416 192.279 134.416C191.207 134.416 190.313 134.773 189.597 135.488C188.9 136.186 188.551 137.089 188.551 138.197C188.551 139.306 188.9 140.218 189.597 140.933ZM211.268 131.492H214.647V144.259C214.647 146.333 213.959 147.915 212.582 149.006C211.223 150.097 209.578 150.642 207.647 150.642C206.199 150.642 204.92 150.365 203.812 149.81C202.721 149.256 201.881 148.443 201.291 147.37L204.241 145.68C204.92 146.932 206.091 147.558 207.754 147.558C208.845 147.558 209.703 147.271 210.329 146.699C210.955 146.127 211.268 145.314 211.268 144.259V142.81C210.249 144.169 208.818 144.849 206.977 144.849C205.081 144.849 203.49 144.187 202.203 142.864C200.933 141.523 200.298 139.896 200.298 137.983C200.298 136.087 200.942 134.469 202.229 133.128C203.517 131.787 205.099 131.117 206.977 131.117C208.818 131.117 210.249 131.796 211.268 133.155V131.492ZM204.804 140.638C205.519 141.317 206.422 141.657 207.513 141.657C208.604 141.657 209.498 141.317 210.195 140.638C210.91 139.941 211.268 139.055 211.268 137.983C211.268 136.928 210.91 136.06 210.195 135.381C209.498 134.684 208.604 134.335 207.513 134.335C206.422 134.335 205.519 134.684 204.804 135.381C204.107 136.06 203.758 136.928 203.758 137.983C203.758 139.055 204.107 139.941 204.804 140.638Z" fill="#1E1E1E"/>
<path d="M219.383 144.634C220.716 144.634 221.796 143.553 221.796 142.22C221.796 140.887 220.716 139.806 219.383 139.806C218.049 139.806 216.969 140.887 216.969 142.22C216.969 143.553 218.049 144.634 219.383 144.634Z" fill="#A5EB14"/>
<path d="M172.5 152.573C174.037 152.573 175.262 153.073 176.174 154.075C177.104 155.076 177.569 156.417 177.569 158.098V166.358H174.109V158.339C174.109 157.535 173.912 156.909 173.519 156.462C173.125 156.015 172.571 155.791 171.856 155.791C171.069 155.791 170.452 156.051 170.005 156.569C169.576 157.087 169.362 157.838 169.362 158.822V166.358H165.902V158.339C165.902 157.535 165.705 156.909 165.312 156.462C164.918 156.015 164.364 155.791 163.649 155.791C162.88 155.791 162.263 156.051 161.798 156.569C161.351 157.087 161.128 157.838 161.128 158.822V166.358H157.668V152.948H161.128V154.37C161.932 153.172 163.175 152.573 164.856 152.573C166.501 152.573 167.717 153.216 168.503 154.504C169.397 153.216 170.73 152.573 172.5 152.573ZM190.323 164.696C188.947 166.055 187.266 166.734 185.281 166.734C183.297 166.734 181.616 166.055 180.239 164.696C178.88 163.319 178.201 161.638 178.201 159.653C178.201 157.669 178.88 155.997 180.239 154.638C181.616 153.261 183.297 152.573 185.281 152.573C187.266 152.573 188.947 153.261 190.323 154.638C191.7 155.997 192.389 157.669 192.389 159.653C192.389 161.638 191.7 163.319 190.323 164.696ZM182.68 162.309C183.377 163.006 184.244 163.355 185.281 163.355C186.318 163.355 187.185 163.006 187.883 162.309C188.58 161.611 188.929 160.726 188.929 159.653C188.929 158.581 188.58 157.695 187.883 156.998C187.185 156.301 186.318 155.952 185.281 155.952C184.244 155.952 183.377 156.301 182.68 156.998C182 157.695 181.661 158.581 181.661 159.653C181.661 160.726 182 161.611 182.68 162.309ZM200.669 152.573C202.136 152.573 203.343 153.064 204.29 154.048C205.256 155.031 205.739 156.39 205.739 158.125V166.358H202.279V158.554C202.279 157.66 202.037 156.98 201.555 156.515C201.072 156.033 200.428 155.791 199.623 155.791C198.73 155.791 198.014 156.068 197.478 156.623C196.941 157.177 196.673 158.008 196.673 159.117V166.358H193.213V152.948H196.673V154.45C197.514 153.198 198.846 152.573 200.669 152.573ZM210.007 161.075C210.472 162.756 211.732 163.596 213.789 163.596C215.112 163.596 216.113 163.149 216.793 162.255L219.582 163.864C218.259 165.777 216.31 166.734 213.735 166.734C211.518 166.734 209.739 166.063 208.398 164.722C207.057 163.381 206.386 161.692 206.386 159.653C206.386 157.633 207.048 155.952 208.371 154.611C209.694 153.252 211.393 152.573 213.467 152.573C215.434 152.573 217.052 153.252 218.321 154.611C219.609 155.97 220.252 157.651 220.252 159.653C220.252 160.1 220.208 160.574 220.118 161.075H210.007ZM209.953 158.393H216.793C216.596 157.481 216.185 156.802 215.559 156.354C214.951 155.907 214.253 155.684 213.467 155.684C212.537 155.684 211.768 155.925 211.16 156.408C210.552 156.873 210.15 157.535 209.953 158.393ZM229.278 152.948H232.979L228.098 166.358C227.401 168.29 226.471 169.684 225.309 170.542C224.164 171.419 222.734 171.812 221.017 171.723V168.504C221.947 168.522 222.68 168.325 223.217 167.914C223.771 167.503 224.209 166.841 224.531 165.929L219.033 152.948H222.814L226.301 161.96L229.278 152.948Z" fill="#1E1E1E"/>
<rect x="138.996" y="409.475" width="328.297" height="52.353" rx="26.1765" fill="#0A0C33"/>
<path d="M254.252 428.552C255.464 428.552 256.484 428.96 257.312 429.776C258.14 430.592 258.554 431.594 258.554 432.782C258.554 433.97 258.14 434.972 257.312 435.788C256.484 436.604 255.464 437.012 254.252 437.012H252.038V441.152H249.554V428.552H254.252ZM254.252 434.69C254.78 434.69 255.218 434.51 255.566 434.15C255.914 433.778 256.088 433.322 256.088 432.782C256.088 432.23 255.914 431.774 255.566 431.414C255.218 431.054 254.78 430.874 254.252 430.874H252.038V434.69H254.252ZM266.305 432.152H268.627V441.152H266.305V440.09C265.609 440.966 264.631 441.404 263.371 441.404C262.171 441.404 261.139 440.948 260.275 440.036C259.423 439.112 258.997 437.984 258.997 436.652C258.997 435.32 259.423 434.198 260.275 433.286C261.139 432.362 262.171 431.9 263.371 431.9C264.631 431.9 265.609 432.338 266.305 433.214V432.152ZM262.021 438.488C262.489 438.956 263.083 439.19 263.803 439.19C264.523 439.19 265.117 438.956 265.585 438.488C266.065 438.008 266.305 437.396 266.305 436.652C266.305 435.908 266.065 435.302 265.585 434.834C265.117 434.354 264.523 434.114 263.803 434.114C263.083 434.114 262.489 434.354 262.021 434.834C261.553 435.302 261.319 435.908 261.319 436.652C261.319 437.396 261.553 438.008 262.021 438.488ZM276.601 432.152H279.085L275.809 441.152C275.341 442.448 274.717 443.384 273.937 443.96C273.169 444.548 272.209 444.812 271.057 444.752V442.592C271.681 442.604 272.173 442.472 272.533 442.196C272.905 441.92 273.199 441.476 273.415 440.864L269.725 432.152H272.263L274.603 438.2L276.601 432.152ZM291.53 432.152H293.852V441.152H291.53V440.09C290.834 440.966 289.856 441.404 288.596 441.404C287.396 441.404 286.364 440.948 285.5 440.036C284.648 439.112 284.222 437.984 284.222 436.652C284.222 435.32 284.648 434.198 285.5 433.286C286.364 432.362 287.396 431.9 288.596 431.9C289.856 431.9 290.834 432.338 291.53 433.214V432.152ZM287.246 438.488C287.714 438.956 288.308 439.19 289.028 439.19C289.748 439.19 290.342 438.956 290.81 438.488C291.29 438.008 291.53 437.396 291.53 436.652C291.53 435.908 291.29 435.302 290.81 434.834C290.342 434.354 289.748 434.114 289.028 434.114C288.308 434.114 287.714 434.354 287.246 434.834C286.778 435.302 286.544 435.908 286.544 436.652C286.544 437.396 286.778 438.008 287.246 438.488ZM306.379 432.152H308.935L305.515 441.152H302.869L299.449 432.152H302.005L304.183 438.452L306.379 432.152ZM311.666 437.606C311.978 438.734 312.824 439.298 314.204 439.298C315.092 439.298 315.764 438.998 316.22 438.398L318.092 439.478C317.204 440.762 315.896 441.404 314.168 441.404C312.68 441.404 311.486 440.954 310.586 440.054C309.686 439.154 309.236 438.02 309.236 436.652C309.236 435.296 309.68 434.168 310.568 433.268C311.456 432.356 312.596 431.9 313.988 431.9C315.308 431.9 316.394 432.356 317.246 433.268C318.11 434.18 318.542 435.308 318.542 436.652C318.542 436.952 318.512 437.27 318.452 437.606H311.666ZM311.63 435.806H316.22C316.088 435.194 315.812 434.738 315.392 434.438C314.984 434.138 314.516 433.988 313.988 433.988C313.364 433.988 312.848 434.15 312.44 434.474C312.032 434.786 311.762 435.23 311.63 435.806ZM325.166 431.9C326.15 431.9 326.96 432.23 327.596 432.89C328.244 433.55 328.568 434.462 328.568 435.626V441.152H326.246V435.914C326.246 435.314 326.084 434.858 325.76 434.546C325.436 434.222 325.004 434.06 324.464 434.06C323.864 434.06 323.384 434.246 323.024 434.618C322.664 434.99 322.484 435.548 322.484 436.292V441.152H320.162V432.152H322.484V433.16C323.048 432.32 323.942 431.9 325.166 431.9ZM337.373 428.552H339.695V441.152H337.373V440.09C336.689 440.966 335.717 441.404 334.457 441.404C333.245 441.404 332.207 440.948 331.343 440.036C330.491 439.112 330.065 437.984 330.065 436.652C330.065 435.32 330.491 434.198 331.343 433.286C332.207 432.362 333.245 431.9 334.457 431.9C335.717 431.9 336.689 432.338 337.373 433.214V428.552ZM333.089 438.488C333.569 438.956 334.169 439.19 334.889 439.19C335.609 439.19 336.203 438.956 336.671 438.488C337.139 438.008 337.373 437.396 337.373 436.652C337.373 435.908 337.139 435.302 336.671 434.834C336.203 434.354 335.609 434.114 334.889 434.114C334.169 434.114 333.569 434.354 333.089 434.834C332.621 435.302 332.387 435.908 332.387 436.652C332.387 437.396 332.621 438.008 333.089 438.488ZM349.487 440.036C348.563 440.948 347.435 441.404 346.103 441.404C344.771 441.404 343.643 440.948 342.719 440.036C341.807 439.112 341.351 437.984 341.351 436.652C341.351 435.32 341.807 434.198 342.719 433.286C343.643 432.362 344.771 431.9 346.103 431.9C347.435 431.9 348.563 432.362 349.487 433.286C350.411 434.198 350.873 435.32 350.873 436.652C350.873 437.984 350.411 439.112 349.487 440.036ZM344.357 438.434C344.825 438.902 345.407 439.136 346.103 439.136C346.799 439.136 347.381 438.902 347.849 438.434C348.317 437.966 348.551 437.372 348.551 436.652C348.551 435.932 348.317 435.338 347.849 434.87C347.381 434.402 346.799 434.168 346.103 434.168C345.407 434.168 344.825 434.402 344.357 434.87C343.901 435.338 343.673 435.932 343.673 436.652C343.673 437.372 343.901 437.966 344.357 438.434ZM354.828 433.7C355.044 433.124 355.398 432.692 355.89 432.404C356.394 432.116 356.952 431.972 357.564 431.972V434.564C356.856 434.48 356.22 434.624 355.656 434.996C355.104 435.368 354.828 435.986 354.828 436.85V441.152H352.506V432.152H354.828V433.7Z" fill="white"/>
<path d="M164.331 277.905L163.551 275.841H159.567L158.787 277.905H157.899L161.127 269.505H161.991L165.219 277.905H164.331ZM159.867 275.049H163.251L161.559 270.549L159.867 275.049ZM170.264 271.905H171.104L168.644 277.905H167.684L165.224 271.905H166.064L168.164 277.077L170.264 271.905ZM176.986 271.905H177.778V277.905H176.986V276.729C176.434 277.609 175.626 278.049 174.562 278.049C173.706 278.049 172.974 277.745 172.366 277.137C171.766 276.529 171.466 275.785 171.466 274.905C171.466 274.025 171.766 273.281 172.366 272.673C172.974 272.065 173.706 271.761 174.562 271.761C175.626 271.761 176.434 272.201 176.986 273.081V271.905ZM172.942 276.597C173.398 277.053 173.958 277.281 174.622 277.281C175.286 277.281 175.846 277.053 176.302 276.597C176.758 276.133 176.986 275.569 176.986 274.905C176.986 274.241 176.758 273.681 176.302 273.225C175.846 272.761 175.286 272.529 174.622 272.529C173.958 272.529 173.398 272.761 172.942 273.225C172.486 273.681 172.258 274.241 172.258 274.905C172.258 275.569 172.486 276.133 172.942 276.597ZM180.259 270.465C180.147 270.577 180.011 270.633 179.851 270.633C179.691 270.633 179.555 270.577 179.443 270.465C179.331 270.353 179.275 270.217 179.275 270.057C179.275 269.897 179.331 269.761 179.443 269.649C179.555 269.537 179.691 269.481 179.851 269.481C180.011 269.481 180.147 269.537 180.259 269.649C180.371 269.761 180.427 269.897 180.427 270.057C180.427 270.217 180.371 270.353 180.259 270.465ZM179.455 277.905V271.905H180.247V277.905H179.455ZM181.928 277.905V269.145H182.72V277.905H181.928ZM189.561 271.905H190.353V277.905H189.561V276.729C189.009 277.609 188.201 278.049 187.137 278.049C186.281 278.049 185.549 277.745 184.941 277.137C184.341 276.529 184.041 275.785 184.041 274.905C184.041 274.025 184.341 273.281 184.941 272.673C185.549 272.065 186.281 271.761 187.137 271.761C188.201 271.761 189.009 272.201 189.561 273.081V271.905ZM185.517 276.597C185.973 277.053 186.533 277.281 187.197 277.281C187.861 277.281 188.421 277.053 188.877 276.597C189.333 276.133 189.561 275.569 189.561 274.905C189.561 274.241 189.333 273.681 188.877 273.225C188.421 272.761 187.861 272.529 187.197 272.529C186.533 272.529 185.973 272.761 185.517 273.225C185.061 273.681 184.833 274.241 184.833 274.905C184.833 275.569 185.061 276.133 185.517 276.597ZM195.245 271.761C196.101 271.761 196.829 272.065 197.429 272.673C198.037 273.281 198.341 274.025 198.341 274.905C198.341 275.785 198.037 276.529 197.429 277.137C196.829 277.745 196.101 278.049 195.245 278.049C194.181 278.049 193.373 277.609 192.821 276.729V277.905H192.029V269.505H192.821V273.081C193.373 272.201 194.181 271.761 195.245 271.761ZM193.505 276.597C193.961 277.053 194.521 277.281 195.185 277.281C195.849 277.281 196.409 277.053 196.865 276.597C197.321 276.133 197.549 275.569 197.549 274.905C197.549 274.241 197.321 273.681 196.865 273.225C196.409 272.761 195.849 272.529 195.185 272.529C194.521 272.529 193.961 272.761 193.505 273.225C193.049 273.681 192.821 274.241 192.821 274.905C192.821 275.569 193.049 276.133 193.505 276.597ZM199.658 277.905V269.145H200.45V277.905H199.658ZM204.903 271.761C205.791 271.761 206.507 272.077 207.051 272.709C207.603 273.333 207.879 274.073 207.879 274.929C207.879 275.017 207.871 275.141 207.855 275.301H202.587C202.667 275.909 202.923 276.393 203.355 276.753C203.795 277.105 204.335 277.281 204.975 277.281C205.431 277.281 205.823 277.189 206.151 277.005C206.487 276.813 206.739 276.565 206.907 276.261L207.603 276.669C207.339 277.093 206.979 277.429 206.523 277.677C206.067 277.925 205.547 278.049 204.963 278.049C204.019 278.049 203.251 277.753 202.659 277.161C202.067 276.569 201.771 275.817 201.771 274.905C201.771 274.009 202.063 273.261 202.647 272.661C203.231 272.061 203.983 271.761 204.903 271.761ZM204.903 272.529C204.279 272.529 203.755 272.717 203.331 273.093C202.915 273.461 202.667 273.941 202.587 274.533H207.063C206.983 273.901 206.739 273.409 206.331 273.057C205.923 272.705 205.447 272.529 204.903 272.529ZM215.355 271.761C216.211 271.761 216.939 272.065 217.539 272.673C218.147 273.281 218.451 274.025 218.451 274.905C218.451 275.785 218.147 276.529 217.539 277.137C216.939 277.745 216.211 278.049 215.355 278.049C214.291 278.049 213.483 277.609 212.931 276.729V277.905H212.139V269.505H212.931V273.081C213.483 272.201 214.291 271.761 215.355 271.761ZM213.615 276.597C214.071 277.053 214.631 277.281 215.295 277.281C215.959 277.281 216.519 277.053 216.975 276.597C217.431 276.133 217.659 275.569 217.659 274.905C217.659 274.241 217.431 273.681 216.975 273.225C216.519 272.761 215.959 272.529 215.295 272.529C214.631 272.529 214.071 272.761 213.615 273.225C213.159 273.681 212.931 274.241 212.931 274.905C212.931 275.569 213.159 276.133 213.615 276.597ZM224.928 271.905H225.72V277.905H224.928V276.729C224.376 277.609 223.568 278.049 222.504 278.049C221.648 278.049 220.916 277.745 220.308 277.137C219.708 276.529 219.408 275.785 219.408 274.905C219.408 274.025 219.708 273.281 220.308 272.673C220.916 272.065 221.648 271.761 222.504 271.761C223.568 271.761 224.376 272.201 224.928 273.081V271.905ZM220.884 276.597C221.34 277.053 221.9 277.281 222.564 277.281C223.228 277.281 223.788 277.053 224.244 276.597C224.7 276.133 224.928 275.569 224.928 274.905C224.928 274.241 224.7 273.681 224.244 273.225C223.788 272.761 223.228 272.529 222.564 272.529C221.9 272.529 221.34 272.761 220.884 273.225C220.428 273.681 220.2 274.241 220.2 274.905C220.2 275.569 220.428 276.133 220.884 276.597ZM227.397 277.905V269.145H228.189V277.905H227.397ZM235.029 271.905H235.821V277.905H235.029V276.729C234.477 277.609 233.669 278.049 232.605 278.049C231.749 278.049 231.017 277.745 230.409 277.137C229.809 276.529 229.509 275.785 229.509 274.905C229.509 274.025 229.809 273.281 230.409 272.673C231.017 272.065 231.749 271.761 232.605 271.761C233.669 271.761 234.477 272.201 235.029 273.081V271.905ZM230.985 276.597C231.441 277.053 232.001 277.281 232.665 277.281C233.329 277.281 233.889 277.053 234.345 276.597C234.801 276.133 235.029 275.569 235.029 274.905C235.029 274.241 234.801 273.681 234.345 273.225C233.889 272.761 233.329 272.529 232.665 272.529C232.001 272.529 231.441 272.761 230.985 273.225C230.529 273.681 230.301 274.241 230.301 274.905C230.301 275.569 230.529 276.133 230.985 276.597ZM240.306 271.761C241.034 271.761 241.606 271.985 242.022 272.433C242.446 272.873 242.658 273.469 242.658 274.221V277.905H241.866V274.221C241.866 273.685 241.722 273.269 241.434 272.973C241.154 272.677 240.754 272.529 240.234 272.529C239.658 272.529 239.19 272.713 238.83 273.081C238.47 273.441 238.29 274.001 238.29 274.761V277.905H237.498V271.905H238.29V272.841C238.738 272.121 239.41 271.761 240.306 271.761ZM246.986 278.049C246.082 278.049 245.33 277.749 244.73 277.149C244.13 276.541 243.83 275.793 243.83 274.905C243.83 274.017 244.13 273.273 244.73 272.673C245.33 272.065 246.082 271.761 246.986 271.761C247.578 271.761 248.11 271.905 248.582 272.193C249.054 272.473 249.398 272.853 249.614 273.333L248.966 273.705C248.806 273.345 248.546 273.061 248.186 272.853C247.834 272.637 247.434 272.529 246.986 272.529C246.322 272.529 245.762 272.761 245.306 273.225C244.85 273.681 244.622 274.241 244.622 274.905C244.622 275.569 244.85 276.133 245.306 276.597C245.762 277.053 246.322 277.281 246.986 277.281C247.434 277.281 247.834 277.177 248.186 276.969C248.538 276.753 248.814 276.465 249.014 276.105L249.674 276.489C249.426 276.969 249.062 277.349 248.582 277.629C248.102 277.909 247.57 278.049 246.986 278.049ZM253.524 271.761C254.412 271.761 255.128 272.077 255.672 272.709C256.224 273.333 256.5 274.073 256.5 274.929C256.5 275.017 256.492 275.141 256.476 275.301H251.208C251.288 275.909 251.544 276.393 251.976 276.753C252.416 277.105 252.956 277.281 253.596 277.281C254.052 277.281 254.444 277.189 254.772 277.005C255.108 276.813 255.36 276.565 255.528 276.261L256.224 276.669C255.96 277.093 255.6 277.429 255.144 277.677C254.688 277.925 254.168 278.049 253.584 278.049C252.64 278.049 251.872 277.753 251.28 277.161C250.688 276.569 250.392 275.817 250.392 274.905C250.392 274.009 250.684 273.261 251.268 272.661C251.852 272.061 252.604 271.761 253.524 271.761ZM253.524 272.529C252.9 272.529 252.376 272.717 251.952 273.093C251.536 273.461 251.288 273.941 251.208 274.533H255.684C255.604 273.901 255.36 273.409 254.952 273.057C254.544 272.705 254.068 272.529 253.524 272.529ZM160.995 299.905L158.727 295.945V295.417H158.991C159.415 295.417 159.771 295.377 160.059 295.297C160.355 295.217 160.587 295.085 160.755 294.901C160.923 294.717 161.023 294.465 161.055 294.145H158.727V293.377H161.043C160.987 293.081 160.875 292.841 160.707 292.657C160.539 292.465 160.311 292.325 160.023 292.237C159.743 292.149 159.399 292.105 158.991 292.105H158.727V291.337H163.695V292.105H161.427C161.611 292.257 161.763 292.437 161.883 292.645C162.003 292.853 162.079 293.097 162.111 293.377H163.695V294.145H162.135C162.079 294.729 161.855 295.185 161.463 295.513C161.079 295.833 160.567 296.037 159.927 296.125L162.219 299.905H160.995ZM166.986 291.505H168.426V299.905H166.77V293.257L165.186 293.701L164.778 292.285L166.986 291.505ZM172.647 294.565C173.455 294.565 174.135 294.809 174.687 295.297C175.239 295.777 175.515 296.449 175.515 297.313C175.515 298.177 175.223 298.853 174.639 299.341C174.063 299.829 173.355 300.073 172.515 300.073C171.835 300.073 171.235 299.921 170.715 299.617C170.195 299.313 169.819 298.865 169.587 298.273L171.003 297.445C171.211 298.117 171.715 298.453 172.515 298.453C172.939 298.453 173.267 298.353 173.499 298.153C173.739 297.945 173.859 297.665 173.859 297.313C173.859 296.969 173.743 296.693 173.511 296.485C173.279 296.277 172.963 296.173 172.563 296.173H170.019L170.355 291.505H175.119V293.053H171.891L171.783 294.565H172.647ZM178.375 298.249L177.475 301.585H176.215L176.695 298.249H178.375ZM185.759 296.941V298.477H184.859V299.905H183.191V298.477H179.219V296.941L182.015 291.505H183.791L181.007 296.941H183.191V294.949H184.859V296.941H185.759ZM189.708 300.073C188.66 300.073 187.836 299.677 187.236 298.885C186.644 298.085 186.348 297.025 186.348 295.705C186.348 294.385 186.644 293.329 187.236 292.537C187.836 291.737 188.66 291.337 189.708 291.337C190.764 291.337 191.588 291.737 192.18 292.537C192.772 293.329 193.068 294.385 193.068 295.705C193.068 297.025 192.772 298.085 192.18 298.885C191.588 299.677 190.764 300.073 189.708 300.073ZM188.436 297.757C188.724 298.221 189.148 298.453 189.708 298.453C190.268 298.453 190.692 298.217 190.98 297.745C191.276 297.273 191.424 296.593 191.424 295.705C191.424 294.809 191.276 294.125 190.98 293.653C190.692 293.181 190.268 292.945 189.708 292.945C189.148 292.945 188.724 293.181 188.436 293.653C188.148 294.125 188.004 294.809 188.004 295.705C188.004 296.601 188.148 297.285 188.436 297.757ZM197.266 300.073C196.218 300.073 195.394 299.677 194.794 298.885C194.202 298.085 193.906 297.025 193.906 295.705C193.906 294.385 194.202 293.329 194.794 292.537C195.394 291.737 196.218 291.337 197.266 291.337C198.322 291.337 199.146 291.737 199.738 292.537C200.33 293.329 200.626 294.385 200.626 295.705C200.626 297.025 200.33 298.085 199.738 298.885C199.146 299.677 198.322 300.073 197.266 300.073ZM195.994 297.757C196.282 298.221 196.706 298.453 197.266 298.453C197.826 298.453 198.25 298.217 198.538 297.745C198.834 297.273 198.982 296.593 198.982 295.705C198.982 294.809 198.834 294.125 198.538 293.653C198.25 293.181 197.826 292.945 197.266 292.945C196.706 292.945 196.282 293.181 195.994 293.653C195.706 294.125 195.562 294.809 195.562 295.705C195.562 296.601 195.706 297.285 195.994 297.757ZM203.01 299.761C202.81 299.961 202.57 300.061 202.29 300.061C202.01 300.061 201.77 299.961 201.57 299.761C201.37 299.561 201.27 299.321 201.27 299.041C201.27 298.761 201.37 298.521 201.57 298.321C201.77 298.121 202.01 298.021 202.29 298.021C202.57 298.021 202.81 298.121 203.01 298.321C203.21 298.521 203.31 298.761 203.31 299.041C203.31 299.321 203.21 299.561 203.01 299.761ZM207.309 300.073C206.261 300.073 205.437 299.677 204.837 298.885C204.245 298.085 203.949 297.025 203.949 295.705C203.949 294.385 204.245 293.329 204.837 292.537C205.437 291.737 206.261 291.337 207.309 291.337C208.365 291.337 209.189 291.737 209.781 292.537C210.373 293.329 210.669 294.385 210.669 295.705C210.669 297.025 210.373 298.085 209.781 298.885C209.189 299.677 208.365 300.073 207.309 300.073ZM206.037 297.757C206.325 298.221 206.749 298.453 207.309 298.453C207.869 298.453 208.293 298.217 208.581 297.745C208.877 297.273 209.025 296.593 209.025 295.705C209.025 294.809 208.877 294.125 208.581 293.653C208.293 293.181 207.869 292.945 207.309 292.945C206.749 292.945 206.325 293.181 206.037 293.653C205.749 294.125 205.605 294.809 205.605 295.705C205.605 296.601 205.749 297.285 206.037 297.757ZM214.868 300.073C213.82 300.073 212.996 299.677 212.396 298.885C211.804 298.085 211.508 297.025 211.508 295.705C211.508 294.385 211.804 293.329 212.396 292.537C212.996 291.737 213.82 291.337 214.868 291.337C215.924 291.337 216.748 291.737 217.34 292.537C217.932 293.329 218.228 294.385 218.228 295.705C218.228 297.025 217.932 298.085 217.34 298.885C216.748 299.677 215.924 300.073 214.868 300.073ZM213.596 297.757C213.884 298.221 214.308 298.453 214.868 298.453C215.428 298.453 215.852 298.217 216.14 297.745C216.436 297.273 216.584 296.593 216.584 295.705C216.584 294.809 216.436 294.125 216.14 293.653C215.852 293.181 215.428 292.945 214.868 292.945C214.308 292.945 213.884 293.181 213.596 293.653C213.308 294.125 213.164 294.809 213.164 295.705C213.164 296.601 213.308 297.285 213.596 297.757Z" fill="#1E1E1E"/>
<g filter="url(#filter0_d_1088_1160)">
<mask id="path-29-inside-1_1088_1160" fill="white">
<path d="M157.779 175.623H467.703V248.878H157.779V175.623Z"/>
</mask>
<path d="M157.779 175.623H467.703V248.878H157.779V175.623Z" fill="white"/>
<path d="M467.703 248.878V247.878H157.779V248.878V249.878H467.703V248.878Z" fill="#0A0C33" fill-opacity="0.5" mask="url(#path-29-inside-1_1088_1160)"/>
<path d="M217.924 204.425C218.782 204.919 219.212 205.666 219.212 206.665C219.212 207.495 218.918 208.177 218.33 208.709C217.742 209.241 217.018 209.507 216.16 209.507H212.002V199.707H215.866C216.706 199.707 217.41 199.968 217.98 200.491C218.558 201.004 218.848 201.662 218.848 202.465C218.848 203.277 218.54 203.93 217.924 204.425ZM215.866 201.513H213.934V203.669H215.866C216.164 203.669 216.412 203.566 216.608 203.361C216.813 203.155 216.916 202.899 216.916 202.591C216.916 202.283 216.818 202.026 216.622 201.821C216.426 201.615 216.174 201.513 215.866 201.513ZM216.16 207.701C216.486 207.701 216.757 207.593 216.972 207.379C217.186 207.155 217.294 206.875 217.294 206.539C217.294 206.212 217.186 205.941 216.972 205.727C216.757 205.503 216.486 205.391 216.16 205.391H213.934V207.701H216.16ZM225.824 202.507H227.63V209.507H225.824V208.681C225.282 209.362 224.522 209.703 223.542 209.703C222.608 209.703 221.806 209.348 221.134 208.639C220.471 207.92 220.14 207.043 220.14 206.007C220.14 204.971 220.471 204.098 221.134 203.389C221.806 202.67 222.608 202.311 223.542 202.311C224.522 202.311 225.282 202.651 225.824 203.333V202.507ZM222.492 207.435C222.856 207.799 223.318 207.981 223.878 207.981C224.438 207.981 224.9 207.799 225.264 207.435C225.637 207.061 225.824 206.585 225.824 206.007C225.824 205.428 225.637 204.957 225.264 204.593C224.9 204.219 224.438 204.033 223.878 204.033C223.318 204.033 222.856 204.219 222.492 204.593C222.128 204.957 221.946 205.428 221.946 206.007C221.946 206.585 222.128 207.061 222.492 207.435ZM233.159 202.311C233.925 202.311 234.555 202.567 235.049 203.081C235.553 203.594 235.805 204.303 235.805 205.209V209.507H233.999V205.433C233.999 204.966 233.873 204.611 233.621 204.369C233.369 204.117 233.033 203.991 232.613 203.991C232.147 203.991 231.773 204.135 231.493 204.425C231.213 204.714 231.073 205.148 231.073 205.727V209.507H229.267V202.507H231.073V203.291C231.512 202.637 232.207 202.311 233.159 202.311ZM243.801 209.507H241.701L239.153 206.329V209.507H237.347V199.707H239.153V205.587L241.561 202.507H243.717L240.903 205.965L243.801 209.507ZM250.107 199.707H251.787V209.507H249.855V201.751L248.007 202.269L247.531 200.617L250.107 199.707Z" fill="#1E1E1E"/>
</g>
<circle cx="184.687" cy="212.318" r="11.416" fill="#A5EB14"/>
<path d="M216.042 222.703C216.689 222.703 217.225 222.92 217.652 223.353C218.085 223.78 218.302 224.313 218.302 224.953C218.302 225.587 218.085 226.12 217.652 226.553C217.225 226.987 216.689 227.203 216.042 227.203H214.432V229.703H213.502V222.703H216.042ZM216.042 226.333C216.429 226.333 216.749 226.203 217.002 225.943C217.255 225.677 217.382 225.347 217.382 224.953C217.382 224.553 217.255 224.223 217.002 223.963C216.749 223.703 216.429 223.573 216.042 223.573H214.432V226.333H216.042ZM220.073 225.543C220.36 224.923 220.88 224.613 221.633 224.613V225.523C221.206 225.503 220.84 225.617 220.533 225.863C220.226 226.11 220.073 226.507 220.073 227.053V229.703H219.203V224.703H220.073V225.543ZM222.924 223.793C222.758 223.793 222.618 223.737 222.504 223.623C222.391 223.51 222.334 223.373 222.334 223.213C222.334 223.053 222.391 222.917 222.504 222.803C222.618 222.683 222.758 222.623 222.924 222.623C223.084 222.623 223.221 222.683 223.334 222.803C223.448 222.917 223.504 223.053 223.504 223.213C223.504 223.373 223.448 223.51 223.334 223.623C223.221 223.737 223.084 223.793 222.924 223.793ZM222.484 229.703V224.703H223.354V229.703H222.484ZM230.081 224.573C230.641 224.573 231.095 224.757 231.441 225.123C231.788 225.483 231.961 225.973 231.961 226.593V229.703H231.091V226.623C231.091 226.237 230.991 225.937 230.791 225.723C230.591 225.51 230.325 225.403 229.991 225.403C229.618 225.403 229.318 225.53 229.091 225.783C228.871 226.03 228.761 226.41 228.761 226.923V229.703H227.891V226.623C227.891 226.237 227.795 225.937 227.601 225.723C227.415 225.51 227.158 225.403 226.831 225.403C226.465 225.403 226.158 225.53 225.911 225.783C225.671 226.037 225.551 226.417 225.551 226.923V229.703H224.681V224.703H225.551V225.373C225.891 224.84 226.388 224.573 227.041 224.573C227.715 224.573 228.205 224.857 228.511 225.423C228.858 224.857 229.381 224.573 230.081 224.573ZM237.308 224.703H238.178V229.703H237.308V228.843C236.874 229.503 236.244 229.833 235.418 229.833C234.718 229.833 234.121 229.58 233.628 229.073C233.134 228.56 232.888 227.937 232.888 227.203C232.888 226.47 233.134 225.85 233.628 225.343C234.121 224.83 234.718 224.573 235.418 224.573C236.244 224.573 236.874 224.903 237.308 225.563V224.703ZM235.528 228.993C236.034 228.993 236.458 228.823 236.798 228.483C237.138 228.137 237.308 227.71 237.308 227.203C237.308 226.697 237.138 226.273 236.798 225.933C236.458 225.587 236.034 225.413 235.528 225.413C235.028 225.413 234.608 225.587 234.268 225.933C233.928 226.273 233.758 226.697 233.758 227.203C233.758 227.71 233.928 228.137 234.268 228.483C234.608 228.823 235.028 228.993 235.528 228.993ZM240.366 225.543C240.653 224.923 241.173 224.613 241.926 224.613V225.523C241.499 225.503 241.133 225.617 240.826 225.863C240.519 226.11 240.366 226.507 240.366 227.053V229.703H239.496V224.703H240.366V225.543ZM246.375 224.703H247.305L245.265 230.013C245.051 230.58 244.751 231.01 244.365 231.303C243.985 231.603 243.545 231.737 243.045 231.703V230.893C243.658 230.94 244.108 230.6 244.395 229.873L244.485 229.683L242.305 224.703H243.235L244.935 228.623L246.375 224.703ZM255.231 229.703L254.661 228.133H251.511L250.941 229.703H249.951L252.561 222.703H253.611L256.221 229.703H255.231ZM251.831 227.263H254.341L253.081 223.813L251.831 227.263ZM259.19 229.833C258.436 229.833 257.81 229.583 257.31 229.083C256.81 228.577 256.56 227.95 256.56 227.203C256.56 226.457 256.81 225.833 257.31 225.333C257.81 224.827 258.436 224.573 259.19 224.573C259.683 224.573 260.126 224.693 260.52 224.933C260.913 225.167 261.206 225.483 261.4 225.883L260.67 226.303C260.543 226.037 260.346 225.823 260.08 225.663C259.82 225.503 259.523 225.423 259.19 225.423C258.69 225.423 258.27 225.593 257.93 225.933C257.596 226.273 257.43 226.697 257.43 227.203C257.43 227.703 257.596 228.123 257.93 228.463C258.27 228.803 258.69 228.973 259.19 228.973C259.523 228.973 259.823 228.897 260.09 228.743C260.356 228.583 260.56 228.37 260.7 228.103L261.44 228.533C261.226 228.927 260.92 229.243 260.52 229.483C260.12 229.717 259.676 229.833 259.19 229.833ZM264.58 229.833C263.827 229.833 263.2 229.583 262.7 229.083C262.2 228.577 261.95 227.95 261.95 227.203C261.95 226.457 262.2 225.833 262.7 225.333C263.2 224.827 263.827 224.573 264.58 224.573C265.074 224.573 265.517 224.693 265.91 224.933C266.304 225.167 266.597 225.483 266.79 225.883L266.06 226.303C265.934 226.037 265.737 225.823 265.47 225.663C265.21 225.503 264.914 225.423 264.58 225.423C264.08 225.423 263.66 225.593 263.32 225.933C262.987 226.273 262.82 226.697 262.82 227.203C262.82 227.703 262.987 228.123 263.32 228.463C263.66 228.803 264.08 228.973 264.58 228.973C264.914 228.973 265.214 228.897 265.48 228.743C265.747 228.583 265.95 228.37 266.09 228.103L266.83 228.533C266.617 228.927 266.31 229.243 265.91 229.483C265.51 229.717 265.067 229.833 264.58 229.833ZM271.841 229.073C271.328 229.58 270.704 229.833 269.971 229.833C269.238 229.833 268.614 229.58 268.101 229.073C267.594 228.567 267.341 227.943 267.341 227.203C267.341 226.463 267.594 225.84 268.101 225.333C268.614 224.827 269.238 224.573 269.971 224.573C270.704 224.573 271.328 224.827 271.841 225.333C272.354 225.84 272.611 226.463 272.611 227.203C272.611 227.943 272.354 228.567 271.841 229.073ZM269.971 228.983C270.471 228.983 270.891 228.813 271.231 228.473C271.571 228.133 271.741 227.71 271.741 227.203C271.741 226.697 271.571 226.273 271.231 225.933C270.891 225.593 270.471 225.423 269.971 225.423C269.478 225.423 269.061 225.593 268.721 225.933C268.381 226.273 268.211 226.697 268.211 227.203C268.211 227.71 268.381 228.133 268.721 228.473C269.061 228.813 269.478 228.983 269.971 228.983ZM277.087 224.703H277.957V229.703H277.087V228.983C276.733 229.55 276.193 229.833 275.467 229.833C274.88 229.833 274.41 229.65 274.057 229.283C273.703 228.91 273.527 228.407 273.527 227.773V224.703H274.397V227.723C274.397 228.13 274.507 228.447 274.727 228.673C274.947 228.893 275.25 229.003 275.637 229.003C276.07 229.003 276.42 228.87 276.687 228.603C276.953 228.33 277.087 227.913 277.087 227.353V224.703ZM281.771 224.573C282.358 224.573 282.828 224.76 283.181 225.133C283.534 225.5 283.711 226 283.711 226.633V229.703H282.841V226.683C282.841 226.277 282.731 225.963 282.511 225.743C282.291 225.517 281.988 225.403 281.601 225.403C281.168 225.403 280.818 225.54 280.551 225.813C280.284 226.08 280.151 226.493 280.151 227.053V229.703H279.281V224.703H280.151V225.423C280.504 224.857 281.044 224.573 281.771 224.573ZM287.646 225.543H286.316V228.253C286.316 228.5 286.362 228.677 286.456 228.783C286.556 228.883 286.706 228.937 286.906 228.943C287.106 228.943 287.352 228.937 287.646 228.923V229.703C286.886 229.803 286.329 229.743 285.976 229.523C285.622 229.297 285.446 228.873 285.446 228.253V225.543H284.456V224.703H285.446V223.563L286.316 223.303V224.703H287.646V225.543Z" fill="#1E1E1E"/>
<rect x="341.855" y="272.357" width="79.8288" height="5.63497" rx="2.81749" fill="#D9D9D9"/>
<rect x="155.9" y="338.098" width="79.8288" height="5.63497" rx="2.81749" fill="#D9D9D9"/>
<rect x="341.855" y="338.098" width="79.8288" height="5.63497" rx="2.81749" fill="#D9D9D9"/>
<rect x="341.855" y="292.08" width="125.848" height="5.63497" rx="2.81749" fill="#D9D9D9"/>
<rect x="155.9" y="357.821" width="125.848" height="5.63497" rx="2.81749" fill="#D9D9D9"/>
<rect x="341.855" y="357.821" width="125.848" height="5.63497" rx="2.81749" fill="#D9D9D9"/>
<defs>
<filter id="filter0_d_1088_1160" x="137.779" y="159.623" width="349.924" height="113.255" filterUnits="userSpaceOnUse" color-interpolation-filters="sRGB">
<feFlood flood-opacity="0" result="BackgroundImageFix"/>
<feColorMatrix in="SourceAlpha" type="matrix" values="0 0 0 0 0 0 0 0 0 0 0 0 0 0 0 0 0 0 127 0" result="hardAlpha"/>
<feOffset dy="4"/>
<feGaussianBlur stdDeviation="10"/>
<feComposite in2="hardAlpha" operator="out"/>
<feColorMatrix type="matrix" values="0 0 0 0 0.0392157 0 0 0 0 0.0470588 0 0 0 0 0.2 0 0 0 0.03 0"/>
<feBlend mode="normal" in2="BackgroundImageFix" result="effect1_dropShadow_1088_1160"/>
<feBlend mode="normal" in="SourceGraphic" in2="effect1_dropShadow_1088_1160" result="shape"/>
</filter>
</defs>
</svg>
