<svg width="547" height="485" viewBox="0 0 547 485" fill="none" xmlns="http://www.w3.org/2000/svg">
<rect width="390.21" height="484.279" rx="20" fill="white"/>
<rect x="0.5" y="0.5" width="389.21" height="483.279" rx="19.5" stroke="#0A0C33" stroke-opacity="0.1"/>
<path d="M40.1892 38.61C42.1121 38.61 43.7495 39.343 45.1012 40.8089C46.472 42.2559 47.1574 44.036 47.1574 46.1492C47.1574 48.2625 46.472 50.0522 45.1012 51.5181C43.7495 52.9651 42.1121 53.6885 40.1892 53.6885C38.1902 53.6885 36.6481 52.9936 35.5629 51.6038V53.2887H31.8789V33.2982H35.5629V40.6947C36.6481 39.3049 38.1902 38.61 40.1892 38.61ZM36.6766 49.0621C37.4191 49.8046 38.3615 50.1759 39.5038 50.1759C40.6462 50.1759 41.5886 49.8046 42.3311 49.0621C43.0926 48.3006 43.4734 47.3296 43.4734 46.1492C43.4734 44.9689 43.0926 44.0074 42.3311 43.2649C41.5886 42.5033 40.6462 42.1226 39.5038 42.1226C38.3615 42.1226 37.4191 42.5033 36.6766 43.2649C35.9341 44.0074 35.5629 44.9689 35.5629 46.1492C35.5629 47.3296 35.9341 48.3006 36.6766 49.0621ZM51.7259 41.4658C52.0686 40.5519 52.6303 39.8665 53.4109 39.4096C54.2105 38.9527 55.0958 38.7242 56.0667 38.7242V42.8365C54.9434 42.7033 53.9344 42.9317 53.0396 43.5219C52.1638 44.1121 51.7259 45.0926 51.7259 46.4634V53.2887H48.042V39.0098H51.7259V41.4658ZM58.3355 37.2963C57.7263 37.2963 57.1932 37.0774 56.7363 36.6395C56.2984 36.1826 56.0794 35.6495 56.0794 35.0402C56.0794 34.431 56.2984 33.8979 56.7363 33.441C57.1932 32.9841 57.7263 32.7556 58.3355 32.7556C58.9637 32.7556 59.4969 32.9841 59.9347 33.441C60.3916 33.8979 60.6201 34.431 60.6201 35.0402C60.6201 35.6495 60.3916 36.1826 59.9347 36.6395C59.4969 37.0774 58.9637 37.2963 58.3355 37.2963ZM56.5078 53.2887V39.0098H60.1917V53.2887H56.5078ZM72.6735 33.2982H76.3575V53.2887H72.6735V51.6038C71.5883 52.9936 70.0462 53.6885 68.0471 53.6885C66.1243 53.6885 64.4774 52.9651 63.1066 51.5181C61.755 50.0522 61.079 48.2625 61.079 46.1492C61.079 44.036 61.755 42.2559 63.1066 40.8089C64.4774 39.343 66.1243 38.61 68.0471 38.61C70.0462 38.61 71.5883 39.3049 72.6735 40.6947V33.2982ZM65.8767 49.0621C66.6384 49.8046 67.5902 50.1759 68.7325 50.1759C69.8748 50.1759 70.8172 49.8046 71.5597 49.0621C72.3022 48.3006 72.6735 47.3296 72.6735 46.1492C72.6735 44.9689 72.3022 44.0074 71.5597 43.2649C70.8172 42.5033 69.8748 42.1226 68.7325 42.1226C67.5902 42.1226 66.6384 42.5033 65.8767 43.2649C65.1342 44.0074 64.763 44.9689 64.763 46.1492C64.763 47.3296 65.1342 48.3006 65.8767 49.0621ZM88.9509 39.0098H92.5492V52.6033C92.5492 54.8118 91.8161 56.4966 90.3502 57.6581C88.9032 58.8195 87.1518 59.4001 85.0956 59.4001C83.5535 59.4001 82.1921 59.1051 81.0118 58.5148C79.8504 57.9245 78.9557 57.0583 78.3274 55.916L81.4687 54.1169C82.1921 55.4496 83.4392 56.1159 85.2098 56.1159C86.3713 56.1159 87.2851 55.8113 87.9514 55.2021C88.6176 54.5929 88.9509 53.7266 88.9509 52.6033V51.0612C87.8657 52.5081 86.3427 53.2316 84.3816 53.2316C82.3635 53.2316 80.6691 52.5272 79.2984 51.1183C77.9467 49.6904 77.2707 47.9579 77.2707 45.9208C77.2707 43.9027 77.9561 42.1797 79.3269 40.7518C80.6977 39.3239 82.3826 38.61 84.3816 38.61C86.3427 38.61 87.8657 39.3334 88.9509 40.7804V39.0098ZM82.0685 48.748C82.8301 49.4715 83.7914 49.8332 84.9528 49.8332C86.1142 49.8332 87.0661 49.4715 87.8086 48.748C88.5702 48.0055 88.9509 47.0631 88.9509 45.9208C88.9509 44.7975 88.5702 43.8741 87.8086 43.1507C87.0661 42.4082 86.1142 42.0369 84.9528 42.0369C83.7914 42.0369 82.8301 42.4082 82.0685 43.1507C81.326 43.8741 80.9547 44.7975 80.9547 45.9208C80.9547 47.0631 81.326 48.0055 82.0685 48.748Z" fill="#1E1E1E"/>
<path d="M97.5917 53.0032C99.0112 53.0032 100.162 51.8525 100.162 50.433C100.162 49.0135 99.0112 47.8628 97.5917 47.8628C96.1722 47.8628 95.0215 49.0135 95.0215 50.433C95.0215 51.8525 96.1722 53.0032 97.5917 53.0032Z" fill="#A5EB14"/>
<path d="M47.6714 61.4561C49.3087 61.4561 50.6129 61.9892 51.5838 63.0553C52.5738 64.1214 53.0688 65.5492 53.0688 67.339V76.1348H49.3849V67.596C49.3849 66.7393 49.1754 66.073 48.7566 65.5969C48.3377 65.1209 47.7476 64.883 46.986 64.883C46.1483 64.883 45.4915 65.1592 45.0155 65.7112C44.5586 66.2632 44.3301 67.0628 44.3301 68.11V76.1348H40.6462V67.596C40.6462 66.7393 40.4367 66.073 40.0179 65.5969C39.599 65.1209 39.0089 64.883 38.2473 64.883C37.4286 64.883 36.7718 65.1592 36.2768 65.7112C35.8008 66.2632 35.5629 67.0628 35.5629 68.11V76.1348H31.8789V61.8559H35.5629V63.3694C36.4196 62.0938 37.7428 61.4561 39.5324 61.4561C41.2839 61.4561 42.5786 62.1414 43.4163 63.5122C44.3682 62.1414 45.7866 61.4561 47.6714 61.4561ZM66.6498 74.3642C65.1839 75.8112 63.3942 76.5346 61.2809 76.5346C59.1676 76.5346 57.3781 75.8112 55.9121 74.3642C54.4652 72.8983 53.7417 71.1086 53.7417 68.9953C53.7417 66.882 54.4652 65.102 55.9121 63.655C57.3781 62.1891 59.1676 61.4561 61.2809 61.4561C63.3942 61.4561 65.1839 62.1891 66.6498 63.655C68.116 65.102 68.8488 66.882 68.8488 68.9953C68.8488 71.1086 68.116 72.8983 66.6498 74.3642ZM58.5109 71.8225C59.2533 72.5651 60.1769 72.9363 61.2809 72.9363C62.3853 72.9363 63.3085 72.5651 64.051 71.8225C64.7935 71.08 65.1648 70.1376 65.1648 68.9953C65.1648 67.853 64.7935 66.9106 64.051 66.1681C63.3085 65.4256 62.3853 65.0543 61.2809 65.0543C60.1769 65.0543 59.2533 65.4256 58.5109 66.1681C57.7874 66.9106 57.4257 67.853 57.4257 68.9953C57.4257 70.1376 57.7874 71.08 58.5109 71.8225ZM77.666 61.4561C79.2272 61.4561 80.5123 61.9795 81.5213 63.0267C82.5494 64.074 83.0634 65.5207 83.0634 67.3675V76.1348H79.3795V67.8245C79.3795 66.8726 79.1224 66.149 78.6084 65.6541C78.0944 65.14 77.409 64.883 76.5522 64.883C75.6004 64.883 74.8388 65.178 74.2676 65.7683C73.6964 66.3586 73.4109 67.2439 73.4109 68.4242V76.1348H69.7269V61.8559H73.4109V63.4551C74.3059 62.1223 75.7241 61.4561 77.666 61.4561ZM87.6084 70.5089C88.1033 72.2986 89.4455 73.1933 91.6351 73.1933C93.0438 73.1933 94.1102 72.7173 94.8335 71.7654L97.8035 73.4789C96.3948 75.5159 94.3195 76.5346 91.5779 76.5346C89.2171 76.5346 87.3228 75.8206 85.8949 74.3928C84.467 72.9649 83.7531 71.1657 83.7531 68.9953C83.7531 66.8441 84.4576 65.0543 85.8664 63.6265C87.2751 62.1794 89.084 61.4561 91.2924 61.4561C93.3865 61.4561 95.1097 62.1794 96.4613 63.6265C97.8321 65.0735 98.5175 66.8629 98.5175 68.9953C98.5175 69.4714 98.4698 69.9757 98.3747 70.5089H87.6084ZM87.5513 67.6531H94.8335C94.6242 66.6821 94.1861 65.9588 93.5199 65.4827C92.8725 65.0067 92.13 64.7688 91.2924 64.7688C90.3023 64.7688 89.4838 65.0258 88.8364 65.5398C88.189 66.0347 87.7606 66.7393 87.5513 67.6531ZM108.128 61.8559H112.069L106.871 76.1348C106.129 78.1909 105.139 79.676 103.901 80.5898C102.683 81.5228 101.16 81.9415 99.332 81.8464V78.4194C100.322 78.4385 101.103 78.2289 101.674 77.7911C102.264 77.3533 102.73 76.6488 103.073 75.6779L97.2187 61.8559H101.245L104.958 71.4513L108.128 61.8559Z" fill="#1E1E1E"/>
<path fill-rule="evenodd" clip-rule="evenodd" d="M36.0024 125.425C35.3864 125.425 34.7956 125.67 34.36 126.105C33.9244 126.541 33.6797 127.131 33.6797 127.747V144.006C33.6797 144.622 33.9244 145.213 34.36 145.649C34.7956 146.084 35.3864 146.329 36.0024 146.329H52.2611C52.8771 146.329 53.4679 146.084 53.9035 145.649C54.3391 145.213 54.5838 144.622 54.5838 144.006V127.747C54.5838 127.131 54.3391 126.541 53.9035 126.105C53.4679 125.67 52.8771 125.425 52.2611 125.425H36.0024ZM49.8804 133.317C50.0983 133.1 50.2208 132.804 50.2209 132.496C50.221 132.188 50.0987 131.892 49.881 131.675C49.6632 131.457 49.3678 131.334 49.0597 131.334C48.7517 131.334 48.4562 131.456 48.2382 131.674L42.4896 137.423L40.0264 134.959C39.9186 134.852 39.7906 134.766 39.6497 134.707C39.5087 134.649 39.3577 134.619 39.2052 134.619C38.8971 134.619 38.6016 134.741 38.3837 134.959C38.1658 135.177 38.0433 135.472 38.0432 135.78C38.0431 136.088 38.1654 136.384 38.3831 136.602L41.5861 139.805C41.7047 139.923 41.8456 140.017 42.0006 140.082C42.1556 140.146 42.3218 140.179 42.4896 140.179C42.6574 140.179 42.8236 140.146 42.9786 140.082C43.1336 140.017 43.2745 139.923 43.3931 139.805L49.8804 133.317Z" fill="#0A0C33"/>
<path fill-rule="evenodd" clip-rule="evenodd" d="M36.0024 222.977C35.3864 222.977 34.7956 223.222 34.36 223.658C33.9244 224.093 33.6797 224.684 33.6797 225.3V241.559C33.6797 242.175 33.9244 242.766 34.36 243.201C34.7956 243.637 35.3864 243.881 36.0024 243.881H52.2611C52.8771 243.881 53.4679 243.637 53.9035 243.201C54.3391 242.766 54.5838 242.175 54.5838 241.559V225.3C54.5838 224.684 54.3391 224.093 53.9035 223.658C53.4679 223.222 52.8771 222.977 52.2611 222.977H36.0024ZM49.8804 230.87C50.0983 230.652 50.2208 230.357 50.2209 230.049C50.221 229.74 50.0987 229.445 49.881 229.227C49.6632 229.009 49.3678 228.887 49.0597 228.887C48.7517 228.886 48.4562 229.009 48.2382 229.226L42.4896 234.975L40.0264 232.512C39.9186 232.404 39.7906 232.318 39.6497 232.26C39.5087 232.202 39.3577 232.171 39.2052 232.171C38.8971 232.171 38.6016 232.294 38.3837 232.511C38.1658 232.729 38.0433 233.024 38.0432 233.333C38.0431 233.641 38.1654 233.936 38.3831 234.154L41.5861 237.357C41.7047 237.476 41.8456 237.57 42.0006 237.634C42.1556 237.698 42.3218 237.731 42.4896 237.731C42.6574 237.731 42.8236 237.698 42.9786 237.634C43.1336 237.57 43.2745 237.476 43.3931 237.357L49.8804 230.87Z" fill="#0A0C33"/>
<path fill-rule="evenodd" clip-rule="evenodd" d="M36.0024 320.53C35.3864 320.53 34.7956 320.774 34.36 321.21C33.9244 321.646 33.6797 322.236 33.6797 322.852V339.111C33.6797 339.727 33.9244 340.318 34.36 340.754C34.7956 341.189 35.3864 341.434 36.0024 341.434H52.2611C52.8771 341.434 53.4679 341.189 53.9035 340.754C54.3391 340.318 54.5838 339.727 54.5838 339.111V322.852C54.5838 322.236 54.3391 321.646 53.9035 321.21C53.4679 320.774 52.8771 320.53 52.2611 320.53H36.0024ZM49.8804 328.422C50.0983 328.204 50.2208 327.909 50.2209 327.601C50.221 327.293 50.0987 326.997 49.881 326.78C49.6632 326.562 49.3678 326.439 49.0597 326.439C48.7517 326.439 48.4562 326.561 48.2382 326.779L42.4896 332.528L40.0264 330.064C39.9186 329.956 39.7906 329.871 39.6497 329.812C39.5087 329.754 39.3577 329.724 39.2052 329.724C38.8971 329.724 38.6016 329.846 38.3837 330.064C38.1658 330.282 38.0433 330.577 38.0432 330.885C38.0431 331.193 38.1654 331.489 38.3831 331.707L41.5861 334.909C41.7047 335.028 41.8456 335.122 42.0006 335.187C42.1556 335.251 42.3218 335.284 42.4896 335.284C42.6574 335.284 42.8236 335.251 42.9786 335.187C43.1336 335.122 43.2745 335.028 43.3931 334.909L49.8804 328.422Z" fill="#0A0C33"/>
<rect x="19.7422" y="405.308" width="349.563" height="55.7443" rx="27.8722" fill="#0A0C33"/>
<path d="M183.868 425.4C185.08 425.4 186.1 425.808 186.928 426.624C187.756 427.44 188.17 428.442 188.17 429.63C188.17 430.818 187.756 431.82 186.928 432.636C186.1 433.452 185.08 433.86 183.868 433.86H181.654V438H179.17V425.4H183.868ZM183.868 431.538C184.396 431.538 184.834 431.358 185.182 430.998C185.53 430.626 185.704 430.17 185.704 429.63C185.704 429.078 185.53 428.622 185.182 428.262C184.834 427.902 184.396 427.722 183.868 427.722H181.654V431.538H183.868ZM195.922 429H198.244V438H195.922V436.938C195.226 437.814 194.248 438.252 192.988 438.252C191.788 438.252 190.756 437.796 189.892 436.884C189.04 435.96 188.614 434.832 188.614 433.5C188.614 432.168 189.04 431.046 189.892 430.134C190.756 429.21 191.788 428.748 192.988 428.748C194.248 428.748 195.226 429.186 195.922 430.062V429ZM191.638 435.336C192.106 435.804 192.7 436.038 193.42 436.038C194.14 436.038 194.734 435.804 195.202 435.336C195.682 434.856 195.922 434.244 195.922 433.5C195.922 432.756 195.682 432.15 195.202 431.682C194.734 431.202 194.14 430.962 193.42 430.962C192.7 430.962 192.106 431.202 191.638 431.682C191.17 432.15 190.936 432.756 190.936 433.5C190.936 434.244 191.17 434.856 191.638 435.336ZM206.217 429H208.701L205.425 438C204.957 439.296 204.333 440.232 203.553 440.808C202.785 441.396 201.825 441.66 200.673 441.6V439.44C201.297 439.452 201.789 439.32 202.149 439.044C202.521 438.768 202.815 438.324 203.031 437.712L199.341 429H201.879L204.219 435.048L206.217 429Z" fill="white"/>
<path d="M77.1802 122.348L74.3602 113.948H76.1602L78.2122 120.404L80.2522 113.948H82.0642L79.2322 122.348H77.1802ZM83.3949 119.984C83.6029 120.736 84.1669 121.112 85.0869 121.112C85.6789 121.112 86.1269 120.912 86.4309 120.512L87.6789 121.232C87.0869 122.088 86.2149 122.516 85.0629 122.516C84.0709 122.516 83.2749 122.216 82.6749 121.616C82.0749 121.016 81.7749 120.26 81.7749 119.348C81.7749 118.444 82.0709 117.692 82.6629 117.092C83.2549 116.484 84.0149 116.18 84.9429 116.18C85.8229 116.18 86.5469 116.484 87.1149 117.092C87.6909 117.7 87.9789 118.452 87.9789 119.348C87.9789 119.548 87.9589 119.76 87.9189 119.984H83.3949ZM83.3709 118.784H86.4309C86.3429 118.376 86.1589 118.072 85.8789 117.872C85.6069 117.672 85.2949 117.572 84.9429 117.572C84.5269 117.572 84.1829 117.68 83.9109 117.896C83.6389 118.104 83.4589 118.4 83.3709 118.784ZM92.3956 116.18C93.0516 116.18 93.5916 116.4 94.0156 116.84C94.4476 117.28 94.6636 117.888 94.6636 118.664V122.348H93.1156V118.856C93.1156 118.456 93.0076 118.152 92.7916 117.944C92.5756 117.728 92.2876 117.62 91.9276 117.62C91.5276 117.62 91.2076 117.744 90.9676 117.992C90.7276 118.24 90.6076 118.612 90.6076 119.108V122.348H89.0596V116.348H90.6076V117.02C90.9836 116.46 91.5796 116.18 92.3956 116.18ZM100.533 113.948H102.081V122.348H100.533V121.64C100.077 122.224 99.4293 122.516 98.5893 122.516C97.7813 122.516 97.0893 122.212 96.5133 121.604C95.9453 120.988 95.6613 120.236 95.6613 119.348C95.6613 118.46 95.9453 117.712 96.5133 117.104C97.0893 116.488 97.7813 116.18 98.5893 116.18C99.4293 116.18 100.077 116.472 100.533 117.056V113.948ZM97.6773 120.572C97.9973 120.884 98.3973 121.04 98.8773 121.04C99.3573 121.04 99.7533 120.884 100.065 120.572C100.377 120.252 100.533 119.844 100.533 119.348C100.533 118.852 100.377 118.448 100.065 118.136C99.7533 117.816 99.3573 117.656 98.8773 117.656C98.3973 117.656 97.9973 117.816 97.6773 118.136C97.3653 118.448 97.2093 118.852 97.2093 119.348C97.2093 119.844 97.3653 120.252 97.6773 120.572ZM108.609 121.604C107.993 122.212 107.241 122.516 106.353 122.516C105.465 122.516 104.713 122.212 104.097 121.604C103.489 120.988 103.185 120.236 103.185 119.348C103.185 118.46 103.489 117.712 104.097 117.104C104.713 116.488 105.465 116.18 106.353 116.18C107.241 116.18 107.993 116.488 108.609 117.104C109.225 117.712 109.533 118.46 109.533 119.348C109.533 120.236 109.225 120.988 108.609 121.604ZM105.189 120.536C105.501 120.848 105.889 121.004 106.353 121.004C106.817 121.004 107.205 120.848 107.517 120.536C107.829 120.224 107.985 119.828 107.985 119.348C107.985 118.868 107.829 118.472 107.517 118.16C107.205 117.848 106.817 117.692 106.353 117.692C105.889 117.692 105.501 117.848 105.189 118.16C104.885 118.472 104.733 118.868 104.733 119.348C104.733 119.828 104.885 120.224 105.189 120.536ZM112.17 117.38C112.314 116.996 112.55 116.708 112.878 116.516C113.214 116.324 113.586 116.228 113.994 116.228V117.956C113.522 117.9 113.098 117.996 112.722 118.244C112.354 118.492 112.17 118.904 112.17 119.48V122.348H110.622V116.348H112.17V117.38ZM123.371 122.348L122.867 120.836H119.519L119.015 122.348H117.227L120.167 113.948H122.219L125.171 122.348H123.371ZM120.047 119.288H122.351L121.199 115.856L120.047 119.288Z" fill="#1E1E1E"/>
<rect x="74.3242" y="132.393" width="112.65" height="6.96804" rx="3.48402" fill="#ECECEC"/>
<rect x="74.3242" y="148.651" width="112.65" height="6.96804" rx="3.48402" fill="#ECECEC"/>
<rect x="248.527" y="148.651" width="112.65" height="6.96804" rx="3.48402" fill="#CFCFCF"/>
<rect x="74.3242" y="164.91" width="112.65" height="6.96804" rx="3.48402" fill="#ECECEC"/>
<path d="M77.1802 219.348L74.3602 210.948H76.1602L78.2122 217.404L80.2522 210.948H82.0642L79.2322 219.348H77.1802ZM83.3949 216.984C83.6029 217.736 84.1669 218.112 85.0869 218.112C85.6789 218.112 86.1269 217.912 86.4309 217.512L87.6789 218.232C87.0869 219.088 86.2149 219.516 85.0629 219.516C84.0709 219.516 83.2749 219.216 82.6749 218.616C82.0749 218.016 81.7749 217.26 81.7749 216.348C81.7749 215.444 82.0709 214.692 82.6629 214.092C83.2549 213.484 84.0149 213.18 84.9429 213.18C85.8229 213.18 86.5469 213.484 87.1149 214.092C87.6909 214.7 87.9789 215.452 87.9789 216.348C87.9789 216.548 87.9589 216.76 87.9189 216.984H83.3949ZM83.3709 215.784H86.4309C86.3429 215.376 86.1589 215.072 85.8789 214.872C85.6069 214.672 85.2949 214.572 84.9429 214.572C84.5269 214.572 84.1829 214.68 83.9109 214.896C83.6389 215.104 83.4589 215.4 83.3709 215.784ZM92.3956 213.18C93.0516 213.18 93.5916 213.4 94.0156 213.84C94.4476 214.28 94.6636 214.888 94.6636 215.664V219.348H93.1156V215.856C93.1156 215.456 93.0076 215.152 92.7916 214.944C92.5756 214.728 92.2876 214.62 91.9276 214.62C91.5276 214.62 91.2076 214.744 90.9676 214.992C90.7276 215.24 90.6076 215.612 90.6076 216.108V219.348H89.0596V213.348H90.6076V214.02C90.9836 213.46 91.5796 213.18 92.3956 213.18ZM100.533 210.948H102.081V219.348H100.533V218.64C100.077 219.224 99.4293 219.516 98.5893 219.516C97.7813 219.516 97.0893 219.212 96.5133 218.604C95.9453 217.988 95.6613 217.236 95.6613 216.348C95.6613 215.46 95.9453 214.712 96.5133 214.104C97.0893 213.488 97.7813 213.18 98.5893 213.18C99.4293 213.18 100.077 213.472 100.533 214.056V210.948ZM97.6773 217.572C97.9973 217.884 98.3973 218.04 98.8773 218.04C99.3573 218.04 99.7533 217.884 100.065 217.572C100.377 217.252 100.533 216.844 100.533 216.348C100.533 215.852 100.377 215.448 100.065 215.136C99.7533 214.816 99.3573 214.656 98.8773 214.656C98.3973 214.656 97.9973 214.816 97.6773 215.136C97.3653 215.448 97.2093 215.852 97.2093 216.348C97.2093 216.844 97.3653 217.252 97.6773 217.572ZM108.609 218.604C107.993 219.212 107.241 219.516 106.353 219.516C105.465 219.516 104.713 219.212 104.097 218.604C103.489 217.988 103.185 217.236 103.185 216.348C103.185 215.46 103.489 214.712 104.097 214.104C104.713 213.488 105.465 213.18 106.353 213.18C107.241 213.18 107.993 213.488 108.609 214.104C109.225 214.712 109.533 215.46 109.533 216.348C109.533 217.236 109.225 217.988 108.609 218.604ZM105.189 217.536C105.501 217.848 105.889 218.004 106.353 218.004C106.817 218.004 107.205 217.848 107.517 217.536C107.829 217.224 107.985 216.828 107.985 216.348C107.985 215.868 107.829 215.472 107.517 215.16C107.205 214.848 106.817 214.692 106.353 214.692C105.889 214.692 105.501 214.848 105.189 215.16C104.885 215.472 104.733 215.868 104.733 216.348C104.733 216.828 104.885 217.224 105.189 217.536ZM112.17 214.38C112.314 213.996 112.55 213.708 112.878 213.516C113.214 213.324 113.586 213.228 113.994 213.228V214.956C113.522 214.9 113.098 214.996 112.722 215.244C112.354 215.492 112.17 215.904 112.17 216.48V219.348H110.622V213.348H112.17V214.38ZM123.047 214.992C123.783 215.416 124.151 216.056 124.151 216.912C124.151 217.624 123.899 218.208 123.395 218.664C122.891 219.12 122.271 219.348 121.535 219.348H117.971V210.948H121.283C122.003 210.948 122.607 211.172 123.095 211.62C123.591 212.06 123.839 212.624 123.839 213.312C123.839 214.008 123.575 214.568 123.047 214.992ZM121.283 212.496H119.627V214.344H121.283C121.539 214.344 121.751 214.256 121.919 214.08C122.095 213.904 122.183 213.684 122.183 213.42C122.183 213.156 122.099 212.936 121.931 212.76C121.763 212.584 121.547 212.496 121.283 212.496ZM121.535 217.8C121.815 217.8 122.047 217.708 122.231 217.524C122.415 217.332 122.507 217.092 122.507 216.804C122.507 216.524 122.415 216.292 122.231 216.108C122.047 215.916 121.815 215.82 121.535 215.82H119.627V217.8H121.535Z" fill="#1E1E1E"/>
<rect x="74.3242" y="228.784" width="112.65" height="6.96804" rx="3.48402" fill="#ECECEC"/>
<rect x="74.3242" y="245.043" width="112.65" height="6.96804" rx="3.48402" fill="#ECECEC"/>
<rect x="248.527" y="245.043" width="112.65" height="6.96804" rx="3.48402" fill="#CFCFCF"/>
<rect x="74.3242" y="261.301" width="112.65" height="6.96804" rx="3.48402" fill="#ECECEC"/>
<path d="M77.1802 315.348L74.3602 306.948H76.1602L78.2122 313.404L80.2522 306.948H82.0642L79.2322 315.348H77.1802ZM83.3949 312.984C83.6029 313.736 84.1669 314.112 85.0869 314.112C85.6789 314.112 86.1269 313.912 86.4309 313.512L87.6789 314.232C87.0869 315.088 86.2149 315.516 85.0629 315.516C84.0709 315.516 83.2749 315.216 82.6749 314.616C82.0749 314.016 81.7749 313.26 81.7749 312.348C81.7749 311.444 82.0709 310.692 82.6629 310.092C83.2549 309.484 84.0149 309.18 84.9429 309.18C85.8229 309.18 86.5469 309.484 87.1149 310.092C87.6909 310.7 87.9789 311.452 87.9789 312.348C87.9789 312.548 87.9589 312.76 87.9189 312.984H83.3949ZM83.3709 311.784H86.4309C86.3429 311.376 86.1589 311.072 85.8789 310.872C85.6069 310.672 85.2949 310.572 84.9429 310.572C84.5269 310.572 84.1829 310.68 83.9109 310.896C83.6389 311.104 83.4589 311.4 83.3709 311.784ZM92.3956 309.18C93.0516 309.18 93.5916 309.4 94.0156 309.84C94.4476 310.28 94.6636 310.888 94.6636 311.664V315.348H93.1156V311.856C93.1156 311.456 93.0076 311.152 92.7916 310.944C92.5756 310.728 92.2876 310.62 91.9276 310.62C91.5276 310.62 91.2076 310.744 90.9676 310.992C90.7276 311.24 90.6076 311.612 90.6076 312.108V315.348H89.0596V309.348H90.6076V310.02C90.9836 309.46 91.5796 309.18 92.3956 309.18ZM100.533 306.948H102.081V315.348H100.533V314.64C100.077 315.224 99.4293 315.516 98.5893 315.516C97.7813 315.516 97.0893 315.212 96.5133 314.604C95.9453 313.988 95.6613 313.236 95.6613 312.348C95.6613 311.46 95.9453 310.712 96.5133 310.104C97.0893 309.488 97.7813 309.18 98.5893 309.18C99.4293 309.18 100.077 309.472 100.533 310.056V306.948ZM97.6773 313.572C97.9973 313.884 98.3973 314.04 98.8773 314.04C99.3573 314.04 99.7533 313.884 100.065 313.572C100.377 313.252 100.533 312.844 100.533 312.348C100.533 311.852 100.377 311.448 100.065 311.136C99.7533 310.816 99.3573 310.656 98.8773 310.656C98.3973 310.656 97.9973 310.816 97.6773 311.136C97.3653 311.448 97.2093 311.852 97.2093 312.348C97.2093 312.844 97.3653 313.252 97.6773 313.572ZM108.609 314.604C107.993 315.212 107.241 315.516 106.353 315.516C105.465 315.516 104.713 315.212 104.097 314.604C103.489 313.988 103.185 313.236 103.185 312.348C103.185 311.46 103.489 310.712 104.097 310.104C104.713 309.488 105.465 309.18 106.353 309.18C107.241 309.18 107.993 309.488 108.609 310.104C109.225 310.712 109.533 311.46 109.533 312.348C109.533 313.236 109.225 313.988 108.609 314.604ZM105.189 313.536C105.501 313.848 105.889 314.004 106.353 314.004C106.817 314.004 107.205 313.848 107.517 313.536C107.829 313.224 107.985 312.828 107.985 312.348C107.985 311.868 107.829 311.472 107.517 311.16C107.205 310.848 106.817 310.692 106.353 310.692C105.889 310.692 105.501 310.848 105.189 311.16C104.885 311.472 104.733 311.868 104.733 312.348C104.733 312.828 104.885 313.224 105.189 313.536ZM112.17 310.38C112.314 309.996 112.55 309.708 112.878 309.516C113.214 309.324 113.586 309.228 113.994 309.228V310.956C113.522 310.9 113.098 310.996 112.722 311.244C112.354 311.492 112.17 311.904 112.17 312.48V315.348H110.622V309.348H112.17V310.38ZM121.955 315.516C120.691 315.516 119.647 315.096 118.823 314.256C117.999 313.416 117.587 312.38 117.587 311.148C117.587 309.908 117.999 308.872 118.823 308.04C119.647 307.2 120.691 306.78 121.955 306.78C122.715 306.78 123.415 306.96 124.055 307.32C124.703 307.672 125.207 308.152 125.567 308.76L124.139 309.588C123.931 309.212 123.635 308.92 123.251 308.712C122.867 308.496 122.435 308.388 121.955 308.388C121.139 308.388 120.479 308.644 119.975 309.156C119.479 309.668 119.231 310.332 119.231 311.148C119.231 311.956 119.479 312.616 119.975 313.128C120.479 313.64 121.139 313.896 121.955 313.896C122.435 313.896 122.867 313.792 123.251 313.584C123.643 313.368 123.939 313.076 124.139 312.708L125.567 313.536C125.207 314.144 124.707 314.628 124.067 314.988C123.427 315.34 122.723 315.516 121.955 315.516Z" fill="#1E1E1E"/>
<rect x="74.3242" y="325.175" width="112.65" height="6.96804" rx="3.48402" fill="#ECECEC"/>
<rect x="74.3242" y="341.434" width="112.65" height="6.96804" rx="3.48402" fill="#ECECEC"/>
<rect x="248.527" y="341.434" width="112.65" height="6.96804" rx="3.48402" fill="#CFCFCF"/>
<rect x="74.3242" y="357.693" width="112.65" height="6.96804" rx="3.48402" fill="#ECECEC"/>
<g filter="url(#filter0_d_1086_706)">
<rect x="276" y="110" width="250.665" height="67.1424" rx="10" fill="white"/>
<rect x="276.5" y="110.5" width="249.665" height="66.1424" rx="9.5" stroke="#0A0C33" stroke-opacity="0.1"/>
<path d="M327.631 141.021L324.811 132.621H326.611L328.663 139.077L330.703 132.621H332.515L329.683 141.021H327.631ZM333.846 138.657C334.054 139.409 334.618 139.785 335.538 139.785C336.13 139.785 336.578 139.585 336.882 139.185L338.13 139.905C337.538 140.761 336.666 141.189 335.514 141.189C334.522 141.189 333.726 140.889 333.126 140.289C332.526 139.689 332.226 138.933 332.226 138.021C332.226 137.117 332.522 136.365 333.114 135.765C333.706 135.157 334.466 134.853 335.394 134.853C336.274 134.853 336.998 135.157 337.566 135.765C338.142 136.373 338.43 137.125 338.43 138.021C338.43 138.221 338.41 138.433 338.37 138.657H333.846ZM333.822 137.457H336.882C336.794 137.049 336.61 136.745 336.33 136.545C336.058 136.345 335.746 136.245 335.394 136.245C334.978 136.245 334.634 136.353 334.362 136.569C334.09 136.777 333.91 137.073 333.822 137.457ZM342.847 134.853C343.503 134.853 344.043 135.073 344.467 135.513C344.899 135.953 345.115 136.561 345.115 137.337V141.021H343.567V137.529C343.567 137.129 343.459 136.825 343.243 136.617C343.027 136.401 342.739 136.293 342.379 136.293C341.979 136.293 341.659 136.417 341.419 136.665C341.179 136.913 341.059 137.285 341.059 137.781V141.021H339.511V135.021H341.059V135.693C341.435 135.133 342.031 134.853 342.847 134.853ZM350.985 132.621H352.533V141.021H350.985V140.313C350.529 140.897 349.881 141.189 349.041 141.189C348.233 141.189 347.541 140.885 346.965 140.277C346.397 139.661 346.113 138.909 346.113 138.021C346.113 137.133 346.397 136.385 346.965 135.777C347.541 135.161 348.233 134.853 349.041 134.853C349.881 134.853 350.529 135.145 350.985 135.729V132.621ZM348.129 139.245C348.449 139.557 348.849 139.713 349.329 139.713C349.809 139.713 350.205 139.557 350.517 139.245C350.829 138.925 350.985 138.517 350.985 138.021C350.985 137.525 350.829 137.121 350.517 136.809C350.205 136.489 349.809 136.329 349.329 136.329C348.849 136.329 348.449 136.489 348.129 136.809C347.817 137.121 347.661 137.525 347.661 138.021C347.661 138.517 347.817 138.925 348.129 139.245ZM359.06 140.277C358.444 140.885 357.692 141.189 356.804 141.189C355.916 141.189 355.164 140.885 354.548 140.277C353.94 139.661 353.636 138.909 353.636 138.021C353.636 137.133 353.94 136.385 354.548 135.777C355.164 135.161 355.916 134.853 356.804 134.853C357.692 134.853 358.444 135.161 359.06 135.777C359.676 136.385 359.984 137.133 359.984 138.021C359.984 138.909 359.676 139.661 359.06 140.277ZM355.64 139.209C355.952 139.521 356.34 139.677 356.804 139.677C357.268 139.677 357.656 139.521 357.968 139.209C358.28 138.897 358.436 138.501 358.436 138.021C358.436 137.541 358.28 137.145 357.968 136.833C357.656 136.521 357.268 136.365 356.804 136.365C356.34 136.365 355.952 136.521 355.64 136.833C355.336 137.145 355.184 137.541 355.184 138.021C355.184 138.501 355.336 138.897 355.64 139.209ZM362.621 136.053C362.765 135.669 363.001 135.381 363.329 135.189C363.665 134.997 364.037 134.901 364.445 134.901V136.629C363.973 136.573 363.549 136.669 363.173 136.917C362.805 137.165 362.621 137.577 362.621 138.153V141.021H361.073V135.021H362.621V136.053ZM373.823 141.021L373.319 139.509H369.971L369.467 141.021H367.679L370.619 132.621H372.671L375.623 141.021H373.823ZM370.499 137.961H372.803L371.651 134.529L370.499 137.961Z" fill="#1E1E1E"/>
<path d="M460.959 149.724C461.476 149.724 461.905 149.898 462.247 150.244C462.593 150.586 462.767 151.012 462.767 151.524C462.767 152.031 462.593 152.458 462.247 152.804C461.905 153.151 461.476 153.324 460.959 153.324H459.671V155.324H458.927V149.724H460.959ZM460.959 152.628C461.268 152.628 461.524 152.524 461.727 152.316C461.929 152.103 462.031 151.839 462.031 151.524C462.031 151.204 461.929 150.94 461.727 150.732C461.524 150.524 461.268 150.42 460.959 150.42H459.671V152.628H460.959ZM466.581 151.324H467.277V155.324H466.581V154.636C466.234 155.164 465.73 155.428 465.069 155.428C464.509 155.428 464.032 155.226 463.637 154.82C463.242 154.41 463.045 153.911 463.045 153.324C463.045 152.738 463.242 152.242 463.637 151.836C464.032 151.426 464.509 151.22 465.069 151.22C465.73 151.22 466.234 151.484 466.581 152.012V151.324ZM465.157 154.756C465.562 154.756 465.901 154.62 466.173 154.348C466.445 154.071 466.581 153.73 466.581 153.324C466.581 152.919 466.445 152.58 466.173 152.308C465.901 152.031 465.562 151.892 465.157 151.892C464.757 151.892 464.421 152.031 464.149 152.308C463.877 152.58 463.741 152.919 463.741 153.324C463.741 153.73 463.877 154.071 464.149 154.348C464.421 154.62 464.757 154.756 465.157 154.756ZM471.123 151.324H471.867L470.235 155.572C470.065 156.026 469.825 156.37 469.515 156.604C469.211 156.844 468.859 156.951 468.459 156.924V156.276C468.95 156.314 469.31 156.042 469.539 155.46L469.611 155.308L467.867 151.324H468.611L469.971 154.46L471.123 151.324ZM476.769 151.22C477.217 151.22 477.579 151.367 477.857 151.66C478.134 151.948 478.273 152.34 478.273 152.836V155.324H477.577V152.86C477.577 152.551 477.497 152.311 477.337 152.14C477.177 151.97 476.963 151.884 476.697 151.884C476.398 151.884 476.158 151.986 475.977 152.188C475.801 152.386 475.713 152.69 475.713 153.1V155.324H475.017V152.86C475.017 152.551 474.939 152.311 474.785 152.14C474.635 151.97 474.43 151.884 474.169 151.884C473.875 151.884 473.63 151.986 473.433 152.188C473.241 152.391 473.145 152.695 473.145 153.1V155.324H472.449V151.324H473.145V151.86C473.417 151.434 473.814 151.22 474.337 151.22C474.875 151.22 475.267 151.447 475.513 151.9C475.79 151.447 476.209 151.22 476.769 151.22ZM479.726 153.644C479.795 154.002 479.958 154.279 480.214 154.476C480.475 154.674 480.795 154.772 481.174 154.772C481.702 154.772 482.086 154.578 482.326 154.188L482.918 154.524C482.528 155.127 481.942 155.428 481.158 155.428C480.523 155.428 480.006 155.231 479.606 154.836C479.211 154.436 479.014 153.932 479.014 153.324C479.014 152.722 479.208 152.22 479.598 151.82C479.987 151.42 480.491 151.22 481.11 151.22C481.696 151.22 482.174 151.428 482.542 151.844C482.915 152.255 483.102 152.751 483.102 153.332C483.102 153.434 483.094 153.538 483.078 153.644H479.726ZM481.11 151.876C480.736 151.876 480.427 151.983 480.182 152.196C479.936 152.404 479.784 152.684 479.726 153.036H482.398C482.339 152.658 482.19 152.37 481.95 152.172C481.71 151.975 481.43 151.876 481.11 151.876ZM485.894 151.22C486.363 151.22 486.739 151.37 487.022 151.668C487.304 151.962 487.446 152.362 487.446 152.868V155.324H486.75V152.908C486.75 152.583 486.662 152.332 486.486 152.156C486.31 151.975 486.067 151.884 485.758 151.884C485.411 151.884 485.131 151.994 484.918 152.212C484.704 152.426 484.598 152.756 484.598 153.204V155.324H483.902V151.324H484.598V151.9C484.88 151.447 485.312 151.22 485.894 151.22ZM490.593 151.996H489.529V154.164C489.529 154.362 489.567 154.503 489.641 154.588C489.721 154.668 489.841 154.711 490.001 154.716C490.161 154.716 490.359 154.711 490.593 154.7V155.324C489.985 155.404 489.54 155.356 489.257 155.18C488.975 154.999 488.833 154.66 488.833 154.164V151.996H488.041V151.324H488.833V150.412L489.529 150.204V151.324H490.593V151.996ZM495.697 149.724C496.459 149.724 497.091 149.996 497.593 150.54C498.099 151.079 498.353 151.74 498.353 152.524C498.353 153.308 498.099 153.972 497.593 154.516C497.091 155.055 496.459 155.324 495.697 155.324H493.513V149.724H495.697ZM495.697 154.62C496.267 154.62 496.734 154.42 497.097 154.02C497.459 153.62 497.641 153.122 497.641 152.524C497.641 151.927 497.459 151.428 497.097 151.028C496.734 150.628 496.267 150.428 495.697 150.428H494.257V154.62H495.697ZM501.982 151.324H502.678V155.324H501.982V154.748C501.699 155.202 501.267 155.428 500.686 155.428C500.217 155.428 499.841 155.282 499.558 154.988C499.275 154.69 499.134 154.287 499.134 153.78V151.324H499.83V153.74C499.83 154.066 499.918 154.319 500.094 154.5C500.27 154.676 500.513 154.764 500.822 154.764C501.169 154.764 501.449 154.658 501.662 154.444C501.875 154.226 501.982 153.892 501.982 153.444V151.324ZM504.226 153.644C504.295 154.002 504.458 154.279 504.714 154.476C504.975 154.674 505.295 154.772 505.674 154.772C506.202 154.772 506.586 154.578 506.826 154.188L507.418 154.524C507.028 155.127 506.442 155.428 505.658 155.428C505.023 155.428 504.506 155.231 504.106 154.836C503.711 154.436 503.514 153.932 503.514 153.324C503.514 152.722 503.708 152.22 504.098 151.82C504.487 151.42 504.991 151.22 505.61 151.22C506.196 151.22 506.674 151.428 507.042 151.844C507.415 152.255 507.602 152.751 507.602 153.332C507.602 153.434 507.594 153.538 507.578 153.644H504.226ZM505.61 151.876C505.236 151.876 504.927 151.983 504.682 152.196C504.436 152.404 504.284 152.684 504.226 153.036H506.898C506.839 152.658 506.69 152.37 506.45 152.172C506.21 151.975 505.93 151.876 505.61 151.876Z" fill="#EB2525"/>
<rect x="324.49" y="152.524" width="72.3645" height="4.47616" rx="2.23808" fill="#ECECEC"/>
<rect x="435.648" y="133.873" width="72.3645" height="4.47616" rx="2.23808" fill="#CFCFCF"/>
</g>
<circle cx="300.616" cy="143.571" r="10.4444" fill="#A5EB14"/>
<g filter="url(#filter1_d_1086_706)">
<rect x="276" y="192.142" width="250.665" height="67.1424" rx="10" fill="white"/>
<rect x="276.5" y="192.642" width="249.665" height="66.1424" rx="9.5" stroke="#0A0C33" stroke-opacity="0.1"/>
<path d="M327.631 223.084L324.811 214.684H326.611L328.663 221.14L330.703 214.684H332.515L329.683 223.084H327.631ZM333.846 220.72C334.054 221.472 334.618 221.848 335.538 221.848C336.13 221.848 336.578 221.648 336.882 221.248L338.13 221.968C337.538 222.824 336.666 223.252 335.514 223.252C334.522 223.252 333.726 222.952 333.126 222.352C332.526 221.752 332.226 220.996 332.226 220.084C332.226 219.18 332.522 218.428 333.114 217.828C333.706 217.22 334.466 216.916 335.394 216.916C336.274 216.916 336.998 217.22 337.566 217.828C338.142 218.436 338.43 219.188 338.43 220.084C338.43 220.284 338.41 220.496 338.37 220.72H333.846ZM333.822 219.52H336.882C336.794 219.112 336.61 218.808 336.33 218.608C336.058 218.408 335.746 218.308 335.394 218.308C334.978 218.308 334.634 218.416 334.362 218.632C334.09 218.84 333.91 219.136 333.822 219.52ZM342.847 216.916C343.503 216.916 344.043 217.136 344.467 217.576C344.899 218.016 345.115 218.624 345.115 219.4V223.084H343.567V219.592C343.567 219.192 343.459 218.888 343.243 218.68C343.027 218.464 342.739 218.356 342.379 218.356C341.979 218.356 341.659 218.48 341.419 218.728C341.179 218.976 341.059 219.348 341.059 219.844V223.084H339.511V217.084H341.059V217.756C341.435 217.196 342.031 216.916 342.847 216.916ZM350.985 214.684H352.533V223.084H350.985V222.376C350.529 222.96 349.881 223.252 349.041 223.252C348.233 223.252 347.541 222.948 346.965 222.34C346.397 221.724 346.113 220.972 346.113 220.084C346.113 219.196 346.397 218.448 346.965 217.84C347.541 217.224 348.233 216.916 349.041 216.916C349.881 216.916 350.529 217.208 350.985 217.792V214.684ZM348.129 221.308C348.449 221.62 348.849 221.776 349.329 221.776C349.809 221.776 350.205 221.62 350.517 221.308C350.829 220.988 350.985 220.58 350.985 220.084C350.985 219.588 350.829 219.184 350.517 218.872C350.205 218.552 349.809 218.392 349.329 218.392C348.849 218.392 348.449 218.552 348.129 218.872C347.817 219.184 347.661 219.588 347.661 220.084C347.661 220.58 347.817 220.988 348.129 221.308ZM359.06 222.34C358.444 222.948 357.692 223.252 356.804 223.252C355.916 223.252 355.164 222.948 354.548 222.34C353.94 221.724 353.636 220.972 353.636 220.084C353.636 219.196 353.94 218.448 354.548 217.84C355.164 217.224 355.916 216.916 356.804 216.916C357.692 216.916 358.444 217.224 359.06 217.84C359.676 218.448 359.984 219.196 359.984 220.084C359.984 220.972 359.676 221.724 359.06 222.34ZM355.64 221.272C355.952 221.584 356.34 221.74 356.804 221.74C357.268 221.74 357.656 221.584 357.968 221.272C358.28 220.96 358.436 220.564 358.436 220.084C358.436 219.604 358.28 219.208 357.968 218.896C357.656 218.584 357.268 218.428 356.804 218.428C356.34 218.428 355.952 218.584 355.64 218.896C355.336 219.208 355.184 219.604 355.184 220.084C355.184 220.564 355.336 220.96 355.64 221.272ZM362.621 218.116C362.765 217.732 363.001 217.444 363.329 217.252C363.665 217.06 364.037 216.964 364.445 216.964V218.692C363.973 218.636 363.549 218.732 363.173 218.98C362.805 219.228 362.621 219.64 362.621 220.216V223.084H361.073V217.084H362.621V218.116ZM373.499 218.728C374.235 219.152 374.603 219.792 374.603 220.648C374.603 221.36 374.351 221.944 373.847 222.4C373.343 222.856 372.723 223.084 371.987 223.084H368.423V214.684H371.735C372.455 214.684 373.059 214.908 373.547 215.356C374.043 215.796 374.291 216.36 374.291 217.048C374.291 217.744 374.027 218.304 373.499 218.728ZM371.735 216.232H370.079V218.08H371.735C371.991 218.08 372.203 217.992 372.371 217.816C372.547 217.64 372.635 217.42 372.635 217.156C372.635 216.892 372.551 216.672 372.383 216.496C372.215 216.32 371.999 216.232 371.735 216.232ZM371.987 221.536C372.267 221.536 372.499 221.444 372.683 221.26C372.867 221.068 372.959 220.828 372.959 220.54C372.959 220.26 372.867 220.028 372.683 219.844C372.499 219.652 372.267 219.556 371.987 219.556H370.079V221.536H371.987Z" fill="#1E1E1E"/>
<path d="M460.766 231.759C461.283 231.759 461.712 231.932 462.054 232.279C462.4 232.62 462.574 233.047 462.574 233.559C462.574 234.066 462.4 234.492 462.054 234.839C461.712 235.186 461.283 235.359 460.766 235.359H459.478V237.359H458.734V231.759H460.766ZM460.766 234.663C461.075 234.663 461.331 234.559 461.534 234.351C461.736 234.138 461.838 233.874 461.838 233.559C461.838 233.239 461.736 232.975 461.534 232.767C461.331 232.559 461.075 232.455 460.766 232.455H459.478V234.663H460.766ZM466.388 233.359H467.084V237.359H466.388V236.671C466.041 237.199 465.537 237.463 464.876 237.463C464.316 237.463 463.838 237.26 463.444 236.855C463.049 236.444 462.852 235.946 462.852 235.359C462.852 234.772 463.049 234.276 463.444 233.871C463.838 233.46 464.316 233.255 464.876 233.255C465.537 233.255 466.041 233.519 466.388 234.047V233.359ZM464.964 236.791C465.369 236.791 465.708 236.655 465.98 236.383C466.252 236.106 466.388 235.764 466.388 235.359C466.388 234.954 466.252 234.615 465.98 234.343C465.708 234.066 465.369 233.927 464.964 233.927C464.564 233.927 464.228 234.066 463.956 234.343C463.684 234.615 463.548 234.954 463.548 235.359C463.548 235.764 463.684 236.106 463.956 236.383C464.228 236.655 464.564 236.791 464.964 236.791ZM470.93 233.359H471.674L470.042 237.607C469.871 238.06 469.631 238.404 469.322 238.639C469.018 238.879 468.666 238.986 468.266 238.959V238.311C468.757 238.348 469.117 238.076 469.346 237.495L469.418 237.343L467.674 233.359H468.418L469.778 236.495L470.93 233.359ZM476.575 233.255C477.023 233.255 477.386 233.402 477.663 233.695C477.941 233.983 478.079 234.375 478.079 234.871V237.359H477.383V234.895C477.383 234.586 477.303 234.346 477.143 234.175C476.983 234.004 476.77 233.919 476.503 233.919C476.205 233.919 475.965 234.02 475.783 234.223C475.607 234.42 475.519 234.724 475.519 235.135V237.359H474.823V234.895C474.823 234.586 474.746 234.346 474.591 234.175C474.442 234.004 474.237 233.919 473.975 233.919C473.682 233.919 473.437 234.02 473.239 234.223C473.047 234.426 472.951 234.73 472.951 235.135V237.359H472.255V233.359H472.951V233.895C473.223 233.468 473.621 233.255 474.143 233.255C474.682 233.255 475.074 233.482 475.319 233.935C475.597 233.482 476.015 233.255 476.575 233.255ZM479.532 235.679C479.602 236.036 479.764 236.314 480.02 236.511C480.282 236.708 480.602 236.807 480.98 236.807C481.508 236.807 481.892 236.612 482.132 236.223L482.724 236.559C482.335 237.162 481.748 237.463 480.964 237.463C480.33 237.463 479.812 237.266 479.412 236.871C479.018 236.471 478.82 235.967 478.82 235.359C478.82 234.756 479.015 234.255 479.404 233.855C479.794 233.455 480.298 233.255 480.916 233.255C481.503 233.255 481.98 233.463 482.348 233.879C482.722 234.29 482.908 234.786 482.908 235.367C482.908 235.468 482.9 235.572 482.884 235.679H479.532ZM480.916 233.911C480.543 233.911 480.234 234.018 479.988 234.231C479.743 234.439 479.591 234.719 479.532 235.071H482.204C482.146 234.692 481.996 234.404 481.756 234.207C481.516 234.01 481.236 233.911 480.916 233.911ZM485.7 233.255C486.17 233.255 486.546 233.404 486.828 233.703C487.111 233.996 487.252 234.396 487.252 234.903V237.359H486.556V234.943C486.556 234.618 486.468 234.367 486.292 234.191C486.116 234.01 485.874 233.919 485.564 233.919C485.218 233.919 484.938 234.028 484.724 234.247C484.511 234.46 484.404 234.791 484.404 235.239V237.359H483.708V233.359H484.404V233.935C484.687 233.482 485.119 233.255 485.7 233.255ZM490.4 234.031H489.336V236.199C489.336 236.396 489.373 236.538 489.448 236.623C489.528 236.703 489.648 236.746 489.808 236.751C489.968 236.751 490.165 236.746 490.4 236.735V237.359C489.792 237.439 489.347 237.391 489.064 237.215C488.781 237.034 488.64 236.695 488.64 236.199V234.031H487.848V233.359H488.64V232.447L489.336 232.239V233.359H490.4V234.031ZM495.503 231.759C496.266 231.759 496.898 232.031 497.399 232.575C497.906 233.114 498.159 233.775 498.159 234.559C498.159 235.343 497.906 236.007 497.399 236.551C496.898 237.09 496.266 237.359 495.503 237.359H493.319V231.759H495.503ZM495.503 236.655C496.074 236.655 496.541 236.455 496.903 236.055C497.266 235.655 497.447 235.156 497.447 234.559C497.447 233.962 497.266 233.463 496.903 233.063C496.541 232.663 496.074 232.463 495.503 232.463H494.063V236.655H495.503ZM501.789 233.359H502.485V237.359H501.789V236.783C501.506 237.236 501.074 237.463 500.493 237.463C500.023 237.463 499.647 237.316 499.365 237.023C499.082 236.724 498.941 236.322 498.941 235.815V233.359H499.637V235.775C499.637 236.1 499.725 236.354 499.901 236.535C500.077 236.711 500.319 236.799 500.629 236.799C500.975 236.799 501.255 236.692 501.469 236.479C501.682 236.26 501.789 235.927 501.789 235.479V233.359ZM504.032 235.679C504.102 236.036 504.264 236.314 504.52 236.511C504.782 236.708 505.102 236.807 505.48 236.807C506.008 236.807 506.392 236.612 506.632 236.223L507.224 236.559C506.835 237.162 506.248 237.463 505.464 237.463C504.83 237.463 504.312 237.266 503.912 236.871C503.518 236.471 503.32 235.967 503.32 235.359C503.32 234.756 503.515 234.255 503.904 233.855C504.294 233.455 504.798 233.255 505.416 233.255C506.003 233.255 506.48 233.463 506.848 233.879C507.222 234.29 507.408 234.786 507.408 235.367C507.408 235.468 507.4 235.572 507.384 235.679H504.032ZM505.416 233.911C505.043 233.911 504.734 234.018 504.488 234.231C504.243 234.439 504.091 234.719 504.032 235.071H506.704C506.646 234.692 506.496 234.404 506.256 234.207C506.016 234.01 505.736 233.911 505.416 233.911Z" fill="#EB2525"/>
<rect x="324.49" y="234.666" width="72.3645" height="4.47616" rx="2.23808" fill="#ECECEC"/>
<rect x="435.648" y="216.015" width="72.3645" height="4.47616" rx="2.23808" fill="#CFCFCF"/>
</g>
<circle cx="300.616" cy="225.714" r="10.4444" fill="#A5EB14"/>
<g filter="url(#filter2_d_1086_706)">
<rect x="276" y="274.285" width="250.665" height="67.1424" rx="10" fill="white"/>
<rect x="276.5" y="274.785" width="249.665" height="66.1424" rx="9.5" stroke="#0A0C33" stroke-opacity="0.1"/>
<path d="M327.631 306.147L324.811 297.747H326.611L328.663 304.203L330.703 297.747H332.515L329.683 306.147H327.631ZM333.846 303.783C334.054 304.535 334.618 304.911 335.538 304.911C336.13 304.911 336.578 304.711 336.882 304.311L338.13 305.031C337.538 305.887 336.666 306.315 335.514 306.315C334.522 306.315 333.726 306.015 333.126 305.415C332.526 304.815 332.226 304.059 332.226 303.147C332.226 302.243 332.522 301.491 333.114 300.891C333.706 300.283 334.466 299.979 335.394 299.979C336.274 299.979 336.998 300.283 337.566 300.891C338.142 301.499 338.43 302.251 338.43 303.147C338.43 303.347 338.41 303.559 338.37 303.783H333.846ZM333.822 302.583H336.882C336.794 302.175 336.61 301.871 336.33 301.671C336.058 301.471 335.746 301.371 335.394 301.371C334.978 301.371 334.634 301.479 334.362 301.695C334.09 301.903 333.91 302.199 333.822 302.583ZM342.847 299.979C343.503 299.979 344.043 300.199 344.467 300.639C344.899 301.079 345.115 301.687 345.115 302.463V306.147H343.567V302.655C343.567 302.255 343.459 301.951 343.243 301.743C343.027 301.527 342.739 301.419 342.379 301.419C341.979 301.419 341.659 301.543 341.419 301.791C341.179 302.039 341.059 302.411 341.059 302.907V306.147H339.511V300.147H341.059V300.819C341.435 300.259 342.031 299.979 342.847 299.979ZM350.985 297.747H352.533V306.147H350.985V305.439C350.529 306.023 349.881 306.315 349.041 306.315C348.233 306.315 347.541 306.011 346.965 305.403C346.397 304.787 346.113 304.035 346.113 303.147C346.113 302.259 346.397 301.511 346.965 300.903C347.541 300.287 348.233 299.979 349.041 299.979C349.881 299.979 350.529 300.271 350.985 300.855V297.747ZM348.129 304.371C348.449 304.683 348.849 304.839 349.329 304.839C349.809 304.839 350.205 304.683 350.517 304.371C350.829 304.051 350.985 303.643 350.985 303.147C350.985 302.651 350.829 302.247 350.517 301.935C350.205 301.615 349.809 301.455 349.329 301.455C348.849 301.455 348.449 301.615 348.129 301.935C347.817 302.247 347.661 302.651 347.661 303.147C347.661 303.643 347.817 304.051 348.129 304.371ZM359.06 305.403C358.444 306.011 357.692 306.315 356.804 306.315C355.916 306.315 355.164 306.011 354.548 305.403C353.94 304.787 353.636 304.035 353.636 303.147C353.636 302.259 353.94 301.511 354.548 300.903C355.164 300.287 355.916 299.979 356.804 299.979C357.692 299.979 358.444 300.287 359.06 300.903C359.676 301.511 359.984 302.259 359.984 303.147C359.984 304.035 359.676 304.787 359.06 305.403ZM355.64 304.335C355.952 304.647 356.34 304.803 356.804 304.803C357.268 304.803 357.656 304.647 357.968 304.335C358.28 304.023 358.436 303.627 358.436 303.147C358.436 302.667 358.28 302.271 357.968 301.959C357.656 301.647 357.268 301.491 356.804 301.491C356.34 301.491 355.952 301.647 355.64 301.959C355.336 302.271 355.184 302.667 355.184 303.147C355.184 303.627 355.336 304.023 355.64 304.335ZM362.621 301.179C362.765 300.795 363.001 300.507 363.329 300.315C363.665 300.123 364.037 300.027 364.445 300.027V301.755C363.973 301.699 363.549 301.795 363.173 302.043C362.805 302.291 362.621 302.703 362.621 303.279V306.147H361.073V300.147H362.621V301.179ZM372.407 306.315C371.143 306.315 370.099 305.895 369.275 305.055C368.451 304.215 368.039 303.179 368.039 301.947C368.039 300.707 368.451 299.671 369.275 298.839C370.099 297.999 371.143 297.579 372.407 297.579C373.167 297.579 373.867 297.759 374.507 298.119C375.155 298.471 375.659 298.951 376.019 299.559L374.591 300.387C374.383 300.011 374.087 299.719 373.703 299.511C373.319 299.295 372.887 299.187 372.407 299.187C371.591 299.187 370.931 299.443 370.427 299.955C369.931 300.467 369.683 301.131 369.683 301.947C369.683 302.755 369.931 303.415 370.427 303.927C370.931 304.439 371.591 304.695 372.407 304.695C372.887 304.695 373.319 304.591 373.703 304.383C374.095 304.167 374.391 303.875 374.591 303.507L376.019 304.335C375.659 304.943 375.159 305.427 374.519 305.787C373.879 306.139 373.175 306.315 372.407 306.315Z" fill="#1E1E1E"/>
<path d="M460.959 314.955C461.476 314.955 461.905 315.128 462.247 315.475C462.593 315.816 462.767 316.243 462.767 316.755C462.767 317.261 462.593 317.688 462.247 318.035C461.905 318.381 461.476 318.555 460.959 318.555H459.671V320.555H458.927V314.955H460.959ZM460.959 317.859C461.268 317.859 461.524 317.755 461.727 317.547C461.929 317.333 462.031 317.069 462.031 316.755C462.031 316.435 461.929 316.171 461.727 315.963C461.524 315.755 461.268 315.651 460.959 315.651H459.671V317.859H460.959ZM466.581 316.555H467.277V320.555H466.581V319.867C466.234 320.395 465.73 320.659 465.069 320.659C464.509 320.659 464.032 320.456 463.637 320.051C463.242 319.64 463.045 319.141 463.045 318.555C463.045 317.968 463.242 317.472 463.637 317.067C464.032 316.656 464.509 316.451 465.069 316.451C465.73 316.451 466.234 316.715 466.581 317.243V316.555ZM465.157 319.987C465.562 319.987 465.901 319.851 466.173 319.579C466.445 319.301 466.581 318.96 466.581 318.555C466.581 318.149 466.445 317.811 466.173 317.539C465.901 317.261 465.562 317.123 465.157 317.123C464.757 317.123 464.421 317.261 464.149 317.539C463.877 317.811 463.741 318.149 463.741 318.555C463.741 318.96 463.877 319.301 464.149 319.579C464.421 319.851 464.757 319.987 465.157 319.987ZM471.123 316.555H471.867L470.235 320.803C470.065 321.256 469.825 321.6 469.515 321.835C469.211 322.075 468.859 322.181 468.459 322.155V321.507C468.95 321.544 469.31 321.272 469.539 320.691L469.611 320.539L467.867 316.555H468.611L469.971 319.691L471.123 316.555ZM476.769 316.451C477.217 316.451 477.579 316.597 477.857 316.891C478.134 317.179 478.273 317.571 478.273 318.067V320.555H477.577V318.091C477.577 317.781 477.497 317.541 477.337 317.371C477.177 317.2 476.963 317.115 476.697 317.115C476.398 317.115 476.158 317.216 475.977 317.419C475.801 317.616 475.713 317.92 475.713 318.331V320.555H475.017V318.091C475.017 317.781 474.939 317.541 474.785 317.371C474.635 317.2 474.43 317.115 474.169 317.115C473.875 317.115 473.63 317.216 473.433 317.419C473.241 317.621 473.145 317.925 473.145 318.331V320.555H472.449V316.555H473.145V317.091C473.417 316.664 473.814 316.451 474.337 316.451C474.875 316.451 475.267 316.677 475.513 317.131C475.79 316.677 476.209 316.451 476.769 316.451ZM479.726 318.875C479.795 319.232 479.958 319.509 480.214 319.707C480.475 319.904 480.795 320.003 481.174 320.003C481.702 320.003 482.086 319.808 482.326 319.419L482.918 319.755C482.528 320.357 481.942 320.659 481.158 320.659C480.523 320.659 480.006 320.461 479.606 320.067C479.211 319.667 479.014 319.163 479.014 318.555C479.014 317.952 479.208 317.451 479.598 317.051C479.987 316.651 480.491 316.451 481.11 316.451C481.696 316.451 482.174 316.659 482.542 317.075C482.915 317.485 483.102 317.981 483.102 318.563C483.102 318.664 483.094 318.768 483.078 318.875H479.726ZM481.11 317.107C480.736 317.107 480.427 317.213 480.182 317.427C479.936 317.635 479.784 317.915 479.726 318.267H482.398C482.339 317.888 482.19 317.6 481.95 317.403C481.71 317.205 481.43 317.107 481.11 317.107ZM485.894 316.451C486.363 316.451 486.739 316.6 487.022 316.899C487.304 317.192 487.446 317.592 487.446 318.099V320.555H486.75V318.139C486.75 317.813 486.662 317.563 486.486 317.387C486.31 317.205 486.067 317.115 485.758 317.115C485.411 317.115 485.131 317.224 484.918 317.443C484.704 317.656 484.598 317.987 484.598 318.435V320.555H483.902V316.555H484.598V317.131C484.88 316.677 485.312 316.451 485.894 316.451ZM490.593 317.227H489.529V319.395C489.529 319.592 489.567 319.733 489.641 319.819C489.721 319.899 489.841 319.941 490.001 319.947C490.161 319.947 490.359 319.941 490.593 319.931V320.555C489.985 320.635 489.54 320.587 489.257 320.411C488.975 320.229 488.833 319.891 488.833 319.395V317.227H488.041V316.555H488.833V315.643L489.529 315.435V316.555H490.593V317.227ZM495.697 314.955C496.459 314.955 497.091 315.227 497.593 315.771C498.099 316.309 498.353 316.971 498.353 317.755C498.353 318.539 498.099 319.203 497.593 319.747C497.091 320.285 496.459 320.555 495.697 320.555H493.513V314.955H495.697ZM495.697 319.851C496.267 319.851 496.734 319.651 497.097 319.251C497.459 318.851 497.641 318.352 497.641 317.755C497.641 317.157 497.459 316.659 497.097 316.259C496.734 315.859 496.267 315.659 495.697 315.659H494.257V319.851H495.697ZM501.982 316.555H502.678V320.555H501.982V319.979C501.699 320.432 501.267 320.659 500.686 320.659C500.217 320.659 499.841 320.512 499.558 320.219C499.275 319.92 499.134 319.517 499.134 319.011V316.555H499.83V318.971C499.83 319.296 499.918 319.549 500.094 319.731C500.27 319.907 500.513 319.995 500.822 319.995C501.169 319.995 501.449 319.888 501.662 319.675C501.875 319.456 501.982 319.123 501.982 318.675V316.555ZM504.226 318.875C504.295 319.232 504.458 319.509 504.714 319.707C504.975 319.904 505.295 320.003 505.674 320.003C506.202 320.003 506.586 319.808 506.826 319.419L507.418 319.755C507.028 320.357 506.442 320.659 505.658 320.659C505.023 320.659 504.506 320.461 504.106 320.067C503.711 319.667 503.514 319.163 503.514 318.555C503.514 317.952 503.708 317.451 504.098 317.051C504.487 316.651 504.991 316.451 505.61 316.451C506.196 316.451 506.674 316.659 507.042 317.075C507.415 317.485 507.602 317.981 507.602 318.563C507.602 318.664 507.594 318.768 507.578 318.875H504.226ZM505.61 317.107C505.236 317.107 504.927 317.213 504.682 317.427C504.436 317.635 504.284 317.915 504.226 318.267H506.898C506.839 317.888 506.69 317.6 506.45 317.403C506.21 317.205 505.93 317.107 505.61 317.107Z" fill="#EB2525"/>
<rect x="324.49" y="316.808" width="72.3645" height="4.47616" rx="2.23808" fill="#ECECEC"/>
<rect x="436" y="298.157" width="72.3645" height="4.47616" rx="2.23808" fill="#CFCFCF"/>
</g>
<circle cx="300.616" cy="307.856" r="10.4444" fill="#A5EB14"/>
<defs>
<filter id="filter0_d_1086_706" x="256" y="94" width="290.665" height="107.142" filterUnits="userSpaceOnUse" color-interpolation-filters="sRGB">
<feFlood flood-opacity="0" result="BackgroundImageFix"/>
<feColorMatrix in="SourceAlpha" type="matrix" values="0 0 0 0 0 0 0 0 0 0 0 0 0 0 0 0 0 0 127 0" result="hardAlpha"/>
<feOffset dy="4"/>
<feGaussianBlur stdDeviation="10"/>
<feComposite in2="hardAlpha" operator="out"/>
<feColorMatrix type="matrix" values="0 0 0 0 0.0392157 0 0 0 0 0.0470588 0 0 0 0 0.2 0 0 0 0.03 0"/>
<feBlend mode="normal" in2="BackgroundImageFix" result="effect1_dropShadow_1086_706"/>
<feBlend mode="normal" in="SourceGraphic" in2="effect1_dropShadow_1086_706" result="shape"/>
</filter>
<filter id="filter1_d_1086_706" x="256" y="176.142" width="290.665" height="107.142" filterUnits="userSpaceOnUse" color-interpolation-filters="sRGB">
<feFlood flood-opacity="0" result="BackgroundImageFix"/>
<feColorMatrix in="SourceAlpha" type="matrix" values="0 0 0 0 0 0 0 0 0 0 0 0 0 0 0 0 0 0 127 0" result="hardAlpha"/>
<feOffset dy="4"/>
<feGaussianBlur stdDeviation="10"/>
<feComposite in2="hardAlpha" operator="out"/>
<feColorMatrix type="matrix" values="0 0 0 0 0.0392157 0 0 0 0 0.0470588 0 0 0 0 0.2 0 0 0 0.03 0"/>
<feBlend mode="normal" in2="BackgroundImageFix" result="effect1_dropShadow_1086_706"/>
<feBlend mode="normal" in="SourceGraphic" in2="effect1_dropShadow_1086_706" result="shape"/>
</filter>
<filter id="filter2_d_1086_706" x="256" y="258.285" width="290.665" height="107.142" filterUnits="userSpaceOnUse" color-interpolation-filters="sRGB">
<feFlood flood-opacity="0" result="BackgroundImageFix"/>
<feColorMatrix in="SourceAlpha" type="matrix" values="0 0 0 0 0 0 0 0 0 0 0 0 0 0 0 0 0 0 127 0" result="hardAlpha"/>
<feOffset dy="4"/>
<feGaussianBlur stdDeviation="10"/>
<feComposite in2="hardAlpha" operator="out"/>
<feColorMatrix type="matrix" values="0 0 0 0 0.0392157 0 0 0 0 0.0470588 0 0 0 0 0.2 0 0 0 0.03 0"/>
<feBlend mode="normal" in2="BackgroundImageFix" result="effect1_dropShadow_1086_706"/>
<feBlend mode="normal" in="SourceGraphic" in2="effect1_dropShadow_1086_706" result="shape"/>
</filter>
</defs>
</svg>
