<svg width="391" height="485" viewBox="0 0 391 485" fill="none" xmlns="http://www.w3.org/2000/svg">
<rect width="390.21" height="484.279" rx="20" fill="white"/>
<rect x="0.5" y="0.5" width="389.21" height="483.279" rx="19.5" stroke="#0A0C33" stroke-opacity="0.1"/>
<rect x="19.7422" y="405.308" width="349.563" height="55.7443" rx="27.8722" fill="#0A0C33"/>
<path d="M183.868 425.4C185.08 425.4 186.1 425.808 186.928 426.624C187.756 427.44 188.17 428.442 188.17 429.63C188.17 430.818 187.756 431.82 186.928 432.636C186.1 433.452 185.08 433.86 183.868 433.86H181.654V438H179.17V425.4H183.868ZM183.868 431.538C184.396 431.538 184.834 431.358 185.182 430.998C185.53 430.626 185.704 430.17 185.704 429.63C185.704 429.078 185.53 428.622 185.182 428.262C184.834 427.902 184.396 427.722 183.868 427.722H181.654V431.538H183.868ZM195.922 429H198.244V438H195.922V436.938C195.226 437.814 194.248 438.252 192.988 438.252C191.788 438.252 190.756 437.796 189.892 436.884C189.04 435.96 188.614 434.832 188.614 433.5C188.614 432.168 189.04 431.046 189.892 430.134C190.756 429.21 191.788 428.748 192.988 428.748C194.248 428.748 195.226 429.186 195.922 430.062V429ZM191.638 435.336C192.106 435.804 192.7 436.038 193.42 436.038C194.14 436.038 194.734 435.804 195.202 435.336C195.682 434.856 195.922 434.244 195.922 433.5C195.922 432.756 195.682 432.15 195.202 431.682C194.734 431.202 194.14 430.962 193.42 430.962C192.7 430.962 192.106 431.202 191.638 431.682C191.17 432.15 190.936 432.756 190.936 433.5C190.936 434.244 191.17 434.856 191.638 435.336ZM206.217 429H208.701L205.425 438C204.957 439.296 204.333 440.232 203.553 440.808C202.785 441.396 201.825 441.66 200.673 441.6V439.44C201.297 439.452 201.789 439.32 202.149 439.044C202.521 438.768 202.815 438.324 203.031 437.712L199.341 429H201.879L204.219 435.048L206.217 429Z" fill="white"/>
<path d="M50.36 194.9V204H49.45V196.278L46.265 201.608H46.135L42.95 196.278V204H42.04V194.9H43.171L46.2 199.97L49.229 194.9H50.36ZM56.9875 197.5H57.8975L55.1155 204.598C54.8641 205.239 54.5045 205.742 54.0365 206.106C53.5771 206.479 53.0615 206.643 52.4895 206.6V205.794C53.2695 205.881 53.8631 205.43 54.2705 204.442L54.4395 204.039L51.5275 197.5H52.4375L54.8815 202.947L56.9875 197.5ZM67.3584 199.281C67.8004 199.472 68.1514 199.762 68.4114 200.152C68.6801 200.533 68.8144 200.971 68.8144 201.465C68.8144 202.167 68.5674 202.765 68.0734 203.259C67.5794 203.753 66.9814 204 66.2794 204H62.3144V194.9H65.9804C66.6564 194.9 67.2327 195.143 67.7094 195.628C68.1861 196.105 68.4244 196.677 68.4244 197.344C68.4244 198.193 68.0691 198.839 67.3584 199.281ZM65.9804 195.758H63.2244V198.93H65.9804C66.4051 198.93 66.7647 198.778 67.0594 198.475C67.3627 198.163 67.5144 197.786 67.5144 197.344C67.5144 196.911 67.3627 196.538 67.0594 196.226C66.7647 195.914 66.4051 195.758 65.9804 195.758ZM66.2794 203.142C66.7301 203.142 67.1114 202.982 67.4234 202.661C67.7441 202.332 67.9044 201.933 67.9044 201.465C67.9044 201.006 67.7441 200.611 67.4234 200.282C67.1114 199.953 66.7301 199.788 66.2794 199.788H63.2244V203.142H66.2794ZM75.8359 197.5H76.6939V204H75.8359V202.726C75.2379 203.679 74.3626 204.156 73.2099 204.156C72.2826 204.156 71.4896 203.827 70.8309 203.168C70.1809 202.509 69.8559 201.703 69.8559 200.75C69.8559 199.797 70.1809 198.991 70.8309 198.332C71.4896 197.673 72.2826 197.344 73.2099 197.344C74.3626 197.344 75.2379 197.821 75.8359 198.774V197.5ZM71.4549 202.583C71.9489 203.077 72.5556 203.324 73.2749 203.324C73.9943 203.324 74.6009 203.077 75.0949 202.583C75.5889 202.08 75.8359 201.469 75.8359 200.75C75.8359 200.031 75.5889 199.424 75.0949 198.93C74.6009 198.427 73.9943 198.176 73.2749 198.176C72.5556 198.176 71.9489 198.427 71.4549 198.93C70.9609 199.424 70.7139 200.031 70.7139 200.75C70.7139 201.469 70.9609 202.08 71.4549 202.583ZM81.5526 197.344C82.3413 197.344 82.9609 197.587 83.4116 198.072C83.8709 198.549 84.1006 199.194 84.1006 200.009V204H83.2426V200.009C83.2426 199.428 83.0866 198.978 82.7746 198.657C82.4713 198.336 82.0379 198.176 81.4746 198.176C80.8506 198.176 80.3436 198.375 79.9536 198.774C79.5636 199.164 79.3686 199.771 79.3686 200.594V204H78.5106V197.5H79.3686V198.514C79.8539 197.734 80.5819 197.344 81.5526 197.344ZM91.0116 204H89.8676L86.6176 200.867V204H85.7596V194.9H86.6176V200.373L89.7116 197.5H90.8816L87.5276 200.62L91.0116 204ZM101.621 204L100.776 201.764H96.4604L95.6154 204H94.6534L98.1504 194.9H99.0864L102.583 204H101.621ZM96.7854 200.906H100.451L98.6184 196.031L96.7854 200.906ZM106.524 204.156C105.545 204.156 104.73 203.831 104.08 203.181C103.43 202.522 103.105 201.712 103.105 200.75C103.105 199.788 103.43 198.982 104.08 198.332C104.73 197.673 105.545 197.344 106.524 197.344C107.165 197.344 107.742 197.5 108.253 197.812C108.764 198.115 109.137 198.527 109.371 199.047L108.669 199.45C108.496 199.06 108.214 198.752 107.824 198.527C107.443 198.293 107.009 198.176 106.524 198.176C105.805 198.176 105.198 198.427 104.704 198.93C104.21 199.424 103.963 200.031 103.963 200.75C103.963 201.469 104.21 202.08 104.704 202.583C105.198 203.077 105.805 203.324 106.524 203.324C107.009 203.324 107.443 203.211 107.824 202.986C108.205 202.752 108.504 202.44 108.721 202.05L109.436 202.466C109.167 202.986 108.773 203.398 108.253 203.701C107.733 204.004 107.157 204.156 106.524 204.156ZM113.633 204.156C112.654 204.156 111.839 203.831 111.189 203.181C110.539 202.522 110.214 201.712 110.214 200.75C110.214 199.788 110.539 198.982 111.189 198.332C111.839 197.673 112.654 197.344 113.633 197.344C114.275 197.344 114.851 197.5 115.362 197.812C115.874 198.115 116.246 198.527 116.48 199.047L115.778 199.45C115.605 199.06 115.323 198.752 114.933 198.527C114.552 198.293 114.119 198.176 113.633 198.176C112.914 198.176 112.307 198.427 111.813 198.93C111.319 199.424 111.072 200.031 111.072 200.75C111.072 201.469 111.319 202.08 111.813 202.583C112.307 203.077 112.914 203.324 113.633 203.324C114.119 203.324 114.552 203.211 114.933 202.986C115.315 202.752 115.614 202.44 115.83 202.05L116.545 202.466C116.277 202.986 115.882 203.398 115.362 203.701C114.842 204.004 114.266 204.156 113.633 204.156ZM123.161 203.181C122.502 203.831 121.696 204.156 120.743 204.156C119.789 204.156 118.979 203.831 118.312 203.181C117.653 202.522 117.324 201.712 117.324 200.75C117.324 199.788 117.653 198.982 118.312 198.332C118.979 197.673 119.789 197.344 120.743 197.344C121.696 197.344 122.502 197.673 123.161 198.332C123.828 198.982 124.162 199.788 124.162 200.75C124.162 201.712 123.828 202.522 123.161 203.181ZM118.923 202.583C119.417 203.077 120.023 203.324 120.743 203.324C121.462 203.324 122.069 203.077 122.563 202.583C123.057 202.08 123.304 201.469 123.304 200.75C123.304 200.031 123.057 199.424 122.563 198.93C122.069 198.427 121.462 198.176 120.743 198.176C120.023 198.176 119.417 198.427 118.923 198.93C118.429 199.424 118.182 200.031 118.182 200.75C118.182 201.469 118.429 202.08 118.923 202.583ZM130.174 197.5H131.032V204H130.174V202.986C129.688 203.766 128.96 204.156 127.99 204.156C127.201 204.156 126.577 203.918 126.118 203.441C125.667 202.956 125.442 202.306 125.442 201.491V197.5H126.3V201.491C126.3 202.072 126.451 202.522 126.755 202.843C127.067 203.164 127.504 203.324 128.068 203.324C128.692 203.324 129.199 203.129 129.589 202.739C129.979 202.34 130.174 201.729 130.174 200.906V197.5ZM135.889 197.344C136.677 197.344 137.297 197.587 137.748 198.072C138.207 198.549 138.437 199.194 138.437 200.009V204H137.579V200.009C137.579 199.428 137.423 198.978 137.111 198.657C136.807 198.336 136.374 198.176 135.811 198.176C135.187 198.176 134.68 198.375 134.29 198.774C133.9 199.164 133.705 199.771 133.705 200.594V204H132.847V197.5H133.705V198.514C134.19 197.734 134.918 197.344 135.889 197.344ZM143.541 198.332H141.669V202.271C141.669 202.626 141.738 202.882 141.877 203.038C142.015 203.185 142.223 203.263 142.501 203.272C142.778 203.272 143.125 203.263 143.541 203.246V204C142.631 204.139 141.946 204.074 141.487 203.805C141.036 203.536 140.811 203.025 140.811 202.271V198.332H139.446V197.5H140.811V195.94L141.669 195.68V197.5H143.541V198.332ZM148.351 200.399V199.567H153.031V200.399H148.351ZM161.175 198.683C161.903 198.778 162.501 199.06 162.969 199.528C163.446 199.987 163.684 200.598 163.684 201.361C163.684 202.228 163.385 202.912 162.787 203.415C162.198 203.909 161.479 204.156 160.629 204.156C159.953 204.156 159.351 204 158.822 203.688C158.294 203.376 157.921 202.93 157.704 202.349L158.458 201.907C158.606 202.358 158.87 202.7 159.251 202.934C159.633 203.159 160.092 203.272 160.629 203.272C161.253 203.272 161.765 203.107 162.163 202.778C162.571 202.44 162.774 201.968 162.774 201.361C162.774 200.754 162.571 200.286 162.163 199.957C161.765 199.619 161.253 199.45 160.629 199.45V199.437L160.616 199.45H160.369L159.979 198.852L162.241 195.758H157.964V194.9H163.294V195.758L161.175 198.683ZM164.728 204V203.181L168.004 199.879C168.94 198.943 169.408 198.141 169.408 197.474C169.408 196.893 169.226 196.443 168.862 196.122C168.507 195.793 168.078 195.628 167.575 195.628C166.639 195.628 165.959 196.057 165.534 196.915L164.767 196.46C165.053 195.897 165.443 195.472 165.937 195.186C166.431 194.891 166.977 194.744 167.575 194.744C168.303 194.744 168.94 194.991 169.486 195.485C170.041 195.97 170.318 196.633 170.318 197.474C170.318 198.003 170.171 198.51 169.876 198.995C169.581 199.48 169.165 199.992 168.628 200.529L166.028 203.116H170.513V204H164.728ZM176.071 199.307C176.53 199.524 176.894 199.827 177.163 200.217C177.44 200.598 177.579 201.036 177.579 201.53C177.579 202.353 177.288 202.999 176.708 203.467C176.127 203.926 175.403 204.156 174.537 204.156C173.67 204.156 172.946 203.926 172.366 203.467C171.785 202.999 171.495 202.353 171.495 201.53C171.495 201.036 171.629 200.598 171.898 200.217C172.175 199.827 172.543 199.524 173.003 199.307C172.197 198.848 171.794 198.167 171.794 197.266C171.794 196.451 172.062 195.827 172.6 195.394C173.146 194.961 173.791 194.744 174.537 194.744C175.282 194.744 175.923 194.961 176.461 195.394C177.007 195.827 177.28 196.451 177.28 197.266C177.28 198.167 176.877 198.848 176.071 199.307ZM175.837 196.031C175.49 195.762 175.057 195.628 174.537 195.628C174.017 195.628 173.579 195.762 173.224 196.031C172.877 196.3 172.704 196.711 172.704 197.266C172.704 197.786 172.881 198.189 173.237 198.475C173.601 198.761 174.034 198.904 174.537 198.904C175.039 198.904 175.468 198.761 175.824 198.475C176.188 198.189 176.37 197.786 176.37 197.266C176.37 196.711 176.192 196.3 175.837 196.031ZM172.99 202.83C173.38 203.125 173.895 203.272 174.537 203.272C175.178 203.272 175.694 203.125 176.084 202.83C176.474 202.527 176.669 202.093 176.669 201.53C176.669 200.967 176.474 200.538 176.084 200.243C175.694 199.94 175.178 199.788 174.537 199.788C173.895 199.788 173.38 199.94 172.99 200.243C172.6 200.538 172.405 200.967 172.405 201.53C172.405 202.093 172.6 202.527 172.99 202.83ZM178.363 204V203.181L181.639 199.879C182.575 198.943 183.043 198.141 183.043 197.474C183.043 196.893 182.861 196.443 182.497 196.122C182.141 195.793 181.712 195.628 181.21 195.628C180.274 195.628 179.593 196.057 179.169 196.915L178.402 196.46C178.688 195.897 179.078 195.472 179.572 195.186C180.066 194.891 180.612 194.744 181.21 194.744C181.938 194.744 182.575 194.991 183.121 195.485C183.675 195.97 183.953 196.633 183.953 197.474C183.953 198.003 183.805 198.51 183.511 198.995C183.216 199.48 182.8 199.992 182.263 200.529L179.663 203.116H184.148V204H178.363ZM189.705 199.307C190.165 199.524 190.529 199.827 190.797 200.217C191.075 200.598 191.213 201.036 191.213 201.53C191.213 202.353 190.923 202.999 190.342 203.467C189.762 203.926 189.038 204.156 188.171 204.156C187.305 204.156 186.581 203.926 186 203.467C185.42 202.999 185.129 202.353 185.129 201.53C185.129 201.036 185.264 200.598 185.532 200.217C185.81 199.827 186.178 199.524 186.637 199.307C185.831 198.848 185.428 198.167 185.428 197.266C185.428 196.451 185.697 195.827 186.234 195.394C186.78 194.961 187.426 194.744 188.171 194.744C188.917 194.744 189.558 194.961 190.095 195.394C190.641 195.827 190.914 196.451 190.914 197.266C190.914 198.167 190.511 198.848 189.705 199.307ZM189.471 196.031C189.125 195.762 188.691 195.628 188.171 195.628C187.651 195.628 187.214 195.762 186.858 196.031C186.512 196.3 186.338 196.711 186.338 197.266C186.338 197.786 186.516 198.189 186.871 198.475C187.235 198.761 187.669 198.904 188.171 198.904C188.674 198.904 189.103 198.761 189.458 198.475C189.822 198.189 190.004 197.786 190.004 197.266C190.004 196.711 189.827 196.3 189.471 196.031ZM186.624 202.83C187.014 203.125 187.53 203.272 188.171 203.272C188.813 203.272 189.328 203.125 189.718 202.83C190.108 202.527 190.303 202.093 190.303 201.53C190.303 200.967 190.108 200.538 189.718 200.243C189.328 199.94 188.813 199.788 188.171 199.788C187.53 199.788 187.014 199.94 186.624 200.243C186.234 200.538 186.039 200.967 186.039 201.53C186.039 202.093 186.234 202.527 186.624 202.83ZM191.738 194.9H197.328V195.758L193.896 204H192.947L196.379 195.758H191.738V194.9ZM201.712 198.683C202.44 198.778 203.038 199.06 203.506 199.528C203.982 199.987 204.221 200.598 204.221 201.361C204.221 202.228 203.922 202.912 203.324 203.415C202.734 203.909 202.015 204.156 201.166 204.156C200.49 204.156 199.887 204 199.359 203.688C198.83 203.376 198.457 202.93 198.241 202.349L198.995 201.907C199.142 202.358 199.406 202.7 199.788 202.934C200.169 203.159 200.628 203.272 201.166 203.272C201.79 203.272 202.301 203.107 202.7 202.778C203.107 202.44 203.311 201.968 203.311 201.361C203.311 200.754 203.107 200.286 202.7 199.957C202.301 199.619 201.79 199.45 201.166 199.45V199.437L201.153 199.45H200.906L200.516 198.852L202.778 195.758H198.501V194.9H203.831V195.758L201.712 198.683ZM210.99 197.747C210.99 198.432 210.804 199.038 210.431 199.567L207.454 204H206.427L208.663 200.672C208.429 200.724 208.187 200.75 207.935 200.75C207.043 200.75 206.31 200.473 205.738 199.918C205.166 199.355 204.88 198.631 204.88 197.747C204.88 196.863 205.166 196.144 205.738 195.589C206.31 195.026 207.043 194.744 207.935 194.744C208.828 194.744 209.56 195.026 210.132 195.589C210.704 196.144 210.99 196.863 210.99 197.747ZM206.375 196.213C205.985 196.603 205.79 197.114 205.79 197.747C205.79 198.38 205.985 198.891 206.375 199.281C206.774 199.671 207.294 199.866 207.935 199.866C208.577 199.866 209.092 199.671 209.482 199.281C209.881 198.891 210.08 198.38 210.08 197.747C210.08 197.114 209.881 196.603 209.482 196.213C209.092 195.823 208.577 195.628 207.935 195.628C207.294 195.628 206.774 195.823 206.375 196.213ZM214.458 198.683C215.186 198.778 215.784 199.06 216.252 199.528C216.728 199.987 216.967 200.598 216.967 201.361C216.967 202.228 216.668 202.912 216.07 203.415C215.48 203.909 214.761 204.156 213.912 204.156C213.236 204.156 212.633 204 212.105 203.688C211.576 203.376 211.203 202.93 210.987 202.349L211.741 201.907C211.888 202.358 212.152 202.7 212.534 202.934C212.915 203.159 213.374 203.272 213.912 203.272C214.536 203.272 215.047 203.107 215.446 202.778C215.853 202.44 216.057 201.968 216.057 201.361C216.057 200.754 215.853 200.286 215.446 199.957C215.047 199.619 214.536 199.45 213.912 199.45V199.437L213.899 199.45H213.652L213.262 198.852L215.524 195.758H211.247V194.9H216.577V195.758L214.458 198.683ZM222.586 199.307C223.046 199.524 223.41 199.827 223.678 200.217C223.956 200.598 224.094 201.036 224.094 201.53C224.094 202.353 223.804 202.999 223.223 203.467C222.643 203.926 221.919 204.156 221.052 204.156C220.186 204.156 219.462 203.926 218.881 203.467C218.301 202.999 218.01 202.353 218.01 201.53C218.01 201.036 218.145 200.598 218.413 200.217C218.691 199.827 219.059 199.524 219.518 199.307C218.712 198.848 218.309 198.167 218.309 197.266C218.309 196.451 218.578 195.827 219.115 195.394C219.661 194.961 220.307 194.744 221.052 194.744C221.798 194.744 222.439 194.961 222.976 195.394C223.522 195.827 223.795 196.451 223.795 197.266C223.795 198.167 223.392 198.848 222.586 199.307ZM222.352 196.031C222.006 195.762 221.572 195.628 221.052 195.628C220.532 195.628 220.095 195.762 219.739 196.031C219.393 196.3 219.219 196.711 219.219 197.266C219.219 197.786 219.397 198.189 219.752 198.475C220.116 198.761 220.55 198.904 221.052 198.904C221.555 198.904 221.984 198.761 222.339 198.475C222.703 198.189 222.885 197.786 222.885 197.266C222.885 196.711 222.708 196.3 222.352 196.031ZM219.505 202.83C219.895 203.125 220.411 203.272 221.052 203.272C221.694 203.272 222.209 203.125 222.599 202.83C222.989 202.527 223.184 202.093 223.184 201.53C223.184 200.967 222.989 200.538 222.599 200.243C222.209 199.94 221.694 199.788 221.052 199.788C220.411 199.788 219.895 199.94 219.505 200.243C219.115 200.538 218.92 200.967 218.92 201.53C218.92 202.093 219.115 202.527 219.505 202.83ZM224.878 204V203.181L228.154 199.879C229.09 198.943 229.558 198.141 229.558 197.474C229.558 196.893 229.376 196.443 229.012 196.122C228.657 195.793 228.228 195.628 227.725 195.628C226.789 195.628 226.109 196.057 225.684 196.915L224.917 196.46C225.203 195.897 225.593 195.472 226.087 195.186C226.581 194.891 227.127 194.744 227.725 194.744C228.453 194.744 229.09 194.991 229.636 195.485C230.191 195.97 230.468 196.633 230.468 197.474C230.468 198.003 230.321 198.51 230.026 198.995C229.732 199.48 229.316 199.992 228.778 200.529L226.178 203.116H230.663V204H224.878ZM244.175 199.671V200.139C244.175 201.266 243.772 202.219 242.966 202.999C242.16 203.77 241.081 204.156 239.729 204.156C238.351 204.156 237.212 203.701 236.31 202.791C235.409 201.881 234.958 200.767 234.958 199.45C234.958 198.133 235.409 197.019 236.31 196.109C237.212 195.199 238.351 194.744 239.729 194.744C240.57 194.744 241.341 194.948 242.043 195.355C242.745 195.762 243.287 196.304 243.668 196.98L242.862 197.448C242.576 196.893 242.152 196.451 241.588 196.122C241.025 195.793 240.405 195.628 239.729 195.628C238.594 195.628 237.667 195.996 236.947 196.733C236.228 197.47 235.868 198.375 235.868 199.45C235.868 200.525 236.228 201.43 236.947 202.167C237.667 202.904 238.594 203.272 239.729 203.272C240.752 203.272 241.571 203.016 242.186 202.505C242.802 201.985 243.153 201.326 243.239 200.529H239.625V199.671H244.175ZM248.303 198.683C249.031 198.778 249.629 199.06 250.097 199.528C250.574 199.987 250.812 200.598 250.812 201.361C250.812 202.228 250.513 202.912 249.915 203.415C249.326 203.909 248.607 204.156 247.757 204.156C247.081 204.156 246.479 204 245.95 203.688C245.422 203.376 245.049 202.93 244.832 202.349L245.586 201.907C245.734 202.358 245.998 202.7 246.379 202.934C246.761 203.159 247.22 203.272 247.757 203.272C248.381 203.272 248.893 203.107 249.291 202.778C249.699 202.44 249.902 201.968 249.902 201.361C249.902 200.754 249.699 200.286 249.291 199.957C248.893 199.619 248.381 199.45 247.757 199.45V199.437L247.744 199.45H247.497L247.107 198.852L249.369 195.758H245.092V194.9H250.422V195.758L248.303 198.683ZM259.136 194.9C260.375 194.9 261.398 195.342 262.204 196.226C263.019 197.101 263.426 198.176 263.426 199.45C263.426 200.724 263.019 201.803 262.204 202.687C261.398 203.562 260.375 204 259.136 204H255.626V194.9H259.136ZM259.136 203.142C260.133 203.142 260.947 202.787 261.58 202.076C262.221 201.365 262.542 200.49 262.542 199.45C262.542 198.41 262.221 197.535 261.58 196.824C260.947 196.113 260.133 195.758 259.136 195.758H256.536V203.142H259.136ZM270.572 204L268.44 200.36H265.892V204H264.982V194.9H268.622C269.376 194.9 270.018 195.169 270.546 195.706C271.084 196.235 271.352 196.876 271.352 197.63C271.352 198.245 271.166 198.796 270.793 199.281C270.429 199.758 269.961 200.078 269.389 200.243L271.612 204H270.572ZM265.892 195.758V199.502H268.622C269.125 199.502 269.554 199.32 269.909 198.956C270.265 198.583 270.442 198.141 270.442 197.63C270.442 197.11 270.265 196.668 269.909 196.304C269.554 195.94 269.125 195.758 268.622 195.758H265.892ZM272.917 194.9H273.827V204H272.917V194.9ZM278.357 204L275.003 194.9H275.991L278.825 202.791L281.659 194.9H282.647L279.293 204H278.357ZM283.822 194.9H284.732V204H283.822V194.9ZM292.668 194.9H293.578V204H292.798L287.728 196.59V204H286.818V194.9H287.598L292.668 202.31V194.9ZM304.351 199.671V200.139C304.351 201.266 303.948 202.219 303.142 202.999C302.336 203.77 301.257 204.156 299.905 204.156C298.527 204.156 297.388 203.701 296.486 202.791C295.585 201.881 295.134 200.767 295.134 199.45C295.134 198.133 295.585 197.019 296.486 196.109C297.388 195.199 298.527 194.744 299.905 194.744C300.746 194.744 301.517 194.948 302.219 195.355C302.921 195.762 303.463 196.304 303.844 196.98L303.038 197.448C302.752 196.893 302.328 196.451 301.764 196.122C301.201 195.793 300.581 195.628 299.905 195.628C298.77 195.628 297.843 195.996 297.123 196.733C296.404 197.47 296.044 198.375 296.044 199.45C296.044 200.525 296.404 201.43 297.123 202.167C297.843 202.904 298.77 203.272 299.905 203.272C300.928 203.272 301.747 203.016 302.362 202.505C302.978 201.985 303.329 201.326 303.415 200.529H299.801V199.671H304.351ZM309.162 194.9H310.072V204H309.162V194.9ZM318.008 194.9H318.918V204H318.138L313.068 196.59V204H312.158V194.9H312.938L318.008 202.31V194.9ZM323.727 204.156C322.895 204.156 322.18 203.961 321.582 203.571C320.993 203.172 320.581 202.626 320.347 201.933L321.127 201.478C321.292 202.041 321.595 202.483 322.037 202.804C322.479 203.116 323.047 203.272 323.74 203.272C324.416 203.272 324.94 203.125 325.313 202.83C325.694 202.527 325.885 202.128 325.885 201.634C325.885 201.157 325.712 200.798 325.365 200.555C325.018 200.312 324.446 200.061 323.649 199.801C322.704 199.489 322.08 199.238 321.777 199.047C321.084 198.631 320.737 198.029 320.737 197.24C320.737 196.469 321.006 195.862 321.543 195.42C322.08 194.969 322.743 194.744 323.532 194.744C324.243 194.744 324.858 194.93 325.378 195.303C325.898 195.667 326.284 196.135 326.535 196.707L325.768 197.136C325.352 196.131 324.607 195.628 323.532 195.628C322.969 195.628 322.514 195.767 322.167 196.044C321.82 196.321 321.647 196.707 321.647 197.201C321.647 197.652 321.803 197.99 322.115 198.215C322.427 198.44 322.943 198.67 323.662 198.904C323.991 199.017 324.225 199.099 324.364 199.151C324.511 199.194 324.719 199.272 324.988 199.385C325.265 199.489 325.469 199.584 325.599 199.671C325.729 199.749 325.885 199.862 326.067 200.009C326.258 200.148 326.392 200.291 326.47 200.438C326.557 200.577 326.63 200.75 326.691 200.958C326.76 201.157 326.795 201.374 326.795 201.608C326.795 202.379 326.513 202.999 325.95 203.467C325.387 203.926 324.646 204.156 323.727 204.156ZM329.065 203.922C328.927 204.061 328.758 204.13 328.558 204.13C328.359 204.13 328.19 204.061 328.051 203.922C327.913 203.783 327.843 203.614 327.843 203.415C327.843 203.216 327.913 203.047 328.051 202.908C328.19 202.769 328.359 202.7 328.558 202.7C328.758 202.7 328.927 202.769 329.065 202.908C329.204 203.047 329.273 203.216 329.273 203.415C329.273 203.614 329.204 203.783 329.065 203.922ZM332.062 203.922C331.923 204.061 331.754 204.13 331.555 204.13C331.355 204.13 331.186 204.061 331.048 203.922C330.909 203.783 330.84 203.614 330.84 203.415C330.84 203.216 330.909 203.047 331.048 202.908C331.186 202.769 331.355 202.7 331.555 202.7C331.754 202.7 331.923 202.769 332.062 202.908C332.2 203.047 332.27 203.216 332.27 203.415C332.27 203.614 332.2 203.783 332.062 203.922ZM335.058 203.922C334.919 204.061 334.75 204.13 334.551 204.13C334.351 204.13 334.182 204.061 334.044 203.922C333.905 203.783 333.836 203.614 333.836 203.415C333.836 203.216 333.905 203.047 334.044 202.908C334.182 202.769 334.351 202.7 334.551 202.7C334.75 202.7 334.919 202.769 335.058 202.908C335.196 203.047 335.266 203.216 335.266 203.415C335.266 203.614 335.196 203.783 335.058 203.922Z" fill="#767676"/>
<path d="M54.606 23.2C55.5113 23.2 56.2627 23.5033 56.86 24.11C57.4667 24.7073 57.77 25.454 57.77 26.35C57.77 27.2367 57.4667 27.9833 56.86 28.59C56.2627 29.1967 55.5113 29.5 54.606 29.5H52.352V33H51.05V23.2H54.606ZM54.606 28.282C55.1473 28.282 55.5953 28.1 55.95 27.736C56.3047 27.3627 56.482 26.9007 56.482 26.35C56.482 25.79 56.3047 25.328 55.95 24.964C55.5953 24.6 55.1473 24.418 54.606 24.418H52.352V28.282H54.606ZM64.4446 26H65.6626V33H64.4446V31.796C63.8379 32.72 62.9559 33.182 61.7986 33.182C60.8186 33.182 59.9833 32.8273 59.2926 32.118C58.6019 31.3993 58.2566 30.5267 58.2566 29.5C58.2566 28.4733 58.6019 27.6053 59.2926 26.896C59.9833 26.1773 60.8186 25.818 61.7986 25.818C62.9559 25.818 63.8379 26.28 64.4446 27.204V26ZM61.9526 32.006C62.6619 32.006 63.2546 31.768 63.7306 31.292C64.2066 30.8067 64.4446 30.2093 64.4446 29.5C64.4446 28.7907 64.2066 28.198 63.7306 27.722C63.2546 27.2367 62.6619 26.994 61.9526 26.994C61.2526 26.994 60.6646 27.2367 60.1886 27.722C59.7126 28.198 59.4746 28.7907 59.4746 29.5C59.4746 30.2093 59.7126 30.8067 60.1886 31.292C60.6646 31.768 61.2526 32.006 61.9526 32.006ZM72.394 26H73.696L70.84 33.434C70.5413 34.2273 70.1213 34.8293 69.58 35.24C69.048 35.66 68.432 35.8467 67.732 35.8V34.666C68.5907 34.7313 69.2207 34.2553 69.622 33.238L69.748 32.972L66.696 26H67.998L70.378 31.488L72.394 26ZM84.5411 32.244C83.8597 32.8693 82.9777 33.182 81.8951 33.182C80.8124 33.182 79.9257 32.8693 79.2351 32.244C78.5537 31.6093 78.2131 30.7647 78.2131 29.71V23.2H79.5151V29.654C79.5151 30.3447 79.7204 30.8953 80.1311 31.306C80.5417 31.7073 81.1297 31.908 81.8951 31.908C82.6604 31.908 83.2484 31.7073 83.6591 31.306C84.0697 30.8953 84.2751 30.3447 84.2751 29.654V23.2H85.5631V29.71C85.5631 30.7647 85.2224 31.6093 84.5411 32.244ZM88.4095 27.89C88.4095 28.1607 88.5449 28.38 88.8155 28.548C89.0862 28.7067 89.4129 28.8373 89.7955 28.94C90.1782 29.0333 90.5609 29.1453 90.9435 29.276C91.3262 29.3973 91.6529 29.612 91.9235 29.92C92.1942 30.2187 92.3295 30.606 92.3295 31.082C92.3295 31.7167 92.0822 32.2253 91.5875 32.608C91.1022 32.9907 90.4769 33.182 89.7115 33.182C89.0302 33.182 88.4469 33.0327 87.9615 32.734C87.4762 32.4353 87.1309 32.0387 86.9255 31.544L87.9755 30.942C88.0875 31.278 88.2975 31.544 88.6055 31.74C88.9135 31.936 89.2822 32.034 89.7115 32.034C90.1129 32.034 90.4442 31.9593 90.7055 31.81C90.9669 31.6513 91.0975 31.4087 91.0975 31.082C91.0975 30.8113 90.9622 30.5967 90.6915 30.438C90.4209 30.27 90.0942 30.1393 89.7115 30.046C89.3289 29.9433 88.9462 29.8267 88.5635 29.696C88.1809 29.5653 87.8542 29.3507 87.5835 29.052C87.3129 28.7533 87.1775 28.3707 87.1775 27.904C87.1775 27.2973 87.4109 26.798 87.8775 26.406C88.3535 26.014 88.9462 25.818 89.6555 25.818C90.2249 25.818 90.7289 25.9487 91.1675 26.21C91.6155 26.462 91.9515 26.8167 92.1755 27.274L91.1535 27.848C90.9015 27.2507 90.4022 26.952 89.6555 26.952C89.3102 26.952 89.0162 27.036 88.7735 27.204C88.5309 27.3627 88.4095 27.5913 88.4095 27.89ZM94.3193 24.726C94.086 24.726 93.89 24.6467 93.7313 24.488C93.5726 24.3293 93.4933 24.138 93.4933 23.914C93.4933 23.69 93.5726 23.4987 93.7313 23.34C93.89 23.172 94.086 23.088 94.3193 23.088C94.5433 23.088 94.7346 23.172 94.8933 23.34C95.052 23.4987 95.1313 23.69 95.1313 23.914C95.1313 24.138 95.052 24.3293 94.8933 24.488C94.7346 24.6467 94.5433 24.726 94.3193 24.726ZM93.7033 33V26H94.9213V33H93.7033ZM100.265 25.818C101.087 25.818 101.745 26.0793 102.239 26.602C102.734 27.1153 102.981 27.8153 102.981 28.702V33H101.763V28.772C101.763 28.2027 101.609 27.764 101.301 27.456C100.993 27.1387 100.569 26.98 100.027 26.98C99.4208 26.98 98.9308 27.1713 98.5575 27.554C98.1841 27.9273 97.9975 28.506 97.9975 29.29V33H96.7795V26H97.9975V27.008C98.4921 26.2147 99.2481 25.818 100.265 25.818ZM110.492 26H111.696V32.706C111.696 33.742 111.346 34.5447 110.646 35.114C109.946 35.6927 109.106 35.982 108.126 35.982C107.342 35.982 106.665 35.8327 106.096 35.534C105.526 35.2447 105.097 34.8247 104.808 34.274L105.872 33.672C106.254 34.456 107.015 34.848 108.154 34.848C108.882 34.848 109.451 34.6567 109.862 34.274C110.282 33.8913 110.492 33.3687 110.492 32.706V31.712C109.876 32.6453 108.998 33.112 107.86 33.112C106.861 33.112 106.016 32.7573 105.326 32.048C104.635 31.3387 104.29 30.4753 104.29 29.458C104.29 28.4407 104.635 27.582 105.326 26.882C106.016 26.1727 106.861 25.818 107.86 25.818C109.008 25.818 109.885 26.28 110.492 27.204V26ZM106.222 31.236C106.698 31.712 107.29 31.95 108 31.95C108.709 31.95 109.302 31.712 109.778 31.236C110.254 30.76 110.492 30.1673 110.492 29.458C110.492 28.758 110.254 28.17 109.778 27.694C109.302 27.218 108.709 26.98 108 26.98C107.29 26.98 106.698 27.218 106.222 27.694C105.746 28.17 105.508 28.758 105.508 29.458C105.508 30.1673 105.746 30.76 106.222 31.236ZM122.767 27.918C123.215 28.1327 123.57 28.4407 123.831 28.842C124.102 29.2433 124.237 29.7053 124.237 30.228C124.237 31.012 123.962 31.67 123.411 32.202C122.861 32.734 122.189 33 121.395 33H117.167V23.2H121.087C121.853 23.2 122.501 23.4567 123.033 23.97C123.565 24.4833 123.831 25.118 123.831 25.874C123.831 26.742 123.477 27.4233 122.767 27.918ZM121.087 24.418H118.469V27.414H121.087C121.498 27.414 121.843 27.2693 122.123 26.98C122.403 26.6907 122.543 26.336 122.543 25.916C122.543 25.5053 122.399 25.1553 122.109 24.866C121.829 24.5673 121.489 24.418 121.087 24.418ZM121.395 31.782C121.834 31.782 122.203 31.628 122.501 31.32C122.8 31.012 122.949 30.634 122.949 30.186C122.949 29.7473 122.795 29.374 122.487 29.066C122.189 28.758 121.825 28.604 121.395 28.604H118.469V31.782H121.395ZM131.491 26H132.709V33H131.491V31.796C130.885 32.72 130.003 33.182 128.845 33.182C127.865 33.182 127.03 32.8273 126.339 32.118C125.649 31.3993 125.303 30.5267 125.303 29.5C125.303 28.4733 125.649 27.6053 126.339 26.896C127.03 26.1773 127.865 25.818 128.845 25.818C130.003 25.818 130.885 26.28 131.491 27.204V26ZM128.999 32.006C129.709 32.006 130.301 31.768 130.777 31.292C131.253 30.8067 131.491 30.2093 131.491 29.5C131.491 28.7907 131.253 28.198 130.777 27.722C130.301 27.2367 129.709 26.994 128.999 26.994C128.299 26.994 127.711 27.2367 127.235 27.722C126.759 28.198 126.521 28.7907 126.521 29.5C126.521 30.2093 126.759 30.8067 127.235 31.292C127.711 31.768 128.299 32.006 128.999 32.006ZM138.041 25.818C138.862 25.818 139.52 26.0793 140.015 26.602C140.51 27.1153 140.757 27.8153 140.757 28.702V33H139.539V28.772C139.539 28.2027 139.385 27.764 139.077 27.456C138.769 27.1387 138.344 26.98 137.803 26.98C137.196 26.98 136.706 27.1713 136.333 27.554C135.96 27.9273 135.773 28.506 135.773 29.29V33H134.555V26H135.773V27.008C136.268 26.2147 137.024 25.818 138.041 25.818ZM148.379 33H146.867L143.675 29.682V33H142.457V23.2H143.675V29.094L146.699 26H148.267L144.921 29.388L148.379 33ZM159.41 23.2V24.432H156.512V33H155.224V24.432H152.34V23.2H159.41ZM160.833 27.176C161.235 26.308 161.963 25.874 163.017 25.874V27.148C162.42 27.12 161.907 27.2787 161.477 27.624C161.048 27.9693 160.833 28.5247 160.833 29.29V33H159.615V26H160.833V27.176ZM169.622 26H170.84V33H169.622V31.796C169.016 32.72 168.134 33.182 166.976 33.182C165.996 33.182 165.161 32.8273 164.47 32.118C163.78 31.3993 163.434 30.5267 163.434 29.5C163.434 28.4733 163.78 27.6053 164.47 26.896C165.161 26.1773 165.996 25.818 166.976 25.818C168.134 25.818 169.016 26.28 169.622 27.204V26ZM167.13 32.006C167.84 32.006 168.432 31.768 168.908 31.292C169.384 30.8067 169.622 30.2093 169.622 29.5C169.622 28.7907 169.384 28.198 168.908 27.722C168.432 27.2367 167.84 26.994 167.13 26.994C166.43 26.994 165.842 27.2367 165.366 27.722C164.89 28.198 164.652 28.7907 164.652 29.5C164.652 30.2093 164.89 30.8067 165.366 31.292C165.842 31.768 166.43 32.006 167.13 32.006ZM176.172 25.818C176.993 25.818 177.651 26.0793 178.146 26.602C178.64 27.1153 178.888 27.8153 178.888 28.702V33H177.67V28.772C177.67 28.2027 177.516 27.764 177.208 27.456C176.9 27.1387 176.475 26.98 175.934 26.98C175.327 26.98 174.837 27.1713 174.464 27.554C174.09 27.9273 173.904 28.506 173.904 29.29V33H172.686V26H173.904V27.008C174.398 26.2147 175.154 25.818 176.172 25.818ZM181.638 27.89C181.638 28.1607 181.773 28.38 182.044 28.548C182.315 28.7067 182.641 28.8373 183.024 28.94C183.407 29.0333 183.789 29.1453 184.172 29.276C184.555 29.3973 184.881 29.612 185.152 29.92C185.423 30.2187 185.558 30.606 185.558 31.082C185.558 31.7167 185.311 32.2253 184.816 32.608C184.331 32.9907 183.705 33.182 182.94 33.182C182.259 33.182 181.675 33.0327 181.19 32.734C180.705 32.4353 180.359 32.0387 180.154 31.544L181.204 30.942C181.316 31.278 181.526 31.544 181.834 31.74C182.142 31.936 182.511 32.034 182.94 32.034C183.341 32.034 183.673 31.9593 183.934 31.81C184.195 31.6513 184.326 31.4087 184.326 31.082C184.326 30.8113 184.191 30.5967 183.92 30.438C183.649 30.27 183.323 30.1393 182.94 30.046C182.557 29.9433 182.175 29.8267 181.792 29.696C181.409 29.5653 181.083 29.3507 180.812 29.052C180.541 28.7533 180.406 28.3707 180.406 27.904C180.406 27.2973 180.639 26.798 181.106 26.406C181.582 26.014 182.175 25.818 182.884 25.818C183.453 25.818 183.957 25.9487 184.396 26.21C184.844 26.462 185.18 26.8167 185.404 27.274L184.382 27.848C184.13 27.2507 183.631 26.952 182.884 26.952C182.539 26.952 182.245 27.036 182.002 27.204C181.759 27.3627 181.638 27.5913 181.638 27.89ZM190.448 24.194C189.216 24.0913 188.6 24.6233 188.6 25.79V26H190.448V27.176H188.6V33H187.382V27.176H186.262V26H187.382V25.79C187.382 24.8473 187.643 24.1333 188.166 23.648C188.698 23.1627 189.458 22.9527 190.448 23.018V24.194ZM191.846 30.06C191.968 30.6853 192.252 31.1707 192.7 31.516C193.158 31.8613 193.718 32.034 194.38 32.034C195.304 32.034 195.976 31.6933 196.396 31.012L197.432 31.6C196.751 32.6547 195.724 33.182 194.352 33.182C193.242 33.182 192.336 32.8367 191.636 32.146C190.946 31.446 190.6 30.564 190.6 29.5C190.6 28.4453 190.941 27.568 191.622 26.868C192.304 26.168 193.186 25.818 194.268 25.818C195.295 25.818 196.13 26.182 196.774 26.91C197.428 27.6287 197.754 28.4967 197.754 29.514C197.754 29.6913 197.74 29.8733 197.712 30.06H191.846ZM194.268 26.966C193.615 26.966 193.074 27.1527 192.644 27.526C192.215 27.89 191.949 28.38 191.846 28.996H196.522C196.42 28.3333 196.158 27.8293 195.738 27.484C195.318 27.1387 194.828 26.966 194.268 26.966ZM200.372 27.176C200.774 26.308 201.502 25.874 202.556 25.874V27.148C201.959 27.12 201.446 27.2787 201.016 27.624C200.587 27.9693 200.372 28.5247 200.372 29.29V33H199.154V26H200.372V27.176Z" fill="#1E1E1E"/>
<path d="M33.548 22.58L32.487 21.52L26.708 27.297C26.6149 27.3896 26.5409 27.4996 26.4905 27.6209C26.44 27.7421 26.4141 27.8722 26.4141 28.0035C26.4141 28.1348 26.44 28.2648 26.4905 28.3861C26.5409 28.5073 26.6149 28.6174 26.708 28.71L32.487 34.49L33.547 33.43L28.123 28.005L33.548 22.58Z" fill="black"/>
<path d="M349.061 196.866L348.001 197.927L353.778 203.706C353.87 203.799 353.98 203.873 354.102 203.924C354.223 203.974 354.353 204 354.484 204C354.616 204 354.746 203.974 354.867 203.924C354.988 203.873 355.098 203.799 355.191 203.706L360.971 197.927L359.911 196.867L354.486 202.291L349.061 196.866Z" fill="black"/>
<line x1="4.37114e-08" y1="53.5" x2="390" y2="53.5" stroke="#E9E9E9"/>
<rect x="20.3" y="69.3" width="166.4" height="40.4" rx="4.7" stroke="#EEEEEE" stroke-width="0.6"/>
<rect x="20.3" y="116.3" width="166.4" height="40.4" rx="4.7" stroke="#EEEEEE" stroke-width="0.6"/>
<rect x="202.3" y="69.3" width="166.4" height="40.4" rx="4.7" stroke="#EEEEEE" stroke-width="0.6"/>
<rect x="202.3" y="116.3" width="166.4" height="40.4" rx="4.7" stroke="#767676" stroke-width="0.6"/>
<path d="M67.68 88.37C68.02 88.5167 68.29 88.74 68.49 89.04C68.6967 89.3333 68.8 89.67 68.8 90.05C68.8 90.59 68.61 91.05 68.23 91.43C67.85 91.81 67.39 92 66.85 92H63.8V85H66.62C67.14 85 67.5833 85.1867 67.95 85.56C68.3167 85.9267 68.5 86.3667 68.5 86.88C68.5 87.5333 68.2267 88.03 67.68 88.37ZM66.62 85.66H64.5V88.1H66.62C66.9467 88.1 67.2233 87.9833 67.45 87.75C67.6833 87.51 67.8 87.22 67.8 86.88C67.8 86.5467 67.6833 86.26 67.45 86.02C67.2233 85.78 66.9467 85.66 66.62 85.66ZM66.85 91.34C67.1967 91.34 67.49 91.2167 67.73 90.97C67.9767 90.7167 68.1 90.41 68.1 90.05C68.1 89.6967 67.9767 89.3933 67.73 89.14C67.49 88.8867 67.1967 88.76 66.85 88.76H64.5V91.34H66.85ZM74.2012 87H74.8612V92H74.2012V91.02C73.7412 91.7533 73.0678 92.12 72.1812 92.12C71.4678 92.12 70.8578 91.8667 70.3512 91.36C69.8512 90.8533 69.6012 90.2333 69.6012 89.5C69.6012 88.7667 69.8512 88.1467 70.3512 87.64C70.8578 87.1333 71.4678 86.88 72.1812 86.88C73.0678 86.88 73.7412 87.2467 74.2012 87.98V87ZM70.8312 90.91C71.2112 91.29 71.6778 91.48 72.2312 91.48C72.7845 91.48 73.2512 91.29 73.6312 90.91C74.0112 90.5233 74.2012 90.0533 74.2012 89.5C74.2012 88.9467 74.0112 88.48 73.6312 88.1C73.2512 87.7133 72.7845 87.52 72.2312 87.52C71.6778 87.52 71.2112 87.7133 70.8312 88.1C70.4512 88.48 70.2612 88.9467 70.2612 89.5C70.2612 90.0533 70.4512 90.5233 70.8312 90.91ZM78.5986 86.88C79.2053 86.88 79.6819 87.0667 80.0286 87.44C80.3819 87.8067 80.5586 88.3033 80.5586 88.93V92H79.8986V88.93C79.8986 88.4833 79.7786 88.1367 79.5386 87.89C79.3053 87.6433 78.9719 87.52 78.5386 87.52C78.0586 87.52 77.6686 87.6733 77.3686 87.98C77.0686 88.28 76.9186 88.7467 76.9186 89.38V92H76.2586V87H76.9186V87.78C77.2919 87.18 77.8519 86.88 78.5986 86.88ZM85.8748 92H84.9948L82.4948 89.59V92H81.8348V85H82.4948V89.21L84.8748 87H85.7748L83.1948 89.4L85.8748 92ZM90.5762 85H91.1762V92H90.4762V85.77L88.9062 86.24L88.7262 85.64L90.5762 85Z" fill="#1E1E1E"/>
<path d="M250.68 88.37C251.02 88.5167 251.29 88.74 251.49 89.04C251.697 89.3333 251.8 89.67 251.8 90.05C251.8 90.59 251.61 91.05 251.23 91.43C250.85 91.81 250.39 92 249.85 92H246.8V85H249.62C250.14 85 250.583 85.1867 250.95 85.56C251.317 85.9267 251.5 86.3667 251.5 86.88C251.5 87.5333 251.227 88.03 250.68 88.37ZM249.62 85.66H247.5V88.1H249.62C249.947 88.1 250.223 87.9833 250.45 87.75C250.683 87.51 250.8 87.22 250.8 86.88C250.8 86.5467 250.683 86.26 250.45 86.02C250.223 85.78 249.947 85.66 249.62 85.66ZM249.85 91.34C250.197 91.34 250.49 91.2167 250.73 90.97C250.977 90.7167 251.1 90.41 251.1 90.05C251.1 89.6967 250.977 89.3933 250.73 89.14C250.49 88.8867 250.197 88.76 249.85 88.76H247.5V91.34H249.85ZM257.201 87H257.861V92H257.201V91.02C256.741 91.7533 256.068 92.12 255.181 92.12C254.468 92.12 253.858 91.8667 253.351 91.36C252.851 90.8533 252.601 90.2333 252.601 89.5C252.601 88.7667 252.851 88.1467 253.351 87.64C253.858 87.1333 254.468 86.88 255.181 86.88C256.068 86.88 256.741 87.2467 257.201 87.98V87ZM253.831 90.91C254.211 91.29 254.678 91.48 255.231 91.48C255.785 91.48 256.251 91.29 256.631 90.91C257.011 90.5233 257.201 90.0533 257.201 89.5C257.201 88.9467 257.011 88.48 256.631 88.1C256.251 87.7133 255.785 87.52 255.231 87.52C254.678 87.52 254.211 87.7133 253.831 88.1C253.451 88.48 253.261 88.9467 253.261 89.5C253.261 90.0533 253.451 90.5233 253.831 90.91ZM261.599 86.88C262.205 86.88 262.682 87.0667 263.029 87.44C263.382 87.8067 263.559 88.3033 263.559 88.93V92H262.899V88.93C262.899 88.4833 262.779 88.1367 262.539 87.89C262.305 87.6433 261.972 87.52 261.539 87.52C261.059 87.52 260.669 87.6733 260.369 87.98C260.069 88.28 259.919 88.7467 259.919 89.38V92H259.259V87H259.919V87.78C260.292 87.18 260.852 86.88 261.599 86.88ZM268.875 92H267.995L265.495 89.59V92H264.835V85H265.495V89.21L267.875 87H268.775L266.195 89.4L268.875 92ZM271.976 92V91.37L274.496 88.83C275.216 88.11 275.576 87.4933 275.576 86.98C275.576 86.5333 275.436 86.1867 275.156 85.94C274.883 85.6867 274.553 85.56 274.166 85.56C273.446 85.56 272.923 85.89 272.596 86.55L272.006 86.2C272.226 85.7667 272.526 85.44 272.906 85.22C273.286 84.9933 273.706 84.88 274.166 84.88C274.726 84.88 275.216 85.07 275.636 85.45C276.063 85.8233 276.276 86.3333 276.276 86.98C276.276 87.3867 276.163 87.7767 275.936 88.15C275.71 88.5233 275.39 88.9167 274.976 89.33L272.976 91.32H276.426V92H271.976Z" fill="#1E1E1E"/>
<path d="M67.68 136.37C68.02 136.517 68.29 136.74 68.49 137.04C68.6967 137.333 68.8 137.67 68.8 138.05C68.8 138.59 68.61 139.05 68.23 139.43C67.85 139.81 67.39 140 66.85 140H63.8V133H66.62C67.14 133 67.5833 133.187 67.95 133.56C68.3167 133.927 68.5 134.367 68.5 134.88C68.5 135.533 68.2267 136.03 67.68 136.37ZM66.62 133.66H64.5V136.1H66.62C66.9467 136.1 67.2233 135.983 67.45 135.75C67.6833 135.51 67.8 135.22 67.8 134.88C67.8 134.547 67.6833 134.26 67.45 134.02C67.2233 133.78 66.9467 133.66 66.62 133.66ZM66.85 139.34C67.1967 139.34 67.49 139.217 67.73 138.97C67.9767 138.717 68.1 138.41 68.1 138.05C68.1 137.697 67.9767 137.393 67.73 137.14C67.49 136.887 67.1967 136.76 66.85 136.76H64.5V139.34H66.85ZM74.2012 135H74.8612V140H74.2012V139.02C73.7412 139.753 73.0678 140.12 72.1812 140.12C71.4678 140.12 70.8578 139.867 70.3512 139.36C69.8512 138.853 69.6012 138.233 69.6012 137.5C69.6012 136.767 69.8512 136.147 70.3512 135.64C70.8578 135.133 71.4678 134.88 72.1812 134.88C73.0678 134.88 73.7412 135.247 74.2012 135.98V135ZM70.8312 138.91C71.2112 139.29 71.6778 139.48 72.2312 139.48C72.7845 139.48 73.2512 139.29 73.6312 138.91C74.0112 138.523 74.2012 138.053 74.2012 137.5C74.2012 136.947 74.0112 136.48 73.6312 136.1C73.2512 135.713 72.7845 135.52 72.2312 135.52C71.6778 135.52 71.2112 135.713 70.8312 136.1C70.4512 136.48 70.2612 136.947 70.2612 137.5C70.2612 138.053 70.4512 138.523 70.8312 138.91ZM78.5986 134.88C79.2053 134.88 79.6819 135.067 80.0286 135.44C80.3819 135.807 80.5586 136.303 80.5586 136.93V140H79.8986V136.93C79.8986 136.483 79.7786 136.137 79.5386 135.89C79.3053 135.643 78.9719 135.52 78.5386 135.52C78.0586 135.52 77.6686 135.673 77.3686 135.98C77.0686 136.28 76.9186 136.747 76.9186 137.38V140H76.2586V135H76.9186V135.78C77.2919 135.18 77.8519 134.88 78.5986 134.88ZM85.8748 140H84.9948L82.4948 137.59V140H81.8348V133H82.4948V137.21L84.8748 135H85.7748L83.1948 137.4L85.8748 140ZM91.5462 135.91C92.1062 135.983 92.5662 136.2 92.9262 136.56C93.2928 136.913 93.4762 137.383 93.4762 137.97C93.4762 138.637 93.2462 139.163 92.7862 139.55C92.3328 139.93 91.7795 140.12 91.1262 140.12C90.6062 140.12 90.1428 140 89.7362 139.76C89.3295 139.52 89.0428 139.177 88.8762 138.73L89.4562 138.39C89.5695 138.737 89.7728 139 90.0662 139.18C90.3595 139.353 90.7128 139.44 91.1262 139.44C91.6062 139.44 91.9995 139.313 92.3062 139.06C92.6195 138.8 92.7762 138.437 92.7762 137.97C92.7762 137.503 92.6195 137.143 92.3062 136.89C91.9995 136.63 91.6062 136.5 91.1262 136.5V136.49L91.1162 136.5H90.9262L90.6262 136.04L92.3662 133.66H89.0762V133H93.1762V133.66L91.5462 135.91Z" fill="#1E1E1E"/>
<path d="M250.68 136.37C251.02 136.517 251.29 136.74 251.49 137.04C251.697 137.333 251.8 137.67 251.8 138.05C251.8 138.59 251.61 139.05 251.23 139.43C250.85 139.81 250.39 140 249.85 140H246.8V133H249.62C250.14 133 250.583 133.187 250.95 133.56C251.317 133.927 251.5 134.367 251.5 134.88C251.5 135.533 251.227 136.03 250.68 136.37ZM249.62 133.66H247.5V136.1H249.62C249.947 136.1 250.223 135.983 250.45 135.75C250.683 135.51 250.8 135.22 250.8 134.88C250.8 134.547 250.683 134.26 250.45 134.02C250.223 133.78 249.947 133.66 249.62 133.66ZM249.85 139.34C250.197 139.34 250.49 139.217 250.73 138.97C250.977 138.717 251.1 138.41 251.1 138.05C251.1 137.697 250.977 137.393 250.73 137.14C250.49 136.887 250.197 136.76 249.85 136.76H247.5V139.34H249.85ZM257.201 135H257.861V140H257.201V139.02C256.741 139.753 256.068 140.12 255.181 140.12C254.468 140.12 253.858 139.867 253.351 139.36C252.851 138.853 252.601 138.233 252.601 137.5C252.601 136.767 252.851 136.147 253.351 135.64C253.858 135.133 254.468 134.88 255.181 134.88C256.068 134.88 256.741 135.247 257.201 135.98V135ZM253.831 138.91C254.211 139.29 254.678 139.48 255.231 139.48C255.785 139.48 256.251 139.29 256.631 138.91C257.011 138.523 257.201 138.053 257.201 137.5C257.201 136.947 257.011 136.48 256.631 136.1C256.251 135.713 255.785 135.52 255.231 135.52C254.678 135.52 254.211 135.713 253.831 136.1C253.451 136.48 253.261 136.947 253.261 137.5C253.261 138.053 253.451 138.523 253.831 138.91ZM261.599 134.88C262.205 134.88 262.682 135.067 263.029 135.44C263.382 135.807 263.559 136.303 263.559 136.93V140H262.899V136.93C262.899 136.483 262.779 136.137 262.539 135.89C262.305 135.643 261.972 135.52 261.539 135.52C261.059 135.52 260.669 135.673 260.369 135.98C260.069 136.28 259.919 136.747 259.919 137.38V140H259.259V135H259.919V135.78C260.292 135.18 260.852 134.88 261.599 134.88ZM268.875 140H267.995L265.495 137.59V140H264.835V133H265.495V137.21L267.875 135H268.775L266.195 137.4L268.875 140ZM277.126 137.94V138.6H276.226V140H275.526V138.6H271.826V137.94L274.426 133H275.196L272.596 137.94H275.526V135.8H276.226V137.94H277.126Z" fill="#1E1E1E"/>
<rect x="24.3" y="179.3" width="344.4" height="38.4" rx="4.7" stroke="#767676" stroke-width="0.6"/>
<rect width="67" height="16" transform="translate(33 171)" fill="white"/>
<path d="M40.9 181.096C40.388 181.096 39.948 180.976 39.58 180.736C39.2173 180.491 38.964 180.155 38.82 179.728L39.3 179.448C39.4013 179.795 39.588 180.067 39.86 180.264C40.132 180.456 40.4813 180.552 40.908 180.552C41.324 180.552 41.6467 180.461 41.876 180.28C42.1107 180.093 42.228 179.848 42.228 179.544C42.228 179.251 42.1213 179.029 41.908 178.88C41.6947 178.731 41.3427 178.576 40.852 178.416C40.2707 178.224 39.8867 178.069 39.7 177.952C39.2733 177.696 39.06 177.325 39.06 176.84C39.06 176.365 39.2253 175.992 39.556 175.72C39.8867 175.443 40.2947 175.304 40.78 175.304C41.2173 175.304 41.596 175.419 41.916 175.648C42.236 175.872 42.4733 176.16 42.628 176.512L42.156 176.776C41.9 176.157 41.4413 175.848 40.78 175.848C40.4333 175.848 40.1533 175.933 39.94 176.104C39.7267 176.275 39.62 176.512 39.62 176.816C39.62 177.093 39.716 177.301 39.908 177.44C40.1 177.579 40.4173 177.72 40.86 177.864C41.0627 177.933 41.2067 177.984 41.292 178.016C41.3827 178.043 41.5107 178.091 41.676 178.16C41.8467 178.224 41.972 178.283 42.052 178.336C42.132 178.384 42.228 178.453 42.34 178.544C42.4573 178.629 42.54 178.717 42.588 178.808C42.6413 178.893 42.6867 179 42.724 179.128C42.7667 179.251 42.788 179.384 42.788 179.528C42.788 180.003 42.6147 180.384 42.268 180.672C41.9213 180.955 41.4653 181.096 40.9 181.096ZM45.5955 176.904C46.1875 176.904 46.6648 177.115 47.0275 177.536C47.3955 177.952 47.5795 178.445 47.5795 179.016C47.5795 179.075 47.5742 179.157 47.5635 179.264H44.0515C44.1048 179.669 44.2755 179.992 44.5635 180.232C44.8568 180.467 45.2168 180.584 45.6435 180.584C45.9475 180.584 46.2088 180.523 46.4275 180.4C46.6515 180.272 46.8195 180.107 46.9315 179.904L47.3955 180.176C47.2195 180.459 46.9795 180.683 46.6755 180.848C46.3715 181.013 46.0248 181.096 45.6355 181.096C45.0062 181.096 44.4942 180.899 44.0995 180.504C43.7048 180.109 43.5075 179.608 43.5075 179C43.5075 178.403 43.7022 177.904 44.0915 177.504C44.4808 177.104 44.9822 176.904 45.5955 176.904ZM45.5955 177.416C45.1795 177.416 44.8302 177.541 44.5475 177.792C44.2702 178.037 44.1048 178.357 44.0515 178.752H47.0355C46.9822 178.331 46.8195 178.003 46.5475 177.768C46.2755 177.533 45.9582 177.416 45.5955 177.416ZM48.4194 181V175.16H48.9474V181H48.4194ZM51.9158 176.904C52.5078 176.904 52.9851 177.115 53.3478 177.536C53.7158 177.952 53.8998 178.445 53.8998 179.016C53.8998 179.075 53.8945 179.157 53.8838 179.264H50.3718C50.4251 179.669 50.5958 179.992 50.8838 180.232C51.1771 180.467 51.5371 180.584 51.9638 180.584C52.2678 180.584 52.5291 180.523 52.7478 180.4C52.9718 180.272 53.1398 180.107 53.2518 179.904L53.7158 180.176C53.5398 180.459 53.2998 180.683 52.9958 180.848C52.6918 181.013 52.3451 181.096 51.9558 181.096C51.3265 181.096 50.8145 180.899 50.4198 180.504C50.0251 180.109 49.8278 179.608 49.8278 179C49.8278 178.403 50.0225 177.904 50.4118 177.504C50.8011 177.104 51.3025 176.904 51.9158 176.904ZM51.9158 177.416C51.4998 177.416 51.1505 177.541 50.8678 177.792C50.5905 178.037 50.4251 178.357 50.3718 178.752H53.3558C53.3025 178.331 53.1398 178.003 52.8678 177.768C52.5958 177.533 52.2785 177.416 51.9158 177.416ZM56.6037 181.096C56.001 181.096 55.4997 180.896 55.0997 180.496C54.6997 180.091 54.4997 179.592 54.4997 179C54.4997 178.408 54.6997 177.912 55.0997 177.512C55.4997 177.107 56.001 176.904 56.6037 176.904C56.9984 176.904 57.353 177 57.6677 177.192C57.9824 177.379 58.2117 177.632 58.3557 177.952L57.9237 178.2C57.817 177.96 57.6437 177.771 57.4037 177.632C57.169 177.488 56.9024 177.416 56.6037 177.416C56.161 177.416 55.7877 177.571 55.4837 177.88C55.1797 178.184 55.0277 178.557 55.0277 179C55.0277 179.443 55.1797 179.819 55.4837 180.128C55.7877 180.432 56.161 180.584 56.6037 180.584C56.9024 180.584 57.169 180.515 57.4037 180.376C57.6384 180.232 57.8224 180.04 57.9557 179.8L58.3957 180.056C58.2304 180.376 57.9877 180.629 57.6677 180.816C57.3477 181.003 56.993 181.096 56.6037 181.096ZM61.2738 177.512H60.1218V179.936C60.1218 180.155 60.1644 180.312 60.2498 180.408C60.3351 180.499 60.4631 180.547 60.6338 180.552C60.8044 180.552 61.0178 180.547 61.2738 180.536V181C60.7138 181.085 60.2924 181.045 60.0098 180.88C59.7324 180.715 59.5938 180.4 59.5938 179.936V177.512H58.7538V177H59.5938V176.04L60.1218 175.88V177H61.2738V177.512ZM67.9618 181L67.4418 179.624H64.7858L64.2658 181H63.6738L65.8258 175.4H66.4018L68.5538 181H67.9618ZM64.9858 179.096H67.2418L66.1138 176.096L64.9858 179.096ZM70.9787 181.096C70.376 181.096 69.8747 180.896 69.4747 180.496C69.0747 180.091 68.8747 179.592 68.8747 179C68.8747 178.408 69.0747 177.912 69.4747 177.512C69.8747 177.107 70.376 176.904 70.9787 176.904C71.3734 176.904 71.728 177 72.0427 177.192C72.3574 177.379 72.5867 177.632 72.7307 177.952L72.2987 178.2C72.192 177.96 72.0187 177.771 71.7787 177.632C71.544 177.488 71.2774 177.416 70.9787 177.416C70.536 177.416 70.1627 177.571 69.8587 177.88C69.5547 178.184 69.4027 178.557 69.4027 179C69.4027 179.443 69.5547 179.819 69.8587 180.128C70.1627 180.432 70.536 180.584 70.9787 180.584C71.2774 180.584 71.544 180.515 71.7787 180.376C72.0134 180.232 72.1974 180.04 72.3307 179.8L72.7707 180.056C72.6054 180.376 72.3627 180.629 72.0427 180.816C71.7227 181.003 71.368 181.096 70.9787 181.096ZM75.3537 181.096C74.751 181.096 74.2497 180.896 73.8497 180.496C73.4497 180.091 73.2497 179.592 73.2497 179C73.2497 178.408 73.4497 177.912 73.8497 177.512C74.2497 177.107 74.751 176.904 75.3537 176.904C75.7484 176.904 76.103 177 76.4177 177.192C76.7324 177.379 76.9617 177.632 77.1057 177.952L76.6737 178.2C76.567 177.96 76.3937 177.771 76.1537 177.632C75.919 177.488 75.6524 177.416 75.3537 177.416C74.911 177.416 74.5377 177.571 74.2337 177.88C73.9297 178.184 73.7777 178.557 73.7777 179C73.7777 179.443 73.9297 179.819 74.2337 180.128C74.5377 180.432 74.911 180.584 75.3537 180.584C75.6524 180.584 75.919 180.515 76.1537 180.376C76.3884 180.232 76.5724 180.04 76.7057 179.8L77.1457 180.056C76.9804 180.376 76.7377 180.629 76.4177 180.816C76.0977 181.003 75.743 181.096 75.3537 181.096ZM81.2167 180.496C80.8114 180.896 80.3154 181.096 79.7287 181.096C79.142 181.096 78.6434 180.896 78.2327 180.496C77.8274 180.091 77.6247 179.592 77.6247 179C77.6247 178.408 77.8274 177.912 78.2327 177.512C78.6434 177.107 79.142 176.904 79.7287 176.904C80.3154 176.904 80.8114 177.107 81.2167 177.512C81.6274 177.912 81.8327 178.408 81.8327 179C81.8327 179.592 81.6274 180.091 81.2167 180.496ZM78.6087 180.128C78.9127 180.432 79.286 180.584 79.7287 180.584C80.1714 180.584 80.5447 180.432 80.8487 180.128C81.1527 179.819 81.3047 179.443 81.3047 179C81.3047 178.557 81.1527 178.184 80.8487 177.88C80.5447 177.571 80.1714 177.416 79.7287 177.416C79.286 177.416 78.9127 177.571 78.6087 177.88C78.3047 178.184 78.1527 178.557 78.1527 179C78.1527 179.443 78.3047 179.819 78.6087 180.128ZM85.5323 177H86.0603V181H85.5323V180.376C85.2336 180.856 84.7856 181.096 84.1883 181.096C83.7029 181.096 83.3189 180.949 83.0363 180.656C82.7589 180.357 82.6203 179.957 82.6203 179.456V177H83.1483V179.456C83.1483 179.813 83.2416 180.091 83.4283 180.288C83.6203 180.485 83.8896 180.584 84.2363 180.584C84.6203 180.584 84.9323 180.464 85.1723 180.224C85.4123 179.979 85.5323 179.603 85.5323 179.096V177ZM89.0492 176.904C89.5345 176.904 89.9159 177.053 90.1932 177.352C90.4759 177.645 90.6172 178.043 90.6172 178.544V181H90.0892V178.544C90.0892 178.187 89.9932 177.909 89.8012 177.712C89.6145 177.515 89.3479 177.416 89.0012 177.416C88.6172 177.416 88.3052 177.539 88.0652 177.784C87.8252 178.024 87.7052 178.397 87.7052 178.904V181H87.1772V177H87.7052V177.624C88.0039 177.144 88.4519 176.904 89.0492 176.904ZM93.7581 177.512H92.6061V179.936C92.6061 180.155 92.6488 180.312 92.7341 180.408C92.8195 180.499 92.9475 180.547 93.1181 180.552C93.2888 180.552 93.5021 180.547 93.7581 180.536V181C93.1981 181.085 92.7768 181.045 92.4941 180.88C92.2168 180.715 92.0781 180.4 92.0781 179.936V177.512H91.2381V177H92.0781V176.04L92.6061 175.88V177H93.7581V177.512Z" fill="#1E1E1E"/>
<path d="M43.68 230.4L41.656 233.704V236H41.096V233.688L39.08 230.4H39.712L41.384 233.144L43.048 230.4H43.68ZM46.8729 235.496C46.4676 235.896 45.9716 236.096 45.3849 236.096C44.7983 236.096 44.2996 235.896 43.8889 235.496C43.4836 235.091 43.2809 234.592 43.2809 234C43.2809 233.408 43.4836 232.912 43.8889 232.512C44.2996 232.107 44.7983 231.904 45.3849 231.904C45.9716 231.904 46.4676 232.107 46.8729 232.512C47.2836 232.912 47.4889 233.408 47.4889 234C47.4889 234.592 47.2836 235.091 46.8729 235.496ZM44.2649 235.128C44.5689 235.432 44.9423 235.584 45.3849 235.584C45.8276 235.584 46.2009 235.432 46.5049 235.128C46.8089 234.819 46.9609 234.443 46.9609 234C46.9609 233.557 46.8089 233.184 46.5049 232.88C46.2009 232.571 45.8276 232.416 45.3849 232.416C44.9423 232.416 44.5689 232.571 44.2649 232.88C43.9609 233.184 43.8089 233.557 43.8089 234C43.8089 234.443 43.9609 234.819 44.2649 235.128ZM51.1885 232H51.7165V236H51.1885V235.376C50.8898 235.856 50.4418 236.096 49.8445 236.096C49.3592 236.096 48.9752 235.949 48.6925 235.656C48.4152 235.357 48.2765 234.957 48.2765 234.456V232H48.8045V234.456C48.8045 234.813 48.8978 235.091 49.0845 235.288C49.2765 235.485 49.5458 235.584 49.8925 235.584C50.2765 235.584 50.5885 235.464 50.8285 235.224C51.0685 234.979 51.1885 234.603 51.1885 234.096V232ZM53.3614 232.664C53.6068 232.179 54.0281 231.936 54.6254 231.936V232.448C54.2628 232.448 53.9614 232.555 53.7214 232.768C53.4814 232.981 53.3614 233.317 53.3614 233.776V236H52.8334V232H53.3614V232.664ZM60.0451 236.096C59.1971 236.096 58.4957 235.816 57.9411 235.256C57.3864 234.696 57.1091 234.011 57.1091 233.2C57.1091 232.389 57.3864 231.704 57.9411 231.144C58.4957 230.584 59.1971 230.304 60.0451 230.304C60.5624 230.304 61.0371 230.429 61.4691 230.68C61.9011 230.925 62.2344 231.259 62.4691 231.68L61.9731 231.968C61.7971 231.627 61.5357 231.355 61.1891 231.152C60.8424 230.949 60.4611 230.848 60.0451 230.848C59.3464 230.848 58.7757 231.075 58.3331 231.528C57.8904 231.981 57.6691 232.539 57.6691 233.2C57.6691 233.861 57.8904 234.419 58.3331 234.872C58.7757 235.325 59.3464 235.552 60.0451 235.552C60.4611 235.552 60.8424 235.451 61.1891 235.248C61.5357 235.045 61.7971 234.773 61.9731 234.432L62.4691 234.712C62.2397 235.133 61.9064 235.469 61.4691 235.72C61.0371 235.971 60.5624 236.096 60.0451 236.096ZM66.126 232H66.654V236H66.126V235.376C65.8273 235.856 65.3793 236.096 64.782 236.096C64.2967 236.096 63.9127 235.949 63.63 235.656C63.3527 235.357 63.214 234.957 63.214 234.456V232H63.742V234.456C63.742 234.813 63.8353 235.091 64.022 235.288C64.214 235.485 64.4833 235.584 64.83 235.584C65.214 235.584 65.526 235.464 65.766 235.224C66.006 234.979 66.126 234.603 66.126 234.096V232ZM68.2989 232.664C68.5443 232.179 68.9656 231.936 69.5629 231.936V232.448C69.2003 232.448 68.8989 232.555 68.6589 232.768C68.4189 232.981 68.2989 233.317 68.2989 233.776V236H67.7709V232H68.2989V232.664ZM70.8146 232.664C71.0599 232.179 71.4812 231.936 72.0786 231.936V232.448C71.7159 232.448 71.4146 232.555 71.1746 232.768C70.9346 232.981 70.8146 233.317 70.8146 233.776V236H70.2866V232H70.8146V232.664ZM74.408 231.904C75 231.904 75.4773 232.115 75.84 232.536C76.208 232.952 76.392 233.445 76.392 234.016C76.392 234.075 76.3867 234.157 76.376 234.264H72.864C72.9173 234.669 73.088 234.992 73.376 235.232C73.6693 235.467 74.0293 235.584 74.456 235.584C74.76 235.584 75.0213 235.523 75.24 235.4C75.464 235.272 75.632 235.107 75.744 234.904L76.208 235.176C76.032 235.459 75.792 235.683 75.488 235.848C75.184 236.013 74.8373 236.096 74.448 236.096C73.8187 236.096 73.3067 235.899 72.912 235.504C72.5173 235.109 72.32 234.608 72.32 234C72.32 233.403 72.5147 232.904 72.904 232.504C73.2933 232.104 73.7947 231.904 74.408 231.904ZM74.408 232.416C73.992 232.416 73.6427 232.541 73.36 232.792C73.0827 233.037 72.9173 233.357 72.864 233.752H75.848C75.7947 233.331 75.632 233.003 75.36 232.768C75.088 232.533 74.7707 232.416 74.408 232.416ZM79.1039 231.904C79.5892 231.904 79.9705 232.053 80.2479 232.352C80.5305 232.645 80.6719 233.043 80.6719 233.544V236H80.1439V233.544C80.1439 233.187 80.0479 232.909 79.8559 232.712C79.6692 232.515 79.4025 232.416 79.0559 232.416C78.6719 232.416 78.3599 232.539 78.1199 232.784C77.8799 233.024 77.7599 233.397 77.7599 233.904V236H77.2319V232H77.7599V232.624C78.0585 232.144 78.5065 231.904 79.1039 231.904ZM83.8128 232.512H82.6608V234.936C82.6608 235.155 82.7035 235.312 82.7888 235.408C82.8741 235.499 83.0021 235.547 83.1728 235.552C83.3435 235.552 83.5568 235.547 83.8128 235.536V236C83.2528 236.085 82.8315 236.045 82.5488 235.88C82.2715 235.715 82.1328 235.4 82.1328 234.936V232.512H81.2928V232H82.1328V231.04L82.6608 230.88V232H83.8128V232.512ZM90.5008 236L89.9808 234.624H87.3248L86.8048 236H86.2128L88.3648 230.4H88.9408L91.0928 236H90.5008ZM87.5248 234.096H89.7808L88.6528 231.096L87.5248 234.096ZM93.5178 236.096C92.9151 236.096 92.4138 235.896 92.0138 235.496C91.6138 235.091 91.4138 234.592 91.4138 234C91.4138 233.408 91.6138 232.912 92.0138 232.512C92.4138 232.107 92.9151 231.904 93.5178 231.904C93.9124 231.904 94.2671 232 94.5818 232.192C94.8964 232.379 95.1258 232.632 95.2698 232.952L94.8378 233.2C94.7311 232.96 94.5578 232.771 94.3178 232.632C94.0831 232.488 93.8164 232.416 93.5178 232.416C93.0751 232.416 92.7018 232.571 92.3978 232.88C92.0938 233.184 91.9418 233.557 91.9418 234C91.9418 234.443 92.0938 234.819 92.3978 235.128C92.7018 235.432 93.0751 235.584 93.5178 235.584C93.8164 235.584 94.0831 235.515 94.3178 235.376C94.5524 235.232 94.7364 235.04 94.8698 234.8L95.3098 235.056C95.1444 235.376 94.9018 235.629 94.5818 235.816C94.2618 236.003 93.9071 236.096 93.5178 236.096ZM97.8928 236.096C97.2901 236.096 96.7888 235.896 96.3888 235.496C95.9888 235.091 95.7888 234.592 95.7888 234C95.7888 233.408 95.9888 232.912 96.3888 232.512C96.7888 232.107 97.2901 231.904 97.8928 231.904C98.2874 231.904 98.6421 232 98.9568 232.192C99.2714 232.379 99.5008 232.632 99.6448 232.952L99.2128 233.2C99.1061 232.96 98.9328 232.771 98.6928 232.632C98.4581 232.488 98.1914 232.416 97.8928 232.416C97.4501 232.416 97.0768 232.571 96.7728 232.88C96.4688 233.184 96.3168 233.557 96.3168 234C96.3168 234.443 96.4688 234.819 96.7728 235.128C97.0768 235.432 97.4501 235.584 97.8928 235.584C98.1914 235.584 98.4581 235.515 98.6928 235.376C98.9274 235.232 99.1114 235.04 99.2448 234.8L99.6848 235.056C99.5194 235.376 99.2768 235.629 98.9568 235.816C98.6368 236.003 98.2821 236.096 97.8928 236.096ZM103.756 235.496C103.35 235.896 102.854 236.096 102.268 236.096C101.681 236.096 101.182 235.896 100.772 235.496C100.366 235.091 100.164 234.592 100.164 234C100.164 233.408 100.366 232.912 100.772 232.512C101.182 232.107 101.681 231.904 102.268 231.904C102.854 231.904 103.35 232.107 103.756 232.512C104.166 232.912 104.372 233.408 104.372 234C104.372 234.592 104.166 235.091 103.756 235.496ZM101.148 235.128C101.452 235.432 101.825 235.584 102.268 235.584C102.71 235.584 103.084 235.432 103.388 235.128C103.692 234.819 103.844 234.443 103.844 234C103.844 233.557 103.692 233.184 103.388 232.88C103.084 232.571 102.71 232.416 102.268 232.416C101.825 232.416 101.452 232.571 101.148 232.88C100.844 233.184 100.692 233.557 100.692 234C100.692 234.443 100.844 234.819 101.148 235.128ZM108.071 232H108.599V236H108.071V235.376C107.773 235.856 107.325 236.096 106.727 236.096C106.242 236.096 105.858 235.949 105.575 235.656C105.298 235.357 105.159 234.957 105.159 234.456V232H105.687V234.456C105.687 234.813 105.781 235.091 105.967 235.288C106.159 235.485 106.429 235.584 106.775 235.584C107.159 235.584 107.471 235.464 107.711 235.224C107.951 234.979 108.071 234.603 108.071 234.096V232ZM111.588 231.904C112.074 231.904 112.455 232.053 112.732 232.352C113.015 232.645 113.156 233.043 113.156 233.544V236H112.628V233.544C112.628 233.187 112.532 232.909 112.34 232.712C112.154 232.515 111.887 232.416 111.54 232.416C111.156 232.416 110.844 232.539 110.604 232.784C110.364 233.024 110.244 233.397 110.244 233.904V236H109.716V232H110.244V232.624C110.543 232.144 110.991 231.904 111.588 231.904ZM116.297 232.512H115.145V234.936C115.145 235.155 115.188 235.312 115.273 235.408C115.359 235.499 115.487 235.547 115.657 235.552C115.828 235.552 116.041 235.547 116.297 235.536V236C115.737 236.085 115.316 236.045 115.033 235.88C114.756 235.715 114.617 235.4 114.617 234.936V232.512H113.777V232H114.617V231.04L115.145 230.88V232H116.297V232.512ZM122.361 233.096C122.633 233.213 122.849 233.392 123.009 233.632C123.175 233.867 123.257 234.136 123.257 234.44C123.257 234.872 123.105 235.24 122.801 235.544C122.497 235.848 122.129 236 121.697 236H119.257V230.4H121.513C121.929 230.4 122.284 230.549 122.577 230.848C122.871 231.141 123.017 231.493 123.017 231.904C123.017 232.427 122.799 232.824 122.361 233.096ZM121.513 230.928H119.817V232.88H121.513C121.775 232.88 121.996 232.787 122.177 232.6C122.364 232.408 122.457 232.176 122.457 231.904C122.457 231.637 122.364 231.408 122.177 231.216C121.996 231.024 121.775 230.928 121.513 230.928ZM121.697 235.472C121.975 235.472 122.209 235.373 122.401 235.176C122.599 234.973 122.697 234.728 122.697 234.44C122.697 234.157 122.599 233.915 122.401 233.712C122.209 233.509 121.975 233.408 121.697 233.408H119.817V235.472H121.697ZM127.578 232H128.106V236H127.578V235.216C127.21 235.803 126.671 236.096 125.962 236.096C125.391 236.096 124.903 235.893 124.498 235.488C124.098 235.083 123.898 234.587 123.898 234C123.898 233.413 124.098 232.917 124.498 232.512C124.903 232.107 125.391 231.904 125.962 231.904C126.671 231.904 127.21 232.197 127.578 232.784V232ZM124.882 235.128C125.186 235.432 125.559 235.584 126.002 235.584C126.445 235.584 126.818 235.432 127.122 235.128C127.426 234.819 127.578 234.443 127.578 234C127.578 233.557 127.426 233.184 127.122 232.88C126.818 232.571 126.445 232.416 126.002 232.416C125.559 232.416 125.186 232.571 124.882 232.88C124.578 233.184 124.426 233.557 124.426 234C124.426 234.443 124.578 234.819 124.882 235.128ZM129.224 236V230.16H129.752V236H129.224ZM134.312 232H134.841V236H134.312V235.216C133.945 235.803 133.406 236.096 132.697 236.096C132.126 236.096 131.638 235.893 131.233 235.488C130.833 235.083 130.633 234.587 130.633 234C130.633 233.413 130.833 232.917 131.233 232.512C131.638 232.107 132.126 231.904 132.697 231.904C133.406 231.904 133.945 232.197 134.312 232.784V232ZM131.617 235.128C131.921 235.432 132.294 235.584 132.737 235.584C133.179 235.584 133.553 235.432 133.857 235.128C134.161 234.819 134.312 234.443 134.312 234C134.312 233.557 134.161 233.184 133.857 232.88C133.553 232.571 133.179 232.416 132.737 232.416C132.294 232.416 131.921 232.571 131.617 232.88C131.313 233.184 131.161 233.557 131.161 234C131.161 234.443 131.313 234.819 131.617 235.128ZM137.83 231.904C138.316 231.904 138.697 232.053 138.974 232.352C139.257 232.645 139.398 233.043 139.398 233.544V236H138.87V233.544C138.87 233.187 138.774 232.909 138.582 232.712C138.396 232.515 138.129 232.416 137.782 232.416C137.398 232.416 137.086 232.539 136.846 232.784C136.606 233.024 136.486 233.397 136.486 233.904V236H135.958V232H136.486V232.624C136.785 232.144 137.233 231.904 137.83 231.904ZM142.283 236.096C141.681 236.096 141.179 235.896 140.779 235.496C140.379 235.091 140.179 234.592 140.179 234C140.179 233.408 140.379 232.912 140.779 232.512C141.179 232.107 141.681 231.904 142.283 231.904C142.678 231.904 143.033 232 143.347 232.192C143.662 232.379 143.891 232.632 144.035 232.952L143.603 233.2C143.497 232.96 143.323 232.771 143.083 232.632C142.849 232.488 142.582 232.416 142.283 232.416C141.841 232.416 141.467 232.571 141.163 232.88C140.859 233.184 140.707 233.557 140.707 234C140.707 234.443 140.859 234.819 141.163 235.128C141.467 235.432 141.841 235.584 142.283 235.584C142.582 235.584 142.849 235.515 143.083 235.376C143.318 235.232 143.502 235.04 143.635 234.8L144.075 235.056C143.91 235.376 143.667 235.629 143.347 235.816C143.027 236.003 142.673 236.096 142.283 236.096ZM146.642 231.904C147.234 231.904 147.712 232.115 148.074 232.536C148.442 232.952 148.626 233.445 148.626 234.016C148.626 234.075 148.621 234.157 148.61 234.264H145.098C145.152 234.669 145.322 234.992 145.61 235.232C145.904 235.467 146.264 235.584 146.69 235.584C146.994 235.584 147.256 235.523 147.474 235.4C147.698 235.272 147.866 235.107 147.978 234.904L148.442 235.176C148.266 235.459 148.026 235.683 147.722 235.848C147.418 236.013 147.072 236.096 146.682 236.096C146.053 236.096 145.541 235.899 145.146 235.504C144.752 235.109 144.554 234.608 144.554 234C144.554 233.403 144.749 232.904 145.138 232.504C145.528 232.104 146.029 231.904 146.642 231.904ZM146.642 232.416C146.226 232.416 145.877 232.541 145.594 232.792C145.317 233.037 145.152 233.357 145.098 233.752H148.082C148.029 233.331 147.866 233.003 147.594 232.768C147.322 232.533 147.005 232.416 146.642 232.416ZM152.138 232.672C152.053 232.757 151.949 232.8 151.826 232.8C151.704 232.8 151.6 232.757 151.514 232.672C151.429 232.587 151.386 232.483 151.386 232.36C151.386 232.237 151.429 232.133 151.514 232.048C151.6 231.963 151.704 231.92 151.826 231.92C151.949 231.92 152.053 231.963 152.138 232.048C152.224 232.133 152.266 232.237 152.266 232.36C152.266 232.483 152.224 232.587 152.138 232.672ZM152.138 235.952C152.053 236.037 151.949 236.08 151.826 236.08C151.704 236.08 151.6 236.037 151.514 235.952C151.429 235.867 151.386 235.763 151.386 235.64C151.386 235.517 151.429 235.413 151.514 235.328C151.6 235.243 151.704 235.2 151.826 235.2C151.949 235.2 152.053 235.243 152.138 235.328C152.224 235.413 152.266 235.517 152.266 235.64C152.266 235.763 152.224 235.867 152.138 235.952Z" fill="#1E1E1E"/>
<path d="M156.894 236L155.382 233.36V233.008H155.558C155.841 233.008 156.078 232.981 156.27 232.928C156.467 232.875 156.622 232.787 156.734 232.664C156.846 232.541 156.913 232.373 156.934 232.16H155.382V231.648H156.926C156.889 231.451 156.814 231.291 156.702 231.168C156.59 231.04 156.438 230.947 156.246 230.888C156.059 230.829 155.83 230.8 155.558 230.8H155.382V230.288H158.694V230.8H157.182C157.305 230.901 157.406 231.021 157.486 231.16C157.566 231.299 157.617 231.461 157.638 231.648H158.694V232.16H157.654C157.617 232.549 157.467 232.853 157.206 233.072C156.95 233.285 156.609 233.421 156.182 233.48L157.71 236H156.894ZM160.928 230.4H161.408V236H160.848V231.016L159.592 231.392L159.448 230.912L160.928 230.4ZM164.167 232.656C164.69 232.656 165.132 232.811 165.495 233.12C165.863 233.424 166.047 233.843 166.047 234.376C166.047 234.909 165.863 235.331 165.495 235.64C165.132 235.944 164.69 236.096 164.167 236.096C163.746 236.096 163.37 235.995 163.039 235.792C162.708 235.584 162.484 235.288 162.367 234.904L162.839 234.632C162.919 234.931 163.076 235.16 163.311 235.32C163.551 235.475 163.836 235.552 164.167 235.552C164.551 235.552 164.866 235.451 165.111 235.248C165.362 235.04 165.487 234.749 165.487 234.376C165.487 234.003 165.362 233.715 165.111 233.512C164.866 233.304 164.551 233.2 164.167 233.2H162.647L162.847 230.4H165.847V230.928H163.343L163.223 232.656H164.167ZM167.651 235.32L167.171 237.12H166.691L167.011 235.32H167.651ZM172.573 234.352V234.88H171.853V236H171.293V234.88H168.333V234.352L170.413 230.4H171.029L168.949 234.352H171.293V232.64H171.853V234.352H172.573ZM176.853 235.312C176.485 235.835 175.965 236.096 175.293 236.096C174.621 236.096 174.099 235.835 173.725 235.312C173.357 234.784 173.173 234.08 173.173 233.2C173.173 232.32 173.357 231.619 173.725 231.096C174.099 230.568 174.621 230.304 175.293 230.304C175.965 230.304 176.485 230.568 176.853 231.096C177.227 231.619 177.413 232.32 177.413 233.2C177.413 234.08 177.227 234.784 176.853 235.312ZM174.141 234.936C174.419 235.347 174.803 235.552 175.293 235.552C175.784 235.552 176.165 235.347 176.437 234.936C176.715 234.525 176.853 233.947 176.853 233.2C176.853 232.453 176.715 231.875 176.437 231.464C176.165 231.053 175.784 230.848 175.293 230.848C174.803 230.848 174.419 231.053 174.141 231.464C173.869 231.875 173.733 232.453 173.733 233.2C173.733 233.947 173.869 234.525 174.141 234.936ZM181.893 235.312C181.525 235.835 181.005 236.096 180.333 236.096C179.661 236.096 179.138 235.835 178.765 235.312C178.397 234.784 178.213 234.08 178.213 233.2C178.213 232.32 178.397 231.619 178.765 231.096C179.138 230.568 179.661 230.304 180.333 230.304C181.005 230.304 181.525 230.568 181.893 231.096C182.266 231.619 182.453 232.32 182.453 233.2C182.453 234.08 182.266 234.784 181.893 235.312ZM179.181 234.936C179.458 235.347 179.842 235.552 180.333 235.552C180.823 235.552 181.205 235.347 181.477 234.936C181.754 234.525 181.893 233.947 181.893 233.2C181.893 232.453 181.754 231.875 181.477 231.464C181.205 231.053 180.823 230.848 180.333 230.848C179.842 230.848 179.458 231.053 179.181 231.464C178.909 231.875 178.773 232.453 178.773 233.2C178.773 233.947 178.909 234.525 179.181 234.936ZM183.841 235.952C183.756 236.037 183.652 236.08 183.529 236.08C183.407 236.08 183.303 236.037 183.217 235.952C183.132 235.867 183.089 235.763 183.089 235.64C183.089 235.517 183.132 235.413 183.217 235.328C183.303 235.243 183.407 235.2 183.529 235.2C183.652 235.2 183.756 235.243 183.841 235.328C183.927 235.413 183.969 235.517 183.969 235.64C183.969 235.763 183.927 235.867 183.841 235.952ZM188.291 235.312C187.923 235.835 187.403 236.096 186.731 236.096C186.059 236.096 185.536 235.835 185.163 235.312C184.795 234.784 184.611 234.08 184.611 233.2C184.611 232.32 184.795 231.619 185.163 231.096C185.536 230.568 186.059 230.304 186.731 230.304C187.403 230.304 187.923 230.568 188.291 231.096C188.664 231.619 188.851 232.32 188.851 233.2C188.851 234.08 188.664 234.784 188.291 235.312ZM185.579 234.936C185.856 235.347 186.24 235.552 186.731 235.552C187.222 235.552 187.603 235.347 187.875 234.936C188.152 234.525 188.291 233.947 188.291 233.2C188.291 232.453 188.152 231.875 187.875 231.464C187.603 231.053 187.222 230.848 186.731 230.848C186.24 230.848 185.856 231.053 185.579 231.464C185.307 231.875 185.171 232.453 185.171 233.2C185.171 233.947 185.307 234.525 185.579 234.936ZM193.33 235.312C192.962 235.835 192.442 236.096 191.77 236.096C191.098 236.096 190.575 235.835 190.202 235.312C189.834 234.784 189.65 234.08 189.65 233.2C189.65 232.32 189.834 231.619 190.202 231.096C190.575 230.568 191.098 230.304 191.77 230.304C192.442 230.304 192.962 230.568 193.33 231.096C193.703 231.619 193.89 232.32 193.89 233.2C193.89 234.08 193.703 234.784 193.33 235.312ZM190.618 234.936C190.895 235.347 191.279 235.552 191.77 235.552C192.261 235.552 192.642 235.347 192.914 234.936C193.191 234.525 193.33 233.947 193.33 233.2C193.33 232.453 193.191 231.875 192.914 231.464C192.642 231.053 192.261 230.848 191.77 230.848C191.279 230.848 190.895 231.053 190.618 231.464C190.346 231.875 190.21 232.453 190.21 233.2C190.21 233.947 190.346 234.525 190.618 234.936Z" fill="#16A34A"/>
<path d="M314.18 314L312.29 310.7V310.26H312.51C312.863 310.26 313.16 310.227 313.4 310.16C313.647 310.093 313.84 309.983 313.98 309.83C314.12 309.677 314.203 309.467 314.23 309.2H312.29V308.56H314.22C314.173 308.313 314.08 308.113 313.94 307.96C313.8 307.8 313.61 307.683 313.37 307.61C313.137 307.537 312.85 307.5 312.51 307.5H312.29V306.86H316.43V307.5H314.54C314.693 307.627 314.82 307.777 314.92 307.95C315.02 308.123 315.083 308.327 315.11 308.56H316.43V309.2H315.13C315.083 309.687 314.897 310.067 314.57 310.34C314.25 310.607 313.823 310.777 313.29 310.85L315.2 314H314.18ZM319.173 307H320.373V314H318.993V308.46L317.673 308.83L317.333 307.65L319.173 307ZM323.89 309.55C324.563 309.55 325.13 309.753 325.59 310.16C326.05 310.56 326.28 311.12 326.28 311.84C326.28 312.56 326.037 313.123 325.55 313.53C325.07 313.937 324.48 314.14 323.78 314.14C323.213 314.14 322.713 314.013 322.28 313.76C321.847 313.507 321.533 313.133 321.34 312.64L322.52 311.95C322.693 312.51 323.113 312.79 323.78 312.79C324.133 312.79 324.407 312.707 324.6 312.54C324.8 312.367 324.9 312.133 324.9 311.84C324.9 311.553 324.803 311.323 324.61 311.15C324.417 310.977 324.153 310.89 323.82 310.89H321.7L321.98 307H325.95V308.29H323.26L323.17 309.55H323.89ZM328.663 312.62L327.913 315.4H326.863L327.263 312.62H328.663ZM334.816 311.53V312.81H334.066V314H332.676V312.81H329.366V311.53L331.696 307H333.176L330.856 311.53H332.676V309.87H334.066V311.53H334.816ZM338.107 314.14C337.234 314.14 336.547 313.81 336.047 313.15C335.554 312.483 335.307 311.6 335.307 310.5C335.307 309.4 335.554 308.52 336.047 307.86C336.547 307.193 337.234 306.86 338.107 306.86C338.987 306.86 339.674 307.193 340.167 307.86C340.66 308.52 340.907 309.4 340.907 310.5C340.907 311.6 340.66 312.483 340.167 313.15C339.674 313.81 338.987 314.14 338.107 314.14ZM337.047 312.21C337.287 312.597 337.64 312.79 338.107 312.79C338.574 312.79 338.927 312.593 339.167 312.2C339.414 311.807 339.537 311.24 339.537 310.5C339.537 309.753 339.414 309.183 339.167 308.79C338.927 308.397 338.574 308.2 338.107 308.2C337.64 308.2 337.287 308.397 337.047 308.79C336.807 309.183 336.687 309.753 336.687 310.5C336.687 311.247 336.807 311.817 337.047 312.21ZM344.406 314.14C343.533 314.14 342.846 313.81 342.346 313.15C341.853 312.483 341.606 311.6 341.606 310.5C341.606 309.4 341.853 308.52 342.346 307.86C342.846 307.193 343.533 306.86 344.406 306.86C345.286 306.86 345.973 307.193 346.466 307.86C346.959 308.52 347.206 309.4 347.206 310.5C347.206 311.6 346.959 312.483 346.466 313.15C345.973 313.81 345.286 314.14 344.406 314.14ZM343.346 312.21C343.586 312.597 343.939 312.79 344.406 312.79C344.873 312.79 345.226 312.593 345.466 312.2C345.713 311.807 345.836 311.24 345.836 310.5C345.836 309.753 345.713 309.183 345.466 308.79C345.226 308.397 344.873 308.2 344.406 308.2C343.939 308.2 343.586 308.397 343.346 308.79C343.106 309.183 342.986 309.753 342.986 310.5C342.986 311.247 343.106 311.817 343.346 312.21Z" fill="#1E1E1E"/>
<rect x="24" y="249" width="345" height="33" rx="5" fill="#F4F4F4"/>
<path d="M38.3 263H39V270H38.4L34.5 264.3V270H33.8V263H34.4L38.3 268.7V263ZM44.7969 265H45.4569V270H44.7969V269.02C44.3369 269.753 43.6635 270.12 42.7769 270.12C42.0635 270.12 41.4535 269.867 40.9469 269.36C40.4469 268.853 40.1969 268.233 40.1969 267.5C40.1969 266.767 40.4469 266.147 40.9469 265.64C41.4535 265.133 42.0635 264.88 42.7769 264.88C43.6635 264.88 44.3369 265.247 44.7969 265.98V265ZM41.4269 268.91C41.8069 269.29 42.2735 269.48 42.8269 269.48C43.3802 269.48 43.8469 269.29 44.2269 268.91C44.6069 268.523 44.7969 268.053 44.7969 267.5C44.7969 266.947 44.6069 266.48 44.2269 266.1C43.8469 265.713 43.3802 265.52 42.8269 265.52C42.2735 265.52 41.8069 265.713 41.4269 266.1C41.0469 266.48 40.8569 266.947 40.8569 267.5C40.8569 268.053 41.0469 268.523 41.4269 268.91ZM52.1843 264.88C52.7443 264.88 53.1943 265.06 53.5343 265.42C53.881 265.78 54.0543 266.267 54.0543 266.88V270H53.3943V266.88C53.3943 266.447 53.281 266.113 53.0543 265.88C52.8343 265.64 52.541 265.52 52.1743 265.52C51.761 265.52 51.4243 265.66 51.1643 265.94C50.911 266.213 50.7843 266.643 50.7843 267.23V270H50.1243V266.88C50.1243 266.44 50.0176 266.103 49.8043 265.87C49.5976 265.637 49.3143 265.52 48.9543 265.52C48.5543 265.52 48.2143 265.66 47.9343 265.94C47.6543 266.22 47.5143 266.65 47.5143 267.23V270H46.8543V265H47.5143V265.73C47.8743 265.163 48.3843 264.88 49.0443 264.88C49.7643 264.88 50.271 265.183 50.5643 265.79C50.9243 265.183 51.4643 264.88 52.1843 264.88ZM57.6409 264.88C58.3809 264.88 58.9775 265.143 59.4309 265.67C59.8909 266.19 60.1209 266.807 60.1209 267.52C60.1209 267.593 60.1142 267.697 60.1009 267.83H55.7109C55.7775 268.337 55.9909 268.74 56.3509 269.04C56.7175 269.333 57.1675 269.48 57.7009 269.48C58.0809 269.48 58.4075 269.403 58.6809 269.25C58.9609 269.09 59.1709 268.883 59.3109 268.63L59.8909 268.97C59.6709 269.323 59.3709 269.603 58.9909 269.81C58.6109 270.017 58.1775 270.12 57.6909 270.12C56.9042 270.12 56.2642 269.873 55.7709 269.38C55.2775 268.887 55.0309 268.26 55.0309 267.5C55.0309 266.753 55.2742 266.13 55.7609 265.63C56.2475 265.13 56.8742 264.88 57.6409 264.88ZM57.6409 265.52C57.1209 265.52 56.6842 265.677 56.3309 265.99C55.9842 266.297 55.7775 266.697 55.7109 267.19H59.4409C59.3742 266.663 59.1709 266.253 58.8309 265.96C58.4909 265.667 58.0942 265.52 57.6409 265.52Z" fill="#1E1E1E" fill-opacity="0.75"/>
<path d="M318.5 263C319.453 263 320.24 263.34 320.86 264.02C321.487 264.693 321.8 265.52 321.8 266.5C321.8 267.48 321.487 268.31 320.86 268.99C320.24 269.663 319.453 270 318.5 270H315.8V263H318.5ZM318.5 269.34C319.267 269.34 319.893 269.067 320.38 268.52C320.873 267.973 321.12 267.3 321.12 266.5C321.12 265.7 320.873 265.027 320.38 264.48C319.893 263.933 319.267 263.66 318.5 263.66H316.5V269.34H318.5ZM326.466 265H327.126V270H326.466V269.22C326.093 269.82 325.533 270.12 324.786 270.12C324.179 270.12 323.699 269.937 323.346 269.57C322.999 269.197 322.826 268.697 322.826 268.07V265H323.486V268.07C323.486 268.517 323.603 268.863 323.836 269.11C324.076 269.357 324.413 269.48 324.846 269.48C325.326 269.48 325.716 269.33 326.016 269.03C326.316 268.723 326.466 268.253 326.466 267.62V265ZM330.832 264.88C331.572 264.88 332.169 265.143 332.622 265.67C333.082 266.19 333.312 266.807 333.312 267.52C333.312 267.593 333.306 267.697 333.292 267.83H328.902C328.969 268.337 329.182 268.74 329.542 269.04C329.909 269.333 330.359 269.48 330.892 269.48C331.272 269.48 331.599 269.403 331.872 269.25C332.152 269.09 332.362 268.883 332.502 268.63L333.082 268.97C332.862 269.323 332.562 269.603 332.182 269.81C331.802 270.017 331.369 270.12 330.882 270.12C330.096 270.12 329.456 269.873 328.962 269.38C328.469 268.887 328.222 268.26 328.222 267.5C328.222 266.753 328.466 266.13 328.952 265.63C329.439 265.13 330.066 264.88 330.832 264.88ZM330.832 265.52C330.312 265.52 329.876 265.677 329.522 265.99C329.176 266.297 328.969 266.697 328.902 267.19H332.632C332.566 266.663 332.362 266.253 332.022 265.96C331.682 265.667 331.286 265.52 330.832 265.52Z" fill="#1E1E1E" fill-opacity="0.75"/>
<path d="M49.25 326.188H36.75C36.5014 326.188 36.2629 326.089 36.0871 325.913C35.9113 325.737 35.8125 325.499 35.8125 325.25V312.75C35.8125 312.231 36.2313 311.812 36.75 311.812H49.25C49.7675 311.812 50.1875 312.231 50.1875 312.75V325.25C50.1875 325.499 50.0887 325.737 49.9129 325.913C49.7371 326.089 49.4986 326.188 49.25 326.188ZM37.6875 324.312H48.3125V313.688H37.6875V324.312Z" fill="black"/>
<path d="M63.016 313.944H66.916V315H61.9V306.6H66.856V307.656H63.016V310.236H66.556V311.28H63.016V313.944ZM72.9944 309H74.0384V315H72.9944V313.968C72.4744 314.76 71.7184 315.156 70.7264 315.156C69.8864 315.156 69.1704 314.852 68.5784 314.244C67.9864 313.628 67.6904 312.88 67.6904 312C67.6904 311.12 67.9864 310.376 68.5784 309.768C69.1704 309.152 69.8864 308.844 70.7264 308.844C71.7184 308.844 72.4744 309.24 72.9944 310.032V309ZM70.8584 314.148C71.4664 314.148 71.9744 313.944 72.3824 313.536C72.7904 313.12 72.9944 312.608 72.9944 312C72.9944 311.392 72.7904 310.884 72.3824 310.476C71.9744 310.06 71.4664 309.852 70.8584 309.852C70.2584 309.852 69.7544 310.06 69.3464 310.476C68.9384 310.884 68.7344 311.392 68.7344 312C68.7344 312.608 68.9384 313.12 69.3464 313.536C69.7544 313.944 70.2584 314.148 70.8584 314.148ZM76.5084 310.62C76.5084 310.852 76.6244 311.04 76.8564 311.184C77.0884 311.32 77.3684 311.432 77.6964 311.52C78.0244 311.6 78.3524 311.696 78.6804 311.808C79.0084 311.912 79.2884 312.096 79.5204 312.36C79.7524 312.616 79.8684 312.948 79.8684 313.356C79.8684 313.9 79.6564 314.336 79.2324 314.664C78.8164 314.992 78.2804 315.156 77.6244 315.156C77.0404 315.156 76.5404 315.028 76.1244 314.772C75.7084 314.516 75.4124 314.176 75.2364 313.752L76.1364 313.236C76.2324 313.524 76.4124 313.752 76.6764 313.92C76.9404 314.088 77.2564 314.172 77.6244 314.172C77.9684 314.172 78.2524 314.108 78.4764 313.98C78.7004 313.844 78.8124 313.636 78.8124 313.356C78.8124 313.124 78.6964 312.94 78.4644 312.804C78.2324 312.66 77.9524 312.548 77.6244 312.468C77.2964 312.38 76.9684 312.28 76.6404 312.168C76.3124 312.056 76.0324 311.872 75.8004 311.616C75.5684 311.36 75.4524 311.032 75.4524 310.632C75.4524 310.112 75.6524 309.684 76.0524 309.348C76.4604 309.012 76.9684 308.844 77.5764 308.844C78.0644 308.844 78.4964 308.956 78.8724 309.18C79.2564 309.396 79.5444 309.7 79.7364 310.092L78.8604 310.584C78.6444 310.072 78.2164 309.816 77.5764 309.816C77.2804 309.816 77.0284 309.888 76.8204 310.032C76.6124 310.168 76.5084 310.364 76.5084 310.62ZM84.1341 310.008H82.5381V313.26C82.5381 313.556 82.5941 313.768 82.7061 313.896C82.8261 314.016 83.0061 314.08 83.2461 314.088C83.4861 314.088 83.7821 314.08 84.1341 314.064V315C83.2221 315.12 82.5541 315.048 82.1301 314.784C81.7061 314.512 81.4941 314.004 81.4941 313.26V310.008H80.3061V309H81.4941V307.632L82.5381 307.32V309H84.1341V310.008ZM93.4933 315L91.6093 311.784H89.6293V315H88.5133V306.6H91.8733C92.5933 306.6 93.2093 306.856 93.7213 307.368C94.2333 307.872 94.4893 308.484 94.4893 309.204C94.4893 309.748 94.3253 310.244 93.9973 310.692C93.6773 311.14 93.2613 311.456 92.7493 311.64L94.7293 315H93.4933ZM89.6293 307.644V310.776H91.8733C92.2893 310.776 92.6413 310.624 92.9293 310.32C93.2253 310.008 93.3733 309.636 93.3733 309.204C93.3733 308.772 93.2253 308.404 92.9293 308.1C92.6413 307.796 92.2893 307.644 91.8733 307.644H89.6293ZM96.1685 312.48C96.2725 313.016 96.5165 313.432 96.9005 313.728C97.2925 314.024 97.7725 314.172 98.3405 314.172C99.1325 314.172 99.7085 313.88 100.069 313.296L100.957 313.8C100.373 314.704 99.4925 315.156 98.3165 315.156C97.3645 315.156 96.5885 314.86 95.9885 314.268C95.3965 313.668 95.1005 312.912 95.1005 312C95.1005 311.096 95.3925 310.344 95.9765 309.744C96.5605 309.144 97.3165 308.844 98.2445 308.844C99.1245 308.844 99.8405 309.156 100.393 309.78C100.953 310.396 101.233 311.14 101.233 312.012C101.233 312.164 101.221 312.32 101.197 312.48H96.1685ZM98.2445 309.828C97.6845 309.828 97.2205 309.988 96.8525 310.308C96.4845 310.62 96.2565 311.04 96.1685 311.568H100.177C100.089 311 99.8645 310.568 99.5045 310.272C99.1445 309.976 98.7245 309.828 98.2445 309.828ZM105.745 308.844C106.585 308.844 107.301 309.152 107.893 309.768C108.485 310.376 108.781 311.12 108.781 312C108.781 312.88 108.485 313.628 107.893 314.244C107.301 314.852 106.585 315.156 105.745 315.156C104.753 315.156 103.997 314.76 103.477 313.968V317.4H102.433V309H103.477V310.032C103.997 309.24 104.753 308.844 105.745 308.844ZM105.613 314.148C106.213 314.148 106.717 313.944 107.125 313.536C107.533 313.12 107.737 312.608 107.737 312C107.737 311.392 107.533 310.884 107.125 310.476C106.717 310.06 106.213 309.852 105.613 309.852C105.005 309.852 104.497 310.06 104.089 310.476C103.681 310.884 103.477 311.392 103.477 312C103.477 312.608 103.681 313.12 104.089 313.536C104.497 313.944 105.005 314.148 105.613 314.148ZM114.994 309H116.038V315H114.994V313.968C114.474 314.76 113.718 315.156 112.726 315.156C111.886 315.156 111.17 314.852 110.578 314.244C109.986 313.628 109.69 312.88 109.69 312C109.69 311.12 109.986 310.376 110.578 309.768C111.17 309.152 111.886 308.844 112.726 308.844C113.718 308.844 114.474 309.24 114.994 310.032V309ZM112.858 314.148C113.466 314.148 113.974 313.944 114.382 313.536C114.79 313.12 114.994 312.608 114.994 312C114.994 311.392 114.79 310.884 114.382 310.476C113.974 310.06 113.466 309.852 112.858 309.852C112.258 309.852 111.754 310.06 111.346 310.476C110.938 310.884 110.734 311.392 110.734 312C110.734 312.608 110.938 313.12 111.346 313.536C111.754 313.944 112.258 314.148 112.858 314.148ZM118.148 307.908C117.948 307.908 117.78 307.84 117.644 307.704C117.508 307.568 117.44 307.404 117.44 307.212C117.44 307.02 117.508 306.856 117.644 306.72C117.78 306.576 117.948 306.504 118.148 306.504C118.34 306.504 118.504 306.576 118.64 306.72C118.776 306.856 118.844 307.02 118.844 307.212C118.844 307.404 118.776 307.568 118.64 307.704C118.504 307.84 118.34 307.908 118.148 307.908ZM117.62 315V309H118.664V315H117.62ZM121.301 310.008C121.645 309.264 122.269 308.892 123.173 308.892V309.984C122.661 309.96 122.221 310.096 121.853 310.392C121.485 310.688 121.301 311.164 121.301 311.82V315H120.257V309H121.301V310.008ZM127.302 306.6H128.418V315H127.302V306.6ZM133.1 308.844C133.804 308.844 134.368 309.068 134.792 309.516C135.216 309.956 135.428 310.556 135.428 311.316V315H134.384V311.376C134.384 310.888 134.252 310.512 133.988 310.248C133.724 309.976 133.36 309.84 132.896 309.84C132.376 309.84 131.956 310.004 131.636 310.332C131.316 310.652 131.156 311.148 131.156 311.82V315H130.112V309H131.156V309.864C131.58 309.184 132.228 308.844 133.1 308.844ZM139.706 315.156C138.802 315.156 138.05 314.856 137.45 314.256C136.85 313.648 136.55 312.896 136.55 312C136.55 311.104 136.85 310.356 137.45 309.756C138.05 309.148 138.802 308.844 139.706 308.844C140.298 308.844 140.83 308.988 141.302 309.276C141.774 309.556 142.126 309.936 142.358 310.416L141.482 310.92C141.33 310.6 141.094 310.344 140.774 310.152C140.462 309.96 140.106 309.864 139.706 309.864C139.106 309.864 138.602 310.068 138.194 310.476C137.794 310.884 137.594 311.392 137.594 312C137.594 312.6 137.794 313.104 138.194 313.512C138.602 313.92 139.106 314.124 139.706 314.124C140.106 314.124 140.466 314.032 140.786 313.848C141.106 313.656 141.35 313.4 141.518 313.08L142.406 313.596C142.15 314.068 141.782 314.448 141.302 314.736C140.822 315.016 140.29 315.156 139.706 315.156Z" fill="#1E1E1E"/>
<rect x="61" y="325.045" width="112.65" height="6.96804" rx="3.48402" fill="#ECECEC"/>
<rect x="61" y="341.303" width="112.65" height="6.96804" rx="3.48402" fill="#ECECEC"/>
<rect x="61" y="357.562" width="112.65" height="6.96804" rx="3.48402" fill="#ECECEC"/>
<rect x="30" y="78" width="23" height="23" rx="5" fill="#A5EB14"/>
<rect x="213" y="78" width="23" height="23" rx="5" fill="#A5EB14"/>
<rect x="30" y="125" width="23" height="23" rx="5" fill="#A5EB14"/>
<rect x="213" y="125" width="23" height="23" rx="5" fill="#A5EB14"/>
</svg>
