<svg width="391" height="449" viewBox="0 0 391 449" fill="none" xmlns="http://www.w3.org/2000/svg">
<circle cx="195.313" cy="225.428" r="193.813" stroke="black" stroke-width="3" stroke-dasharray="5 5"/>
<rect x="65" y="37" width="53.3455" height="53.3455" rx="26.6728" fill="white"/>
<rect x="65.5" y="37.5" width="52.3455" height="52.3455" rx="26.1728" stroke="#0A0C33" stroke-opacity="0.25"/>
<rect x="65" y="360" width="53.3455" height="53.3455" rx="26.6728" fill="white"/>
<rect x="65.5" y="360.5" width="52.3455" height="52.3455" rx="26.1728" stroke="#0A0C33" stroke-opacity="0.25"/>
<rect x="169.5" width="53.3455" height="53.3455" rx="26.6728" fill="white"/>
<rect x="170" y="0.5" width="52.3455" height="52.3455" rx="26.1728" stroke="#0A0C33" stroke-opacity="0.25"/>
<rect x="170" y="395" width="53.3455" height="53.3455" rx="26.6728" fill="white"/>
<rect x="170.5" y="395.5" width="52.3455" height="52.3455" rx="26.1728" stroke="#0A0C33" stroke-opacity="0.25"/>
<rect x="274" y="37" width="53.3455" height="53.3455" rx="26.6728" fill="white"/>
<rect x="274.5" y="37.5" width="52.3455" height="52.3455" rx="26.1728" stroke="#0A0C33" stroke-opacity="0.25"/>
<rect x="274" y="360" width="53.3455" height="53.3455" rx="26.6728" fill="white"/>
<rect x="274.5" y="360.5" width="52.3455" height="52.3455" rx="26.1728" stroke="#0A0C33" stroke-opacity="0.25"/>
<circle cx="91.3364" cy="63.3364" r="13.3364" fill="#A5EB14"/>
<circle cx="195.743" cy="26.2426" r="13.3364" fill="#A5EB14"/>
<circle cx="301.336" cy="63.3364" r="13.3364" fill="#A5EB14"/>
<circle cx="301.336" cy="386.336" r="13.3364" fill="#A5EB14"/>
<circle cx="196.336" cy="421.336" r="13.3364" fill="#A5EB14"/>
<circle cx="91.3364" cy="386.336" r="13.3364" fill="#A5EB14"/>
<rect x="8.60352" y="132.503" width="150.572" height="186.709" rx="10" fill="white"/>
<rect x="9.10352" y="133.003" width="149.572" height="185.709" rx="9.5" stroke="#0A0C33" stroke-opacity="0.1"/>
<rect x="173.803" y="132.503" width="209.08" height="62.81" rx="10" fill="white"/>
<rect x="174.303" y="133.003" width="208.08" height="61.81" rx="9.5" stroke="#0A0C33" stroke-opacity="0.1"/>
<rect x="173.803" y="213.382" width="168.641" height="102.389" rx="10" fill="white"/>
<rect x="174.303" y="213.882" width="167.641" height="101.389" rx="9.5" stroke="#0A0C33" stroke-opacity="0.1"/>
<path fill-rule="evenodd" clip-rule="evenodd" d="M21.1506 170.49C20.8237 170.49 20.5102 170.62 20.279 170.851C20.0478 171.082 19.918 171.395 19.918 171.722V180.351C19.918 180.678 20.0478 180.991 20.279 181.222C20.5102 181.453 20.8237 181.583 21.1506 181.583H29.7794C30.1063 181.583 30.4199 181.453 30.651 181.222C30.8822 180.991 31.0121 180.678 31.0121 180.351V171.722C31.0121 171.395 30.8822 171.082 30.651 170.851C30.4199 170.62 30.1063 170.49 29.7794 170.49H21.1506ZM28.5159 174.678C28.6316 174.563 28.6966 174.406 28.6966 174.242C28.6967 174.079 28.6318 173.922 28.5162 173.806C28.4006 173.691 28.2439 173.626 28.0804 173.626C27.9169 173.626 27.76 173.691 27.6444 173.806L24.5935 176.857L23.2863 175.55C23.229 175.492 23.1611 175.447 23.0863 175.416C23.0115 175.385 22.9314 175.369 22.8504 175.369C22.6869 175.369 22.5301 175.434 22.4145 175.549C22.2988 175.665 22.2338 175.822 22.2337 175.985C22.2337 176.149 22.2986 176.305 22.4141 176.421L24.114 178.121C24.177 178.184 24.2517 178.234 24.334 178.268C24.4163 178.302 24.5045 178.32 24.5935 178.32C24.6826 178.32 24.7708 178.302 24.853 178.268C24.9353 178.234 25.0101 178.184 25.073 178.121L28.5159 174.678Z" fill="#0A0C33"/>
<rect x="45.2656" y="173.85" width="69.6463" height="5.54677" rx="2.77338" fill="#ECECEC"/>
<path fill-rule="evenodd" clip-rule="evenodd" d="M21.1506 194.582C20.8237 194.582 20.5102 194.711 20.279 194.943C20.0478 195.174 19.918 195.487 19.918 195.814V204.443C19.918 204.769 20.0478 205.083 20.279 205.314C20.5102 205.545 20.8237 205.675 21.1506 205.675H29.7792C30.1061 205.675 30.4196 205.545 30.6508 205.314C30.882 205.083 31.0118 204.769 31.0118 204.443V195.814C31.0118 195.487 30.882 195.174 30.6508 194.943C30.4196 194.711 30.1061 194.582 29.7792 194.582H21.1506ZM28.5157 198.77C28.6314 198.654 28.6964 198.498 28.6964 198.334C28.6965 198.171 28.6316 198.014 28.516 197.898C28.4005 197.783 28.2437 197.718 28.0802 197.718C27.9167 197.717 27.7599 197.782 27.6442 197.898L24.5934 200.949L23.2862 199.641C23.229 199.584 23.161 199.539 23.0862 199.508C23.0115 199.477 22.9313 199.461 22.8504 199.461C22.6869 199.461 22.53 199.526 22.4144 199.641C22.2987 199.757 22.2337 199.914 22.2337 200.077C22.2336 200.24 22.2985 200.397 22.4141 200.513L24.1139 202.213C24.1769 202.276 24.2516 202.326 24.3339 202.36C24.4162 202.394 24.5044 202.411 24.5934 202.411C24.6825 202.411 24.7707 202.394 24.8529 202.36C24.9352 202.326 25.01 202.276 25.0729 202.213L28.5157 198.77Z" fill="#0A0C33"/>
<rect x="45.2656" y="197.663" width="89.9835" height="5.54683" rx="2.77341" fill="#ECECEC"/>
<path fill-rule="evenodd" clip-rule="evenodd" d="M21.1507 218.673C20.8237 218.673 20.5102 218.803 20.279 219.034C20.0478 219.265 19.918 219.579 19.918 219.905V228.534C19.918 228.861 20.0478 229.174 20.279 229.405C20.5102 229.636 20.8237 229.766 21.1507 229.766H29.7794C30.1064 229.766 30.4199 229.636 30.6511 229.405C30.8823 229.174 31.0121 228.861 31.0121 228.534V219.905C31.0121 219.579 30.8823 219.265 30.6511 219.034C30.4199 218.803 30.1064 218.673 29.7794 218.673H21.1507ZM28.5159 222.861C28.6316 222.746 28.6966 222.589 28.6967 222.425C28.6967 222.262 28.6318 222.105 28.5162 221.989C28.4007 221.874 28.2439 221.809 28.0804 221.809C27.9169 221.809 27.7601 221.874 27.6444 221.989L24.5935 225.04L23.2863 223.733C23.2291 223.675 23.1611 223.63 23.0863 223.599C23.0115 223.568 22.9314 223.552 22.8504 223.552C22.6869 223.552 22.5301 223.617 22.4145 223.732C22.2988 223.848 22.2338 224.005 22.2337 224.168C22.2337 224.332 22.2986 224.489 22.4142 224.604L24.114 226.304C24.177 226.367 24.2517 226.417 24.334 226.451C24.4163 226.485 24.5045 226.503 24.5935 226.503C24.6826 226.503 24.7708 226.485 24.8531 226.451C24.9353 226.417 25.0101 226.367 25.0731 226.304L28.5159 222.861Z" fill="#0A0C33"/>
<rect x="45.2656" y="221.754" width="48.691" height="5.54674" rx="2.77337" fill="#ECECEC"/>
<path fill-rule="evenodd" clip-rule="evenodd" d="M21.1507 266.856C20.8237 266.856 20.5102 266.986 20.279 267.217C20.0478 267.448 19.918 267.762 19.918 268.089V276.717C19.918 277.044 20.0478 277.357 20.279 277.588C20.5102 277.82 20.8237 277.949 21.1507 277.949H29.7794C30.1064 277.949 30.4199 277.82 30.6511 277.588C30.8823 277.357 31.0121 277.044 31.0121 276.717V268.089C31.0121 267.762 30.8823 267.448 30.6511 267.217C30.4199 266.986 30.1064 266.856 29.7794 266.856H21.1507ZM28.5159 271.044C28.6316 270.929 28.6966 270.772 28.6967 270.609C28.6967 270.445 28.6318 270.288 28.5162 270.173C28.4007 270.057 28.2439 269.992 28.0804 269.992C27.9169 269.992 27.7601 270.057 27.6444 270.172L24.5935 273.223L23.2863 271.916C23.2291 271.859 23.1611 271.813 23.0863 271.782C23.0115 271.751 22.9314 271.735 22.8504 271.735C22.6869 271.735 22.5301 271.8 22.4145 271.916C22.2988 272.031 22.2338 272.188 22.2337 272.351C22.2337 272.515 22.2986 272.672 22.4142 272.787L24.114 274.487C24.177 274.55 24.2517 274.6 24.334 274.634C24.4163 274.668 24.5045 274.686 24.5935 274.686C24.6826 274.686 24.7708 274.668 24.8531 274.634C24.9353 274.6 25.0101 274.55 25.0731 274.487L28.5159 271.044Z" fill="#0A0C33"/>
<rect x="45.2656" y="269.937" width="48.691" height="5.54674" rx="2.77337" fill="#ECECEC"/>
<path fill-rule="evenodd" clip-rule="evenodd" d="M21.1506 242.764C20.8237 242.764 20.5102 242.894 20.279 243.125C20.0478 243.356 19.918 243.67 19.918 243.997V252.625C19.918 252.952 20.0478 253.266 20.279 253.497C20.5102 253.728 20.8237 253.858 21.1506 253.858H29.7794C30.1063 253.858 30.4198 253.728 30.651 253.497C30.8822 253.266 31.0121 252.952 31.0121 252.625V243.997C31.0121 243.67 30.8822 243.356 30.651 243.125C30.4198 242.894 30.1063 242.764 29.7794 242.764H21.1506ZM28.5159 246.953C28.6315 246.837 28.6965 246.68 28.6966 246.517C28.6967 246.353 28.6318 246.196 28.5162 246.081C28.4006 245.965 28.2438 245.9 28.0804 245.9C27.9169 245.9 27.76 245.965 27.6444 246.081L24.5935 249.131L23.2863 247.824C23.229 247.767 23.1611 247.721 23.0863 247.69C23.0115 247.659 22.9314 247.643 22.8504 247.643C22.6869 247.643 22.5301 247.708 22.4144 247.824C22.2988 247.939 22.2338 248.096 22.2337 248.26C22.2337 248.423 22.2986 248.58 22.4141 248.696L24.114 250.395C24.177 250.458 24.2517 250.508 24.334 250.542C24.4163 250.576 24.5045 250.594 24.5935 250.594C24.6826 250.594 24.7708 250.576 24.853 250.542C24.9353 250.508 25.0101 250.458 25.073 250.395L28.5159 246.953Z" fill="#0A0C33"/>
<rect x="45.2656" y="245.845" width="81.973" height="5.54678" rx="2.77339" fill="#ECECEC"/>
<path fill-rule="evenodd" clip-rule="evenodd" d="M21.1506 290.947C20.8237 290.947 20.5102 291.077 20.279 291.308C20.0478 291.539 19.918 291.853 19.918 292.18V300.808C19.918 301.135 20.0478 301.449 20.279 301.68C20.5102 301.911 20.8237 302.041 21.1506 302.041H29.7794C30.1063 302.041 30.4198 301.911 30.651 301.68C30.8822 301.449 31.0121 301.135 31.0121 300.808V292.18C31.0121 291.853 30.8822 291.539 30.651 291.308C30.4198 291.077 30.1063 290.947 29.7794 290.947H21.1506ZM28.5159 295.136C28.6315 295.02 28.6965 294.863 28.6966 294.7C28.6967 294.536 28.6318 294.38 28.5162 294.264C28.4006 294.148 28.2438 294.083 28.0804 294.083C27.9169 294.083 27.76 294.148 27.6444 294.264L24.5935 297.314L23.2863 296.007C23.229 295.95 23.1611 295.904 23.0863 295.873C23.0115 295.842 22.9314 295.826 22.8504 295.826C22.6869 295.826 22.5301 295.891 22.4144 296.007C22.2988 296.122 22.2338 296.279 22.2337 296.443C22.2337 296.606 22.2986 296.763 22.4141 296.879L24.114 298.578C24.177 298.641 24.2517 298.691 24.334 298.725C24.4163 298.76 24.5045 298.777 24.5935 298.777C24.6826 298.777 24.7708 298.76 24.853 298.725C24.9353 298.691 25.0101 298.641 25.073 298.578L28.5159 295.136Z" fill="#0A0C33"/>
<rect x="45.2656" y="294.028" width="81.973" height="5.54678" rx="2.77339" fill="#ECECEC"/>
<path d="M21.3584 149.991C22.005 149.991 22.5417 150.207 22.9684 150.641C23.4017 151.067 23.6184 151.601 23.6184 152.241C23.6184 152.874 23.4017 153.407 22.9684 153.841C22.5417 154.274 22.005 154.491 21.3584 154.491H19.7484V156.991H18.8184V149.991H21.3584ZM21.3584 153.621C21.745 153.621 22.065 153.491 22.3184 153.231C22.5717 152.964 22.6984 152.634 22.6984 152.241C22.6984 151.841 22.5717 151.511 22.3184 151.251C22.065 150.991 21.745 150.861 21.3584 150.861H19.7484V153.621H21.3584ZM28.3859 151.991H29.2559V156.991H28.3859V156.131C27.9526 156.791 27.3226 157.121 26.4959 157.121C25.7959 157.121 25.1993 156.867 24.7059 156.361C24.2126 155.847 23.9659 155.224 23.9659 154.491C23.9659 153.757 24.2126 153.137 24.7059 152.631C25.1993 152.117 25.7959 151.861 26.4959 151.861C27.3226 151.861 27.9526 152.191 28.3859 152.851V151.991ZM26.6059 156.281C27.1126 156.281 27.5359 156.111 27.8759 155.771C28.2159 155.424 28.3859 154.997 28.3859 154.491C28.3859 153.984 28.2159 153.561 27.8759 153.221C27.5359 152.874 27.1126 152.701 26.6059 152.701C26.1059 152.701 25.6859 152.874 25.3459 153.221C25.0059 153.561 24.8359 153.984 24.8359 154.491C24.8359 154.997 25.0059 155.424 25.3459 155.771C25.6859 156.111 26.1059 156.281 26.6059 156.281ZM34.0641 151.991H34.9941L32.9541 157.301C32.7407 157.867 32.4407 158.297 32.0541 158.591C31.6741 158.891 31.2341 159.024 30.7341 158.991V158.181C31.3474 158.227 31.7974 157.887 32.0841 157.161L32.1741 156.971L29.9941 151.991H30.9241L32.6241 155.911L34.0641 151.991ZM41.1205 151.861C41.6805 151.861 42.1339 152.044 42.4805 152.411C42.8272 152.771 43.0005 153.261 43.0005 153.881V156.991H42.1305V153.911C42.1305 153.524 42.0305 153.224 41.8305 153.011C41.6305 152.797 41.3639 152.691 41.0305 152.691C40.6572 152.691 40.3572 152.817 40.1305 153.071C39.9105 153.317 39.8005 153.697 39.8005 154.211V156.991H38.9305V153.911C38.9305 153.524 38.8339 153.224 38.6405 153.011C38.4539 152.797 38.1972 152.691 37.8705 152.691C37.5039 152.691 37.1972 152.817 36.9505 153.071C36.7105 153.324 36.5905 153.704 36.5905 154.211V156.991H35.7205V151.991H36.5905V152.661C36.9305 152.127 37.4272 151.861 38.0805 151.861C38.7539 151.861 39.2439 152.144 39.5505 152.711C39.8972 152.144 40.4205 151.861 41.1205 151.861ZM44.8169 154.891C44.9035 155.337 45.1069 155.684 45.4269 155.931C45.7535 156.177 46.1535 156.301 46.6269 156.301C47.2869 156.301 47.7669 156.057 48.0669 155.571L48.8069 155.991C48.3202 156.744 47.5869 157.121 46.6069 157.121C45.8135 157.121 45.1669 156.874 44.6669 156.381C44.1735 155.881 43.9269 155.251 43.9269 154.491C43.9269 153.737 44.1702 153.111 44.6569 152.611C45.1435 152.111 45.7735 151.861 46.5469 151.861C47.2802 151.861 47.8769 152.121 48.3369 152.641C48.8035 153.154 49.0369 153.774 49.0369 154.501C49.0369 154.627 49.0269 154.757 49.0069 154.891H44.8169ZM46.5469 152.681C46.0802 152.681 45.6935 152.814 45.3869 153.081C45.0802 153.341 44.8902 153.691 44.8169 154.131H48.1569C48.0835 153.657 47.8969 153.297 47.5969 153.051C47.2969 152.804 46.9469 152.681 46.5469 152.681ZM52.527 151.861C53.1136 151.861 53.5836 152.047 53.937 152.421C54.2903 152.787 54.467 153.287 54.467 153.921V156.991H53.597V153.971C53.597 153.564 53.487 153.251 53.267 153.031C53.047 152.804 52.7436 152.691 52.357 152.691C51.9236 152.691 51.5736 152.827 51.307 153.101C51.0403 153.367 50.907 153.781 50.907 154.341V156.991H50.037V151.991H50.907V152.711C51.2603 152.144 51.8003 151.861 52.527 151.861ZM58.4015 152.831H57.0715V155.541C57.0715 155.787 57.1182 155.964 57.2115 156.071C57.3115 156.171 57.4615 156.224 57.6615 156.231C57.8615 156.231 58.1082 156.224 58.4015 156.211V156.991C57.6415 157.091 57.0848 157.031 56.7315 156.811C56.3782 156.584 56.2015 156.161 56.2015 155.541V152.831H55.2115V151.991H56.2015V150.851L57.0715 150.591V151.991H58.4015V152.831ZM66.3808 149.991H67.3008V156.991H66.3808V153.841H62.9808V156.991H62.0508V149.991H62.9808V152.961H66.3808V149.991ZM69.1488 151.081C68.9822 151.081 68.8422 151.024 68.7288 150.911C68.6155 150.797 68.5588 150.661 68.5588 150.501C68.5588 150.341 68.6155 150.204 68.7288 150.091C68.8422 149.971 68.9822 149.911 69.1488 149.911C69.3088 149.911 69.4455 149.971 69.5588 150.091C69.6722 150.204 69.7288 150.341 69.7288 150.501C69.7288 150.661 69.6722 150.797 69.5588 150.911C69.4455 151.024 69.3088 151.081 69.1488 151.081ZM68.7088 156.991V151.991H69.5788V156.991H68.7088ZM71.6463 153.341C71.6463 153.534 71.743 153.691 71.9363 153.811C72.1297 153.924 72.363 154.017 72.6363 154.091C72.9097 154.157 73.183 154.237 73.4563 154.331C73.7297 154.417 73.963 154.571 74.1563 154.791C74.3497 155.004 74.4463 155.281 74.4463 155.621C74.4463 156.074 74.2697 156.437 73.9163 156.711C73.5697 156.984 73.123 157.121 72.5763 157.121C72.0897 157.121 71.673 157.014 71.3263 156.801C70.9797 156.587 70.733 156.304 70.5863 155.951L71.3363 155.521C71.4163 155.761 71.5663 155.951 71.7863 156.091C72.0063 156.231 72.2697 156.301 72.5763 156.301C72.863 156.301 73.0997 156.247 73.2863 156.141C73.473 156.027 73.5663 155.854 73.5663 155.621C73.5663 155.427 73.4697 155.274 73.2763 155.161C73.083 155.041 72.8497 154.947 72.5763 154.881C72.303 154.807 72.0297 154.724 71.7563 154.631C71.483 154.537 71.2497 154.384 71.0563 154.171C70.863 153.957 70.7663 153.684 70.7663 153.351C70.7663 152.917 70.933 152.561 71.2663 152.281C71.6063 152.001 72.0297 151.861 72.5363 151.861C72.943 151.861 73.303 151.954 73.6163 152.141C73.9363 152.321 74.1763 152.574 74.3363 152.901L73.6063 153.311C73.4263 152.884 73.0697 152.671 72.5363 152.671C72.2897 152.671 72.0797 152.731 71.9063 152.851C71.733 152.964 71.6463 153.127 71.6463 153.341ZM78.0011 152.831H76.6711V155.541C76.6711 155.787 76.7178 155.964 76.8111 156.071C76.9111 156.171 77.0611 156.224 77.2611 156.231C77.4611 156.231 77.7078 156.224 78.0011 156.211V156.991C77.2411 157.091 76.6844 157.031 76.3311 156.811C75.9778 156.584 75.8011 156.161 75.8011 155.541V152.831H74.8111V151.991H75.8011V150.851L76.6711 150.591V151.991H78.0011V152.831ZM82.9972 156.361C82.4839 156.867 81.8605 157.121 81.1272 157.121C80.3939 157.121 79.7705 156.867 79.2572 156.361C78.7505 155.854 78.4972 155.231 78.4972 154.491C78.4972 153.751 78.7505 153.127 79.2572 152.621C79.7705 152.114 80.3939 151.861 81.1272 151.861C81.8605 151.861 82.4839 152.114 82.9972 152.621C83.5105 153.127 83.7672 153.751 83.7672 154.491C83.7672 155.231 83.5105 155.854 82.9972 156.361ZM81.1272 156.271C81.6272 156.271 82.0472 156.101 82.3872 155.761C82.7272 155.421 82.8972 154.997 82.8972 154.491C82.8972 153.984 82.7272 153.561 82.3872 153.221C82.0472 152.881 81.6272 152.711 81.1272 152.711C80.6339 152.711 80.2172 152.881 79.8772 153.221C79.5372 153.561 79.3672 153.984 79.3672 154.491C79.3672 154.997 79.5372 155.421 79.8772 155.761C80.2172 156.101 80.6339 156.271 81.1272 156.271ZM85.6628 152.831C85.9495 152.211 86.4695 151.901 87.2228 151.901V152.811C86.7961 152.791 86.4295 152.904 86.1228 153.151C85.8161 153.397 85.6628 153.794 85.6628 154.341V156.991H84.7928V151.991H85.6628V152.831ZM91.6715 151.991H92.6015L90.5615 157.301C90.3482 157.867 90.0482 158.297 89.6615 158.591C89.2815 158.891 88.8415 159.024 88.3415 158.991V158.181C88.9548 158.227 89.4048 157.887 89.6915 157.161L89.7815 156.971L87.6015 151.991H88.5315L90.2315 155.911L91.6715 151.991Z" fill="#1E1E1E"/>
<path d="M187.607 226.567C188.56 226.567 189.35 226.907 189.977 227.587C190.61 228.261 190.927 229.087 190.927 230.067C190.927 231.047 190.61 231.877 189.977 232.557C189.35 233.231 188.56 233.567 187.607 233.567H184.877V226.567H187.607ZM187.607 232.687C188.32 232.687 188.904 232.437 189.357 231.937C189.81 231.437 190.037 230.814 190.037 230.067C190.037 229.321 189.81 228.697 189.357 228.197C188.904 227.697 188.32 227.447 187.607 227.447H185.807V232.687H187.607ZM192.575 231.467C192.661 231.914 192.865 232.261 193.185 232.507C193.511 232.754 193.911 232.877 194.385 232.877C195.045 232.877 195.525 232.634 195.825 232.147L196.565 232.567C196.078 233.321 195.345 233.697 194.365 233.697C193.571 233.697 192.925 233.451 192.425 232.957C191.931 232.457 191.685 231.827 191.685 231.067C191.685 230.314 191.928 229.687 192.415 229.187C192.901 228.687 193.531 228.437 194.305 228.437C195.038 228.437 195.635 228.697 196.095 229.217C196.561 229.731 196.795 230.351 196.795 231.077C196.795 231.204 196.785 231.334 196.765 231.467H192.575ZM194.305 229.257C193.838 229.257 193.451 229.391 193.145 229.657C192.838 229.917 192.648 230.267 192.575 230.707H195.915C195.841 230.234 195.655 229.874 195.355 229.627C195.055 229.381 194.705 229.257 194.305 229.257ZM200.368 229.407H199.038V232.117C199.038 232.364 199.085 232.541 199.178 232.647C199.278 232.747 199.428 232.801 199.628 232.807C199.828 232.807 200.075 232.801 200.368 232.787V233.567C199.608 233.667 199.052 233.607 198.698 233.387C198.345 233.161 198.168 232.737 198.168 232.117V229.407H197.178V228.567H198.168V227.427L199.038 227.167V228.567H200.368V229.407ZM205.284 228.567H206.154V233.567H205.284V232.707C204.851 233.367 204.221 233.697 203.394 233.697C202.694 233.697 202.098 233.444 201.604 232.937C201.111 232.424 200.864 231.801 200.864 231.067C200.864 230.334 201.111 229.714 201.604 229.207C202.098 228.694 202.694 228.437 203.394 228.437C204.221 228.437 204.851 228.767 205.284 229.427V228.567ZM203.504 232.857C204.011 232.857 204.434 232.687 204.774 232.347C205.114 232.001 205.284 231.574 205.284 231.067C205.284 230.561 205.114 230.137 204.774 229.797C204.434 229.451 204.011 229.277 203.504 229.277C203.004 229.277 202.584 229.451 202.244 229.797C201.904 230.137 201.734 230.561 201.734 231.067C201.734 231.574 201.904 232.001 202.244 232.347C202.584 232.687 203.004 232.857 203.504 232.857ZM207.913 227.657C207.746 227.657 207.606 227.601 207.493 227.487C207.379 227.374 207.323 227.237 207.323 227.077C207.323 226.917 207.379 226.781 207.493 226.667C207.606 226.547 207.746 226.487 207.913 226.487C208.073 226.487 208.209 226.547 208.323 226.667C208.436 226.781 208.493 226.917 208.493 227.077C208.493 227.237 208.436 227.374 208.323 227.487C208.209 227.601 208.073 227.657 207.913 227.657ZM207.472 233.567V228.567H208.343V233.567H207.472ZM209.67 233.567V226.267H210.54V233.567H209.67ZM214.457 226.567H215.387V233.567H214.457V226.567ZM219.289 228.437C219.875 228.437 220.345 228.624 220.699 228.997C221.052 229.364 221.229 229.864 221.229 230.497V233.567H220.359V230.547C220.359 230.141 220.249 229.827 220.029 229.607C219.809 229.381 219.505 229.267 219.119 229.267C218.685 229.267 218.335 229.404 218.069 229.677C217.802 229.944 217.669 230.357 217.669 230.917V233.567H216.799V228.567H217.669V229.287C218.022 228.721 218.562 228.437 219.289 228.437ZM225.875 228.567H226.815L224.815 233.567H223.795L221.795 228.567H222.735L224.305 232.637L225.875 228.567ZM231.575 232.937C231.062 233.444 230.439 233.697 229.705 233.697C228.972 233.697 228.349 233.444 227.835 232.937C227.329 232.431 227.075 231.807 227.075 231.067C227.075 230.327 227.329 229.704 227.835 229.197C228.349 228.691 228.972 228.437 229.705 228.437C230.439 228.437 231.062 228.691 231.575 229.197C232.089 229.704 232.345 230.327 232.345 231.067C232.345 231.807 232.089 232.431 231.575 232.937ZM229.705 232.847C230.205 232.847 230.625 232.677 230.965 232.337C231.305 231.997 231.475 231.574 231.475 231.067C231.475 230.561 231.305 230.137 230.965 229.797C230.625 229.457 230.205 229.287 229.705 229.287C229.212 229.287 228.795 229.457 228.455 229.797C228.115 230.137 227.945 230.561 227.945 231.067C227.945 231.574 228.115 231.997 228.455 232.337C228.795 232.677 229.212 232.847 229.705 232.847ZM233.811 227.657C233.644 227.657 233.504 227.601 233.391 227.487C233.278 227.374 233.221 227.237 233.221 227.077C233.221 226.917 233.278 226.781 233.391 226.667C233.504 226.547 233.644 226.487 233.811 226.487C233.971 226.487 234.108 226.547 234.221 226.667C234.334 226.781 234.391 226.917 234.391 227.077C234.391 227.237 234.334 227.374 234.221 227.487C234.108 227.601 233.971 227.657 233.811 227.657ZM233.371 233.567V228.567H234.241V233.567H233.371ZM237.918 233.697C237.165 233.697 236.538 233.447 236.038 232.947C235.538 232.441 235.288 231.814 235.288 231.067C235.288 230.321 235.538 229.697 236.038 229.197C236.538 228.691 237.165 228.437 237.918 228.437C238.412 228.437 238.855 228.557 239.248 228.797C239.642 229.031 239.935 229.347 240.128 229.747L239.398 230.167C239.272 229.901 239.075 229.687 238.808 229.527C238.548 229.367 238.252 229.287 237.918 229.287C237.418 229.287 236.998 229.457 236.658 229.797C236.325 230.137 236.158 230.561 236.158 231.067C236.158 231.567 236.325 231.987 236.658 232.327C236.998 232.667 237.418 232.837 237.918 232.837C238.252 232.837 238.552 232.761 238.818 232.607C239.085 232.447 239.288 232.234 239.428 231.967L240.168 232.397C239.955 232.791 239.648 233.107 239.248 233.347C238.848 233.581 238.405 233.697 237.918 233.697ZM241.569 231.467C241.655 231.914 241.859 232.261 242.179 232.507C242.505 232.754 242.905 232.877 243.379 232.877C244.039 232.877 244.519 232.634 244.819 232.147L245.559 232.567C245.072 233.321 244.339 233.697 243.359 233.697C242.565 233.697 241.919 233.451 241.419 232.957C240.925 232.457 240.679 231.827 240.679 231.067C240.679 230.314 240.922 229.687 241.409 229.187C241.895 228.687 242.525 228.437 243.299 228.437C244.032 228.437 244.629 228.697 245.089 229.217C245.555 229.731 245.789 230.351 245.789 231.077C245.789 231.204 245.779 231.334 245.759 231.467H241.569ZM243.299 229.257C242.832 229.257 242.445 229.391 242.139 229.657C241.832 229.917 241.642 230.267 241.569 230.707H244.909C244.835 230.234 244.649 229.874 244.349 229.627C244.049 229.381 243.699 229.257 243.299 229.257Z" fill="#1E1E1E"/>
<path d="M354.467 161.757L353.628 162.598L358.203 167.175C358.277 167.249 358.364 167.307 358.46 167.347C358.556 167.387 358.659 167.408 358.763 167.408C358.867 167.408 358.97 167.387 359.066 167.347C359.162 167.307 359.249 167.249 359.322 167.175L363.9 162.598L363.061 161.758L358.764 166.054L354.467 161.757Z" fill="black"/>
<rect x="186.148" y="149.151" width="186.109" height="30.3748" rx="4.7" stroke="#767676" stroke-width="0.6"/>
<rect width="63" height="13" transform="translate(193 143)" fill="white"/>
<path d="M198.9 151.596C198.388 151.596 197.948 151.476 197.58 151.236C197.217 150.991 196.964 150.655 196.82 150.228L197.3 149.948C197.401 150.295 197.588 150.567 197.86 150.764C198.132 150.956 198.481 151.052 198.908 151.052C199.324 151.052 199.647 150.961 199.876 150.78C200.111 150.593 200.228 150.348 200.228 150.044C200.228 149.751 200.121 149.529 199.908 149.38C199.695 149.231 199.343 149.076 198.852 148.916C198.271 148.724 197.887 148.569 197.7 148.452C197.273 148.196 197.06 147.825 197.06 147.34C197.06 146.865 197.225 146.492 197.556 146.22C197.887 145.943 198.295 145.804 198.78 145.804C199.217 145.804 199.596 145.919 199.916 146.148C200.236 146.372 200.473 146.66 200.628 147.012L200.156 147.276C199.9 146.657 199.441 146.348 198.78 146.348C198.433 146.348 198.153 146.433 197.94 146.604C197.727 146.775 197.62 147.012 197.62 147.316C197.62 147.593 197.716 147.801 197.908 147.94C198.1 148.079 198.417 148.22 198.86 148.364C199.063 148.433 199.207 148.484 199.292 148.516C199.383 148.543 199.511 148.591 199.676 148.66C199.847 148.724 199.972 148.783 200.052 148.836C200.132 148.884 200.228 148.953 200.34 149.044C200.457 149.129 200.54 149.217 200.588 149.308C200.641 149.393 200.687 149.5 200.724 149.628C200.767 149.751 200.788 149.884 200.788 150.028C200.788 150.503 200.615 150.884 200.268 151.172C199.921 151.455 199.465 151.596 198.9 151.596ZM203.596 147.404C204.188 147.404 204.665 147.615 205.028 148.036C205.396 148.452 205.58 148.945 205.58 149.516C205.58 149.575 205.574 149.657 205.564 149.764H202.052C202.105 150.169 202.276 150.492 202.564 150.732C202.857 150.967 203.217 151.084 203.644 151.084C203.948 151.084 204.209 151.023 204.428 150.9C204.652 150.772 204.82 150.607 204.932 150.404L205.396 150.676C205.22 150.959 204.98 151.183 204.676 151.348C204.372 151.513 204.025 151.596 203.636 151.596C203.006 151.596 202.494 151.399 202.1 151.004C201.705 150.609 201.508 150.108 201.508 149.5C201.508 148.903 201.702 148.404 202.092 148.004C202.481 147.604 202.982 147.404 203.596 147.404ZM203.596 147.916C203.18 147.916 202.83 148.041 202.548 148.292C202.27 148.537 202.105 148.857 202.052 149.252H205.036C204.982 148.831 204.82 148.503 204.548 148.268C204.276 148.033 203.958 147.916 203.596 147.916ZM206.419 151.5V145.66H206.947V151.5H206.419ZM209.916 147.404C210.508 147.404 210.985 147.615 211.348 148.036C211.716 148.452 211.9 148.945 211.9 149.516C211.9 149.575 211.894 149.657 211.884 149.764H208.372C208.425 150.169 208.596 150.492 208.884 150.732C209.177 150.967 209.537 151.084 209.964 151.084C210.268 151.084 210.529 151.023 210.748 150.9C210.972 150.772 211.14 150.607 211.252 150.404L211.716 150.676C211.54 150.959 211.3 151.183 210.996 151.348C210.692 151.513 210.345 151.596 209.956 151.596C209.326 151.596 208.814 151.399 208.42 151.004C208.025 150.609 207.828 150.108 207.828 149.5C207.828 148.903 208.022 148.404 208.412 148.004C208.801 147.604 209.302 147.404 209.916 147.404ZM209.916 147.916C209.5 147.916 209.15 148.041 208.868 148.292C208.59 148.537 208.425 148.857 208.372 149.252H211.356C211.302 148.831 211.14 148.503 210.868 148.268C210.596 148.033 210.278 147.916 209.916 147.916ZM214.604 151.596C214.001 151.596 213.5 151.396 213.1 150.996C212.7 150.591 212.5 150.092 212.5 149.5C212.5 148.908 212.7 148.412 213.1 148.012C213.5 147.607 214.001 147.404 214.604 147.404C214.998 147.404 215.353 147.5 215.668 147.692C215.982 147.879 216.212 148.132 216.356 148.452L215.924 148.7C215.817 148.46 215.644 148.271 215.404 148.132C215.169 147.988 214.902 147.916 214.604 147.916C214.161 147.916 213.788 148.071 213.484 148.38C213.18 148.684 213.028 149.057 213.028 149.5C213.028 149.943 213.18 150.319 213.484 150.628C213.788 150.932 214.161 151.084 214.604 151.084C214.902 151.084 215.169 151.015 215.404 150.876C215.638 150.732 215.822 150.54 215.956 150.3L216.396 150.556C216.23 150.876 215.988 151.129 215.668 151.316C215.348 151.503 214.993 151.596 214.604 151.596ZM219.274 148.012H218.122V150.436C218.122 150.655 218.164 150.812 218.25 150.908C218.335 150.999 218.463 151.047 218.634 151.052C218.804 151.052 219.018 151.047 219.274 151.036V151.5C218.714 151.585 218.292 151.545 218.01 151.38C217.732 151.215 217.594 150.9 217.594 150.436V148.012H216.754V147.5H217.594V146.54L218.122 146.38V147.5H219.274V148.012ZM225.962 151.5L225.442 150.124H222.786L222.266 151.5H221.674L223.826 145.9H224.402L226.554 151.5H225.962ZM222.986 149.596H225.242L224.114 146.596L222.986 149.596ZM228.979 151.596C228.376 151.596 227.875 151.396 227.475 150.996C227.075 150.591 226.875 150.092 226.875 149.5C226.875 148.908 227.075 148.412 227.475 148.012C227.875 147.607 228.376 147.404 228.979 147.404C229.373 147.404 229.728 147.5 230.043 147.692C230.357 147.879 230.587 148.132 230.731 148.452L230.299 148.7C230.192 148.46 230.019 148.271 229.779 148.132C229.544 147.988 229.277 147.916 228.979 147.916C228.536 147.916 228.163 148.071 227.859 148.38C227.555 148.684 227.403 149.057 227.403 149.5C227.403 149.943 227.555 150.319 227.859 150.628C228.163 150.932 228.536 151.084 228.979 151.084C229.277 151.084 229.544 151.015 229.779 150.876C230.013 150.732 230.197 150.54 230.331 150.3L230.771 150.556C230.605 150.876 230.363 151.129 230.043 151.316C229.723 151.503 229.368 151.596 228.979 151.596ZM233.354 151.596C232.751 151.596 232.25 151.396 231.85 150.996C231.45 150.591 231.25 150.092 231.25 149.5C231.25 148.908 231.45 148.412 231.85 148.012C232.25 147.607 232.751 147.404 233.354 147.404C233.748 147.404 234.103 147.5 234.418 147.692C234.732 147.879 234.962 148.132 235.106 148.452L234.674 148.7C234.567 148.46 234.394 148.271 234.154 148.132C233.919 147.988 233.652 147.916 233.354 147.916C232.911 147.916 232.538 148.071 232.234 148.38C231.93 148.684 231.778 149.057 231.778 149.5C231.778 149.943 231.93 150.319 232.234 150.628C232.538 150.932 232.911 151.084 233.354 151.084C233.652 151.084 233.919 151.015 234.154 150.876C234.388 150.732 234.572 150.54 234.706 150.3L235.146 150.556C234.98 150.876 234.738 151.129 234.418 151.316C234.098 151.503 233.743 151.596 233.354 151.596ZM239.217 150.996C238.811 151.396 238.315 151.596 237.729 151.596C237.142 151.596 236.643 151.396 236.233 150.996C235.827 150.591 235.625 150.092 235.625 149.5C235.625 148.908 235.827 148.412 236.233 148.012C236.643 147.607 237.142 147.404 237.729 147.404C238.315 147.404 238.811 147.607 239.217 148.012C239.627 148.412 239.833 148.908 239.833 149.5C239.833 150.092 239.627 150.591 239.217 150.996ZM236.609 150.628C236.913 150.932 237.286 151.084 237.729 151.084C238.171 151.084 238.545 150.932 238.849 150.628C239.153 150.319 239.305 149.943 239.305 149.5C239.305 149.057 239.153 148.684 238.849 148.38C238.545 148.071 238.171 147.916 237.729 147.916C237.286 147.916 236.913 148.071 236.609 148.38C236.305 148.684 236.153 149.057 236.153 149.5C236.153 149.943 236.305 150.319 236.609 150.628ZM243.532 147.5H244.06V151.5H243.532V150.876C243.234 151.356 242.786 151.596 242.188 151.596C241.703 151.596 241.319 151.449 241.036 151.156C240.759 150.857 240.62 150.457 240.62 149.956V147.5H241.148V149.956C241.148 150.313 241.242 150.591 241.428 150.788C241.62 150.985 241.89 151.084 242.236 151.084C242.62 151.084 242.932 150.964 243.172 150.724C243.412 150.479 243.532 150.103 243.532 149.596V147.5ZM247.049 147.404C247.535 147.404 247.916 147.553 248.193 147.852C248.476 148.145 248.617 148.543 248.617 149.044V151.5H248.089V149.044C248.089 148.687 247.993 148.409 247.801 148.212C247.615 148.015 247.348 147.916 247.001 147.916C246.617 147.916 246.305 148.039 246.065 148.284C245.825 148.524 245.705 148.897 245.705 149.404V151.5H245.177V147.5H245.705V148.124C246.004 147.644 246.452 147.404 247.049 147.404ZM251.758 148.012H250.606V150.436C250.606 150.655 250.649 150.812 250.734 150.908C250.819 150.999 250.947 151.047 251.118 151.052C251.289 151.052 251.502 151.047 251.758 151.036V151.5C251.198 151.585 250.777 151.545 250.494 151.38C250.217 151.215 250.078 150.9 250.078 150.436V148.012H249.238V147.5H250.078V146.54L250.606 146.38V147.5H251.758V148.012Z" fill="#1E1E1E"/>
<rect x="194.451" y="162.618" width="147.991" height="5.16247" rx="2.58123" fill="#ECECEC"/>
<rect x="194.451" y="183.268" width="48.183" height="5.16247" rx="2.58123" fill="#7BD283"/>
<rect x="280.494" y="246.938" width="48.183" height="5.16247" rx="2.58123" fill="#7BD283"/>
<rect x="184.129" y="241.776" width="69.6461" height="5.54678" rx="2.77339" fill="#ECECEC"/>
<rect x="183.268" y="275.332" width="44.7414" height="5.16247" rx="2.58123" fill="#ECECEC"/>
<rect x="283.936" y="275.332" width="44.7414" height="5.16247" rx="2.58123" fill="#ECECEC"/>
<rect x="184.127" y="251.24" width="69.6933" height="5.16247" rx="2.58123" fill="#ECECEC"/>
<rect x="183.268" y="284.796" width="44.7414" height="5.16247" rx="2.58123" fill="#ECECEC"/>
<rect x="283.936" y="284.796" width="44.7414" height="5.16247" rx="2.58123" fill="#ECECEC"/>
<rect x="183.268" y="294.261" width="70.5537" height="5.16247" rx="2.58123" fill="#D9D9D9"/>
<rect x="283.936" y="294.261" width="44.7414" height="5.16247" rx="2.58123" fill="#D9D9D9"/>
<line x1="185.848" y1="264.507" x2="328.676" y2="264.507" stroke="#F4F4F4"/>
</svg>
