<svg width="468" height="441" viewBox="0 0 468 441" fill="none" xmlns="http://www.w3.org/2000/svg">
<rect width="468" height="441" rx="20" fill="white"/>
<rect x="0.5" y="0.5" width="467" height="440" rx="19.5" stroke="#0A0C33" stroke-opacity="0.1"/>
<g filter="url(#filter0_d_1086_1027)">
<rect x="51" y="142" width="366" height="67" rx="10" fill="white"/>
<rect x="51.5" y="142.5" width="365" height="66" rx="9.5" stroke="#0A0C33" stroke-opacity="0.1"/>
<path d="M121.955 173.021L121.451 171.509H118.103L117.599 173.021H115.811L118.751 164.621H120.803L123.755 173.021H121.955ZM118.631 169.961H120.935L119.783 166.529L118.631 169.961ZM126.047 168.053C126.191 167.669 126.427 167.381 126.755 167.189C127.091 166.997 127.463 166.901 127.871 166.901V168.629C127.399 168.573 126.975 168.669 126.599 168.917C126.231 169.165 126.047 169.577 126.047 170.153V173.021H124.499V167.021H126.047V168.053ZM132.736 167.021H134.284V173.021H132.736V172.349C132.36 172.909 131.764 173.189 130.948 173.189C130.292 173.189 129.748 172.969 129.316 172.529C128.892 172.089 128.68 171.481 128.68 170.705V167.021H130.228V170.513C130.228 170.913 130.336 171.221 130.552 171.437C130.768 171.645 131.056 171.749 131.416 171.749C131.816 171.749 132.136 171.625 132.376 171.377C132.616 171.129 132.736 170.757 132.736 170.261V167.021ZM139.038 166.853C139.694 166.853 140.234 167.073 140.658 167.513C141.09 167.953 141.306 168.561 141.306 169.337V173.021H139.758V169.529C139.758 169.129 139.65 168.825 139.434 168.617C139.218 168.401 138.93 168.293 138.57 168.293C138.17 168.293 137.85 168.417 137.61 168.665C137.37 168.913 137.25 169.285 137.25 169.781V173.021H135.702V167.021H137.25V167.693C137.626 167.133 138.222 166.853 139.038 166.853Z" fill="#1E1E1E"/>
<path d="M345.959 180.724C346.476 180.724 346.905 180.898 347.247 181.244C347.593 181.586 347.767 182.012 347.767 182.524C347.767 183.031 347.593 183.458 347.247 183.804C346.905 184.151 346.476 184.324 345.959 184.324H344.671V186.324H343.927V180.724H345.959ZM345.959 183.628C346.268 183.628 346.524 183.524 346.727 183.316C346.929 183.103 347.031 182.839 347.031 182.524C347.031 182.204 346.929 181.94 346.727 181.732C346.524 181.524 346.268 181.42 345.959 181.42H344.671V183.628H345.959ZM351.581 182.324H352.277V186.324H351.581V185.636C351.234 186.164 350.73 186.428 350.069 186.428C349.509 186.428 349.032 186.226 348.637 185.82C348.242 185.41 348.045 184.911 348.045 184.324C348.045 183.738 348.242 183.242 348.637 182.836C349.032 182.426 349.509 182.22 350.069 182.22C350.73 182.22 351.234 182.484 351.581 183.012V182.324ZM350.157 185.756C350.562 185.756 350.901 185.62 351.173 185.348C351.445 185.071 351.581 184.73 351.581 184.324C351.581 183.919 351.445 183.58 351.173 183.308C350.901 183.031 350.562 182.892 350.157 182.892C349.757 182.892 349.421 183.031 349.149 183.308C348.877 183.58 348.741 183.919 348.741 184.324C348.741 184.73 348.877 185.071 349.149 185.348C349.421 185.62 349.757 185.756 350.157 185.756ZM356.123 182.324H356.867L355.235 186.572C355.065 187.026 354.825 187.37 354.515 187.604C354.211 187.844 353.859 187.951 353.459 187.924V187.276C353.95 187.314 354.31 187.042 354.539 186.46L354.611 186.308L352.867 182.324H353.611L354.971 185.46L356.123 182.324ZM361.769 182.22C362.217 182.22 362.579 182.367 362.857 182.66C363.134 182.948 363.273 183.34 363.273 183.836V186.324H362.577V183.86C362.577 183.551 362.497 183.311 362.337 183.14C362.177 182.97 361.963 182.884 361.697 182.884C361.398 182.884 361.158 182.986 360.977 183.188C360.801 183.386 360.713 183.69 360.713 184.1V186.324H360.017V183.86C360.017 183.551 359.939 183.311 359.785 183.14C359.635 182.97 359.43 182.884 359.169 182.884C358.875 182.884 358.63 182.986 358.433 183.188C358.241 183.391 358.145 183.695 358.145 184.1V186.324H357.449V182.324H358.145V182.86C358.417 182.434 358.814 182.22 359.337 182.22C359.875 182.22 360.267 182.447 360.513 182.9C360.79 182.447 361.209 182.22 361.769 182.22ZM364.726 184.644C364.795 185.002 364.958 185.279 365.214 185.476C365.475 185.674 365.795 185.772 366.174 185.772C366.702 185.772 367.086 185.578 367.326 185.188L367.918 185.524C367.528 186.127 366.942 186.428 366.158 186.428C365.523 186.428 365.006 186.231 364.606 185.836C364.211 185.436 364.014 184.932 364.014 184.324C364.014 183.722 364.208 183.22 364.598 182.82C364.987 182.42 365.491 182.22 366.11 182.22C366.696 182.22 367.174 182.428 367.542 182.844C367.915 183.255 368.102 183.751 368.102 184.332C368.102 184.434 368.094 184.538 368.078 184.644H364.726ZM366.11 182.876C365.736 182.876 365.427 182.983 365.182 183.196C364.936 183.404 364.784 183.684 364.726 184.036H367.398C367.339 183.658 367.19 183.37 366.95 183.172C366.71 182.975 366.43 182.876 366.11 182.876ZM370.894 182.22C371.363 182.22 371.739 182.37 372.022 182.668C372.304 182.962 372.446 183.362 372.446 183.868V186.324H371.75V183.908C371.75 183.583 371.662 183.332 371.486 183.156C371.31 182.975 371.067 182.884 370.758 182.884C370.411 182.884 370.131 182.994 369.918 183.212C369.704 183.426 369.598 183.756 369.598 184.204V186.324H368.902V182.324H369.598V182.9C369.88 182.447 370.312 182.22 370.894 182.22ZM375.593 182.996H374.529V185.164C374.529 185.362 374.567 185.503 374.641 185.588C374.721 185.668 374.841 185.711 375.001 185.716C375.161 185.716 375.359 185.711 375.593 185.7V186.324C374.985 186.404 374.54 186.356 374.257 186.18C373.975 185.999 373.833 185.66 373.833 185.164V182.996H373.041V182.324H373.833V181.412L374.529 181.204V182.324H375.593V182.996ZM380.697 180.724C381.459 180.724 382.091 180.996 382.593 181.54C383.099 182.079 383.353 182.74 383.353 183.524C383.353 184.308 383.099 184.972 382.593 185.516C382.091 186.055 381.459 186.324 380.697 186.324H378.513V180.724H380.697ZM380.697 185.62C381.267 185.62 381.734 185.42 382.097 185.02C382.459 184.62 382.641 184.122 382.641 183.524C382.641 182.927 382.459 182.428 382.097 182.028C381.734 181.628 381.267 181.428 380.697 181.428H379.257V185.62H380.697ZM386.982 182.324H387.678V186.324H386.982V185.748C386.699 186.202 386.267 186.428 385.686 186.428C385.217 186.428 384.841 186.282 384.558 185.988C384.275 185.69 384.134 185.287 384.134 184.78V182.324H384.83V184.74C384.83 185.066 384.918 185.319 385.094 185.5C385.27 185.676 385.513 185.764 385.822 185.764C386.169 185.764 386.449 185.658 386.662 185.444C386.875 185.226 386.982 184.892 386.982 184.444V182.324ZM389.226 184.644C389.295 185.002 389.458 185.279 389.714 185.476C389.975 185.674 390.295 185.772 390.674 185.772C391.202 185.772 391.586 185.578 391.826 185.188L392.418 185.524C392.028 186.127 391.442 186.428 390.658 186.428C390.023 186.428 389.506 186.231 389.106 185.836C388.711 185.436 388.514 184.932 388.514 184.324C388.514 183.722 388.708 183.22 389.098 182.82C389.487 182.42 389.991 182.22 390.61 182.22C391.196 182.22 391.674 182.428 392.042 182.844C392.415 183.255 392.602 183.751 392.602 184.332C392.602 184.434 392.594 184.538 392.578 184.644H389.226ZM390.61 182.876C390.236 182.876 389.927 182.983 389.682 183.196C389.436 183.404 389.284 183.684 389.226 184.036H391.898C391.839 183.658 391.69 183.37 391.45 183.172C391.21 182.975 390.93 182.876 390.61 182.876Z" fill="#EB2525"/>
</g>
<circle cx="83" cy="175" r="17.5" stroke="#0A0C33"/>
<g filter="url(#filter1_d_1086_1027)">
<rect x="51" y="224" width="366" height="67" rx="10" fill="white"/>
<rect x="51.5" y="224.5" width="365" height="66" rx="9.5" stroke="#0A0C33" stroke-opacity="0.1"/>
<path d="M119.687 246.471C120.495 246.471 121.175 246.743 121.727 247.287C122.279 247.831 122.555 248.499 122.555 249.291C122.555 250.083 122.279 250.751 121.727 251.295C121.175 251.839 120.495 252.111 119.687 252.111H118.211V254.871H116.555V246.471H119.687ZM119.687 250.563C120.039 250.563 120.331 250.443 120.563 250.203C120.795 249.955 120.911 249.651 120.911 249.291C120.911 248.923 120.795 248.619 120.563 248.379C120.331 248.139 120.039 248.019 119.687 248.019H118.211V250.563H119.687ZM124.981 249.903C125.125 249.519 125.361 249.231 125.689 249.039C126.025 248.847 126.397 248.751 126.805 248.751V250.479C126.333 250.423 125.909 250.519 125.533 250.767C125.165 251.015 124.981 251.427 124.981 252.003V254.871H123.433V248.871H124.981V249.903ZM132.047 248.871H133.595V254.871H132.047V254.163C131.583 254.747 130.931 255.039 130.091 255.039C129.291 255.039 128.603 254.735 128.027 254.127C127.459 253.511 127.175 252.759 127.175 251.871C127.175 250.983 127.459 250.235 128.027 249.627C128.603 249.011 129.291 248.703 130.091 248.703C130.931 248.703 131.583 248.995 132.047 249.579V248.871ZM129.191 253.095C129.503 253.407 129.899 253.563 130.379 253.563C130.859 253.563 131.255 253.407 131.567 253.095C131.887 252.775 132.047 252.367 132.047 251.871C132.047 251.375 131.887 250.971 131.567 250.659C131.255 250.339 130.859 250.179 130.379 250.179C129.899 250.179 129.503 250.339 129.191 250.659C128.879 250.971 128.723 251.375 128.723 251.871C128.723 252.367 128.879 252.775 129.191 253.095ZM138.947 248.871H140.651L138.371 254.871H136.607L134.327 248.871H136.031L137.483 253.071L138.947 248.871ZM142.165 248.151C141.909 248.151 141.685 248.059 141.493 247.875C141.309 247.683 141.217 247.459 141.217 247.203C141.217 246.947 141.309 246.723 141.493 246.531C141.685 246.339 141.909 246.243 142.165 246.243C142.429 246.243 142.653 246.339 142.837 246.531C143.029 246.723 143.125 246.947 143.125 247.203C143.125 247.459 143.029 247.683 142.837 247.875C142.653 248.059 142.429 248.151 142.165 248.151ZM141.397 254.871V248.871H142.945V254.871H141.397ZM147.698 248.703C148.354 248.703 148.894 248.923 149.318 249.363C149.75 249.803 149.966 250.411 149.966 251.187V254.871H148.418V251.379C148.418 250.979 148.31 250.675 148.094 250.467C147.878 250.251 147.59 250.143 147.23 250.143C146.83 250.143 146.51 250.267 146.27 250.515C146.03 250.763 145.91 251.135 145.91 251.631V254.871H144.362V248.871H145.91V249.543C146.286 248.983 146.882 248.703 147.698 248.703Z" fill="#1E1E1E"/>
<path d="M345.766 262.546C346.283 262.546 346.712 262.719 347.054 263.066C347.4 263.407 347.574 263.834 347.574 264.346C347.574 264.852 347.4 265.279 347.054 265.626C346.712 265.972 346.283 266.146 345.766 266.146H344.478V268.146H343.734V262.546H345.766ZM345.766 265.45C346.075 265.45 346.331 265.346 346.534 265.138C346.736 264.924 346.838 264.66 346.838 264.346C346.838 264.026 346.736 263.762 346.534 263.554C346.331 263.346 346.075 263.242 345.766 263.242H344.478V265.45H345.766ZM351.388 264.146H352.084V268.146H351.388V267.458C351.041 267.986 350.537 268.25 349.876 268.25C349.316 268.25 348.838 268.047 348.444 267.642C348.049 267.231 347.852 266.732 347.852 266.146C347.852 265.559 348.049 265.063 348.444 264.658C348.838 264.247 349.316 264.042 349.876 264.042C350.537 264.042 351.041 264.306 351.388 264.834V264.146ZM349.964 267.578C350.369 267.578 350.708 267.442 350.98 267.17C351.252 266.892 351.388 266.551 351.388 266.146C351.388 265.74 351.252 265.402 350.98 265.13C350.708 264.852 350.369 264.714 349.964 264.714C349.564 264.714 349.228 264.852 348.956 265.13C348.684 265.402 348.548 265.74 348.548 266.146C348.548 266.551 348.684 266.892 348.956 267.17C349.228 267.442 349.564 267.578 349.964 267.578ZM355.93 264.146H356.674L355.042 268.394C354.871 268.847 354.631 269.191 354.322 269.426C354.018 269.666 353.666 269.772 353.266 269.746V269.098C353.757 269.135 354.117 268.863 354.346 268.282L354.418 268.13L352.674 264.146H353.418L354.778 267.282L355.93 264.146ZM361.575 264.042C362.023 264.042 362.386 264.188 362.663 264.482C362.941 264.77 363.079 265.162 363.079 265.658V268.146H362.383V265.682C362.383 265.372 362.303 265.132 362.143 264.962C361.983 264.791 361.77 264.706 361.503 264.706C361.205 264.706 360.965 264.807 360.783 265.01C360.607 265.207 360.519 265.511 360.519 265.922V268.146H359.823V265.682C359.823 265.372 359.746 265.132 359.591 264.962C359.442 264.791 359.237 264.706 358.975 264.706C358.682 264.706 358.437 264.807 358.239 265.01C358.047 265.212 357.951 265.516 357.951 265.922V268.146H357.255V264.146H357.951V264.682C358.223 264.255 358.621 264.042 359.143 264.042C359.682 264.042 360.074 264.268 360.319 264.722C360.597 264.268 361.015 264.042 361.575 264.042ZM364.532 266.466C364.602 266.823 364.764 267.1 365.02 267.298C365.282 267.495 365.602 267.594 365.98 267.594C366.508 267.594 366.892 267.399 367.132 267.01L367.724 267.346C367.335 267.948 366.748 268.25 365.964 268.25C365.33 268.25 364.812 268.052 364.412 267.658C364.018 267.258 363.82 266.754 363.82 266.146C363.82 265.543 364.015 265.042 364.404 264.642C364.794 264.242 365.298 264.042 365.916 264.042C366.503 264.042 366.98 264.25 367.348 264.666C367.722 265.076 367.908 265.572 367.908 266.154C367.908 266.255 367.9 266.359 367.884 266.466H364.532ZM365.916 264.698C365.543 264.698 365.234 264.804 364.988 265.018C364.743 265.226 364.591 265.506 364.532 265.858H367.204C367.146 265.479 366.996 265.191 366.756 264.994C366.516 264.796 366.236 264.698 365.916 264.698ZM370.7 264.042C371.17 264.042 371.546 264.191 371.828 264.49C372.111 264.783 372.252 265.183 372.252 265.69V268.146H371.556V265.73C371.556 265.404 371.468 265.154 371.292 264.978C371.116 264.796 370.874 264.706 370.564 264.706C370.218 264.706 369.938 264.815 369.724 265.034C369.511 265.247 369.404 265.578 369.404 266.026V268.146H368.708V264.146H369.404V264.722C369.687 264.268 370.119 264.042 370.7 264.042ZM375.4 264.818H374.336V266.986C374.336 267.183 374.373 267.324 374.448 267.41C374.528 267.49 374.648 267.532 374.808 267.538C374.968 267.538 375.165 267.532 375.4 267.522V268.146C374.792 268.226 374.347 268.178 374.064 268.002C373.781 267.82 373.64 267.482 373.64 266.986V264.818H372.848V264.146H373.64V263.234L374.336 263.026V264.146H375.4V264.818ZM380.503 262.546C381.266 262.546 381.898 262.818 382.399 263.362C382.906 263.9 383.159 264.562 383.159 265.346C383.159 266.13 382.906 266.794 382.399 267.338C381.898 267.876 381.266 268.146 380.503 268.146H378.319V262.546H380.503ZM380.503 267.442C381.074 267.442 381.541 267.242 381.903 266.842C382.266 266.442 382.447 265.943 382.447 265.346C382.447 264.748 382.266 264.25 381.903 263.85C381.541 263.45 381.074 263.25 380.503 263.25H379.063V267.442H380.503ZM386.789 264.146H387.485V268.146H386.789V267.57C386.506 268.023 386.074 268.25 385.493 268.25C385.023 268.25 384.647 268.103 384.365 267.81C384.082 267.511 383.941 267.108 383.941 266.602V264.146H384.637V266.562C384.637 266.887 384.725 267.14 384.901 267.322C385.077 267.498 385.319 267.586 385.629 267.586C385.975 267.586 386.255 267.479 386.469 267.266C386.682 267.047 386.789 266.714 386.789 266.266V264.146ZM389.032 266.466C389.102 266.823 389.264 267.1 389.52 267.298C389.782 267.495 390.102 267.594 390.48 267.594C391.008 267.594 391.392 267.399 391.632 267.01L392.224 267.346C391.835 267.948 391.248 268.25 390.464 268.25C389.83 268.25 389.312 268.052 388.912 267.658C388.518 267.258 388.32 266.754 388.32 266.146C388.32 265.543 388.515 265.042 388.904 264.642C389.294 264.242 389.798 264.042 390.416 264.042C391.003 264.042 391.48 264.25 391.848 264.666C392.222 265.076 392.408 265.572 392.408 266.154C392.408 266.255 392.4 266.359 392.384 266.466H389.032ZM390.416 264.698C390.043 264.698 389.734 264.804 389.488 265.018C389.243 265.226 389.091 265.506 389.032 265.858H391.704C391.646 265.479 391.496 265.191 391.256 264.994C391.016 264.796 390.736 264.698 390.416 264.698Z" fill="#EB2525"/>
</g>
<circle cx="83" cy="257" r="17.5" stroke="#0A0C33"/>
<g filter="url(#filter2_d_1086_1027)">
<rect x="51" y="306" width="366" height="67" rx="10" fill="white"/>
<rect x="51.5" y="306.5" width="365" height="66" rx="9.5" stroke="#0A0C33" stroke-opacity="0.1"/>
<path d="M119.687 329.747C120.495 329.747 121.175 330.019 121.727 330.563C122.279 331.107 122.555 331.775 122.555 332.567C122.555 333.359 122.279 334.027 121.727 334.571C121.175 335.115 120.495 335.387 119.687 335.387H118.211V338.147H116.555V329.747H119.687ZM119.687 333.839C120.039 333.839 120.331 333.719 120.563 333.479C120.795 333.231 120.911 332.927 120.911 332.567C120.911 332.199 120.795 331.895 120.563 331.655C120.331 331.415 120.039 331.295 119.687 331.295H118.211V333.839H119.687ZM124.981 333.179C125.125 332.795 125.361 332.507 125.689 332.315C126.025 332.123 126.397 332.027 126.805 332.027V333.755C126.333 333.699 125.909 333.795 125.533 334.043C125.165 334.291 124.981 334.703 124.981 335.279V338.147H123.433V332.147H124.981V333.179ZM128.478 331.427C128.222 331.427 127.998 331.335 127.806 331.151C127.622 330.959 127.53 330.735 127.53 330.479C127.53 330.223 127.622 329.999 127.806 329.807C127.998 329.615 128.222 329.519 128.478 329.519C128.742 329.519 128.966 329.615 129.15 329.807C129.342 329.999 129.438 330.223 129.438 330.479C129.438 330.735 129.342 330.959 129.15 331.151C128.966 331.335 128.742 331.427 128.478 331.427ZM127.71 338.147V332.147H129.258V338.147H127.71ZM134.587 332.147H136.243L134.059 338.147C133.747 339.011 133.331 339.635 132.811 340.019C132.299 340.411 131.659 340.587 130.891 340.547V339.107C131.307 339.115 131.635 339.027 131.875 338.843C132.123 338.659 132.319 338.363 132.463 337.955L130.003 332.147H131.695L133.255 336.179L134.587 332.147ZM141.305 332.147H142.853V338.147H141.305V337.439C140.841 338.023 140.189 338.315 139.349 338.315C138.549 338.315 137.861 338.011 137.285 337.403C136.717 336.787 136.433 336.035 136.433 335.147C136.433 334.259 136.717 333.511 137.285 332.903C137.861 332.287 138.549 331.979 139.349 331.979C140.189 331.979 140.841 332.271 141.305 332.855V332.147ZM138.449 336.371C138.761 336.683 139.157 336.839 139.637 336.839C140.117 336.839 140.513 336.683 140.825 336.371C141.145 336.051 141.305 335.643 141.305 335.147C141.305 334.651 141.145 334.247 140.825 333.935C140.513 333.615 140.117 333.455 139.637 333.455C139.157 333.455 138.761 333.615 138.449 333.935C138.137 334.247 137.981 334.651 137.981 335.147C137.981 335.643 138.137 336.051 138.449 336.371Z" fill="#1E1E1E"/>
<path d="M345.959 345.955C346.476 345.955 346.905 346.128 347.247 346.475C347.593 346.816 347.767 347.243 347.767 347.755C347.767 348.261 347.593 348.688 347.247 349.035C346.905 349.381 346.476 349.555 345.959 349.555H344.671V351.555H343.927V345.955H345.959ZM345.959 348.859C346.268 348.859 346.524 348.755 346.727 348.547C346.929 348.333 347.031 348.069 347.031 347.755C347.031 347.435 346.929 347.171 346.727 346.963C346.524 346.755 346.268 346.651 345.959 346.651H344.671V348.859H345.959ZM351.581 347.555H352.277V351.555H351.581V350.867C351.234 351.395 350.73 351.659 350.069 351.659C349.509 351.659 349.032 351.456 348.637 351.051C348.242 350.64 348.045 350.141 348.045 349.555C348.045 348.968 348.242 348.472 348.637 348.067C349.032 347.656 349.509 347.451 350.069 347.451C350.73 347.451 351.234 347.715 351.581 348.243V347.555ZM350.157 350.987C350.562 350.987 350.901 350.851 351.173 350.579C351.445 350.301 351.581 349.96 351.581 349.555C351.581 349.149 351.445 348.811 351.173 348.539C350.901 348.261 350.562 348.123 350.157 348.123C349.757 348.123 349.421 348.261 349.149 348.539C348.877 348.811 348.741 349.149 348.741 349.555C348.741 349.96 348.877 350.301 349.149 350.579C349.421 350.851 349.757 350.987 350.157 350.987ZM356.123 347.555H356.867L355.235 351.803C355.065 352.256 354.825 352.6 354.515 352.835C354.211 353.075 353.859 353.181 353.459 353.155V352.507C353.95 352.544 354.31 352.272 354.539 351.691L354.611 351.539L352.867 347.555H353.611L354.971 350.691L356.123 347.555ZM361.769 347.451C362.217 347.451 362.579 347.597 362.857 347.891C363.134 348.179 363.273 348.571 363.273 349.067V351.555H362.577V349.091C362.577 348.781 362.497 348.541 362.337 348.371C362.177 348.2 361.963 348.115 361.697 348.115C361.398 348.115 361.158 348.216 360.977 348.419C360.801 348.616 360.713 348.92 360.713 349.331V351.555H360.017V349.091C360.017 348.781 359.939 348.541 359.785 348.371C359.635 348.2 359.43 348.115 359.169 348.115C358.875 348.115 358.63 348.216 358.433 348.419C358.241 348.621 358.145 348.925 358.145 349.331V351.555H357.449V347.555H358.145V348.091C358.417 347.664 358.814 347.451 359.337 347.451C359.875 347.451 360.267 347.677 360.513 348.131C360.79 347.677 361.209 347.451 361.769 347.451ZM364.726 349.875C364.795 350.232 364.958 350.509 365.214 350.707C365.475 350.904 365.795 351.003 366.174 351.003C366.702 351.003 367.086 350.808 367.326 350.419L367.918 350.755C367.528 351.357 366.942 351.659 366.158 351.659C365.523 351.659 365.006 351.461 364.606 351.067C364.211 350.667 364.014 350.163 364.014 349.555C364.014 348.952 364.208 348.451 364.598 348.051C364.987 347.651 365.491 347.451 366.11 347.451C366.696 347.451 367.174 347.659 367.542 348.075C367.915 348.485 368.102 348.981 368.102 349.563C368.102 349.664 368.094 349.768 368.078 349.875H364.726ZM366.11 348.107C365.736 348.107 365.427 348.213 365.182 348.427C364.936 348.635 364.784 348.915 364.726 349.267H367.398C367.339 348.888 367.19 348.6 366.95 348.403C366.71 348.205 366.43 348.107 366.11 348.107ZM370.894 347.451C371.363 347.451 371.739 347.6 372.022 347.899C372.304 348.192 372.446 348.592 372.446 349.099V351.555H371.75V349.139C371.75 348.813 371.662 348.563 371.486 348.387C371.31 348.205 371.067 348.115 370.758 348.115C370.411 348.115 370.131 348.224 369.918 348.443C369.704 348.656 369.598 348.987 369.598 349.435V351.555H368.902V347.555H369.598V348.131C369.88 347.677 370.312 347.451 370.894 347.451ZM375.593 348.227H374.529V350.395C374.529 350.592 374.567 350.733 374.641 350.819C374.721 350.899 374.841 350.941 375.001 350.947C375.161 350.947 375.359 350.941 375.593 350.931V351.555C374.985 351.635 374.54 351.587 374.257 351.411C373.975 351.229 373.833 350.891 373.833 350.395V348.227H373.041V347.555H373.833V346.643L374.529 346.435V347.555H375.593V348.227ZM380.697 345.955C381.459 345.955 382.091 346.227 382.593 346.771C383.099 347.309 383.353 347.971 383.353 348.755C383.353 349.539 383.099 350.203 382.593 350.747C382.091 351.285 381.459 351.555 380.697 351.555H378.513V345.955H380.697ZM380.697 350.851C381.267 350.851 381.734 350.651 382.097 350.251C382.459 349.851 382.641 349.352 382.641 348.755C382.641 348.157 382.459 347.659 382.097 347.259C381.734 346.859 381.267 346.659 380.697 346.659H379.257V350.851H380.697ZM386.982 347.555H387.678V351.555H386.982V350.979C386.699 351.432 386.267 351.659 385.686 351.659C385.217 351.659 384.841 351.512 384.558 351.219C384.275 350.92 384.134 350.517 384.134 350.011V347.555H384.83V349.971C384.83 350.296 384.918 350.549 385.094 350.731C385.27 350.907 385.513 350.995 385.822 350.995C386.169 350.995 386.449 350.888 386.662 350.675C386.875 350.456 386.982 350.123 386.982 349.675V347.555ZM389.226 349.875C389.295 350.232 389.458 350.509 389.714 350.707C389.975 350.904 390.295 351.003 390.674 351.003C391.202 351.003 391.586 350.808 391.826 350.419L392.418 350.755C392.028 351.357 391.442 351.659 390.658 351.659C390.023 351.659 389.506 351.461 389.106 351.067C388.711 350.667 388.514 350.163 388.514 349.555C388.514 348.952 388.708 348.451 389.098 348.051C389.487 347.651 389.991 347.451 390.61 347.451C391.196 347.451 391.674 347.659 392.042 348.075C392.415 348.485 392.602 348.981 392.602 349.563C392.602 349.664 392.594 349.768 392.578 349.875H389.226ZM390.61 348.107C390.236 348.107 389.927 348.213 389.682 348.427C389.436 348.635 389.284 348.915 389.226 349.267H391.898C391.839 348.888 391.69 348.6 391.45 348.403C391.21 348.205 390.93 348.107 390.61 348.107Z" fill="#EB2525"/>
</g>
<circle cx="83" cy="339" r="17.5" stroke="#0A0C33"/>
<path d="M57.52 72C58.8667 72 60 72.4533 60.92 73.36C61.84 74.2667 62.3 75.38 62.3 76.7C62.3 78.02 61.84 79.1333 60.92 80.04C60 80.9467 58.8667 81.4 57.52 81.4H55.06V86H52.3V72H57.52ZM57.52 78.82C58.1067 78.82 58.5933 78.62 58.98 78.22C59.3667 77.8067 59.56 77.3 59.56 76.7C59.56 76.0867 59.3667 75.58 58.98 75.18C58.5933 74.78 58.1067 74.58 57.52 74.58H55.06V78.82H57.52ZM65.4928 82.06C65.8395 83.3133 66.7795 83.94 68.3128 83.94C69.2995 83.94 70.0461 83.6067 70.5528 82.94L72.6328 84.14C71.6461 85.5667 70.1928 86.28 68.2728 86.28C66.6195 86.28 65.2928 85.78 64.2928 84.78C63.2928 83.78 62.7928 82.52 62.7928 81C62.7928 79.4933 63.2861 78.24 64.2728 77.24C65.2595 76.2267 66.5261 75.72 68.0728 75.72C69.5395 75.72 70.7461 76.2267 71.6928 77.24C72.6528 78.2533 73.1328 79.5067 73.1328 81C73.1328 81.3333 73.0995 81.6867 73.0328 82.06H65.4928ZM65.4528 80.06H70.5528C70.4061 79.38 70.0995 78.8733 69.6328 78.54C69.1795 78.2067 68.6595 78.04 68.0728 78.04C67.3795 78.04 66.8061 78.22 66.3528 78.58C65.8995 78.9267 65.5995 79.42 65.4528 80.06ZM80.4939 75.72C81.5872 75.72 82.4872 76.0867 83.1939 76.82C83.9139 77.5533 84.2739 78.5667 84.2739 79.86V86H81.6939V80.18C81.6939 79.5133 81.5139 79.0067 81.1539 78.66C80.7939 78.3 80.3139 78.12 79.7139 78.12C79.0472 78.12 78.5139 78.3267 78.1139 78.74C77.7139 79.1533 77.5139 79.7733 77.5139 80.6V86H74.9339V76H77.5139V77.12C78.1406 76.1867 79.1339 75.72 80.4939 75.72ZM94.0569 72H96.6369V86H94.0569V84.82C93.2969 85.7933 92.2169 86.28 90.8169 86.28C89.4702 86.28 88.3169 85.7733 87.3569 84.76C86.4102 83.7333 85.9369 82.48 85.9369 81C85.9369 79.52 86.4102 78.2733 87.3569 77.26C88.3169 76.2333 89.4702 75.72 90.8169 75.72C92.2169 75.72 93.2969 76.2067 94.0569 77.18V72ZM89.2969 83.04C89.8302 83.56 90.4969 83.82 91.2969 83.82C92.0969 83.82 92.7569 83.56 93.2769 83.04C93.7969 82.5067 94.0569 81.8267 94.0569 81C94.0569 80.1733 93.7969 79.5 93.2769 78.98C92.7569 78.4467 92.0969 78.18 91.2969 78.18C90.4969 78.18 89.8302 78.4467 89.2969 78.98C88.7769 79.5 88.5169 80.1733 88.5169 81C88.5169 81.8267 88.7769 82.5067 89.2969 83.04ZM100.276 74.8C99.8497 74.8 99.4764 74.6467 99.1564 74.34C98.8497 74.02 98.6964 73.6467 98.6964 73.22C98.6964 72.7933 98.8497 72.42 99.1564 72.1C99.4764 71.78 99.8497 71.62 100.276 71.62C100.716 71.62 101.09 71.78 101.396 72.1C101.716 72.42 101.876 72.7933 101.876 73.22C101.876 73.6467 101.716 74.02 101.396 74.34C101.09 74.6467 100.716 74.8 100.276 74.8ZM98.9964 86V76H101.576V86H98.9964ZM109.498 75.72C110.591 75.72 111.491 76.0867 112.198 76.82C112.918 77.5533 113.278 78.5667 113.278 79.86V86H110.698V80.18C110.698 79.5133 110.518 79.0067 110.158 78.66C109.798 78.3 109.318 78.12 108.718 78.12C108.051 78.12 107.518 78.3267 107.118 78.74C106.718 79.1533 106.518 79.7733 106.518 80.6V86H103.938V76H106.518V77.12C107.144 76.1867 108.138 75.72 109.498 75.72ZM123.141 76H125.661V85.52C125.661 87.0667 125.147 88.2467 124.121 89.06C123.107 89.8733 121.881 90.28 120.441 90.28C119.361 90.28 118.407 90.0733 117.581 89.66C116.767 89.2467 116.141 88.64 115.701 87.84L117.901 86.58C118.407 87.5133 119.281 87.98 120.521 87.98C121.334 87.98 121.974 87.7667 122.441 87.34C122.907 86.9133 123.141 86.3067 123.141 85.52V84.44C122.381 85.4533 121.314 85.96 119.941 85.96C118.527 85.96 117.341 85.4667 116.381 84.48C115.434 83.48 114.961 82.2667 114.961 80.84C114.961 79.4267 115.441 78.22 116.401 77.22C117.361 76.22 118.541 75.72 119.941 75.72C121.314 75.72 122.381 76.2267 123.141 77.24V76ZM118.321 82.82C118.854 83.3267 119.527 83.58 120.341 83.58C121.154 83.58 121.821 83.3267 122.341 82.82C122.874 82.3 123.141 81.64 123.141 80.84C123.141 80.0533 122.874 79.4067 122.341 78.9C121.821 78.38 121.154 78.12 120.341 78.12C119.527 78.12 118.854 78.38 118.321 78.9C117.801 79.4067 117.541 80.0533 117.541 80.84C117.541 81.64 117.801 82.3 118.321 82.82ZM138.34 72C139.687 72 140.82 72.4533 141.74 73.36C142.66 74.2667 143.12 75.38 143.12 76.7C143.12 78.02 142.66 79.1333 141.74 80.04C140.82 80.9467 139.687 81.4 138.34 81.4H135.88V86H133.12V72H138.34ZM138.34 78.82C138.927 78.82 139.414 78.62 139.8 78.22C140.187 77.8067 140.38 77.3 140.38 76.7C140.38 76.0867 140.187 75.58 139.8 75.18C139.414 74.78 138.927 74.58 138.34 74.58H135.88V78.82H138.34ZM151.733 76H154.313V86H151.733V84.82C150.96 85.7933 149.873 86.28 148.473 86.28C147.14 86.28 145.993 85.7733 145.033 84.76C144.086 83.7333 143.613 82.48 143.613 81C143.613 79.52 144.086 78.2733 145.033 77.26C145.993 76.2333 147.14 75.72 148.473 75.72C149.873 75.72 150.96 76.2067 151.733 77.18V76ZM146.973 83.04C147.493 83.56 148.153 83.82 148.953 83.82C149.753 83.82 150.413 83.56 150.933 83.04C151.466 82.5067 151.733 81.8267 151.733 81C151.733 80.1733 151.466 79.5 150.933 78.98C150.413 78.4467 149.753 78.18 148.953 78.18C148.153 78.18 147.493 78.4467 146.973 78.98C146.453 79.5 146.193 80.1733 146.193 81C146.193 81.8267 146.453 82.5067 146.973 83.04ZM163.173 76H165.933L162.293 86C161.773 87.44 161.079 88.48 160.213 89.12C159.359 89.7733 158.293 90.0667 157.013 90V87.6C157.706 87.6133 158.253 87.4667 158.653 87.16C159.066 86.8533 159.393 86.36 159.633 85.68L155.533 76H158.353L160.953 82.72L163.173 76ZM175.29 84.76C174.263 85.7733 173.01 86.28 171.53 86.28C170.05 86.28 168.797 85.7733 167.77 84.76C166.757 83.7333 166.25 82.48 166.25 81C166.25 79.52 166.757 78.2733 167.77 77.26C168.797 76.2333 170.05 75.72 171.53 75.72C173.01 75.72 174.263 76.2333 175.29 77.26C176.317 78.2733 176.83 79.52 176.83 81C176.83 82.48 176.317 83.7333 175.29 84.76ZM169.59 82.98C170.11 83.5 170.757 83.76 171.53 83.76C172.303 83.76 172.95 83.5 173.47 82.98C173.99 82.46 174.25 81.8 174.25 81C174.25 80.2 173.99 79.54 173.47 79.02C172.95 78.5 172.303 78.24 171.53 78.24C170.757 78.24 170.11 78.5 169.59 79.02C169.083 79.54 168.83 80.2 168.83 81C168.83 81.8 169.083 82.46 169.59 82.98ZM185.245 76H187.825V86H185.245V84.88C184.618 85.8133 183.625 86.28 182.265 86.28C181.172 86.28 180.265 85.9133 179.545 85.18C178.838 84.4467 178.485 83.4333 178.485 82.14V76H181.065V81.82C181.065 82.4867 181.245 83 181.605 83.36C181.965 83.7067 182.445 83.88 183.045 83.88C183.712 83.88 184.245 83.6733 184.645 83.26C185.045 82.8467 185.245 82.2267 185.245 81.4V76ZM195.908 78.48H193.648V82.64C193.648 82.9867 193.734 83.24 193.908 83.4C194.081 83.56 194.334 83.6533 194.668 83.68C195.001 83.6933 195.414 83.6867 195.908 83.66V86C194.134 86.2 192.881 86.0333 192.148 85.5C191.428 84.9667 191.068 84.0133 191.068 82.64V78.48H189.328V76H191.068V73.98L193.648 73.2V76H195.908V78.48Z" fill="#1E1E1E"/>
<path d="M55.522 102.194C54.29 102.091 53.674 102.623 53.674 103.79V104H55.522V105.176H53.674V111H52.456V105.176H51.336V104H52.456V103.79C52.456 102.847 52.7173 102.133 53.24 101.648C53.772 101.163 54.5327 100.953 55.522 101.018V102.194ZM61.9746 110.118C61.2559 110.827 60.3832 111.182 59.3566 111.182C58.3299 111.182 57.4572 110.827 56.7386 110.118C56.0292 109.409 55.6746 108.536 55.6746 107.5C55.6746 106.464 56.0292 105.591 56.7386 104.882C57.4572 104.173 58.3299 103.818 59.3566 103.818C60.3832 103.818 61.2559 104.173 61.9746 104.882C62.6932 105.591 63.0526 106.464 63.0526 107.5C63.0526 108.536 62.6932 109.409 61.9746 110.118ZM59.3566 109.992C60.0566 109.992 60.6446 109.754 61.1206 109.278C61.5966 108.802 61.8346 108.209 61.8346 107.5C61.8346 106.791 61.5966 106.198 61.1206 105.722C60.6446 105.246 60.0566 105.008 59.3566 105.008C58.6659 105.008 58.0826 105.246 57.6066 105.722C57.1306 106.198 56.8926 106.791 56.8926 107.5C56.8926 108.209 57.1306 108.802 57.6066 109.278C58.0826 109.754 58.6659 109.992 59.3566 109.992ZM65.7065 105.176C66.1078 104.308 66.8358 103.874 67.8905 103.874V105.148C67.2931 105.12 66.7798 105.279 66.3505 105.624C65.9211 105.969 65.7065 106.525 65.7065 107.29V111H64.4885V104H65.7065V105.176ZM76.3902 105.176H74.5282V108.97C74.5282 109.315 74.5935 109.563 74.7242 109.712C74.8642 109.852 75.0742 109.927 75.3542 109.936C75.6342 109.936 75.9795 109.927 76.3902 109.908V111C75.3262 111.14 74.5469 111.056 74.0522 110.748C73.5575 110.431 73.3102 109.838 73.3102 108.97V105.176H71.9242V104H73.3102V102.404L74.5282 102.04V104H76.3902V105.176ZM81.3182 103.818C82.1395 103.818 82.7975 104.079 83.2922 104.602C83.7869 105.115 84.0342 105.815 84.0342 106.702V111H82.8162V106.772C82.8162 106.203 82.6622 105.764 82.3542 105.456C82.0462 105.139 81.6215 104.98 81.0802 104.98C80.4735 104.98 79.9835 105.171 79.6102 105.554C79.2369 105.927 79.0502 106.506 79.0502 107.29V111H77.8322V101.2H79.0502V105.008C79.5449 104.215 80.3009 103.818 81.3182 103.818ZM86.5885 108.06C86.7099 108.685 86.9945 109.171 87.4425 109.516C87.8999 109.861 88.4599 110.034 89.1225 110.034C90.0465 110.034 90.7185 109.693 91.1385 109.012L92.1745 109.6C91.4932 110.655 90.4665 111.182 89.0945 111.182C87.9839 111.182 87.0785 110.837 86.3785 110.146C85.6879 109.446 85.3425 108.564 85.3425 107.5C85.3425 106.445 85.6832 105.568 86.3645 104.868C87.0459 104.168 87.9279 103.818 89.0105 103.818C90.0372 103.818 90.8725 104.182 91.5165 104.91C92.1699 105.629 92.4965 106.497 92.4965 107.514C92.4965 107.691 92.4825 107.873 92.4545 108.06H86.5885ZM89.0105 104.966C88.3572 104.966 87.8159 105.153 87.3865 105.526C86.9572 105.89 86.6912 106.38 86.5885 106.996H91.2645C91.1619 106.333 90.9005 105.829 90.4805 105.484C90.0605 105.139 89.5705 104.966 89.0105 104.966ZM100.883 103.818C101.704 103.818 102.362 104.079 102.857 104.602C103.351 105.115 103.599 105.815 103.599 106.702V111H102.381V106.772C102.381 106.203 102.227 105.764 101.919 105.456C101.611 105.139 101.186 104.98 100.645 104.98C100.038 104.98 99.548 105.171 99.1747 105.554C98.8013 105.927 98.6147 106.506 98.6147 107.29V111H97.3967V104H98.6147V105.008C99.1093 104.215 99.8653 103.818 100.883 103.818ZM106.153 108.06C106.274 108.685 106.559 109.171 107.007 109.516C107.464 109.861 108.024 110.034 108.687 110.034C109.611 110.034 110.283 109.693 110.703 109.012L111.739 109.6C111.058 110.655 110.031 111.182 108.659 111.182C107.548 111.182 106.643 110.837 105.943 110.146C105.252 109.446 104.907 108.564 104.907 107.5C104.907 106.445 105.248 105.568 105.929 104.868C106.61 104.168 107.492 103.818 108.575 103.818C109.602 103.818 110.437 104.182 111.081 104.91C111.734 105.629 112.061 106.497 112.061 107.514C112.061 107.691 112.047 107.873 112.019 108.06H106.153ZM108.575 104.966C107.922 104.966 107.38 105.153 106.951 105.526C106.522 105.89 106.256 106.38 106.153 106.996H110.829C110.726 106.333 110.465 105.829 110.045 105.484C109.625 105.139 109.135 104.966 108.575 104.966ZM119.209 111H117.781L115.821 108.354L113.847 111H112.419L115.107 107.402L112.573 104H114.015L115.821 106.436L117.627 104H119.055L116.535 107.388L119.209 111ZM124.146 105.176H122.284V108.97C122.284 109.315 122.349 109.563 122.48 109.712C122.62 109.852 122.83 109.927 123.11 109.936C123.39 109.936 123.735 109.927 124.146 109.908V111C123.082 111.14 122.303 111.056 121.808 110.748C121.313 110.431 121.066 109.838 121.066 108.97V105.176H119.68V104H121.066V102.404L122.284 102.04V104H124.146V105.176ZM136.689 103.818C137.473 103.818 138.108 104.075 138.593 104.588C139.078 105.092 139.321 105.778 139.321 106.646V111H138.103V106.688C138.103 106.147 137.963 105.727 137.683 105.428C137.403 105.129 137.03 104.98 136.563 104.98C136.04 104.98 135.62 105.157 135.303 105.512C134.995 105.857 134.841 106.389 134.841 107.108V111H133.623V106.688C133.623 106.147 133.488 105.727 133.217 105.428C132.956 105.129 132.596 104.98 132.139 104.98C131.626 104.98 131.196 105.157 130.851 105.512C130.515 105.867 130.347 106.399 130.347 107.108V111H129.129V104H130.347V104.938C130.823 104.191 131.518 103.818 132.433 103.818C133.376 103.818 134.062 104.215 134.491 105.008C134.976 104.215 135.709 103.818 136.689 103.818ZM146.918 110.118C146.199 110.827 145.327 111.182 144.3 111.182C143.273 111.182 142.401 110.827 141.682 110.118C140.973 109.409 140.618 108.536 140.618 107.5C140.618 106.464 140.973 105.591 141.682 104.882C142.401 104.173 143.273 103.818 144.3 103.818C145.327 103.818 146.199 104.173 146.918 104.882C147.637 105.591 147.996 106.464 147.996 107.5C147.996 108.536 147.637 109.409 146.918 110.118ZM144.3 109.992C145 109.992 145.588 109.754 146.064 109.278C146.54 108.802 146.778 108.209 146.778 107.5C146.778 106.791 146.54 106.198 146.064 105.722C145.588 105.246 145 105.008 144.3 105.008C143.609 105.008 143.026 105.246 142.55 105.722C142.074 106.198 141.836 106.791 141.836 107.5C141.836 108.209 142.074 108.802 142.55 109.278C143.026 109.754 143.609 109.992 144.3 109.992ZM152.918 103.818C153.739 103.818 154.397 104.079 154.892 104.602C155.386 105.115 155.634 105.815 155.634 106.702V111H154.416V106.772C154.416 106.203 154.262 105.764 153.954 105.456C153.646 105.139 153.221 104.98 152.68 104.98C152.073 104.98 151.583 105.171 151.21 105.554C150.836 105.927 150.65 106.506 150.65 107.29V111H149.432V104H150.65V105.008C151.144 104.215 151.9 103.818 152.918 103.818ZM161.142 105.176H159.28V108.97C159.28 109.315 159.345 109.563 159.476 109.712C159.616 109.852 159.826 109.927 160.106 109.936C160.386 109.936 160.731 109.927 161.142 109.908V111C160.078 111.14 159.299 111.056 158.804 110.748C158.309 110.431 158.062 109.838 158.062 108.97V105.176H156.676V104H158.062V102.404L159.28 102.04V104H161.142V105.176ZM166.07 103.818C166.891 103.818 167.549 104.079 168.044 104.602C168.539 105.115 168.786 105.815 168.786 106.702V111H167.568V106.772C167.568 106.203 167.414 105.764 167.106 105.456C166.798 105.139 166.373 104.98 165.832 104.98C165.225 104.98 164.735 105.171 164.362 105.554C163.989 105.927 163.802 106.506 163.802 107.29V111H162.584V101.2H163.802V105.008C164.297 104.215 165.053 103.818 166.07 103.818Z" fill="#1E1E1E"/>
<path d="M119.48 181C120.433 181 121.223 181.34 121.85 182.02C122.483 182.693 122.8 183.52 122.8 184.5C122.8 185.48 122.483 186.31 121.85 186.99C121.223 187.663 120.433 188 119.48 188H116.75V181H119.48ZM119.48 187.12C120.193 187.12 120.777 186.87 121.23 186.37C121.683 185.87 121.91 185.247 121.91 184.5C121.91 183.753 121.683 183.13 121.23 182.63C120.777 182.13 120.193 181.88 119.48 181.88H117.68V187.12H119.48ZM127.978 183H128.848V188H127.978V187.14C127.544 187.8 126.914 188.13 126.088 188.13C125.388 188.13 124.791 187.877 124.298 187.37C123.804 186.857 123.558 186.233 123.558 185.5C123.558 184.767 123.804 184.147 124.298 183.64C124.791 183.127 125.388 182.87 126.088 182.87C126.914 182.87 127.544 183.2 127.978 183.86V183ZM126.198 187.29C126.704 187.29 127.128 187.12 127.468 186.78C127.808 186.433 127.978 186.007 127.978 185.5C127.978 184.993 127.808 184.57 127.468 184.23C127.128 183.883 126.704 183.71 126.198 183.71C125.698 183.71 125.278 183.883 124.938 184.23C124.598 184.57 124.428 184.993 124.428 185.5C124.428 186.007 124.598 186.433 124.938 186.78C125.278 187.12 125.698 187.29 126.198 187.29ZM132.886 183.84H131.556V186.55C131.556 186.797 131.603 186.973 131.696 187.08C131.796 187.18 131.946 187.233 132.146 187.24C132.346 187.24 132.593 187.233 132.886 187.22V188C132.126 188.1 131.569 188.04 131.216 187.82C130.863 187.593 130.686 187.17 130.686 186.55V183.84H129.696V183H130.686V181.86L131.556 181.6V183H132.886V183.84ZM134.272 185.9C134.359 186.347 134.562 186.693 134.882 186.94C135.209 187.187 135.609 187.31 136.082 187.31C136.742 187.31 137.222 187.067 137.522 186.58L138.262 187C137.775 187.753 137.042 188.13 136.062 188.13C135.269 188.13 134.622 187.883 134.122 187.39C133.629 186.89 133.382 186.26 133.382 185.5C133.382 184.747 133.625 184.12 134.112 183.62C134.599 183.12 135.229 182.87 136.002 182.87C136.735 182.87 137.332 183.13 137.792 183.65C138.259 184.163 138.492 184.783 138.492 185.51C138.492 185.637 138.482 185.767 138.462 185.9H134.272ZM136.002 183.69C135.535 183.69 135.149 183.823 134.842 184.09C134.535 184.35 134.345 184.7 134.272 185.14H137.612C137.539 184.667 137.352 184.307 137.052 184.06C136.752 183.813 136.402 183.69 136.002 183.69ZM143.312 181H144.112V188H143.192V182L141.702 182.44L141.472 181.64L143.312 181ZM150.036 187.14C149.563 187.8 148.9 188.13 148.046 188.13C147.193 188.13 146.53 187.8 146.056 187.14C145.583 186.48 145.346 185.6 145.346 184.5C145.346 183.4 145.583 182.52 146.056 181.86C146.53 181.2 147.193 180.87 148.046 180.87C148.9 180.87 149.563 181.2 150.036 181.86C150.51 182.52 150.746 183.4 150.746 184.5C150.746 185.6 150.51 186.48 150.036 187.14ZM146.736 186.51C147.043 186.983 147.48 187.22 148.046 187.22C148.613 187.22 149.05 186.983 149.356 186.51C149.67 186.037 149.826 185.367 149.826 184.5C149.826 183.633 149.67 182.963 149.356 182.49C149.05 182.01 148.613 181.77 148.046 181.77C147.48 181.77 147.043 182.007 146.736 182.48C146.43 182.953 146.276 183.627 146.276 184.5C146.276 185.367 146.43 186.037 146.736 186.51ZM151.945 185.35V184.51H155.595V185.35H151.945ZM159.042 183.73C159.702 183.73 160.258 183.927 160.712 184.32C161.172 184.707 161.402 185.243 161.402 185.93C161.402 186.61 161.168 187.147 160.702 187.54C160.235 187.933 159.668 188.13 159.002 188.13C158.468 188.13 157.992 188.003 157.572 187.75C157.152 187.49 156.858 187.117 156.692 186.63L157.482 186.18C157.575 186.52 157.755 186.78 158.022 186.96C158.288 187.133 158.615 187.22 159.002 187.22C159.442 187.22 159.798 187.107 160.072 186.88C160.345 186.653 160.482 186.337 160.482 185.93C160.482 185.523 160.345 185.207 160.072 184.98C159.798 184.747 159.448 184.63 159.022 184.63H157.042L157.302 181H161.132V181.87H158.142L158.022 183.73H159.042ZM162.521 185.35V184.51H166.171V185.35H162.521ZM167.278 188V187.24L169.748 184.72C170.408 184.06 170.738 183.493 170.738 183.02C170.738 182.627 170.618 182.32 170.378 182.1C170.138 181.88 169.845 181.77 169.498 181.77C168.838 181.77 168.358 182.083 168.058 182.71L167.278 182.25C167.498 181.797 167.801 181.453 168.188 181.22C168.581 180.987 169.015 180.87 169.488 180.87C170.075 180.87 170.585 181.063 171.018 181.45C171.451 181.837 171.668 182.357 171.668 183.01C171.668 183.717 171.251 184.487 170.418 185.32L168.628 187.1H171.798V188H167.278ZM177.234 187.14C176.76 187.8 176.097 188.13 175.244 188.13C174.39 188.13 173.727 187.8 173.254 187.14C172.78 186.48 172.544 185.6 172.544 184.5C172.544 183.4 172.78 182.52 173.254 181.86C173.727 181.2 174.39 180.87 175.244 180.87C176.097 180.87 176.76 181.2 177.234 181.86C177.707 182.52 177.944 183.4 177.944 184.5C177.944 185.6 177.707 186.48 177.234 187.14ZM173.934 186.51C174.24 186.983 174.677 187.22 175.244 187.22C175.81 187.22 176.247 186.983 176.554 186.51C176.867 186.037 177.024 185.367 177.024 184.5C177.024 183.633 176.867 182.963 176.554 182.49C176.247 182.01 175.81 181.77 175.244 181.77C174.677 181.77 174.24 182.007 173.934 182.48C173.627 182.953 173.474 183.627 173.474 184.5C173.474 185.367 173.627 186.037 173.934 186.51ZM178.626 188V187.24L181.096 184.72C181.756 184.06 182.086 183.493 182.086 183.02C182.086 182.627 181.966 182.32 181.726 182.1C181.486 181.88 181.192 181.77 180.846 181.77C180.186 181.77 179.706 182.083 179.406 182.71L178.626 182.25C178.846 181.797 179.149 181.453 179.536 181.22C179.929 180.987 180.362 180.87 180.836 180.87C181.422 180.87 181.932 181.063 182.366 181.45C182.799 181.837 183.016 182.357 183.016 183.01C183.016 183.717 182.599 184.487 181.766 185.32L179.976 187.1H183.146V188H178.626ZM186.161 183.73C186.821 183.73 187.378 183.927 187.831 184.32C188.291 184.707 188.521 185.243 188.521 185.93C188.521 186.61 188.288 187.147 187.821 187.54C187.354 187.933 186.788 188.13 186.121 188.13C185.588 188.13 185.111 188.003 184.691 187.75C184.271 187.49 183.978 187.117 183.811 186.63L184.601 186.18C184.694 186.52 184.874 186.78 185.141 186.96C185.408 187.133 185.734 187.22 186.121 187.22C186.561 187.22 186.918 187.107 187.191 186.88C187.464 186.653 187.601 186.337 187.601 185.93C187.601 185.523 187.464 185.207 187.191 184.98C186.918 184.747 186.568 184.63 186.141 184.63H184.161L184.421 181H188.251V181.87H185.261L185.141 183.73H186.161Z" fill="#1E1E1E"/>
<path d="M119.48 265C120.433 265 121.223 265.34 121.85 266.02C122.483 266.693 122.8 267.52 122.8 268.5C122.8 269.48 122.483 270.31 121.85 270.99C121.223 271.663 120.433 272 119.48 272H116.75V265H119.48ZM119.48 271.12C120.193 271.12 120.777 270.87 121.23 270.37C121.683 269.87 121.91 269.247 121.91 268.5C121.91 267.753 121.683 267.13 121.23 266.63C120.777 266.13 120.193 265.88 119.48 265.88H117.68V271.12H119.48ZM127.978 267H128.848V272H127.978V271.14C127.544 271.8 126.914 272.13 126.088 272.13C125.388 272.13 124.791 271.877 124.298 271.37C123.804 270.857 123.558 270.233 123.558 269.5C123.558 268.767 123.804 268.147 124.298 267.64C124.791 267.127 125.388 266.87 126.088 266.87C126.914 266.87 127.544 267.2 127.978 267.86V267ZM126.198 271.29C126.704 271.29 127.128 271.12 127.468 270.78C127.808 270.433 127.978 270.007 127.978 269.5C127.978 268.993 127.808 268.57 127.468 268.23C127.128 267.883 126.704 267.71 126.198 267.71C125.698 267.71 125.278 267.883 124.938 268.23C124.598 268.57 124.428 268.993 124.428 269.5C124.428 270.007 124.598 270.433 124.938 270.78C125.278 271.12 125.698 271.29 126.198 271.29ZM132.886 267.84H131.556V270.55C131.556 270.797 131.603 270.973 131.696 271.08C131.796 271.18 131.946 271.233 132.146 271.24C132.346 271.24 132.593 271.233 132.886 271.22V272C132.126 272.1 131.569 272.04 131.216 271.82C130.863 271.593 130.686 271.17 130.686 270.55V267.84H129.696V267H130.686V265.86L131.556 265.6V267H132.886V267.84ZM134.272 269.9C134.359 270.347 134.562 270.693 134.882 270.94C135.209 271.187 135.609 271.31 136.082 271.31C136.742 271.31 137.222 271.067 137.522 270.58L138.262 271C137.775 271.753 137.042 272.13 136.062 272.13C135.269 272.13 134.622 271.883 134.122 271.39C133.629 270.89 133.382 270.26 133.382 269.5C133.382 268.747 133.625 268.12 134.112 267.62C134.599 267.12 135.229 266.87 136.002 266.87C136.735 266.87 137.332 267.13 137.792 267.65C138.259 268.163 138.492 268.783 138.492 269.51C138.492 269.637 138.482 269.767 138.462 269.9H134.272ZM136.002 267.69C135.535 267.69 135.149 267.823 134.842 268.09C134.535 268.35 134.345 268.7 134.272 269.14H137.612C137.539 268.667 137.352 268.307 137.052 268.06C136.752 267.813 136.402 267.69 136.002 267.69ZM143.312 265H144.112V272H143.192V266L141.702 266.44L141.472 265.64L143.312 265ZM145.256 272V271.24L147.726 268.72C148.386 268.06 148.716 267.493 148.716 267.02C148.716 266.627 148.596 266.32 148.356 266.1C148.116 265.88 147.823 265.77 147.476 265.77C146.816 265.77 146.336 266.083 146.036 266.71L145.256 266.25C145.476 265.797 145.78 265.453 146.166 265.22C146.56 264.987 146.993 264.87 147.466 264.87C148.053 264.87 148.563 265.063 148.996 265.45C149.43 265.837 149.646 266.357 149.646 267.01C149.646 267.717 149.23 268.487 148.396 269.32L146.606 271.1H149.776V272H145.256ZM150.92 269.35V268.51H154.57V269.35H150.92ZM158.016 267.73C158.676 267.73 159.233 267.927 159.686 268.32C160.146 268.707 160.376 269.243 160.376 269.93C160.376 270.61 160.143 271.147 159.676 271.54C159.21 271.933 158.643 272.13 157.976 272.13C157.443 272.13 156.966 272.003 156.546 271.75C156.126 271.49 155.833 271.117 155.666 270.63L156.456 270.18C156.55 270.52 156.73 270.78 156.996 270.96C157.263 271.133 157.59 271.22 157.976 271.22C158.416 271.22 158.773 271.107 159.046 270.88C159.32 270.653 159.456 270.337 159.456 269.93C159.456 269.523 159.32 269.207 159.046 268.98C158.773 268.747 158.423 268.63 157.996 268.63H156.016L156.276 265H160.106V265.87H157.116L156.996 267.73H158.016ZM161.496 269.35V268.51H165.146V269.35H161.496ZM166.253 272V271.24L168.723 268.72C169.383 268.06 169.713 267.493 169.713 267.02C169.713 266.627 169.593 266.32 169.353 266.1C169.113 265.88 168.819 265.77 168.473 265.77C167.813 265.77 167.333 266.083 167.033 266.71L166.253 266.25C166.473 265.797 166.776 265.453 167.163 265.22C167.556 264.987 167.989 264.87 168.463 264.87C169.049 264.87 169.559 265.063 169.993 265.45C170.426 265.837 170.643 266.357 170.643 267.01C170.643 267.717 170.226 268.487 169.393 269.32L167.603 271.1H170.773V272H166.253ZM176.208 271.14C175.735 271.8 175.072 272.13 174.218 272.13C173.365 272.13 172.702 271.8 172.228 271.14C171.755 270.48 171.518 269.6 171.518 268.5C171.518 267.4 171.755 266.52 172.228 265.86C172.702 265.2 173.365 264.87 174.218 264.87C175.072 264.87 175.735 265.2 176.208 265.86C176.682 266.52 176.918 267.4 176.918 268.5C176.918 269.6 176.682 270.48 176.208 271.14ZM172.908 270.51C173.215 270.983 173.652 271.22 174.218 271.22C174.785 271.22 175.222 270.983 175.528 270.51C175.842 270.037 175.998 269.367 175.998 268.5C175.998 267.633 175.842 266.963 175.528 266.49C175.222 266.01 174.785 265.77 174.218 265.77C173.652 265.77 173.215 266.007 172.908 266.48C172.602 266.953 172.448 267.627 172.448 268.5C172.448 269.367 172.602 270.037 172.908 270.51ZM177.6 272V271.24L180.07 268.72C180.73 268.06 181.06 267.493 181.06 267.02C181.06 266.627 180.94 266.32 180.7 266.1C180.46 265.88 180.167 265.77 179.82 265.77C179.16 265.77 178.68 266.083 178.38 266.71L177.6 266.25C177.82 265.797 178.124 265.453 178.51 265.22C178.904 264.987 179.337 264.87 179.81 264.87C180.397 264.87 180.907 265.063 181.34 265.45C181.774 265.837 181.99 266.357 181.99 267.01C181.99 267.717 181.574 268.487 180.74 269.32L178.95 271.1H182.12V272H177.6ZM185.136 267.73C185.796 267.73 186.352 267.927 186.806 268.32C187.266 268.707 187.496 269.243 187.496 269.93C187.496 270.61 187.262 271.147 186.796 271.54C186.329 271.933 185.762 272.13 185.096 272.13C184.562 272.13 184.086 272.003 183.666 271.75C183.246 271.49 182.952 271.117 182.786 270.63L183.576 270.18C183.669 270.52 183.849 270.78 184.116 270.96C184.382 271.133 184.709 271.22 185.096 271.22C185.536 271.22 185.892 271.107 186.166 270.88C186.439 270.653 186.576 270.337 186.576 269.93C186.576 269.523 186.439 269.207 186.166 268.98C185.892 268.747 185.542 268.63 185.116 268.63H183.136L183.396 265H187.226V265.87H184.236L184.116 267.73H185.136Z" fill="#1E1E1E"/>
<path d="M119.48 347C120.433 347 121.223 347.34 121.85 348.02C122.483 348.693 122.8 349.52 122.8 350.5C122.8 351.48 122.483 352.31 121.85 352.99C121.223 353.663 120.433 354 119.48 354H116.75V347H119.48ZM119.48 353.12C120.193 353.12 120.777 352.87 121.23 352.37C121.683 351.87 121.91 351.247 121.91 350.5C121.91 349.753 121.683 349.13 121.23 348.63C120.777 348.13 120.193 347.88 119.48 347.88H117.68V353.12H119.48ZM127.978 349H128.848V354H127.978V353.14C127.544 353.8 126.914 354.13 126.088 354.13C125.388 354.13 124.791 353.877 124.298 353.37C123.804 352.857 123.558 352.233 123.558 351.5C123.558 350.767 123.804 350.147 124.298 349.64C124.791 349.127 125.388 348.87 126.088 348.87C126.914 348.87 127.544 349.2 127.978 349.86V349ZM126.198 353.29C126.704 353.29 127.128 353.12 127.468 352.78C127.808 352.433 127.978 352.007 127.978 351.5C127.978 350.993 127.808 350.57 127.468 350.23C127.128 349.883 126.704 349.71 126.198 349.71C125.698 349.71 125.278 349.883 124.938 350.23C124.598 350.57 124.428 350.993 124.428 351.5C124.428 352.007 124.598 352.433 124.938 352.78C125.278 353.12 125.698 353.29 126.198 353.29ZM132.886 349.84H131.556V352.55C131.556 352.797 131.603 352.973 131.696 353.08C131.796 353.18 131.946 353.233 132.146 353.24C132.346 353.24 132.593 353.233 132.886 353.22V354C132.126 354.1 131.569 354.04 131.216 353.82C130.863 353.593 130.686 353.17 130.686 352.55V349.84H129.696V349H130.686V347.86L131.556 347.6V349H132.886V349.84ZM134.272 351.9C134.359 352.347 134.562 352.693 134.882 352.94C135.209 353.187 135.609 353.31 136.082 353.31C136.742 353.31 137.222 353.067 137.522 352.58L138.262 353C137.775 353.753 137.042 354.13 136.062 354.13C135.269 354.13 134.622 353.883 134.122 353.39C133.629 352.89 133.382 352.26 133.382 351.5C133.382 350.747 133.625 350.12 134.112 349.62C134.599 349.12 135.229 348.87 136.002 348.87C136.735 348.87 137.332 349.13 137.792 349.65C138.259 350.163 138.492 350.783 138.492 351.51C138.492 351.637 138.482 351.767 138.462 351.9H134.272ZM136.002 349.69C135.535 349.69 135.149 349.823 134.842 350.09C134.535 350.35 134.345 350.7 134.272 351.14H137.612C137.539 350.667 137.352 350.307 137.052 350.06C136.752 349.813 136.402 349.69 136.002 349.69ZM143.312 347H144.112V354H143.192V348L141.702 348.44L141.472 347.64L143.312 347ZM148.056 349.87C148.59 349.97 149.026 350.2 149.366 350.56C149.706 350.92 149.876 351.377 149.876 351.93C149.876 352.61 149.643 353.147 149.176 353.54C148.71 353.933 148.143 354.13 147.476 354.13C146.943 354.13 146.47 354.01 146.056 353.77C145.643 353.523 145.35 353.17 145.176 352.71L145.956 352.25C146.163 352.897 146.67 353.22 147.476 353.22C147.91 353.22 148.263 353.107 148.536 352.88C148.81 352.653 148.946 352.337 148.946 351.93C148.946 351.523 148.81 351.207 148.536 350.98C148.263 350.747 147.91 350.63 147.476 350.63H147.236L146.866 350.06L148.486 347.87H145.376V347H149.576V347.82L148.056 349.87ZM150.998 351.35V350.51H154.648V351.35H150.998ZM158.095 349.73C158.755 349.73 159.311 349.927 159.765 350.32C160.225 350.707 160.455 351.243 160.455 351.93C160.455 352.61 160.221 353.147 159.755 353.54C159.288 353.933 158.721 354.13 158.055 354.13C157.521 354.13 157.045 354.003 156.625 353.75C156.205 353.49 155.911 353.117 155.745 352.63L156.535 352.18C156.628 352.52 156.808 352.78 157.075 352.96C157.341 353.133 157.668 353.22 158.055 353.22C158.495 353.22 158.851 353.107 159.125 352.88C159.398 352.653 159.535 352.337 159.535 351.93C159.535 351.523 159.398 351.207 159.125 350.98C158.851 350.747 158.501 350.63 158.075 350.63H156.095L156.355 347H160.185V347.87H157.195L157.075 349.73H158.095ZM161.574 351.35V350.51H165.224V351.35H161.574ZM166.331 354V353.24L168.801 350.72C169.461 350.06 169.791 349.493 169.791 349.02C169.791 348.627 169.671 348.32 169.431 348.1C169.191 347.88 168.897 347.77 168.551 347.77C167.891 347.77 167.411 348.083 167.111 348.71L166.331 348.25C166.551 347.797 166.854 347.453 167.241 347.22C167.634 346.987 168.067 346.87 168.541 346.87C169.127 346.87 169.637 347.063 170.071 347.45C170.504 347.837 170.721 348.357 170.721 349.01C170.721 349.717 170.304 350.487 169.471 351.32L167.681 353.1H170.851V354H166.331ZM176.286 353.14C175.813 353.8 175.15 354.13 174.296 354.13C173.443 354.13 172.78 353.8 172.306 353.14C171.833 352.48 171.596 351.6 171.596 350.5C171.596 349.4 171.833 348.52 172.306 347.86C172.78 347.2 173.443 346.87 174.296 346.87C175.15 346.87 175.813 347.2 176.286 347.86C176.76 348.52 176.996 349.4 176.996 350.5C176.996 351.6 176.76 352.48 176.286 353.14ZM172.986 352.51C173.293 352.983 173.73 353.22 174.296 353.22C174.863 353.22 175.3 352.983 175.606 352.51C175.92 352.037 176.076 351.367 176.076 350.5C176.076 349.633 175.92 348.963 175.606 348.49C175.3 348.01 174.863 347.77 174.296 347.77C173.73 347.77 173.293 348.007 172.986 348.48C172.68 348.953 172.526 349.627 172.526 350.5C172.526 351.367 172.68 352.037 172.986 352.51ZM177.678 354V353.24L180.148 350.72C180.808 350.06 181.138 349.493 181.138 349.02C181.138 348.627 181.018 348.32 180.778 348.1C180.538 347.88 180.245 347.77 179.898 347.77C179.238 347.77 178.758 348.083 178.458 348.71L177.678 348.25C177.898 347.797 178.202 347.453 178.588 347.22C178.982 346.987 179.415 346.87 179.888 346.87C180.475 346.87 180.985 347.063 181.418 347.45C181.852 347.837 182.068 348.357 182.068 349.01C182.068 349.717 181.652 350.487 180.818 351.32L179.028 353.1H182.198V354H177.678ZM185.214 349.73C185.874 349.73 186.43 349.927 186.884 350.32C187.344 350.707 187.574 351.243 187.574 351.93C187.574 352.61 187.34 353.147 186.874 353.54C186.407 353.933 185.84 354.13 185.174 354.13C184.64 354.13 184.164 354.003 183.744 353.75C183.324 353.49 183.03 353.117 182.864 352.63L183.654 352.18C183.747 352.52 183.927 352.78 184.194 352.96C184.46 353.133 184.787 353.22 185.174 353.22C185.614 353.22 185.97 353.107 186.244 352.88C186.517 352.653 186.654 352.337 186.654 351.93C186.654 351.523 186.517 351.207 186.244 350.98C185.97 350.747 185.62 350.63 185.194 350.63H183.214L183.474 347H187.304V347.87H184.314L184.194 349.73H185.214Z" fill="#1E1E1E"/>
<path d="M406 100.365L407.636 102L416.547 93.0918C416.69 92.949 416.804 92.7793 416.882 92.5923C416.96 92.4053 417 92.2048 417 92.0023C417 91.7998 416.96 91.5993 416.882 91.4123C416.804 91.2254 416.69 91.0556 416.547 90.9129L407.636 82L406.002 83.6345L414.365 92L406 100.365Z" fill="black"/>
<path d="M85.5079 180L84.7099 177.802H80.2999L79.5019 180H78.1159L81.7699 170.2H83.2399L86.8939 180H85.5079ZM80.7479 176.584H84.2619L82.4979 171.754L80.7479 176.584Z" fill="black"/>
<path d="M83.3482 251.2C84.2535 251.2 85.0049 251.503 85.6022 252.11C86.2089 252.707 86.5122 253.454 86.5122 254.35C86.5122 255.237 86.2089 255.983 85.6022 256.59C85.0049 257.197 84.2535 257.5 83.3482 257.5H81.0942V261H79.7922V251.2H83.3482ZM83.3482 256.282C83.8895 256.282 84.3375 256.1 84.6922 255.736C85.0469 255.363 85.2242 254.901 85.2242 254.35C85.2242 253.79 85.0469 253.328 84.6922 252.964C84.3375 252.6 83.8895 252.418 83.3482 252.418H81.0942V256.282H83.3482Z" fill="black"/>
<path d="M83.3482 333.2C84.2535 333.2 85.0049 333.503 85.6022 334.11C86.2089 334.707 86.5122 335.454 86.5122 336.35C86.5122 337.237 86.2089 337.983 85.6022 338.59C85.0049 339.197 84.2535 339.5 83.3482 339.5H81.0942V343H79.7922V333.2H83.3482ZM83.3482 338.282C83.8895 338.282 84.3375 338.1 84.6922 337.736C85.0469 337.363 85.2242 336.901 85.2242 336.35C85.2242 335.79 85.0469 335.328 84.6922 334.964C84.3375 334.6 83.8895 334.418 83.3482 334.418H81.0942V338.282H83.3482Z" fill="black"/>
<path d="M352.672 168L350.782 164.7V164.26H351.002C351.356 164.26 351.652 164.227 351.892 164.16C352.139 164.093 352.332 163.983 352.472 163.83C352.612 163.677 352.696 163.467 352.722 163.2H350.782V162.56H352.712C352.666 162.313 352.572 162.113 352.432 161.96C352.292 161.8 352.102 161.683 351.862 161.61C351.629 161.537 351.342 161.5 351.002 161.5H350.782V160.86H354.922V161.5H353.032C353.186 161.627 353.312 161.777 353.412 161.95C353.512 162.123 353.576 162.327 353.602 162.56H354.922V163.2H353.622C353.576 163.687 353.389 164.067 353.062 164.34C352.742 164.607 352.316 164.777 351.782 164.85L353.692 168H352.672ZM359.245 163.84C359.718 163.98 360.102 164.227 360.395 164.58C360.695 164.927 360.845 165.347 360.845 165.84C360.845 166.56 360.602 167.123 360.115 167.53C359.635 167.937 359.045 168.14 358.345 168.14C357.798 168.14 357.308 168.017 356.875 167.77C356.448 167.517 356.138 167.147 355.945 166.66L357.125 165.98C357.298 166.52 357.705 166.79 358.345 166.79C358.698 166.79 358.972 166.707 359.165 166.54C359.365 166.367 359.465 166.133 359.465 165.84C359.465 165.553 359.365 165.323 359.165 165.15C358.972 164.977 358.698 164.89 358.345 164.89H358.045L357.515 164.09L358.895 162.29H356.155V161H360.555V162.14L359.245 163.84ZM363.259 166.62L362.509 169.4H361.459L361.859 166.62H363.259ZM369.412 165.53V166.81H368.662V168H367.272V166.81H363.962V165.53L366.292 161H367.772L365.452 165.53H367.272V163.87H368.662V165.53H369.412ZM372.353 163.55C373.026 163.55 373.593 163.753 374.053 164.16C374.513 164.56 374.743 165.12 374.743 165.84C374.743 166.56 374.499 167.123 374.013 167.53C373.533 167.937 372.943 168.14 372.243 168.14C371.676 168.14 371.176 168.013 370.743 167.76C370.309 167.507 369.996 167.133 369.803 166.64L370.983 165.95C371.156 166.51 371.576 166.79 372.243 166.79C372.596 166.79 372.869 166.707 373.063 166.54C373.263 166.367 373.363 166.133 373.363 165.84C373.363 165.553 373.266 165.323 373.073 165.15C372.879 164.977 372.616 164.89 372.283 164.89H370.163L370.443 161H374.413V162.29H371.723L371.633 163.55H372.353ZM374.966 161H379.486V162.17L377.116 168H375.656L377.956 162.32H374.966V161ZM380.524 166.62L379.774 169.4H378.724L379.124 166.62H380.524ZM385.398 164.36C386.044 164.747 386.368 165.31 386.368 166.05C386.368 166.697 386.141 167.207 385.688 167.58C385.241 167.953 384.631 168.14 383.858 168.14C383.078 168.14 382.464 167.953 382.018 167.58C381.571 167.207 381.348 166.697 381.348 166.05C381.348 165.31 381.668 164.747 382.308 164.36C381.821 164.007 381.578 163.523 381.578 162.91C381.578 162.263 381.794 161.76 382.228 161.4C382.668 161.04 383.211 160.86 383.858 160.86C384.504 160.86 385.044 161.04 385.478 161.4C385.911 161.76 386.128 162.263 386.128 162.91C386.128 163.53 385.884 164.013 385.398 164.36ZM384.508 162.38C384.341 162.233 384.124 162.16 383.858 162.16C383.591 162.16 383.374 162.233 383.208 162.38C383.041 162.527 382.958 162.727 382.958 162.98C382.958 163.233 383.041 163.437 383.208 163.59C383.374 163.737 383.591 163.81 383.858 163.81C384.124 163.81 384.341 163.737 384.508 163.59C384.674 163.437 384.758 163.233 384.758 162.98C384.758 162.727 384.674 162.527 384.508 162.38ZM383.028 166.59C383.241 166.757 383.518 166.84 383.858 166.84C384.198 166.84 384.471 166.757 384.678 166.59C384.891 166.417 384.998 166.177 384.998 165.87C384.998 165.57 384.891 165.337 384.678 165.17C384.471 164.997 384.198 164.91 383.858 164.91C383.518 164.91 383.241 164.997 383.028 165.17C382.821 165.337 382.718 165.57 382.718 165.87C382.718 166.177 382.821 166.417 383.028 166.59ZM389.851 168.14C388.978 168.14 388.291 167.81 387.791 167.15C387.298 166.483 387.051 165.6 387.051 164.5C387.051 163.4 387.298 162.52 387.791 161.86C388.291 161.193 388.978 160.86 389.851 160.86C390.731 160.86 391.418 161.193 391.911 161.86C392.405 162.52 392.651 163.4 392.651 164.5C392.651 165.6 392.405 166.483 391.911 167.15C391.418 167.81 390.731 168.14 389.851 168.14ZM388.791 166.21C389.031 166.597 389.385 166.79 389.851 166.79C390.318 166.79 390.671 166.593 390.911 166.2C391.158 165.807 391.281 165.24 391.281 164.5C391.281 163.753 391.158 163.183 390.911 162.79C390.671 162.397 390.318 162.2 389.851 162.2C389.385 162.2 389.031 162.397 388.791 162.79C388.551 163.183 388.431 163.753 388.431 164.5C388.431 165.247 388.551 165.817 388.791 166.21Z" fill="#1E1E1E"/>
<path d="M352.672 252L350.782 248.7V248.26H351.002C351.356 248.26 351.652 248.227 351.892 248.16C352.139 248.093 352.332 247.983 352.472 247.83C352.612 247.677 352.696 247.467 352.722 247.2H350.782V246.56H352.712C352.666 246.313 352.572 246.113 352.432 245.96C352.292 245.8 352.102 245.683 351.862 245.61C351.629 245.537 351.342 245.5 351.002 245.5H350.782V244.86H354.922V245.5H353.032C353.186 245.627 353.312 245.777 353.412 245.95C353.512 246.123 353.576 246.327 353.602 246.56H354.922V247.2H353.622C353.576 247.687 353.389 248.067 353.062 248.34C352.742 248.607 352.316 248.777 351.782 248.85L353.692 252H352.672ZM359.245 247.84C359.718 247.98 360.102 248.227 360.395 248.58C360.695 248.927 360.845 249.347 360.845 249.84C360.845 250.56 360.602 251.123 360.115 251.53C359.635 251.937 359.045 252.14 358.345 252.14C357.798 252.14 357.308 252.017 356.875 251.77C356.448 251.517 356.138 251.147 355.945 250.66L357.125 249.98C357.298 250.52 357.705 250.79 358.345 250.79C358.698 250.79 358.972 250.707 359.165 250.54C359.365 250.367 359.465 250.133 359.465 249.84C359.465 249.553 359.365 249.323 359.165 249.15C358.972 248.977 358.698 248.89 358.345 248.89H358.045L357.515 248.09L358.895 246.29H356.155V245H360.555V246.14L359.245 247.84ZM363.259 250.62L362.509 253.4H361.459L361.859 250.62H363.259ZM369.412 249.53V250.81H368.662V252H367.272V250.81H363.962V249.53L366.292 245H367.772L365.452 249.53H367.272V247.87H368.662V249.53H369.412ZM372.353 247.55C373.026 247.55 373.593 247.753 374.053 248.16C374.513 248.56 374.743 249.12 374.743 249.84C374.743 250.56 374.499 251.123 374.013 251.53C373.533 251.937 372.943 252.14 372.243 252.14C371.676 252.14 371.176 252.013 370.743 251.76C370.309 251.507 369.996 251.133 369.803 250.64L370.983 249.95C371.156 250.51 371.576 250.79 372.243 250.79C372.596 250.79 372.869 250.707 373.063 250.54C373.263 250.367 373.363 250.133 373.363 249.84C373.363 249.553 373.266 249.323 373.073 249.15C372.879 248.977 372.616 248.89 372.283 248.89H370.163L370.443 245H374.413V246.29H371.723L371.633 247.55H372.353ZM374.966 245H379.486V246.17L377.116 252H375.656L377.956 246.32H374.966V245ZM380.524 250.62L379.774 253.4H378.724L379.124 250.62H380.524ZM385.398 248.36C386.044 248.747 386.368 249.31 386.368 250.05C386.368 250.697 386.141 251.207 385.688 251.58C385.241 251.953 384.631 252.14 383.858 252.14C383.078 252.14 382.464 251.953 382.018 251.58C381.571 251.207 381.348 250.697 381.348 250.05C381.348 249.31 381.668 248.747 382.308 248.36C381.821 248.007 381.578 247.523 381.578 246.91C381.578 246.263 381.794 245.76 382.228 245.4C382.668 245.04 383.211 244.86 383.858 244.86C384.504 244.86 385.044 245.04 385.478 245.4C385.911 245.76 386.128 246.263 386.128 246.91C386.128 247.53 385.884 248.013 385.398 248.36ZM384.508 246.38C384.341 246.233 384.124 246.16 383.858 246.16C383.591 246.16 383.374 246.233 383.208 246.38C383.041 246.527 382.958 246.727 382.958 246.98C382.958 247.233 383.041 247.437 383.208 247.59C383.374 247.737 383.591 247.81 383.858 247.81C384.124 247.81 384.341 247.737 384.508 247.59C384.674 247.437 384.758 247.233 384.758 246.98C384.758 246.727 384.674 246.527 384.508 246.38ZM383.028 250.59C383.241 250.757 383.518 250.84 383.858 250.84C384.198 250.84 384.471 250.757 384.678 250.59C384.891 250.417 384.998 250.177 384.998 249.87C384.998 249.57 384.891 249.337 384.678 249.17C384.471 248.997 384.198 248.91 383.858 248.91C383.518 248.91 383.241 248.997 383.028 249.17C382.821 249.337 382.718 249.57 382.718 249.87C382.718 250.177 382.821 250.417 383.028 250.59ZM389.851 252.14C388.978 252.14 388.291 251.81 387.791 251.15C387.298 250.483 387.051 249.6 387.051 248.5C387.051 247.4 387.298 246.52 387.791 245.86C388.291 245.193 388.978 244.86 389.851 244.86C390.731 244.86 391.418 245.193 391.911 245.86C392.405 246.52 392.651 247.4 392.651 248.5C392.651 249.6 392.405 250.483 391.911 251.15C391.418 251.81 390.731 252.14 389.851 252.14ZM388.791 250.21C389.031 250.597 389.385 250.79 389.851 250.79C390.318 250.79 390.671 250.593 390.911 250.2C391.158 249.807 391.281 249.24 391.281 248.5C391.281 247.753 391.158 247.183 390.911 246.79C390.671 246.397 390.318 246.2 389.851 246.2C389.385 246.2 389.031 246.397 388.791 246.79C388.551 247.183 388.431 247.753 388.431 248.5C388.431 249.247 388.551 249.817 388.791 250.21Z" fill="#1E1E1E"/>
<path d="M352.672 336L350.782 332.7V332.26H351.002C351.356 332.26 351.652 332.227 351.892 332.16C352.139 332.093 352.332 331.983 352.472 331.83C352.612 331.677 352.696 331.467 352.722 331.2H350.782V330.56H352.712C352.666 330.313 352.572 330.113 352.432 329.96C352.292 329.8 352.102 329.683 351.862 329.61C351.629 329.537 351.342 329.5 351.002 329.5H350.782V328.86H354.922V329.5H353.032C353.186 329.627 353.312 329.777 353.412 329.95C353.512 330.123 353.576 330.327 353.602 330.56H354.922V331.2H353.622C353.576 331.687 353.389 332.067 353.062 332.34C352.742 332.607 352.316 332.777 351.782 332.85L353.692 336H352.672ZM359.245 331.84C359.718 331.98 360.102 332.227 360.395 332.58C360.695 332.927 360.845 333.347 360.845 333.84C360.845 334.56 360.602 335.123 360.115 335.53C359.635 335.937 359.045 336.14 358.345 336.14C357.798 336.14 357.308 336.017 356.875 335.77C356.448 335.517 356.138 335.147 355.945 334.66L357.125 333.98C357.298 334.52 357.705 334.79 358.345 334.79C358.698 334.79 358.972 334.707 359.165 334.54C359.365 334.367 359.465 334.133 359.465 333.84C359.465 333.553 359.365 333.323 359.165 333.15C358.972 332.977 358.698 332.89 358.345 332.89H358.045L357.515 332.09L358.895 330.29H356.155V329H360.555V330.14L359.245 331.84ZM363.259 334.62L362.509 337.4H361.459L361.859 334.62H363.259ZM369.412 333.53V334.81H368.662V336H367.272V334.81H363.962V333.53L366.292 329H367.772L365.452 333.53H367.272V331.87H368.662V333.53H369.412ZM372.353 331.55C373.026 331.55 373.593 331.753 374.053 332.16C374.513 332.56 374.743 333.12 374.743 333.84C374.743 334.56 374.499 335.123 374.013 335.53C373.533 335.937 372.943 336.14 372.243 336.14C371.676 336.14 371.176 336.013 370.743 335.76C370.309 335.507 369.996 335.133 369.803 334.64L370.983 333.95C371.156 334.51 371.576 334.79 372.243 334.79C372.596 334.79 372.869 334.707 373.063 334.54C373.263 334.367 373.363 334.133 373.363 333.84C373.363 333.553 373.266 333.323 373.073 333.15C372.879 332.977 372.616 332.89 372.283 332.89H370.163L370.443 329H374.413V330.29H371.723L371.633 331.55H372.353ZM374.966 329H379.486V330.17L377.116 336H375.656L377.956 330.32H374.966V329ZM380.524 334.62L379.774 337.4H378.724L379.124 334.62H380.524ZM385.398 332.36C386.044 332.747 386.368 333.31 386.368 334.05C386.368 334.697 386.141 335.207 385.688 335.58C385.241 335.953 384.631 336.14 383.858 336.14C383.078 336.14 382.464 335.953 382.018 335.58C381.571 335.207 381.348 334.697 381.348 334.05C381.348 333.31 381.668 332.747 382.308 332.36C381.821 332.007 381.578 331.523 381.578 330.91C381.578 330.263 381.794 329.76 382.228 329.4C382.668 329.04 383.211 328.86 383.858 328.86C384.504 328.86 385.044 329.04 385.478 329.4C385.911 329.76 386.128 330.263 386.128 330.91C386.128 331.53 385.884 332.013 385.398 332.36ZM384.508 330.38C384.341 330.233 384.124 330.16 383.858 330.16C383.591 330.16 383.374 330.233 383.208 330.38C383.041 330.527 382.958 330.727 382.958 330.98C382.958 331.233 383.041 331.437 383.208 331.59C383.374 331.737 383.591 331.81 383.858 331.81C384.124 331.81 384.341 331.737 384.508 331.59C384.674 331.437 384.758 331.233 384.758 330.98C384.758 330.727 384.674 330.527 384.508 330.38ZM383.028 334.59C383.241 334.757 383.518 334.84 383.858 334.84C384.198 334.84 384.471 334.757 384.678 334.59C384.891 334.417 384.998 334.177 384.998 333.87C384.998 333.57 384.891 333.337 384.678 333.17C384.471 332.997 384.198 332.91 383.858 332.91C383.518 332.91 383.241 332.997 383.028 333.17C382.821 333.337 382.718 333.57 382.718 333.87C382.718 334.177 382.821 334.417 383.028 334.59ZM389.851 336.14C388.978 336.14 388.291 335.81 387.791 335.15C387.298 334.483 387.051 333.6 387.051 332.5C387.051 331.4 387.298 330.52 387.791 329.86C388.291 329.193 388.978 328.86 389.851 328.86C390.731 328.86 391.418 329.193 391.911 329.86C392.405 330.52 392.651 331.4 392.651 332.5C392.651 333.6 392.405 334.483 391.911 335.15C391.418 335.81 390.731 336.14 389.851 336.14ZM388.791 334.21C389.031 334.597 389.385 334.79 389.851 334.79C390.318 334.79 390.671 334.593 390.911 334.2C391.158 333.807 391.281 333.24 391.281 332.5C391.281 331.753 391.158 331.183 390.911 330.79C390.671 330.397 390.318 330.2 389.851 330.2C389.385 330.2 389.031 330.397 388.791 330.79C388.551 331.183 388.431 331.753 388.431 332.5C388.431 333.247 388.551 333.817 388.791 334.21Z" fill="#1E1E1E"/>
<defs>
<filter id="filter0_d_1086_1027" x="31" y="126" width="406" height="107" filterUnits="userSpaceOnUse" color-interpolation-filters="sRGB">
<feFlood flood-opacity="0" result="BackgroundImageFix"/>
<feColorMatrix in="SourceAlpha" type="matrix" values="0 0 0 0 0 0 0 0 0 0 0 0 0 0 0 0 0 0 127 0" result="hardAlpha"/>
<feOffset dy="4"/>
<feGaussianBlur stdDeviation="10"/>
<feComposite in2="hardAlpha" operator="out"/>
<feColorMatrix type="matrix" values="0 0 0 0 0.0392157 0 0 0 0 0.0470588 0 0 0 0 0.2 0 0 0 0.03 0"/>
<feBlend mode="normal" in2="BackgroundImageFix" result="effect1_dropShadow_1086_1027"/>
<feBlend mode="normal" in="SourceGraphic" in2="effect1_dropShadow_1086_1027" result="shape"/>
</filter>
<filter id="filter1_d_1086_1027" x="31" y="208" width="406" height="107" filterUnits="userSpaceOnUse" color-interpolation-filters="sRGB">
<feFlood flood-opacity="0" result="BackgroundImageFix"/>
<feColorMatrix in="SourceAlpha" type="matrix" values="0 0 0 0 0 0 0 0 0 0 0 0 0 0 0 0 0 0 127 0" result="hardAlpha"/>
<feOffset dy="4"/>
<feGaussianBlur stdDeviation="10"/>
<feComposite in2="hardAlpha" operator="out"/>
<feColorMatrix type="matrix" values="0 0 0 0 0.0392157 0 0 0 0 0.0470588 0 0 0 0 0.2 0 0 0 0.03 0"/>
<feBlend mode="normal" in2="BackgroundImageFix" result="effect1_dropShadow_1086_1027"/>
<feBlend mode="normal" in="SourceGraphic" in2="effect1_dropShadow_1086_1027" result="shape"/>
</filter>
<filter id="filter2_d_1086_1027" x="31" y="290" width="406" height="107" filterUnits="userSpaceOnUse" color-interpolation-filters="sRGB">
<feFlood flood-opacity="0" result="BackgroundImageFix"/>
<feColorMatrix in="SourceAlpha" type="matrix" values="0 0 0 0 0 0 0 0 0 0 0 0 0 0 0 0 0 0 127 0" result="hardAlpha"/>
<feOffset dy="4"/>
<feGaussianBlur stdDeviation="10"/>
<feComposite in2="hardAlpha" operator="out"/>
<feColorMatrix type="matrix" values="0 0 0 0 0.0392157 0 0 0 0 0.0470588 0 0 0 0 0.2 0 0 0 0.03 0"/>
<feBlend mode="normal" in2="BackgroundImageFix" result="effect1_dropShadow_1086_1027"/>
<feBlend mode="normal" in="SourceGraphic" in2="effect1_dropShadow_1086_1027" result="shape"/>
</filter>
</defs>
</svg>
