<svg width="547" height="484" viewBox="0 0 547 484" fill="none" xmlns="http://www.w3.org/2000/svg">
<rect width="547" height="484" rx="20" fill="white"/>
<rect x="0.5" y="0.5" width="546" height="483" rx="19.5" stroke="#0A0C33" stroke-opacity="0.1"/>
<path fill-rule="evenodd" clip-rule="evenodd" d="M36 310C35.4696 310 34.9609 310.211 34.5858 310.586C34.2107 310.961 34 311.47 34 312V326C34 326.53 34.2107 327.039 34.5858 327.414C34.9609 327.789 35.4696 328 36 328H50C50.5304 328 51.0391 327.789 51.4142 327.414C51.7893 327.039 52 326.53 52 326V312C52 311.47 51.7893 310.961 51.4142 310.586C51.0391 310.211 50.5304 310 50 310H36ZM47.95 316.796C48.1376 316.608 48.2431 316.354 48.2432 316.089C48.2433 315.824 48.138 315.569 47.9505 315.382C47.763 315.194 47.5086 315.088 47.2434 315.088C46.9781 315.088 46.7236 315.193 46.536 315.381L41.586 320.331L39.465 318.21C39.3722 318.117 39.2619 318.043 39.1406 317.993C39.0193 317.943 38.8892 317.917 38.7579 317.917C38.4926 317.917 38.2381 318.022 38.0505 318.21C37.8629 318.397 37.7574 318.651 37.7573 318.917C37.7572 319.182 37.8625 319.436 38.05 319.624L40.808 322.382C40.9102 322.484 41.0314 322.565 41.1649 322.621C41.2984 322.676 41.4415 322.704 41.586 322.704C41.7305 322.704 41.8736 322.676 42.0071 322.621C42.1406 322.565 42.2618 322.484 42.364 322.382L47.95 316.796Z" fill="#0A0C33"/>
<rect x="75.1289" y="315.452" width="113" height="9" rx="4.5" fill="#ECECEC"/>
<path fill-rule="evenodd" clip-rule="evenodd" d="M36 349C35.4696 349 34.9609 349.211 34.5858 349.586C34.2107 349.961 34 350.47 34 351V365C34 365.53 34.2107 366.039 34.5858 366.414C34.9609 366.789 35.4696 367 36 367H50C50.5304 367 51.0391 366.789 51.4142 366.414C51.7893 366.039 52 365.53 52 365V351C52 350.47 51.7893 349.961 51.4142 349.586C51.0391 349.211 50.5304 349 50 349H36ZM47.95 355.796C48.1376 355.608 48.2431 355.354 48.2432 355.089C48.2433 354.824 48.138 354.569 47.9505 354.382C47.763 354.194 47.5086 354.088 47.2434 354.088C46.9781 354.088 46.7236 354.193 46.536 354.381L41.586 359.331L39.465 357.21C39.3722 357.117 39.2619 357.043 39.1406 356.993C39.0193 356.943 38.8892 356.917 38.7579 356.917C38.4926 356.917 38.2381 357.022 38.0505 357.21C37.8629 357.397 37.7574 357.651 37.7573 357.917C37.7572 358.182 37.8625 358.436 38.05 358.624L40.808 361.382C40.9102 361.484 41.0314 361.565 41.1649 361.621C41.2984 361.676 41.4415 361.704 41.586 361.704C41.7305 361.704 41.8736 361.676 42.0071 361.621C42.1406 361.565 42.2618 361.484 42.364 361.382L47.95 355.796Z" fill="#0A0C33"/>
<rect x="75.1289" y="354" width="146" height="9" rx="4.5" fill="#ECECEC"/>
<path fill-rule="evenodd" clip-rule="evenodd" d="M36 388C35.4696 388 34.9609 388.211 34.5858 388.586C34.2107 388.961 34 389.47 34 390V404C34 404.53 34.2107 405.039 34.5858 405.414C34.9609 405.789 35.4696 406 36 406H50C50.5304 406 51.0391 405.789 51.4142 405.414C51.7893 405.039 52 404.53 52 404V390C52 389.47 51.7893 388.961 51.4142 388.586C51.0391 388.211 50.5304 388 50 388H36ZM47.95 394.796C48.1376 394.608 48.2431 394.354 48.2432 394.089C48.2433 393.824 48.138 393.569 47.9505 393.382C47.763 393.194 47.5086 393.088 47.2434 393.088C46.9781 393.088 46.7236 393.193 46.536 393.381L41.586 398.331L39.465 396.21C39.3722 396.117 39.2619 396.043 39.1406 395.993C39.0193 395.943 38.8892 395.917 38.7579 395.917C38.4926 395.917 38.2381 396.022 38.0505 396.21C37.8629 396.397 37.7574 396.651 37.7573 396.917C37.7572 397.182 37.8625 397.436 38.05 397.624L40.808 400.382C40.9102 400.484 41.0314 400.565 41.1649 400.621C41.2984 400.676 41.4415 400.704 41.586 400.704C41.7305 400.704 41.8736 400.676 42.0071 400.621C42.1406 400.565 42.2618 400.484 42.364 400.382L47.95 394.796Z" fill="#0A0C33"/>
<rect x="75.1289" y="393" width="79" height="9" rx="4.5" fill="#ECECEC"/>
<path fill-rule="evenodd" clip-rule="evenodd" d="M36 427C35.4696 427 34.9609 427.211 34.5858 427.586C34.2107 427.961 34 428.47 34 429V443C34 443.53 34.2107 444.039 34.5858 444.414C34.9609 444.789 35.4696 445 36 445H50C50.5304 445 51.0391 444.789 51.4142 444.414C51.7893 444.039 52 443.53 52 443V429C52 428.47 51.7893 427.961 51.4142 427.586C51.0391 427.211 50.5304 427 50 427H36ZM47.95 433.796C48.1376 433.608 48.2431 433.354 48.2432 433.089C48.2433 432.824 48.138 432.569 47.9505 432.382C47.763 432.194 47.5086 432.088 47.2434 432.088C46.9781 432.088 46.7236 432.193 46.536 432.381L41.586 437.331L39.465 435.21C39.3722 435.117 39.2619 435.043 39.1406 434.993C39.0193 434.943 38.8892 434.917 38.7579 434.917C38.4926 434.917 38.2381 435.022 38.0505 435.21C37.8629 435.397 37.7574 435.651 37.7573 435.917C37.7572 436.182 37.8625 436.436 38.05 436.624L40.808 439.382C40.9102 439.484 41.0314 439.565 41.1649 439.621C41.2984 439.676 41.4415 439.704 41.586 439.704C41.7305 439.704 41.8736 439.676 42.0071 439.621C42.1406 439.565 42.2618 439.484 42.364 439.382L47.95 433.796Z" fill="#0A0C33"/>
<rect x="75.1289" y="432" width="133" height="9" rx="4.5" fill="#ECECEC"/>
<path d="M36.1806 267.529C37.1773 267.529 38.026 267.907 38.7267 268.662C39.4372 269.407 39.7925 270.323 39.7925 271.412C39.7925 272.5 39.4372 273.422 38.7267 274.176C38.026 274.922 37.1773 275.294 36.1806 275.294C35.1444 275.294 34.3451 274.936 33.7826 274.221V275.088H31.873V264.794H33.7826V268.603C34.3451 267.887 35.1444 267.529 36.1806 267.529ZM34.3599 272.912C34.7448 273.294 35.2332 273.485 35.8253 273.485C36.4175 273.485 36.9059 273.294 37.2908 272.912C37.6856 272.52 37.8829 272.02 37.8829 271.412C37.8829 270.804 37.6856 270.309 37.2908 269.926C36.9059 269.534 36.4175 269.338 35.8253 269.338C35.2332 269.338 34.7448 269.534 34.3599 269.926C33.975 270.309 33.7826 270.804 33.7826 271.412C33.7826 272.02 33.975 272.52 34.3599 272.912ZM42.1605 269C42.3382 268.529 42.6293 268.176 43.0339 267.941C43.4484 267.706 43.9072 267.588 44.4105 267.588V269.706C43.8283 269.637 43.3053 269.755 42.8415 270.059C42.3875 270.363 42.1605 270.868 42.1605 271.573V275.088H40.251V267.735H42.1605V269ZM45.5865 266.853C45.2707 266.853 44.9944 266.74 44.7576 266.515C44.5306 266.279 44.4171 266.005 44.4171 265.691C44.4171 265.377 44.5306 265.103 44.7576 264.868C44.9944 264.632 45.2707 264.515 45.5865 264.515C45.9122 264.515 46.1885 264.632 46.4154 264.868C46.6523 265.103 46.7707 265.377 46.7707 265.691C46.7707 266.005 46.6523 266.279 46.4154 266.515C46.1885 266.74 45.9122 266.853 45.5865 266.853ZM44.6392 275.088V267.735H46.5487V275.088H44.6392ZM53.0185 264.794H54.928V275.088H53.0185V274.221C52.456 274.936 51.6566 275.294 50.6204 275.294C49.6238 275.294 48.7701 274.922 48.0596 274.176C47.359 273.422 47.0086 272.5 47.0086 271.412C47.0086 270.323 47.359 269.407 48.0596 268.662C48.7701 267.907 49.6238 267.529 50.6204 267.529C51.6566 267.529 52.456 267.887 53.0185 268.603V264.794ZM49.4954 272.912C49.8902 273.294 50.3836 273.485 50.9757 273.485C51.5678 273.485 52.0563 273.294 52.4412 272.912C52.826 272.52 53.0185 272.02 53.0185 271.412C53.0185 270.804 52.826 270.309 52.4412 269.926C52.0563 269.534 51.5678 269.338 50.9757 269.338C50.3836 269.338 49.8902 269.534 49.4954 269.926C49.1106 270.309 48.9181 270.804 48.9181 271.412C48.9181 272.02 49.1106 272.52 49.4954 272.912ZM61.4557 267.735H63.3208V274.735C63.3208 275.872 62.9408 276.74 62.181 277.338C61.4309 277.936 60.5231 278.235 59.4573 278.235C58.658 278.235 57.9523 278.083 57.3405 277.779C56.7385 277.475 56.2747 277.029 55.9491 276.441L57.5774 275.515C57.9523 276.201 58.5988 276.544 59.5165 276.544C60.1185 276.544 60.5922 276.387 60.9376 276.073C61.2829 275.76 61.4557 275.314 61.4557 274.735V273.941C60.8932 274.686 60.1037 275.059 59.0872 275.059C58.0411 275.059 57.1629 274.696 56.4524 273.971C55.7518 273.235 55.4014 272.343 55.4014 271.294C55.4014 270.255 55.7566 269.368 56.4672 268.632C57.1777 267.897 58.0511 267.529 59.0872 267.529C60.1037 267.529 60.8932 267.902 61.4557 268.647V267.735ZM57.8882 272.75C58.283 273.122 58.7813 273.309 59.3833 273.309C59.9853 273.309 60.4787 273.122 60.8636 272.75C61.2583 272.368 61.4557 271.882 61.4557 271.294C61.4557 270.716 61.2583 270.24 60.8636 269.868C60.4787 269.485 59.9853 269.294 59.3833 269.294C58.7813 269.294 58.283 269.485 57.8882 269.868C57.5034 270.24 57.3109 270.716 57.3109 271.294C57.3109 271.882 57.5034 272.368 57.8882 272.75Z" fill="#1E1E1E"/>
<path d="M65.9338 274.941C66.6696 274.941 67.266 274.349 67.266 273.618C67.266 272.887 66.6696 272.294 65.9338 272.294C65.198 272.294 64.6016 272.887 64.6016 273.618C64.6016 274.349 65.198 274.941 65.9338 274.941Z" fill="#A5EB14"/>
<path d="M40.0589 279.294C40.9076 279.294 41.5836 279.569 42.0869 280.117C42.6 280.666 42.8566 281.402 42.8566 282.323V286.853H40.9471V282.456C40.9471 282.015 40.8385 281.671 40.6214 281.426C40.4043 281.181 40.0984 281.059 39.7036 281.059C39.2694 281.059 38.929 281.201 38.6823 281.485C38.4454 281.769 38.327 282.181 38.327 282.72V286.853H36.4175V282.456C36.4175 282.015 36.3089 281.671 36.0918 281.426C35.8747 281.181 35.5688 281.059 35.174 281.059C34.7497 281.059 34.4092 281.201 34.1527 281.485C33.9059 281.769 33.7826 282.181 33.7826 282.72V286.853H31.873V279.5H33.7826V280.279C34.2267 279.622 34.9125 279.294 35.8402 279.294C36.748 279.294 37.4191 279.647 37.8533 280.353C38.3467 279.647 39.0819 279.294 40.0589 279.294ZM49.8961 285.941C49.1363 286.686 48.2086 287.059 47.1132 287.059C46.0178 287.059 45.0903 286.686 44.3304 285.941C43.5804 285.186 43.2054 284.265 43.2054 283.176C43.2054 282.088 43.5804 281.171 44.3304 280.426C45.0903 279.671 46.0178 279.294 47.1132 279.294C48.2086 279.294 49.1363 279.671 49.8961 280.426C50.6561 281.171 51.0359 282.088 51.0359 283.176C51.0359 284.265 50.6561 285.186 49.8961 285.941ZM45.6774 284.632C46.0623 285.015 46.541 285.206 47.1132 285.206C47.6857 285.206 48.1642 285.015 48.5491 284.632C48.934 284.25 49.1264 283.765 49.1264 283.176C49.1264 282.588 48.934 282.103 48.5491 281.72C48.1642 281.338 47.6857 281.147 47.1132 281.147C46.541 281.147 46.0623 281.338 45.6774 281.72C45.3024 282.103 45.1149 282.588 45.1149 283.176C45.1149 283.765 45.3024 284.25 45.6774 284.632ZM55.6063 279.294C56.4155 279.294 57.0816 279.564 57.6046 280.103C58.1375 280.642 58.404 281.387 58.404 282.338V286.853H56.4944V282.573C56.4944 282.083 56.3612 281.711 56.0947 281.456C55.8283 281.191 55.473 281.059 55.029 281.059C54.5356 281.059 54.1408 281.211 53.8447 281.515C53.5487 281.819 53.4007 282.274 53.4007 282.882V286.853H51.4911V279.5H53.4007V280.323C53.8646 279.637 54.5997 279.294 55.6063 279.294ZM60.7598 283.956C61.0163 284.877 61.712 285.338 62.847 285.338C63.5772 285.338 64.1299 285.093 64.5049 284.603L66.0443 285.485C65.3141 286.534 64.2384 287.059 62.8174 287.059C61.5936 287.059 60.6118 286.691 59.8716 285.956C59.1315 285.22 58.7614 284.294 58.7614 283.176C58.7614 282.069 59.1266 281.147 59.8568 280.412C60.587 279.666 61.5246 279.294 62.6693 279.294C63.7548 279.294 64.648 279.666 65.3486 280.412C66.0591 281.157 66.4144 282.078 66.4144 283.176C66.4144 283.421 66.3897 283.681 66.3404 283.956H60.7598ZM60.7302 282.485H64.5049C64.3964 281.985 64.1693 281.613 63.8239 281.367C63.4884 281.122 63.1035 281 62.6693 281C62.1561 281 61.7319 281.132 61.3963 281.397C61.0607 281.652 60.8387 282.015 60.7302 282.485ZM71.3958 279.5H73.4385L70.7445 286.853C70.3596 287.912 69.8465 288.676 69.205 289.147C68.5735 289.627 67.7839 289.843 66.8366 289.794V288.029C67.3498 288.039 67.7543 287.931 68.0504 287.706C68.3564 287.48 68.5981 287.117 68.7757 286.617L65.7412 279.5H67.8283L69.7527 284.441L71.3958 279.5Z" fill="#1E1E1E"/>
<rect x="148" y="265" width="75" height="24" rx="12" fill="#0A0C33"/>
<path d="M170.432 274C171.105 274 171.672 274.227 172.132 274.68C172.592 275.133 172.822 275.69 172.822 276.35C172.822 277.01 172.592 277.567 172.132 278.02C171.672 278.473 171.105 278.7 170.432 278.7H169.202V281H167.822V274H170.432ZM170.432 277.41C170.725 277.41 170.969 277.31 171.162 277.11C171.355 276.903 171.452 276.65 171.452 276.35C171.452 276.043 171.355 275.79 171.162 275.59C170.969 275.39 170.725 275.29 170.432 275.29H169.202V277.41H170.432ZM177.128 276H178.418V281H177.128V280.41C176.742 280.897 176.198 281.14 175.498 281.14C174.832 281.14 174.258 280.887 173.778 280.38C173.305 279.867 173.068 279.24 173.068 278.5C173.068 277.76 173.305 277.137 173.778 276.63C174.258 276.117 174.832 275.86 175.498 275.86C176.198 275.86 176.742 276.103 177.128 276.59V276ZM174.748 279.52C175.008 279.78 175.338 279.91 175.738 279.91C176.138 279.91 176.468 279.78 176.728 279.52C176.995 279.253 177.128 278.913 177.128 278.5C177.128 278.087 176.995 277.75 176.728 277.49C176.468 277.223 176.138 277.09 175.738 277.09C175.338 277.09 175.008 277.223 174.748 277.49C174.488 277.75 174.358 278.087 174.358 278.5C174.358 278.913 174.488 279.253 174.748 279.52ZM182.848 276H184.228L182.408 281C182.148 281.72 181.801 282.24 181.368 282.56C180.941 282.887 180.408 283.033 179.768 283V281.8C180.115 281.807 180.388 281.733 180.588 281.58C180.795 281.427 180.958 281.18 181.078 280.84L179.028 276H180.438L181.738 279.36L182.848 276ZM191.632 277.37C192.245 277.723 192.552 278.257 192.552 278.97C192.552 279.563 192.342 280.05 191.922 280.43C191.502 280.81 190.985 281 190.372 281H187.402V274H190.162C190.762 274 191.265 274.187 191.672 274.56C192.085 274.927 192.292 275.397 192.292 275.97C192.292 276.55 192.072 277.017 191.632 277.37ZM190.162 275.29H188.782V276.83H190.162C190.375 276.83 190.552 276.757 190.692 276.61C190.839 276.463 190.912 276.28 190.912 276.06C190.912 275.84 190.842 275.657 190.702 275.51C190.562 275.363 190.382 275.29 190.162 275.29ZM190.372 279.71C190.605 279.71 190.799 279.633 190.952 279.48C191.105 279.32 191.182 279.12 191.182 278.88C191.182 278.647 191.105 278.453 190.952 278.3C190.799 278.14 190.605 278.06 190.372 278.06H188.782V279.71H190.372ZM194.037 275.4C193.823 275.4 193.637 275.323 193.477 275.17C193.323 275.01 193.247 274.823 193.247 274.61C193.247 274.397 193.323 274.21 193.477 274.05C193.637 273.89 193.823 273.81 194.037 273.81C194.257 273.81 194.443 273.89 194.597 274.05C194.757 274.21 194.837 274.397 194.837 274.61C194.837 274.823 194.757 275.01 194.597 275.17C194.443 275.323 194.257 275.4 194.037 275.4ZM193.397 281V276H194.687V281H193.397ZM195.867 281V273.7H197.157V281H195.867ZM198.338 281V273.7H199.628V281H198.338ZM201.96 277.42C201.96 277.553 202.046 277.663 202.22 277.75C202.4 277.83 202.616 277.903 202.87 277.97C203.123 278.03 203.376 278.11 203.63 278.21C203.883 278.303 204.096 278.463 204.27 278.69C204.45 278.917 204.54 279.2 204.54 279.54C204.54 280.053 204.346 280.45 203.96 280.73C203.58 281.003 203.103 281.14 202.53 281.14C201.503 281.14 200.803 280.743 200.43 279.95L201.55 279.32C201.696 279.753 202.023 279.97 202.53 279.97C202.99 279.97 203.22 279.827 203.22 279.54C203.22 279.407 203.13 279.3 202.95 279.22C202.776 279.133 202.563 279.057 202.31 278.99C202.056 278.923 201.803 278.84 201.55 278.74C201.296 278.64 201.08 278.483 200.9 278.27C200.726 278.05 200.64 277.777 200.64 277.45C200.64 276.957 200.82 276.57 201.18 276.29C201.546 276.003 202 275.86 202.54 275.86C202.946 275.86 203.316 275.953 203.65 276.14C203.983 276.32 204.246 276.58 204.44 276.92L203.34 277.52C203.18 277.18 202.913 277.01 202.54 277.01C202.373 277.01 202.233 277.047 202.12 277.12C202.013 277.193 201.96 277.293 201.96 277.42Z" fill="white"/>
<path d="M229 358.5H252C263.046 358.5 272 349.546 272 338.5V144C272 132.954 280.954 124 292 124H303.5" stroke="#0A0C33" stroke-width="2" stroke-dasharray="6 6"/>
<rect width="30" height="30" transform="translate(257.5 222.5)" fill="white"/>
<path d="M260 237.5C260 239.972 260.733 242.389 262.107 244.445C263.48 246.5 265.432 248.102 267.716 249.048C270.001 249.995 272.514 250.242 274.939 249.76C277.363 249.278 279.591 248.087 281.339 246.339C283.087 244.591 284.278 242.363 284.76 239.939C285.242 237.514 284.995 235.001 284.048 232.716C283.102 230.432 281.5 228.48 279.445 227.107C277.389 225.733 274.972 225 272.5 225C270.858 225 269.233 225.323 267.716 225.952C266.2 226.58 264.822 227.5 263.661 228.661C261.317 231.005 260 234.185 260 237.5ZM277 239.65C277.325 238.98 277.496 238.245 277.5 237.5C277.5 236.174 276.973 234.902 276.036 233.964C275.098 233.027 273.826 232.5 272.5 232.5V235L268.6 231.25L272.5 227.5V230C274.489 230 276.397 230.79 277.803 232.197C279.21 233.603 280 235.511 280 237.5C280.003 238.913 279.599 240.297 278.837 241.487M265 237.5C264.997 236.087 265.401 234.703 266.162 233.513L268 235.35C267.675 236.02 267.504 236.755 267.5 237.5C267.5 238.826 268.027 240.098 268.964 241.036C269.902 241.973 271.174 242.5 272.5 242.5V240L276.25 243.75L272.5 247.5V245C270.511 245 268.603 244.21 267.197 242.803C265.79 241.397 265 239.489 265 237.5Z" fill="#0A0C33"/>
<path fill-rule="evenodd" clip-rule="evenodd" d="M314 74.3779C313.47 74.3779 312.961 74.5886 312.586 74.9637C312.211 75.3388 312 75.8475 312 76.3779V90.3779C312 90.9084 312.211 91.4171 312.586 91.7921C312.961 92.1672 313.47 92.3779 314 92.3779H328C328.53 92.3779 329.039 92.1672 329.414 91.7921C329.789 91.4171 330 90.9084 330 90.3779V76.3779C330 75.8475 329.789 75.3388 329.414 74.9637C329.039 74.5886 328.53 74.3779 328 74.3779H314ZM325.95 81.1739C326.138 80.9864 326.243 80.7321 326.243 80.4668C326.243 80.2015 326.138 79.9471 325.951 79.7594C325.763 79.5718 325.509 79.4663 325.243 79.4662C324.978 79.4661 324.724 79.5714 324.536 79.7589L319.586 84.7089L317.465 82.5879C317.372 82.495 317.262 82.4213 317.141 82.371C317.019 82.3207 316.889 82.2948 316.758 82.2947C316.493 82.2946 316.238 82.3999 316.05 82.5874C315.863 82.7749 315.757 83.0293 315.757 83.2946C315.757 83.5598 315.862 83.8143 316.05 84.0019L318.808 86.7599C318.91 86.8621 319.031 86.9432 319.165 86.9985C319.298 87.0538 319.442 87.0823 319.586 87.0823C319.73 87.0823 319.874 87.0538 320.007 86.9985C320.141 86.9432 320.262 86.8621 320.364 86.7599L325.95 81.1739Z" fill="#0A0C33"/>
<rect x="353" y="79.3779" width="60" height="9" rx="4.5" fill="#ECECEC"/>
<rect x="423" y="79.3779" width="30" height="9" rx="4.5" fill="#ECECEC"/>
<rect x="465" y="79.3779" width="45" height="9" rx="4.5" fill="#ECECEC"/>
<path fill-rule="evenodd" clip-rule="evenodd" d="M314 113.378C313.47 113.378 312.961 113.589 312.586 113.964C312.211 114.339 312 114.847 312 115.378V129.378C312 129.908 312.211 130.417 312.586 130.792C312.961 131.167 313.47 131.378 314 131.378H328C328.53 131.378 329.039 131.167 329.414 130.792C329.789 130.417 330 129.908 330 129.378V115.378C330 114.847 329.789 114.339 329.414 113.964C329.039 113.589 328.53 113.378 328 113.378H314ZM325.95 120.174C326.138 119.986 326.243 119.732 326.243 119.467C326.243 119.202 326.138 118.947 325.951 118.759C325.763 118.572 325.509 118.466 325.243 118.466C324.978 118.466 324.724 118.571 324.536 118.759L319.586 123.709L317.465 121.588C317.372 121.495 317.262 121.421 317.141 121.371C317.019 121.321 316.889 121.295 316.758 121.295C316.493 121.295 316.238 121.4 316.05 121.587C315.863 121.775 315.757 122.029 315.757 122.295C315.757 122.56 315.862 122.814 316.05 123.002L318.808 125.76C318.91 125.862 319.031 125.943 319.165 125.999C319.298 126.054 319.442 126.082 319.586 126.082C319.73 126.082 319.874 126.054 320.007 125.999C320.141 125.943 320.262 125.862 320.364 125.76L325.95 120.174Z" fill="#0A0C33"/>
<rect x="353" y="118.378" width="60" height="9" rx="4.5" fill="#ECECEC"/>
<rect x="423" y="118.378" width="30" height="9" rx="4.5" fill="#ECECEC"/>
<rect x="465" y="118.378" width="45" height="9" rx="4.5" fill="#ECECEC"/>
<path fill-rule="evenodd" clip-rule="evenodd" d="M314 152.378C313.47 152.378 312.961 152.589 312.586 152.964C312.211 153.339 312 153.847 312 154.378V168.378C312 168.908 312.211 169.417 312.586 169.792C312.961 170.167 313.47 170.378 314 170.378H328C328.53 170.378 329.039 170.167 329.414 169.792C329.789 169.417 330 168.908 330 168.378V154.378C330 153.847 329.789 153.339 329.414 152.964C329.039 152.589 328.53 152.378 328 152.378H314ZM325.95 159.174C326.138 158.986 326.243 158.732 326.243 158.467C326.243 158.202 326.138 157.947 325.951 157.759C325.763 157.572 325.509 157.466 325.243 157.466C324.978 157.466 324.724 157.571 324.536 157.759L319.586 162.709L317.465 160.588C317.372 160.495 317.262 160.421 317.141 160.371C317.019 160.321 316.889 160.295 316.758 160.295C316.493 160.295 316.238 160.4 316.05 160.587C315.863 160.775 315.757 161.029 315.757 161.295C315.757 161.56 315.862 161.814 316.05 162.002L318.808 164.76C318.91 164.862 319.031 164.943 319.165 164.999C319.298 165.054 319.442 165.082 319.586 165.082C319.73 165.082 319.874 165.054 320.007 164.999C320.141 164.943 320.262 164.862 320.364 164.76L325.95 159.174Z" fill="#0A0C33"/>
<rect x="353" y="157.378" width="60" height="9" rx="4.5" fill="#ECECEC"/>
<rect x="423" y="157.378" width="30" height="9" rx="4.5" fill="#ECECEC"/>
<rect x="465" y="157.378" width="45" height="9" rx="4.5" fill="#ECECEC"/>
<path fill-rule="evenodd" clip-rule="evenodd" d="M314 191.378C313.47 191.378 312.961 191.589 312.586 191.964C312.211 192.339 312 192.847 312 193.378V207.378C312 207.908 312.211 208.417 312.586 208.792C312.961 209.167 313.47 209.378 314 209.378H328C328.53 209.378 329.039 209.167 329.414 208.792C329.789 208.417 330 207.908 330 207.378V193.378C330 192.847 329.789 192.339 329.414 191.964C329.039 191.589 328.53 191.378 328 191.378H314ZM325.95 198.174C326.138 197.986 326.243 197.732 326.243 197.467C326.243 197.202 326.138 196.947 325.951 196.759C325.763 196.572 325.509 196.466 325.243 196.466C324.978 196.466 324.724 196.571 324.536 196.759L319.586 201.709L317.465 199.588C317.372 199.495 317.262 199.421 317.141 199.371C317.019 199.321 316.889 199.295 316.758 199.295C316.493 199.295 316.238 199.4 316.05 199.587C315.863 199.775 315.757 200.029 315.757 200.295C315.757 200.56 315.862 200.814 316.05 201.002L318.808 203.76C318.91 203.862 319.031 203.943 319.165 203.999C319.298 204.054 319.442 204.082 319.586 204.082C319.73 204.082 319.874 204.054 320.007 203.999C320.141 203.943 320.262 203.862 320.364 203.76L325.95 198.174Z" fill="#0A0C33"/>
<rect x="353" y="196.378" width="60" height="9" rx="4.5" fill="#ECECEC"/>
<rect x="423" y="196.378" width="30" height="9" rx="4.5" fill="#ECECEC"/>
<rect x="465" y="196.378" width="45" height="9" rx="4.5" fill="#ECECEC"/>
<rect width="18" height="18" transform="translate(492 35)" fill="white"/>
<path d="M493.5 44C493.5 45.4834 493.94 46.9334 494.764 48.1668C495.588 49.4001 496.759 50.3614 498.13 50.9291C499.5 51.4968 501.008 51.6453 502.463 51.3559C503.918 51.0665 505.254 50.3522 506.303 49.3033C507.352 48.2544 508.067 46.918 508.356 45.4632C508.645 44.0083 508.497 42.5003 507.929 41.1299C507.361 39.7594 506.4 38.5881 505.167 37.764C503.933 36.9399 502.483 36.5 501 36.5C500.015 36.5 499.04 36.694 498.13 37.0709C497.22 37.4478 496.393 38.0003 495.697 38.6967C494.29 40.1032 493.5 42.0109 493.5 44ZM503.7 45.29C503.895 44.8877 503.997 44.447 504 44C504 43.2044 503.684 42.4413 503.121 41.8787C502.559 41.3161 501.796 41 501 41V42.5L498.66 40.25L501 38V39.5C502.193 39.5 503.338 39.9741 504.182 40.818C505.026 41.6619 505.5 42.8065 505.5 44C505.502 44.8479 505.259 45.6783 504.802 46.3925M496.5 44C496.498 43.1521 496.741 42.3217 497.197 41.6075L498.3 42.71C498.105 43.1123 498.003 43.553 498 44C498 44.7956 498.316 45.5587 498.879 46.1213C499.441 46.6839 500.204 47 501 47V45.5L503.25 47.75L501 50V48.5C499.807 48.5 498.662 48.0259 497.818 47.182C496.974 46.3381 496.5 45.1935 496.5 44Z" fill="#0A0C33"/>
<path d="M312.612 46.156C311.828 46.156 311.156 45.972 310.596 45.604C310.044 45.236 309.656 44.732 309.432 44.092L310.392 43.54C310.72 44.556 311.468 45.064 312.636 45.064C313.212 45.064 313.652 44.948 313.956 44.716C314.26 44.476 314.412 44.16 314.412 43.768C314.412 43.368 314.26 43.068 313.956 42.868C313.652 42.668 313.144 42.456 312.432 42.232C312.08 42.12 311.812 42.032 311.628 41.968C311.444 41.896 311.212 41.792 310.932 41.656C310.66 41.512 310.456 41.368 310.32 41.224C310.184 41.072 310.06 40.876 309.948 40.636C309.844 40.396 309.792 40.124 309.792 39.82C309.792 39.092 310.048 38.516 310.56 38.092C311.072 37.66 311.696 37.444 312.432 37.444C313.096 37.444 313.672 37.612 314.16 37.948C314.656 38.284 315.028 38.728 315.276 39.28L314.34 39.82C313.98 38.956 313.344 38.524 312.432 38.524C311.976 38.524 311.608 38.636 311.328 38.86C311.048 39.084 310.908 39.388 310.908 39.772C310.908 40.14 311.04 40.42 311.304 40.612C311.568 40.804 312.024 41.004 312.672 41.212C312.904 41.284 313.068 41.336 313.164 41.368C313.26 41.4 313.408 41.456 313.608 41.536C313.816 41.616 313.968 41.68 314.064 41.728C314.16 41.776 314.288 41.844 314.448 41.932C314.616 42.02 314.74 42.104 314.82 42.184C314.9 42.264 314.992 42.364 315.096 42.484C315.208 42.596 315.288 42.712 315.336 42.832C315.384 42.952 315.424 43.092 315.456 43.252C315.496 43.404 315.516 43.568 315.516 43.744C315.516 44.48 315.248 45.068 314.712 45.508C314.176 45.94 313.476 46.156 312.612 46.156ZM320.683 40H321.799L319.351 46.372C319.095 47.052 318.735 47.568 318.271 47.92C317.815 48.28 317.287 48.44 316.687 48.4V47.428C317.423 47.484 317.963 47.076 318.307 46.204L318.415 45.976L315.799 40H316.915L318.955 44.704L320.683 40ZM325.659 39.844C326.363 39.844 326.927 40.068 327.351 40.516C327.775 40.956 327.987 41.556 327.987 42.316V46H326.943V42.376C326.943 41.888 326.811 41.512 326.547 41.248C326.283 40.976 325.919 40.84 325.455 40.84C324.935 40.84 324.515 41.004 324.195 41.332C323.875 41.652 323.715 42.148 323.715 42.82V46H322.671V40H323.715V40.864C324.139 40.184 324.787 39.844 325.659 39.844ZM332.264 46.156C331.36 46.156 330.608 45.856 330.008 45.256C329.408 44.648 329.108 43.896 329.108 43C329.108 42.104 329.408 41.356 330.008 40.756C330.608 40.148 331.36 39.844 332.264 39.844C332.856 39.844 333.388 39.988 333.86 40.276C334.332 40.556 334.684 40.936 334.916 41.416L334.04 41.92C333.888 41.6 333.652 41.344 333.332 41.152C333.02 40.96 332.664 40.864 332.264 40.864C331.664 40.864 331.16 41.068 330.752 41.476C330.352 41.884 330.152 42.392 330.152 43C330.152 43.6 330.352 44.104 330.752 44.512C331.16 44.92 331.664 45.124 332.264 45.124C332.664 45.124 333.024 45.032 333.344 44.848C333.664 44.656 333.908 44.4 334.076 44.08L334.964 44.596C334.708 45.068 334.34 45.448 333.86 45.736C333.38 46.016 332.848 46.156 332.264 46.156ZM338.983 39.844C339.687 39.844 340.251 40.068 340.675 40.516C341.099 40.956 341.311 41.556 341.311 42.316V46H340.267V42.376C340.267 41.888 340.135 41.512 339.871 41.248C339.607 40.976 339.243 40.84 338.779 40.84C338.259 40.84 337.839 41.004 337.519 41.332C337.199 41.652 337.039 42.148 337.039 42.82V46H335.995V37.6H337.039V40.864C337.463 40.184 338.111 39.844 338.983 39.844ZM350.737 40H351.781V46H350.737V44.968C350.217 45.76 349.461 46.156 348.469 46.156C347.629 46.156 346.913 45.852 346.321 45.244C345.729 44.628 345.433 43.88 345.433 43C345.433 42.12 345.729 41.376 346.321 40.768C346.913 40.152 347.629 39.844 348.469 39.844C349.461 39.844 350.217 40.24 350.737 41.032V40ZM348.601 45.148C349.209 45.148 349.717 44.944 350.125 44.536C350.533 44.12 350.737 43.608 350.737 43C350.737 42.392 350.533 41.884 350.125 41.476C349.717 41.06 349.209 40.852 348.601 40.852C348.001 40.852 347.497 41.06 347.089 41.476C346.681 41.884 346.477 42.392 346.477 43C346.477 43.608 346.681 44.12 347.089 44.536C347.497 44.944 348.001 45.148 348.601 45.148ZM356.182 46.156C355.278 46.156 354.526 45.856 353.926 45.256C353.326 44.648 353.026 43.896 353.026 43C353.026 42.104 353.326 41.356 353.926 40.756C354.526 40.148 355.278 39.844 356.182 39.844C356.774 39.844 357.306 39.988 357.778 40.276C358.25 40.556 358.602 40.936 358.834 41.416L357.958 41.92C357.806 41.6 357.57 41.344 357.25 41.152C356.938 40.96 356.582 40.864 356.182 40.864C355.582 40.864 355.078 41.068 354.67 41.476C354.27 41.884 354.07 42.392 354.07 43C354.07 43.6 354.27 44.104 354.67 44.512C355.078 44.92 355.582 45.124 356.182 45.124C356.582 45.124 356.942 45.032 357.262 44.848C357.582 44.656 357.826 44.4 357.994 44.08L358.882 44.596C358.626 45.068 358.258 45.448 357.778 45.736C357.298 46.016 356.766 46.156 356.182 46.156ZM362.651 46.156C361.747 46.156 360.995 45.856 360.395 45.256C359.795 44.648 359.495 43.896 359.495 43C359.495 42.104 359.795 41.356 360.395 40.756C360.995 40.148 361.747 39.844 362.651 39.844C363.243 39.844 363.775 39.988 364.247 40.276C364.719 40.556 365.071 40.936 365.303 41.416L364.427 41.92C364.275 41.6 364.039 41.344 363.719 41.152C363.407 40.96 363.051 40.864 362.651 40.864C362.051 40.864 361.547 41.068 361.139 41.476C360.739 41.884 360.539 42.392 360.539 43C360.539 43.6 360.739 44.104 361.139 44.512C361.547 44.92 362.051 45.124 362.651 45.124C363.051 45.124 363.411 45.032 363.731 44.848C364.051 44.656 364.295 44.4 364.463 44.08L365.351 44.596C365.095 45.068 364.727 45.448 364.247 45.736C363.767 46.016 363.235 46.156 362.651 46.156ZM371.364 45.244C370.748 45.852 370 46.156 369.12 46.156C368.24 46.156 367.492 45.852 366.876 45.244C366.268 44.636 365.964 43.888 365.964 43C365.964 42.112 366.268 41.364 366.876 40.756C367.492 40.148 368.24 39.844 369.12 39.844C370 39.844 370.748 40.148 371.364 40.756C371.98 41.364 372.288 42.112 372.288 43C372.288 43.888 371.98 44.636 371.364 45.244ZM369.12 45.136C369.72 45.136 370.224 44.932 370.632 44.524C371.04 44.116 371.244 43.608 371.244 43C371.244 42.392 371.04 41.884 370.632 41.476C370.224 41.068 369.72 40.864 369.12 40.864C368.528 40.864 368.028 41.068 367.62 41.476C367.212 41.884 367.008 42.392 367.008 43C367.008 43.608 367.212 44.116 367.62 44.524C368.028 44.932 368.528 45.136 369.12 45.136ZM377.659 40H378.703V46H377.659V45.136C377.235 45.816 376.587 46.156 375.715 46.156C375.011 46.156 374.447 45.936 374.023 45.496C373.599 45.048 373.387 44.444 373.387 43.684V40H374.431V43.624C374.431 44.112 374.563 44.492 374.827 44.764C375.091 45.028 375.455 45.16 375.919 45.16C376.439 45.16 376.859 45 377.179 44.68C377.499 44.352 377.659 43.852 377.659 43.18V40ZM383.28 39.844C383.984 39.844 384.548 40.068 384.972 40.516C385.396 40.956 385.608 41.556 385.608 42.316V46H384.564V42.376C384.564 41.888 384.432 41.512 384.168 41.248C383.904 40.976 383.54 40.84 383.076 40.84C382.556 40.84 382.136 41.004 381.816 41.332C381.496 41.652 381.336 42.148 381.336 42.82V46H380.292V40H381.336V40.864C381.76 40.184 382.408 39.844 383.28 39.844ZM390.329 41.008H388.733V44.26C388.733 44.556 388.789 44.768 388.901 44.896C389.021 45.016 389.201 45.08 389.441 45.088C389.681 45.088 389.977 45.08 390.329 45.064V46C389.417 46.12 388.749 46.048 388.325 45.784C387.901 45.512 387.689 45.004 387.689 44.26V41.008H386.501V40H387.689V38.632L388.733 38.32V40H390.329V41.008ZM392.093 38.908C391.893 38.908 391.725 38.84 391.589 38.704C391.453 38.568 391.385 38.404 391.385 38.212C391.385 38.02 391.453 37.856 391.589 37.72C391.725 37.576 391.893 37.504 392.093 37.504C392.285 37.504 392.449 37.576 392.585 37.72C392.721 37.856 392.789 38.02 392.789 38.212C392.789 38.404 392.721 38.568 392.585 38.704C392.449 38.84 392.285 38.908 392.093 38.908ZM391.565 46V40H392.609V46H391.565ZM397.19 39.844C397.894 39.844 398.458 40.068 398.882 40.516C399.306 40.956 399.518 41.556 399.518 42.316V46H398.474V42.376C398.474 41.888 398.342 41.512 398.078 41.248C397.814 40.976 397.45 40.84 396.986 40.84C396.466 40.84 396.046 41.004 395.726 41.332C395.406 41.652 395.246 42.148 395.246 42.82V46H394.202V40H395.246V40.864C395.67 40.184 396.318 39.844 397.19 39.844ZM405.956 40H406.988V45.748C406.988 46.636 406.688 47.324 406.088 47.812C405.488 48.308 404.768 48.556 403.928 48.556C403.256 48.556 402.676 48.428 402.188 48.172C401.7 47.924 401.332 47.564 401.084 47.092L401.996 46.576C402.324 47.248 402.976 47.584 403.952 47.584C404.576 47.584 405.064 47.42 405.416 47.092C405.776 46.764 405.956 46.316 405.956 45.748V44.896C405.428 45.696 404.676 46.096 403.7 46.096C402.844 46.096 402.12 45.792 401.528 45.184C400.936 44.576 400.64 43.836 400.64 42.964C400.64 42.092 400.936 41.356 401.528 40.756C402.12 40.148 402.844 39.844 403.7 39.844C404.684 39.844 405.436 40.24 405.956 41.032V40ZM402.296 44.488C402.704 44.896 403.212 45.1 403.82 45.1C404.428 45.1 404.936 44.896 405.344 44.488C405.752 44.08 405.956 43.572 405.956 42.964C405.956 42.364 405.752 41.86 405.344 41.452C404.936 41.044 404.428 40.84 403.82 40.84C403.212 40.84 402.704 41.044 402.296 41.452C401.888 41.86 401.684 42.364 401.684 42.964C401.684 43.572 401.888 44.08 402.296 44.488ZM412.469 41.62C412.469 41.852 412.585 42.04 412.817 42.184C413.049 42.32 413.329 42.432 413.657 42.52C413.985 42.6 414.313 42.696 414.641 42.808C414.969 42.912 415.249 43.096 415.481 43.36C415.713 43.616 415.829 43.948 415.829 44.356C415.829 44.9 415.617 45.336 415.193 45.664C414.777 45.992 414.241 46.156 413.585 46.156C413.001 46.156 412.501 46.028 412.085 45.772C411.669 45.516 411.373 45.176 411.197 44.752L412.097 44.236C412.193 44.524 412.373 44.752 412.637 44.92C412.901 45.088 413.217 45.172 413.585 45.172C413.929 45.172 414.213 45.108 414.437 44.98C414.661 44.844 414.773 44.636 414.773 44.356C414.773 44.124 414.657 43.94 414.425 43.804C414.193 43.66 413.913 43.548 413.585 43.468C413.257 43.38 412.929 43.28 412.601 43.168C412.273 43.056 411.993 42.872 411.761 42.616C411.529 42.36 411.413 42.032 411.413 41.632C411.413 41.112 411.613 40.684 412.013 40.348C412.421 40.012 412.929 39.844 413.537 39.844C414.025 39.844 414.457 39.956 414.833 40.18C415.217 40.396 415.505 40.7 415.697 41.092L414.821 41.584C414.605 41.072 414.177 40.816 413.537 40.816C413.241 40.816 412.989 40.888 412.781 41.032C412.573 41.168 412.469 41.364 412.469 41.62ZM421.965 45.244C421.349 45.852 420.601 46.156 419.721 46.156C418.841 46.156 418.093 45.852 417.477 45.244C416.869 44.636 416.565 43.888 416.565 43C416.565 42.112 416.869 41.364 417.477 40.756C418.093 40.148 418.841 39.844 419.721 39.844C420.601 39.844 421.349 40.148 421.965 40.756C422.581 41.364 422.889 42.112 422.889 43C422.889 43.888 422.581 44.636 421.965 45.244ZM419.721 45.136C420.321 45.136 420.825 44.932 421.233 44.524C421.641 44.116 421.845 43.608 421.845 43C421.845 42.392 421.641 41.884 421.233 41.476C420.825 41.068 420.321 40.864 419.721 40.864C419.129 40.864 418.629 41.068 418.221 41.476C417.813 41.884 417.609 42.392 417.609 43C417.609 43.608 417.813 44.116 418.221 44.524C418.629 44.932 419.129 45.136 419.721 45.136ZM426.981 38.452C425.925 38.364 425.397 38.82 425.397 39.82V40H426.981V41.008H425.397V46H424.353V41.008H423.393V40H424.353V39.82C424.353 39.012 424.577 38.4 425.025 37.984C425.481 37.568 426.133 37.388 426.981 37.444V38.452ZM431.263 41.008H429.667V44.26C429.667 44.556 429.723 44.768 429.835 44.896C429.955 45.016 430.135 45.08 430.375 45.088C430.615 45.088 430.911 45.08 431.263 45.064V46C430.351 46.12 429.683 46.048 429.259 45.784C428.835 45.512 428.623 45.004 428.623 44.26V41.008H427.435V40H428.623V38.632L429.667 38.32V40H431.263V41.008ZM439.602 40H440.694L438.834 46H437.766L436.362 41.56L434.958 46H433.89L432.03 40H433.122L434.442 44.56L435.858 40H436.866L438.282 44.572L439.602 40ZM446.502 40H447.546V46H446.502V44.968C445.982 45.76 445.226 46.156 444.234 46.156C443.394 46.156 442.678 45.852 442.086 45.244C441.494 44.628 441.198 43.88 441.198 43C441.198 42.12 441.494 41.376 442.086 40.768C442.678 40.152 443.394 39.844 444.234 39.844C445.226 39.844 445.982 40.24 446.502 41.032V40ZM444.366 45.148C444.974 45.148 445.482 44.944 445.89 44.536C446.298 44.12 446.502 43.608 446.502 43C446.502 42.392 446.298 41.884 445.89 41.476C445.482 41.06 444.974 40.852 444.366 40.852C443.766 40.852 443.262 41.06 442.854 41.476C442.446 41.884 442.242 42.392 442.242 43C442.242 43.608 442.446 44.12 442.854 44.536C443.262 44.944 443.766 45.148 444.366 45.148ZM450.172 41.008C450.516 40.264 451.14 39.892 452.044 39.892V40.984C451.532 40.96 451.092 41.096 450.724 41.392C450.356 41.688 450.172 42.164 450.172 42.82V46H449.128V40H450.172V41.008ZM453.469 43.48C453.573 44.016 453.817 44.432 454.201 44.728C454.593 45.024 455.073 45.172 455.641 45.172C456.433 45.172 457.009 44.88 457.369 44.296L458.257 44.8C457.673 45.704 456.793 46.156 455.617 46.156C454.665 46.156 453.889 45.86 453.289 45.268C452.697 44.668 452.401 43.912 452.401 43C452.401 42.096 452.693 41.344 453.277 40.744C453.861 40.144 454.617 39.844 455.545 39.844C456.425 39.844 457.141 40.156 457.693 40.78C458.253 41.396 458.533 42.14 458.533 43.012C458.533 43.164 458.521 43.32 458.497 43.48H453.469ZM455.545 40.828C454.985 40.828 454.521 40.988 454.153 41.308C453.785 41.62 453.557 42.04 453.469 42.568H457.477C457.389 42 457.165 41.568 456.805 41.272C456.445 40.976 456.025 40.828 455.545 40.828Z" fill="#1E1E1E"/>
<line x1="309" y1="55.8779" x2="510" y2="55.8779" stroke="#E9E9E9"/>
</svg>
