<svg width="26" height="26" viewBox="0 0 26 26" fill="none" xmlns="http://www.w3.org/2000/svg">
<path d="M9.70875 0.8125H12.375C12.6236 0.8125 12.8621 0.911272 13.0379 1.08709C13.2137 1.2629 13.3125 1.50136 13.3125 1.75C13.3125 1.99864 13.2137 2.2371 13.0379 2.41291C12.8621 2.58873 12.6236 2.6875 12.375 2.6875H9.75C8.335 2.6875 7.32875 2.6875 6.5425 2.7525C5.7675 2.815 5.28625 2.93625 4.905 3.13C4.14079 3.51945 3.51945 4.14079 3.13 4.905C2.93625 5.28625 2.81625 5.7675 2.7525 6.5425C2.68875 7.33 2.6875 8.335 2.6875 9.75V16.25C2.6875 17.6663 2.6875 18.6713 2.7525 19.4575C2.815 20.2325 2.93625 20.7137 3.13 21.095C3.51945 21.8592 4.14079 22.4805 4.905 22.87C5.28625 23.0637 5.7675 23.1838 6.5425 23.2475C7.33 23.3113 8.335 23.3125 9.75 23.3125H16.25C17.6663 23.3125 18.6713 23.3125 19.4575 23.2475C20.2325 23.185 20.7137 23.0637 21.095 22.87C21.8592 22.4805 22.4805 21.8592 22.87 21.095C23.0637 20.7137 23.1838 20.2325 23.2475 19.4575C23.3113 18.67 23.3125 17.665 23.3125 16.25V13.625C23.3125 13.3764 23.4113 13.1379 23.5871 12.9621C23.7629 12.7863 24.0014 12.6875 24.25 12.6875C24.4986 12.6875 24.7371 12.7863 24.9129 12.9621C25.0887 13.1379 25.1875 13.3764 25.1875 13.625V16.2913C25.1875 17.6562 25.1875 18.7388 25.1163 19.61C25.0438 20.5025 24.8913 21.2563 24.5413 21.9462C23.9718 23.0631 23.0634 23.9711 21.9462 24.54C21.2563 24.8913 20.5025 25.0438 19.61 25.1163C18.7388 25.1875 17.6562 25.1875 16.2913 25.1875H9.70875C8.34375 25.1875 7.26125 25.1875 6.39 25.1163C5.4975 25.0438 4.74375 24.8913 4.055 24.5413C2.93767 23.972 2.02927 23.0636 1.46 21.9462C1.10875 21.2563 0.95625 20.5025 0.88375 19.61C0.8125 18.7388 0.8125 17.6562 0.8125 16.2913V9.70875C0.8125 8.34375 0.8125 7.26125 0.88375 6.39C0.95625 5.4975 1.10875 4.74375 1.45875 4.055C2.02834 2.93748 2.93721 2.02906 4.055 1.46C4.7425 1.10875 5.4975 0.95625 6.39 0.88375C7.26125 0.8125 8.34375 0.8125 9.70875 0.8125ZM16.4375 5.1875C16.4375 4.61297 16.5507 4.04406 16.7705 3.51326C16.9904 2.98246 17.3127 2.50016 17.7189 2.09391C18.1252 1.68765 18.6075 1.36539 19.1383 1.14553C19.6691 0.925663 20.238 0.8125 20.8125 0.8125C21.387 0.8125 21.9559 0.925663 22.4867 1.14553C23.0175 1.36539 23.4998 1.68765 23.9061 2.09391C24.3123 2.50016 24.6346 2.98246 24.8545 3.51326C25.0743 4.04406 25.1875 4.61297 25.1875 5.1875C25.1875 6.34782 24.7266 7.46062 23.9061 8.28109C23.0856 9.10156 21.9728 9.5625 20.8125 9.5625C19.6522 9.5625 18.5394 9.10156 17.7189 8.28109C16.8984 7.46062 16.4375 6.34782 16.4375 5.1875Z" fill="#0A0C33"/>
</svg>
