<svg width="24" height="28" viewBox="0 0 24 28" fill="none" xmlns="http://www.w3.org/2000/svg">
<path d="M17.9437 1.5H6.05625C4.6075 1.5 3.88375 1.5 3.29875 1.70375C2.74741 1.89965 2.24856 2.21983 1.84084 2.63948C1.43311 3.05913 1.12744 3.567 0.9475 4.12375C0.75 4.72625 0.75 5.47125 0.75 6.9625V24.4675C0.75 25.54 1.98125 26.11 2.76 25.3975C2.97848 25.1956 3.26503 25.0835 3.5625 25.0835C3.85997 25.0835 4.14652 25.1956 4.365 25.3975L4.96875 25.95C5.35151 26.304 5.85367 26.5005 6.375 26.5005C6.89633 26.5005 7.39849 26.304 7.78125 25.95C8.16401 25.596 8.66617 25.3995 9.1875 25.3995C9.70883 25.3995 10.211 25.596 10.5938 25.95C10.9765 26.304 11.4787 26.5005 12 26.5005C12.5213 26.5005 13.0235 26.304 13.4062 25.95C13.789 25.596 14.2912 25.3995 14.8125 25.3995C15.3338 25.3995 15.836 25.596 16.2188 25.95C16.6015 26.304 17.1037 26.5005 17.625 26.5005C18.1463 26.5005 18.6485 26.304 19.0312 25.95L19.635 25.3975C19.8535 25.1956 20.14 25.0835 20.4375 25.0835C20.735 25.0835 21.0215 25.1956 21.24 25.3975C22.0188 26.11 23.25 25.54 23.25 24.4675V6.9625C23.25 5.47125 23.25 4.725 23.0525 4.125C22.8727 3.56802 22.5671 3.0599 22.1594 2.64002C21.7517 2.22015 21.2527 1.89978 20.7013 1.70375C20.1163 1.5 19.3925 1.5 17.9437 1.5Z" stroke="#0A0C33" stroke-width="1.5"/>
<path d="M8.875 12L10.6612 14L15.125 9" stroke="#0A0C33" stroke-width="1.5" stroke-linecap="round" stroke-linejoin="round"/>
<path d="M6.375 18.375H17.625" stroke="#0A0C33" stroke-width="1.5" stroke-linecap="round"/>
</svg>
