<svg width="24" height="24" viewBox="0 0 24 24" fill="none" xmlns="http://www.w3.org/2000/svg">
<path d="M17.9655 15.3149L16.6398 13.9893L19.2911 11.3362C21.4886 9.14054 21.7848 5.87617 19.9548 4.04429C18.123 2.21429 14.8586 2.51054 12.6611 4.70804L10.0117 7.35929L8.68609 6.03367L11.3373 3.38242C14.268 0.453668 18.7192 0.157418 21.2823 2.71867C23.8455 5.28179 23.5473 9.73304 20.6186 12.6637L17.9673 15.3149H17.9655ZM15.3142 17.9662L12.663 20.6174C9.73234 23.5462 5.28109 23.8424 2.71796 21.2812C0.154837 18.718 0.452962 14.2668 3.38171 11.3362L6.03296 8.68492L7.35859 10.0105L4.70734 12.6637C2.50984 14.8593 2.21359 18.1237 4.04359 19.9555C5.87546 21.7855 9.13984 21.4893 11.3373 19.2918L13.9886 16.6405L15.3142 17.9662ZM15.3142 7.35929L16.6398 8.68492L8.68421 16.6405L7.35859 15.3149L15.3142 7.35929Z" fill="#0A0C33"/>
</svg>
