<svg width="26" height="26" viewBox="0 0 26 26" fill="none" xmlns="http://www.w3.org/2000/svg">
<path d="M23.3125 20.9702H2.6875C1.99714 20.9702 1.4375 21.5299 1.4375 22.2202V23.4702C1.4375 24.1606 1.99714 24.7202 2.6875 24.7202H23.3125C24.0029 24.7202 24.5625 24.1606 24.5625 23.4702V22.2202C24.5625 21.5299 24.0029 20.9702 23.3125 20.9702Z" stroke="#0A0C33" stroke-width="1.5" stroke-linecap="round" stroke-linejoin="round"/>
<path d="M4.5625 10.3427V20.9802M21.4375 10.3427V20.9802M16.125 10.3427V20.9802M9.875 10.3427V20.9802M11.8 1.93769L2.0875 7.25019C1.89079 7.35782 1.72666 7.51638 1.61229 7.70925C1.49793 7.90213 1.43756 8.12221 1.4375 8.34644V9.59269C1.4375 9.7916 1.51652 9.98237 1.65717 10.123C1.79782 10.2637 1.98859 10.3427 2.1875 10.3427H23.8125C24.0114 10.3427 24.2022 10.2637 24.3428 10.123C24.4835 9.98237 24.5625 9.7916 24.5625 9.59269V8.34644C24.5624 8.12221 24.5021 7.90213 24.3877 7.70925C24.2733 7.51638 24.1092 7.35782 23.9125 7.25019L14.2 1.93769C13.8321 1.73637 13.4194 1.63086 13 1.63086C12.5806 1.63086 12.1679 1.73637 11.8 1.93769Z" stroke="#0A0C33" stroke-width="1.5" stroke-linecap="round" stroke-linejoin="round"/>
</svg>
